999
DXF file: D:\Working Folder\roach2_chassis_design\roach_2_manufacture\dxf\roach-2-chassis-flat-dxf.dxf
999
Pro/ENGINEER 2010280 by Parametric Technology Corporation
  0
SECTION
  2
HEADER
  9
$ACADVER
  1
AC1021
  9
$DWGCODEPAGE
  3
ANSI_1252
  9
$EXTMAX
 10
1189.0
 20
841.0
 30
0.0
  9
$EXTMIN
 10
0.0
 20
0.0
 30
0.0
  9
$LIMMIN
 10
0.0
 20
0.0
  9
$LIMMAX
 10
1189.0
 20
841.0
  9
$VIEWCTR
 10
594.5
 20
420.5
  9
$VIEWSIZE
 40
841.0
  9
$CLAYER
  8
0
  9
$LTSCALE
 40
65.395
  9
$CELTYPE
  6
BYLAYER
  9
$DIMSCALE
 40
1.0
  9
$DIMASZ
 40
3.5
  9
$DIMEXO
 40
7.43125
  9
$DIMDLI
 40
45.182
  9
$DIMEXE
 40
21.402
  9
$DIMCEN
 40
10.701
  9
$DIMLFAC
 40
1.0
  9
$DIMBLK
  1
_FILLED
  9
$DIMTXT
 40
3.5
  9
$DIMTOL
 70
1
  9
$DIMLIM
 70
0
  9
$DIMTFAC
 40
1.0
  9
$DIMTP
 40
0.01
  9
$DIMTM
 40
0.01
  9
$PDMODE
 70
3
  9
$PDSIZE
 40
0.25
  9
$HANDSEED
  5
726
  9
$TILEMODE
 70
1
  9
$MEASUREMENT
 70
1
  9
$INSUNITS
 70
4
  0
ENDSEC
  0
SECTION
  2
CLASSES
  0
CLASS
  1
ACDBDICTIONARYWDFLT
  2
AcDbDictionaryWithDefault
  3
AutoCAD 2000
 90
0
 91
1
280
0
281
0
  0
CLASS
  1
ACDBPLACEHOLDER
  2
AcDbPlaceHolder
  3
AutoCAD 2000
 90
0
 91
1
280
0
281
0
  0
CLASS
  1
LAYOUT
  2
AcDbLayout
  3
AutoCAD 2000
 90
0
 91
0
280
0
281
0
  0
ENDSEC
  0
SECTION
  2
TABLES
  0
TABLE
  2
VPORT
  5
8
100
AcDbSymbolTable
 70
2
  0
VPORT
  5
1F4
100
AcDbSymbolTableRecord
100
AcDbViewportTableRecord
  2
*ACTIVE
 70
0
 10
0.0
 20
0.0
 11
1.0
 21
1.0
 12
594.5
 22
420.5
 13
0.0
 23
0.0
 14
1.0
 24
1.0
 15
0.0
 25
0.0
 16
0.0
 26
0.0
 36
1.0
 17
0.0
 27
0.0
 37
0.0
 40
841.0
 41
1.4137931034
 42
50.0
 43
0.0
 44
0.0
 50
0.0
 51
0.0
 71
0
 72
100
 73
1
 74
1
 75
0
 76
0
 77
0
 78
0
  0
ENDTAB
  0
TABLE
  2
LTYPE
  5
5
100
AcDbSymbolTable
 70
6
  0
LTYPE
  5
14
100
AcDbSymbolTableRecord
100
AcDbLinetypeTableRecord
  2
BYBLOCK
 70
0
  3

 72
65
 73
0
 40
0.0
  0
LTYPE
  5
15
100
AcDbSymbolTableRecord
100
AcDbLinetypeTableRecord
  2
BYLAYER
 70
0
  3

 72
65
 73
0
 40
0.0
  0
LTYPE
  5
16
100
AcDbSymbolTableRecord
100
AcDbLinetypeTableRecord
  2
CONTINUOUS
 70
64
  3
Solid line
 72
65
 73
0
 40
0.0
  0
LTYPE
  5
1F5
100
AcDbSymbolTableRecord
100
AcDbLinetypeTableRecord
  2
CENTER
 70
64
  3
____ _ ____ _ ____ _ ____ _ ____ _ ____ _ ____
 72
65
 73
4
 40
0.6
 49
0.375
 74
0
 49
-0.075
 74
0
 49
0.075
 74
0
 49
-0.075
 74
0
  0
LTYPE
  5
1F6
100
AcDbSymbolTableRecord
100
AcDbLinetypeTableRecord
  2
HIDDEN
 70
64
  3
- - - - - - - - - - - - - - - - - - - -
 72
65
 73
2
 40
0.2
 49
0.1
 74
0
 49
-0.1
 74
0
  0
LTYPE
  5
1F7
100
AcDbSymbolTableRecord
100
AcDbLinetypeTableRecord
  2
PHANTOM
 70
64
  3
_____ _ _ _____ _ _ _____ _ _ _____
 72
65
 73
6
 40
0.8
 49
0.45
 74
0
 49
-0.05
 74
0
 49
0.1
 74
0
 49
-0.05
 74
0
 49
0.1
 74
0
 49
-0.05
 74
0
  0
LTYPE
  5
1F8
100
AcDbSymbolTableRecord
100
AcDbLinetypeTableRecord
  2
DOT
 70
64
  3
. . . . . . . . . . . . . . . . . . . .
 72
65
 73
2
 40
0.2
 49
0.1
 74
0
 49
-0.1
 74
0
  0
LTYPE
  5
1F9
100
AcDbSymbolTableRecord
100
AcDbLinetypeTableRecord
  2
DASHED
 70
64
  3
- - - - - - - - - - - - - - - - - - - -
 72
65
 73
2
 40
0.2
 49
0.1
 74
0
 49
-0.1
 74
0
  0
ENDTAB
  0
TABLE
  2
LAYER
  5
2
100
AcDbSymbolTable
 70
36
  0
LAYER
  5
10
100
AcDbSymbolTableRecord
100
AcDbLayerTableRecord
  2
0
 70
0
 62
7
  6
CONTINUOUS
370
-3
390
F
  0
LAYER
  5
1FA
100
AcDbSymbolTableRecord
100
AcDbLayerTableRecord
  2
DEFAULT_1
 70
0
 62
7
  6
CENTER
370
-3
390
F
  0
LAYER
  5
1FB
100
AcDbSymbolTableRecord
100
AcDbLayerTableRecord
  2
DEFAULT_2
 70
0
 62
8
  6
HIDDEN
370
-3
390
F
  0
LAYER
  5
1FC
100
AcDbSymbolTableRecord
100
AcDbLayerTableRecord
  2
DEFAULT_3
 70
0
 62
7
  6
PHANTOM
370
-3
390
F
  0
LAYER
  5
1FD
100
AcDbSymbolTableRecord
100
AcDbLayerTableRecord
  2
01___PRT_ALL_DTM_PLN
 70
0
 62
7
  6
CONTINUOUS
370
-3
390
F
  0
LAYER
  5
1FE
100
AcDbSymbolTableRecord
100
AcDbLayerTableRecord
  2
01___PRT_DEF_DTM_PLN
 70
0
 62
7
  6
CONTINUOUS
370
-3
390
F
  0
LAYER
  5
1FF
100
AcDbSymbolTableRecord
100
AcDbLayerTableRecord
  2
02___PRT_ALL_AXES
 70
0
 62
7
  6
CONTINUOUS
370
-3
390
F
  0
LAYER
  5
200
100
AcDbSymbolTableRecord
100
AcDbLayerTableRecord
  2
03___PRT_ALL_CURVES
 70
0
 62
7
  6
CONTINUOUS
370
-3
390
F
  0
LAYER
  5
201
100
AcDbSymbolTableRecord
100
AcDbLayerTableRecord
  2
04___PRT_ALL_DTM_PNT
 70
0
 62
7
  6
CONTINUOUS
370
-3
390
F
  0
LAYER
  5
202
100
AcDbSymbolTableRecord
100
AcDbLayerTableRecord
  2
05___PRT_ALL_DTM_CSYS
 70
0
 62
7
  6
CONTINUOUS
370
-3
390
F
  0
LAYER
  5
203
100
AcDbSymbolTableRecord
100
AcDbLayerTableRecord
  2
05___PRT_DEF_DTM_CSYS
 70
0
 62
7
  6
CONTINUOUS
370
-3
390
F
  0
LAYER
  5
204
100
AcDbSymbolTableRecord
100
AcDbLayerTableRecord
  2
06___PRT_ALL_SURFS
 70
0
 62
7
  6
CONTINUOUS
370
-3
390
F
  0
LAYER
  5
205
100
AcDbSymbolTableRecord
100
AcDbLayerTableRecord
  2
AXES
 70
0
 62
7
  6
CONTINUOUS
370
-3
390
F
  0
LAYER
  5
206
100
AcDbSymbolTableRecord
100
AcDbLayerTableRecord
  2
CSYS
 70
0
 62
7
  6
CONTINUOUS
370
-3
390
F
  0
LAYER
  5
207
100
AcDbSymbolTableRecord
100
AcDbLayerTableRecord
  2
LAYER_101
 70
0
 62
7
  6
CONTINUOUS
370
-3
390
F
  0
LAYER
  5
208
100
AcDbSymbolTableRecord
100
AcDbLayerTableRecord
  2
LAYER_109
 70
0
 62
7
  6
CONTINUOUS
370
-3
390
F
  0
LAYER
  5
209
100
AcDbSymbolTableRecord
100
AcDbLayerTableRecord
  2
LAYER_110
 70
0
 62
7
  6
CONTINUOUS
370
-3
390
F
  0
LAYER
  5
20A
100
AcDbSymbolTableRecord
100
AcDbLayerTableRecord
  2
LAYER_115
 70
0
 62
7
  6
CONTINUOUS
370
-3
390
F
  0
LAYER
  5
20B
100
AcDbSymbolTableRecord
100
AcDbLayerTableRecord
  2
LAYER_12
 70
0
 62
7
  6
CONTINUOUS
370
-3
390
F
  0
LAYER
  5
20C
100
AcDbSymbolTableRecord
100
AcDbLayerTableRecord
  2
LAYER_123
 70
0
 62
7
  6
CONTINUOUS
370
-3
390
F
  0
LAYER
  5
20D
100
AcDbSymbolTableRecord
100
AcDbLayerTableRecord
  2
LAYER_131
 70
0
 62
7
  6
CONTINUOUS
370
-3
390
F
  0
LAYER
  5
20E
100
AcDbSymbolTableRecord
100
AcDbLayerTableRecord
  2
LAYER_133
 70
0
 62
7
  6
CONTINUOUS
370
-3
390
F
  0
LAYER
  5
20F
100
AcDbSymbolTableRecord
100
AcDbLayerTableRecord
  2
LAYER_135
 70
0
 62
7
  6
CONTINUOUS
370
-3
390
F
  0
LAYER
  5
210
100
AcDbSymbolTableRecord
100
AcDbLayerTableRecord
  2
LAYER_144
 70
0
 62
7
  6
CONTINUOUS
370
-3
390
F
  0
LAYER
  5
211
100
AcDbSymbolTableRecord
100
AcDbLayerTableRecord
  2
LAYER_152
 70
0
 62
7
  6
CONTINUOUS
370
-3
390
F
  0
LAYER
  5
212
100
AcDbSymbolTableRecord
100
AcDbLayerTableRecord
  2
LAYER_156
 70
0
 62
7
  6
CONTINUOUS
370
-3
390
F
  0
LAYER
  5
213
100
AcDbSymbolTableRecord
100
AcDbLayerTableRecord
  2
LAYER_1594
 70
0
 62
7
  6
CONTINUOUS
370
-3
390
F
  0
LAYER
  5
214
100
AcDbSymbolTableRecord
100
AcDbLayerTableRecord
  2
LAYER_1621
 70
0
 62
7
  6
CONTINUOUS
370
-3
390
F
  0
LAYER
  5
215
100
AcDbSymbolTableRecord
100
AcDbLayerTableRecord
  2
LAYER_1624
 70
0
 62
7
  6
CONTINUOUS
370
-3
390
F
  0
LAYER
  5
216
100
AcDbSymbolTableRecord
100
AcDbLayerTableRecord
  2
LAYER_1635
 70
0
 62
7
  6
CONTINUOUS
370
-3
390
F
  0
LAYER
  5
217
100
AcDbSymbolTableRecord
100
AcDbLayerTableRecord
  2
LAYER_1638
 70
0
 62
7
  6
CONTINUOUS
370
-3
390
F
  0
LAYER
  5
218
100
AcDbSymbolTableRecord
100
AcDbLayerTableRecord
  2
LAYER_1639
 70
0
 62
7
  6
CONTINUOUS
370
-3
390
F
  0
LAYER
  5
219
100
AcDbSymbolTableRecord
100
AcDbLayerTableRecord
  2
LAYER_1643
 70
0
 62
7
  6
CONTINUOUS
370
-3
390
F
  0
LAYER
  5
21A
100
AcDbSymbolTableRecord
100
AcDbLayerTableRecord
  2
LAYER_166
 70
0
 62
7
  6
CONTINUOUS
370
-3
390
F
  0
LAYER
  5
21B
100
AcDbSymbolTableRecord
100
AcDbLayerTableRecord
  2
LAYER_1677
 70
0
 62
7
  6
CONTINUOUS
370
-3
390
F
  0
LAYER
  5
21C
100
AcDbSymbolTableRecord
100
AcDbLayerTableRecord
  2
LAYER_1679
 70
0
 62
7
  6
CONTINUOUS
370
-3
390
F
  0
LAYER
  5
21D
100
AcDbSymbolTableRecord
100
AcDbLayerTableRecord
  2
LAYER_168
 70
0
 62
7
  6
CONTINUOUS
370
-3
390
F
  0
LAYER
  5
21E
100
AcDbSymbolTableRecord
100
AcDbLayerTableRecord
  2
LAYER_1694
 70
0
 62
7
  6
CONTINUOUS
370
-3
390
F
  0
LAYER
  5
21F
100
AcDbSymbolTableRecord
100
AcDbLayerTableRecord
  2
LAYER_1695
 70
0
 62
7
  6
CONTINUOUS
370
-3
390
F
  0
LAYER
  5
220
100
AcDbSymbolTableRecord
100
AcDbLayerTableRecord
  2
LAYER_1704
 70
0
 62
7
  6
CONTINUOUS
370
-3
390
F
  0
LAYER
  5
221
100
AcDbSymbolTableRecord
100
AcDbLayerTableRecord
  2
LAYER_172
 70
0
 62
7
  6
CONTINUOUS
370
-3
390
F
  0
LAYER
  5
222
100
AcDbSymbolTableRecord
100
AcDbLayerTableRecord
  2
LAYER_1722
 70
0
 62
7
  6
CONTINUOUS
370
-3
390
F
  0
LAYER
  5
223
100
AcDbSymbolTableRecord
100
AcDbLayerTableRecord
  2
LAYER_1723
 70
0
 62
7
  6
CONTINUOUS
370
-3
390
F
  0
LAYER
  5
224
100
AcDbSymbolTableRecord
100
AcDbLayerTableRecord
  2
LAYER_1738
 70
0
 62
7
  6
CONTINUOUS
370
-3
390
F
  0
LAYER
  5
225
100
AcDbSymbolTableRecord
100
AcDbLayerTableRecord
  2
LAYER_175
 70
0
 62
7
  6
CONTINUOUS
370
-3
390
F
  0
LAYER
  5
226
100
AcDbSymbolTableRecord
100
AcDbLayerTableRecord
  2
LAYER_1777
 70
0
 62
7
  6
CONTINUOUS
370
-3
390
F
  0
LAYER
  5
227
100
AcDbSymbolTableRecord
100
AcDbLayerTableRecord
  2
LAYER_1779
 70
0
 62
7
  6
CONTINUOUS
370
-3
390
F
  0
LAYER
  5
228
100
AcDbSymbolTableRecord
100
AcDbLayerTableRecord
  2
LAYER_179
 70
0
 62
7
  6
CONTINUOUS
370
-3
390
F
  0
LAYER
  5
229
100
AcDbSymbolTableRecord
100
AcDbLayerTableRecord
  2
LAYER_1825
 70
0
 62
7
  6
CONTINUOUS
370
-3
390
F
  0
LAYER
  5
22A
100
AcDbSymbolTableRecord
100
AcDbLayerTableRecord
  2
LAYER_183
 70
0
 62
7
  6
CONTINUOUS
370
-3
390
F
  0
LAYER
  5
22B
100
AcDbSymbolTableRecord
100
AcDbLayerTableRecord
  2
LAYER_1832
 70
0
 62
7
  6
CONTINUOUS
370
-3
390
F
  0
LAYER
  5
22C
100
AcDbSymbolTableRecord
100
AcDbLayerTableRecord
  2
LAYER_1849
 70
0
 62
7
  6
CONTINUOUS
370
-3
390
F
  0
LAYER
  5
22D
100
AcDbSymbolTableRecord
100
AcDbLayerTableRecord
  2
LAYER_1857
 70
0
 62
7
  6
CONTINUOUS
370
-3
390
F
  0
LAYER
  5
22E
100
AcDbSymbolTableRecord
100
AcDbLayerTableRecord
  2
LAYER_1870
 70
0
 62
7
  6
CONTINUOUS
370
-3
390
F
  0
LAYER
  5
22F
100
AcDbSymbolTableRecord
100
AcDbLayerTableRecord
  2
LAYER_189
 70
0
 62
7
  6
CONTINUOUS
370
-3
390
F
  0
LAYER
  5
230
100
AcDbSymbolTableRecord
100
AcDbLayerTableRecord
  2
LAYER_190
 70
0
 62
7
  6
CONTINUOUS
370
-3
390
F
  0
LAYER
  5
231
100
AcDbSymbolTableRecord
100
AcDbLayerTableRecord
  2
LAYER_1905
 70
0
 62
7
  6
CONTINUOUS
370
-3
390
F
  0
LAYER
  5
232
100
AcDbSymbolTableRecord
100
AcDbLayerTableRecord
  2
LAYER_1911
 70
0
 62
7
  6
CONTINUOUS
370
-3
390
F
  0
LAYER
  5
233
100
AcDbSymbolTableRecord
100
AcDbLayerTableRecord
  2
LAYER_1913
 70
0
 62
7
  6
CONTINUOUS
370
-3
390
F
  0
LAYER
  5
234
100
AcDbSymbolTableRecord
100
AcDbLayerTableRecord
  2
LAYER_1923
 70
0
 62
7
  6
CONTINUOUS
370
-3
390
F
  0
LAYER
  5
235
100
AcDbSymbolTableRecord
100
AcDbLayerTableRecord
  2
LAYER_1938
 70
0
 62
7
  6
CONTINUOUS
370
-3
390
F
  0
LAYER
  5
236
100
AcDbSymbolTableRecord
100
AcDbLayerTableRecord
  2
LAYER_194
 70
0
 62
7
  6
CONTINUOUS
370
-3
390
F
  0
LAYER
  5
237
100
AcDbSymbolTableRecord
100
AcDbLayerTableRecord
  2
LAYER_1942
 70
0
 62
7
  6
CONTINUOUS
370
-3
390
F
  0
LAYER
  5
238
100
AcDbSymbolTableRecord
100
AcDbLayerTableRecord
  2
LAYER_197
 70
0
 62
7
  6
CONTINUOUS
370
-3
390
F
  0
LAYER
  5
239
100
AcDbSymbolTableRecord
100
AcDbLayerTableRecord
  2
LAYER_198
 70
0
 62
7
  6
CONTINUOUS
370
-3
390
F
  0
LAYER
  5
23A
100
AcDbSymbolTableRecord
100
AcDbLayerTableRecord
  2
LAYER_2
 70
0
 62
7
  6
CONTINUOUS
370
-3
390
F
  0
LAYER
  5
23B
100
AcDbSymbolTableRecord
100
AcDbLayerTableRecord
  2
LAYER_205
 70
0
 62
7
  6
CONTINUOUS
370
-3
390
F
  0
LAYER
  5
23C
100
AcDbSymbolTableRecord
100
AcDbLayerTableRecord
  2
LAYER_210
 70
0
 62
7
  6
CONTINUOUS
370
-3
390
F
  0
LAYER
  5
23D
100
AcDbSymbolTableRecord
100
AcDbLayerTableRecord
  2
LAYER_229
 70
0
 62
7
  6
CONTINUOUS
370
-3
390
F
  0
LAYER
  5
23E
100
AcDbSymbolTableRecord
100
AcDbLayerTableRecord
  2
LAYER_23121
 70
0
 62
7
  6
CONTINUOUS
370
-3
390
F
  0
LAYER
  5
23F
100
AcDbSymbolTableRecord
100
AcDbLayerTableRecord
  2
LAYER_23128
 70
0
 62
7
  6
CONTINUOUS
370
-3
390
F
  0
LAYER
  5
240
100
AcDbSymbolTableRecord
100
AcDbLayerTableRecord
  2
LAYER_23133
 70
0
 62
7
  6
CONTINUOUS
370
-3
390
F
  0
LAYER
  5
241
100
AcDbSymbolTableRecord
100
AcDbLayerTableRecord
  2
LAYER_23138
 70
0
 62
7
  6
CONTINUOUS
370
-3
390
F
  0
LAYER
  5
242
100
AcDbSymbolTableRecord
100
AcDbLayerTableRecord
  2
LAYER_23143
 70
0
 62
7
  6
CONTINUOUS
370
-3
390
F
  0
LAYER
  5
243
100
AcDbSymbolTableRecord
100
AcDbLayerTableRecord
  2
LAYER_23148
 70
0
 62
7
  6
CONTINUOUS
370
-3
390
F
  0
LAYER
  5
244
100
AcDbSymbolTableRecord
100
AcDbLayerTableRecord
  2
LAYER_23153
 70
0
 62
7
  6
CONTINUOUS
370
-3
390
F
  0
LAYER
  5
245
100
AcDbSymbolTableRecord
100
AcDbLayerTableRecord
  2
LAYER_23158
 70
0
 62
7
  6
CONTINUOUS
370
-3
390
F
  0
LAYER
  5
246
100
AcDbSymbolTableRecord
100
AcDbLayerTableRecord
  2
LAYER_23163
 70
0
 62
7
  6
CONTINUOUS
370
-3
390
F
  0
LAYER
  5
247
100
AcDbSymbolTableRecord
100
AcDbLayerTableRecord
  2
LAYER_23168
 70
0
 62
7
  6
CONTINUOUS
370
-3
390
F
  0
LAYER
  5
248
100
AcDbSymbolTableRecord
100
AcDbLayerTableRecord
  2
LAYER_23173
 70
0
 62
7
  6
CONTINUOUS
370
-3
390
F
  0
LAYER
  5
249
100
AcDbSymbolTableRecord
100
AcDbLayerTableRecord
  2
LAYER_23178
 70
0
 62
7
  6
CONTINUOUS
370
-3
390
F
  0
LAYER
  5
24A
100
AcDbSymbolTableRecord
100
AcDbLayerTableRecord
  2
LAYER_23183
 70
0
 62
7
  6
CONTINUOUS
370
-3
390
F
  0
LAYER
  5
24B
100
AcDbSymbolTableRecord
100
AcDbLayerTableRecord
  2
LAYER_23188
 70
0
 62
7
  6
CONTINUOUS
370
-3
390
F
  0
LAYER
  5
24C
100
AcDbSymbolTableRecord
100
AcDbLayerTableRecord
  2
LAYER_23193
 70
0
 62
7
  6
CONTINUOUS
370
-3
390
F
  0
LAYER
  5
24D
100
AcDbSymbolTableRecord
100
AcDbLayerTableRecord
  2
LAYER_23198
 70
0
 62
7
  6
CONTINUOUS
370
-3
390
F
  0
LAYER
  5
24E
100
AcDbSymbolTableRecord
100
AcDbLayerTableRecord
  2
LAYER_23203
 70
0
 62
7
  6
CONTINUOUS
370
-3
390
F
  0
LAYER
  5
24F
100
AcDbSymbolTableRecord
100
AcDbLayerTableRecord
  2
LAYER_23208
 70
0
 62
7
  6
CONTINUOUS
370
-3
390
F
  0
LAYER
  5
250
100
AcDbSymbolTableRecord
100
AcDbLayerTableRecord
  2
LAYER_23213
 70
0
 62
7
  6
CONTINUOUS
370
-3
390
F
  0
LAYER
  5
251
100
AcDbSymbolTableRecord
100
AcDbLayerTableRecord
  2
LAYER_23218
 70
0
 62
7
  6
CONTINUOUS
370
-3
390
F
  0
LAYER
  5
252
100
AcDbSymbolTableRecord
100
AcDbLayerTableRecord
  2
LAYER_23223
 70
0
 62
7
  6
CONTINUOUS
370
-3
390
F
  0
LAYER
  5
253
100
AcDbSymbolTableRecord
100
AcDbLayerTableRecord
  2
LAYER_23228
 70
0
 62
7
  6
CONTINUOUS
370
-3
390
F
  0
LAYER
  5
254
100
AcDbSymbolTableRecord
100
AcDbLayerTableRecord
  2
LAYER_23233
 70
0
 62
7
  6
CONTINUOUS
370
-3
390
F
  0
LAYER
  5
255
100
AcDbSymbolTableRecord
100
AcDbLayerTableRecord
  2
LAYER_23238
 70
0
 62
7
  6
CONTINUOUS
370
-3
390
F
  0
LAYER
  5
256
100
AcDbSymbolTableRecord
100
AcDbLayerTableRecord
  2
LAYER_23243
 70
0
 62
7
  6
CONTINUOUS
370
-3
390
F
  0
LAYER
  5
257
100
AcDbSymbolTableRecord
100
AcDbLayerTableRecord
  2
LAYER_23248
 70
0
 62
7
  6
CONTINUOUS
370
-3
390
F
  0
LAYER
  5
258
100
AcDbSymbolTableRecord
100
AcDbLayerTableRecord
  2
LAYER_23253
 70
0
 62
7
  6
CONTINUOUS
370
-3
390
F
  0
LAYER
  5
259
100
AcDbSymbolTableRecord
100
AcDbLayerTableRecord
  2
LAYER_23258
 70
0
 62
7
  6
CONTINUOUS
370
-3
390
F
  0
LAYER
  5
25A
100
AcDbSymbolTableRecord
100
AcDbLayerTableRecord
  2
LAYER_23263
 70
0
 62
7
  6
CONTINUOUS
370
-3
390
F
  0
LAYER
  5
25B
100
AcDbSymbolTableRecord
100
AcDbLayerTableRecord
  2
LAYER_23268
 70
0
 62
7
  6
CONTINUOUS
370
-3
390
F
  0
LAYER
  5
25C
100
AcDbSymbolTableRecord
100
AcDbLayerTableRecord
  2
LAYER_23273
 70
0
 62
7
  6
CONTINUOUS
370
-3
390
F
  0
LAYER
  5
25D
100
AcDbSymbolTableRecord
100
AcDbLayerTableRecord
  2
LAYER_23279
 70
0
 62
7
  6
CONTINUOUS
370
-3
390
F
  0
LAYER
  5
25E
100
AcDbSymbolTableRecord
100
AcDbLayerTableRecord
  2
LAYER_23284
 70
0
 62
7
  6
CONTINUOUS
370
-3
390
F
  0
LAYER
  5
25F
100
AcDbSymbolTableRecord
100
AcDbLayerTableRecord
  2
LAYER_23289
 70
0
 62
7
  6
CONTINUOUS
370
-3
390
F
  0
LAYER
  5
260
100
AcDbSymbolTableRecord
100
AcDbLayerTableRecord
  2
LAYER_23295
 70
0
 62
7
  6
CONTINUOUS
370
-3
390
F
  0
LAYER
  5
261
100
AcDbSymbolTableRecord
100
AcDbLayerTableRecord
  2
LAYER_23301
 70
0
 62
7
  6
CONTINUOUS
370
-3
390
F
  0
LAYER
  5
262
100
AcDbSymbolTableRecord
100
AcDbLayerTableRecord
  2
LAYER_23306
 70
0
 62
7
  6
CONTINUOUS
370
-3
390
F
  0
LAYER
  5
263
100
AcDbSymbolTableRecord
100
AcDbLayerTableRecord
  2
LAYER_23312
 70
0
 62
7
  6
CONTINUOUS
370
-3
390
F
  0
LAYER
  5
264
100
AcDbSymbolTableRecord
100
AcDbLayerTableRecord
  2
LAYER_23318
 70
0
 62
7
  6
CONTINUOUS
370
-3
390
F
  0
LAYER
  5
265
100
AcDbSymbolTableRecord
100
AcDbLayerTableRecord
  2
LAYER_23324
 70
0
 62
7
  6
CONTINUOUS
370
-3
390
F
  0
LAYER
  5
266
100
AcDbSymbolTableRecord
100
AcDbLayerTableRecord
  2
LAYER_23330
 70
0
 62
7
  6
CONTINUOUS
370
-3
390
F
  0
LAYER
  5
267
100
AcDbSymbolTableRecord
100
AcDbLayerTableRecord
  2
LAYER_23335
 70
0
 62
7
  6
CONTINUOUS
370
-3
390
F
  0
LAYER
  5
268
100
AcDbSymbolTableRecord
100
AcDbLayerTableRecord
  2
LAYER_23341
 70
0
 62
7
  6
CONTINUOUS
370
-3
390
F
  0
LAYER
  5
269
100
AcDbSymbolTableRecord
100
AcDbLayerTableRecord
  2
LAYER_23346
 70
0
 62
7
  6
CONTINUOUS
370
-3
390
F
  0
LAYER
  5
26A
100
AcDbSymbolTableRecord
100
AcDbLayerTableRecord
  2
LAYER_23351
 70
0
 62
7
  6
CONTINUOUS
370
-3
390
F
  0
LAYER
  5
26B
100
AcDbSymbolTableRecord
100
AcDbLayerTableRecord
  2
LAYER_23357
 70
0
 62
7
  6
CONTINUOUS
370
-3
390
F
  0
LAYER
  5
26C
100
AcDbSymbolTableRecord
100
AcDbLayerTableRecord
  2
LAYER_23362
 70
0
 62
7
  6
CONTINUOUS
370
-3
390
F
  0
LAYER
  5
26D
100
AcDbSymbolTableRecord
100
AcDbLayerTableRecord
  2
LAYER_23367
 70
0
 62
7
  6
CONTINUOUS
370
-3
390
F
  0
LAYER
  5
26E
100
AcDbSymbolTableRecord
100
AcDbLayerTableRecord
  2
LAYER_23372
 70
0
 62
7
  6
CONTINUOUS
370
-3
390
F
  0
LAYER
  5
26F
100
AcDbSymbolTableRecord
100
AcDbLayerTableRecord
  2
LAYER_23377
 70
0
 62
7
  6
CONTINUOUS
370
-3
390
F
  0
LAYER
  5
270
100
AcDbSymbolTableRecord
100
AcDbLayerTableRecord
  2
LAYER_23382
 70
0
 62
7
  6
CONTINUOUS
370
-3
390
F
  0
LAYER
  5
271
100
AcDbSymbolTableRecord
100
AcDbLayerTableRecord
  2
LAYER_234
 70
0
 62
7
  6
CONTINUOUS
370
-3
390
F
  0
LAYER
  5
272
100
AcDbSymbolTableRecord
100
AcDbLayerTableRecord
  2
LAYER_238
 70
0
 62
7
  6
CONTINUOUS
370
-3
390
F
  0
LAYER
  5
273
100
AcDbSymbolTableRecord
100
AcDbLayerTableRecord
  2
LAYER_242
 70
0
 62
7
  6
CONTINUOUS
370
-3
390
F
  0
LAYER
  5
274
100
AcDbSymbolTableRecord
100
AcDbLayerTableRecord
  2
LAYER_245
 70
0
 62
7
  6
CONTINUOUS
370
-3
390
F
  0
LAYER
  5
275
100
AcDbSymbolTableRecord
100
AcDbLayerTableRecord
  2
LAYER_252
 70
0
 62
7
  6
CONTINUOUS
370
-3
390
F
  0
LAYER
  5
276
100
AcDbSymbolTableRecord
100
AcDbLayerTableRecord
  2
LAYER_258
 70
0
 62
7
  6
CONTINUOUS
370
-3
390
F
  0
LAYER
  5
277
100
AcDbSymbolTableRecord
100
AcDbLayerTableRecord
  2
LAYER_261
 70
0
 62
7
  6
CONTINUOUS
370
-3
390
F
  0
LAYER
  5
278
100
AcDbSymbolTableRecord
100
AcDbLayerTableRecord
  2
LAYER_266
 70
0
 62
7
  6
CONTINUOUS
370
-3
390
F
  0
LAYER
  5
279
100
AcDbSymbolTableRecord
100
AcDbLayerTableRecord
  2
LAYER_269
 70
0
 62
7
  6
CONTINUOUS
370
-3
390
F
  0
LAYER
  5
27A
100
AcDbSymbolTableRecord
100
AcDbLayerTableRecord
  2
LAYER_27
 70
0
 62
7
  6
CONTINUOUS
370
-3
390
F
  0
LAYER
  5
27B
100
AcDbSymbolTableRecord
100
AcDbLayerTableRecord
  2
LAYER_278
 70
0
 62
7
  6
CONTINUOUS
370
-3
390
F
  0
LAYER
  5
27C
100
AcDbSymbolTableRecord
100
AcDbLayerTableRecord
  2
LAYER_281
 70
0
 62
7
  6
CONTINUOUS
370
-3
390
F
  0
LAYER
  5
27D
100
AcDbSymbolTableRecord
100
AcDbLayerTableRecord
  2
LAYER_287
 70
0
 62
7
  6
CONTINUOUS
370
-3
390
F
  0
LAYER
  5
27E
100
AcDbSymbolTableRecord
100
AcDbLayerTableRecord
  2
LAYER_288
 70
0
 62
7
  6
CONTINUOUS
370
-3
390
F
  0
LAYER
  5
27F
100
AcDbSymbolTableRecord
100
AcDbLayerTableRecord
  2
LAYER_295
 70
0
 62
7
  6
CONTINUOUS
370
-3
390
F
  0
LAYER
  5
280
100
AcDbSymbolTableRecord
100
AcDbLayerTableRecord
  2
LAYER_296
 70
0
 62
7
  6
CONTINUOUS
370
-3
390
F
  0
LAYER
  5
281
100
AcDbSymbolTableRecord
100
AcDbLayerTableRecord
  2
LAYER_300
 70
0
 62
7
  6
CONTINUOUS
370
-3
390
F
  0
LAYER
  5
282
100
AcDbSymbolTableRecord
100
AcDbLayerTableRecord
  2
LAYER_306
 70
0
 62
7
  6
CONTINUOUS
370
-3
390
F
  0
LAYER
  5
283
100
AcDbSymbolTableRecord
100
AcDbLayerTableRecord
  2
LAYER_308
 70
0
 62
7
  6
CONTINUOUS
370
-3
390
F
  0
LAYER
  5
284
100
AcDbSymbolTableRecord
100
AcDbLayerTableRecord
  2
LAYER_309
 70
0
 62
7
  6
CONTINUOUS
370
-3
390
F
  0
LAYER
  5
285
100
AcDbSymbolTableRecord
100
AcDbLayerTableRecord
  2
LAYER_31
 70
0
 62
7
  6
CONTINUOUS
370
-3
390
F
  0
LAYER
  5
286
100
AcDbSymbolTableRecord
100
AcDbLayerTableRecord
  2
LAYER_31132
 70
0
 62
7
  6
CONTINUOUS
370
-3
390
F
  0
LAYER
  5
287
100
AcDbSymbolTableRecord
100
AcDbLayerTableRecord
  2
LAYER_31133
 70
0
 62
7
  6
CONTINUOUS
370
-3
390
F
  0
LAYER
  5
288
100
AcDbSymbolTableRecord
100
AcDbLayerTableRecord
  2
LAYER_31137
 70
0
 62
7
  6
CONTINUOUS
370
-3
390
F
  0
LAYER
  5
289
100
AcDbSymbolTableRecord
100
AcDbLayerTableRecord
  2
LAYER_31144
 70
0
 62
7
  6
CONTINUOUS
370
-3
390
F
  0
LAYER
  5
28A
100
AcDbSymbolTableRecord
100
AcDbLayerTableRecord
  2
LAYER_31169
 70
0
 62
7
  6
CONTINUOUS
370
-3
390
F
  0
LAYER
  5
28B
100
AcDbSymbolTableRecord
100
AcDbLayerTableRecord
  2
LAYER_31183
 70
0
 62
7
  6
CONTINUOUS
370
-3
390
F
  0
LAYER
  5
28C
100
AcDbSymbolTableRecord
100
AcDbLayerTableRecord
  2
LAYER_31189
 70
0
 62
7
  6
CONTINUOUS
370
-3
390
F
  0
LAYER
  5
28D
100
AcDbSymbolTableRecord
100
AcDbLayerTableRecord
  2
LAYER_31199
 70
0
 62
7
  6
CONTINUOUS
370
-3
390
F
  0
LAYER
  5
28E
100
AcDbSymbolTableRecord
100
AcDbLayerTableRecord
  2
LAYER_31201
 70
0
 62
7
  6
CONTINUOUS
370
-3
390
F
  0
LAYER
  5
28F
100
AcDbSymbolTableRecord
100
AcDbLayerTableRecord
  2
LAYER_31239
 70
0
 62
7
  6
CONTINUOUS
370
-3
390
F
  0
LAYER
  5
290
100
AcDbSymbolTableRecord
100
AcDbLayerTableRecord
  2
LAYER_31241
 70
0
 62
7
  6
CONTINUOUS
370
-3
390
F
  0
LAYER
  5
291
100
AcDbSymbolTableRecord
100
AcDbLayerTableRecord
  2
LAYER_31260
 70
0
 62
7
  6
CONTINUOUS
370
-3
390
F
  0
LAYER
  5
292
100
AcDbSymbolTableRecord
100
AcDbLayerTableRecord
  2
LAYER_31264
 70
0
 62
7
  6
CONTINUOUS
370
-3
390
F
  0
LAYER
  5
293
100
AcDbSymbolTableRecord
100
AcDbLayerTableRecord
  2
LAYER_31277
 70
0
 62
7
  6
CONTINUOUS
370
-3
390
F
  0
LAYER
  5
294
100
AcDbSymbolTableRecord
100
AcDbLayerTableRecord
  2
LAYER_31295
 70
0
 62
7
  6
CONTINUOUS
370
-3
390
F
  0
LAYER
  5
295
100
AcDbSymbolTableRecord
100
AcDbLayerTableRecord
  2
LAYER_31298
 70
0
 62
7
  6
CONTINUOUS
370
-3
390
F
  0
LAYER
  5
296
100
AcDbSymbolTableRecord
100
AcDbLayerTableRecord
  2
LAYER_31304
 70
0
 62
7
  6
CONTINUOUS
370
-3
390
F
  0
LAYER
  5
297
100
AcDbSymbolTableRecord
100
AcDbLayerTableRecord
  2
LAYER_31305
 70
0
 62
7
  6
CONTINUOUS
370
-3
390
F
  0
LAYER
  5
298
100
AcDbSymbolTableRecord
100
AcDbLayerTableRecord
  2
LAYER_31316
 70
0
 62
7
  6
CONTINUOUS
370
-3
390
F
  0
LAYER
  5
299
100
AcDbSymbolTableRecord
100
AcDbLayerTableRecord
  2
LAYER_31369
 70
0
 62
7
  6
CONTINUOUS
370
-3
390
F
  0
LAYER
  5
29A
100
AcDbSymbolTableRecord
100
AcDbLayerTableRecord
  2
LAYER_31376
 70
0
 62
7
  6
CONTINUOUS
370
-3
390
F
  0
LAYER
  5
29B
100
AcDbSymbolTableRecord
100
AcDbLayerTableRecord
  2
LAYER_31401
 70
0
 62
7
  6
CONTINUOUS
370
-3
390
F
  0
LAYER
  5
29C
100
AcDbSymbolTableRecord
100
AcDbLayerTableRecord
  2
LAYER_31403
 70
0
 62
7
  6
CONTINUOUS
370
-3
390
F
  0
LAYER
  5
29D
100
AcDbSymbolTableRecord
100
AcDbLayerTableRecord
  2
LAYER_31418
 70
0
 62
7
  6
CONTINUOUS
370
-3
390
F
  0
LAYER
  5
29E
100
AcDbSymbolTableRecord
100
AcDbLayerTableRecord
  2
LAYER_31427
 70
0
 62
7
  6
CONTINUOUS
370
-3
390
F
  0
LAYER
  5
29F
100
AcDbSymbolTableRecord
100
AcDbLayerTableRecord
  2
LAYER_31428
 70
0
 62
7
  6
CONTINUOUS
370
-3
390
F
  0
LAYER
  5
2A0
100
AcDbSymbolTableRecord
100
AcDbLayerTableRecord
  2
LAYER_31431
 70
0
 62
7
  6
CONTINUOUS
370
-3
390
F
  0
LAYER
  5
2A1
100
AcDbSymbolTableRecord
100
AcDbLayerTableRecord
  2
LAYER_31434
 70
0
 62
7
  6
CONTINUOUS
370
-3
390
F
  0
LAYER
  5
2A2
100
AcDbSymbolTableRecord
100
AcDbLayerTableRecord
  2
LAYER_31441
 70
0
 62
7
  6
CONTINUOUS
370
-3
390
F
  0
LAYER
  5
2A3
100
AcDbSymbolTableRecord
100
AcDbLayerTableRecord
  2
LAYER_31443
 70
0
 62
7
  6
CONTINUOUS
370
-3
390
F
  0
LAYER
  5
2A4
100
AcDbSymbolTableRecord
100
AcDbLayerTableRecord
  2
LAYER_31445
 70
0
 62
7
  6
CONTINUOUS
370
-3
390
F
  0
LAYER
  5
2A5
100
AcDbSymbolTableRecord
100
AcDbLayerTableRecord
  2
LAYER_31446
 70
0
 62
7
  6
CONTINUOUS
370
-3
390
F
  0
LAYER
  5
2A6
100
AcDbSymbolTableRecord
100
AcDbLayerTableRecord
  2
LAYER_31447
 70
0
 62
7
  6
CONTINUOUS
370
-3
390
F
  0
LAYER
  5
2A7
100
AcDbSymbolTableRecord
100
AcDbLayerTableRecord
  2
LAYER_31456
 70
0
 62
7
  6
CONTINUOUS
370
-3
390
F
  0
LAYER
  5
2A8
100
AcDbSymbolTableRecord
100
AcDbLayerTableRecord
  2
LAYER_31461
 70
0
 62
7
  6
CONTINUOUS
370
-3
390
F
  0
LAYER
  5
2A9
100
AcDbSymbolTableRecord
100
AcDbLayerTableRecord
  2
LAYER_31468
 70
0
 62
7
  6
CONTINUOUS
370
-3
390
F
  0
LAYER
  5
2AA
100
AcDbSymbolTableRecord
100
AcDbLayerTableRecord
  2
LAYER_31474
 70
0
 62
7
  6
CONTINUOUS
370
-3
390
F
  0
LAYER
  5
2AB
100
AcDbSymbolTableRecord
100
AcDbLayerTableRecord
  2
LAYER_31481
 70
0
 62
7
  6
CONTINUOUS
370
-3
390
F
  0
LAYER
  5
2AC
100
AcDbSymbolTableRecord
100
AcDbLayerTableRecord
  2
LAYER_31487
 70
0
 62
7
  6
CONTINUOUS
370
-3
390
F
  0
LAYER
  5
2AD
100
AcDbSymbolTableRecord
100
AcDbLayerTableRecord
  2
LAYER_31495
 70
0
 62
7
  6
CONTINUOUS
370
-3
390
F
  0
LAYER
  5
2AE
100
AcDbSymbolTableRecord
100
AcDbLayerTableRecord
  2
LAYER_31501
 70
0
 62
7
  6
CONTINUOUS
370
-3
390
F
  0
LAYER
  5
2AF
100
AcDbSymbolTableRecord
100
AcDbLayerTableRecord
  2
LAYER_31502
 70
0
 62
7
  6
CONTINUOUS
370
-3
390
F
  0
LAYER
  5
2B0
100
AcDbSymbolTableRecord
100
AcDbLayerTableRecord
  2
LAYER_31505
 70
0
 62
7
  6
CONTINUOUS
370
-3
390
F
  0
LAYER
  5
2B1
100
AcDbSymbolTableRecord
100
AcDbLayerTableRecord
  2
LAYER_31519
 70
0
 62
7
  6
CONTINUOUS
370
-3
390
F
  0
LAYER
  5
2B2
100
AcDbSymbolTableRecord
100
AcDbLayerTableRecord
  2
LAYER_31520
 70
0
 62
7
  6
CONTINUOUS
370
-3
390
F
  0
LAYER
  5
2B3
100
AcDbSymbolTableRecord
100
AcDbLayerTableRecord
  2
LAYER_31526
 70
0
 62
7
  6
CONTINUOUS
370
-3
390
F
  0
LAYER
  5
2B4
100
AcDbSymbolTableRecord
100
AcDbLayerTableRecord
  2
LAYER_31530
 70
0
 62
7
  6
CONTINUOUS
370
-3
390
F
  0
LAYER
  5
2B5
100
AcDbSymbolTableRecord
100
AcDbLayerTableRecord
  2
LAYER_31533
 70
0
 62
7
  6
CONTINUOUS
370
-3
390
F
  0
LAYER
  5
2B6
100
AcDbSymbolTableRecord
100
AcDbLayerTableRecord
  2
LAYER_31539
 70
0
 62
7
  6
CONTINUOUS
370
-3
390
F
  0
LAYER
  5
2B7
100
AcDbSymbolTableRecord
100
AcDbLayerTableRecord
  2
LAYER_31540
 70
0
 62
7
  6
CONTINUOUS
370
-3
390
F
  0
LAYER
  5
2B8
100
AcDbSymbolTableRecord
100
AcDbLayerTableRecord
  2
LAYER_318
 70
0
 62
7
  6
CONTINUOUS
370
-3
390
F
  0
LAYER
  5
2B9
100
AcDbSymbolTableRecord
100
AcDbLayerTableRecord
  2
LAYER_324
 70
0
 62
7
  6
CONTINUOUS
370
-3
390
F
  0
LAYER
  5
2BA
100
AcDbSymbolTableRecord
100
AcDbLayerTableRecord
  2
LAYER_32606
 70
0
 62
7
  6
CONTINUOUS
370
-3
390
F
  0
LAYER
  5
2BB
100
AcDbSymbolTableRecord
100
AcDbLayerTableRecord
  2
LAYER_32611
 70
0
 62
7
  6
CONTINUOUS
370
-3
390
F
  0
LAYER
  5
2BC
100
AcDbSymbolTableRecord
100
AcDbLayerTableRecord
  2
LAYER_32616
 70
0
 62
7
  6
CONTINUOUS
370
-3
390
F
  0
LAYER
  5
2BD
100
AcDbSymbolTableRecord
100
AcDbLayerTableRecord
  2
LAYER_32621
 70
0
 62
7
  6
CONTINUOUS
370
-3
390
F
  0
LAYER
  5
2BE
100
AcDbSymbolTableRecord
100
AcDbLayerTableRecord
  2
LAYER_32626
 70
0
 62
7
  6
CONTINUOUS
370
-3
390
F
  0
LAYER
  5
2BF
100
AcDbSymbolTableRecord
100
AcDbLayerTableRecord
  2
LAYER_32631
 70
0
 62
7
  6
CONTINUOUS
370
-3
390
F
  0
LAYER
  5
2C0
100
AcDbSymbolTableRecord
100
AcDbLayerTableRecord
  2
LAYER_32636
 70
0
 62
7
  6
CONTINUOUS
370
-3
390
F
  0
LAYER
  5
2C1
100
AcDbSymbolTableRecord
100
AcDbLayerTableRecord
  2
LAYER_32641
 70
0
 62
7
  6
CONTINUOUS
370
-3
390
F
  0
LAYER
  5
2C2
100
AcDbSymbolTableRecord
100
AcDbLayerTableRecord
  2
LAYER_32646
 70
0
 62
7
  6
CONTINUOUS
370
-3
390
F
  0
LAYER
  5
2C3
100
AcDbSymbolTableRecord
100
AcDbLayerTableRecord
  2
LAYER_32651
 70
0
 62
7
  6
CONTINUOUS
370
-3
390
F
  0
LAYER
  5
2C4
100
AcDbSymbolTableRecord
100
AcDbLayerTableRecord
  2
LAYER_32656
 70
0
 62
7
  6
CONTINUOUS
370
-3
390
F
  0
LAYER
  5
2C5
100
AcDbSymbolTableRecord
100
AcDbLayerTableRecord
  2
LAYER_32661
 70
0
 62
7
  6
CONTINUOUS
370
-3
390
F
  0
LAYER
  5
2C6
100
AcDbSymbolTableRecord
100
AcDbLayerTableRecord
  2
LAYER_32666
 70
0
 62
7
  6
CONTINUOUS
370
-3
390
F
  0
LAYER
  5
2C7
100
AcDbSymbolTableRecord
100
AcDbLayerTableRecord
  2
LAYER_32671
 70
0
 62
7
  6
CONTINUOUS
370
-3
390
F
  0
LAYER
  5
2C8
100
AcDbSymbolTableRecord
100
AcDbLayerTableRecord
  2
LAYER_32676
 70
0
 62
7
  6
CONTINUOUS
370
-3
390
F
  0
LAYER
  5
2C9
100
AcDbSymbolTableRecord
100
AcDbLayerTableRecord
  2
LAYER_32681
 70
0
 62
7
  6
CONTINUOUS
370
-3
390
F
  0
LAYER
  5
2CA
100
AcDbSymbolTableRecord
100
AcDbLayerTableRecord
  2
LAYER_32686
 70
0
 62
7
  6
CONTINUOUS
370
-3
390
F
  0
LAYER
  5
2CB
100
AcDbSymbolTableRecord
100
AcDbLayerTableRecord
  2
LAYER_32691
 70
0
 62
7
  6
CONTINUOUS
370
-3
390
F
  0
LAYER
  5
2CC
100
AcDbSymbolTableRecord
100
AcDbLayerTableRecord
  2
LAYER_32695
 70
0
 62
7
  6
CONTINUOUS
370
-3
390
F
  0
LAYER
  5
2CD
100
AcDbSymbolTableRecord
100
AcDbLayerTableRecord
  2
LAYER_32701
 70
0
 62
7
  6
CONTINUOUS
370
-3
390
F
  0
LAYER
  5
2CE
100
AcDbSymbolTableRecord
100
AcDbLayerTableRecord
  2
LAYER_32706
 70
0
 62
7
  6
CONTINUOUS
370
-3
390
F
  0
LAYER
  5
2CF
100
AcDbSymbolTableRecord
100
AcDbLayerTableRecord
  2
LAYER_32711
 70
0
 62
7
  6
CONTINUOUS
370
-3
390
F
  0
LAYER
  5
2D0
100
AcDbSymbolTableRecord
100
AcDbLayerTableRecord
  2
LAYER_32716
 70
0
 62
7
  6
CONTINUOUS
370
-3
390
F
  0
LAYER
  5
2D1
100
AcDbSymbolTableRecord
100
AcDbLayerTableRecord
  2
LAYER_32721
 70
0
 62
7
  6
CONTINUOUS
370
-3
390
F
  0
LAYER
  5
2D2
100
AcDbSymbolTableRecord
100
AcDbLayerTableRecord
  2
LAYER_32726
 70
0
 62
7
  6
CONTINUOUS
370
-3
390
F
  0
LAYER
  5
2D3
100
AcDbSymbolTableRecord
100
AcDbLayerTableRecord
  2
LAYER_32731
 70
0
 62
7
  6
CONTINUOUS
370
-3
390
F
  0
LAYER
  5
2D4
100
AcDbSymbolTableRecord
100
AcDbLayerTableRecord
  2
LAYER_32736
 70
0
 62
7
  6
CONTINUOUS
370
-3
390
F
  0
LAYER
  5
2D5
100
AcDbSymbolTableRecord
100
AcDbLayerTableRecord
  2
LAYER_32741
 70
0
 62
7
  6
CONTINUOUS
370
-3
390
F
  0
LAYER
  5
2D6
100
AcDbSymbolTableRecord
100
AcDbLayerTableRecord
  2
LAYER_32746
 70
0
 62
7
  6
CONTINUOUS
370
-3
390
F
  0
LAYER
  5
2D7
100
AcDbSymbolTableRecord
100
AcDbLayerTableRecord
  2
LAYER_32751
 70
0
 62
7
  6
CONTINUOUS
370
-3
390
F
  0
LAYER
  5
2D8
100
AcDbSymbolTableRecord
100
AcDbLayerTableRecord
  2
LAYER_32756
 70
0
 62
7
  6
CONTINUOUS
370
-3
390
F
  0
LAYER
  5
2D9
100
AcDbSymbolTableRecord
100
AcDbLayerTableRecord
  2
LAYER_32761
 70
0
 62
7
  6
CONTINUOUS
370
-3
390
F
  0
LAYER
  5
2DA
100
AcDbSymbolTableRecord
100
AcDbLayerTableRecord
  2
LAYER_32766
 70
0
 62
7
  6
CONTINUOUS
370
-3
390
F
  0
LAYER
  5
2DB
100
AcDbSymbolTableRecord
100
AcDbLayerTableRecord
  2
LAYER_32771
 70
0
 62
7
  6
CONTINUOUS
370
-3
390
F
  0
LAYER
  5
2DC
100
AcDbSymbolTableRecord
100
AcDbLayerTableRecord
  2
LAYER_32776
 70
0
 62
7
  6
CONTINUOUS
370
-3
390
F
  0
LAYER
  5
2DD
100
AcDbSymbolTableRecord
100
AcDbLayerTableRecord
  2
LAYER_32781
 70
0
 62
7
  6
CONTINUOUS
370
-3
390
F
  0
LAYER
  5
2DE
100
AcDbSymbolTableRecord
100
AcDbLayerTableRecord
  2
LAYER_32786
 70
0
 62
7
  6
CONTINUOUS
370
-3
390
F
  0
LAYER
  5
2DF
100
AcDbSymbolTableRecord
100
AcDbLayerTableRecord
  2
LAYER_32791
 70
0
 62
7
  6
CONTINUOUS
370
-3
390
F
  0
LAYER
  5
2E0
100
AcDbSymbolTableRecord
100
AcDbLayerTableRecord
  2
LAYER_32796
 70
0
 62
7
  6
CONTINUOUS
370
-3
390
F
  0
LAYER
  5
2E1
100
AcDbSymbolTableRecord
100
AcDbLayerTableRecord
  2
LAYER_32801
 70
0
 62
7
  6
CONTINUOUS
370
-3
390
F
  0
LAYER
  5
2E2
100
AcDbSymbolTableRecord
100
AcDbLayerTableRecord
  2
LAYER_32806
 70
0
 62
7
  6
CONTINUOUS
370
-3
390
F
  0
LAYER
  5
2E3
100
AcDbSymbolTableRecord
100
AcDbLayerTableRecord
  2
LAYER_32811
 70
0
 62
7
  6
CONTINUOUS
370
-3
390
F
  0
LAYER
  5
2E4
100
AcDbSymbolTableRecord
100
AcDbLayerTableRecord
  2
LAYER_32816
 70
0
 62
7
  6
CONTINUOUS
370
-3
390
F
  0
LAYER
  5
2E5
100
AcDbSymbolTableRecord
100
AcDbLayerTableRecord
  2
LAYER_32821
 70
0
 62
7
  6
CONTINUOUS
370
-3
390
F
  0
LAYER
  5
2E6
100
AcDbSymbolTableRecord
100
AcDbLayerTableRecord
  2
LAYER_32826
 70
0
 62
7
  6
CONTINUOUS
370
-3
390
F
  0
LAYER
  5
2E7
100
AcDbSymbolTableRecord
100
AcDbLayerTableRecord
  2
LAYER_32831
 70
0
 62
7
  6
CONTINUOUS
370
-3
390
F
  0
LAYER
  5
2E8
100
AcDbSymbolTableRecord
100
AcDbLayerTableRecord
  2
LAYER_32836
 70
0
 62
7
  6
CONTINUOUS
370
-3
390
F
  0
LAYER
  5
2E9
100
AcDbSymbolTableRecord
100
AcDbLayerTableRecord
  2
LAYER_32841
 70
0
 62
7
  6
CONTINUOUS
370
-3
390
F
  0
LAYER
  5
2EA
100
AcDbSymbolTableRecord
100
AcDbLayerTableRecord
  2
LAYER_32846
 70
0
 62
7
  6
CONTINUOUS
370
-3
390
F
  0
LAYER
  5
2EB
100
AcDbSymbolTableRecord
100
AcDbLayerTableRecord
  2
LAYER_32851
 70
0
 62
7
  6
CONTINUOUS
370
-3
390
F
  0
LAYER
  5
2EC
100
AcDbSymbolTableRecord
100
AcDbLayerTableRecord
  2
LAYER_32856
 70
0
 62
7
  6
CONTINUOUS
370
-3
390
F
  0
LAYER
  5
2ED
100
AcDbSymbolTableRecord
100
AcDbLayerTableRecord
  2
LAYER_32861
 70
0
 62
7
  6
CONTINUOUS
370
-3
390
F
  0
LAYER
  5
2EE
100
AcDbSymbolTableRecord
100
AcDbLayerTableRecord
  2
LAYER_32866
 70
0
 62
7
  6
CONTINUOUS
370
-3
390
F
  0
LAYER
  5
2EF
100
AcDbSymbolTableRecord
100
AcDbLayerTableRecord
  2
LAYER_32871
 70
0
 62
7
  6
CONTINUOUS
370
-3
390
F
  0
LAYER
  5
2F0
100
AcDbSymbolTableRecord
100
AcDbLayerTableRecord
  2
LAYER_32876
 70
0
 62
7
  6
CONTINUOUS
370
-3
390
F
  0
LAYER
  5
2F1
100
AcDbSymbolTableRecord
100
AcDbLayerTableRecord
  2
LAYER_32881
 70
0
 62
7
  6
CONTINUOUS
370
-3
390
F
  0
LAYER
  5
2F2
100
AcDbSymbolTableRecord
100
AcDbLayerTableRecord
  2
LAYER_32886
 70
0
 62
7
  6
CONTINUOUS
370
-3
390
F
  0
LAYER
  5
2F3
100
AcDbSymbolTableRecord
100
AcDbLayerTableRecord
  2
LAYER_32891
 70
0
 62
7
  6
CONTINUOUS
370
-3
390
F
  0
LAYER
  5
2F4
100
AcDbSymbolTableRecord
100
AcDbLayerTableRecord
  2
LAYER_32896
 70
0
 62
7
  6
CONTINUOUS
370
-3
390
F
  0
LAYER
  5
2F5
100
AcDbSymbolTableRecord
100
AcDbLayerTableRecord
  2
LAYER_32901
 70
0
 62
7
  6
CONTINUOUS
370
-3
390
F
  0
LAYER
  5
2F6
100
AcDbSymbolTableRecord
100
AcDbLayerTableRecord
  2
LAYER_32906
 70
0
 62
7
  6
CONTINUOUS
370
-3
390
F
  0
LAYER
  5
2F7
100
AcDbSymbolTableRecord
100
AcDbLayerTableRecord
  2
LAYER_32911
 70
0
 62
7
  6
CONTINUOUS
370
-3
390
F
  0
LAYER
  5
2F8
100
AcDbSymbolTableRecord
100
AcDbLayerTableRecord
  2
LAYER_32916
 70
0
 62
7
  6
CONTINUOUS
370
-3
390
F
  0
LAYER
  5
2F9
100
AcDbSymbolTableRecord
100
AcDbLayerTableRecord
  2
LAYER_32921
 70
0
 62
7
  6
CONTINUOUS
370
-3
390
F
  0
LAYER
  5
2FA
100
AcDbSymbolTableRecord
100
AcDbLayerTableRecord
  2
LAYER_32926
 70
0
 62
7
  6
CONTINUOUS
370
-3
390
F
  0
LAYER
  5
2FB
100
AcDbSymbolTableRecord
100
AcDbLayerTableRecord
  2
LAYER_32931
 70
0
 62
7
  6
CONTINUOUS
370
-3
390
F
  0
LAYER
  5
2FC
100
AcDbSymbolTableRecord
100
AcDbLayerTableRecord
  2
LAYER_32936
 70
0
 62
7
  6
CONTINUOUS
370
-3
390
F
  0
LAYER
  5
2FD
100
AcDbSymbolTableRecord
100
AcDbLayerTableRecord
  2
LAYER_32941
 70
0
 62
7
  6
CONTINUOUS
370
-3
390
F
  0
LAYER
  5
2FE
100
AcDbSymbolTableRecord
100
AcDbLayerTableRecord
  2
LAYER_32946
 70
0
 62
7
  6
CONTINUOUS
370
-3
390
F
  0
LAYER
  5
2FF
100
AcDbSymbolTableRecord
100
AcDbLayerTableRecord
  2
LAYER_32951
 70
0
 62
7
  6
CONTINUOUS
370
-3
390
F
  0
LAYER
  5
300
100
AcDbSymbolTableRecord
100
AcDbLayerTableRecord
  2
LAYER_32956
 70
0
 62
7
  6
CONTINUOUS
370
-3
390
F
  0
LAYER
  5
301
100
AcDbSymbolTableRecord
100
AcDbLayerTableRecord
  2
LAYER_32961
 70
0
 62
7
  6
CONTINUOUS
370
-3
390
F
  0
LAYER
  5
302
100
AcDbSymbolTableRecord
100
AcDbLayerTableRecord
  2
LAYER_32966
 70
0
 62
7
  6
CONTINUOUS
370
-3
390
F
  0
LAYER
  5
303
100
AcDbSymbolTableRecord
100
AcDbLayerTableRecord
  2
LAYER_32971
 70
0
 62
7
  6
CONTINUOUS
370
-3
390
F
  0
LAYER
  5
304
100
AcDbSymbolTableRecord
100
AcDbLayerTableRecord
  2
LAYER_32976
 70
0
 62
7
  6
CONTINUOUS
370
-3
390
F
  0
LAYER
  5
305
100
AcDbSymbolTableRecord
100
AcDbLayerTableRecord
  2
LAYER_32981
 70
0
 62
7
  6
CONTINUOUS
370
-3
390
F
  0
LAYER
  5
306
100
AcDbSymbolTableRecord
100
AcDbLayerTableRecord
  2
LAYER_32986
 70
0
 62
7
  6
CONTINUOUS
370
-3
390
F
  0
LAYER
  5
307
100
AcDbSymbolTableRecord
100
AcDbLayerTableRecord
  2
LAYER_32991
 70
0
 62
7
  6
CONTINUOUS
370
-3
390
F
  0
LAYER
  5
308
100
AcDbSymbolTableRecord
100
AcDbLayerTableRecord
  2
LAYER_32996
 70
0
 62
7
  6
CONTINUOUS
370
-3
390
F
  0
LAYER
  5
309
100
AcDbSymbolTableRecord
100
AcDbLayerTableRecord
  2
LAYER_33001
 70
0
 62
7
  6
CONTINUOUS
370
-3
390
F
  0
LAYER
  5
30A
100
AcDbSymbolTableRecord
100
AcDbLayerTableRecord
  2
LAYER_33006
 70
0
 62
7
  6
CONTINUOUS
370
-3
390
F
  0
LAYER
  5
30B
100
AcDbSymbolTableRecord
100
AcDbLayerTableRecord
  2
LAYER_33011
 70
0
 62
7
  6
CONTINUOUS
370
-3
390
F
  0
LAYER
  5
30C
100
AcDbSymbolTableRecord
100
AcDbLayerTableRecord
  2
LAYER_33016
 70
0
 62
7
  6
CONTINUOUS
370
-3
390
F
  0
LAYER
  5
30D
100
AcDbSymbolTableRecord
100
AcDbLayerTableRecord
  2
LAYER_33021
 70
0
 62
7
  6
CONTINUOUS
370
-3
390
F
  0
LAYER
  5
30E
100
AcDbSymbolTableRecord
100
AcDbLayerTableRecord
  2
LAYER_33026
 70
0
 62
7
  6
CONTINUOUS
370
-3
390
F
  0
LAYER
  5
30F
100
AcDbSymbolTableRecord
100
AcDbLayerTableRecord
  2
LAYER_33031
 70
0
 62
7
  6
CONTINUOUS
370
-3
390
F
  0
LAYER
  5
310
100
AcDbSymbolTableRecord
100
AcDbLayerTableRecord
  2
LAYER_33036
 70
0
 62
7
  6
CONTINUOUS
370
-3
390
F
  0
LAYER
  5
311
100
AcDbSymbolTableRecord
100
AcDbLayerTableRecord
  2
LAYER_33041
 70
0
 62
7
  6
CONTINUOUS
370
-3
390
F
  0
LAYER
  5
312
100
AcDbSymbolTableRecord
100
AcDbLayerTableRecord
  2
LAYER_33046
 70
0
 62
7
  6
CONTINUOUS
370
-3
390
F
  0
LAYER
  5
313
100
AcDbSymbolTableRecord
100
AcDbLayerTableRecord
  2
LAYER_33051
 70
0
 62
7
  6
CONTINUOUS
370
-3
390
F
  0
LAYER
  5
314
100
AcDbSymbolTableRecord
100
AcDbLayerTableRecord
  2
LAYER_33056
 70
0
 62
7
  6
CONTINUOUS
370
-3
390
F
  0
LAYER
  5
315
100
AcDbSymbolTableRecord
100
AcDbLayerTableRecord
  2
LAYER_33061
 70
0
 62
7
  6
CONTINUOUS
370
-3
390
F
  0
LAYER
  5
316
100
AcDbSymbolTableRecord
100
AcDbLayerTableRecord
  2
LAYER_33066
 70
0
 62
7
  6
CONTINUOUS
370
-3
390
F
  0
LAYER
  5
317
100
AcDbSymbolTableRecord
100
AcDbLayerTableRecord
  2
LAYER_33071
 70
0
 62
7
  6
CONTINUOUS
370
-3
390
F
  0
LAYER
  5
318
100
AcDbSymbolTableRecord
100
AcDbLayerTableRecord
  2
LAYER_33076
 70
0
 62
7
  6
CONTINUOUS
370
-3
390
F
  0
LAYER
  5
319
100
AcDbSymbolTableRecord
100
AcDbLayerTableRecord
  2
LAYER_33081
 70
0
 62
7
  6
CONTINUOUS
370
-3
390
F
  0
LAYER
  5
31A
100
AcDbSymbolTableRecord
100
AcDbLayerTableRecord
  2
LAYER_33086
 70
0
 62
7
  6
CONTINUOUS
370
-3
390
F
  0
LAYER
  5
31B
100
AcDbSymbolTableRecord
100
AcDbLayerTableRecord
  2
LAYER_33091
 70
0
 62
7
  6
CONTINUOUS
370
-3
390
F
  0
LAYER
  5
31C
100
AcDbSymbolTableRecord
100
AcDbLayerTableRecord
  2
LAYER_33096
 70
0
 62
7
  6
CONTINUOUS
370
-3
390
F
  0
LAYER
  5
31D
100
AcDbSymbolTableRecord
100
AcDbLayerTableRecord
  2
LAYER_33101
 70
0
 62
7
  6
CONTINUOUS
370
-3
390
F
  0
LAYER
  5
31E
100
AcDbSymbolTableRecord
100
AcDbLayerTableRecord
  2
LAYER_33106
 70
0
 62
7
  6
CONTINUOUS
370
-3
390
F
  0
LAYER
  5
31F
100
AcDbSymbolTableRecord
100
AcDbLayerTableRecord
  2
LAYER_33111
 70
0
 62
7
  6
CONTINUOUS
370
-3
390
F
  0
LAYER
  5
320
100
AcDbSymbolTableRecord
100
AcDbLayerTableRecord
  2
LAYER_33236
 70
0
 62
7
  6
CONTINUOUS
370
-3
390
F
  0
LAYER
  5
321
100
AcDbSymbolTableRecord
100
AcDbLayerTableRecord
  2
LAYER_33241
 70
0
 62
7
  6
CONTINUOUS
370
-3
390
F
  0
LAYER
  5
322
100
AcDbSymbolTableRecord
100
AcDbLayerTableRecord
  2
LAYER_33246
 70
0
 62
7
  6
CONTINUOUS
370
-3
390
F
  0
LAYER
  5
323
100
AcDbSymbolTableRecord
100
AcDbLayerTableRecord
  2
LAYER_33251
 70
0
 62
7
  6
CONTINUOUS
370
-3
390
F
  0
LAYER
  5
324
100
AcDbSymbolTableRecord
100
AcDbLayerTableRecord
  2
LAYER_35164
 70
0
 62
7
  6
CONTINUOUS
370
-3
390
F
  0
LAYER
  5
325
100
AcDbSymbolTableRecord
100
AcDbLayerTableRecord
  2
LAYER_35171
 70
0
 62
7
  6
CONTINUOUS
370
-3
390
F
  0
LAYER
  5
326
100
AcDbSymbolTableRecord
100
AcDbLayerTableRecord
  2
LAYER_35176
 70
0
 62
7
  6
CONTINUOUS
370
-3
390
F
  0
LAYER
  5
327
100
AcDbSymbolTableRecord
100
AcDbLayerTableRecord
  2
LAYER_35182
 70
0
 62
7
  6
CONTINUOUS
370
-3
390
F
  0
LAYER
  5
328
100
AcDbSymbolTableRecord
100
AcDbLayerTableRecord
  2
LAYER_35188
 70
0
 62
7
  6
CONTINUOUS
370
-3
390
F
  0
LAYER
  5
329
100
AcDbSymbolTableRecord
100
AcDbLayerTableRecord
  2
LAYER_35193
 70
0
 62
7
  6
CONTINUOUS
370
-3
390
F
  0
LAYER
  5
32A
100
AcDbSymbolTableRecord
100
AcDbLayerTableRecord
  2
LAYER_35198
 70
0
 62
7
  6
CONTINUOUS
370
-3
390
F
  0
LAYER
  5
32B
100
AcDbSymbolTableRecord
100
AcDbLayerTableRecord
  2
LAYER_35203
 70
0
 62
7
  6
CONTINUOUS
370
-3
390
F
  0
LAYER
  5
32C
100
AcDbSymbolTableRecord
100
AcDbLayerTableRecord
  2
LAYER_35208
 70
0
 62
7
  6
CONTINUOUS
370
-3
390
F
  0
LAYER
  5
32D
100
AcDbSymbolTableRecord
100
AcDbLayerTableRecord
  2
LAYER_35214
 70
0
 62
7
  6
CONTINUOUS
370
-3
390
F
  0
LAYER
  5
32E
100
AcDbSymbolTableRecord
100
AcDbLayerTableRecord
  2
LAYER_35219
 70
0
 62
7
  6
CONTINUOUS
370
-3
390
F
  0
LAYER
  5
32F
100
AcDbSymbolTableRecord
100
AcDbLayerTableRecord
  2
LAYER_35224
 70
0
 62
7
  6
CONTINUOUS
370
-3
390
F
  0
LAYER
  5
330
100
AcDbSymbolTableRecord
100
AcDbLayerTableRecord
  2
LAYER_35229
 70
0
 62
7
  6
CONTINUOUS
370
-3
390
F
  0
LAYER
  5
331
100
AcDbSymbolTableRecord
100
AcDbLayerTableRecord
  2
LAYER_35234
 70
0
 62
7
  6
CONTINUOUS
370
-3
390
F
  0
LAYER
  5
332
100
AcDbSymbolTableRecord
100
AcDbLayerTableRecord
  2
LAYER_35239
 70
0
 62
7
  6
CONTINUOUS
370
-3
390
F
  0
LAYER
  5
333
100
AcDbSymbolTableRecord
100
AcDbLayerTableRecord
  2
LAYER_35244
 70
0
 62
7
  6
CONTINUOUS
370
-3
390
F
  0
LAYER
  5
334
100
AcDbSymbolTableRecord
100
AcDbLayerTableRecord
  2
LAYER_35249
 70
0
 62
7
  6
CONTINUOUS
370
-3
390
F
  0
LAYER
  5
335
100
AcDbSymbolTableRecord
100
AcDbLayerTableRecord
  2
LAYER_35254
 70
0
 62
7
  6
CONTINUOUS
370
-3
390
F
  0
LAYER
  5
336
100
AcDbSymbolTableRecord
100
AcDbLayerTableRecord
  2
LAYER_35259
 70
0
 62
7
  6
CONTINUOUS
370
-3
390
F
  0
LAYER
  5
337
100
AcDbSymbolTableRecord
100
AcDbLayerTableRecord
  2
LAYER_35264
 70
0
 62
7
  6
CONTINUOUS
370
-3
390
F
  0
LAYER
  5
338
100
AcDbSymbolTableRecord
100
AcDbLayerTableRecord
  2
LAYER_35270
 70
0
 62
7
  6
CONTINUOUS
370
-3
390
F
  0
LAYER
  5
339
100
AcDbSymbolTableRecord
100
AcDbLayerTableRecord
  2
LAYER_35275
 70
0
 62
7
  6
CONTINUOUS
370
-3
390
F
  0
LAYER
  5
33A
100
AcDbSymbolTableRecord
100
AcDbLayerTableRecord
  2
LAYER_35280
 70
0
 62
7
  6
CONTINUOUS
370
-3
390
F
  0
LAYER
  5
33B
100
AcDbSymbolTableRecord
100
AcDbLayerTableRecord
  2
LAYER_35285
 70
0
 62
7
  6
CONTINUOUS
370
-3
390
F
  0
LAYER
  5
33C
100
AcDbSymbolTableRecord
100
AcDbLayerTableRecord
  2
LAYER_35290
 70
0
 62
7
  6
CONTINUOUS
370
-3
390
F
  0
LAYER
  5
33D
100
AcDbSymbolTableRecord
100
AcDbLayerTableRecord
  2
LAYER_35295
 70
0
 62
7
  6
CONTINUOUS
370
-3
390
F
  0
LAYER
  5
33E
100
AcDbSymbolTableRecord
100
AcDbLayerTableRecord
  2
LAYER_35300
 70
0
 62
7
  6
CONTINUOUS
370
-3
390
F
  0
LAYER
  5
33F
100
AcDbSymbolTableRecord
100
AcDbLayerTableRecord
  2
LAYER_35305
 70
0
 62
7
  6
CONTINUOUS
370
-3
390
F
  0
LAYER
  5
340
100
AcDbSymbolTableRecord
100
AcDbLayerTableRecord
  2
LAYER_35311
 70
0
 62
7
  6
CONTINUOUS
370
-3
390
F
  0
LAYER
  5
341
100
AcDbSymbolTableRecord
100
AcDbLayerTableRecord
  2
LAYER_35316
 70
0
 62
7
  6
CONTINUOUS
370
-3
390
F
  0
LAYER
  5
342
100
AcDbSymbolTableRecord
100
AcDbLayerTableRecord
  2
LAYER_35322
 70
0
 62
7
  6
CONTINUOUS
370
-3
390
F
  0
LAYER
  5
343
100
AcDbSymbolTableRecord
100
AcDbLayerTableRecord
  2
LAYER_35327
 70
0
 62
7
  6
CONTINUOUS
370
-3
390
F
  0
LAYER
  5
344
100
AcDbSymbolTableRecord
100
AcDbLayerTableRecord
  2
LAYER_35332
 70
0
 62
7
  6
CONTINUOUS
370
-3
390
F
  0
LAYER
  5
345
100
AcDbSymbolTableRecord
100
AcDbLayerTableRecord
  2
LAYER_35337
 70
0
 62
7
  6
CONTINUOUS
370
-3
390
F
  0
LAYER
  5
346
100
AcDbSymbolTableRecord
100
AcDbLayerTableRecord
  2
LAYER_35343
 70
0
 62
7
  6
CONTINUOUS
370
-3
390
F
  0
LAYER
  5
347
100
AcDbSymbolTableRecord
100
AcDbLayerTableRecord
  2
LAYER_35348
 70
0
 62
7
  6
CONTINUOUS
370
-3
390
F
  0
LAYER
  5
348
100
AcDbSymbolTableRecord
100
AcDbLayerTableRecord
  2
LAYER_35353
 70
0
 62
7
  6
CONTINUOUS
370
-3
390
F
  0
LAYER
  5
349
100
AcDbSymbolTableRecord
100
AcDbLayerTableRecord
  2
LAYER_35358
 70
0
 62
7
  6
CONTINUOUS
370
-3
390
F
  0
LAYER
  5
34A
100
AcDbSymbolTableRecord
100
AcDbLayerTableRecord
  2
LAYER_35363
 70
0
 62
7
  6
CONTINUOUS
370
-3
390
F
  0
LAYER
  5
34B
100
AcDbSymbolTableRecord
100
AcDbLayerTableRecord
  2
LAYER_35368
 70
0
 62
7
  6
CONTINUOUS
370
-3
390
F
  0
LAYER
  5
34C
100
AcDbSymbolTableRecord
100
AcDbLayerTableRecord
  2
LAYER_35373
 70
0
 62
7
  6
CONTINUOUS
370
-3
390
F
  0
LAYER
  5
34D
100
AcDbSymbolTableRecord
100
AcDbLayerTableRecord
  2
LAYER_35378
 70
0
 62
7
  6
CONTINUOUS
370
-3
390
F
  0
LAYER
  5
34E
100
AcDbSymbolTableRecord
100
AcDbLayerTableRecord
  2
LAYER_35504
 70
0
 62
7
  6
CONTINUOUS
370
-3
390
F
  0
LAYER
  5
34F
100
AcDbSymbolTableRecord
100
AcDbLayerTableRecord
  2
LAYER_35509
 70
0
 62
7
  6
CONTINUOUS
370
-3
390
F
  0
LAYER
  5
350
100
AcDbSymbolTableRecord
100
AcDbLayerTableRecord
  2
LAYER_35514
 70
0
 62
7
  6
CONTINUOUS
370
-3
390
F
  0
LAYER
  5
351
100
AcDbSymbolTableRecord
100
AcDbLayerTableRecord
  2
LAYER_35520
 70
0
 62
7
  6
CONTINUOUS
370
-3
390
F
  0
LAYER
  5
352
100
AcDbSymbolTableRecord
100
AcDbLayerTableRecord
  2
LAYER_35587
 70
0
 62
7
  6
CONTINUOUS
370
-3
390
F
  0
LAYER
  5
353
100
AcDbSymbolTableRecord
100
AcDbLayerTableRecord
  2
LAYER_35592
 70
0
 62
7
  6
CONTINUOUS
370
-3
390
F
  0
LAYER
  5
354
100
AcDbSymbolTableRecord
100
AcDbLayerTableRecord
  2
LAYER_35597
 70
0
 62
7
  6
CONTINUOUS
370
-3
390
F
  0
LAYER
  5
355
100
AcDbSymbolTableRecord
100
AcDbLayerTableRecord
  2
LAYER_35602
 70
0
 62
7
  6
CONTINUOUS
370
-3
390
F
  0
LAYER
  5
356
100
AcDbSymbolTableRecord
100
AcDbLayerTableRecord
  2
LAYER_35607
 70
0
 62
7
  6
CONTINUOUS
370
-3
390
F
  0
LAYER
  5
357
100
AcDbSymbolTableRecord
100
AcDbLayerTableRecord
  2
LAYER_35612
 70
0
 62
7
  6
CONTINUOUS
370
-3
390
F
  0
LAYER
  5
358
100
AcDbSymbolTableRecord
100
AcDbLayerTableRecord
  2
LAYER_35617
 70
0
 62
7
  6
CONTINUOUS
370
-3
390
F
  0
LAYER
  5
359
100
AcDbSymbolTableRecord
100
AcDbLayerTableRecord
  2
LAYER_35622
 70
0
 62
7
  6
CONTINUOUS
370
-3
390
F
  0
LAYER
  5
35A
100
AcDbSymbolTableRecord
100
AcDbLayerTableRecord
  2
LAYER_35627
 70
0
 62
7
  6
CONTINUOUS
370
-3
390
F
  0
LAYER
  5
35B
100
AcDbSymbolTableRecord
100
AcDbLayerTableRecord
  2
LAYER_35632
 70
0
 62
7
  6
CONTINUOUS
370
-3
390
F
  0
LAYER
  5
35C
100
AcDbSymbolTableRecord
100
AcDbLayerTableRecord
  2
LAYER_35637
 70
0
 62
7
  6
CONTINUOUS
370
-3
390
F
  0
LAYER
  5
35D
100
AcDbSymbolTableRecord
100
AcDbLayerTableRecord
  2
LAYER_35642
 70
0
 62
7
  6
CONTINUOUS
370
-3
390
F
  0
LAYER
  5
35E
100
AcDbSymbolTableRecord
100
AcDbLayerTableRecord
  2
LAYER_35647
 70
0
 62
7
  6
CONTINUOUS
370
-3
390
F
  0
LAYER
  5
35F
100
AcDbSymbolTableRecord
100
AcDbLayerTableRecord
  2
LAYER_35652
 70
0
 62
7
  6
CONTINUOUS
370
-3
390
F
  0
LAYER
  5
360
100
AcDbSymbolTableRecord
100
AcDbLayerTableRecord
  2
LAYER_35657
 70
0
 62
7
  6
CONTINUOUS
370
-3
390
F
  0
LAYER
  5
361
100
AcDbSymbolTableRecord
100
AcDbLayerTableRecord
  2
LAYER_35662
 70
0
 62
7
  6
CONTINUOUS
370
-3
390
F
  0
LAYER
  5
362
100
AcDbSymbolTableRecord
100
AcDbLayerTableRecord
  2
LAYER_35667
 70
0
 62
7
  6
CONTINUOUS
370
-3
390
F
  0
LAYER
  5
363
100
AcDbSymbolTableRecord
100
AcDbLayerTableRecord
  2
LAYER_35672
 70
0
 62
7
  6
CONTINUOUS
370
-3
390
F
  0
LAYER
  5
364
100
AcDbSymbolTableRecord
100
AcDbLayerTableRecord
  2
LAYER_35677
 70
0
 62
7
  6
CONTINUOUS
370
-3
390
F
  0
LAYER
  5
365
100
AcDbSymbolTableRecord
100
AcDbLayerTableRecord
  2
LAYER_35682
 70
0
 62
7
  6
CONTINUOUS
370
-3
390
F
  0
LAYER
  5
366
100
AcDbSymbolTableRecord
100
AcDbLayerTableRecord
  2
LAYER_35687
 70
0
 62
7
  6
CONTINUOUS
370
-3
390
F
  0
LAYER
  5
367
100
AcDbSymbolTableRecord
100
AcDbLayerTableRecord
  2
LAYER_35692
 70
0
 62
7
  6
CONTINUOUS
370
-3
390
F
  0
LAYER
  5
368
100
AcDbSymbolTableRecord
100
AcDbLayerTableRecord
  2
LAYER_35799
 70
0
 62
7
  6
CONTINUOUS
370
-3
390
F
  0
LAYER
  5
369
100
AcDbSymbolTableRecord
100
AcDbLayerTableRecord
  2
LAYER_35804
 70
0
 62
7
  6
CONTINUOUS
370
-3
390
F
  0
LAYER
  5
36A
100
AcDbSymbolTableRecord
100
AcDbLayerTableRecord
  2
LAYER_35809
 70
0
 62
7
  6
CONTINUOUS
370
-3
390
F
  0
LAYER
  5
36B
100
AcDbSymbolTableRecord
100
AcDbLayerTableRecord
  2
LAYER_35814
 70
0
 62
7
  6
CONTINUOUS
370
-3
390
F
  0
LAYER
  5
36C
100
AcDbSymbolTableRecord
100
AcDbLayerTableRecord
  2
LAYER_35819
 70
0
 62
7
  6
CONTINUOUS
370
-3
390
F
  0
LAYER
  5
36D
100
AcDbSymbolTableRecord
100
AcDbLayerTableRecord
  2
LAYER_35824
 70
0
 62
7
  6
CONTINUOUS
370
-3
390
F
  0
LAYER
  5
36E
100
AcDbSymbolTableRecord
100
AcDbLayerTableRecord
  2
LAYER_35829
 70
0
 62
7
  6
CONTINUOUS
370
-3
390
F
  0
LAYER
  5
36F
100
AcDbSymbolTableRecord
100
AcDbLayerTableRecord
  2
LAYER_35834
 70
0
 62
7
  6
CONTINUOUS
370
-3
390
F
  0
LAYER
  5
370
100
AcDbSymbolTableRecord
100
AcDbLayerTableRecord
  2
LAYER_35839
 70
0
 62
7
  6
CONTINUOUS
370
-3
390
F
  0
LAYER
  5
371
100
AcDbSymbolTableRecord
100
AcDbLayerTableRecord
  2
LAYER_35844
 70
0
 62
7
  6
CONTINUOUS
370
-3
390
F
  0
LAYER
  5
372
100
AcDbSymbolTableRecord
100
AcDbLayerTableRecord
  2
LAYER_35849
 70
0
 62
7
  6
CONTINUOUS
370
-3
390
F
  0
LAYER
  5
373
100
AcDbSymbolTableRecord
100
AcDbLayerTableRecord
  2
LAYER_35854
 70
0
 62
7
  6
CONTINUOUS
370
-3
390
F
  0
LAYER
  5
374
100
AcDbSymbolTableRecord
100
AcDbLayerTableRecord
  2
LAYER_35859
 70
0
 62
7
  6
CONTINUOUS
370
-3
390
F
  0
LAYER
  5
375
100
AcDbSymbolTableRecord
100
AcDbLayerTableRecord
  2
LAYER_35864
 70
0
 62
7
  6
CONTINUOUS
370
-3
390
F
  0
LAYER
  5
376
100
AcDbSymbolTableRecord
100
AcDbLayerTableRecord
  2
LAYER_35869
 70
0
 62
7
  6
CONTINUOUS
370
-3
390
F
  0
LAYER
  5
377
100
AcDbSymbolTableRecord
100
AcDbLayerTableRecord
  2
LAYER_35874
 70
0
 62
7
  6
CONTINUOUS
370
-3
390
F
  0
LAYER
  5
378
100
AcDbSymbolTableRecord
100
AcDbLayerTableRecord
  2
LAYER_35879
 70
0
 62
7
  6
CONTINUOUS
370
-3
390
F
  0
LAYER
  5
379
100
AcDbSymbolTableRecord
100
AcDbLayerTableRecord
  2
LAYER_35884
 70
0
 62
7
  6
CONTINUOUS
370
-3
390
F
  0
LAYER
  5
37A
100
AcDbSymbolTableRecord
100
AcDbLayerTableRecord
  2
LAYER_35889
 70
0
 62
7
  6
CONTINUOUS
370
-3
390
F
  0
LAYER
  5
37B
100
AcDbSymbolTableRecord
100
AcDbLayerTableRecord
  2
LAYER_35894
 70
0
 62
7
  6
CONTINUOUS
370
-3
390
F
  0
LAYER
  5
37C
100
AcDbSymbolTableRecord
100
AcDbLayerTableRecord
  2
LAYER_35899
 70
0
 62
7
  6
CONTINUOUS
370
-3
390
F
  0
LAYER
  5
37D
100
AcDbSymbolTableRecord
100
AcDbLayerTableRecord
  2
LAYER_35904
 70
0
 62
7
  6
CONTINUOUS
370
-3
390
F
  0
LAYER
  5
37E
100
AcDbSymbolTableRecord
100
AcDbLayerTableRecord
  2
LAYER_35909
 70
0
 62
7
  6
CONTINUOUS
370
-3
390
F
  0
LAYER
  5
37F
100
AcDbSymbolTableRecord
100
AcDbLayerTableRecord
  2
LAYER_35914
 70
0
 62
7
  6
CONTINUOUS
370
-3
390
F
  0
LAYER
  5
380
100
AcDbSymbolTableRecord
100
AcDbLayerTableRecord
  2
LAYER_35919
 70
0
 62
7
  6
CONTINUOUS
370
-3
390
F
  0
LAYER
  5
381
100
AcDbSymbolTableRecord
100
AcDbLayerTableRecord
  2
LAYER_35924
 70
0
 62
7
  6
CONTINUOUS
370
-3
390
F
  0
LAYER
  5
382
100
AcDbSymbolTableRecord
100
AcDbLayerTableRecord
  2
LAYER_35929
 70
0
 62
7
  6
CONTINUOUS
370
-3
390
F
  0
LAYER
  5
383
100
AcDbSymbolTableRecord
100
AcDbLayerTableRecord
  2
LAYER_35934
 70
0
 62
7
  6
CONTINUOUS
370
-3
390
F
  0
LAYER
  5
384
100
AcDbSymbolTableRecord
100
AcDbLayerTableRecord
  2
LAYER_35939
 70
0
 62
7
  6
CONTINUOUS
370
-3
390
F
  0
LAYER
  5
385
100
AcDbSymbolTableRecord
100
AcDbLayerTableRecord
  2
LAYER_35944
 70
0
 62
7
  6
CONTINUOUS
370
-3
390
F
  0
LAYER
  5
386
100
AcDbSymbolTableRecord
100
AcDbLayerTableRecord
  2
LAYER_35949
 70
0
 62
7
  6
CONTINUOUS
370
-3
390
F
  0
LAYER
  5
387
100
AcDbSymbolTableRecord
100
AcDbLayerTableRecord
  2
LAYER_35954
 70
0
 62
7
  6
CONTINUOUS
370
-3
390
F
  0
LAYER
  5
388
100
AcDbSymbolTableRecord
100
AcDbLayerTableRecord
  2
LAYER_35959
 70
0
 62
7
  6
CONTINUOUS
370
-3
390
F
  0
LAYER
  5
389
100
AcDbSymbolTableRecord
100
AcDbLayerTableRecord
  2
LAYER_35964
 70
0
 62
7
  6
CONTINUOUS
370
-3
390
F
  0
LAYER
  5
38A
100
AcDbSymbolTableRecord
100
AcDbLayerTableRecord
  2
LAYER_35969
 70
0
 62
7
  6
CONTINUOUS
370
-3
390
F
  0
LAYER
  5
38B
100
AcDbSymbolTableRecord
100
AcDbLayerTableRecord
  2
LAYER_35974
 70
0
 62
7
  6
CONTINUOUS
370
-3
390
F
  0
LAYER
  5
38C
100
AcDbSymbolTableRecord
100
AcDbLayerTableRecord
  2
LAYER_35979
 70
0
 62
7
  6
CONTINUOUS
370
-3
390
F
  0
LAYER
  5
38D
100
AcDbSymbolTableRecord
100
AcDbLayerTableRecord
  2
LAYER_35984
 70
0
 62
7
  6
CONTINUOUS
370
-3
390
F
  0
LAYER
  5
38E
100
AcDbSymbolTableRecord
100
AcDbLayerTableRecord
  2
LAYER_35989
 70
0
 62
7
  6
CONTINUOUS
370
-3
390
F
  0
LAYER
  5
38F
100
AcDbSymbolTableRecord
100
AcDbLayerTableRecord
  2
LAYER_35994
 70
0
 62
7
  6
CONTINUOUS
370
-3
390
F
  0
LAYER
  5
390
100
AcDbSymbolTableRecord
100
AcDbLayerTableRecord
  2
LAYER_35999
 70
0
 62
7
  6
CONTINUOUS
370
-3
390
F
  0
LAYER
  5
391
100
AcDbSymbolTableRecord
100
AcDbLayerTableRecord
  2
LAYER_36004
 70
0
 62
7
  6
CONTINUOUS
370
-3
390
F
  0
LAYER
  5
392
100
AcDbSymbolTableRecord
100
AcDbLayerTableRecord
  2
LAYER_36009
 70
0
 62
7
  6
CONTINUOUS
370
-3
390
F
  0
LAYER
  5
393
100
AcDbSymbolTableRecord
100
AcDbLayerTableRecord
  2
LAYER_36014
 70
0
 62
7
  6
CONTINUOUS
370
-3
390
F
  0
LAYER
  5
394
100
AcDbSymbolTableRecord
100
AcDbLayerTableRecord
  2
LAYER_36019
 70
0
 62
7
  6
CONTINUOUS
370
-3
390
F
  0
LAYER
  5
395
100
AcDbSymbolTableRecord
100
AcDbLayerTableRecord
  2
LAYER_36024
 70
0
 62
7
  6
CONTINUOUS
370
-3
390
F
  0
LAYER
  5
396
100
AcDbSymbolTableRecord
100
AcDbLayerTableRecord
  2
LAYER_36029
 70
0
 62
7
  6
CONTINUOUS
370
-3
390
F
  0
LAYER
  5
397
100
AcDbSymbolTableRecord
100
AcDbLayerTableRecord
  2
LAYER_36034
 70
0
 62
7
  6
CONTINUOUS
370
-3
390
F
  0
LAYER
  5
398
100
AcDbSymbolTableRecord
100
AcDbLayerTableRecord
  2
LAYER_36039
 70
0
 62
7
  6
CONTINUOUS
370
-3
390
F
  0
LAYER
  5
399
100
AcDbSymbolTableRecord
100
AcDbLayerTableRecord
  2
LAYER_36044
 70
0
 62
7
  6
CONTINUOUS
370
-3
390
F
  0
LAYER
  5
39A
100
AcDbSymbolTableRecord
100
AcDbLayerTableRecord
  2
LAYER_36049
 70
0
 62
7
  6
CONTINUOUS
370
-3
390
F
  0
LAYER
  5
39B
100
AcDbSymbolTableRecord
100
AcDbLayerTableRecord
  2
LAYER_36054
 70
0
 62
7
  6
CONTINUOUS
370
-3
390
F
  0
LAYER
  5
39C
100
AcDbSymbolTableRecord
100
AcDbLayerTableRecord
  2
LAYER_36059
 70
0
 62
7
  6
CONTINUOUS
370
-3
390
F
  0
LAYER
  5
39D
100
AcDbSymbolTableRecord
100
AcDbLayerTableRecord
  2
LAYER_36064
 70
0
 62
7
  6
CONTINUOUS
370
-3
390
F
  0
LAYER
  5
39E
100
AcDbSymbolTableRecord
100
AcDbLayerTableRecord
  2
LAYER_36069
 70
0
 62
7
  6
CONTINUOUS
370
-3
390
F
  0
LAYER
  5
39F
100
AcDbSymbolTableRecord
100
AcDbLayerTableRecord
  2
LAYER_36074
 70
0
 62
7
  6
CONTINUOUS
370
-3
390
F
  0
LAYER
  5
3A0
100
AcDbSymbolTableRecord
100
AcDbLayerTableRecord
  2
LAYER_36079
 70
0
 62
7
  6
CONTINUOUS
370
-3
390
F
  0
LAYER
  5
3A1
100
AcDbSymbolTableRecord
100
AcDbLayerTableRecord
  2
LAYER_36084
 70
0
 62
7
  6
CONTINUOUS
370
-3
390
F
  0
LAYER
  5
3A2
100
AcDbSymbolTableRecord
100
AcDbLayerTableRecord
  2
LAYER_36089
 70
0
 62
7
  6
CONTINUOUS
370
-3
390
F
  0
LAYER
  5
3A3
100
AcDbSymbolTableRecord
100
AcDbLayerTableRecord
  2
LAYER_36094
 70
0
 62
7
  6
CONTINUOUS
370
-3
390
F
  0
LAYER
  5
3A4
100
AcDbSymbolTableRecord
100
AcDbLayerTableRecord
  2
LAYER_36099
 70
0
 62
7
  6
CONTINUOUS
370
-3
390
F
  0
LAYER
  5
3A5
100
AcDbSymbolTableRecord
100
AcDbLayerTableRecord
  2
LAYER_36104
 70
0
 62
7
  6
CONTINUOUS
370
-3
390
F
  0
LAYER
  5
3A6
100
AcDbSymbolTableRecord
100
AcDbLayerTableRecord
  2
LAYER_36109
 70
0
 62
7
  6
CONTINUOUS
370
-3
390
F
  0
LAYER
  5
3A7
100
AcDbSymbolTableRecord
100
AcDbLayerTableRecord
  2
LAYER_36114
 70
0
 62
7
  6
CONTINUOUS
370
-3
390
F
  0
LAYER
  5
3A8
100
AcDbSymbolTableRecord
100
AcDbLayerTableRecord
  2
LAYER_36119
 70
0
 62
7
  6
CONTINUOUS
370
-3
390
F
  0
LAYER
  5
3A9
100
AcDbSymbolTableRecord
100
AcDbLayerTableRecord
  2
LAYER_36124
 70
0
 62
7
  6
CONTINUOUS
370
-3
390
F
  0
LAYER
  5
3AA
100
AcDbSymbolTableRecord
100
AcDbLayerTableRecord
  2
LAYER_36129
 70
0
 62
7
  6
CONTINUOUS
370
-3
390
F
  0
LAYER
  5
3AB
100
AcDbSymbolTableRecord
100
AcDbLayerTableRecord
  2
LAYER_36134
 70
0
 62
7
  6
CONTINUOUS
370
-3
390
F
  0
LAYER
  5
3AC
100
AcDbSymbolTableRecord
100
AcDbLayerTableRecord
  2
LAYER_36139
 70
0
 62
7
  6
CONTINUOUS
370
-3
390
F
  0
LAYER
  5
3AD
100
AcDbSymbolTableRecord
100
AcDbLayerTableRecord
  2
LAYER_36144
 70
0
 62
7
  6
CONTINUOUS
370
-3
390
F
  0
LAYER
  5
3AE
100
AcDbSymbolTableRecord
100
AcDbLayerTableRecord
  2
LAYER_36149
 70
0
 62
7
  6
CONTINUOUS
370
-3
390
F
  0
LAYER
  5
3AF
100
AcDbSymbolTableRecord
100
AcDbLayerTableRecord
  2
LAYER_36154
 70
0
 62
7
  6
CONTINUOUS
370
-3
390
F
  0
LAYER
  5
3B0
100
AcDbSymbolTableRecord
100
AcDbLayerTableRecord
  2
LAYER_36159
 70
0
 62
7
  6
CONTINUOUS
370
-3
390
F
  0
LAYER
  5
3B1
100
AcDbSymbolTableRecord
100
AcDbLayerTableRecord
  2
LAYER_36164
 70
0
 62
7
  6
CONTINUOUS
370
-3
390
F
  0
LAYER
  5
3B2
100
AcDbSymbolTableRecord
100
AcDbLayerTableRecord
  2
LAYER_36169
 70
0
 62
7
  6
CONTINUOUS
370
-3
390
F
  0
LAYER
  5
3B3
100
AcDbSymbolTableRecord
100
AcDbLayerTableRecord
  2
LAYER_36174
 70
0
 62
7
  6
CONTINUOUS
370
-3
390
F
  0
LAYER
  5
3B4
100
AcDbSymbolTableRecord
100
AcDbLayerTableRecord
  2
LAYER_36179
 70
0
 62
7
  6
CONTINUOUS
370
-3
390
F
  0
LAYER
  5
3B5
100
AcDbSymbolTableRecord
100
AcDbLayerTableRecord
  2
LAYER_36184
 70
0
 62
7
  6
CONTINUOUS
370
-3
390
F
  0
LAYER
  5
3B6
100
AcDbSymbolTableRecord
100
AcDbLayerTableRecord
  2
LAYER_36189
 70
0
 62
7
  6
CONTINUOUS
370
-3
390
F
  0
LAYER
  5
3B7
100
AcDbSymbolTableRecord
100
AcDbLayerTableRecord
  2
LAYER_36194
 70
0
 62
7
  6
CONTINUOUS
370
-3
390
F
  0
LAYER
  5
3B8
100
AcDbSymbolTableRecord
100
AcDbLayerTableRecord
  2
LAYER_36199
 70
0
 62
7
  6
CONTINUOUS
370
-3
390
F
  0
LAYER
  5
3B9
100
AcDbSymbolTableRecord
100
AcDbLayerTableRecord
  2
LAYER_36204
 70
0
 62
7
  6
CONTINUOUS
370
-3
390
F
  0
LAYER
  5
3BA
100
AcDbSymbolTableRecord
100
AcDbLayerTableRecord
  2
LAYER_36209
 70
0
 62
7
  6
CONTINUOUS
370
-3
390
F
  0
LAYER
  5
3BB
100
AcDbSymbolTableRecord
100
AcDbLayerTableRecord
  2
LAYER_36214
 70
0
 62
7
  6
CONTINUOUS
370
-3
390
F
  0
LAYER
  5
3BC
100
AcDbSymbolTableRecord
100
AcDbLayerTableRecord
  2
LAYER_36219
 70
0
 62
7
  6
CONTINUOUS
370
-3
390
F
  0
LAYER
  5
3BD
100
AcDbSymbolTableRecord
100
AcDbLayerTableRecord
  2
LAYER_36224
 70
0
 62
7
  6
CONTINUOUS
370
-3
390
F
  0
LAYER
  5
3BE
100
AcDbSymbolTableRecord
100
AcDbLayerTableRecord
  2
LAYER_36229
 70
0
 62
7
  6
CONTINUOUS
370
-3
390
F
  0
LAYER
  5
3BF
100
AcDbSymbolTableRecord
100
AcDbLayerTableRecord
  2
LAYER_36234
 70
0
 62
7
  6
CONTINUOUS
370
-3
390
F
  0
LAYER
  5
3C0
100
AcDbSymbolTableRecord
100
AcDbLayerTableRecord
  2
LAYER_36239
 70
0
 62
7
  6
CONTINUOUS
370
-3
390
F
  0
LAYER
  5
3C1
100
AcDbSymbolTableRecord
100
AcDbLayerTableRecord
  2
LAYER_36244
 70
0
 62
7
  6
CONTINUOUS
370
-3
390
F
  0
LAYER
  5
3C2
100
AcDbSymbolTableRecord
100
AcDbLayerTableRecord
  2
LAYER_36249
 70
0
 62
7
  6
CONTINUOUS
370
-3
390
F
  0
LAYER
  5
3C3
100
AcDbSymbolTableRecord
100
AcDbLayerTableRecord
  2
LAYER_36254
 70
0
 62
7
  6
CONTINUOUS
370
-3
390
F
  0
LAYER
  5
3C4
100
AcDbSymbolTableRecord
100
AcDbLayerTableRecord
  2
LAYER_36259
 70
0
 62
7
  6
CONTINUOUS
370
-3
390
F
  0
LAYER
  5
3C5
100
AcDbSymbolTableRecord
100
AcDbLayerTableRecord
  2
LAYER_36264
 70
0
 62
7
  6
CONTINUOUS
370
-3
390
F
  0
LAYER
  5
3C6
100
AcDbSymbolTableRecord
100
AcDbLayerTableRecord
  2
LAYER_36269
 70
0
 62
7
  6
CONTINUOUS
370
-3
390
F
  0
LAYER
  5
3C7
100
AcDbSymbolTableRecord
100
AcDbLayerTableRecord
  2
LAYER_36274
 70
0
 62
7
  6
CONTINUOUS
370
-3
390
F
  0
LAYER
  5
3C8
100
AcDbSymbolTableRecord
100
AcDbLayerTableRecord
  2
LAYER_36279
 70
0
 62
7
  6
CONTINUOUS
370
-3
390
F
  0
LAYER
  5
3C9
100
AcDbSymbolTableRecord
100
AcDbLayerTableRecord
  2
LAYER_36284
 70
0
 62
7
  6
CONTINUOUS
370
-3
390
F
  0
LAYER
  5
3CA
100
AcDbSymbolTableRecord
100
AcDbLayerTableRecord
  2
LAYER_36289
 70
0
 62
7
  6
CONTINUOUS
370
-3
390
F
  0
LAYER
  5
3CB
100
AcDbSymbolTableRecord
100
AcDbLayerTableRecord
  2
LAYER_36294
 70
0
 62
7
  6
CONTINUOUS
370
-3
390
F
  0
LAYER
  5
3CC
100
AcDbSymbolTableRecord
100
AcDbLayerTableRecord
  2
LAYER_36299
 70
0
 62
7
  6
CONTINUOUS
370
-3
390
F
  0
LAYER
  5
3CD
100
AcDbSymbolTableRecord
100
AcDbLayerTableRecord
  2
LAYER_36304
 70
0
 62
7
  6
CONTINUOUS
370
-3
390
F
  0
LAYER
  5
3CE
100
AcDbSymbolTableRecord
100
AcDbLayerTableRecord
  2
LAYER_36309
 70
0
 62
7
  6
CONTINUOUS
370
-3
390
F
  0
LAYER
  5
3CF
100
AcDbSymbolTableRecord
100
AcDbLayerTableRecord
  2
LAYER_36314
 70
0
 62
7
  6
CONTINUOUS
370
-3
390
F
  0
LAYER
  5
3D0
100
AcDbSymbolTableRecord
100
AcDbLayerTableRecord
  2
LAYER_36319
 70
0
 62
7
  6
CONTINUOUS
370
-3
390
F
  0
LAYER
  5
3D1
100
AcDbSymbolTableRecord
100
AcDbLayerTableRecord
  2
LAYER_36324
 70
0
 62
7
  6
CONTINUOUS
370
-3
390
F
  0
LAYER
  5
3D2
100
AcDbSymbolTableRecord
100
AcDbLayerTableRecord
  2
LAYER_36329
 70
0
 62
7
  6
CONTINUOUS
370
-3
390
F
  0
LAYER
  5
3D3
100
AcDbSymbolTableRecord
100
AcDbLayerTableRecord
  2
LAYER_36334
 70
0
 62
7
  6
CONTINUOUS
370
-3
390
F
  0
LAYER
  5
3D4
100
AcDbSymbolTableRecord
100
AcDbLayerTableRecord
  2
LAYER_36339
 70
0
 62
7
  6
CONTINUOUS
370
-3
390
F
  0
LAYER
  5
3D5
100
AcDbSymbolTableRecord
100
AcDbLayerTableRecord
  2
LAYER_36344
 70
0
 62
7
  6
CONTINUOUS
370
-3
390
F
  0
LAYER
  5
3D6
100
AcDbSymbolTableRecord
100
AcDbLayerTableRecord
  2
LAYER_36349
 70
0
 62
7
  6
CONTINUOUS
370
-3
390
F
  0
LAYER
  5
3D7
100
AcDbSymbolTableRecord
100
AcDbLayerTableRecord
  2
LAYER_36354
 70
0
 62
7
  6
CONTINUOUS
370
-3
390
F
  0
LAYER
  5
3D8
100
AcDbSymbolTableRecord
100
AcDbLayerTableRecord
  2
LAYER_36359
 70
0
 62
7
  6
CONTINUOUS
370
-3
390
F
  0
LAYER
  5
3D9
100
AcDbSymbolTableRecord
100
AcDbLayerTableRecord
  2
LAYER_36364
 70
0
 62
7
  6
CONTINUOUS
370
-3
390
F
  0
LAYER
  5
3DA
100
AcDbSymbolTableRecord
100
AcDbLayerTableRecord
  2
LAYER_36369
 70
0
 62
7
  6
CONTINUOUS
370
-3
390
F
  0
LAYER
  5
3DB
100
AcDbSymbolTableRecord
100
AcDbLayerTableRecord
  2
LAYER_36374
 70
0
 62
7
  6
CONTINUOUS
370
-3
390
F
  0
LAYER
  5
3DC
100
AcDbSymbolTableRecord
100
AcDbLayerTableRecord
  2
LAYER_36379
 70
0
 62
7
  6
CONTINUOUS
370
-3
390
F
  0
LAYER
  5
3DD
100
AcDbSymbolTableRecord
100
AcDbLayerTableRecord
  2
LAYER_36384
 70
0
 62
7
  6
CONTINUOUS
370
-3
390
F
  0
LAYER
  5
3DE
100
AcDbSymbolTableRecord
100
AcDbLayerTableRecord
  2
LAYER_36389
 70
0
 62
7
  6
CONTINUOUS
370
-3
390
F
  0
LAYER
  5
3DF
100
AcDbSymbolTableRecord
100
AcDbLayerTableRecord
  2
LAYER_36394
 70
0
 62
7
  6
CONTINUOUS
370
-3
390
F
  0
LAYER
  5
3E0
100
AcDbSymbolTableRecord
100
AcDbLayerTableRecord
  2
LAYER_36399
 70
0
 62
7
  6
CONTINUOUS
370
-3
390
F
  0
LAYER
  5
3E1
100
AcDbSymbolTableRecord
100
AcDbLayerTableRecord
  2
LAYER_36404
 70
0
 62
7
  6
CONTINUOUS
370
-3
390
F
  0
LAYER
  5
3E2
100
AcDbSymbolTableRecord
100
AcDbLayerTableRecord
  2
LAYER_36409
 70
0
 62
7
  6
CONTINUOUS
370
-3
390
F
  0
LAYER
  5
3E3
100
AcDbSymbolTableRecord
100
AcDbLayerTableRecord
  2
LAYER_36414
 70
0
 62
7
  6
CONTINUOUS
370
-3
390
F
  0
LAYER
  5
3E4
100
AcDbSymbolTableRecord
100
AcDbLayerTableRecord
  2
LAYER_36419
 70
0
 62
7
  6
CONTINUOUS
370
-3
390
F
  0
LAYER
  5
3E5
100
AcDbSymbolTableRecord
100
AcDbLayerTableRecord
  2
LAYER_36424
 70
0
 62
7
  6
CONTINUOUS
370
-3
390
F
  0
LAYER
  5
3E6
100
AcDbSymbolTableRecord
100
AcDbLayerTableRecord
  2
LAYER_36429
 70
0
 62
7
  6
CONTINUOUS
370
-3
390
F
  0
LAYER
  5
3E7
100
AcDbSymbolTableRecord
100
AcDbLayerTableRecord
  2
LAYER_36434
 70
0
 62
7
  6
CONTINUOUS
370
-3
390
F
  0
LAYER
  5
3E8
100
AcDbSymbolTableRecord
100
AcDbLayerTableRecord
  2
LAYER_36439
 70
0
 62
7
  6
CONTINUOUS
370
-3
390
F
  0
LAYER
  5
3E9
100
AcDbSymbolTableRecord
100
AcDbLayerTableRecord
  2
LAYER_36444
 70
0
 62
7
  6
CONTINUOUS
370
-3
390
F
  0
LAYER
  5
3EA
100
AcDbSymbolTableRecord
100
AcDbLayerTableRecord
  2
LAYER_36449
 70
0
 62
7
  6
CONTINUOUS
370
-3
390
F
  0
LAYER
  5
3EB
100
AcDbSymbolTableRecord
100
AcDbLayerTableRecord
  2
LAYER_36454
 70
0
 62
7
  6
CONTINUOUS
370
-3
390
F
  0
LAYER
  5
3EC
100
AcDbSymbolTableRecord
100
AcDbLayerTableRecord
  2
LAYER_36459
 70
0
 62
7
  6
CONTINUOUS
370
-3
390
F
  0
LAYER
  5
3ED
100
AcDbSymbolTableRecord
100
AcDbLayerTableRecord
  2
LAYER_36464
 70
0
 62
7
  6
CONTINUOUS
370
-3
390
F
  0
LAYER
  5
3EE
100
AcDbSymbolTableRecord
100
AcDbLayerTableRecord
  2
LAYER_36469
 70
0
 62
7
  6
CONTINUOUS
370
-3
390
F
  0
LAYER
  5
3EF
100
AcDbSymbolTableRecord
100
AcDbLayerTableRecord
  2
LAYER_36474
 70
0
 62
7
  6
CONTINUOUS
370
-3
390
F
  0
LAYER
  5
3F0
100
AcDbSymbolTableRecord
100
AcDbLayerTableRecord
  2
LAYER_36479
 70
0
 62
7
  6
CONTINUOUS
370
-3
390
F
  0
LAYER
  5
3F1
100
AcDbSymbolTableRecord
100
AcDbLayerTableRecord
  2
LAYER_36484
 70
0
 62
7
  6
CONTINUOUS
370
-3
390
F
  0
LAYER
  5
3F2
100
AcDbSymbolTableRecord
100
AcDbLayerTableRecord
  2
LAYER_36489
 70
0
 62
7
  6
CONTINUOUS
370
-3
390
F
  0
LAYER
  5
3F3
100
AcDbSymbolTableRecord
100
AcDbLayerTableRecord
  2
LAYER_36494
 70
0
 62
7
  6
CONTINUOUS
370
-3
390
F
  0
LAYER
  5
3F4
100
AcDbSymbolTableRecord
100
AcDbLayerTableRecord
  2
LAYER_36499
 70
0
 62
7
  6
CONTINUOUS
370
-3
390
F
  0
LAYER
  5
3F5
100
AcDbSymbolTableRecord
100
AcDbLayerTableRecord
  2
LAYER_36504
 70
0
 62
7
  6
CONTINUOUS
370
-3
390
F
  0
LAYER
  5
3F6
100
AcDbSymbolTableRecord
100
AcDbLayerTableRecord
  2
LAYER_36509
 70
0
 62
7
  6
CONTINUOUS
370
-3
390
F
  0
LAYER
  5
3F7
100
AcDbSymbolTableRecord
100
AcDbLayerTableRecord
  2
LAYER_36514
 70
0
 62
7
  6
CONTINUOUS
370
-3
390
F
  0
LAYER
  5
3F8
100
AcDbSymbolTableRecord
100
AcDbLayerTableRecord
  2
LAYER_36519
 70
0
 62
7
  6
CONTINUOUS
370
-3
390
F
  0
LAYER
  5
3F9
100
AcDbSymbolTableRecord
100
AcDbLayerTableRecord
  2
LAYER_36524
 70
0
 62
7
  6
CONTINUOUS
370
-3
390
F
  0
LAYER
  5
3FA
100
AcDbSymbolTableRecord
100
AcDbLayerTableRecord
  2
LAYER_36529
 70
0
 62
7
  6
CONTINUOUS
370
-3
390
F
  0
LAYER
  5
3FB
100
AcDbSymbolTableRecord
100
AcDbLayerTableRecord
  2
LAYER_36534
 70
0
 62
7
  6
CONTINUOUS
370
-3
390
F
  0
LAYER
  5
3FC
100
AcDbSymbolTableRecord
100
AcDbLayerTableRecord
  2
LAYER_36539
 70
0
 62
7
  6
CONTINUOUS
370
-3
390
F
  0
LAYER
  5
3FD
100
AcDbSymbolTableRecord
100
AcDbLayerTableRecord
  2
LAYER_36544
 70
0
 62
7
  6
CONTINUOUS
370
-3
390
F
  0
LAYER
  5
3FE
100
AcDbSymbolTableRecord
100
AcDbLayerTableRecord
  2
LAYER_36549
 70
0
 62
7
  6
CONTINUOUS
370
-3
390
F
  0
LAYER
  5
3FF
100
AcDbSymbolTableRecord
100
AcDbLayerTableRecord
  2
LAYER_39
 70
0
 62
7
  6
CONTINUOUS
370
-3
390
F
  0
LAYER
  5
400
100
AcDbSymbolTableRecord
100
AcDbLayerTableRecord
  2
LAYER_40187
 70
0
 62
7
  6
CONTINUOUS
370
-3
390
F
  0
LAYER
  5
401
100
AcDbSymbolTableRecord
100
AcDbLayerTableRecord
  2
LAYER_40192
 70
0
 62
7
  6
CONTINUOUS
370
-3
390
F
  0
LAYER
  5
402
100
AcDbSymbolTableRecord
100
AcDbLayerTableRecord
  2
LAYER_40197
 70
0
 62
7
  6
CONTINUOUS
370
-3
390
F
  0
LAYER
  5
403
100
AcDbSymbolTableRecord
100
AcDbLayerTableRecord
  2
LAYER_40202
 70
0
 62
7
  6
CONTINUOUS
370
-3
390
F
  0
LAYER
  5
404
100
AcDbSymbolTableRecord
100
AcDbLayerTableRecord
  2
LAYER_40208
 70
0
 62
7
  6
CONTINUOUS
370
-3
390
F
  0
LAYER
  5
405
100
AcDbSymbolTableRecord
100
AcDbLayerTableRecord
  2
LAYER_40213
 70
0
 62
7
  6
CONTINUOUS
370
-3
390
F
  0
LAYER
  5
406
100
AcDbSymbolTableRecord
100
AcDbLayerTableRecord
  2
LAYER_40218
 70
0
 62
7
  6
CONTINUOUS
370
-3
390
F
  0
LAYER
  5
407
100
AcDbSymbolTableRecord
100
AcDbLayerTableRecord
  2
LAYER_40223
 70
0
 62
7
  6
CONTINUOUS
370
-3
390
F
  0
LAYER
  5
408
100
AcDbSymbolTableRecord
100
AcDbLayerTableRecord
  2
LAYER_40228
 70
0
 62
7
  6
CONTINUOUS
370
-3
390
F
  0
LAYER
  5
409
100
AcDbSymbolTableRecord
100
AcDbLayerTableRecord
  2
LAYER_40233
 70
0
 62
7
  6
CONTINUOUS
370
-3
390
F
  0
LAYER
  5
40A
100
AcDbSymbolTableRecord
100
AcDbLayerTableRecord
  2
LAYER_40238
 70
0
 62
7
  6
CONTINUOUS
370
-3
390
F
  0
LAYER
  5
40B
100
AcDbSymbolTableRecord
100
AcDbLayerTableRecord
  2
LAYER_40243
 70
0
 62
7
  6
CONTINUOUS
370
-3
390
F
  0
LAYER
  5
40C
100
AcDbSymbolTableRecord
100
AcDbLayerTableRecord
  2
LAYER_40248
 70
0
 62
7
  6
CONTINUOUS
370
-3
390
F
  0
LAYER
  5
40D
100
AcDbSymbolTableRecord
100
AcDbLayerTableRecord
  2
LAYER_40253
 70
0
 62
7
  6
CONTINUOUS
370
-3
390
F
  0
LAYER
  5
40E
100
AcDbSymbolTableRecord
100
AcDbLayerTableRecord
  2
LAYER_40258
 70
0
 62
7
  6
CONTINUOUS
370
-3
390
F
  0
LAYER
  5
40F
100
AcDbSymbolTableRecord
100
AcDbLayerTableRecord
  2
LAYER_40263
 70
0
 62
7
  6
CONTINUOUS
370
-3
390
F
  0
LAYER
  5
410
100
AcDbSymbolTableRecord
100
AcDbLayerTableRecord
  2
LAYER_40268
 70
0
 62
7
  6
CONTINUOUS
370
-3
390
F
  0
LAYER
  5
411
100
AcDbSymbolTableRecord
100
AcDbLayerTableRecord
  2
LAYER_40273
 70
0
 62
7
  6
CONTINUOUS
370
-3
390
F
  0
LAYER
  5
412
100
AcDbSymbolTableRecord
100
AcDbLayerTableRecord
  2
LAYER_40278
 70
0
 62
7
  6
CONTINUOUS
370
-3
390
F
  0
LAYER
  5
413
100
AcDbSymbolTableRecord
100
AcDbLayerTableRecord
  2
LAYER_40283
 70
0
 62
7
  6
CONTINUOUS
370
-3
390
F
  0
LAYER
  5
414
100
AcDbSymbolTableRecord
100
AcDbLayerTableRecord
  2
LAYER_40288
 70
0
 62
7
  6
CONTINUOUS
370
-3
390
F
  0
LAYER
  5
415
100
AcDbSymbolTableRecord
100
AcDbLayerTableRecord
  2
LAYER_40293
 70
0
 62
7
  6
CONTINUOUS
370
-3
390
F
  0
LAYER
  5
416
100
AcDbSymbolTableRecord
100
AcDbLayerTableRecord
  2
LAYER_40298
 70
0
 62
7
  6
CONTINUOUS
370
-3
390
F
  0
LAYER
  5
417
100
AcDbSymbolTableRecord
100
AcDbLayerTableRecord
  2
LAYER_40303
 70
0
 62
7
  6
CONTINUOUS
370
-3
390
F
  0
LAYER
  5
418
100
AcDbSymbolTableRecord
100
AcDbLayerTableRecord
  2
LAYER_40308
 70
0
 62
7
  6
CONTINUOUS
370
-3
390
F
  0
LAYER
  5
419
100
AcDbSymbolTableRecord
100
AcDbLayerTableRecord
  2
LAYER_40313
 70
0
 62
7
  6
CONTINUOUS
370
-3
390
F
  0
LAYER
  5
41A
100
AcDbSymbolTableRecord
100
AcDbLayerTableRecord
  2
LAYER_40318
 70
0
 62
7
  6
CONTINUOUS
370
-3
390
F
  0
LAYER
  5
41B
100
AcDbSymbolTableRecord
100
AcDbLayerTableRecord
  2
LAYER_40323
 70
0
 62
7
  6
CONTINUOUS
370
-3
390
F
  0
LAYER
  5
41C
100
AcDbSymbolTableRecord
100
AcDbLayerTableRecord
  2
LAYER_40711
 70
0
 62
7
  6
CONTINUOUS
370
-3
390
F
  0
LAYER
  5
41D
100
AcDbSymbolTableRecord
100
AcDbLayerTableRecord
  2
LAYER_40713
 70
0
 62
7
  6
CONTINUOUS
370
-3
390
F
  0
LAYER
  5
41E
100
AcDbSymbolTableRecord
100
AcDbLayerTableRecord
  2
LAYER_40717
 70
0
 62
7
  6
CONTINUOUS
370
-3
390
F
  0
LAYER
  5
41F
100
AcDbSymbolTableRecord
100
AcDbLayerTableRecord
  2
LAYER_40722
 70
0
 62
7
  6
CONTINUOUS
370
-3
390
F
  0
LAYER
  5
420
100
AcDbSymbolTableRecord
100
AcDbLayerTableRecord
  2
LAYER_40727
 70
0
 62
7
  6
CONTINUOUS
370
-3
390
F
  0
LAYER
  5
421
100
AcDbSymbolTableRecord
100
AcDbLayerTableRecord
  2
LAYER_40732
 70
0
 62
7
  6
CONTINUOUS
370
-3
390
F
  0
LAYER
  5
422
100
AcDbSymbolTableRecord
100
AcDbLayerTableRecord
  2
LAYER_40737
 70
0
 62
7
  6
CONTINUOUS
370
-3
390
F
  0
LAYER
  5
423
100
AcDbSymbolTableRecord
100
AcDbLayerTableRecord
  2
LAYER_40742
 70
0
 62
7
  6
CONTINUOUS
370
-3
390
F
  0
LAYER
  5
424
100
AcDbSymbolTableRecord
100
AcDbLayerTableRecord
  2
LAYER_40747
 70
0
 62
7
  6
CONTINUOUS
370
-3
390
F
  0
LAYER
  5
425
100
AcDbSymbolTableRecord
100
AcDbLayerTableRecord
  2
LAYER_40752
 70
0
 62
7
  6
CONTINUOUS
370
-3
390
F
  0
LAYER
  5
426
100
AcDbSymbolTableRecord
100
AcDbLayerTableRecord
  2
LAYER_40757
 70
0
 62
7
  6
CONTINUOUS
370
-3
390
F
  0
LAYER
  5
427
100
AcDbSymbolTableRecord
100
AcDbLayerTableRecord
  2
LAYER_40762
 70
0
 62
7
  6
CONTINUOUS
370
-3
390
F
  0
LAYER
  5
428
100
AcDbSymbolTableRecord
100
AcDbLayerTableRecord
  2
LAYER_40767
 70
0
 62
7
  6
CONTINUOUS
370
-3
390
F
  0
LAYER
  5
429
100
AcDbSymbolTableRecord
100
AcDbLayerTableRecord
  2
LAYER_40772
 70
0
 62
7
  6
CONTINUOUS
370
-3
390
F
  0
LAYER
  5
42A
100
AcDbSymbolTableRecord
100
AcDbLayerTableRecord
  2
LAYER_40777
 70
0
 62
7
  6
CONTINUOUS
370
-3
390
F
  0
LAYER
  5
42B
100
AcDbSymbolTableRecord
100
AcDbLayerTableRecord
  2
LAYER_40782
 70
0
 62
7
  6
CONTINUOUS
370
-3
390
F
  0
LAYER
  5
42C
100
AcDbSymbolTableRecord
100
AcDbLayerTableRecord
  2
LAYER_40787
 70
0
 62
7
  6
CONTINUOUS
370
-3
390
F
  0
LAYER
  5
42D
100
AcDbSymbolTableRecord
100
AcDbLayerTableRecord
  2
LAYER_40792
 70
0
 62
7
  6
CONTINUOUS
370
-3
390
F
  0
LAYER
  5
42E
100
AcDbSymbolTableRecord
100
AcDbLayerTableRecord
  2
LAYER_40797
 70
0
 62
7
  6
CONTINUOUS
370
-3
390
F
  0
LAYER
  5
42F
100
AcDbSymbolTableRecord
100
AcDbLayerTableRecord
  2
LAYER_40802
 70
0
 62
7
  6
CONTINUOUS
370
-3
390
F
  0
LAYER
  5
430
100
AcDbSymbolTableRecord
100
AcDbLayerTableRecord
  2
LAYER_40807
 70
0
 62
7
  6
CONTINUOUS
370
-3
390
F
  0
LAYER
  5
431
100
AcDbSymbolTableRecord
100
AcDbLayerTableRecord
  2
LAYER_40812
 70
0
 62
7
  6
CONTINUOUS
370
-3
390
F
  0
LAYER
  5
432
100
AcDbSymbolTableRecord
100
AcDbLayerTableRecord
  2
LAYER_40817
 70
0
 62
7
  6
CONTINUOUS
370
-3
390
F
  0
LAYER
  5
433
100
AcDbSymbolTableRecord
100
AcDbLayerTableRecord
  2
LAYER_40822
 70
0
 62
7
  6
CONTINUOUS
370
-3
390
F
  0
LAYER
  5
434
100
AcDbSymbolTableRecord
100
AcDbLayerTableRecord
  2
LAYER_40827
 70
0
 62
7
  6
CONTINUOUS
370
-3
390
F
  0
LAYER
  5
435
100
AcDbSymbolTableRecord
100
AcDbLayerTableRecord
  2
LAYER_40832
 70
0
 62
7
  6
CONTINUOUS
370
-3
390
F
  0
LAYER
  5
436
100
AcDbSymbolTableRecord
100
AcDbLayerTableRecord
  2
LAYER_40837
 70
0
 62
7
  6
CONTINUOUS
370
-3
390
F
  0
LAYER
  5
437
100
AcDbSymbolTableRecord
100
AcDbLayerTableRecord
  2
LAYER_40842
 70
0
 62
7
  6
CONTINUOUS
370
-3
390
F
  0
LAYER
  5
438
100
AcDbSymbolTableRecord
100
AcDbLayerTableRecord
  2
LAYER_40847
 70
0
 62
7
  6
CONTINUOUS
370
-3
390
F
  0
LAYER
  5
439
100
AcDbSymbolTableRecord
100
AcDbLayerTableRecord
  2
LAYER_40852
 70
0
 62
7
  6
CONTINUOUS
370
-3
390
F
  0
LAYER
  5
43A
100
AcDbSymbolTableRecord
100
AcDbLayerTableRecord
  2
LAYER_40857
 70
0
 62
7
  6
CONTINUOUS
370
-3
390
F
  0
LAYER
  5
43B
100
AcDbSymbolTableRecord
100
AcDbLayerTableRecord
  2
LAYER_40862
 70
0
 62
7
  6
CONTINUOUS
370
-3
390
F
  0
LAYER
  5
43C
100
AcDbSymbolTableRecord
100
AcDbLayerTableRecord
  2
LAYER_40867
 70
0
 62
7
  6
CONTINUOUS
370
-3
390
F
  0
LAYER
  5
43D
100
AcDbSymbolTableRecord
100
AcDbLayerTableRecord
  2
LAYER_40872
 70
0
 62
7
  6
CONTINUOUS
370
-3
390
F
  0
LAYER
  5
43E
100
AcDbSymbolTableRecord
100
AcDbLayerTableRecord
  2
LAYER_40877
 70
0
 62
7
  6
CONTINUOUS
370
-3
390
F
  0
LAYER
  5
43F
100
AcDbSymbolTableRecord
100
AcDbLayerTableRecord
  2
LAYER_40882
 70
0
 62
7
  6
CONTINUOUS
370
-3
390
F
  0
LAYER
  5
440
100
AcDbSymbolTableRecord
100
AcDbLayerTableRecord
  2
LAYER_40887
 70
0
 62
7
  6
CONTINUOUS
370
-3
390
F
  0
LAYER
  5
441
100
AcDbSymbolTableRecord
100
AcDbLayerTableRecord
  2
LAYER_40892
 70
0
 62
7
  6
CONTINUOUS
370
-3
390
F
  0
LAYER
  5
442
100
AcDbSymbolTableRecord
100
AcDbLayerTableRecord
  2
LAYER_40897
 70
0
 62
7
  6
CONTINUOUS
370
-3
390
F
  0
LAYER
  5
443
100
AcDbSymbolTableRecord
100
AcDbLayerTableRecord
  2
LAYER_40902
 70
0
 62
7
  6
CONTINUOUS
370
-3
390
F
  0
LAYER
  5
444
100
AcDbSymbolTableRecord
100
AcDbLayerTableRecord
  2
LAYER_40907
 70
0
 62
7
  6
CONTINUOUS
370
-3
390
F
  0
LAYER
  5
445
100
AcDbSymbolTableRecord
100
AcDbLayerTableRecord
  2
LAYER_40912
 70
0
 62
7
  6
CONTINUOUS
370
-3
390
F
  0
LAYER
  5
446
100
AcDbSymbolTableRecord
100
AcDbLayerTableRecord
  2
LAYER_40917
 70
0
 62
7
  6
CONTINUOUS
370
-3
390
F
  0
LAYER
  5
447
100
AcDbSymbolTableRecord
100
AcDbLayerTableRecord
  2
LAYER_40922
 70
0
 62
7
  6
CONTINUOUS
370
-3
390
F
  0
LAYER
  5
448
100
AcDbSymbolTableRecord
100
AcDbLayerTableRecord
  2
LAYER_40927
 70
0
 62
7
  6
CONTINUOUS
370
-3
390
F
  0
LAYER
  5
449
100
AcDbSymbolTableRecord
100
AcDbLayerTableRecord
  2
LAYER_40932
 70
0
 62
7
  6
CONTINUOUS
370
-3
390
F
  0
LAYER
  5
44A
100
AcDbSymbolTableRecord
100
AcDbLayerTableRecord
  2
LAYER_40937
 70
0
 62
7
  6
CONTINUOUS
370
-3
390
F
  0
LAYER
  5
44B
100
AcDbSymbolTableRecord
100
AcDbLayerTableRecord
  2
LAYER_40942
 70
0
 62
7
  6
CONTINUOUS
370
-3
390
F
  0
LAYER
  5
44C
100
AcDbSymbolTableRecord
100
AcDbLayerTableRecord
  2
LAYER_40947
 70
0
 62
7
  6
CONTINUOUS
370
-3
390
F
  0
LAYER
  5
44D
100
AcDbSymbolTableRecord
100
AcDbLayerTableRecord
  2
LAYER_40952
 70
0
 62
7
  6
CONTINUOUS
370
-3
390
F
  0
LAYER
  5
44E
100
AcDbSymbolTableRecord
100
AcDbLayerTableRecord
  2
LAYER_40957
 70
0
 62
7
  6
CONTINUOUS
370
-3
390
F
  0
LAYER
  5
44F
100
AcDbSymbolTableRecord
100
AcDbLayerTableRecord
  2
LAYER_40962
 70
0
 62
7
  6
CONTINUOUS
370
-3
390
F
  0
LAYER
  5
450
100
AcDbSymbolTableRecord
100
AcDbLayerTableRecord
  2
LAYER_40967
 70
0
 62
7
  6
CONTINUOUS
370
-3
390
F
  0
LAYER
  5
451
100
AcDbSymbolTableRecord
100
AcDbLayerTableRecord
  2
LAYER_40972
 70
0
 62
7
  6
CONTINUOUS
370
-3
390
F
  0
LAYER
  5
452
100
AcDbSymbolTableRecord
100
AcDbLayerTableRecord
  2
LAYER_41079
 70
0
 62
7
  6
CONTINUOUS
370
-3
390
F
  0
LAYER
  5
453
100
AcDbSymbolTableRecord
100
AcDbLayerTableRecord
  2
LAYER_41085
 70
0
 62
7
  6
CONTINUOUS
370
-3
390
F
  0
LAYER
  5
454
100
AcDbSymbolTableRecord
100
AcDbLayerTableRecord
  2
LAYER_41095
 70
0
 62
7
  6
CONTINUOUS
370
-3
390
F
  0
LAYER
  5
455
100
AcDbSymbolTableRecord
100
AcDbLayerTableRecord
  2
LAYER_41105
 70
0
 62
7
  6
CONTINUOUS
370
-3
390
F
  0
LAYER
  5
456
100
AcDbSymbolTableRecord
100
AcDbLayerTableRecord
  2
LAYER_41115
 70
0
 62
7
  6
CONTINUOUS
370
-3
390
F
  0
LAYER
  5
457
100
AcDbSymbolTableRecord
100
AcDbLayerTableRecord
  2
LAYER_41126
 70
0
 62
7
  6
CONTINUOUS
370
-3
390
F
  0
LAYER
  5
458
100
AcDbSymbolTableRecord
100
AcDbLayerTableRecord
  2
LAYER_41136
 70
0
 62
7
  6
CONTINUOUS
370
-3
390
F
  0
LAYER
  5
459
100
AcDbSymbolTableRecord
100
AcDbLayerTableRecord
  2
LAYER_41146
 70
0
 62
7
  6
CONTINUOUS
370
-3
390
F
  0
LAYER
  5
45A
100
AcDbSymbolTableRecord
100
AcDbLayerTableRecord
  2
LAYER_41156
 70
0
 62
7
  6
CONTINUOUS
370
-3
390
F
  0
LAYER
  5
45B
100
AcDbSymbolTableRecord
100
AcDbLayerTableRecord
  2
LAYER_41165
 70
0
 62
7
  6
CONTINUOUS
370
-3
390
F
  0
LAYER
  5
45C
100
AcDbSymbolTableRecord
100
AcDbLayerTableRecord
  2
LAYER_41175
 70
0
 62
7
  6
CONTINUOUS
370
-3
390
F
  0
LAYER
  5
45D
100
AcDbSymbolTableRecord
100
AcDbLayerTableRecord
  2
LAYER_41186
 70
0
 62
7
  6
CONTINUOUS
370
-3
390
F
  0
LAYER
  5
45E
100
AcDbSymbolTableRecord
100
AcDbLayerTableRecord
  2
LAYER_41196
 70
0
 62
7
  6
CONTINUOUS
370
-3
390
F
  0
LAYER
  5
45F
100
AcDbSymbolTableRecord
100
AcDbLayerTableRecord
  2
LAYER_41206
 70
0
 62
7
  6
CONTINUOUS
370
-3
390
F
  0
LAYER
  5
460
100
AcDbSymbolTableRecord
100
AcDbLayerTableRecord
  2
LAYER_41217
 70
0
 62
7
  6
CONTINUOUS
370
-3
390
F
  0
LAYER
  5
461
100
AcDbSymbolTableRecord
100
AcDbLayerTableRecord
  2
LAYER_41227
 70
0
 62
7
  6
CONTINUOUS
370
-3
390
F
  0
LAYER
  5
462
100
AcDbSymbolTableRecord
100
AcDbLayerTableRecord
  2
LAYER_41237
 70
0
 62
7
  6
CONTINUOUS
370
-3
390
F
  0
LAYER
  5
463
100
AcDbSymbolTableRecord
100
AcDbLayerTableRecord
  2
LAYER_41248
 70
0
 62
7
  6
CONTINUOUS
370
-3
390
F
  0
LAYER
  5
464
100
AcDbSymbolTableRecord
100
AcDbLayerTableRecord
  2
LAYER_41258
 70
0
 62
7
  6
CONTINUOUS
370
-3
390
F
  0
LAYER
  5
465
100
AcDbSymbolTableRecord
100
AcDbLayerTableRecord
  2
LAYER_41267
 70
0
 62
7
  6
CONTINUOUS
370
-3
390
F
  0
LAYER
  5
466
100
AcDbSymbolTableRecord
100
AcDbLayerTableRecord
  2
LAYER_41278
 70
0
 62
7
  6
CONTINUOUS
370
-3
390
F
  0
LAYER
  5
467
100
AcDbSymbolTableRecord
100
AcDbLayerTableRecord
  2
LAYER_41288
 70
0
 62
7
  6
CONTINUOUS
370
-3
390
F
  0
LAYER
  5
468
100
AcDbSymbolTableRecord
100
AcDbLayerTableRecord
  2
LAYER_41298
 70
0
 62
7
  6
CONTINUOUS
370
-3
390
F
  0
LAYER
  5
469
100
AcDbSymbolTableRecord
100
AcDbLayerTableRecord
  2
LAYER_41309
 70
0
 62
7
  6
CONTINUOUS
370
-3
390
F
  0
LAYER
  5
46A
100
AcDbSymbolTableRecord
100
AcDbLayerTableRecord
  2
LAYER_41319
 70
0
 62
7
  6
CONTINUOUS
370
-3
390
F
  0
LAYER
  5
46B
100
AcDbSymbolTableRecord
100
AcDbLayerTableRecord
  2
LAYER_41330
 70
0
 62
7
  6
CONTINUOUS
370
-3
390
F
  0
LAYER
  5
46C
100
AcDbSymbolTableRecord
100
AcDbLayerTableRecord
  2
LAYER_41340
 70
0
 62
7
  6
CONTINUOUS
370
-3
390
F
  0
LAYER
  5
46D
100
AcDbSymbolTableRecord
100
AcDbLayerTableRecord
  2
LAYER_41350
 70
0
 62
7
  6
CONTINUOUS
370
-3
390
F
  0
LAYER
  5
46E
100
AcDbSymbolTableRecord
100
AcDbLayerTableRecord
  2
LAYER_41361
 70
0
 62
7
  6
CONTINUOUS
370
-3
390
F
  0
LAYER
  5
46F
100
AcDbSymbolTableRecord
100
AcDbLayerTableRecord
  2
LAYER_41369
 70
0
 62
7
  6
CONTINUOUS
370
-3
390
F
  0
LAYER
  5
470
100
AcDbSymbolTableRecord
100
AcDbLayerTableRecord
  2
LAYER_41374
 70
0
 62
7
  6
CONTINUOUS
370
-3
390
F
  0
LAYER
  5
471
100
AcDbSymbolTableRecord
100
AcDbLayerTableRecord
  2
LAYER_41379
 70
0
 62
7
  6
CONTINUOUS
370
-3
390
F
  0
LAYER
  5
472
100
AcDbSymbolTableRecord
100
AcDbLayerTableRecord
  2
LAYER_41384
 70
0
 62
7
  6
CONTINUOUS
370
-3
390
F
  0
LAYER
  5
473
100
AcDbSymbolTableRecord
100
AcDbLayerTableRecord
  2
LAYER_41389
 70
0
 62
7
  6
CONTINUOUS
370
-3
390
F
  0
LAYER
  5
474
100
AcDbSymbolTableRecord
100
AcDbLayerTableRecord
  2
LAYER_41394
 70
0
 62
7
  6
CONTINUOUS
370
-3
390
F
  0
LAYER
  5
475
100
AcDbSymbolTableRecord
100
AcDbLayerTableRecord
  2
LAYER_41399
 70
0
 62
7
  6
CONTINUOUS
370
-3
390
F
  0
LAYER
  5
476
100
AcDbSymbolTableRecord
100
AcDbLayerTableRecord
  2
LAYER_41404
 70
0
 62
7
  6
CONTINUOUS
370
-3
390
F
  0
LAYER
  5
477
100
AcDbSymbolTableRecord
100
AcDbLayerTableRecord
  2
LAYER_41409
 70
0
 62
7
  6
CONTINUOUS
370
-3
390
F
  0
LAYER
  5
478
100
AcDbSymbolTableRecord
100
AcDbLayerTableRecord
  2
LAYER_41414
 70
0
 62
7
  6
CONTINUOUS
370
-3
390
F
  0
LAYER
  5
479
100
AcDbSymbolTableRecord
100
AcDbLayerTableRecord
  2
LAYER_41419
 70
0
 62
7
  6
CONTINUOUS
370
-3
390
F
  0
LAYER
  5
47A
100
AcDbSymbolTableRecord
100
AcDbLayerTableRecord
  2
LAYER_41424
 70
0
 62
7
  6
CONTINUOUS
370
-3
390
F
  0
LAYER
  5
47B
100
AcDbSymbolTableRecord
100
AcDbLayerTableRecord
  2
LAYER_41429
 70
0
 62
7
  6
CONTINUOUS
370
-3
390
F
  0
LAYER
  5
47C
100
AcDbSymbolTableRecord
100
AcDbLayerTableRecord
  2
LAYER_41434
 70
0
 62
7
  6
CONTINUOUS
370
-3
390
F
  0
LAYER
  5
47D
100
AcDbSymbolTableRecord
100
AcDbLayerTableRecord
  2
LAYER_41439
 70
0
 62
7
  6
CONTINUOUS
370
-3
390
F
  0
LAYER
  5
47E
100
AcDbSymbolTableRecord
100
AcDbLayerTableRecord
  2
LAYER_41444
 70
0
 62
7
  6
CONTINUOUS
370
-3
390
F
  0
LAYER
  5
47F
100
AcDbSymbolTableRecord
100
AcDbLayerTableRecord
  2
LAYER_41449
 70
0
 62
7
  6
CONTINUOUS
370
-3
390
F
  0
LAYER
  5
480
100
AcDbSymbolTableRecord
100
AcDbLayerTableRecord
  2
LAYER_41454
 70
0
 62
7
  6
CONTINUOUS
370
-3
390
F
  0
LAYER
  5
481
100
AcDbSymbolTableRecord
100
AcDbLayerTableRecord
  2
LAYER_41459
 70
0
 62
7
  6
CONTINUOUS
370
-3
390
F
  0
LAYER
  5
482
100
AcDbSymbolTableRecord
100
AcDbLayerTableRecord
  2
LAYER_41464
 70
0
 62
7
  6
CONTINUOUS
370
-3
390
F
  0
LAYER
  5
483
100
AcDbSymbolTableRecord
100
AcDbLayerTableRecord
  2
LAYER_41469
 70
0
 62
7
  6
CONTINUOUS
370
-3
390
F
  0
LAYER
  5
484
100
AcDbSymbolTableRecord
100
AcDbLayerTableRecord
  2
LAYER_41474
 70
0
 62
7
  6
CONTINUOUS
370
-3
390
F
  0
LAYER
  5
485
100
AcDbSymbolTableRecord
100
AcDbLayerTableRecord
  2
LAYER_41477
 70
0
 62
7
  6
CONTINUOUS
370
-3
390
F
  0
LAYER
  5
486
100
AcDbSymbolTableRecord
100
AcDbLayerTableRecord
  2
LAYER_41480
 70
0
 62
7
  6
CONTINUOUS
370
-3
390
F
  0
LAYER
  5
487
100
AcDbSymbolTableRecord
100
AcDbLayerTableRecord
  2
LAYER_43
 70
0
 62
7
  6
CONTINUOUS
370
-3
390
F
  0
LAYER
  5
488
100
AcDbSymbolTableRecord
100
AcDbLayerTableRecord
  2
LAYER_49
 70
0
 62
7
  6
CONTINUOUS
370
-3
390
F
  0
LAYER
  5
489
100
AcDbSymbolTableRecord
100
AcDbLayerTableRecord
  2
LAYER_51
 70
0
 62
7
  6
CONTINUOUS
370
-3
390
F
  0
LAYER
  5
48A
100
AcDbSymbolTableRecord
100
AcDbLayerTableRecord
  2
LAYER_52
 70
0
 62
7
  6
CONTINUOUS
370
-3
390
F
  0
LAYER
  5
48B
100
AcDbSymbolTableRecord
100
AcDbLayerTableRecord
  2
LAYER_54
 70
0
 62
7
  6
CONTINUOUS
370
-3
390
F
  0
LAYER
  5
48C
100
AcDbSymbolTableRecord
100
AcDbLayerTableRecord
  2
LAYER_69
 70
0
 62
7
  6
CONTINUOUS
370
-3
390
F
  0
LAYER
  5
48D
100
AcDbSymbolTableRecord
100
AcDbLayerTableRecord
  2
LAYER_78
 70
0
 62
7
  6
CONTINUOUS
370
-3
390
F
  0
LAYER
  5
48E
100
AcDbSymbolTableRecord
100
AcDbLayerTableRecord
  2
LAYER_84
 70
0
 62
7
  6
CONTINUOUS
370
-3
390
F
  0
LAYER
  5
48F
100
AcDbSymbolTableRecord
100
AcDbLayerTableRecord
  2
LAYER_90
 70
0
 62
7
  6
CONTINUOUS
370
-3
390
F
  0
LAYER
  5
490
100
AcDbSymbolTableRecord
100
AcDbLayerTableRecord
  2
LAYER_98
 70
0
 62
7
  6
CONTINUOUS
370
-3
390
F
  0
LAYER
  5
491
100
AcDbSymbolTableRecord
100
AcDbLayerTableRecord
  2
NONE
 70
0
 62
7
  6
CONTINUOUS
370
-3
390
F
  0
LAYER
  5
492
100
AcDbSymbolTableRecord
100
AcDbLayerTableRecord
  2
PLANES
 70
0
 62
7
  6
CONTINUOUS
370
-3
390
F
  0
LAYER
  5
493
100
AcDbSymbolTableRecord
100
AcDbLayerTableRecord
  2
WHITE
 70
0
 62
7
  6
CONTINUOUS
370
-3
390
F
  0
ENDTAB
  0
TABLE
  2
STYLE
  5
3
100
AcDbSymbolTable
 70
1
  0
STYLE
  5
11
100
AcDbSymbolTableRecord
100
AcDbTextStyleTableRecord
  2
STANDARD
 70
0
 40
0.0
 41
0.8
 50
0.0
 71
0
 42
0.2
  3
txt
  4

  0
STYLE
  5
494
100
AcDbSymbolTableRecord
100
AcDbTextStyleTableRecord
  2
TEXTSTYLE_1
 70
0
 40
0.0
 41
0.8
 50
0.0
 71
0
 42
0.2
  3
gdt
  4

  0
ENDTAB
  0
TABLE
  2
VIEW
  5
6
100
AcDbSymbolTable
 70
0
  0
ENDTAB
  0
TABLE
  2
UCS
  5
7
100
AcDbSymbolTable
 70
0
  0
ENDTAB
  0
TABLE
  2
APPID
  5
9
100
AcDbSymbolTable
 70
1
  0
APPID
  5
495
100
AcDbSymbolTableRecord
100
AcDbRegAppTableRecord
  2
ACAD
 70
0
  0
ENDTAB
  0
TABLE
  2
BLOCK_RECORD
  5
1
100
AcDbSymbolTable
 70
0
  0
BLOCK_RECORD
  5
496
100
AcDbSymbolTableRecord
100
AcDbBlockTableRecord
  2
*Model_Space
  0
BLOCK_RECORD
  5
497
100
AcDbSymbolTableRecord
100
AcDbBlockTableRecord
  2
*Paper_Space
  0
ENDTAB
  0
TABLE
  2
DIMSTYLE
  5
A
100
AcDbSymbolTable
 70
1
100
AcDbDimStyleTable
 71
0
  0
DIMSTYLE
105
498
100
AcDbSymbolTableRecord
100
AcDbDimStyleTableRecord
  2
STANDARD
 70
0
  3

  4

 40
1.0
 41
3.5
 42
0.0625
 43
0.38
 44
0.18
 45
0.0
 46
0.0
 47
0.01
 48
0.01
140
3.5
141
0.09
142
0.0
143
25.4
144
1.0
145
0.0
146
1.0
147
0.09
 71
1.0
 72
0.0
 73
0
 74
0
 75
0
 76
0
 77
1
 78
8
170
0
171
2
172
0
173
0
174
0
175
0
176
0
177
0
178
0
270
2
271
2
272
2
273
2
274
2
275
0
280
0
281
0
282
0
283
1
284
8
285
0
286
0
287
3
288
0
340
11
  0
ENDTAB
  0
ENDSEC
  0
SECTION
  2
BLOCKS
  0
BLOCK
  5
20
100
AcDbEntity
  8
0
100
AcDbBlockBegin
  2
*Model_Space
 70
0
 10
0.0
 20
0.0
 30
0.0
  3
*Model_Space
  1

  0
ENDBLK
  5
21
100
AcDbEntity
  8
0
100
AcDbBlockEnd
  0
BLOCK
  5
1C
100
AcDbEntity
  8
0
100
AcDbBlockBegin
  2
*Paper_Space
 70
0
 10
0.0
 20
0.0
 30
0.0
  3
*Paper_Space
  1

  0
ENDBLK
  5
1D
100
AcDbEntity
  8
0
100
AcDbBlockEnd
  0
ENDSEC
  0
SECTION
  2
ENTITIES
  0
LINE
  5
499
100
AcDbEntity
  8
0
100
AcDbLine
 62
7
  6
CONTINUOUS
 10
0.0
 20
0.0
 11
0.0
 21
841.0
  0
LINE
  5
49A
100
AcDbEntity
  8
0
100
AcDbLine
 62
7
  6
CONTINUOUS
 10
0.0
 20
0.0
 11
1189.0
 21
0.0
  0
LINE
  5
49B
100
AcDbEntity
  8
0
100
AcDbLine
 62
7
  6
CONTINUOUS
 10
0.0
 20
841.0
 11
1189.0
 21
841.0
  0
LINE
  5
49C
100
AcDbEntity
  8
0
100
AcDbLine
 62
7
  6
CONTINUOUS
 10
1189.0
 20
0.0
 11
1189.0
 21
841.0
  0
LINE
  5
49D
100
AcDbEntity
  8
0
100
AcDbLine
 62
7
  6
CONTINUOUS
 10
323.5255524943
 20
632.6440236371
 11
313.6125288572
 21
622.731
  0
LINE
  5
49E
100
AcDbEntity
  8
0
100
AcDbLine
 62
7
  6
CONTINUOUS
 10
384.4149763629
 20
693.5334475057
 11
394.328
 21
703.4464711428
  0
LINE
  5
49F
100
AcDbEntity
  8
0
100
AcDbLine
 62
7
  6
CONTINUOUS
 10
326.130198779
 20
634.4416221514
 11
332.7089544761
 21
641.0203778486
  0
LINE
  5
4A0
100
AcDbEntity
  8
0
100
AcDbLine
 62
7
  6
CONTINUOUS
 10
376.0386221514
 20
684.3500455239
 11
382.6173778486
 21
690.928801221
  0
LINE
  5
4A1
100
AcDbEntity
  8
0
100
AcDbLine
 62
7
  6
CONTINUOUS
 10
323.5255524943
 20
202.8179763629
 11
313.6125288572
 21
212.731
  0
LINE
  5
4A2
100
AcDbEntity
  8
0
100
AcDbLine
 62
7
  6
CONTINUOUS
 10
384.4149763629
 20
141.9285524943
 11
394.328
 21
132.0155288572
  0
LINE
  5
4A3
100
AcDbEntity
  8
0
100
AcDbLine
 62
7
  6
CONTINUOUS
 10
326.130198779
 20
201.0203778486
 11
332.7089544761
 21
194.4416221514
  0
LINE
  5
4A4
100
AcDbEntity
  8
0
100
AcDbLine
 62
7
  6
CONTINUOUS
 10
376.0386221514
 20
151.1119544761
 11
382.6173778486
 21
144.533198779
  0
LINE
  5
4A5
100
AcDbEntity
  8
0
100
AcDbLine
 62
7
  6
CONTINUOUS
 10
313.6125288572
 20
622.731
 11
313.6125288572
 21
212.731
  0
LINE
  5
4A6
100
AcDbEntity
  8
AXES
100
AcDbLine
 62
7
  6
CENTER
 10
324.1316178385
 20
199.157
 11
324.1316178385
 21
636.305
  0
LINE
  5
4A7
100
AcDbEntity
  8
AXES
100
AcDbLine
 62
7
  6
CENTER
 10
325.4851417237
 20
636.4416221514
 11
325.4851417237
 21
199.0203778486
  0
LINE
  5
4A8
100
AcDbEntity
  8
0
100
AcDbLine
 62
7
  6
CONTINUOUS
 10
394.328
 20
132.0155288572
 11
782.328
 21
132.0155288572
  0
LINE
  5
4A9
100
AcDbEntity
  8
AXES
100
AcDbLine
 62
7
  6
CENTER
 10
795.902
 20
142.5346178385
 11
380.754
 21
142.5346178385
  0
LINE
  5
4AA
100
AcDbEntity
  8
AXES
100
AcDbLine
 62
7
  6
CENTER
 10
380.6173778486
 20
143.8881417237
 11
796.0386221514
 21
143.8881417237
  0
LINE
  5
4AB
100
AcDbEntity
  8
AXES
100
AcDbLine
 62
7
  6
CENTER
 10
373.902
 20
151.7570115314
 11
802.754
 21
151.7570115314
  0
LINE
  5
4AC
100
AcDbEntity
  8
0
100
AcDbLine
 62
7
  6
CONTINUOUS
 10
400.847
 20
156.5154464353
 11
405.927
 21
156.5154464353
  0
LINE
  5
4AD
100
AcDbEntity
  8
0
100
AcDbLine
 62
7
  6
CONTINUOUS
 10
408.287
 20
156.5154464353
 11
413.367
 21
156.5154464353
  0
LINE
  5
4AE
100
AcDbEntity
  8
0
100
AcDbLine
 62
7
  6
CONTINUOUS
 10
415.727
 20
156.5154464353
 11
420.807
 21
156.5154464353
  0
LINE
  5
4AF
100
AcDbEntity
  8
0
100
AcDbLine
 62
7
  6
CONTINUOUS
 10
616.847
 20
156.5154464353
 11
621.927
 21
156.5154464353
  0
LINE
  5
4B0
100
AcDbEntity
  8
0
100
AcDbLine
 62
7
  6
CONTINUOUS
 10
624.287
 20
156.5154464353
 11
629.367
 21
156.5154464353
  0
LINE
  5
4B1
100
AcDbEntity
  8
0
100
AcDbLine
 62
7
  6
CONTINUOUS
 10
631.727
 20
156.5154464353
 11
636.807
 21
156.5154464353
  0
LINE
  5
4B2
100
AcDbEntity
  8
0
100
AcDbLine
 62
7
  6
CONTINUOUS
 10
661.847
 20
156.5154464353
 11
666.927
 21
156.5154464353
  0
LINE
  5
4B3
100
AcDbEntity
  8
0
100
AcDbLine
 62
7
  6
CONTINUOUS
 10
669.287
 20
156.5154464353
 11
674.367
 21
156.5154464353
  0
LINE
  5
4B4
100
AcDbEntity
  8
0
100
AcDbLine
 62
7
  6
CONTINUOUS
 10
676.727
 20
156.5154464353
 11
681.807
 21
156.5154464353
  0
LINE
  5
4B5
100
AcDbEntity
  8
AXES
100
AcDbLine
 62
7
  6
CENTER
 10
333.3540115314
 20
643.157
 11
333.3540115314
 21
192.305
  0
LINE
  5
4B6
100
AcDbEntity
  8
0
100
AcDbLine
 62
7
  6
CONTINUOUS
 10
681.807
 20
161.5954464353
 11
676.727
 21
161.5954464353
  0
LINE
  5
4B7
100
AcDbEntity
  8
0
100
AcDbLine
 62
7
  6
CONTINUOUS
 10
674.367
 20
161.5954464353
 11
669.287
 21
161.5954464353
  0
LINE
  5
4B8
100
AcDbEntity
  8
0
100
AcDbLine
 62
7
  6
CONTINUOUS
 10
666.927
 20
161.5954464353
 11
661.847
 21
161.5954464353
  0
LINE
  5
4B9
100
AcDbEntity
  8
0
100
AcDbLine
 62
7
  6
CONTINUOUS
 10
636.807
 20
161.5954464353
 11
631.727
 21
161.5954464353
  0
LINE
  5
4BA
100
AcDbEntity
  8
0
100
AcDbLine
 62
7
  6
CONTINUOUS
 10
629.367
 20
161.5954464353
 11
624.287
 21
161.5954464353
  0
LINE
  5
4BB
100
AcDbEntity
  8
0
100
AcDbLine
 62
7
  6
CONTINUOUS
 10
621.927
 20
161.5954464353
 11
616.847
 21
161.5954464353
  0
LINE
  5
4BC
100
AcDbEntity
  8
0
100
AcDbLine
 62
7
  6
CONTINUOUS
 10
420.807
 20
161.5954464353
 11
415.727
 21
161.5954464353
  0
LINE
  5
4BD
100
AcDbEntity
  8
0
100
AcDbLine
 62
7
  6
CONTINUOUS
 10
413.367
 20
161.5954464353
 11
408.287
 21
161.5954464353
  0
LINE
  5
4BE
100
AcDbEntity
  8
0
100
AcDbLine
 62
7
  6
CONTINUOUS
 10
405.927
 20
161.5954464353
 11
400.847
 21
161.5954464353
  0
LINE
  5
4BF
100
AcDbEntity
  8
0
100
AcDbLine
 62
7
  6
CONTINUOUS
 10
393.407
 20
163.9554464353
 11
398.487
 21
163.9554464353
  0
LINE
  5
4C0
100
AcDbEntity
  8
0
100
AcDbLine
 62
7
  6
CONTINUOUS
 10
400.847
 20
163.9554464353
 11
405.927
 21
163.9554464353
  0
LINE
  5
4C1
100
AcDbEntity
  8
0
100
AcDbLine
 62
7
  6
CONTINUOUS
 10
408.287
 20
163.9554464353
 11
413.367
 21
163.9554464353
  0
LINE
  5
4C2
100
AcDbEntity
  8
0
100
AcDbLine
 62
7
  6
CONTINUOUS
 10
415.727
 20
163.9554464353
 11
420.807
 21
163.9554464353
  0
LINE
  5
4C3
100
AcDbEntity
  8
0
100
AcDbLine
 62
7
  6
CONTINUOUS
 10
423.167
 20
163.9554464353
 11
428.247
 21
163.9554464353
  0
LINE
  5
4C4
100
AcDbEntity
  8
0
100
AcDbLine
 62
7
  6
CONTINUOUS
 10
609.407
 20
163.9554464353
 11
614.487
 21
163.9554464353
  0
LINE
  5
4C5
100
AcDbEntity
  8
0
100
AcDbLine
 62
7
  6
CONTINUOUS
 10
616.847
 20
163.9554464353
 11
621.927
 21
163.9554464353
  0
LINE
  5
4C6
100
AcDbEntity
  8
0
100
AcDbLine
 62
7
  6
CONTINUOUS
 10
624.287
 20
163.9554464353
 11
629.367
 21
163.9554464353
  0
LINE
  5
4C7
100
AcDbEntity
  8
0
100
AcDbLine
 62
7
  6
CONTINUOUS
 10
631.727
 20
163.9554464353
 11
636.807
 21
163.9554464353
  0
LINE
  5
4C8
100
AcDbEntity
  8
0
100
AcDbLine
 62
7
  6
CONTINUOUS
 10
639.167
 20
163.9554464353
 11
644.247
 21
163.9554464353
  0
LINE
  5
4C9
100
AcDbEntity
  8
0
100
AcDbLine
 62
7
  6
CONTINUOUS
 10
654.407
 20
163.9554464353
 11
659.487
 21
163.9554464353
  0
LINE
  5
4CA
100
AcDbEntity
  8
0
100
AcDbLine
 62
7
  6
CONTINUOUS
 10
661.847
 20
163.9554464353
 11
666.927
 21
163.9554464353
  0
LINE
  5
4CB
100
AcDbEntity
  8
0
100
AcDbLine
 62
7
  6
CONTINUOUS
 10
669.287
 20
163.9554464353
 11
674.367
 21
163.9554464353
  0
LINE
  5
4CC
100
AcDbEntity
  8
0
100
AcDbLine
 62
7
  6
CONTINUOUS
 10
676.727
 20
163.9554464353
 11
681.807
 21
163.9554464353
  0
LINE
  5
4CD
100
AcDbEntity
  8
0
100
AcDbLine
 62
7
  6
CONTINUOUS
 10
684.167
 20
163.9554464353
 11
689.247
 21
163.9554464353
  0
LINE
  5
4CE
100
AcDbEntity
  8
0
100
AcDbLine
 62
7
  6
CONTINUOUS
 10
689.247
 20
169.0354464353
 11
684.167
 21
169.0354464353
  0
LINE
  5
4CF
100
AcDbEntity
  8
0
100
AcDbLine
 62
7
  6
CONTINUOUS
 10
681.807
 20
169.0354464353
 11
676.727
 21
169.0354464353
  0
LINE
  5
4D0
100
AcDbEntity
  8
0
100
AcDbLine
 62
7
  6
CONTINUOUS
 10
674.367
 20
169.0354464353
 11
669.287
 21
169.0354464353
  0
LINE
  5
4D1
100
AcDbEntity
  8
0
100
AcDbLine
 62
7
  6
CONTINUOUS
 10
666.927
 20
169.0354464353
 11
661.847
 21
169.0354464353
  0
LINE
  5
4D2
100
AcDbEntity
  8
0
100
AcDbLine
 62
7
  6
CONTINUOUS
 10
659.487
 20
169.0354464353
 11
654.407
 21
169.0354464353
  0
LINE
  5
4D3
100
AcDbEntity
  8
0
100
AcDbLine
 62
7
  6
CONTINUOUS
 10
644.247
 20
169.0354464353
 11
639.167
 21
169.0354464353
  0
LINE
  5
4D4
100
AcDbEntity
  8
0
100
AcDbLine
 62
7
  6
CONTINUOUS
 10
636.807
 20
169.0354464353
 11
631.727
 21
169.0354464353
  0
LINE
  5
4D5
100
AcDbEntity
  8
0
100
AcDbLine
 62
7
  6
CONTINUOUS
 10
629.367
 20
169.0354464353
 11
624.287
 21
169.0354464353
  0
LINE
  5
4D6
100
AcDbEntity
  8
0
100
AcDbLine
 62
7
  6
CONTINUOUS
 10
621.927
 20
169.0354464353
 11
616.847
 21
169.0354464353
  0
LINE
  5
4D7
100
AcDbEntity
  8
0
100
AcDbLine
 62
7
  6
CONTINUOUS
 10
614.487
 20
169.0354464353
 11
609.407
 21
169.0354464353
  0
LINE
  5
4D8
100
AcDbEntity
  8
0
100
AcDbLine
 62
7
  6
CONTINUOUS
 10
428.247
 20
169.0354464353
 11
423.167
 21
169.0354464353
  0
LINE
  5
4D9
100
AcDbEntity
  8
0
100
AcDbLine
 62
7
  6
CONTINUOUS
 10
420.807
 20
169.0354464353
 11
415.727
 21
169.0354464353
  0
LINE
  5
4DA
100
AcDbEntity
  8
0
100
AcDbLine
 62
7
  6
CONTINUOUS
 10
413.367
 20
169.0354464353
 11
408.287
 21
169.0354464353
  0
LINE
  5
4DB
100
AcDbEntity
  8
0
100
AcDbLine
 62
7
  6
CONTINUOUS
 10
405.927
 20
169.0354464353
 11
400.847
 21
169.0354464353
  0
LINE
  5
4DC
100
AcDbEntity
  8
0
100
AcDbLine
 62
7
  6
CONTINUOUS
 10
398.487
 20
169.0354464353
 11
393.407
 21
169.0354464353
  0
LINE
  5
4DD
100
AcDbEntity
  8
0
100
AcDbLine
 62
7
  6
CONTINUOUS
 10
393.407
 20
171.3954464353
 11
398.487
 21
171.3954464353
  0
LINE
  5
4DE
100
AcDbEntity
  8
0
100
AcDbLine
 62
7
  6
CONTINUOUS
 10
400.847
 20
171.3954464353
 11
405.927
 21
171.3954464353
  0
LINE
  5
4DF
100
AcDbEntity
  8
0
100
AcDbLine
 62
7
  6
CONTINUOUS
 10
408.287
 20
171.3954464353
 11
413.367
 21
171.3954464353
  0
LINE
  5
4E0
100
AcDbEntity
  8
0
100
AcDbLine
 62
7
  6
CONTINUOUS
 10
415.727
 20
171.3954464353
 11
420.807
 21
171.3954464353
  0
LINE
  5
4E1
100
AcDbEntity
  8
0
100
AcDbLine
 62
7
  6
CONTINUOUS
 10
423.167
 20
171.3954464353
 11
428.247
 21
171.3954464353
  0
LINE
  5
4E2
100
AcDbEntity
  8
0
100
AcDbLine
 62
7
  6
CONTINUOUS
 10
609.407
 20
171.3954464353
 11
614.487
 21
171.3954464353
  0
LINE
  5
4E3
100
AcDbEntity
  8
0
100
AcDbLine
 62
7
  6
CONTINUOUS
 10
616.847
 20
171.3954464353
 11
621.927
 21
171.3954464353
  0
LINE
  5
4E4
100
AcDbEntity
  8
0
100
AcDbLine
 62
7
  6
CONTINUOUS
 10
624.287
 20
171.3954464353
 11
629.367
 21
171.3954464353
  0
LINE
  5
4E5
100
AcDbEntity
  8
0
100
AcDbLine
 62
7
  6
CONTINUOUS
 10
631.727
 20
171.3954464353
 11
636.807
 21
171.3954464353
  0
LINE
  5
4E6
100
AcDbEntity
  8
0
100
AcDbLine
 62
7
  6
CONTINUOUS
 10
639.167
 20
171.3954464353
 11
644.247
 21
171.3954464353
  0
LINE
  5
4E7
100
AcDbEntity
  8
0
100
AcDbLine
 62
7
  6
CONTINUOUS
 10
654.407
 20
171.3954464353
 11
659.487
 21
171.3954464353
  0
LINE
  5
4E8
100
AcDbEntity
  8
0
100
AcDbLine
 62
7
  6
CONTINUOUS
 10
661.847
 20
171.3954464353
 11
666.927
 21
171.3954464353
  0
LINE
  5
4E9
100
AcDbEntity
  8
0
100
AcDbLine
 62
7
  6
CONTINUOUS
 10
669.287
 20
171.3954464353
 11
674.367
 21
171.3954464353
  0
LINE
  5
4EA
100
AcDbEntity
  8
0
100
AcDbLine
 62
7
  6
CONTINUOUS
 10
676.727
 20
171.3954464353
 11
681.807
 21
171.3954464353
  0
LINE
  5
4EB
100
AcDbEntity
  8
0
100
AcDbLine
 62
7
  6
CONTINUOUS
 10
684.167
 20
171.3954464353
 11
689.247
 21
171.3954464353
  0
LINE
  5
4EC
100
AcDbEntity
  8
0
100
AcDbLine
 62
7
  6
CONTINUOUS
 10
689.247
 20
176.4754464353
 11
684.167
 21
176.4754464353
  0
LINE
  5
4ED
100
AcDbEntity
  8
0
100
AcDbLine
 62
7
  6
CONTINUOUS
 10
681.807
 20
176.4754464353
 11
676.727
 21
176.4754464353
  0
LINE
  5
4EE
100
AcDbEntity
  8
0
100
AcDbLine
 62
7
  6
CONTINUOUS
 10
674.367
 20
176.4754464353
 11
669.287
 21
176.4754464353
  0
LINE
  5
4EF
100
AcDbEntity
  8
0
100
AcDbLine
 62
7
  6
CONTINUOUS
 10
666.927
 20
176.4754464353
 11
661.847
 21
176.4754464353
  0
LINE
  5
4F0
100
AcDbEntity
  8
0
100
AcDbLine
 62
7
  6
CONTINUOUS
 10
659.487
 20
176.4754464353
 11
654.407
 21
176.4754464353
  0
LINE
  5
4F1
100
AcDbEntity
  8
0
100
AcDbLine
 62
7
  6
CONTINUOUS
 10
644.247
 20
176.4754464353
 11
639.167
 21
176.4754464353
  0
LINE
  5
4F2
100
AcDbEntity
  8
0
100
AcDbLine
 62
7
  6
CONTINUOUS
 10
636.807
 20
176.4754464353
 11
631.727
 21
176.4754464353
  0
LINE
  5
4F3
100
AcDbEntity
  8
0
100
AcDbLine
 62
7
  6
CONTINUOUS
 10
629.367
 20
176.4754464353
 11
624.287
 21
176.4754464353
  0
LINE
  5
4F4
100
AcDbEntity
  8
0
100
AcDbLine
 62
7
  6
CONTINUOUS
 10
621.927
 20
176.4754464353
 11
616.847
 21
176.4754464353
  0
LINE
  5
4F5
100
AcDbEntity
  8
0
100
AcDbLine
 62
7
  6
CONTINUOUS
 10
614.487
 20
176.4754464353
 11
609.407
 21
176.4754464353
  0
LINE
  5
4F6
100
AcDbEntity
  8
0
100
AcDbLine
 62
7
  6
CONTINUOUS
 10
428.247
 20
176.4754464353
 11
423.167
 21
176.4754464353
  0
LINE
  5
4F7
100
AcDbEntity
  8
0
100
AcDbLine
 62
7
  6
CONTINUOUS
 10
420.807
 20
176.4754464353
 11
415.727
 21
176.4754464353
  0
LINE
  5
4F8
100
AcDbEntity
  8
0
100
AcDbLine
 62
7
  6
CONTINUOUS
 10
413.367
 20
176.4754464353
 11
408.287
 21
176.4754464353
  0
LINE
  5
4F9
100
AcDbEntity
  8
0
100
AcDbLine
 62
7
  6
CONTINUOUS
 10
405.927
 20
176.4754464353
 11
400.847
 21
176.4754464353
  0
LINE
  5
4FA
100
AcDbEntity
  8
0
100
AcDbLine
 62
7
  6
CONTINUOUS
 10
398.487
 20
176.4754464353
 11
393.407
 21
176.4754464353
  0
LINE
  5
4FB
100
AcDbEntity
  8
0
100
AcDbLine
 62
7
  6
CONTINUOUS
 10
393.407
 20
178.8354464353
 11
398.487
 21
178.8354464353
  0
LINE
  5
4FC
100
AcDbEntity
  8
0
100
AcDbLine
 62
7
  6
CONTINUOUS
 10
400.847
 20
178.8354464353
 11
405.927
 21
178.8354464353
  0
LINE
  5
4FD
100
AcDbEntity
  8
0
100
AcDbLine
 62
7
  6
CONTINUOUS
 10
408.287
 20
178.8354464353
 11
413.367
 21
178.8354464353
  0
LINE
  5
4FE
100
AcDbEntity
  8
0
100
AcDbLine
 62
7
  6
CONTINUOUS
 10
415.727
 20
178.8354464353
 11
420.807
 21
178.8354464353
  0
LINE
  5
4FF
100
AcDbEntity
  8
0
100
AcDbLine
 62
7
  6
CONTINUOUS
 10
423.167
 20
178.8354464353
 11
428.247
 21
178.8354464353
  0
LINE
  5
500
100
AcDbEntity
  8
0
100
AcDbLine
 62
7
  6
CONTINUOUS
 10
609.407
 20
178.8354464353
 11
614.487
 21
178.8354464353
  0
LINE
  5
501
100
AcDbEntity
  8
0
100
AcDbLine
 62
7
  6
CONTINUOUS
 10
616.847
 20
178.8354464353
 11
621.927
 21
178.8354464353
  0
LINE
  5
502
100
AcDbEntity
  8
0
100
AcDbLine
 62
7
  6
CONTINUOUS
 10
624.287
 20
178.8354464353
 11
629.367
 21
178.8354464353
  0
LINE
  5
503
100
AcDbEntity
  8
0
100
AcDbLine
 62
7
  6
CONTINUOUS
 10
631.727
 20
178.8354464353
 11
636.807
 21
178.8354464353
  0
LINE
  5
504
100
AcDbEntity
  8
0
100
AcDbLine
 62
7
  6
CONTINUOUS
 10
639.167
 20
178.8354464353
 11
644.247
 21
178.8354464353
  0
LINE
  5
505
100
AcDbEntity
  8
0
100
AcDbLine
 62
7
  6
CONTINUOUS
 10
654.407
 20
178.8354464353
 11
659.487
 21
178.8354464353
  0
LINE
  5
506
100
AcDbEntity
  8
0
100
AcDbLine
 62
7
  6
CONTINUOUS
 10
661.847
 20
178.8354464353
 11
666.927
 21
178.8354464353
  0
LINE
  5
507
100
AcDbEntity
  8
0
100
AcDbLine
 62
7
  6
CONTINUOUS
 10
669.287
 20
178.8354464353
 11
674.367
 21
178.8354464353
  0
LINE
  5
508
100
AcDbEntity
  8
0
100
AcDbLine
 62
7
  6
CONTINUOUS
 10
676.727
 20
178.8354464353
 11
681.807
 21
178.8354464353
  0
LINE
  5
509
100
AcDbEntity
  8
0
100
AcDbLine
 62
7
  6
CONTINUOUS
 10
684.167
 20
178.8354464353
 11
689.247
 21
178.8354464353
  0
LINE
  5
50A
100
AcDbEntity
  8
AXES
100
AcDbLine
 62
7
  6
CENTER
 10
375.5332232176
 20
643.157
 11
375.5332232176
 21
192.305
  0
LINE
  5
50B
100
AcDbEntity
  8
0
100
AcDbLine
 62
7
  6
CONTINUOUS
 10
375.902
 20
192.7800464353
 11
375.902
 21
152.4020685867
  0
LINE
  5
50C
100
AcDbEntity
  8
0
100
AcDbLine
 62
7
  6
CONTINUOUS
 10
375.902
 20
642.6819535647
 11
375.902
 21
683.0599314133
  0
LINE
  5
50D
100
AcDbEntity
  8
0
100
AcDbLine
 62
7
  6
CONTINUOUS
 10
379.352
 20
679.9665535647
 11
379.352
 21
674.8865535647
  0
LINE
  5
50E
100
AcDbEntity
  8
0
100
AcDbLine
 62
7
  6
CONTINUOUS
 10
379.352
 20
672.5255535647
 11
379.352
 21
667.4455535647
  0
LINE
  5
50F
100
AcDbEntity
  8
0
100
AcDbLine
 62
7
  6
CONTINUOUS
 10
379.352
 20
665.0845535647
 11
379.352
 21
660.0045535647
  0
LINE
  5
510
100
AcDbEntity
  8
0
100
AcDbLine
 62
7
  6
CONTINUOUS
 10
379.352
 20
657.6435535647
 11
379.352
 21
652.5635535647
  0
LINE
  5
511
100
AcDbEntity
  8
0
100
AcDbLine
 62
7
  6
CONTINUOUS
 10
379.352
 20
650.2025535647
 11
379.352
 21
645.1225535647
  0
LINE
  5
512
100
AcDbEntity
  8
0
100
AcDbLine
 62
7
  6
CONTINUOUS
 10
689.247
 20
183.9154464353
 11
684.167
 21
183.9154464353
  0
LINE
  5
513
100
AcDbEntity
  8
0
100
AcDbLine
 62
7
  6
CONTINUOUS
 10
681.807
 20
183.9154464353
 11
676.727
 21
183.9154464353
  0
LINE
  5
514
100
AcDbEntity
  8
0
100
AcDbLine
 62
7
  6
CONTINUOUS
 10
674.367
 20
183.9154464353
 11
669.287
 21
183.9154464353
  0
LINE
  5
515
100
AcDbEntity
  8
0
100
AcDbLine
 62
7
  6
CONTINUOUS
 10
666.927
 20
183.9154464353
 11
661.847
 21
183.9154464353
  0
LINE
  5
516
100
AcDbEntity
  8
0
100
AcDbLine
 62
7
  6
CONTINUOUS
 10
659.487
 20
183.9154464353
 11
654.407
 21
183.9154464353
  0
LINE
  5
517
100
AcDbEntity
  8
0
100
AcDbLine
 62
7
  6
CONTINUOUS
 10
644.247
 20
183.9154464353
 11
639.167
 21
183.9154464353
  0
LINE
  5
518
100
AcDbEntity
  8
0
100
AcDbLine
 62
7
  6
CONTINUOUS
 10
636.807
 20
183.9154464353
 11
631.727
 21
183.9154464353
  0
LINE
  5
519
100
AcDbEntity
  8
0
100
AcDbLine
 62
7
  6
CONTINUOUS
 10
629.367
 20
183.9154464353
 11
624.287
 21
183.9154464353
  0
LINE
  5
51A
100
AcDbEntity
  8
0
100
AcDbLine
 62
7
  6
CONTINUOUS
 10
621.927
 20
183.9154464353
 11
616.847
 21
183.9154464353
  0
LINE
  5
51B
100
AcDbEntity
  8
0
100
AcDbLine
 62
7
  6
CONTINUOUS
 10
614.487
 20
183.9154464353
 11
609.407
 21
183.9154464353
  0
LINE
  5
51C
100
AcDbEntity
  8
0
100
AcDbLine
 62
7
  6
CONTINUOUS
 10
428.247
 20
183.9154464353
 11
423.167
 21
183.9154464353
  0
LINE
  5
51D
100
AcDbEntity
  8
0
100
AcDbLine
 62
7
  6
CONTINUOUS
 10
420.807
 20
183.9154464353
 11
415.727
 21
183.9154464353
  0
LINE
  5
51E
100
AcDbEntity
  8
0
100
AcDbLine
 62
7
  6
CONTINUOUS
 10
413.367
 20
183.9154464353
 11
408.287
 21
183.9154464353
  0
LINE
  5
51F
100
AcDbEntity
  8
0
100
AcDbLine
 62
7
  6
CONTINUOUS
 10
405.927
 20
183.9154464353
 11
400.847
 21
183.9154464353
  0
LINE
  5
520
100
AcDbEntity
  8
0
100
AcDbLine
 62
7
  6
CONTINUOUS
 10
398.487
 20
183.9154464353
 11
393.407
 21
183.9154464353
  0
LINE
  5
521
100
AcDbEntity
  8
0
100
AcDbLine
 62
7
  6
CONTINUOUS
 10
400.847
 20
186.2754464353
 11
405.927
 21
186.2754464353
  0
LINE
  5
522
100
AcDbEntity
  8
0
100
AcDbLine
 62
7
  6
CONTINUOUS
 10
408.287
 20
186.2754464353
 11
413.367
 21
186.2754464353
  0
LINE
  5
523
100
AcDbEntity
  8
0
100
AcDbLine
 62
7
  6
CONTINUOUS
 10
415.727
 20
186.2754464353
 11
420.807
 21
186.2754464353
  0
LINE
  5
524
100
AcDbEntity
  8
0
100
AcDbLine
 62
7
  6
CONTINUOUS
 10
616.847
 20
186.2754464353
 11
621.927
 21
186.2754464353
  0
LINE
  5
525
100
AcDbEntity
  8
0
100
AcDbLine
 62
7
  6
CONTINUOUS
 10
624.287
 20
186.2754464353
 11
629.367
 21
186.2754464353
  0
LINE
  5
526
100
AcDbEntity
  8
0
100
AcDbLine
 62
7
  6
CONTINUOUS
 10
631.727
 20
186.2754464353
 11
636.807
 21
186.2754464353
  0
LINE
  5
527
100
AcDbEntity
  8
0
100
AcDbLine
 62
7
  6
CONTINUOUS
 10
661.847
 20
186.2754464353
 11
666.927
 21
186.2754464353
  0
LINE
  5
528
100
AcDbEntity
  8
0
100
AcDbLine
 62
7
  6
CONTINUOUS
 10
669.287
 20
186.2754464353
 11
674.367
 21
186.2754464353
  0
LINE
  5
529
100
AcDbEntity
  8
0
100
AcDbLine
 62
7
  6
CONTINUOUS
 10
676.727
 20
186.2754464353
 11
681.807
 21
186.2754464353
  0
LINE
  5
52A
100
AcDbEntity
  8
0
100
AcDbLine
 62
7
  6
CONTINUOUS
 10
469.428
 20
190.8914464353
 11
467.228
 21
190.8914464353
  0
LINE
  5
52B
100
AcDbEntity
  8
0
100
AcDbLine
 62
7
  6
CONTINUOUS
 10
444.428
 20
190.8914464353
 11
442.228
 21
190.8914464353
  0
LINE
  5
52C
100
AcDbEntity
  8
0
100
AcDbLine
 62
7
  6
CONTINUOUS
 10
681.807
 20
191.3554464353
 11
676.727
 21
191.3554464353
  0
LINE
  5
52D
100
AcDbEntity
  8
0
100
AcDbLine
 62
7
  6
CONTINUOUS
 10
674.367
 20
191.3554464353
 11
669.287
 21
191.3554464353
  0
LINE
  5
52E
100
AcDbEntity
  8
0
100
AcDbLine
 62
7
  6
CONTINUOUS
 10
666.927
 20
191.3554464353
 11
661.847
 21
191.3554464353
  0
LINE
  5
52F
100
AcDbEntity
  8
0
100
AcDbLine
 62
7
  6
CONTINUOUS
 10
636.807
 20
191.3554464353
 11
631.727
 21
191.3554464353
  0
LINE
  5
530
100
AcDbEntity
  8
0
100
AcDbLine
 62
7
  6
CONTINUOUS
 10
629.367
 20
191.3554464353
 11
624.287
 21
191.3554464353
  0
LINE
  5
531
100
AcDbEntity
  8
0
100
AcDbLine
 62
7
  6
CONTINUOUS
 10
621.927
 20
191.3554464353
 11
616.847
 21
191.3554464353
  0
LINE
  5
532
100
AcDbEntity
  8
0
100
AcDbLine
 62
7
  6
CONTINUOUS
 10
420.807
 20
191.3554464353
 11
415.727
 21
191.3554464353
  0
LINE
  5
533
100
AcDbEntity
  8
0
100
AcDbLine
 62
7
  6
CONTINUOUS
 10
413.367
 20
191.3554464353
 11
408.287
 21
191.3554464353
  0
LINE
  5
534
100
AcDbEntity
  8
0
100
AcDbLine
 62
7
  6
CONTINUOUS
 10
405.927
 20
191.3554464353
 11
400.847
 21
191.3554464353
  0
LINE
  5
535
100
AcDbEntity
  8
AXES
100
AcDbLine
 62
7
  6
CENTER
 10
373.902
 20
193.9362232176
 11
802.754
 21
193.9362232176
  0
LINE
  5
536
100
AcDbEntity
  8
0
100
AcDbLine
 62
7
  6
CONTINUOUS
 10
374.3770464353
 20
194.305
 11
333.9990685867
 21
194.305
  0
LINE
  5
537
100
AcDbEntity
  8
0
100
AcDbLine
 62
7
  6
CONTINUOUS
 10
802.2789535647
 20
194.305
 11
842.6569314133
 21
194.305
  0
LINE
  5
538
100
AcDbEntity
  8
0
100
AcDbLine
 62
7
  6
CONTINUOUS
 10
324.8400846683
 20
201.157
 11
324.7376831827
 21
201.157
  0
LINE
  5
539
100
AcDbEntity
  8
0
100
AcDbLine
 62
7
  6
CONTINUOUS
 10
851.8159153317
 20
201.157
 11
851.9183168173
 21
201.157
  0
LINE
  5
53A
100
AcDbEntity
  8
0
100
AcDbLine
 62
7
  6
CONTINUOUS
 10
382.754
 20
143.2430846683
 11
382.754
 21
143.1406831827
  0
LINE
  5
53B
100
AcDbEntity
  8
0
100
AcDbLine
 62
7
  6
CONTINUOUS
 10
382.754
 20
692.2189153317
 11
382.754
 21
692.3213168173
  0
LINE
  5
53C
100
AcDbEntity
  8
0
100
AcDbLine
 62
7
  6
CONTINUOUS
 10
384.432
 20
645.1225535647
 11
384.432
 21
650.2025535647
  0
LINE
  5
53D
100
AcDbEntity
  8
0
100
AcDbLine
 62
7
  6
CONTINUOUS
 10
384.432
 20
652.5635535647
 11
384.432
 21
657.6435535647
  0
LINE
  5
53E
100
AcDbEntity
  8
0
100
AcDbLine
 62
7
  6
CONTINUOUS
 10
384.432
 20
660.0045535647
 11
384.432
 21
665.0845535647
  0
LINE
  5
53F
100
AcDbEntity
  8
0
100
AcDbLine
 62
7
  6
CONTINUOUS
 10
384.432
 20
667.4455535647
 11
384.432
 21
672.5255535647
  0
LINE
  5
540
100
AcDbEntity
  8
0
100
AcDbLine
 62
7
  6
CONTINUOUS
 10
384.432
 20
674.8865535647
 11
384.432
 21
679.9665535647
  0
LINE
  5
541
100
AcDbEntity
  8
0
100
AcDbLine
 62
7
  6
CONTINUOUS
 10
386.793
 20
679.9665535647
 11
386.793
 21
674.8865535647
  0
LINE
  5
542
100
AcDbEntity
  8
0
100
AcDbLine
 62
7
  6
CONTINUOUS
 10
386.793
 20
672.5255535647
 11
386.793
 21
667.4455535647
  0
LINE
  5
543
100
AcDbEntity
  8
0
100
AcDbLine
 62
7
  6
CONTINUOUS
 10
386.793
 20
665.0845535647
 11
386.793
 21
660.0045535647
  0
LINE
  5
544
100
AcDbEntity
  8
0
100
AcDbLine
 62
7
  6
CONTINUOUS
 10
386.793
 20
657.6435535647
 11
386.793
 21
652.5635535647
  0
LINE
  5
545
100
AcDbEntity
  8
0
100
AcDbLine
 62
7
  6
CONTINUOUS
 10
386.793
 20
650.2025535647
 11
386.793
 21
645.1225535647
  0
LINE
  5
546
100
AcDbEntity
  8
0
100
AcDbLine
 62
7
  6
CONTINUOUS
 10
391.873
 20
645.1225535647
 11
391.873
 21
650.2025535647
  0
LINE
  5
547
100
AcDbEntity
  8
0
100
AcDbLine
 62
7
  6
CONTINUOUS
 10
391.873
 20
652.5635535647
 11
391.873
 21
657.6435535647
  0
LINE
  5
548
100
AcDbEntity
  8
0
100
AcDbLine
 62
7
  6
CONTINUOUS
 10
391.873
 20
660.0045535647
 11
391.873
 21
665.0845535647
  0
LINE
  5
549
100
AcDbEntity
  8
0
100
AcDbLine
 62
7
  6
CONTINUOUS
 10
391.873
 20
667.4455535647
 11
391.873
 21
672.5255535647
  0
LINE
  5
54A
100
AcDbEntity
  8
0
100
AcDbLine
 62
7
  6
CONTINUOUS
 10
391.873
 20
674.8865535647
 11
391.873
 21
679.9665535647
  0
LINE
  5
54B
100
AcDbEntity
  8
0
100
AcDbLine
 62
7
  6
CONTINUOUS
 10
393.407
 20
183.9154464353
 11
393.407
 21
178.8354464353
  0
LINE
  5
54C
100
AcDbEntity
  8
0
100
AcDbLine
 62
7
  6
CONTINUOUS
 10
393.407
 20
176.4754464353
 11
393.407
 21
171.3954464353
  0
LINE
  5
54D
100
AcDbEntity
  8
0
100
AcDbLine
 62
7
  6
CONTINUOUS
 10
393.407
 20
169.0354464353
 11
393.407
 21
163.9554464353
  0
LINE
  5
54E
100
AcDbEntity
  8
0
100
AcDbLine
 62
7
  6
CONTINUOUS
 10
394.234
 20
679.9665535647
 11
394.234
 21
674.8865535647
  0
LINE
  5
54F
100
AcDbEntity
  8
0
100
AcDbLine
 62
7
  6
CONTINUOUS
 10
394.234
 20
672.5255535647
 11
394.234
 21
667.4455535647
  0
LINE
  5
550
100
AcDbEntity
  8
0
100
AcDbLine
 62
7
  6
CONTINUOUS
 10
394.234
 20
665.0845535647
 11
394.234
 21
660.0045535647
  0
LINE
  5
551
100
AcDbEntity
  8
0
100
AcDbLine
 62
7
  6
CONTINUOUS
 10
394.234
 20
657.6435535647
 11
394.234
 21
652.5635535647
  0
LINE
  5
552
100
AcDbEntity
  8
0
100
AcDbLine
 62
7
  6
CONTINUOUS
 10
394.234
 20
650.2025535647
 11
394.234
 21
645.1225535647
  0
LINE
  5
553
100
AcDbEntity
  8
0
100
AcDbLine
 62
7
  6
CONTINUOUS
 10
398.487
 20
163.9554464353
 11
398.487
 21
169.0354464353
  0
LINE
  5
554
100
AcDbEntity
  8
0
100
AcDbLine
 62
7
  6
CONTINUOUS
 10
398.487
 20
171.3954464353
 11
398.487
 21
176.4754464353
  0
LINE
  5
555
100
AcDbEntity
  8
0
100
AcDbLine
 62
7
  6
CONTINUOUS
 10
398.487
 20
178.8354464353
 11
398.487
 21
183.9154464353
  0
LINE
  5
556
100
AcDbEntity
  8
0
100
AcDbLine
 62
7
  6
CONTINUOUS
 10
399.314
 20
645.1225535647
 11
399.314
 21
650.2025535647
  0
LINE
  5
557
100
AcDbEntity
  8
0
100
AcDbLine
 62
7
  6
CONTINUOUS
 10
399.314
 20
652.5635535647
 11
399.314
 21
657.6435535647
  0
LINE
  5
558
100
AcDbEntity
  8
0
100
AcDbLine
 62
7
  6
CONTINUOUS
 10
399.314
 20
660.0045535647
 11
399.314
 21
665.0845535647
  0
LINE
  5
559
100
AcDbEntity
  8
0
100
AcDbLine
 62
7
  6
CONTINUOUS
 10
399.314
 20
667.4455535647
 11
399.314
 21
672.5255535647
  0
LINE
  5
55A
100
AcDbEntity
  8
0
100
AcDbLine
 62
7
  6
CONTINUOUS
 10
399.314
 20
674.8865535647
 11
399.314
 21
679.9665535647
  0
LINE
  5
55B
100
AcDbEntity
  8
0
100
AcDbLine
 62
7
  6
CONTINUOUS
 10
400.847
 20
191.3554464353
 11
400.847
 21
186.2754464353
  0
LINE
  5
55C
100
AcDbEntity
  8
0
100
AcDbLine
 62
7
  6
CONTINUOUS
 10
400.847
 20
183.9154464353
 11
400.847
 21
178.8354464353
  0
LINE
  5
55D
100
AcDbEntity
  8
0
100
AcDbLine
 62
7
  6
CONTINUOUS
 10
400.847
 20
176.4754464353
 11
400.847
 21
171.3954464353
  0
LINE
  5
55E
100
AcDbEntity
  8
0
100
AcDbLine
 62
7
  6
CONTINUOUS
 10
400.847
 20
169.0354464353
 11
400.847
 21
163.9554464353
  0
LINE
  5
55F
100
AcDbEntity
  8
0
100
AcDbLine
 62
7
  6
CONTINUOUS
 10
400.847
 20
161.5954464353
 11
400.847
 21
156.5154464353
  0
LINE
  5
560
100
AcDbEntity
  8
0
100
AcDbLine
 62
7
  6
CONTINUOUS
 10
401.675
 20
679.9665535647
 11
401.675
 21
674.8865535647
  0
LINE
  5
561
100
AcDbEntity
  8
0
100
AcDbLine
 62
7
  6
CONTINUOUS
 10
401.675
 20
672.5255535647
 11
401.675
 21
667.4455535647
  0
LINE
  5
562
100
AcDbEntity
  8
0
100
AcDbLine
 62
7
  6
CONTINUOUS
 10
401.675
 20
665.0845535647
 11
401.675
 21
660.0045535647
  0
LINE
  5
563
100
AcDbEntity
  8
0
100
AcDbLine
 62
7
  6
CONTINUOUS
 10
401.675
 20
657.6435535647
 11
401.675
 21
652.5635535647
  0
LINE
  5
564
100
AcDbEntity
  8
0
100
AcDbLine
 62
7
  6
CONTINUOUS
 10
401.675
 20
650.2025535647
 11
401.675
 21
645.1225535647
  0
LINE
  5
565
100
AcDbEntity
  8
0
100
AcDbLine
 62
7
  6
CONTINUOUS
 10
405.927
 20
156.5154464353
 11
405.927
 21
161.5954464353
  0
LINE
  5
566
100
AcDbEntity
  8
0
100
AcDbLine
 62
7
  6
CONTINUOUS
 10
405.927
 20
163.9554464353
 11
405.927
 21
169.0354464353
  0
LINE
  5
567
100
AcDbEntity
  8
0
100
AcDbLine
 62
7
  6
CONTINUOUS
 10
405.927
 20
171.3954464353
 11
405.927
 21
176.4754464353
  0
LINE
  5
568
100
AcDbEntity
  8
0
100
AcDbLine
 62
7
  6
CONTINUOUS
 10
405.927
 20
178.8354464353
 11
405.927
 21
183.9154464353
  0
LINE
  5
569
100
AcDbEntity
  8
0
100
AcDbLine
 62
7
  6
CONTINUOUS
 10
405.927
 20
186.2754464353
 11
405.927
 21
191.3554464353
  0
LINE
  5
56A
100
AcDbEntity
  8
0
100
AcDbLine
 62
7
  6
CONTINUOUS
 10
406.755
 20
645.1225535647
 11
406.755
 21
650.2025535647
  0
LINE
  5
56B
100
AcDbEntity
  8
0
100
AcDbLine
 62
7
  6
CONTINUOUS
 10
406.755
 20
652.5635535647
 11
406.755
 21
657.6435535647
  0
LINE
  5
56C
100
AcDbEntity
  8
0
100
AcDbLine
 62
7
  6
CONTINUOUS
 10
406.755
 20
660.0045535647
 11
406.755
 21
665.0845535647
  0
LINE
  5
56D
100
AcDbEntity
  8
0
100
AcDbLine
 62
7
  6
CONTINUOUS
 10
406.755
 20
667.4455535647
 11
406.755
 21
672.5255535647
  0
LINE
  5
56E
100
AcDbEntity
  8
0
100
AcDbLine
 62
7
  6
CONTINUOUS
 10
406.755
 20
674.8865535647
 11
406.755
 21
679.9665535647
  0
LINE
  5
56F
100
AcDbEntity
  8
0
100
AcDbLine
 62
7
  6
CONTINUOUS
 10
408.287
 20
191.3554464353
 11
408.287
 21
186.2754464353
  0
LINE
  5
570
100
AcDbEntity
  8
0
100
AcDbLine
 62
7
  6
CONTINUOUS
 10
408.287
 20
183.9154464353
 11
408.287
 21
178.8354464353
  0
LINE
  5
571
100
AcDbEntity
  8
0
100
AcDbLine
 62
7
  6
CONTINUOUS
 10
408.287
 20
176.4754464353
 11
408.287
 21
171.3954464353
  0
LINE
  5
572
100
AcDbEntity
  8
0
100
AcDbLine
 62
7
  6
CONTINUOUS
 10
408.287
 20
169.0354464353
 11
408.287
 21
163.9554464353
  0
LINE
  5
573
100
AcDbEntity
  8
0
100
AcDbLine
 62
7
  6
CONTINUOUS
 10
408.287
 20
161.5954464353
 11
408.287
 21
156.5154464353
  0
LINE
  5
574
100
AcDbEntity
  8
0
100
AcDbLine
 62
7
  6
CONTINUOUS
 10
409.116
 20
645.1225535647
 11
409.116
 21
650.2025535647
  0
LINE
  5
575
100
AcDbEntity
  8
0
100
AcDbLine
 62
7
  6
CONTINUOUS
 10
409.116
 20
652.5635535647
 11
409.116
 21
657.6435535647
  0
LINE
  5
576
100
AcDbEntity
  8
0
100
AcDbLine
 62
7
  6
CONTINUOUS
 10
409.116
 20
660.0045535647
 11
409.116
 21
665.0845535647
  0
LINE
  5
577
100
AcDbEntity
  8
0
100
AcDbLine
 62
7
  6
CONTINUOUS
 10
409.116
 20
667.4455535647
 11
409.116
 21
672.5255535647
  0
LINE
  5
578
100
AcDbEntity
  8
0
100
AcDbLine
 62
7
  6
CONTINUOUS
 10
409.116
 20
674.8865535647
 11
409.116
 21
679.9665535647
  0
LINE
  5
579
100
AcDbEntity
  8
0
100
AcDbLine
 62
7
  6
CONTINUOUS
 10
413.367
 20
156.5154464353
 11
413.367
 21
161.5954464353
  0
LINE
  5
57A
100
AcDbEntity
  8
0
100
AcDbLine
 62
7
  6
CONTINUOUS
 10
413.367
 20
163.9554464353
 11
413.367
 21
169.0354464353
  0
LINE
  5
57B
100
AcDbEntity
  8
0
100
AcDbLine
 62
7
  6
CONTINUOUS
 10
413.367
 20
171.3954464353
 11
413.367
 21
176.4754464353
  0
LINE
  5
57C
100
AcDbEntity
  8
0
100
AcDbLine
 62
7
  6
CONTINUOUS
 10
413.367
 20
178.8354464353
 11
413.367
 21
183.9154464353
  0
LINE
  5
57D
100
AcDbEntity
  8
0
100
AcDbLine
 62
7
  6
CONTINUOUS
 10
413.367
 20
186.2754464353
 11
413.367
 21
191.3554464353
  0
LINE
  5
57E
100
AcDbEntity
  8
0
100
AcDbLine
 62
7
  6
CONTINUOUS
 10
414.196
 20
645.1225535647
 11
414.196
 21
650.2025535647
  0
LINE
  5
57F
100
AcDbEntity
  8
0
100
AcDbLine
 62
7
  6
CONTINUOUS
 10
414.196
 20
652.5635535647
 11
414.196
 21
657.6435535647
  0
LINE
  5
580
100
AcDbEntity
  8
0
100
AcDbLine
 62
7
  6
CONTINUOUS
 10
414.196
 20
660.0045535647
 11
414.196
 21
665.0845535647
  0
LINE
  5
581
100
AcDbEntity
  8
0
100
AcDbLine
 62
7
  6
CONTINUOUS
 10
414.196
 20
667.4455535647
 11
414.196
 21
672.5255535647
  0
LINE
  5
582
100
AcDbEntity
  8
0
100
AcDbLine
 62
7
  6
CONTINUOUS
 10
414.196
 20
674.8865535647
 11
414.196
 21
679.9665535647
  0
LINE
  5
583
100
AcDbEntity
  8
0
100
AcDbLine
 62
7
  6
CONTINUOUS
 10
415.727
 20
191.3554464353
 11
415.727
 21
186.2754464353
  0
LINE
  5
584
100
AcDbEntity
  8
0
100
AcDbLine
 62
7
  6
CONTINUOUS
 10
415.727
 20
183.9154464353
 11
415.727
 21
178.8354464353
  0
LINE
  5
585
100
AcDbEntity
  8
0
100
AcDbLine
 62
7
  6
CONTINUOUS
 10
415.727
 20
176.4754464353
 11
415.727
 21
171.3954464353
  0
LINE
  5
586
100
AcDbEntity
  8
0
100
AcDbLine
 62
7
  6
CONTINUOUS
 10
415.727
 20
169.0354464353
 11
415.727
 21
163.9554464353
  0
LINE
  5
587
100
AcDbEntity
  8
0
100
AcDbLine
 62
7
  6
CONTINUOUS
 10
415.727
 20
161.5954464353
 11
415.727
 21
156.5154464353
  0
LINE
  5
588
100
AcDbEntity
  8
0
100
AcDbLine
 62
7
  6
CONTINUOUS
 10
420.733
 20
671.9905535647
 11
420.733
 21
657.9905535647
  0
LINE
  5
589
100
AcDbEntity
  8
0
100
AcDbLine
 62
7
  6
CONTINUOUS
 10
420.807
 20
156.5154464353
 11
420.807
 21
161.5954464353
  0
LINE
  5
58A
100
AcDbEntity
  8
0
100
AcDbLine
 62
7
  6
CONTINUOUS
 10
420.807
 20
163.9554464353
 11
420.807
 21
169.0354464353
  0
LINE
  5
58B
100
AcDbEntity
  8
0
100
AcDbLine
 62
7
  6
CONTINUOUS
 10
420.807
 20
171.3954464353
 11
420.807
 21
176.4754464353
  0
LINE
  5
58C
100
AcDbEntity
  8
0
100
AcDbLine
 62
7
  6
CONTINUOUS
 10
420.807
 20
178.8354464353
 11
420.807
 21
183.9154464353
  0
LINE
  5
58D
100
AcDbEntity
  8
0
100
AcDbLine
 62
7
  6
CONTINUOUS
 10
420.807
 20
186.2754464353
 11
420.807
 21
191.3554464353
  0
LINE
  5
58E
100
AcDbEntity
  8
0
100
AcDbLine
 62
7
  6
CONTINUOUS
 10
423.167
 20
183.9154464353
 11
423.167
 21
178.8354464353
  0
LINE
  5
58F
100
AcDbEntity
  8
0
100
AcDbLine
 62
7
  6
CONTINUOUS
 10
423.167
 20
176.4754464353
 11
423.167
 21
171.3954464353
  0
LINE
  5
590
100
AcDbEntity
  8
0
100
AcDbLine
 62
7
  6
CONTINUOUS
 10
423.167
 20
169.0354464353
 11
423.167
 21
163.9554464353
  0
LINE
  5
591
100
AcDbEntity
  8
0
100
AcDbLine
 62
7
  6
CONTINUOUS
 10
428.247
 20
163.9554464353
 11
428.247
 21
169.0354464353
  0
LINE
  5
592
100
AcDbEntity
  8
0
100
AcDbLine
 62
7
  6
CONTINUOUS
 10
428.247
 20
171.3954464353
 11
428.247
 21
176.4754464353
  0
LINE
  5
593
100
AcDbEntity
  8
0
100
AcDbLine
 62
7
  6
CONTINUOUS
 10
428.247
 20
178.8354464353
 11
428.247
 21
183.9154464353
  0
LINE
  5
594
100
AcDbEntity
  8
0
100
AcDbLine
 62
7
  6
CONTINUOUS
 10
442.228
 20
190.8914464353
 11
442.228
 21
189.6714062745
  0
LINE
  5
595
100
AcDbEntity
  8
0
100
AcDbLine
 62
7
  6
CONTINUOUS
 10
444.428
 20
189.6714062745
 11
444.428
 21
190.8914464353
  0
LINE
  5
596
100
AcDbEntity
  8
AXES
100
AcDbLine
 62
7
  6
CONTINUOUS
 10
375.902
 20
192.7800464353
 11
376.6894
 21
195.0924
  0
LINE
  5
597
100
AcDbEntity
  8
AXES
100
AcDbLine
 62
7
  6
CONTINUOUS
 10
802.2789535647
 20
641.157
 11
799.9666
 21
640.3696
  0
LINE
  5
598
100
AcDbEntity
  8
AXES
100
AcDbLine
 62
7
  6
CONTINUOUS
 10
802.2789535647
 20
194.305
 11
799.9666
 21
195.0924
  0
LINE
  5
599
100
AcDbEntity
  8
AXES
100
AcDbLine
 62
7
  6
CONTINUOUS
 10
375.902
 20
642.6819535647
 11
376.6894
 21
640.3696
  0
LINE
  5
59A
100
AcDbEntity
  8
0
100
AcDbLine
 62
7
  6
CONTINUOUS
 10
467.228
 20
190.8914464353
 11
467.228
 21
189.6714062745
  0
LINE
  5
59B
100
AcDbEntity
  8
0
100
AcDbLine
 62
7
  6
CONTINUOUS
 10
469.428
 20
189.6714062745
 11
469.428
 21
190.8914464353
  0
LINE
  5
59C
100
AcDbEntity
  8
0
100
AcDbLine
 62
7
  6
CONTINUOUS
 10
505.25812934
 20
657.9905535647
 11
505.25812934
 21
671.9905535647
  0
LINE
  5
59D
100
AcDbEntity
  8
0
100
AcDbLine
 62
7
  6
CONTINUOUS
 10
514.203
 20
671.9905535647
 11
514.203
 21
657.9905535647
  0
LINE
  5
59E
100
AcDbEntity
  8
0
100
AcDbLine
 62
7
  6
CONTINUOUS
 10
598.733
 20
657.9905535647
 11
598.733
 21
671.9905535647
  0
LINE
  5
59F
100
AcDbEntity
  8
0
100
AcDbLine
 62
7
  6
CONTINUOUS
 10
606.93679934
 20
662.9198879647
 11
606.93679934
 21
648.4198879647
  0
LINE
  5
5A0
100
AcDbEntity
  8
0
100
AcDbLine
 62
7
  6
CONTINUOUS
 10
609.407
 20
183.9154464353
 11
609.407
 21
178.8354464353
  0
LINE
  5
5A1
100
AcDbEntity
  8
0
100
AcDbLine
 62
7
  6
CONTINUOUS
 10
609.407
 20
176.4754464353
 11
609.407
 21
171.3954464353
  0
LINE
  5
5A2
100
AcDbEntity
  8
0
100
AcDbLine
 62
7
  6
CONTINUOUS
 10
609.407
 20
169.0354464353
 11
609.407
 21
163.9554464353
  0
LINE
  5
5A3
100
AcDbEntity
  8
0
100
AcDbLine
 62
7
  6
CONTINUOUS
 10
614.487
 20
163.9554464353
 11
614.487
 21
169.0354464353
  0
LINE
  5
5A4
100
AcDbEntity
  8
0
100
AcDbLine
 62
7
  6
CONTINUOUS
 10
614.487
 20
171.3954464353
 11
614.487
 21
176.4754464353
  0
LINE
  5
5A5
100
AcDbEntity
  8
0
100
AcDbLine
 62
7
  6
CONTINUOUS
 10
614.487
 20
178.8354464353
 11
614.487
 21
183.9154464353
  0
LINE
  5
5A6
100
AcDbEntity
  8
0
100
AcDbLine
 62
7
  6
CONTINUOUS
 10
616.847
 20
191.3554464353
 11
616.847
 21
186.2754464353
  0
LINE
  5
5A7
100
AcDbEntity
  8
0
100
AcDbLine
 62
7
  6
CONTINUOUS
 10
616.847
 20
183.9154464353
 11
616.847
 21
178.8354464353
  0
LINE
  5
5A8
100
AcDbEntity
  8
0
100
AcDbLine
 62
7
  6
CONTINUOUS
 10
616.847
 20
176.4754464353
 11
616.847
 21
171.3954464353
  0
LINE
  5
5A9
100
AcDbEntity
  8
0
100
AcDbLine
 62
7
  6
CONTINUOUS
 10
616.847
 20
169.0354464353
 11
616.847
 21
163.9554464353
  0
LINE
  5
5AA
100
AcDbEntity
  8
0
100
AcDbLine
 62
7
  6
CONTINUOUS
 10
616.847
 20
161.5954464353
 11
616.847
 21
156.5154464353
  0
LINE
  5
5AB
100
AcDbEntity
  8
0
100
AcDbLine
 62
7
  6
CONTINUOUS
 10
621.927
 20
156.5154464353
 11
621.927
 21
161.5954464353
  0
LINE
  5
5AC
100
AcDbEntity
  8
0
100
AcDbLine
 62
7
  6
CONTINUOUS
 10
621.927
 20
163.9554464353
 11
621.927
 21
169.0354464353
  0
LINE
  5
5AD
100
AcDbEntity
  8
0
100
AcDbLine
 62
7
  6
CONTINUOUS
 10
621.927
 20
171.3954464353
 11
621.927
 21
176.4754464353
  0
LINE
  5
5AE
100
AcDbEntity
  8
0
100
AcDbLine
 62
7
  6
CONTINUOUS
 10
621.927
 20
178.8354464353
 11
621.927
 21
183.9154464353
  0
LINE
  5
5AF
100
AcDbEntity
  8
0
100
AcDbLine
 62
7
  6
CONTINUOUS
 10
621.927
 20
186.2754464353
 11
621.927
 21
191.3554464353
  0
LINE
  5
5B0
100
AcDbEntity
  8
0
100
AcDbLine
 62
7
  6
CONTINUOUS
 10
623.81179934
 20
648.4198879647
 11
623.81179934
 21
662.9198879647
  0
LINE
  5
5B1
100
AcDbEntity
  8
0
100
AcDbLine
 62
7
  6
CONTINUOUS
 10
624.287
 20
191.3554464353
 11
624.287
 21
186.2754464353
  0
LINE
  5
5B2
100
AcDbEntity
  8
0
100
AcDbLine
 62
7
  6
CONTINUOUS
 10
624.287
 20
183.9154464353
 11
624.287
 21
178.8354464353
  0
LINE
  5
5B3
100
AcDbEntity
  8
0
100
AcDbLine
 62
7
  6
CONTINUOUS
 10
624.287
 20
176.4754464353
 11
624.287
 21
171.3954464353
  0
LINE
  5
5B4
100
AcDbEntity
  8
0
100
AcDbLine
 62
7
  6
CONTINUOUS
 10
624.287
 20
169.0354464353
 11
624.287
 21
163.9554464353
  0
LINE
  5
5B5
100
AcDbEntity
  8
0
100
AcDbLine
 62
7
  6
CONTINUOUS
 10
624.287
 20
161.5954464353
 11
624.287
 21
156.5154464353
  0
LINE
  5
5B6
100
AcDbEntity
  8
0
100
AcDbLine
 62
7
  6
CONTINUOUS
 10
629.367
 20
156.5154464353
 11
629.367
 21
161.5954464353
  0
LINE
  5
5B7
100
AcDbEntity
  8
0
100
AcDbLine
 62
7
  6
CONTINUOUS
 10
629.367
 20
163.9554464353
 11
629.367
 21
169.0354464353
  0
LINE
  5
5B8
100
AcDbEntity
  8
0
100
AcDbLine
 62
7
  6
CONTINUOUS
 10
629.367
 20
171.3954464353
 11
629.367
 21
176.4754464353
  0
LINE
  5
5B9
100
AcDbEntity
  8
0
100
AcDbLine
 62
7
  6
CONTINUOUS
 10
629.367
 20
178.8354464353
 11
629.367
 21
183.9154464353
  0
LINE
  5
5BA
100
AcDbEntity
  8
0
100
AcDbLine
 62
7
  6
CONTINUOUS
 10
629.367
 20
186.2754464353
 11
629.367
 21
191.3554464353
  0
LINE
  5
5BB
100
AcDbEntity
  8
0
100
AcDbLine
 62
7
  6
CONTINUOUS
 10
629.99999934
 20
662.9198879647
 11
629.99999934
 21
648.4198879647
  0
LINE
  5
5BC
100
AcDbEntity
  8
0
100
AcDbLine
 62
7
  6
CONTINUOUS
 10
631.727
 20
191.3554464353
 11
631.727
 21
186.2754464353
  0
LINE
  5
5BD
100
AcDbEntity
  8
0
100
AcDbLine
 62
7
  6
CONTINUOUS
 10
631.727
 20
183.9154464353
 11
631.727
 21
178.8354464353
  0
LINE
  5
5BE
100
AcDbEntity
  8
0
100
AcDbLine
 62
7
  6
CONTINUOUS
 10
631.727
 20
176.4754464353
 11
631.727
 21
171.3954464353
  0
LINE
  5
5BF
100
AcDbEntity
  8
0
100
AcDbLine
 62
7
  6
CONTINUOUS
 10
631.727
 20
169.0354464353
 11
631.727
 21
163.9554464353
  0
LINE
  5
5C0
100
AcDbEntity
  8
0
100
AcDbLine
 62
7
  6
CONTINUOUS
 10
631.727
 20
161.5954464353
 11
631.727
 21
156.5154464353
  0
LINE
  5
5C1
100
AcDbEntity
  8
0
100
AcDbLine
 62
7
  6
CONTINUOUS
 10
636.807
 20
156.5154464353
 11
636.807
 21
161.5954464353
  0
LINE
  5
5C2
100
AcDbEntity
  8
0
100
AcDbLine
 62
7
  6
CONTINUOUS
 10
636.807
 20
163.9554464353
 11
636.807
 21
169.0354464353
  0
LINE
  5
5C3
100
AcDbEntity
  8
0
100
AcDbLine
 62
7
  6
CONTINUOUS
 10
636.807
 20
171.3954464353
 11
636.807
 21
176.4754464353
  0
LINE
  5
5C4
100
AcDbEntity
  8
0
100
AcDbLine
 62
7
  6
CONTINUOUS
 10
636.807
 20
178.8354464353
 11
636.807
 21
183.9154464353
  0
LINE
  5
5C5
100
AcDbEntity
  8
0
100
AcDbLine
 62
7
  6
CONTINUOUS
 10
636.807
 20
186.2754464353
 11
636.807
 21
191.3554464353
  0
LINE
  5
5C6
100
AcDbEntity
  8
0
100
AcDbLine
 62
7
  6
CONTINUOUS
 10
639.167
 20
183.9154464353
 11
639.167
 21
178.8354464353
  0
LINE
  5
5C7
100
AcDbEntity
  8
0
100
AcDbLine
 62
7
  6
CONTINUOUS
 10
639.167
 20
176.4754464353
 11
639.167
 21
171.3954464353
  0
LINE
  5
5C8
100
AcDbEntity
  8
0
100
AcDbLine
 62
7
  6
CONTINUOUS
 10
639.167
 20
169.0354464353
 11
639.167
 21
163.9554464353
  0
LINE
  5
5C9
100
AcDbEntity
  8
0
100
AcDbLine
 62
7
  6
CONTINUOUS
 10
644.247
 20
163.9554464353
 11
644.247
 21
169.0354464353
  0
LINE
  5
5CA
100
AcDbEntity
  8
0
100
AcDbLine
 62
7
  6
CONTINUOUS
 10
644.247
 20
171.3954464353
 11
644.247
 21
176.4754464353
  0
LINE
  5
5CB
100
AcDbEntity
  8
0
100
AcDbLine
 62
7
  6
CONTINUOUS
 10
644.247
 20
178.8354464353
 11
644.247
 21
183.9154464353
  0
LINE
  5
5CC
100
AcDbEntity
  8
0
100
AcDbLine
 62
7
  6
CONTINUOUS
 10
646.87499934
 20
648.4198879647
 11
646.87499934
 21
662.9198879647
  0
LINE
  5
5CD
100
AcDbEntity
  8
0
100
AcDbLine
 62
7
  6
CONTINUOUS
 10
651.41539922
 20
663.6198889647
 11
651.41539922
 21
649.4198889647
  0
LINE
  5
5CE
100
AcDbEntity
  8
0
100
AcDbLine
 62
7
  6
CONTINUOUS
 10
654.407
 20
183.9154464353
 11
654.407
 21
178.8354464353
  0
LINE
  5
5CF
100
AcDbEntity
  8
0
100
AcDbLine
 62
7
  6
CONTINUOUS
 10
654.407
 20
176.4754464353
 11
654.407
 21
171.3954464353
  0
LINE
  5
5D0
100
AcDbEntity
  8
0
100
AcDbLine
 62
7
  6
CONTINUOUS
 10
654.407
 20
169.0354464353
 11
654.407
 21
163.9554464353
  0
LINE
  5
5D1
100
AcDbEntity
  8
0
100
AcDbLine
 62
7
  6
CONTINUOUS
 10
658.01539922
 20
649.4198889647
 11
658.01539922
 21
663.6198889647
  0
LINE
  5
5D2
100
AcDbEntity
  8
0
100
AcDbLine
 62
7
  6
CONTINUOUS
 10
659.487
 20
163.9554464353
 11
659.487
 21
169.0354464353
  0
LINE
  5
5D3
100
AcDbEntity
  8
0
100
AcDbLine
 62
7
  6
CONTINUOUS
 10
659.487
 20
171.3954464353
 11
659.487
 21
176.4754464353
  0
LINE
  5
5D4
100
AcDbEntity
  8
0
100
AcDbLine
 62
7
  6
CONTINUOUS
 10
659.487
 20
178.8354464353
 11
659.487
 21
183.9154464353
  0
LINE
  5
5D5
100
AcDbEntity
  8
0
100
AcDbLine
 62
7
  6
CONTINUOUS
 10
661.847
 20
191.3554464353
 11
661.847
 21
186.2754464353
  0
LINE
  5
5D6
100
AcDbEntity
  8
0
100
AcDbLine
 62
7
  6
CONTINUOUS
 10
661.847
 20
183.9154464353
 11
661.847
 21
178.8354464353
  0
LINE
  5
5D7
100
AcDbEntity
  8
0
100
AcDbLine
 62
7
  6
CONTINUOUS
 10
661.847
 20
176.4754464353
 11
661.847
 21
171.3954464353
  0
LINE
  5
5D8
100
AcDbEntity
  8
0
100
AcDbLine
 62
7
  6
CONTINUOUS
 10
661.847
 20
169.0354464353
 11
661.847
 21
163.9554464353
  0
LINE
  5
5D9
100
AcDbEntity
  8
0
100
AcDbLine
 62
7
  6
CONTINUOUS
 10
661.847
 20
161.5954464353
 11
661.847
 21
156.5154464353
  0
LINE
  5
5DA
100
AcDbEntity
  8
0
100
AcDbLine
 62
7
  6
CONTINUOUS
 10
662.36356192
 20
659.9823889647
 11
662.36356192
 21
648.8823889647
  0
LINE
  5
5DB
100
AcDbEntity
  8
0
100
AcDbLine
 62
7
  6
CONTINUOUS
 10
666.927
 20
156.5154464353
 11
666.927
 21
161.5954464353
  0
LINE
  5
5DC
100
AcDbEntity
  8
0
100
AcDbLine
 62
7
  6
CONTINUOUS
 10
666.927
 20
163.9554464353
 11
666.927
 21
169.0354464353
  0
LINE
  5
5DD
100
AcDbEntity
  8
0
100
AcDbLine
 62
7
  6
CONTINUOUS
 10
666.927
 20
171.3954464353
 11
666.927
 21
176.4754464353
  0
LINE
  5
5DE
100
AcDbEntity
  8
0
100
AcDbLine
 62
7
  6
CONTINUOUS
 10
666.927
 20
178.8354464353
 11
666.927
 21
183.9154464353
  0
LINE
  5
5DF
100
AcDbEntity
  8
0
100
AcDbLine
 62
7
  6
CONTINUOUS
 10
666.927
 20
186.2754464353
 11
666.927
 21
191.3554464353
  0
LINE
  5
5E0
100
AcDbEntity
  8
0
100
AcDbLine
 62
7
  6
CONTINUOUS
 10
669.287
 20
191.3554464353
 11
669.287
 21
186.2754464353
  0
LINE
  5
5E1
100
AcDbEntity
  8
0
100
AcDbLine
 62
7
  6
CONTINUOUS
 10
669.287
 20
183.9154464353
 11
669.287
 21
178.8354464353
  0
LINE
  5
5E2
100
AcDbEntity
  8
0
100
AcDbLine
 62
7
  6
CONTINUOUS
 10
669.287
 20
176.4754464353
 11
669.287
 21
171.3954464353
  0
LINE
  5
5E3
100
AcDbEntity
  8
0
100
AcDbLine
 62
7
  6
CONTINUOUS
 10
669.287
 20
169.0354464353
 11
669.287
 21
163.9554464353
  0
LINE
  5
5E4
100
AcDbEntity
  8
0
100
AcDbLine
 62
7
  6
CONTINUOUS
 10
669.287
 20
161.5954464353
 11
669.287
 21
156.5154464353
  0
LINE
  5
5E5
100
AcDbEntity
  8
0
100
AcDbLine
 62
7
  6
CONTINUOUS
 10
674.367
 20
156.5154464353
 11
674.367
 21
161.5954464353
  0
LINE
  5
5E6
100
AcDbEntity
  8
0
100
AcDbLine
 62
7
  6
CONTINUOUS
 10
674.367
 20
163.9554464353
 11
674.367
 21
169.0354464353
  0
LINE
  5
5E7
100
AcDbEntity
  8
0
100
AcDbLine
 62
7
  6
CONTINUOUS
 10
674.367
 20
171.3954464353
 11
674.367
 21
176.4754464353
  0
LINE
  5
5E8
100
AcDbEntity
  8
0
100
AcDbLine
 62
7
  6
CONTINUOUS
 10
674.367
 20
178.8354464353
 11
674.367
 21
183.9154464353
  0
LINE
  5
5E9
100
AcDbEntity
  8
0
100
AcDbLine
 62
7
  6
CONTINUOUS
 10
674.367
 20
186.2754464353
 11
674.367
 21
191.3554464353
  0
LINE
  5
5EA
100
AcDbEntity
  8
0
100
AcDbLine
 62
7
  6
CONTINUOUS
 10
674.61356192
 20
648.8823889647
 11
674.61356192
 21
659.9823889647
  0
LINE
  5
5EB
100
AcDbEntity
  8
0
100
AcDbLine
 62
7
  6
CONTINUOUS
 10
676.727
 20
191.3554464353
 11
676.727
 21
186.2754464353
  0
LINE
  5
5EC
100
AcDbEntity
  8
0
100
AcDbLine
 62
7
  6
CONTINUOUS
 10
676.727
 20
183.9154464353
 11
676.727
 21
178.8354464353
  0
LINE
  5
5ED
100
AcDbEntity
  8
0
100
AcDbLine
 62
7
  6
CONTINUOUS
 10
676.727
 20
176.4754464353
 11
676.727
 21
171.3954464353
  0
LINE
  5
5EE
100
AcDbEntity
  8
0
100
AcDbLine
 62
7
  6
CONTINUOUS
 10
676.727
 20
169.0354464353
 11
676.727
 21
163.9554464353
  0
LINE
  5
5EF
100
AcDbEntity
  8
0
100
AcDbLine
 62
7
  6
CONTINUOUS
 10
676.727
 20
161.5954464353
 11
676.727
 21
156.5154464353
  0
LINE
  5
5F0
100
AcDbEntity
  8
0
100
AcDbLine
 62
7
  6
CONTINUOUS
 10
681.807
 20
156.5154464353
 11
681.807
 21
161.5954464353
  0
LINE
  5
5F1
100
AcDbEntity
  8
0
100
AcDbLine
 62
7
  6
CONTINUOUS
 10
681.807
 20
163.9554464353
 11
681.807
 21
169.0354464353
  0
LINE
  5
5F2
100
AcDbEntity
  8
0
100
AcDbLine
 62
7
  6
CONTINUOUS
 10
681.807
 20
171.3954464353
 11
681.807
 21
176.4754464353
  0
LINE
  5
5F3
100
AcDbEntity
  8
0
100
AcDbLine
 62
7
  6
CONTINUOUS
 10
681.807
 20
178.8354464353
 11
681.807
 21
183.9154464353
  0
LINE
  5
5F4
100
AcDbEntity
  8
0
100
AcDbLine
 62
7
  6
CONTINUOUS
 10
681.807
 20
186.2754464353
 11
681.807
 21
191.3554464353
  0
LINE
  5
5F5
100
AcDbEntity
  8
0
100
AcDbLine
 62
7
  6
CONTINUOUS
 10
684.167
 20
183.9154464353
 11
684.167
 21
178.8354464353
  0
LINE
  5
5F6
100
AcDbEntity
  8
0
100
AcDbLine
 62
7
  6
CONTINUOUS
 10
684.167
 20
176.4754464353
 11
684.167
 21
171.3954464353
  0
LINE
  5
5F7
100
AcDbEntity
  8
0
100
AcDbLine
 62
7
  6
CONTINUOUS
 10
684.167
 20
169.0354464353
 11
684.167
 21
163.9554464353
  0
LINE
  5
5F8
100
AcDbEntity
  8
0
100
AcDbLine
 62
7
  6
CONTINUOUS
 10
689.247
 20
163.9554464353
 11
689.247
 21
169.0354464353
  0
LINE
  5
5F9
100
AcDbEntity
  8
0
100
AcDbLine
 62
7
  6
CONTINUOUS
 10
689.247
 20
171.3954464353
 11
689.247
 21
176.4754464353
  0
LINE
  5
5FA
100
AcDbEntity
  8
0
100
AcDbLine
 62
7
  6
CONTINUOUS
 10
689.247
 20
178.8354464353
 11
689.247
 21
183.9154464353
  0
LINE
  5
5FB
100
AcDbEntity
  8
AXES
100
AcDbLine
 62
7
  6
CONTINUOUS
 10
800.754
 20
642.6819535647
 11
799.9666
 21
640.3696
  0
LINE
  5
5FC
100
AcDbEntity
  8
AXES
100
AcDbLine
 62
7
  6
CONTINUOUS
 10
800.754
 20
192.7800464353
 11
799.9666
 21
195.0924
  0
LINE
  5
5FD
100
AcDbEntity
  8
AXES
100
AcDbLine
 62
7
  6
CONTINUOUS
 10
374.3770464353
 20
194.305
 11
376.6894
 21
195.0924
  0
LINE
  5
5FE
100
AcDbEntity
  8
AXES
100
AcDbLine
 62
7
  6
CONTINUOUS
 10
374.3770464353
 20
641.157
 11
376.6894
 21
640.3696
  0
LINE
  5
5FF
100
AcDbEntity
  8
AXES
100
AcDbLine
 62
7
  6
CONTINUOUS
 10
762.278
 20
670.4455535647
 11
762.278
 21
654.6455535647
  0
LINE
  5
600
100
AcDbEntity
  8
AXES
100
AcDbLine
 62
7
  6
CONTINUOUS
 10
790.578
 20
654.6455535647
 11
790.578
 21
670.4455535647
  0
LINE
  5
601
100
AcDbEntity
  8
0
100
AcDbLine
 62
7
  6
CONTINUOUS
 10
793.902
 20
143.2430846683
 11
793.902
 21
143.1406831827
  0
LINE
  5
602
100
AcDbEntity
  8
0
100
AcDbLine
 62
7
  6
CONTINUOUS
 10
793.902
 20
692.2189153317
 11
793.902
 21
692.3213168173
  0
LINE
  5
603
100
AcDbEntity
  8
0
100
AcDbLine
 62
7
  6
CONTINUOUS
 10
800.754
 20
192.7800464353
 11
800.754
 21
152.4020685867
  0
LINE
  5
604
100
AcDbEntity
  8
0
100
AcDbLine
 62
7
  6
CONTINUOUS
 10
800.754
 20
642.6819535647
 11
800.754
 21
683.0599314133
  0
LINE
  5
605
100
AcDbEntity
  8
AXES
100
AcDbLine
 62
7
  6
CENTER
 10
801.1227767824
 20
192.305
 11
801.1227767824
 21
643.157
  0
LINE
  5
606
100
AcDbEntity
  8
0
100
AcDbLine
 62
7
  6
CONTINUOUS
 10
324.8400846683
 20
634.305
 11
324.7376831827
 21
634.305
  0
LINE
  5
607
100
AcDbEntity
  8
0
100
AcDbLine
 62
7
  6
CONTINUOUS
 10
851.8159153317
 20
634.305
 11
851.9183168173
 21
634.305
  0
LINE
  5
608
100
AcDbEntity
  8
0
100
AcDbLine
 62
7
  6
CONTINUOUS
 10
374.3770464353
 20
641.157
 11
333.9990685867
 21
641.157
  0
LINE
  5
609
100
AcDbEntity
  8
0
100
AcDbLine
 62
7
  6
CONTINUOUS
 10
802.2789535647
 20
641.157
 11
842.6569314133
 21
641.157
  0
LINE
  5
60A
100
AcDbEntity
  8
AXES
100
AcDbLine
 62
7
  6
CENTER
 10
802.754
 20
641.5257767824
 11
373.902
 21
641.5257767824
  0
LINE
  5
60B
100
AcDbEntity
  8
0
100
AcDbLine
 62
7
  6
CONTINUOUS
 10
379.352
 20
645.1225535647
 11
384.432
 21
645.1225535647
  0
LINE
  5
60C
100
AcDbEntity
  8
0
100
AcDbLine
 62
7
  6
CONTINUOUS
 10
386.793
 20
645.1225535647
 11
391.873
 21
645.1225535647
  0
LINE
  5
60D
100
AcDbEntity
  8
0
100
AcDbLine
 62
7
  6
CONTINUOUS
 10
394.234
 20
645.1225535647
 11
399.314
 21
645.1225535647
  0
LINE
  5
60E
100
AcDbEntity
  8
0
100
AcDbLine
 62
7
  6
CONTINUOUS
 10
401.675
 20
645.1225535647
 11
406.755
 21
645.1225535647
  0
LINE
  5
60F
100
AcDbEntity
  8
0
100
AcDbLine
 62
7
  6
CONTINUOUS
 10
409.116
 20
645.1225535647
 11
414.196
 21
645.1225535647
  0
LINE
  5
610
100
AcDbEntity
  8
0
100
AcDbLine
 62
7
  6
CONTINUOUS
 10
606.93679934
 20
648.4198879647
 11
623.81179934
 21
648.4198879647
  0
LINE
  5
611
100
AcDbEntity
  8
0
100
AcDbLine
 62
7
  6
CONTINUOUS
 10
629.99999934
 20
648.4198879647
 11
646.87499934
 21
648.4198879647
  0
LINE
  5
612
100
AcDbEntity
  8
0
100
AcDbLine
 62
7
  6
CONTINUOUS
 10
662.36356192
 20
648.8823889647
 11
674.61356192
 21
648.8823889647
  0
LINE
  5
613
100
AcDbEntity
  8
0
100
AcDbLine
 62
7
  6
CONTINUOUS
 10
651.41539922
 20
649.4198889647
 11
658.01539922
 21
649.4198889647
  0
LINE
  5
614
100
AcDbEntity
  8
0
100
AcDbLine
 62
7
  6
CONTINUOUS
 10
414.196
 20
650.2025535647
 11
409.116
 21
650.2025535647
  0
LINE
  5
615
100
AcDbEntity
  8
0
100
AcDbLine
 62
7
  6
CONTINUOUS
 10
406.755
 20
650.2025535647
 11
401.675
 21
650.2025535647
  0
LINE
  5
616
100
AcDbEntity
  8
0
100
AcDbLine
 62
7
  6
CONTINUOUS
 10
399.314
 20
650.2025535647
 11
394.234
 21
650.2025535647
  0
LINE
  5
617
100
AcDbEntity
  8
0
100
AcDbLine
 62
7
  6
CONTINUOUS
 10
391.873
 20
650.2025535647
 11
386.793
 21
650.2025535647
  0
LINE
  5
618
100
AcDbEntity
  8
0
100
AcDbLine
 62
7
  6
CONTINUOUS
 10
384.432
 20
650.2025535647
 11
379.352
 21
650.2025535647
  0
LINE
  5
619
100
AcDbEntity
  8
AXES
100
AcDbLine
 62
7
  6
CONTINUOUS
 10
764.778
 20
652.1455535647
 11
788.078
 21
652.1455535647
  0
LINE
  5
61A
100
AcDbEntity
  8
0
100
AcDbLine
 62
7
  6
CONTINUOUS
 10
379.352
 20
652.5635535647
 11
384.432
 21
652.5635535647
  0
LINE
  5
61B
100
AcDbEntity
  8
0
100
AcDbLine
 62
7
  6
CONTINUOUS
 10
386.793
 20
652.5635535647
 11
391.873
 21
652.5635535647
  0
LINE
  5
61C
100
AcDbEntity
  8
0
100
AcDbLine
 62
7
  6
CONTINUOUS
 10
394.234
 20
652.5635535647
 11
399.314
 21
652.5635535647
  0
LINE
  5
61D
100
AcDbEntity
  8
0
100
AcDbLine
 62
7
  6
CONTINUOUS
 10
401.675
 20
652.5635535647
 11
406.755
 21
652.5635535647
  0
LINE
  5
61E
100
AcDbEntity
  8
0
100
AcDbLine
 62
7
  6
CONTINUOUS
 10
409.116
 20
652.5635535647
 11
414.196
 21
652.5635535647
  0
LINE
  5
61F
100
AcDbEntity
  8
0
100
AcDbLine
 62
7
  6
CONTINUOUS
 10
414.196
 20
657.6435535647
 11
409.116
 21
657.6435535647
  0
LINE
  5
620
100
AcDbEntity
  8
0
100
AcDbLine
 62
7
  6
CONTINUOUS
 10
406.755
 20
657.6435535647
 11
401.675
 21
657.6435535647
  0
LINE
  5
621
100
AcDbEntity
  8
0
100
AcDbLine
 62
7
  6
CONTINUOUS
 10
399.314
 20
657.6435535647
 11
394.234
 21
657.6435535647
  0
LINE
  5
622
100
AcDbEntity
  8
0
100
AcDbLine
 62
7
  6
CONTINUOUS
 10
391.873
 20
657.6435535647
 11
386.793
 21
657.6435535647
  0
LINE
  5
623
100
AcDbEntity
  8
0
100
AcDbLine
 62
7
  6
CONTINUOUS
 10
384.432
 20
657.6435535647
 11
379.352
 21
657.6435535647
  0
LINE
  5
624
100
AcDbEntity
  8
0
100
AcDbLine
 62
7
  6
CONTINUOUS
 10
420.733
 20
657.9905535647
 11
505.25812934
 21
657.9905535647
  0
LINE
  5
625
100
AcDbEntity
  8
0
100
AcDbLine
 62
7
  6
CONTINUOUS
 10
514.203
 20
657.9905535647
 11
598.733
 21
657.9905535647
  0
LINE
  5
626
100
AcDbEntity
  8
AXES
100
AcDbLine
 62
7
  6
CENTER
 10
843.3019884686
 20
192.305
 11
843.3019884686
 21
643.157
  0
LINE
  5
627
100
AcDbEntity
  8
AXES
100
AcDbLine
 62
7
  6
CENTER
 10
851.1708582763
 20
199.0203778486
 11
851.1708582763
 21
636.4416221514
  0
LINE
  5
628
100
AcDbEntity
  8
AXES
100
AcDbLine
 62
7
  6
CENTER
 10
852.5243821615
 20
636.305
 11
852.5243821615
 21
199.157
  0
LINE
  5
629
100
AcDbEntity
  8
0
100
AcDbLine
 62
7
  6
CONTINUOUS
 10
674.61356192
 20
659.9823889647
 11
662.36356192
 21
659.9823889647
  0
LINE
  5
62A
100
AcDbEntity
  8
0
100
AcDbLine
 62
7
  6
CONTINUOUS
 10
379.352
 20
660.0045535647
 11
384.432
 21
660.0045535647
  0
LINE
  5
62B
100
AcDbEntity
  8
0
100
AcDbLine
 62
7
  6
CONTINUOUS
 10
386.793
 20
660.0045535647
 11
391.873
 21
660.0045535647
  0
LINE
  5
62C
100
AcDbEntity
  8
0
100
AcDbLine
 62
7
  6
CONTINUOUS
 10
394.234
 20
660.0045535647
 11
399.314
 21
660.0045535647
  0
LINE
  5
62D
100
AcDbEntity
  8
0
100
AcDbLine
 62
7
  6
CONTINUOUS
 10
401.675
 20
660.0045535647
 11
406.755
 21
660.0045535647
  0
LINE
  5
62E
100
AcDbEntity
  8
0
100
AcDbLine
 62
7
  6
CONTINUOUS
 10
409.116
 20
660.0045535647
 11
414.196
 21
660.0045535647
  0
LINE
  5
62F
100
AcDbEntity
  8
0
100
AcDbLine
 62
7
  6
CONTINUOUS
 10
646.87499934
 20
662.9198879647
 11
629.99999934
 21
662.9198879647
  0
LINE
  5
630
100
AcDbEntity
  8
0
100
AcDbLine
 62
7
  6
CONTINUOUS
 10
623.81179934
 20
662.9198879647
 11
606.93679934
 21
662.9198879647
  0
LINE
  5
631
100
AcDbEntity
  8
0
100
AcDbLine
 62
7
  6
CONTINUOUS
 10
658.01539922
 20
663.6198889647
 11
651.41539922
 21
663.6198889647
  0
LINE
  5
632
100
AcDbEntity
  8
0
100
AcDbLine
 62
7
  6
CONTINUOUS
 10
414.196
 20
665.0845535647
 11
409.116
 21
665.0845535647
  0
LINE
  5
633
100
AcDbEntity
  8
0
100
AcDbLine
 62
7
  6
CONTINUOUS
 10
406.755
 20
665.0845535647
 11
401.675
 21
665.0845535647
  0
LINE
  5
634
100
AcDbEntity
  8
0
100
AcDbLine
 62
7
  6
CONTINUOUS
 10
399.314
 20
665.0845535647
 11
394.234
 21
665.0845535647
  0
LINE
  5
635
100
AcDbEntity
  8
0
100
AcDbLine
 62
7
  6
CONTINUOUS
 10
391.873
 20
665.0845535647
 11
386.793
 21
665.0845535647
  0
LINE
  5
636
100
AcDbEntity
  8
0
100
AcDbLine
 62
7
  6
CONTINUOUS
 10
384.432
 20
665.0845535647
 11
379.352
 21
665.0845535647
  0
LINE
  5
637
100
AcDbEntity
  8
0
100
AcDbLine
 62
7
  6
CONTINUOUS
 10
379.352
 20
667.4455535647
 11
384.432
 21
667.4455535647
  0
LINE
  5
638
100
AcDbEntity
  8
0
100
AcDbLine
 62
7
  6
CONTINUOUS
 10
386.793
 20
667.4455535647
 11
391.873
 21
667.4455535647
  0
LINE
  5
639
100
AcDbEntity
  8
0
100
AcDbLine
 62
7
  6
CONTINUOUS
 10
394.234
 20
667.4455535647
 11
399.314
 21
667.4455535647
  0
LINE
  5
63A
100
AcDbEntity
  8
0
100
AcDbLine
 62
7
  6
CONTINUOUS
 10
401.675
 20
667.4455535647
 11
406.755
 21
667.4455535647
  0
LINE
  5
63B
100
AcDbEntity
  8
0
100
AcDbLine
 62
7
  6
CONTINUOUS
 10
409.116
 20
667.4455535647
 11
414.196
 21
667.4455535647
  0
LINE
  5
63C
100
AcDbEntity
  8
0
100
AcDbLine
 62
7
  6
CONTINUOUS
 10
598.733
 20
671.9905535647
 11
514.203
 21
671.9905535647
  0
LINE
  5
63D
100
AcDbEntity
  8
0
100
AcDbLine
 62
7
  6
CONTINUOUS
 10
505.25812934
 20
671.9905535647
 11
420.733
 21
671.9905535647
  0
LINE
  5
63E
100
AcDbEntity
  8
0
100
AcDbLine
 62
7
  6
CONTINUOUS
 10
414.196
 20
672.5255535647
 11
409.116
 21
672.5255535647
  0
LINE
  5
63F
100
AcDbEntity
  8
0
100
AcDbLine
 62
7
  6
CONTINUOUS
 10
406.755
 20
672.5255535647
 11
401.675
 21
672.5255535647
  0
LINE
  5
640
100
AcDbEntity
  8
0
100
AcDbLine
 62
7
  6
CONTINUOUS
 10
399.314
 20
672.5255535647
 11
394.234
 21
672.5255535647
  0
LINE
  5
641
100
AcDbEntity
  8
0
100
AcDbLine
 62
7
  6
CONTINUOUS
 10
391.873
 20
672.5255535647
 11
386.793
 21
672.5255535647
  0
LINE
  5
642
100
AcDbEntity
  8
0
100
AcDbLine
 62
7
  6
CONTINUOUS
 10
384.432
 20
672.5255535647
 11
379.352
 21
672.5255535647
  0
LINE
  5
643
100
AcDbEntity
  8
AXES
100
AcDbLine
 62
7
  6
CONTINUOUS
 10
788.078
 20
672.9455535647
 11
764.778
 21
672.9455535647
  0
LINE
  5
644
100
AcDbEntity
  8
0
100
AcDbLine
 62
7
  6
CONTINUOUS
 10
379.352
 20
674.8865535647
 11
384.432
 21
674.8865535647
  0
LINE
  5
645
100
AcDbEntity
  8
0
100
AcDbLine
 62
7
  6
CONTINUOUS
 10
386.793
 20
674.8865535647
 11
391.873
 21
674.8865535647
  0
LINE
  5
646
100
AcDbEntity
  8
0
100
AcDbLine
 62
7
  6
CONTINUOUS
 10
394.234
 20
674.8865535647
 11
399.314
 21
674.8865535647
  0
LINE
  5
647
100
AcDbEntity
  8
0
100
AcDbLine
 62
7
  6
CONTINUOUS
 10
401.675
 20
674.8865535647
 11
406.755
 21
674.8865535647
  0
LINE
  5
648
100
AcDbEntity
  8
0
100
AcDbLine
 62
7
  6
CONTINUOUS
 10
409.116
 20
674.8865535647
 11
414.196
 21
674.8865535647
  0
LINE
  5
649
100
AcDbEntity
  8
0
100
AcDbLine
 62
7
  6
CONTINUOUS
 10
414.196
 20
679.9665535647
 11
409.116
 21
679.9665535647
  0
LINE
  5
64A
100
AcDbEntity
  8
0
100
AcDbLine
 62
7
  6
CONTINUOUS
 10
406.755
 20
679.9665535647
 11
401.675
 21
679.9665535647
  0
LINE
  5
64B
100
AcDbEntity
  8
0
100
AcDbLine
 62
7
  6
CONTINUOUS
 10
399.314
 20
679.9665535647
 11
394.234
 21
679.9665535647
  0
LINE
  5
64C
100
AcDbEntity
  8
0
100
AcDbLine
 62
7
  6
CONTINUOUS
 10
391.873
 20
679.9665535647
 11
386.793
 21
679.9665535647
  0
LINE
  5
64D
100
AcDbEntity
  8
0
100
AcDbLine
 62
7
  6
CONTINUOUS
 10
384.432
 20
679.9665535647
 11
379.352
 21
679.9665535647
  0
LINE
  5
64E
100
AcDbEntity
  8
AXES
100
AcDbLine
 62
7
  6
CENTER
 10
802.754
 20
683.7049884686
 11
373.902
 21
683.7049884686
  0
LINE
  5
64F
100
AcDbEntity
  8
0
100
AcDbLine
 62
7
  6
CONTINUOUS
 10
863.0434711428
 20
212.731
 11
863.0434711428
 21
622.731
  0
LINE
  5
650
100
AcDbEntity
  8
AXES
100
AcDbLine
 62
7
  6
CENTER
 10
796.0386221514
 20
691.5738582763
 11
380.6173778486
 21
691.5738582763
  0
LINE
  5
651
100
AcDbEntity
  8
AXES
100
AcDbLine
 62
7
  6
CENTER
 10
380.754
 20
692.9273821615
 11
795.902
 21
692.9273821615
  0
LINE
  5
652
100
AcDbEntity
  8
0
100
AcDbLine
 62
7
  6
CONTINUOUS
 10
782.328
 20
703.4464711428
 11
394.328
 21
703.4464711428
  0
LINE
  5
653
100
AcDbEntity
  8
0
100
AcDbLine
 62
7
  6
CONTINUOUS
 10
794.0386221514
 20
144.533198779
 11
800.6173778486
 21
151.1119544761
  0
LINE
  5
654
100
AcDbEntity
  8
0
100
AcDbLine
 62
7
  6
CONTINUOUS
 10
843.9470455239
 20
194.4416221514
 11
850.525801221
 21
201.0203778486
  0
LINE
  5
655
100
AcDbEntity
  8
0
100
AcDbLine
 62
7
  6
CONTINUOUS
 10
792.2410236371
 20
141.9285524943
 11
782.328
 21
132.0155288572
  0
LINE
  5
656
100
AcDbEntity
  8
0
100
AcDbLine
 62
7
  6
CONTINUOUS
 10
853.1304475057
 20
202.8179763629
 11
863.0434711428
 21
212.731
  0
LINE
  5
657
100
AcDbEntity
  8
0
100
AcDbLine
 62
7
  6
CONTINUOUS
 10
794.0386221514
 20
690.928801221
 11
800.6173778486
 21
684.3500455239
  0
LINE
  5
658
100
AcDbEntity
  8
0
100
AcDbLine
 62
7
  6
CONTINUOUS
 10
843.9470455239
 20
641.0203778486
 11
850.525801221
 21
634.4416221514
  0
LINE
  5
659
100
AcDbEntity
  8
0
100
AcDbLine
 62
7
  6
CONTINUOUS
 10
792.2410236371
 20
693.5334475057
 11
782.328
 21
703.4464711428
  0
LINE
  5
65A
100
AcDbEntity
  8
0
100
AcDbLine
 62
7
  6
CONTINUOUS
 10
853.1304475057
 20
632.6440236371
 11
863.0434711428
 21
622.731
  0
ARC
  5
65B
100
AcDbEntity
  8
AXES
100
AcDbCircle
 62
7
  6
CONTINUOUS
 10
334.0052705294
 20
199.6073017606
 40
5.3023053877
100
AcDbArc
 50
264.5822364403
 51
269.9329828825
  0
ARC
  5
65C
100
AcDbEntity
  8
AXES
100
AcDbCircle
 62
7
  6
CONTINUOUS
 10
381.2043017544
 20
152.4082705292
 40
5.3023053815
100
AcDbArc
 50
180.0670171151
 51
185.4177635064
  0
ARC
  5
65D
100
AcDbEntity
  8
AXES
100
AcDbCircle
 62
7
  6
CONTINUOUS
 10
324.8366442087
 20
195.9344615749
 40
5.2225395583
100
AcDbArc
 50
85.3766312755
 51
89.9622551771
  0
ARC
  5
65E
100
AcDbEntity
  8
AXES
100
AcDbCircle
 62
7
  6
CONTINUOUS
 10
377.5314615749
 20
143.2396442087
 40
5.2225395583
100
AcDbArc
 50
0.0377448229
 51
4.6233687245
  0
ARC
  5
65F
100
AcDbEntity
  8
0
100
AcDbCircle
 62
7
  6
CONTINUOUS
 10
443.328
 20
184.6914464353
 40
5.1
100
AcDbArc
 50
102.4557926259
 51
77.5442073741
  0
CIRCLE
  5
660
100
AcDbEntity
  8
AXES
100
AcDbCircle
 62
7
  6
CONTINUOUS
 10
354.5134464353
 20
252.731
 40
2.7
  0
CIRCLE
  5
661
100
AcDbEntity
  8
AXES
100
AcDbCircle
 62
7
  6
CONTINUOUS
 10
382.828
 20
160.6914464353
 40
2.4
  0
CIRCLE
  5
662
100
AcDbEntity
  8
AXES
100
AcDbCircle
 62
7
  6
CONTINUOUS
 10
382.828
 20
185.1414464353
 40
2.4
  0
CIRCLE
  5
663
100
AcDbEntity
  8
AXES
100
AcDbCircle
 62
7
  6
CONTINUOUS
 10
318.4125288572
 20
222.731
 40
2.1
  0
CIRCLE
  5
664
100
AcDbEntity
  8
AXES
100
AcDbCircle
 62
7
  6
CONTINUOUS
 10
435.328
 20
136.8155288572
 40
2.1
  0
CIRCLE
  5
665
100
AcDbEntity
  8
AXES
100
AcDbCircle
 62
7
  6
CONTINUOUS
 10
443.328
 20
168.6914464353
 40
1.5
  0
CIRCLE
  5
666
100
AcDbEntity
  8
AXES
100
AcDbCircle
 62
7
  6
CONTINUOUS
 10
427.328
 20
158.9414464353
 40
1.5
  0
CIRCLE
  5
667
100
AcDbEntity
  8
AXES
100
AcDbCircle
 62
7
  6
CONTINUOUS
 10
397.328
 20
188.9414464353
 40
1.5
  0
CIRCLE
  5
668
100
AcDbEntity
  8
AXES
100
AcDbCircle
 62
7
  6
CONTINUOUS
 10
427.328
 20
188.9414464353
 40
1.5
  0
CIRCLE
  5
669
100
AcDbEntity
  8
AXES
100
AcDbCircle
 62
7
  6
CONTINUOUS
 10
397.328
 20
158.9414464353
 40
1.5
  0
CIRCLE
  5
66A
100
AcDbEntity
  8
AXES
100
AcDbCircle
 62
7
  6
CONTINUOUS
 10
354.5134464353
 20
303.731
 40
2.7
  0
CIRCLE
  5
66B
100
AcDbEntity
  8
AXES
100
AcDbCircle
 62
7
  6
CONTINUOUS
 10
354.5134464353
 20
287.391
 40
2.7
  0
CIRCLE
  5
66C
100
AcDbEntity
  8
AXES
100
AcDbCircle
 62
7
  6
CONTINUOUS
 10
354.5134464353
 20
379.491
 40
2.7
  0
CIRCLE
  5
66D
100
AcDbEntity
  8
AXES
100
AcDbCircle
 62
7
  6
CONTINUOUS
 10
318.4125288572
 20
282.731
 40
2.1
  0
CIRCLE
  5
66E
100
AcDbEntity
  8
AXES
100
AcDbCircle
 62
7
  6
CONTINUOUS
 10
318.4125288572
 20
352.731
 40
2.1
  0
CIRCLE
  5
66F
100
AcDbEntity
  8
AXES
100
AcDbCircle
 62
7
  6
CONTINUOUS
 10
394.428
 20
402.801
 40
2.0
  0
CIRCLE
  5
670
100
AcDbEntity
  8
AXES
100
AcDbCircle
 62
7
  6
CONTINUOUS
 10
436.178
 20
367.301
 40
2.0
  0
CIRCLE
  5
671
100
AcDbEntity
  8
AXES
100
AcDbCircle
 62
7
  6
CONTINUOUS
 10
436.178
 20
275.861
 40
2.0
  0
ARC
  5
672
100
AcDbEntity
  8
0
100
AcDbCircle
 62
7
  6
CONTINUOUS
 10
468.328
 20
184.6914464353
 40
5.1
100
AcDbArc
 50
102.4557926259
 51
77.5442073741
  0
CIRCLE
  5
673
100
AcDbEntity
  8
AXES
100
AcDbCircle
 62
7
  6
CONTINUOUS
 10
455.978
 20
168.6914464353
 40
2.4
  0
CIRCLE
  5
674
100
AcDbEntity
  8
AXES
100
AcDbCircle
 62
7
  6
CONTINUOUS
 10
525.328
 20
136.8155288572
 40
2.1
  0
CIRCLE
  5
675
100
AcDbEntity
  8
AXES
100
AcDbCircle
 62
7
  6
CONTINUOUS
 10
475.828
 20
136.8155288572
 40
2.1
  0
CIRCLE
  5
676
100
AcDbEntity
  8
AXES
100
AcDbCircle
 62
7
  6
CONTINUOUS
 10
468.328
 20
168.6914464353
 40
1.5
  0
CIRCLE
  5
677
100
AcDbEntity
  8
AXES
100
AcDbCircle
 62
7
  6
CONTINUOUS
 10
503.328
 20
168.6914464353
 40
1.5
  0
CIRCLE
  5
678
100
AcDbEntity
  8
AXES
100
AcDbCircle
 62
7
  6
CONTINUOUS
 10
517.328
 20
168.6914464353
 40
1.5
  0
CIRCLE
  5
679
100
AcDbEntity
  8
AXES
100
AcDbCircle
 62
7
  6
CONTINUOUS
 10
538.328
 20
168.6914464353
 40
1.5
  0
CIRCLE
  5
67A
100
AcDbEntity
  8
AXES
100
AcDbCircle
 62
7
  6
CONTINUOUS
 10
545.328
 20
168.6914464353
 40
1.5
  0
CIRCLE
  5
67B
100
AcDbEntity
  8
AXES
100
AcDbCircle
 62
7
  6
CONTINUOUS
 10
552.328
 20
168.6914464353
 40
1.5
  0
CIRCLE
  5
67C
100
AcDbEntity
  8
AXES
100
AcDbCircle
 62
7
  6
CONTINUOUS
 10
559.328
 20
168.6914464353
 40
1.5
  0
CIRCLE
  5
67D
100
AcDbEntity
  8
AXES
100
AcDbCircle
 62
7
  6
CONTINUOUS
 10
566.328
 20
168.6914464353
 40
1.5
  0
CIRCLE
  5
67E
100
AcDbEntity
  8
AXES
100
AcDbCircle
 62
7
  6
CONTINUOUS
 10
573.328
 20
168.6914464353
 40
1.5
  0
CIRCLE
  5
67F
100
AcDbEntity
  8
AXES
100
AcDbCircle
 62
7
  6
CONTINUOUS
 10
580.328
 20
168.6914464353
 40
1.5
  0
CIRCLE
  5
680
100
AcDbEntity
  8
AXES
100
AcDbCircle
 62
7
  6
CONTINUOUS
 10
587.328
 20
168.6914464353
 40
1.5
  0
CIRCLE
  5
681
100
AcDbEntity
  8
AXES
100
AcDbCircle
 62
7
  6
CONTINUOUS
 10
519.028
 20
402.801
 40
2.0
  0
CIRCLE
  5
682
100
AcDbEntity
  8
AXES
100
AcDbCircle
 62
7
  6
CONTINUOUS
 10
512.378
 20
367.301
 40
2.0
  0
CIRCLE
  5
683
100
AcDbEntity
  8
AXES
100
AcDbCircle
 62
7
  6
CONTINUOUS
 10
525.678
 20
367.301
 40
2.0
  0
CIRCLE
  5
684
100
AcDbEntity
  8
AXES
100
AcDbCircle
 62
7
  6
CONTINUOUS
 10
512.378
 20
275.861
 40
2.0
  0
CIRCLE
  5
685
100
AcDbEntity
  8
AXES
100
AcDbCircle
 62
7
  6
CONTINUOUS
 10
525.678
 20
275.861
 40
2.0
  0
CIRCLE
  5
686
100
AcDbEntity
  8
AXES
100
AcDbCircle
 62
7
  6
CONTINUOUS
 10
354.5134464353
 20
453.731
 40
2.7
  0
CIRCLE
  5
687
100
AcDbEntity
  8
AXES
100
AcDbCircle
 62
7
  6
CONTINUOUS
 10
354.5134464353
 20
471.591
 40
2.7
  0
CIRCLE
  5
688
100
AcDbEntity
  8
AXES
100
AcDbCircle
 62
7
  6
CONTINUOUS
 10
318.4125288572
 20
417.731
 40
2.1
  0
CIRCLE
  5
689
100
AcDbEntity
  8
AXES
100
AcDbCircle
 62
7
  6
CONTINUOUS
 10
318.4125288572
 20
552.731
 40
2.1
  0
CIRCLE
  5
68A
100
AcDbEntity
  8
AXES
100
AcDbCircle
 62
7
  6
CONTINUOUS
 10
318.4125288572
 20
482.731
 40
2.1
  0
CIRCLE
  5
68B
100
AcDbEntity
  8
AXES
100
AcDbCircle
 62
7
  6
CONTINUOUS
 10
394.428
 20
475.191
 40
2.0
  0
ARC
  5
68C
100
AcDbEntity
  8
AXES
100
AcDbCircle
 62
7
  6
CONTINUOUS
 10
381.2043017626
 20
683.0537294705
 40
5.3023053897
100
AcDbArc
 50
174.5822364231
 51
179.9329828817
  0
ARC
  5
68D
100
AcDbEntity
  8
AXES
100
AcDbCircle
 62
7
  6
CONTINUOUS
 10
334.0052705293
 20
635.8546982437
 40
5.3023053834
100
AcDbArc
 50
90.0670171158
 51
95.4177635213
  0
ARC
  5
68E
100
AcDbEntity
  8
AXES
100
AcDbCircle
 62
7
  6
CONTINUOUS
 10
377.5314450995
 20
692.2223563187
 40
5.2225560341
100
AcDbArc
 50
355.3764397682
 51
359.9622495101
  0
ARC
  5
68F
100
AcDbEntity
  8
AXES
100
AcDbCircle
 62
7
  6
CONTINUOUS
 10
324.8366442087
 20
639.527538425
 40
5.2225395583
100
AcDbArc
 50
270.0377448228
 51
274.6233687245
  0
CIRCLE
  5
690
100
AcDbEntity
  8
AXES
100
AcDbCircle
 62
7
  6
CONTINUOUS
 10
354.5134464353
 20
602.731
 40
2.7
  0
CIRCLE
  5
691
100
AcDbEntity
  8
AXES
100
AcDbCircle
 62
7
  6
CONTINUOUS
 10
354.5134464353
 20
588.731
 40
2.7
  0
CIRCLE
  5
692
100
AcDbEntity
  8
AXES
100
AcDbCircle
 62
7
  6
CONTINUOUS
 10
354.5134464353
 20
563.691
 40
2.7
  0
CIRCLE
  5
693
100
AcDbEntity
  8
0
100
AcDbCircle
 62
7
  6
CONTINUOUS
 10
423.233
 20
676.7905535647
 40
2.1
  0
CIRCLE
  5
694
100
AcDbEntity
  8
0
100
AcDbCircle
 62
7
  6
CONTINUOUS
 10
423.233
 20
653.1905535647
 40
2.1
  0
CIRCLE
  5
695
100
AcDbEntity
  8
AXES
100
AcDbCircle
 62
7
  6
CONTINUOUS
 10
435.328
 20
698.6464711428
 40
2.1
  0
CIRCLE
  5
696
100
AcDbEntity
  8
AXES
100
AcDbCircle
 62
7
  6
CONTINUOUS
 10
318.4125288572
 20
612.731
 40
2.1
  0
CIRCLE
  5
697
100
AcDbEntity
  8
AXES
100
AcDbCircle
 62
7
  6
CONTINUOUS
 10
394.428
 20
630.131
 40
2.0
  0
CIRCLE
  5
698
100
AcDbEntity
  8
AXES
100
AcDbCircle
 62
7
  6
CONTINUOUS
 10
519.028
 20
475.191
 40
2.0
  0
CIRCLE
  5
699
100
AcDbEntity
  8
0
100
AcDbCircle
 62
7
  6
CONTINUOUS
 10
462.998
 20
676.7905535647
 40
2.1
  0
CIRCLE
  5
69A
100
AcDbEntity
  8
0
100
AcDbCircle
 62
7
  6
CONTINUOUS
 10
556.468
 20
676.7905535647
 40
2.1
  0
CIRCLE
  5
69B
100
AcDbEntity
  8
0
100
AcDbCircle
 62
7
  6
CONTINUOUS
 10
556.468
 20
653.1905535647
 40
2.1
  0
CIRCLE
  5
69C
100
AcDbEntity
  8
0
100
AcDbCircle
 62
7
  6
CONTINUOUS
 10
462.998
 20
653.1905535647
 40
2.1
  0
CIRCLE
  5
69D
100
AcDbEntity
  8
0
100
AcDbCircle
 62
7
  6
CONTINUOUS
 10
502.75812934
 20
676.7905535647
 40
2.1
  0
CIRCLE
  5
69E
100
AcDbEntity
  8
0
100
AcDbCircle
 62
7
  6
CONTINUOUS
 10
502.75812934
 20
653.1905535647
 40
2.1
  0
CIRCLE
  5
69F
100
AcDbEntity
  8
0
100
AcDbCircle
 62
7
  6
CONTINUOUS
 10
516.70787066
 20
653.1905535647
 40
2.1
  0
CIRCLE
  5
6A0
100
AcDbEntity
  8
0
100
AcDbCircle
 62
7
  6
CONTINUOUS
 10
516.70787066
 20
676.7905535647
 40
2.1
  0
CIRCLE
  5
6A1
100
AcDbEntity
  8
AXES
100
AcDbCircle
 62
7
  6
CONTINUOUS
 10
525.328
 20
698.6464711428
 40
2.1
  0
CIRCLE
  5
6A2
100
AcDbEntity
  8
AXES
100
AcDbCircle
 62
7
  6
CONTINUOUS
 10
475.828
 20
698.6464711428
 40
2.1
  0
CIRCLE
  5
6A3
100
AcDbEntity
  8
AXES
100
AcDbCircle
 62
7
  6
CONTINUOUS
 10
519.028
 20
630.131
 40
2.0
  0
CIRCLE
  5
6A4
100
AcDbEntity
  8
AXES
100
AcDbCircle
 62
7
  6
CONTINUOUS
 10
598.328
 20
168.6914464353
 40
2.4
  0
CIRCLE
  5
6A5
100
AcDbEntity
  8
AXES
100
AcDbCircle
 62
7
  6
CONTINUOUS
 10
628.828
 20
254.731
 40
2.1
  0
CIRCLE
  5
6A6
100
AcDbEntity
  8
AXES
100
AcDbCircle
 62
7
  6
CONTINUOUS
 10
645.088
 20
254.731
 40
2.1
  0
CIRCLE
  5
6A7
100
AcDbEntity
  8
AXES
100
AcDbCircle
 62
7
  6
CONTINUOUS
 10
651.328
 20
136.8155288572
 40
2.1
  0
CIRCLE
  5
6A8
100
AcDbEntity
  8
AXES
100
AcDbCircle
 62
7
  6
CONTINUOUS
 10
588.328
 20
136.8155288572
 40
2.1
  0
CIRCLE
  5
6A9
100
AcDbEntity
  8
AXES
100
AcDbCircle
 62
7
  6
CONTINUOUS
 10
700.828
 20
136.8155288572
 40
2.1
  0
CIRCLE
  5
6AA
100
AcDbEntity
  8
AXES
100
AcDbCircle
 62
7
  6
CONTINUOUS
 10
688.328
 20
158.9414464353
 40
1.5
  0
CIRCLE
  5
6AB
100
AcDbEntity
  8
AXES
100
AcDbCircle
 62
7
  6
CONTINUOUS
 10
688.328
 20
188.9414464353
 40
1.5
  0
CIRCLE
  5
6AC
100
AcDbEntity
  8
AXES
100
AcDbCircle
 62
7
  6
CONTINUOUS
 10
658.328
 20
158.9414464353
 40
1.5
  0
CIRCLE
  5
6AD
100
AcDbEntity
  8
AXES
100
AcDbCircle
 62
7
  6
CONTINUOUS
 10
658.328
 20
188.9414464353
 40
1.5
  0
CIRCLE
  5
6AE
100
AcDbEntity
  8
AXES
100
AcDbCircle
 62
7
  6
CONTINUOUS
 10
643.328
 20
158.9414464353
 40
1.5
  0
CIRCLE
  5
6AF
100
AcDbEntity
  8
AXES
100
AcDbCircle
 62
7
  6
CONTINUOUS
 10
643.328
 20
188.9414464353
 40
1.5
  0
CIRCLE
  5
6B0
100
AcDbEntity
  8
AXES
100
AcDbCircle
 62
7
  6
CONTINUOUS
 10
613.328
 20
158.9414464353
 40
1.5
  0
CIRCLE
  5
6B1
100
AcDbEntity
  8
AXES
100
AcDbCircle
 62
7
  6
CONTINUOUS
 10
613.328
 20
188.9414464353
 40
1.5
  0
CIRCLE
  5
6B2
100
AcDbEntity
  8
AXES
100
AcDbCircle
 62
7
  6
CONTINUOUS
 10
687.828
 20
292.731
 40
2.7
  0
CIRCLE
  5
6B3
100
AcDbEntity
  8
AXES
100
AcDbCircle
 62
7
  6
CONTINUOUS
 10
628.828
 20
281.401
 40
2.1
  0
CIRCLE
  5
6B4
100
AcDbEntity
  8
AXES
100
AcDbCircle
 62
7
  6
CONTINUOUS
 10
645.088
 20
281.401
 40
2.1
  0
CIRCLE
  5
6B5
100
AcDbEntity
  8
AXES
100
AcDbCircle
 62
7
  6
CONTINUOUS
 10
676.368
 20
402.801
 40
2.0
  0
CIRCLE
  5
6B6
100
AcDbEntity
  8
AXES
100
AcDbCircle
 62
7
  6
CONTINUOUS
 10
601.878
 20
367.301
 40
2.0
  0
CIRCLE
  5
6B7
100
AcDbEntity
  8
AXES
100
AcDbCircle
 62
7
  6
CONTINUOUS
 10
601.878
 20
275.861
 40
2.0
  0
ARC
  5
6B8
100
AcDbEntity
  8
AXES
100
AcDbCircle
 62
7
  6
CONTINUOUS
 10
795.4516982361
 20
152.4082705296
 40
5.302305391
100
AcDbArc
 50
354.5822364125
 51
359.9329828812
  0
ARC
  5
6B9
100
AcDbEntity
  8
AXES
100
AcDbCircle
 62
7
  6
CONTINUOUS
 10
842.6507294706
 20
199.6073017597
 40
5.3023053868
100
AcDbArc
 50
270.0670171171
 51
275.4177635516
  0
ARC
  5
6BA
100
AcDbEntity
  8
AXES
100
AcDbCircle
 62
7
  6
CONTINUOUS
 10
851.8193563187
 20
195.9344450994
 40
5.2225560341
100
AcDbArc
 50
90.0377504899
 51
94.6235602318
  0
ARC
  5
6BB
100
AcDbEntity
  8
AXES
100
AcDbCircle
 62
7
  6
CONTINUOUS
 10
799.1245384252
 20
143.2396442087
 40
5.2225395584
100
AcDbArc
 50
175.3766312755
 51
179.9622551771
  0
CIRCLE
  5
6BC
100
AcDbEntity
  8
AXES
100
AcDbCircle
 62
7
  6
CONTINUOUS
 10
822.1425535647
 20
252.731
 40
2.7
  0
CIRCLE
  5
6BD
100
AcDbEntity
  8
AXES
100
AcDbCircle
 62
7
  6
CONTINUOUS
 10
793.828
 20
160.6914464353
 40
2.4
  0
CIRCLE
  5
6BE
100
AcDbEntity
  8
AXES
100
AcDbCircle
 62
7
  6
CONTINUOUS
 10
793.828
 20
185.1414464353
 40
2.4
  0
CIRCLE
  5
6BF
100
AcDbEntity
  8
AXES
100
AcDbCircle
 62
7
  6
CONTINUOUS
 10
858.2434711428
 20
222.731
 40
2.1
  0
CIRCLE
  5
6C0
100
AcDbEntity
  8
AXES
100
AcDbCircle
 62
7
  6
CONTINUOUS
 10
741.328
 20
136.8155288572
 40
2.1
  0
CIRCLE
  5
6C1
100
AcDbEntity
  8
AXES
100
AcDbCircle
 62
7
  6
CONTINUOUS
 10
822.1425535647
 20
303.731
 40
2.7
  0
CIRCLE
  5
6C2
100
AcDbEntity
  8
AXES
100
AcDbCircle
 62
7
  6
CONTINUOUS
 10
822.1425535647
 20
287.391
 40
2.7
  0
CIRCLE
  5
6C3
100
AcDbEntity
  8
AXES
100
AcDbCircle
 62
7
  6
CONTINUOUS
 10
822.1425535647
 20
379.491
 40
2.7
  0
CIRCLE
  5
6C4
100
AcDbEntity
  8
AXES
100
AcDbCircle
 62
7
  6
CONTINUOUS
 10
777.828
 20
292.731
 40
2.7
  0
CIRCLE
  5
6C5
100
AcDbEntity
  8
AXES
100
AcDbCircle
 62
7
  6
CONTINUOUS
 10
858.2434711428
 20
282.731
 40
2.1
  0
CIRCLE
  5
6C6
100
AcDbEntity
  8
AXES
100
AcDbCircle
 62
7
  6
CONTINUOUS
 10
858.2434711428
 20
352.731
 40
2.1
  0
CIRCLE
  5
6C7
100
AcDbEntity
  8
AXES
100
AcDbCircle
 62
7
  6
CONTINUOUS
 10
676.368
 20
475.191
 40
2.0
  0
CIRCLE
  5
6C8
100
AcDbEntity
  8
AXES
100
AcDbCircle
 62
7
  6
CONTINUOUS
 10
695.828
 20
670.7705535647
 40
3.2
  0
CIRCLE
  5
6C9
100
AcDbEntity
  8
AXES
100
AcDbCircle
 62
7
  6
CONTINUOUS
 10
711.828
 20
670.7705535647
 40
3.2
  0
CIRCLE
  5
6CA
100
AcDbEntity
  8
AXES
100
AcDbCircle
 62
7
  6
CONTINUOUS
 10
695.828
 20
650.7705535647
 40
3.2
  0
CIRCLE
  5
6CB
100
AcDbEntity
  8
AXES
100
AcDbCircle
 62
7
  6
CONTINUOUS
 10
711.828
 20
650.7705535647
 40
3.2
  0
CIRCLE
  5
6CC
100
AcDbEntity
  8
0
100
AcDbCircle
 62
7
  6
CONTINUOUS
 10
596.233
 20
653.1905535647
 40
2.1
  0
CIRCLE
  5
6CD
100
AcDbEntity
  8
0
100
AcDbCircle
 62
7
  6
CONTINUOUS
 10
596.233
 20
676.7905535647
 40
2.1
  0
CIRCLE
  5
6CE
100
AcDbEntity
  8
AXES
100
AcDbCircle
 62
7
  6
CONTINUOUS
 10
588.328
 20
698.6464711428
 40
2.1
  0
CIRCLE
  5
6CF
100
AcDbEntity
  8
AXES
100
AcDbCircle
 62
7
  6
CONTINUOUS
 10
651.328
 20
698.6464711428
 40
2.1
  0
CIRCLE
  5
6D0
100
AcDbEntity
  8
AXES
100
AcDbCircle
 62
7
  6
CONTINUOUS
 10
700.828
 20
698.6464711428
 40
2.1
  0
CIRCLE
  5
6D1
100
AcDbEntity
  8
AXES
100
AcDbCircle
 62
7
  6
CONTINUOUS
 10
676.368
 20
607.271
 40
2.0
  0
CIRCLE
  5
6D2
100
AcDbEntity
  8
AXES
100
AcDbCircle
 62
7
  6
CONTINUOUS
 10
822.1425535647
 20
453.731
 40
2.7
  0
CIRCLE
  5
6D3
100
AcDbEntity
  8
AXES
100
AcDbCircle
 62
7
  6
CONTINUOUS
 10
822.1425535647
 20
471.591
 40
2.7
  0
CIRCLE
  5
6D4
100
AcDbEntity
  8
AXES
100
AcDbCircle
 62
7
  6
CONTINUOUS
 10
763.828
 20
557.731
 40
2.7
  0
CIRCLE
  5
6D5
100
AcDbEntity
  8
AXES
100
AcDbCircle
 62
7
  6
CONTINUOUS
 10
858.2434711428
 20
417.731
 40
2.1
  0
CIRCLE
  5
6D6
100
AcDbEntity
  8
AXES
100
AcDbCircle
 62
7
  6
CONTINUOUS
 10
858.2434711428
 20
552.731
 40
2.1
  0
CIRCLE
  5
6D7
100
AcDbEntity
  8
AXES
100
AcDbCircle
 62
7
  6
CONTINUOUS
 10
858.2434711428
 20
482.731
 40
2.1
  0
ARC
  5
6D8
100
AcDbEntity
  8
AXES
100
AcDbCircle
 62
7
  6
CONTINUOUS
 10
795.4516982442
 20
683.0537294707
 40
5.3023053829
100
AcDbArc
 50
0.0670171156
 51
5.4177635184
  0
ARC
  5
6D9
100
AcDbEntity
  8
AXES
100
AcDbCircle
 62
7
  6
CONTINUOUS
 10
842.6507294708
 20
635.854698246
 40
5.3023053811
100
AcDbArc
 50
84.5822364975
 51
89.9329828851
  0
ARC
  5
6DA
100
AcDbEntity
  8
AXES
100
AcDbCircle
 62
7
  6
CONTINUOUS
 10
799.1245549006
 20
692.2223563187
 40
5.2225560342
100
AcDbArc
 50
180.0377504899
 51
184.6235602318
  0
ARC
  5
6DB
100
AcDbEntity
  8
AXES
100
AcDbCircle
 62
7
  6
CONTINUOUS
 10
851.8193563187
 20
639.5275549006
 40
5.2225560342
100
AcDbArc
 50
265.3764397682
 51
269.9622495101
  0
CIRCLE
  5
6DC
100
AcDbEntity
  8
AXES
100
AcDbCircle
 62
7
  6
CONTINUOUS
 10
727.828
 20
670.7705535647
 40
3.2
  0
CIRCLE
  5
6DD
100
AcDbEntity
  8
AXES
100
AcDbCircle
 62
7
  6
CONTINUOUS
 10
743.828
 20
670.7705535647
 40
3.2
  0
CIRCLE
  5
6DE
100
AcDbEntity
  8
AXES
100
AcDbCircle
 62
7
  6
CONTINUOUS
 10
727.828
 20
650.7705535647
 40
3.2
  0
CIRCLE
  5
6DF
100
AcDbEntity
  8
AXES
100
AcDbCircle
 62
7
  6
CONTINUOUS
 10
743.828
 20
650.7705535647
 40
3.2
  0
CIRCLE
  5
6E0
100
AcDbEntity
  8
AXES
100
AcDbCircle
 62
7
  6
CONTINUOUS
 10
822.1425535647
 20
602.731
 40
2.7
  0
CIRCLE
  5
6E1
100
AcDbEntity
  8
AXES
100
AcDbCircle
 62
7
  6
CONTINUOUS
 10
822.1425535647
 20
588.731
 40
2.7
  0
CIRCLE
  5
6E2
100
AcDbEntity
  8
AXES
100
AcDbCircle
 62
7
  6
CONTINUOUS
 10
822.1425535647
 20
563.691
 40
2.7
  0
ARC
  5
6E3
100
AcDbEntity
  8
AXES
100
AcDbCircle
 62
7
  6
CONTINUOUS
 10
788.078
 20
670.4455535647
 40
2.5
100
AcDbArc
 50
0.0
 51
90.0
  0
ARC
  5
6E4
100
AcDbEntity
  8
AXES
100
AcDbCircle
 62
7
  6
CONTINUOUS
 10
788.078
 20
654.6455535647
 40
2.5
100
AcDbArc
 50
270.0
 51
360.0
  0
ARC
  5
6E5
100
AcDbEntity
  8
AXES
100
AcDbCircle
 62
7
  6
CONTINUOUS
 10
764.778
 20
654.6455535647
 40
2.5
100
AcDbArc
 50
180.0
 51
270.0
  0
ARC
  5
6E6
100
AcDbEntity
  8
AXES
100
AcDbCircle
 62
7
  6
CONTINUOUS
 10
764.778
 20
670.4455535647
 40
2.5
100
AcDbArc
 50
90.0
 51
180.0
  0
CIRCLE
  5
6E7
100
AcDbEntity
  8
AXES
100
AcDbCircle
 62
7
  6
CONTINUOUS
 10
796.354
 20
646.7205535647
 40
2.4
  0
CIRCLE
  5
6E8
100
AcDbEntity
  8
AXES
100
AcDbCircle
 62
7
  6
CONTINUOUS
 10
796.428
 20
662.5455535647
 40
2.4
  0
CIRCLE
  5
6E9
100
AcDbEntity
  8
AXES
100
AcDbCircle
 62
7
  6
CONTINUOUS
 10
756.428
 20
662.5455535647
 40
2.4
  0
CIRCLE
  5
6EA
100
AcDbEntity
  8
AXES
100
AcDbCircle
 62
7
  6
CONTINUOUS
 10
741.328
 20
698.6464711428
 40
2.1
  0
CIRCLE
  5
6EB
100
AcDbEntity
  8
AXES
100
AcDbCircle
 62
7
  6
CONTINUOUS
 10
858.2434711428
 20
612.731
 40
2.1
  0
SPLINE
  5
6EC
100
AcDbEntity
  8
AXES
100
AcDbSpline
 62
7
  6
CONTINUOUS
 70
0
 71
3
 72
9
 73
5
 74
0
 42
0.0000001
 43
0.0000001
 44
0.0000000001
 40
0.0
 40
0.0
 40
0.0
 40
0.0
 40
0.194048154
 40
1.0
 40
1.0
 40
1.0
 40
1.0
 10
793.902
 20
692.3213168173
 30
0.0
 10
793.902
 20
692.3701316384
 30
0.0
 10
793.8390819386
 20
692.6216405165
 30
0.0
 10
793.6180436209
 20
692.7891171674
 30
0.0
 10
793.4508078504
 20
692.9037380451
 30
0.0
  0
SPLINE
  5
6ED
100
AcDbEntity
  8
AXES
100
AcDbSpline
 62
7
  6
CONTINUOUS
 70
0
 71
3
 72
8
 73
4
 74
0
 42
0.0000001
 43
0.0000001
 44
0.0000000001
 40
0.0
 40
0.0
 40
0.0
 40
0.0
 40
1.0
 40
1.0
 40
1.0
 40
1.0
 10
793.4508078504
 20
692.9037380451
 30
0.0
 10
793.3680010844
 20
692.960492555
 30
0.0
 10
793.2819510898
 20
693.0125632705
 30
0.0
 10
793.1946159794
 20
693.0620669408
 30
0.0
  0
SPLINE
  5
6EE
100
AcDbEntity
  8
AXES
100
AcDbSpline
 62
7
  6
CONTINUOUS
 70
0
 71
3
 72
9
 73
5
 74
0
 42
0.0000001
 43
0.0000001
 44
0.0000000001
 40
0.0
 40
0.0
 40
0.0
 40
0.0
 40
0.2252114411
 40
1.0
 40
1.0
 40
1.0
 40
1.0
 10
793.1946159794
 20
693.0620669408
 30
0.0
 10
793.1251316189
 20
693.1014523707
 30
0.0
 10
792.8123979426
 20
693.2689231864
 30
0.0
 10
792.4902193856
 20
693.4176746499
 30
0.0
 10
792.2410236371
 20
693.5334475057
 30
0.0
  0
SPLINE
  5
6EF
100
AcDbEntity
  8
AXES
100
AcDbSpline
 62
7
  6
CONTINUOUS
 70
0
 71
3
 72
9
 73
5
 74
0
 42
0.0000001
 43
0.0000001
 44
0.0000000001
 40
0.0
 40
0.0
 40
0.0
 40
0.0
 40
0.194048154
 40
1.0
 40
1.0
 40
1.0
 40
1.0
 10
382.754
 20
692.3213168173
 30
0.0
 10
382.754
 20
692.3701316384
 30
0.0
 10
382.8169180614
 20
692.6216405165
 30
0.0
 10
383.0379563791
 20
692.7891171674
 30
0.0
 10
383.2051921496
 20
692.9037380451
 30
0.0
  0
SPLINE
  5
6F0
100
AcDbEntity
  8
AXES
100
AcDbSpline
 62
7
  6
CONTINUOUS
 70
0
 71
3
 72
8
 73
4
 74
0
 42
0.0000001
 43
0.0000001
 44
0.0000000001
 40
0.0
 40
0.0
 40
0.0
 40
0.0
 40
1.0
 40
1.0
 40
1.0
 40
1.0
 10
383.2051921496
 20
692.9037380451
 30
0.0
 10
383.2879989156
 20
692.960492555
 30
0.0
 10
383.3740489102
 20
693.0125632705
 30
0.0
 10
383.4613840206
 20
693.0620669408
 30
0.0
  0
SPLINE
  5
6F1
100
AcDbEntity
  8
AXES
100
AcDbSpline
 62
7
  6
CONTINUOUS
 70
0
 71
3
 72
9
 73
5
 74
0
 42
0.0000001
 43
0.0000001
 44
0.0000000001
 40
0.0
 40
0.0
 40
0.0
 40
0.0
 40
0.2252114411
 40
1.0
 40
1.0
 40
1.0
 40
1.0
 10
383.4613840206
 20
693.0620669408
 30
0.0
 10
383.5308683811
 20
693.1014523707
 30
0.0
 10
383.8436020574
 20
693.2689231864
 30
0.0
 10
384.1657806144
 20
693.4176746499
 30
0.0
 10
384.4149763629
 20
693.5334475057
 30
0.0
  0
SPLINE
  5
6F2
100
AcDbEntity
  8
AXES
100
AcDbSpline
 62
7
  6
CONTINUOUS
 70
0
 71
3
 72
8
 73
4
 74
0
 42
0.0000001
 43
0.0000001
 44
0.0000000001
 40
0.0
 40
0.0
 40
0.0
 40
0.0
 40
1.0
 40
1.0
 40
1.0
 40
1.0
 10
793.9189940242
 20
691.8013723615
 30
0.0
 10
793.930536613
 20
691.6575235584
 30
0.0
 10
793.9477651841
 20
691.5140992065
 30
0.0
 10
793.9682729594
 20
691.3712526431
 30
0.0
  0
SPLINE
  5
6F3
100
AcDbEntity
  8
AXES
100
AcDbSpline
 62
7
  6
CONTINUOUS
 70
0
 71
3
 72
8
 73
4
 74
0
 42
0.0000001
 43
0.0000001
 44
0.0000000001
 40
0.0
 40
0.0
 40
0.0
 40
0.0
 40
1.0
 40
1.0
 40
1.0
 40
1.0
 10
793.9682729594
 20
691.3712526431
 30
0.0
 10
793.9894948639
 20
691.2234318257
 30
0.0
 10
794.0141173315
 20
691.0761133967
 30
0.0
 10
794.0386221514
 20
690.928801221
 30
0.0
  0
SPLINE
  5
6F4
100
AcDbEntity
  8
AXES
100
AcDbSpline
 62
7
  6
CONTINUOUS
 70
0
 71
3
 72
8
 73
4
 74
0
 42
0.0000001
 43
0.0000001
 44
0.0000000001
 40
0.0
 40
0.0
 40
0.0
 40
0.0
 40
1.0
 40
1.0
 40
1.0
 40
1.0
 10
382.7370059758
 20
691.8013723615
 30
0.0
 10
382.725463387
 20
691.6575235584
 30
0.0
 10
382.7082348159
 20
691.5140992065
 30
0.0
 10
382.6877270406
 20
691.3712526431
 30
0.0
  0
SPLINE
  5
6F5
100
AcDbEntity
  8
AXES
100
AcDbSpline
 62
7
  6
CONTINUOUS
 70
0
 71
3
 72
8
 73
4
 74
0
 42
0.0000001
 43
0.0000001
 44
0.0000000001
 40
0.0
 40
0.0
 40
0.0
 40
0.0
 40
1.0
 40
1.0
 40
1.0
 40
1.0
 10
382.6877270406
 20
691.3712526431
 30
0.0
 10
382.6665051361
 20
691.2234318257
 30
0.0
 10
382.6418826685
 20
691.0761133967
 30
0.0
 10
382.6173778486
 20
690.928801221
 30
0.0
  0
SPLINE
  5
6F6
100
AcDbEntity
  8
AXES
100
AcDbSpline
 62
7
  6
CONTINUOUS
 70
0
 71
3
 72
8
 73
4
 74
0
 42
0.0000001
 43
0.0000001
 44
0.0000000001
 40
0.0
 40
0.0
 40
0.0
 40
0.0
 40
1.0
 40
1.0
 40
1.0
 40
1.0
 10
800.6173778486
 20
684.3500455239
 30
0.0
 10
800.6418784937
 20
684.2027584454
 30
0.0
 10
800.6664981143
 20
684.0554653585
 30
0.0
 10
800.6877183084
 20
683.9076699984
 30
0.0
  0
SPLINE
  5
6F7
100
AcDbEntity
  8
AXES
100
AcDbSpline
 62
7
  6
CONTINUOUS
 70
0
 71
3
 72
8
 73
4
 74
0
 42
0.0000001
 43
0.0000001
 44
0.0000000001
 40
0.0
 40
0.0
 40
0.0
 40
0.0
 40
1.0
 40
1.0
 40
1.0
 40
1.0
 10
800.6877183084
 20
683.9076699984
 30
0.0
 10
800.7045772324
 20
683.790250208
 30
0.0
 10
800.719248855
 20
683.672463486
 30
0.0
 10
800.7303168513
 20
683.5543570511
 30
0.0
  0
SPLINE
  5
6F8
100
AcDbEntity
  8
AXES
100
AcDbSpline
 62
7
  6
CONTINUOUS
 70
0
 71
3
 72
8
 73
4
 74
0
 42
0.0000001
 43
0.0000001
 44
0.0000000001
 40
0.0
 40
0.0
 40
0.0
 40
0.0
 40
1.0
 40
1.0
 40
1.0
 40
1.0
 10
376.0386221514
 20
684.3500455239
 30
0.0
 10
376.0141215063
 20
684.2027584454
 30
0.0
 10
375.9895018857
 20
684.0554653585
 30
0.0
 10
375.9682816916
 20
683.9076699984
 30
0.0
  0
SPLINE
  5
6F9
100
AcDbEntity
  8
AXES
100
AcDbSpline
 62
7
  6
CONTINUOUS
 70
0
 71
3
 72
8
 73
4
 74
0
 42
0.0000001
 43
0.0000001
 44
0.0000000001
 40
0.0
 40
0.0
 40
0.0
 40
0.0
 40
1.0
 40
1.0
 40
1.0
 40
1.0
 10
375.9682816916
 20
683.9076699984
 30
0.0
 10
375.9514227678
 20
683.7902502099
 30
0.0
 10
375.9367511455
 20
683.6724634899
 30
0.0
 10
375.9256831492
 20
683.5543570569
 30
0.0
  0
SPLINE
  5
6FA
100
AcDbEntity
  8
AXES
100
AcDbSpline
 62
7
  6
CONTINUOUS
 70
0
 71
3
 72
8
 73
4
 74
0
 42
0.0000001
 43
0.0000001
 44
0.0000000001
 40
0.0
 40
0.0
 40
0.0
 40
0.0
 40
1.0
 40
1.0
 40
1.0
 40
1.0
 10
332.7089544761
 20
194.4416221514
 30
0.0
 10
332.8562656096
 20
194.4171175049
 30
0.0
 10
333.0035827668
 20
194.3924938455
 30
0.0
 10
333.151402424
 20
194.3712712936
 30
0.0
  0
SPLINE
  5
6FB
100
AcDbEntity
  8
AXES
100
AcDbSpline
 62
7
  6
CONTINUOUS
 70
0
 71
3
 72
8
 73
4
 74
0
 42
0.0000001
 43
0.0000001
 44
0.0000000001
 40
0.0
 40
0.0
 40
0.0
 40
0.0
 40
1.0
 40
1.0
 40
1.0
 40
1.0
 10
333.151402424
 20
194.3712712936
 30
0.0
 10
333.2687982048
 20
194.3544167148
 30
0.0
 10
333.386560787
 20
194.3397488704
 30
0.0
 10
333.5046429448
 20
194.3286831491
 30
0.0
  0
SPLINE
  5
6FC
100
AcDbEntity
  8
AXES
100
AcDbSpline
 62
7
  6
CONTINUOUS
 70
0
 71
3
 72
8
 73
4
 74
0
 42
0.0000001
 43
0.0000001
 44
0.0000000001
 40
0.0
 40
0.0
 40
0.0
 40
0.0
 40
1.0
 40
1.0
 40
1.0
 40
1.0
 10
332.7089544761
 20
641.0203778486
 30
0.0
 10
332.8562656096
 20
641.0448824951
 30
0.0
 10
333.0035827668
 20
641.0695061545
 30
0.0
 10
333.151402424
 20
641.0907287064
 30
0.0
  0
SPLINE
  5
6FD
100
AcDbEntity
  8
AXES
100
AcDbSpline
 62
7
  6
CONTINUOUS
 70
0
 71
3
 72
8
 73
4
 74
0
 42
0.0000001
 43
0.0000001
 44
0.0000000001
 40
0.0
 40
0.0
 40
0.0
 40
0.0
 40
1.0
 40
1.0
 40
1.0
 40
1.0
 10
333.151402424
 20
641.0907287064
 30
0.0
 10
333.268798206
 20
641.1075832854
 30
0.0
 10
333.3865607895
 20
641.1222511299
 30
0.0
 10
333.5046429486
 20
641.1333168513
 30
0.0
  0
SPLINE
  5
6FE
100
AcDbEntity
  8
AXES
100
AcDbSpline
 62
7
  6
CONTINUOUS
 70
0
 71
3
 72
8
 73
4
 74
0
 42
0.0000001
 43
0.0000001
 44
0.0000000001
 40
0.0
 40
0.0
 40
0.0
 40
0.0
 40
1.0
 40
1.0
 40
1.0
 40
1.0
 10
325.2576094386
 20
634.3219925638
 30
0.0
 10
325.4014643423
 20
634.333535172
 30
0.0
 10
325.5448947727
 20
634.3507643197
 30
0.0
 10
325.6877473569
 20
634.3712729594
 30
0.0
  0
SPLINE
  5
6FF
100
AcDbEntity
  8
AXES
100
AcDbSpline
 62
7
  6
CONTINUOUS
 70
0
 71
3
 72
8
 73
4
 74
0
 42
0.0000001
 43
0.0000001
 44
0.0000000001
 40
0.0
 40
0.0
 40
0.0
 40
0.0
 40
1.0
 40
1.0
 40
1.0
 40
1.0
 10
325.6877473569
 20
634.3712729594
 30
0.0
 10
325.8355681743
 20
634.3924948639
 30
0.0
 10
325.9828866033
 20
634.4171173315
 30
0.0
 10
326.130198779
 20
634.4416221514
 30
0.0
  0
SPLINE
  5
700
100
AcDbEntity
  8
AXES
100
AcDbSpline
 62
7
  6
CONTINUOUS
 70
0
 71
3
 72
8
 73
4
 74
0
 42
0.0000001
 43
0.0000001
 44
0.0000000001
 40
0.0
 40
0.0
 40
0.0
 40
0.0
 40
1.0
 40
1.0
 40
1.0
 40
1.0
 10
325.2576094386
 20
201.1400074362
 30
0.0
 10
325.4014643423
 20
201.128464828
 30
0.0
 10
325.5448947727
 20
201.1112356803
 30
0.0
 10
325.6877473569
 20
201.0907270406
 30
0.0
  0
SPLINE
  5
701
100
AcDbEntity
  8
AXES
100
AcDbSpline
 62
7
  6
CONTINUOUS
 70
0
 71
3
 72
8
 73
4
 74
0
 42
0.0000001
 43
0.0000001
 44
0.0000000001
 40
0.0
 40
0.0
 40
0.0
 40
0.0
 40
1.0
 40
1.0
 40
1.0
 40
1.0
 10
325.6877473569
 20
201.0907270406
 30
0.0
 10
325.8355681743
 20
201.0695051361
 30
0.0
 10
325.9828866033
 20
201.0448826685
 30
0.0
 10
326.130198779
 20
201.0203778486
 30
0.0
  0
SPLINE
  5
702
100
AcDbEntity
  8
AXES
100
AcDbSpline
 62
7
  6
CONTINUOUS
 70
0
 71
3
 72
9
 73
5
 74
0
 42
0.0000001
 43
0.0000001
 44
0.0000000001
 40
0.0
 40
0.0
 40
0.0
 40
0.0
 40
0.194048154
 40
1.0
 40
1.0
 40
1.0
 40
1.0
 10
324.7376831827
 20
634.305
 30
0.0
 10
324.6888683616
 20
634.305
 30
0.0
 10
324.4373594835
 20
634.2420819386
 30
0.0
 10
324.2698828326
 20
634.0210436209
 30
0.0
 10
324.1552619549
 20
633.8538078504
 30
0.0
  0
SPLINE
  5
703
100
AcDbEntity
  8
AXES
100
AcDbSpline
 62
7
  6
CONTINUOUS
 70
0
 71
3
 72
8
 73
4
 74
0
 42
0.0000001
 43
0.0000001
 44
0.0000000001
 40
0.0
 40
0.0
 40
0.0
 40
0.0
 40
1.0
 40
1.0
 40
1.0
 40
1.0
 10
324.1552619549
 20
633.8538078504
 30
0.0
 10
324.098507445
 20
633.7710010844
 30
0.0
 10
324.0464367295
 20
633.6849510898
 30
0.0
 10
323.9969330592
 20
633.5976159794
 30
0.0
  0
SPLINE
  5
704
100
AcDbEntity
  8
AXES
100
AcDbSpline
 62
7
  6
CONTINUOUS
 70
0
 71
3
 72
9
 73
5
 74
0
 42
0.0000001
 43
0.0000001
 44
0.0000000001
 40
0.0
 40
0.0
 40
0.0
 40
0.0
 40
0.2252114411
 40
1.0
 40
1.0
 40
1.0
 40
1.0
 10
323.9969330592
 20
633.5976159794
 30
0.0
 10
323.9575476293
 20
633.5281316189
 30
0.0
 10
323.7900768136
 20
633.2153979426
 30
0.0
 10
323.6413253501
 20
632.8932193856
 30
0.0
 10
323.5255524943
 20
632.6440236371
 30
0.0
  0
SPLINE
  5
705
100
AcDbEntity
  8
AXES
100
AcDbSpline
 62
7
  6
CONTINUOUS
 70
0
 71
3
 72
9
 73
5
 74
0
 42
0.0000001
 43
0.0000001
 44
0.0000000001
 40
0.0
 40
0.0
 40
0.0
 40
0.0
 40
0.194048154
 40
1.0
 40
1.0
 40
1.0
 40
1.0
 10
324.7376831827
 20
201.157
 30
0.0
 10
324.6888683616
 20
201.157
 30
0.0
 10
324.4373594835
 20
201.2199180614
 30
0.0
 10
324.2698828326
 20
201.4409563791
 30
0.0
 10
324.1552619549
 20
201.6081921496
 30
0.0
  0
SPLINE
  5
706
100
AcDbEntity
  8
AXES
100
AcDbSpline
 62
7
  6
CONTINUOUS
 70
0
 71
3
 72
8
 73
4
 74
0
 42
0.0000001
 43
0.0000001
 44
0.0000000001
 40
0.0
 40
0.0
 40
0.0
 40
0.0
 40
1.0
 40
1.0
 40
1.0
 40
1.0
 10
324.1552619549
 20
201.6081921496
 30
0.0
 10
324.098507445
 20
201.6909989156
 30
0.0
 10
324.0464367295
 20
201.7770489102
 30
0.0
 10
323.9969330592
 20
201.8643840206
 30
0.0
  0
SPLINE
  5
707
100
AcDbEntity
  8
AXES
100
AcDbSpline
 62
7
  6
CONTINUOUS
 70
0
 71
3
 72
9
 73
5
 74
0
 42
0.0000001
 43
0.0000001
 44
0.0000000001
 40
0.0
 40
0.0
 40
0.0
 40
0.0
 40
0.2252114411
 40
1.0
 40
1.0
 40
1.0
 40
1.0
 10
323.9969330592
 20
201.8643840206
 30
0.0
 10
323.9575476293
 20
201.9338683811
 30
0.0
 10
323.7900768136
 20
202.2466020574
 30
0.0
 10
323.6413253501
 20
202.5687806144
 30
0.0
 10
323.5255524943
 20
202.8179763629
 30
0.0
  0
SPLINE
  5
708
100
AcDbEntity
  8
AXES
100
AcDbSpline
 62
7
  6
CONTINUOUS
 70
0
 71
3
 72
9
 73
5
 74
0
 42
0.0000001
 43
0.0000001
 44
0.0000000001
 40
0.0
 40
0.0
 40
0.0
 40
0.0
 40
0.194048154
 40
1.0
 40
1.0
 40
1.0
 40
1.0
 10
851.9183168173
 20
201.157
 30
0.0
 10
851.9671316384
 20
201.157
 30
0.0
 10
852.2186405165
 20
201.2199180614
 30
0.0
 10
852.3861171674
 20
201.4409563791
 30
0.0
 10
852.5007380451
 20
201.6081921496
 30
0.0
  0
SPLINE
  5
709
100
AcDbEntity
  8
AXES
100
AcDbSpline
 62
7
  6
CONTINUOUS
 70
0
 71
3
 72
8
 73
4
 74
0
 42
0.0000001
 43
0.0000001
 44
0.0000000001
 40
0.0
 40
0.0
 40
0.0
 40
0.0
 40
1.0
 40
1.0
 40
1.0
 40
1.0
 10
852.5007380451
 20
201.6081921496
 30
0.0
 10
852.557492555
 20
201.6909989156
 30
0.0
 10
852.6095632705
 20
201.7770489102
 30
0.0
 10
852.6590669408
 20
201.8643840206
 30
0.0
  0
SPLINE
  5
70A
100
AcDbEntity
  8
AXES
100
AcDbSpline
 62
7
  6
CONTINUOUS
 70
0
 71
3
 72
9
 73
5
 74
0
 42
0.0000001
 43
0.0000001
 44
0.0000000001
 40
0.0
 40
0.0
 40
0.0
 40
0.0
 40
0.2252114411
 40
1.0
 40
1.0
 40
1.0
 40
1.0
 10
852.6590669408
 20
201.8643840206
 30
0.0
 10
852.6984523707
 20
201.9338683811
 30
0.0
 10
852.8659231864
 20
202.2466020574
 30
0.0
 10
853.0146746499
 20
202.5687806144
 30
0.0
 10
853.1304475057
 20
202.8179763629
 30
0.0
  0
SPLINE
  5
70B
100
AcDbEntity
  8
AXES
100
AcDbSpline
 62
7
  6
CONTINUOUS
 70
0
 71
3
 72
9
 73
5
 74
0
 42
0.0000001
 43
0.0000001
 44
0.0000000001
 40
0.0
 40
0.0
 40
0.0
 40
0.0
 40
0.194048154
 40
1.0
 40
1.0
 40
1.0
 40
1.0
 10
851.9183168173
 20
634.305
 30
0.0
 10
851.9671316384
 20
634.305
 30
0.0
 10
852.2186405165
 20
634.2420819386
 30
0.0
 10
852.3861171674
 20
634.0210436209
 30
0.0
 10
852.5007380451
 20
633.8538078504
 30
0.0
  0
SPLINE
  5
70C
100
AcDbEntity
  8
AXES
100
AcDbSpline
 62
7
  6
CONTINUOUS
 70
0
 71
3
 72
8
 73
4
 74
0
 42
0.0000001
 43
0.0000001
 44
0.0000000001
 40
0.0
 40
0.0
 40
0.0
 40
0.0
 40
1.0
 40
1.0
 40
1.0
 40
1.0
 10
852.5007380451
 20
633.8538078504
 30
0.0
 10
852.557492555
 20
633.7710010844
 30
0.0
 10
852.6095632705
 20
633.6849510898
 30
0.0
 10
852.6590669408
 20
633.5976159794
 30
0.0
  0
SPLINE
  5
70D
100
AcDbEntity
  8
AXES
100
AcDbSpline
 62
7
  6
CONTINUOUS
 70
0
 71
3
 72
9
 73
5
 74
0
 42
0.0000001
 43
0.0000001
 44
0.0000000001
 40
0.0
 40
0.0
 40
0.0
 40
0.0
 40
0.2252114411
 40
1.0
 40
1.0
 40
1.0
 40
1.0
 10
852.6590669408
 20
633.5976159794
 30
0.0
 10
852.6984523707
 20
633.5281316189
 30
0.0
 10
852.8659231864
 20
633.2153979426
 30
0.0
 10
853.0146746499
 20
632.8932193856
 30
0.0
 10
853.1304475057
 20
632.6440236371
 30
0.0
  0
SPLINE
  5
70E
100
AcDbEntity
  8
AXES
100
AcDbSpline
 62
7
  6
CONTINUOUS
 70
0
 71
3
 72
8
 73
4
 74
0
 42
0.0000001
 43
0.0000001
 44
0.0000000001
 40
0.0
 40
0.0
 40
0.0
 40
0.0
 40
1.0
 40
1.0
 40
1.0
 40
1.0
 10
800.6173778486
 20
151.1119544761
 30
0.0
 10
800.6418824951
 20
151.2592656096
 30
0.0
 10
800.6665061545
 20
151.4065827668
 30
0.0
 10
800.6877287064
 20
151.554402424
 30
0.0
  0
SPLINE
  5
70F
100
AcDbEntity
  8
AXES
100
AcDbSpline
 62
7
  6
CONTINUOUS
 70
0
 71
3
 72
8
 73
4
 74
0
 42
0.0000001
 43
0.0000001
 44
0.0000000001
 40
0.0
 40
0.0
 40
0.0
 40
0.0
 40
1.0
 40
1.0
 40
1.0
 40
1.0
 10
800.6877287064
 20
151.554402424
 30
0.0
 10
800.7045832851
 20
151.6717982039
 30
0.0
 10
800.7192511294
 20
151.7895607852
 30
0.0
 10
800.7303168507
 20
151.907642942
 30
0.0
  0
SPLINE
  5
710
100
AcDbEntity
  8
AXES
100
AcDbSpline
 62
7
  6
CONTINUOUS
 70
0
 71
3
 72
8
 73
4
 74
0
 42
0.0000001
 43
0.0000001
 44
0.0000000001
 40
0.0
 40
0.0
 40
0.0
 40
0.0
 40
1.0
 40
1.0
 40
1.0
 40
1.0
 10
376.0386221514
 20
151.1119544761
 30
0.0
 10
376.0141175049
 20
151.2592656096
 30
0.0
 10
375.9894938455
 20
151.4065827668
 30
0.0
 10
375.9682712936
 20
151.554402424
 30
0.0
  0
SPLINE
  5
711
100
AcDbEntity
  8
AXES
100
AcDbSpline
 62
7
  6
CONTINUOUS
 70
0
 71
3
 72
8
 73
4
 74
0
 42
0.0000001
 43
0.0000001
 44
0.0000000001
 40
0.0
 40
0.0
 40
0.0
 40
0.0
 40
1.0
 40
1.0
 40
1.0
 40
1.0
 10
375.9682712936
 20
151.554402424
 30
0.0
 10
375.9514167146
 20
151.6717982065
 30
0.0
 10
375.93674887
 20
151.7895607905
 30
0.0
 10
375.9256831486
 20
151.90764295
 30
0.0
  0
SPLINE
  5
712
100
AcDbEntity
  8
AXES
100
AcDbSpline
 62
7
  6
CONTINUOUS
 70
0
 71
3
 72
8
 73
4
 74
0
 42
0.0000001
 43
0.0000001
 44
0.0000000001
 40
0.0
 40
0.0
 40
0.0
 40
0.0
 40
1.0
 40
1.0
 40
1.0
 40
1.0
 10
793.9189925638
 20
143.6606094386
 30
0.0
 10
793.930535172
 20
143.8044643423
 30
0.0
 10
793.9477643197
 20
143.9478947727
 30
0.0
 10
793.9682729594
 20
144.0907473569
 30
0.0
  0
SPLINE
  5
713
100
AcDbEntity
  8
AXES
100
AcDbSpline
 62
7
  6
CONTINUOUS
 70
0
 71
3
 72
8
 73
4
 74
0
 42
0.0000001
 43
0.0000001
 44
0.0000000001
 40
0.0
 40
0.0
 40
0.0
 40
0.0
 40
1.0
 40
1.0
 40
1.0
 40
1.0
 10
793.9682729594
 20
144.0907473569
 30
0.0
 10
793.9894948639
 20
144.2385681743
 30
0.0
 10
794.0141173315
 20
144.3858866033
 30
0.0
 10
794.0386221514
 20
144.533198779
 30
0.0
  0
SPLINE
  5
714
100
AcDbEntity
  8
AXES
100
AcDbSpline
 62
7
  6
CONTINUOUS
 70
0
 71
3
 72
8
 73
4
 74
0
 42
0.0000001
 43
0.0000001
 44
0.0000000001
 40
0.0
 40
0.0
 40
0.0
 40
0.0
 40
1.0
 40
1.0
 40
1.0
 40
1.0
 10
382.7370074362
 20
143.6606094386
 30
0.0
 10
382.725464828
 20
143.8044643423
 30
0.0
 10
382.7082356803
 20
143.9478947727
 30
0.0
 10
382.6877270406
 20
144.0907473569
 30
0.0
  0
SPLINE
  5
715
100
AcDbEntity
  8
AXES
100
AcDbSpline
 62
7
  6
CONTINUOUS
 70
0
 71
3
 72
8
 73
4
 74
0
 42
0.0000001
 43
0.0000001
 44
0.0000000001
 40
0.0
 40
0.0
 40
0.0
 40
0.0
 40
1.0
 40
1.0
 40
1.0
 40
1.0
 10
382.6877270406
 20
144.0907473569
 30
0.0
 10
382.6665051361
 20
144.2385681743
 30
0.0
 10
382.6418826685
 20
144.3858866033
 30
0.0
 10
382.6173778486
 20
144.533198779
 30
0.0
  0
SPLINE
  5
716
100
AcDbEntity
  8
AXES
100
AcDbSpline
 62
7
  6
CONTINUOUS
 70
0
 71
3
 72
9
 73
5
 74
0
 42
0.0000001
 43
0.0000001
 44
0.0000000001
 40
0.0
 40
0.0
 40
0.0
 40
0.0
 40
0.194048154
 40
1.0
 40
1.0
 40
1.0
 40
1.0
 10
793.902
 20
143.1406831827
 30
0.0
 10
793.902
 20
143.0918683616
 30
0.0
 10
793.8390819386
 20
142.8403594835
 30
0.0
 10
793.6180436209
 20
142.6728828326
 30
0.0
 10
793.4508078504
 20
142.5582619549
 30
0.0
  0
SPLINE
  5
717
100
AcDbEntity
  8
AXES
100
AcDbSpline
 62
7
  6
CONTINUOUS
 70
0
 71
3
 72
8
 73
4
 74
0
 42
0.0000001
 43
0.0000001
 44
0.0000000001
 40
0.0
 40
0.0
 40
0.0
 40
0.0
 40
1.0
 40
1.0
 40
1.0
 40
1.0
 10
793.4508078504
 20
142.5582619549
 30
0.0
 10
793.3680010844
 20
142.501507445
 30
0.0
 10
793.2819510898
 20
142.4494367295
 30
0.0
 10
793.1946159794
 20
142.3999330592
 30
0.0
  0
SPLINE
  5
718
100
AcDbEntity
  8
AXES
100
AcDbSpline
 62
7
  6
CONTINUOUS
 70
0
 71
3
 72
9
 73
5
 74
0
 42
0.0000001
 43
0.0000001
 44
0.0000000001
 40
0.0
 40
0.0
 40
0.0
 40
0.0
 40
0.2252114411
 40
1.0
 40
1.0
 40
1.0
 40
1.0
 10
793.1946159794
 20
142.3999330592
 30
0.0
 10
793.1251316189
 20
142.3605476293
 30
0.0
 10
792.8123979426
 20
142.1930768136
 30
0.0
 10
792.4902193856
 20
142.0443253501
 30
0.0
 10
792.2410236371
 20
141.9285524943
 30
0.0
  0
SPLINE
  5
719
100
AcDbEntity
  8
AXES
100
AcDbSpline
 62
7
  6
CONTINUOUS
 70
0
 71
3
 72
9
 73
5
 74
0
 42
0.0000001
 43
0.0000001
 44
0.0000000001
 40
0.0
 40
0.0
 40
0.0
 40
0.0
 40
0.194048154
 40
1.0
 40
1.0
 40
1.0
 40
1.0
 10
382.754
 20
143.1406831827
 30
0.0
 10
382.754
 20
143.0918683616
 30
0.0
 10
382.8169180614
 20
142.8403594835
 30
0.0
 10
383.0379563791
 20
142.6728828326
 30
0.0
 10
383.2051921496
 20
142.5582619549
 30
0.0
  0
SPLINE
  5
71A
100
AcDbEntity
  8
AXES
100
AcDbSpline
 62
7
  6
CONTINUOUS
 70
0
 71
3
 72
8
 73
4
 74
0
 42
0.0000001
 43
0.0000001
 44
0.0000000001
 40
0.0
 40
0.0
 40
0.0
 40
0.0
 40
1.0
 40
1.0
 40
1.0
 40
1.0
 10
383.2051921496
 20
142.5582619549
 30
0.0
 10
383.2879989156
 20
142.501507445
 30
0.0
 10
383.3740489102
 20
142.4494367295
 30
0.0
 10
383.4613840206
 20
142.3999330592
 30
0.0
  0
SPLINE
  5
71B
100
AcDbEntity
  8
AXES
100
AcDbSpline
 62
7
  6
CONTINUOUS
 70
0
 71
3
 72
9
 73
5
 74
0
 42
0.0000001
 43
0.0000001
 44
0.0000000001
 40
0.0
 40
0.0
 40
0.0
 40
0.0
 40
0.2252114411
 40
1.0
 40
1.0
 40
1.0
 40
1.0
 10
383.4613840206
 20
142.3999330592
 30
0.0
 10
383.5308683811
 20
142.3605476293
 30
0.0
 10
383.8436020574
 20
142.1930768136
 30
0.0
 10
384.1657806144
 20
142.0443253501
 30
0.0
 10
384.4149763629
 20
141.9285524943
 30
0.0
  0
SPLINE
  5
71C
100
AcDbEntity
  8
AXES
100
AcDbSpline
 62
7
  6
CONTINUOUS
 70
0
 71
3
 72
8
 73
4
 74
0
 42
0.0000001
 43
0.0000001
 44
0.0000000001
 40
0.0
 40
0.0
 40
0.0
 40
0.0
 40
1.0
 40
1.0
 40
1.0
 40
1.0
 10
851.3983723615
 20
201.1400059758
 30
0.0
 10
851.2545235584
 20
201.128463387
 30
0.0
 10
851.1110992065
 20
201.1112348159
 30
0.0
 10
850.9682526431
 20
201.0907270406
 30
0.0
  0
SPLINE
  5
71D
100
AcDbEntity
  8
AXES
100
AcDbSpline
 62
7
  6
CONTINUOUS
 70
0
 71
3
 72
8
 73
4
 74
0
 42
0.0000001
 43
0.0000001
 44
0.0000000001
 40
0.0
 40
0.0
 40
0.0
 40
0.0
 40
1.0
 40
1.0
 40
1.0
 40
1.0
 10
850.9682526431
 20
201.0907270406
 30
0.0
 10
850.8204318257
 20
201.0695051361
 30
0.0
 10
850.6731133967
 20
201.0448826685
 30
0.0
 10
850.525801221
 20
201.0203778486
 30
0.0
  0
SPLINE
  5
71E
100
AcDbEntity
  8
AXES
100
AcDbSpline
 62
7
  6
CONTINUOUS
 70
0
 71
3
 72
8
 73
4
 74
0
 42
0.0000001
 43
0.0000001
 44
0.0000000001
 40
0.0
 40
0.0
 40
0.0
 40
0.0
 40
1.0
 40
1.0
 40
1.0
 40
1.0
 10
851.3983723615
 20
634.3219940242
 30
0.0
 10
851.2545235584
 20
634.333536613
 30
0.0
 10
851.1110992065
 20
634.3507651841
 30
0.0
 10
850.9682526431
 20
634.3712729594
 30
0.0
  0
SPLINE
  5
71F
100
AcDbEntity
  8
AXES
100
AcDbSpline
 62
7
  6
CONTINUOUS
 70
0
 71
3
 72
8
 73
4
 74
0
 42
0.0000001
 43
0.0000001
 44
0.0000000001
 40
0.0
 40
0.0
 40
0.0
 40
0.0
 40
1.0
 40
1.0
 40
1.0
 40
1.0
 10
850.9682526431
 20
634.3712729594
 30
0.0
 10
850.8204318257
 20
634.3924948639
 30
0.0
 10
850.6731133967
 20
634.4171173315
 30
0.0
 10
850.525801221
 20
634.4416221514
 30
0.0
  0
SPLINE
  5
720
100
AcDbEntity
  8
AXES
100
AcDbSpline
 62
7
  6
CONTINUOUS
 70
0
 71
3
 72
8
 73
4
 74
0
 42
0.0000001
 43
0.0000001
 44
0.0000000001
 40
0.0
 40
0.0
 40
0.0
 40
0.0
 40
1.0
 40
1.0
 40
1.0
 40
1.0
 10
843.9470455239
 20
194.4416221514
 30
0.0
 10
843.7997584454
 20
194.4171215063
 30
0.0
 10
843.6524653585
 20
194.3925018857
 30
0.0
 10
843.5046699984
 20
194.3712816916
 30
0.0
  0
SPLINE
  5
721
100
AcDbEntity
  8
AXES
100
AcDbSpline
 62
7
  6
CONTINUOUS
 70
0
 71
3
 72
8
 73
4
 74
0
 42
0.0000001
 43
0.0000001
 44
0.0000000001
 40
0.0
 40
0.0
 40
0.0
 40
0.0
 40
1.0
 40
1.0
 40
1.0
 40
1.0
 10
843.5046699984
 20
194.3712816916
 30
0.0
 10
843.3872502091
 20
194.3544227677
 30
0.0
 10
843.2694634882
 20
194.3397511453
 30
0.0
 10
843.1513570544
 20
194.328683149
 30
0.0
  0
SPLINE
  5
722
100
AcDbEntity
  8
AXES
100
AcDbSpline
 62
7
  6
CONTINUOUS
 70
0
 71
3
 72
8
 73
4
 74
0
 42
0.0000001
 43
0.0000001
 44
0.0000000001
 40
0.0
 40
0.0
 40
0.0
 40
0.0
 40
1.0
 40
1.0
 40
1.0
 40
1.0
 10
843.9470455239
 20
641.0203778486
 30
0.0
 10
843.7997584454
 20
641.0448784937
 30
0.0
 10
843.6524653585
 20
641.0694981143
 30
0.0
 10
843.5046699984
 20
641.0907183084
 30
0.0
  0
SPLINE
  5
723
100
AcDbEntity
  8
AXES
100
AcDbSpline
 62
7
  6
CONTINUOUS
 70
0
 71
3
 72
8
 73
4
 74
0
 42
0.0000001
 43
0.0000001
 44
0.0000000001
 40
0.0
 40
0.0
 40
0.0
 40
0.0
 40
1.0
 40
1.0
 40
1.0
 40
1.0
 10
843.5046699984
 20
641.0907183084
 30
0.0
 10
843.3872502075
 20
641.1075772325
 30
0.0
 10
843.269463485
 20
641.1222488551
 30
0.0
 10
843.1513570496
 20
641.1333168515
 30
0.0
  0
ENDSEC
  0
SECTION
  2
OBJECTS
  0
DICTIONARY
  5
C
100
AcDbDictionary
280
0
281
1
  3
ACAD_GROUP
350
D
  3
ACAD_MLINESTYLE
350
17
  3
ACAD_LAYOUT
350
1A
  3
ACAD_PLOTSETTINGS
350
19
  3
ACAD_PLOTSTYLENAME
350
E
  0
DICTIONARY
  5
D
102
{ACAD_REACTORS
330
C
102
}
100
AcDbDictionary
280
0
281
1
  0
ACDBDICTIONARYWDFLT
  5
E
102
{ACAD_REACTORS
330
C
102
}
100
AcDbDictionary
281
1
  3
Normal
350
F
100
AcDbDictionaryWithDefault
340
F
  0
DICTIONARY
  5
17
102
{ACAD_REACTORS
330
C
102
}
100
AcDbDictionary
280
0
281
1
  3
Standard
350
18
  0
DICTIONARY
  5
19
102
{ACAD_REACTORS
330
C
102
}
100
AcDbDictionary
281
1
  0
DICTIONARY
  5
1A
102
{ACAD_REACTORS
330
C
102
}
100
AcDbDictionary
281
1
  3
Model
350
724
  3
Layout1
350
725
  0
ACDBPLACEHOLDER
  5
F
102
{ACAD_REACTORS
330
E
102
}
  0
MLINESTYLE
  5
18
102
{ACAD_REACTORS
330
17
102
}
100
AcDbMlineStyle
  2
STANDARD
 70
0
  3

 62
256
 51
90.0
 52
90.0
 71
2
 49
0.5
 62
256
  6
BYLAYER
 49
-0.5
 62
256
  6
BYLAYER
  0
LAYOUT
  5
724
102
{ACAD_REACTORS
330
1A
102
}
100
AcDbPlotSettings
  1

  2
none_device
  4
ISO_A0_(1189.00_x_841.00_MM)
  6

 40
0.0
 41
0.0
 42
0.0
 43
0.0
 44
1189.0
 45
841.0
 46
0.0
 47
0.0
 48
0.0
 49
0.0
140
0.0
141
0.0
142
1.0
143
1.0
 70
1024
 72
1
 73
0
 74
0
  7

 75
0
147
1.0
148
0.0
149
0.0
100
AcDbLayout
  1
Model
 70
0
 71
0
 10
0.0
 20
0.0
 11
1189.0
 21
841.0
 12
0.0
 22
0.0
 32
0.0
 14
0.0
 24
0.0
 34
0.0
 15
0.0
 25
0.0
 35
0.0
146
0.0
 13
0.0
 23
0.0
 33
0.0
 16
1.0
 26
0.0
 36
0.0
 17
0.0
 27
1.0
 37
0.0
 76
0
330
496
345
0
346
0
  0
LAYOUT
  5
725
102
{ACAD_REACTORS
330
1A
102
}
100
AcDbPlotSettings
  1

  2
none_device
  4
ISO_A0_(1189.00_x_841.00_MM)
  6

 40
0.0
 41
0.0
 42
0.0
 43
0.0
 44
1189.0
 45
841.0
 46
0.0
 47
0.0
 48
0.0
 49
0.0
140
0.0
141
0.0
142
1.0
143
1.0
 70
0
 72
1
 73
0
 74
0
  7

 75
0
147
1.0
148
0.0
149
0.0
100
AcDbLayout
  1
Layout1
 70
0
 71
1
 10
0.0
 20
0.0
 11
1189.0
 21
841.0
 12
0.0
 22
0.0
 32
0.0
 14
0.0
 24
0.0
 34
0.0
 15
0.0
 25
0.0
 35
0.0
146
0.0
 13
0.0
 23
0.0
 33
0.0
 16
1.0
 26
0.0
 36
0.0
 17
0.0
 27
1.0
 37
0.0
 76
0
330
497
345
0
346
0
  0
ENDSEC
  0
EOF
