999
DXF file: E:\Git\roach2_chassis_design\roach_2_manufacture\dxf\roach-2-chassis-flat-dxf.dxf
999
Pro/ENGINEER 2010180 by Parametric Technology Corporation
  0
SECTION
  2
HEADER
  9
$ACADVER
  1
AC1021
  9
$DWGCODEPAGE
  3
ANSI_1252
  9
$EXTMAX
 10
1189.0
 20
841.0
 30
0.0
  9
$EXTMIN
 10
0.0
 20
0.0
 30
0.0
  9
$LIMMIN
 10
0.0
 20
0.0
  9
$LIMMAX
 10
1189.0
 20
841.0
  9
$VIEWCTR
 10
594.5
 20
420.5
  9
$VIEWSIZE
 40
841.0
  9
$CLAYER
  8
0
  9
$LTSCALE
 40
65.395
  9
$CELTYPE
  6
BYLAYER
  9
$DIMSCALE
 40
1.0
  9
$DIMASZ
 40
3.5
  9
$DIMEXO
 40
7.43125
  9
$DIMDLI
 40
45.182
  9
$DIMEXE
 40
21.402
  9
$DIMCEN
 40
10.701
  9
$DIMLFAC
 40
1.0
  9
$DIMBLK
  1
_FILLED
  9
$DIMTXT
 40
3.5
  9
$DIMTOL
 70
1
  9
$DIMLIM
 70
0
  9
$DIMTFAC
 40
1.0
  9
$DIMTP
 40
0.01
  9
$DIMTM
 40
0.01
  9
$PDMODE
 70
3
  9
$PDSIZE
 40
0.25
  9
$HANDSEED
  5
492
  9
$TILEMODE
 70
1
  9
$MEASUREMENT
 70
1
  9
$INSUNITS
 70
4
  0
ENDSEC
  0
SECTION
  2
CLASSES
  0
CLASS
  1
ACDBDICTIONARYWDFLT
  2
AcDbDictionaryWithDefault
  3
AutoCAD 2000
 90
0
 91
1
280
0
281
0
  0
CLASS
  1
ACDBPLACEHOLDER
  2
AcDbPlaceHolder
  3
AutoCAD 2000
 90
0
 91
1
280
0
281
0
  0
CLASS
  1
LAYOUT
  2
AcDbLayout
  3
AutoCAD 2000
 90
0
 91
0
280
0
281
0
  0
ENDSEC
  0
SECTION
  2
TABLES
  0
TABLE
  2
VPORT
  5
8
100
AcDbSymbolTable
 70
2
  0
VPORT
  5
1F4
100
AcDbSymbolTableRecord
100
AcDbViewportTableRecord
  2
*ACTIVE
 70
0
 10
0.0
 20
0.0
 11
1.0
 21
1.0
 12
594.5
 22
420.5
 13
0.0
 23
0.0
 14
1.0
 24
1.0
 15
0.0
 25
0.0
 16
0.0
 26
0.0
 36
1.0
 17
0.0
 27
0.0
 37
0.0
 40
841.0
 41
1.4137931034
 42
50.0
 43
0.0
 44
0.0
 50
0.0
 51
0.0
 71
0
 72
100
 73
1
 74
1
 75
0
 76
0
 77
0
 78
0
  0
ENDTAB
  0
TABLE
  2
LTYPE
  5
5
100
AcDbSymbolTable
 70
6
  0
LTYPE
  5
14
100
AcDbSymbolTableRecord
100
AcDbLinetypeTableRecord
  2
BYBLOCK
 70
0
  3

 72
65
 73
0
 40
0.0
  0
LTYPE
  5
15
100
AcDbSymbolTableRecord
100
AcDbLinetypeTableRecord
  2
BYLAYER
 70
0
  3

 72
65
 73
0
 40
0.0
  0
LTYPE
  5
16
100
AcDbSymbolTableRecord
100
AcDbLinetypeTableRecord
  2
CONTINUOUS
 70
64
  3
Solid line
 72
65
 73
0
 40
0.0
  0
LTYPE
  5
1F5
100
AcDbSymbolTableRecord
100
AcDbLinetypeTableRecord
  2
CENTER
 70
64
  3
____ _ ____ _ ____ _ ____ _ ____ _ ____ _ ____
 72
65
 73
4
 40
0.6
 49
0.375
 74
0
 49
-0.075
 74
0
 49
0.075
 74
0
 49
-0.075
 74
0
  0
LTYPE
  5
1F6
100
AcDbSymbolTableRecord
100
AcDbLinetypeTableRecord
  2
HIDDEN
 70
64
  3
- - - - - - - - - - - - - - - - - - - -
 72
65
 73
2
 40
0.2
 49
0.1
 74
0
 49
-0.1
 74
0
  0
LTYPE
  5
1F7
100
AcDbSymbolTableRecord
100
AcDbLinetypeTableRecord
  2
PHANTOM
 70
64
  3
_____ _ _ _____ _ _ _____ _ _ _____
 72
65
 73
6
 40
0.8
 49
0.45
 74
0
 49
-0.05
 74
0
 49
0.1
 74
0
 49
-0.05
 74
0
 49
0.1
 74
0
 49
-0.05
 74
0
  0
LTYPE
  5
1F8
100
AcDbSymbolTableRecord
100
AcDbLinetypeTableRecord
  2
DOT
 70
64
  3
. . . . . . . . . . . . . . . . . . . .
 72
65
 73
2
 40
0.2
 49
0.1
 74
0
 49
-0.1
 74
0
  0
LTYPE
  5
1F9
100
AcDbSymbolTableRecord
100
AcDbLinetypeTableRecord
  2
DASHED
 70
64
  3
- - - - - - - - - - - - - - - - - - - -
 72
65
 73
2
 40
0.2
 49
0.1
 74
0
 49
-0.1
 74
0
  0
ENDTAB
  0
TABLE
  2
LAYER
  5
2
100
AcDbSymbolTable
 70
36
  0
LAYER
  5
10
100
AcDbSymbolTableRecord
100
AcDbLayerTableRecord
  2
0
 70
0
 62
7
  6
CONTINUOUS
370
-3
390
F
  0
LAYER
  5
1FA
100
AcDbSymbolTableRecord
100
AcDbLayerTableRecord
  2
DEFAULT_1
 70
0
 62
7
  6
CENTER
370
-3
390
F
  0
LAYER
  5
1FB
100
AcDbSymbolTableRecord
100
AcDbLayerTableRecord
  2
DEFAULT_2
 70
0
 62
8
  6
HIDDEN
370
-3
390
F
  0
LAYER
  5
1FC
100
AcDbSymbolTableRecord
100
AcDbLayerTableRecord
  2
DEFAULT_3
 70
0
 62
7
  6
PHANTOM
370
-3
390
F
  0
LAYER
  5
1FD
100
AcDbSymbolTableRecord
100
AcDbLayerTableRecord
  2
01___PRT_ALL_DTM_PLN
 70
0
 62
7
  6
CONTINUOUS
370
-3
390
F
  0
LAYER
  5
1FE
100
AcDbSymbolTableRecord
100
AcDbLayerTableRecord
  2
01___PRT_DEF_DTM_PLN
 70
0
 62
7
  6
CONTINUOUS
370
-3
390
F
  0
LAYER
  5
1FF
100
AcDbSymbolTableRecord
100
AcDbLayerTableRecord
  2
02___PRT_ALL_AXES
 70
0
 62
7
  6
CONTINUOUS
370
-3
390
F
  0
LAYER
  5
200
100
AcDbSymbolTableRecord
100
AcDbLayerTableRecord
  2
03___PRT_ALL_CURVES
 70
0
 62
7
  6
CONTINUOUS
370
-3
390
F
  0
LAYER
  5
201
100
AcDbSymbolTableRecord
100
AcDbLayerTableRecord
  2
04___PRT_ALL_DTM_PNT
 70
0
 62
7
  6
CONTINUOUS
370
-3
390
F
  0
LAYER
  5
202
100
AcDbSymbolTableRecord
100
AcDbLayerTableRecord
  2
05___PRT_ALL_DTM_CSYS
 70
0
 62
7
  6
CONTINUOUS
370
-3
390
F
  0
LAYER
  5
203
100
AcDbSymbolTableRecord
100
AcDbLayerTableRecord
  2
05___PRT_DEF_DTM_CSYS
 70
0
 62
7
  6
CONTINUOUS
370
-3
390
F
  0
LAYER
  5
204
100
AcDbSymbolTableRecord
100
AcDbLayerTableRecord
  2
06___PRT_ALL_SURFS
 70
0
 62
7
  6
CONTINUOUS
370
-3
390
F
  0
LAYER
  5
205
100
AcDbSymbolTableRecord
100
AcDbLayerTableRecord
  2
AXES
 70
0
 62
7
  6
CONTINUOUS
370
-3
390
F
  0
LAYER
  5
206
100
AcDbSymbolTableRecord
100
AcDbLayerTableRecord
  2
CSYS
 70
0
 62
7
  6
CONTINUOUS
370
-3
390
F
  0
LAYER
  5
207
100
AcDbSymbolTableRecord
100
AcDbLayerTableRecord
  2
PLANES
 70
0
 62
7
  6
CONTINUOUS
370
-3
390
F
  0
LAYER
  5
208
100
AcDbSymbolTableRecord
100
AcDbLayerTableRecord
  2
WHITE
 70
0
 62
7
  6
CONTINUOUS
370
-3
390
F
  0
ENDTAB
  0
TABLE
  2
STYLE
  5
3
100
AcDbSymbolTable
 70
1
  0
STYLE
  5
11
100
AcDbSymbolTableRecord
100
AcDbTextStyleTableRecord
  2
STANDARD
 70
0
 40
0.0
 41
0.8
 50
0.0
 71
0
 42
0.2
  3
txt
  4

  0
STYLE
  5
209
100
AcDbSymbolTableRecord
100
AcDbTextStyleTableRecord
  2
TEXTSTYLE_1
 70
0
 40
0.0
 41
0.8
 50
0.0
 71
0
 42
0.2
  3
gdt
  4

  0
ENDTAB
  0
TABLE
  2
VIEW
  5
6
100
AcDbSymbolTable
 70
0
  0
ENDTAB
  0
TABLE
  2
UCS
  5
7
100
AcDbSymbolTable
 70
0
  0
ENDTAB
  0
TABLE
  2
APPID
  5
9
100
AcDbSymbolTable
 70
1
  0
APPID
  5
20A
100
AcDbSymbolTableRecord
100
AcDbRegAppTableRecord
  2
ACAD
 70
0
  0
ENDTAB
  0
TABLE
  2
BLOCK_RECORD
  5
1
100
AcDbSymbolTable
 70
0
  0
BLOCK_RECORD
  5
20B
100
AcDbSymbolTableRecord
100
AcDbBlockTableRecord
  2
*Model_Space
  0
BLOCK_RECORD
  5
20C
100
AcDbSymbolTableRecord
100
AcDbBlockTableRecord
  2
*Paper_Space
  0
ENDTAB
  0
TABLE
  2
DIMSTYLE
  5
A
100
AcDbSymbolTable
 70
1
100
AcDbDimStyleTable
 71
0
  0
DIMSTYLE
105
20D
100
AcDbSymbolTableRecord
100
AcDbDimStyleTableRecord
  2
STANDARD
 70
0
  3

  4

 40
1.0
 41
3.5
 42
0.0625
 43
0.38
 44
0.18
 45
0.0
 46
0.0
 47
0.01
 48
0.01
140
3.5
141
0.09
142
0.0
143
25.4
144
1.0
145
0.0
146
1.0
147
0.09
 71
1.0
 72
0.0
 73
0
 74
0
 75
0
 76
0
 77
1
 78
8
170
0
171
2
172
0
173
0
174
0
175
0
176
0
177
0
178
0
270
2
271
2
272
2
273
2
274
2
275
0
280
0
281
0
282
0
283
1
284
8
285
0
286
0
287
3
288
0
340
11
  0
ENDTAB
  0
ENDSEC
  0
SECTION
  2
BLOCKS
  0
BLOCK
  5
20
100
AcDbEntity
  8
0
100
AcDbBlockBegin
  2
*Model_Space
 70
0
 10
0.0
 20
0.0
 30
0.0
  3
*Model_Space
  1

  0
ENDBLK
  5
21
100
AcDbEntity
  8
0
100
AcDbBlockEnd
  0
BLOCK
  5
1C
100
AcDbEntity
  8
0
100
AcDbBlockBegin
  2
*Paper_Space
 70
0
 10
0.0
 20
0.0
 30
0.0
  3
*Paper_Space
  1

  0
ENDBLK
  5
1D
100
AcDbEntity
  8
0
100
AcDbBlockEnd
  0
ENDSEC
  0
SECTION
  2
ENTITIES
  0
LINE
  5
20E
100
AcDbEntity
  8
0
100
AcDbLine
 62
7
  6
CONTINUOUS
 10
0.0
 20
0.0
 11
0.0
 21
841.0
  0
LINE
  5
20F
100
AcDbEntity
  8
0
100
AcDbLine
 62
7
  6
CONTINUOUS
 10
0.0
 20
0.0
 11
1189.0
 21
0.0
  0
LINE
  5
210
100
AcDbEntity
  8
0
100
AcDbLine
 62
7
  6
CONTINUOUS
 10
0.0
 20
841.0
 11
1189.0
 21
841.0
  0
LINE
  5
211
100
AcDbEntity
  8
0
100
AcDbLine
 62
7
  6
CONTINUOUS
 10
1189.0
 20
0.0
 11
1189.0
 21
841.0
  0
LINE
  5
212
100
AcDbEntity
  8
0
100
AcDbLine
 62
7
  6
CONTINUOUS
 10
323.5261718126
 20
632.6445014888
 11
313.6131481756
 21
622.7314778517
  0
LINE
  5
213
100
AcDbEntity
  8
0
100
AcDbLine
 62
7
  6
CONTINUOUS
 10
384.4155956813
 20
693.5339253574
 11
394.3286193183
 21
703.4469489945
  0
LINE
  5
214
100
AcDbEntity
  8
0
100
AcDbLine
 62
7
  6
CONTINUOUS
 10
326.1308180973
 20
634.4421000031
 11
332.7095737944
 21
641.0208557003
  0
LINE
  5
215
100
AcDbEntity
  8
0
100
AcDbLine
 62
7
  6
CONTINUOUS
 10
376.0392414698
 20
684.3505233756
 11
382.6179971669
 21
690.9292790728
  0
LINE
  5
216
100
AcDbEntity
  8
0
100
AcDbLine
 62
7
  6
CONTINUOUS
 10
323.5261718126
 20
202.8184542147
 11
313.6131481756
 21
212.7314778517
  0
LINE
  5
217
100
AcDbEntity
  8
0
100
AcDbLine
 62
7
  6
CONTINUOUS
 10
384.4155956813
 20
141.929030346
 11
394.3286193183
 21
132.016006709
  0
LINE
  5
218
100
AcDbEntity
  8
0
100
AcDbLine
 62
7
  6
CONTINUOUS
 10
326.1308180973
 20
201.0208557003
 11
332.7095737944
 21
194.4421000031
  0
LINE
  5
219
100
AcDbEntity
  8
0
100
AcDbLine
 62
7
  6
CONTINUOUS
 10
376.0392414698
 20
151.1124323278
 11
382.6179971669
 21
144.5336766307
  0
LINE
  5
21A
100
AcDbEntity
  8
0
100
AcDbLine
 62
7
  6
CONTINUOUS
 10
313.6131481756
 20
622.7314778517
 11
313.6131481756
 21
212.7314778517
  0
LINE
  5
21B
100
AcDbEntity
  8
AXES
100
AcDbLine
 62
7
  6
CENTER
 10
324.1322371568
 20
199.1574778517
 11
324.1322371568
 21
636.3054778517
  0
LINE
  5
21C
100
AcDbEntity
  8
AXES
100
AcDbLine
 62
7
  6
CENTER
 10
325.485761042
 20
636.4421000031
 11
325.485761042
 21
199.0208557003
  0
LINE
  5
21D
100
AcDbEntity
  8
0
100
AcDbLine
 62
7
  6
CONTINUOUS
 10
394.3286193183
 20
132.016006709
 11
782.3286193183
 21
132.016006709
  0
LINE
  5
21E
100
AcDbEntity
  8
AXES
100
AcDbLine
 62
7
  6
CENTER
 10
795.9026193183
 20
142.5350956902
 11
380.7546193183
 21
142.5350956902
  0
LINE
  5
21F
100
AcDbEntity
  8
AXES
100
AcDbLine
 62
7
  6
CENTER
 10
380.6179971669
 20
143.8886195754
 11
796.0392414698
 21
143.8886195754
  0
LINE
  5
220
100
AcDbEntity
  8
AXES
100
AcDbLine
 62
7
  6
CENTER
 10
373.9026193183
 20
151.7574893831
 11
802.7546193183
 21
151.7574893831
  0
LINE
  5
221
100
AcDbEntity
  8
0
100
AcDbLine
 62
7
  6
CONTINUOUS
 10
400.8476193183
 20
156.515924287
 11
405.9276193183
 21
156.515924287
  0
LINE
  5
222
100
AcDbEntity
  8
0
100
AcDbLine
 62
7
  6
CONTINUOUS
 10
408.2876193183
 20
156.515924287
 11
413.3676193183
 21
156.515924287
  0
LINE
  5
223
100
AcDbEntity
  8
0
100
AcDbLine
 62
7
  6
CONTINUOUS
 10
415.7276193183
 20
156.515924287
 11
420.8076193183
 21
156.515924287
  0
LINE
  5
224
100
AcDbEntity
  8
0
100
AcDbLine
 62
7
  6
CONTINUOUS
 10
616.8476193183
 20
156.515924287
 11
621.9276193183
 21
156.515924287
  0
LINE
  5
225
100
AcDbEntity
  8
0
100
AcDbLine
 62
7
  6
CONTINUOUS
 10
624.2876193183
 20
156.515924287
 11
629.3676193183
 21
156.515924287
  0
LINE
  5
226
100
AcDbEntity
  8
0
100
AcDbLine
 62
7
  6
CONTINUOUS
 10
631.7276193183
 20
156.515924287
 11
636.8076193183
 21
156.515924287
  0
LINE
  5
227
100
AcDbEntity
  8
0
100
AcDbLine
 62
7
  6
CONTINUOUS
 10
661.8476193183
 20
156.515924287
 11
666.9276193183
 21
156.515924287
  0
LINE
  5
228
100
AcDbEntity
  8
0
100
AcDbLine
 62
7
  6
CONTINUOUS
 10
669.2876193183
 20
156.515924287
 11
674.3676193183
 21
156.515924287
  0
LINE
  5
229
100
AcDbEntity
  8
0
100
AcDbLine
 62
7
  6
CONTINUOUS
 10
676.7276193183
 20
156.515924287
 11
681.8076193183
 21
156.515924287
  0
LINE
  5
22A
100
AcDbEntity
  8
AXES
100
AcDbLine
 62
7
  6
CENTER
 10
333.3546308497
 20
643.1574778517
 11
333.3546308497
 21
192.3054778517
  0
LINE
  5
22B
100
AcDbEntity
  8
0
100
AcDbLine
 62
7
  6
CONTINUOUS
 10
681.8076193183
 20
161.595924287
 11
676.7276193183
 21
161.595924287
  0
LINE
  5
22C
100
AcDbEntity
  8
0
100
AcDbLine
 62
7
  6
CONTINUOUS
 10
674.3676193183
 20
161.595924287
 11
669.2876193183
 21
161.595924287
  0
LINE
  5
22D
100
AcDbEntity
  8
0
100
AcDbLine
 62
7
  6
CONTINUOUS
 10
666.9276193183
 20
161.595924287
 11
661.8476193183
 21
161.595924287
  0
LINE
  5
22E
100
AcDbEntity
  8
0
100
AcDbLine
 62
7
  6
CONTINUOUS
 10
636.8076193183
 20
161.595924287
 11
631.7276193183
 21
161.595924287
  0
LINE
  5
22F
100
AcDbEntity
  8
0
100
AcDbLine
 62
7
  6
CONTINUOUS
 10
629.3676193183
 20
161.595924287
 11
624.2876193183
 21
161.595924287
  0
LINE
  5
230
100
AcDbEntity
  8
0
100
AcDbLine
 62
7
  6
CONTINUOUS
 10
621.9276193183
 20
161.595924287
 11
616.8476193183
 21
161.595924287
  0
LINE
  5
231
100
AcDbEntity
  8
0
100
AcDbLine
 62
7
  6
CONTINUOUS
 10
420.8076193183
 20
161.595924287
 11
415.7276193183
 21
161.595924287
  0
LINE
  5
232
100
AcDbEntity
  8
0
100
AcDbLine
 62
7
  6
CONTINUOUS
 10
413.3676193183
 20
161.595924287
 11
408.2876193183
 21
161.595924287
  0
LINE
  5
233
100
AcDbEntity
  8
0
100
AcDbLine
 62
7
  6
CONTINUOUS
 10
405.9276193183
 20
161.595924287
 11
400.8476193183
 21
161.595924287
  0
LINE
  5
234
100
AcDbEntity
  8
0
100
AcDbLine
 62
7
  6
CONTINUOUS
 10
393.4076193183
 20
163.955924287
 11
398.4876193183
 21
163.955924287
  0
LINE
  5
235
100
AcDbEntity
  8
0
100
AcDbLine
 62
7
  6
CONTINUOUS
 10
400.8476193183
 20
163.955924287
 11
405.9276193183
 21
163.955924287
  0
LINE
  5
236
100
AcDbEntity
  8
0
100
AcDbLine
 62
7
  6
CONTINUOUS
 10
408.2876193183
 20
163.955924287
 11
413.3676193183
 21
163.955924287
  0
LINE
  5
237
100
AcDbEntity
  8
0
100
AcDbLine
 62
7
  6
CONTINUOUS
 10
415.7276193183
 20
163.955924287
 11
420.8076193183
 21
163.955924287
  0
LINE
  5
238
100
AcDbEntity
  8
0
100
AcDbLine
 62
7
  6
CONTINUOUS
 10
423.1676193183
 20
163.955924287
 11
428.2476193183
 21
163.955924287
  0
LINE
  5
239
100
AcDbEntity
  8
0
100
AcDbLine
 62
7
  6
CONTINUOUS
 10
609.4076193183
 20
163.955924287
 11
614.4876193183
 21
163.955924287
  0
LINE
  5
23A
100
AcDbEntity
  8
0
100
AcDbLine
 62
7
  6
CONTINUOUS
 10
616.8476193183
 20
163.955924287
 11
621.9276193183
 21
163.955924287
  0
LINE
  5
23B
100
AcDbEntity
  8
0
100
AcDbLine
 62
7
  6
CONTINUOUS
 10
624.2876193183
 20
163.955924287
 11
629.3676193183
 21
163.955924287
  0
LINE
  5
23C
100
AcDbEntity
  8
0
100
AcDbLine
 62
7
  6
CONTINUOUS
 10
631.7276193183
 20
163.955924287
 11
636.8076193183
 21
163.955924287
  0
LINE
  5
23D
100
AcDbEntity
  8
0
100
AcDbLine
 62
7
  6
CONTINUOUS
 10
639.1676193183
 20
163.955924287
 11
644.2476193183
 21
163.955924287
  0
LINE
  5
23E
100
AcDbEntity
  8
0
100
AcDbLine
 62
7
  6
CONTINUOUS
 10
654.4076193183
 20
163.955924287
 11
659.4876193183
 21
163.955924287
  0
LINE
  5
23F
100
AcDbEntity
  8
0
100
AcDbLine
 62
7
  6
CONTINUOUS
 10
661.8476193183
 20
163.955924287
 11
666.9276193183
 21
163.955924287
  0
LINE
  5
240
100
AcDbEntity
  8
0
100
AcDbLine
 62
7
  6
CONTINUOUS
 10
669.2876193183
 20
163.955924287
 11
674.3676193183
 21
163.955924287
  0
LINE
  5
241
100
AcDbEntity
  8
0
100
AcDbLine
 62
7
  6
CONTINUOUS
 10
676.7276193183
 20
163.955924287
 11
681.8076193183
 21
163.955924287
  0
LINE
  5
242
100
AcDbEntity
  8
0
100
AcDbLine
 62
7
  6
CONTINUOUS
 10
684.1676193183
 20
163.955924287
 11
689.2476193183
 21
163.955924287
  0
LINE
  5
243
100
AcDbEntity
  8
0
100
AcDbLine
 62
7
  6
CONTINUOUS
 10
689.2476193183
 20
169.035924287
 11
684.1676193183
 21
169.035924287
  0
LINE
  5
244
100
AcDbEntity
  8
0
100
AcDbLine
 62
7
  6
CONTINUOUS
 10
681.8076193183
 20
169.035924287
 11
676.7276193183
 21
169.035924287
  0
LINE
  5
245
100
AcDbEntity
  8
0
100
AcDbLine
 62
7
  6
CONTINUOUS
 10
674.3676193183
 20
169.035924287
 11
669.2876193183
 21
169.035924287
  0
LINE
  5
246
100
AcDbEntity
  8
0
100
AcDbLine
 62
7
  6
CONTINUOUS
 10
666.9276193183
 20
169.035924287
 11
661.8476193183
 21
169.035924287
  0
LINE
  5
247
100
AcDbEntity
  8
0
100
AcDbLine
 62
7
  6
CONTINUOUS
 10
659.4876193183
 20
169.035924287
 11
654.4076193183
 21
169.035924287
  0
LINE
  5
248
100
AcDbEntity
  8
0
100
AcDbLine
 62
7
  6
CONTINUOUS
 10
644.2476193183
 20
169.035924287
 11
639.1676193183
 21
169.035924287
  0
LINE
  5
249
100
AcDbEntity
  8
0
100
AcDbLine
 62
7
  6
CONTINUOUS
 10
636.8076193183
 20
169.035924287
 11
631.7276193183
 21
169.035924287
  0
LINE
  5
24A
100
AcDbEntity
  8
0
100
AcDbLine
 62
7
  6
CONTINUOUS
 10
629.3676193183
 20
169.035924287
 11
624.2876193183
 21
169.035924287
  0
LINE
  5
24B
100
AcDbEntity
  8
0
100
AcDbLine
 62
7
  6
CONTINUOUS
 10
621.9276193183
 20
169.035924287
 11
616.8476193183
 21
169.035924287
  0
LINE
  5
24C
100
AcDbEntity
  8
0
100
AcDbLine
 62
7
  6
CONTINUOUS
 10
614.4876193183
 20
169.035924287
 11
609.4076193183
 21
169.035924287
  0
LINE
  5
24D
100
AcDbEntity
  8
0
100
AcDbLine
 62
7
  6
CONTINUOUS
 10
428.2476193183
 20
169.035924287
 11
423.1676193183
 21
169.035924287
  0
LINE
  5
24E
100
AcDbEntity
  8
0
100
AcDbLine
 62
7
  6
CONTINUOUS
 10
420.8076193183
 20
169.035924287
 11
415.7276193183
 21
169.035924287
  0
LINE
  5
24F
100
AcDbEntity
  8
0
100
AcDbLine
 62
7
  6
CONTINUOUS
 10
413.3676193183
 20
169.035924287
 11
408.2876193183
 21
169.035924287
  0
LINE
  5
250
100
AcDbEntity
  8
0
100
AcDbLine
 62
7
  6
CONTINUOUS
 10
405.9276193183
 20
169.035924287
 11
400.8476193183
 21
169.035924287
  0
LINE
  5
251
100
AcDbEntity
  8
0
100
AcDbLine
 62
7
  6
CONTINUOUS
 10
398.4876193183
 20
169.035924287
 11
393.4076193183
 21
169.035924287
  0
LINE
  5
252
100
AcDbEntity
  8
0
100
AcDbLine
 62
7
  6
CONTINUOUS
 10
393.4076193183
 20
171.395924287
 11
398.4876193183
 21
171.395924287
  0
LINE
  5
253
100
AcDbEntity
  8
0
100
AcDbLine
 62
7
  6
CONTINUOUS
 10
400.8476193183
 20
171.395924287
 11
405.9276193183
 21
171.395924287
  0
LINE
  5
254
100
AcDbEntity
  8
0
100
AcDbLine
 62
7
  6
CONTINUOUS
 10
408.2876193183
 20
171.395924287
 11
413.3676193183
 21
171.395924287
  0
LINE
  5
255
100
AcDbEntity
  8
0
100
AcDbLine
 62
7
  6
CONTINUOUS
 10
415.7276193183
 20
171.395924287
 11
420.8076193183
 21
171.395924287
  0
LINE
  5
256
100
AcDbEntity
  8
0
100
AcDbLine
 62
7
  6
CONTINUOUS
 10
423.1676193183
 20
171.395924287
 11
428.2476193183
 21
171.395924287
  0
LINE
  5
257
100
AcDbEntity
  8
0
100
AcDbLine
 62
7
  6
CONTINUOUS
 10
609.4076193183
 20
171.395924287
 11
614.4876193183
 21
171.395924287
  0
LINE
  5
258
100
AcDbEntity
  8
0
100
AcDbLine
 62
7
  6
CONTINUOUS
 10
616.8476193183
 20
171.395924287
 11
621.9276193183
 21
171.395924287
  0
LINE
  5
259
100
AcDbEntity
  8
0
100
AcDbLine
 62
7
  6
CONTINUOUS
 10
624.2876193183
 20
171.395924287
 11
629.3676193183
 21
171.395924287
  0
LINE
  5
25A
100
AcDbEntity
  8
0
100
AcDbLine
 62
7
  6
CONTINUOUS
 10
631.7276193183
 20
171.395924287
 11
636.8076193183
 21
171.395924287
  0
LINE
  5
25B
100
AcDbEntity
  8
0
100
AcDbLine
 62
7
  6
CONTINUOUS
 10
639.1676193183
 20
171.395924287
 11
644.2476193183
 21
171.395924287
  0
LINE
  5
25C
100
AcDbEntity
  8
0
100
AcDbLine
 62
7
  6
CONTINUOUS
 10
654.4076193183
 20
171.395924287
 11
659.4876193183
 21
171.395924287
  0
LINE
  5
25D
100
AcDbEntity
  8
0
100
AcDbLine
 62
7
  6
CONTINUOUS
 10
661.8476193183
 20
171.395924287
 11
666.9276193183
 21
171.395924287
  0
LINE
  5
25E
100
AcDbEntity
  8
0
100
AcDbLine
 62
7
  6
CONTINUOUS
 10
669.2876193183
 20
171.395924287
 11
674.3676193183
 21
171.395924287
  0
LINE
  5
25F
100
AcDbEntity
  8
0
100
AcDbLine
 62
7
  6
CONTINUOUS
 10
676.7276193183
 20
171.395924287
 11
681.8076193183
 21
171.395924287
  0
LINE
  5
260
100
AcDbEntity
  8
0
100
AcDbLine
 62
7
  6
CONTINUOUS
 10
684.1676193183
 20
171.395924287
 11
689.2476193183
 21
171.395924287
  0
LINE
  5
261
100
AcDbEntity
  8
0
100
AcDbLine
 62
7
  6
CONTINUOUS
 10
689.2476193183
 20
176.475924287
 11
684.1676193183
 21
176.475924287
  0
LINE
  5
262
100
AcDbEntity
  8
0
100
AcDbLine
 62
7
  6
CONTINUOUS
 10
681.8076193183
 20
176.475924287
 11
676.7276193183
 21
176.475924287
  0
LINE
  5
263
100
AcDbEntity
  8
0
100
AcDbLine
 62
7
  6
CONTINUOUS
 10
674.3676193183
 20
176.475924287
 11
669.2876193183
 21
176.475924287
  0
LINE
  5
264
100
AcDbEntity
  8
0
100
AcDbLine
 62
7
  6
CONTINUOUS
 10
666.9276193183
 20
176.475924287
 11
661.8476193183
 21
176.475924287
  0
LINE
  5
265
100
AcDbEntity
  8
0
100
AcDbLine
 62
7
  6
CONTINUOUS
 10
659.4876193183
 20
176.475924287
 11
654.4076193183
 21
176.475924287
  0
LINE
  5
266
100
AcDbEntity
  8
0
100
AcDbLine
 62
7
  6
CONTINUOUS
 10
644.2476193183
 20
176.475924287
 11
639.1676193183
 21
176.475924287
  0
LINE
  5
267
100
AcDbEntity
  8
0
100
AcDbLine
 62
7
  6
CONTINUOUS
 10
636.8076193183
 20
176.475924287
 11
631.7276193183
 21
176.475924287
  0
LINE
  5
268
100
AcDbEntity
  8
0
100
AcDbLine
 62
7
  6
CONTINUOUS
 10
629.3676193183
 20
176.475924287
 11
624.2876193183
 21
176.475924287
  0
LINE
  5
269
100
AcDbEntity
  8
0
100
AcDbLine
 62
7
  6
CONTINUOUS
 10
621.9276193183
 20
176.475924287
 11
616.8476193183
 21
176.475924287
  0
LINE
  5
26A
100
AcDbEntity
  8
0
100
AcDbLine
 62
7
  6
CONTINUOUS
 10
614.4876193183
 20
176.475924287
 11
609.4076193183
 21
176.475924287
  0
LINE
  5
26B
100
AcDbEntity
  8
0
100
AcDbLine
 62
7
  6
CONTINUOUS
 10
428.2476193183
 20
176.475924287
 11
423.1676193183
 21
176.475924287
  0
LINE
  5
26C
100
AcDbEntity
  8
0
100
AcDbLine
 62
7
  6
CONTINUOUS
 10
420.8076193183
 20
176.475924287
 11
415.7276193183
 21
176.475924287
  0
LINE
  5
26D
100
AcDbEntity
  8
0
100
AcDbLine
 62
7
  6
CONTINUOUS
 10
413.3676193183
 20
176.475924287
 11
408.2876193183
 21
176.475924287
  0
LINE
  5
26E
100
AcDbEntity
  8
0
100
AcDbLine
 62
7
  6
CONTINUOUS
 10
405.9276193183
 20
176.475924287
 11
400.8476193183
 21
176.475924287
  0
LINE
  5
26F
100
AcDbEntity
  8
0
100
AcDbLine
 62
7
  6
CONTINUOUS
 10
398.4876193183
 20
176.475924287
 11
393.4076193183
 21
176.475924287
  0
LINE
  5
270
100
AcDbEntity
  8
0
100
AcDbLine
 62
7
  6
CONTINUOUS
 10
393.4076193183
 20
178.835924287
 11
398.4876193183
 21
178.835924287
  0
LINE
  5
271
100
AcDbEntity
  8
0
100
AcDbLine
 62
7
  6
CONTINUOUS
 10
400.8476193183
 20
178.835924287
 11
405.9276193183
 21
178.835924287
  0
LINE
  5
272
100
AcDbEntity
  8
0
100
AcDbLine
 62
7
  6
CONTINUOUS
 10
408.2876193183
 20
178.835924287
 11
413.3676193183
 21
178.835924287
  0
LINE
  5
273
100
AcDbEntity
  8
0
100
AcDbLine
 62
7
  6
CONTINUOUS
 10
415.7276193183
 20
178.835924287
 11
420.8076193183
 21
178.835924287
  0
LINE
  5
274
100
AcDbEntity
  8
0
100
AcDbLine
 62
7
  6
CONTINUOUS
 10
423.1676193183
 20
178.835924287
 11
428.2476193183
 21
178.835924287
  0
LINE
  5
275
100
AcDbEntity
  8
0
100
AcDbLine
 62
7
  6
CONTINUOUS
 10
609.4076193183
 20
178.835924287
 11
614.4876193183
 21
178.835924287
  0
LINE
  5
276
100
AcDbEntity
  8
0
100
AcDbLine
 62
7
  6
CONTINUOUS
 10
616.8476193183
 20
178.835924287
 11
621.9276193183
 21
178.835924287
  0
LINE
  5
277
100
AcDbEntity
  8
0
100
AcDbLine
 62
7
  6
CONTINUOUS
 10
624.2876193183
 20
178.835924287
 11
629.3676193183
 21
178.835924287
  0
LINE
  5
278
100
AcDbEntity
  8
0
100
AcDbLine
 62
7
  6
CONTINUOUS
 10
631.7276193183
 20
178.835924287
 11
636.8076193183
 21
178.835924287
  0
LINE
  5
279
100
AcDbEntity
  8
0
100
AcDbLine
 62
7
  6
CONTINUOUS
 10
639.1676193183
 20
178.835924287
 11
644.2476193183
 21
178.835924287
  0
LINE
  5
27A
100
AcDbEntity
  8
0
100
AcDbLine
 62
7
  6
CONTINUOUS
 10
654.4076193183
 20
178.835924287
 11
659.4876193183
 21
178.835924287
  0
LINE
  5
27B
100
AcDbEntity
  8
0
100
AcDbLine
 62
7
  6
CONTINUOUS
 10
661.8476193183
 20
178.835924287
 11
666.9276193183
 21
178.835924287
  0
LINE
  5
27C
100
AcDbEntity
  8
0
100
AcDbLine
 62
7
  6
CONTINUOUS
 10
669.2876193183
 20
178.835924287
 11
674.3676193183
 21
178.835924287
  0
LINE
  5
27D
100
AcDbEntity
  8
0
100
AcDbLine
 62
7
  6
CONTINUOUS
 10
676.7276193183
 20
178.835924287
 11
681.8076193183
 21
178.835924287
  0
LINE
  5
27E
100
AcDbEntity
  8
0
100
AcDbLine
 62
7
  6
CONTINUOUS
 10
684.1676193183
 20
178.835924287
 11
689.2476193183
 21
178.835924287
  0
LINE
  5
27F
100
AcDbEntity
  8
AXES
100
AcDbLine
 62
7
  6
CENTER
 10
375.533842536
 20
643.1574778517
 11
375.533842536
 21
192.3054778517
  0
LINE
  5
280
100
AcDbEntity
  8
0
100
AcDbLine
 62
7
  6
CONTINUOUS
 10
375.9026193183
 20
192.780524287
 11
375.9026193183
 21
152.4025464384
  0
LINE
  5
281
100
AcDbEntity
  8
0
100
AcDbLine
 62
7
  6
CONTINUOUS
 10
375.9026193183
 20
642.6824314164
 11
375.9026193183
 21
683.060409265
  0
LINE
  5
282
100
AcDbEntity
  8
0
100
AcDbLine
 62
7
  6
CONTINUOUS
 10
379.3526193183
 20
679.9670314164
 11
379.3526193183
 21
674.8870314164
  0
LINE
  5
283
100
AcDbEntity
  8
0
100
AcDbLine
 62
7
  6
CONTINUOUS
 10
379.3526193183
 20
672.5260314164
 11
379.3526193183
 21
667.4460314164
  0
LINE
  5
284
100
AcDbEntity
  8
0
100
AcDbLine
 62
7
  6
CONTINUOUS
 10
379.3526193183
 20
665.0850314164
 11
379.3526193183
 21
660.0050314164
  0
LINE
  5
285
100
AcDbEntity
  8
0
100
AcDbLine
 62
7
  6
CONTINUOUS
 10
379.3526193183
 20
657.6440314164
 11
379.3526193183
 21
652.5640314164
  0
LINE
  5
286
100
AcDbEntity
  8
0
100
AcDbLine
 62
7
  6
CONTINUOUS
 10
379.3526193183
 20
650.2030314164
 11
379.3526193183
 21
645.1230314164
  0
LINE
  5
287
100
AcDbEntity
  8
0
100
AcDbLine
 62
7
  6
CONTINUOUS
 10
689.2476193183
 20
183.915924287
 11
684.1676193183
 21
183.915924287
  0
LINE
  5
288
100
AcDbEntity
  8
0
100
AcDbLine
 62
7
  6
CONTINUOUS
 10
681.8076193183
 20
183.915924287
 11
676.7276193183
 21
183.915924287
  0
LINE
  5
289
100
AcDbEntity
  8
0
100
AcDbLine
 62
7
  6
CONTINUOUS
 10
674.3676193183
 20
183.915924287
 11
669.2876193183
 21
183.915924287
  0
LINE
  5
28A
100
AcDbEntity
  8
0
100
AcDbLine
 62
7
  6
CONTINUOUS
 10
666.9276193183
 20
183.915924287
 11
661.8476193183
 21
183.915924287
  0
LINE
  5
28B
100
AcDbEntity
  8
0
100
AcDbLine
 62
7
  6
CONTINUOUS
 10
659.4876193183
 20
183.915924287
 11
654.4076193183
 21
183.915924287
  0
LINE
  5
28C
100
AcDbEntity
  8
0
100
AcDbLine
 62
7
  6
CONTINUOUS
 10
644.2476193183
 20
183.915924287
 11
639.1676193183
 21
183.915924287
  0
LINE
  5
28D
100
AcDbEntity
  8
0
100
AcDbLine
 62
7
  6
CONTINUOUS
 10
636.8076193183
 20
183.915924287
 11
631.7276193183
 21
183.915924287
  0
LINE
  5
28E
100
AcDbEntity
  8
0
100
AcDbLine
 62
7
  6
CONTINUOUS
 10
629.3676193183
 20
183.915924287
 11
624.2876193183
 21
183.915924287
  0
LINE
  5
28F
100
AcDbEntity
  8
0
100
AcDbLine
 62
7
  6
CONTINUOUS
 10
621.9276193183
 20
183.915924287
 11
616.8476193183
 21
183.915924287
  0
LINE
  5
290
100
AcDbEntity
  8
0
100
AcDbLine
 62
7
  6
CONTINUOUS
 10
614.4876193183
 20
183.915924287
 11
609.4076193183
 21
183.915924287
  0
LINE
  5
291
100
AcDbEntity
  8
0
100
AcDbLine
 62
7
  6
CONTINUOUS
 10
428.2476193183
 20
183.915924287
 11
423.1676193183
 21
183.915924287
  0
LINE
  5
292
100
AcDbEntity
  8
0
100
AcDbLine
 62
7
  6
CONTINUOUS
 10
420.8076193183
 20
183.915924287
 11
415.7276193183
 21
183.915924287
  0
LINE
  5
293
100
AcDbEntity
  8
0
100
AcDbLine
 62
7
  6
CONTINUOUS
 10
413.3676193183
 20
183.915924287
 11
408.2876193183
 21
183.915924287
  0
LINE
  5
294
100
AcDbEntity
  8
0
100
AcDbLine
 62
7
  6
CONTINUOUS
 10
405.9276193183
 20
183.915924287
 11
400.8476193183
 21
183.915924287
  0
LINE
  5
295
100
AcDbEntity
  8
0
100
AcDbLine
 62
7
  6
CONTINUOUS
 10
398.4876193183
 20
183.915924287
 11
393.4076193183
 21
183.915924287
  0
LINE
  5
296
100
AcDbEntity
  8
0
100
AcDbLine
 62
7
  6
CONTINUOUS
 10
400.8476193183
 20
186.275924287
 11
405.9276193183
 21
186.275924287
  0
LINE
  5
297
100
AcDbEntity
  8
0
100
AcDbLine
 62
7
  6
CONTINUOUS
 10
408.2876193183
 20
186.275924287
 11
413.3676193183
 21
186.275924287
  0
LINE
  5
298
100
AcDbEntity
  8
0
100
AcDbLine
 62
7
  6
CONTINUOUS
 10
415.7276193183
 20
186.275924287
 11
420.8076193183
 21
186.275924287
  0
LINE
  5
299
100
AcDbEntity
  8
0
100
AcDbLine
 62
7
  6
CONTINUOUS
 10
616.8476193183
 20
186.275924287
 11
621.9276193183
 21
186.275924287
  0
LINE
  5
29A
100
AcDbEntity
  8
0
100
AcDbLine
 62
7
  6
CONTINUOUS
 10
624.2876193183
 20
186.275924287
 11
629.3676193183
 21
186.275924287
  0
LINE
  5
29B
100
AcDbEntity
  8
0
100
AcDbLine
 62
7
  6
CONTINUOUS
 10
631.7276193183
 20
186.275924287
 11
636.8076193183
 21
186.275924287
  0
LINE
  5
29C
100
AcDbEntity
  8
0
100
AcDbLine
 62
7
  6
CONTINUOUS
 10
661.8476193183
 20
186.275924287
 11
666.9276193183
 21
186.275924287
  0
LINE
  5
29D
100
AcDbEntity
  8
0
100
AcDbLine
 62
7
  6
CONTINUOUS
 10
669.2876193183
 20
186.275924287
 11
674.3676193183
 21
186.275924287
  0
LINE
  5
29E
100
AcDbEntity
  8
0
100
AcDbLine
 62
7
  6
CONTINUOUS
 10
676.7276193183
 20
186.275924287
 11
681.8076193183
 21
186.275924287
  0
LINE
  5
29F
100
AcDbEntity
  8
0
100
AcDbLine
 62
7
  6
CONTINUOUS
 10
469.4286193183
 20
190.891924287
 11
467.2286193183
 21
190.891924287
  0
LINE
  5
2A0
100
AcDbEntity
  8
0
100
AcDbLine
 62
7
  6
CONTINUOUS
 10
444.4286193183
 20
190.891924287
 11
442.2286193183
 21
190.891924287
  0
LINE
  5
2A1
100
AcDbEntity
  8
0
100
AcDbLine
 62
7
  6
CONTINUOUS
 10
681.8076193183
 20
191.355924287
 11
676.7276193183
 21
191.355924287
  0
LINE
  5
2A2
100
AcDbEntity
  8
0
100
AcDbLine
 62
7
  6
CONTINUOUS
 10
674.3676193183
 20
191.355924287
 11
669.2876193183
 21
191.355924287
  0
LINE
  5
2A3
100
AcDbEntity
  8
0
100
AcDbLine
 62
7
  6
CONTINUOUS
 10
666.9276193183
 20
191.355924287
 11
661.8476193183
 21
191.355924287
  0
LINE
  5
2A4
100
AcDbEntity
  8
0
100
AcDbLine
 62
7
  6
CONTINUOUS
 10
636.8076193183
 20
191.355924287
 11
631.7276193183
 21
191.355924287
  0
LINE
  5
2A5
100
AcDbEntity
  8
0
100
AcDbLine
 62
7
  6
CONTINUOUS
 10
629.3676193183
 20
191.355924287
 11
624.2876193183
 21
191.355924287
  0
LINE
  5
2A6
100
AcDbEntity
  8
0
100
AcDbLine
 62
7
  6
CONTINUOUS
 10
621.9276193183
 20
191.355924287
 11
616.8476193183
 21
191.355924287
  0
LINE
  5
2A7
100
AcDbEntity
  8
0
100
AcDbLine
 62
7
  6
CONTINUOUS
 10
420.8076193183
 20
191.355924287
 11
415.7276193183
 21
191.355924287
  0
LINE
  5
2A8
100
AcDbEntity
  8
0
100
AcDbLine
 62
7
  6
CONTINUOUS
 10
413.3676193183
 20
191.355924287
 11
408.2876193183
 21
191.355924287
  0
LINE
  5
2A9
100
AcDbEntity
  8
0
100
AcDbLine
 62
7
  6
CONTINUOUS
 10
405.9276193183
 20
191.355924287
 11
400.8476193183
 21
191.355924287
  0
LINE
  5
2AA
100
AcDbEntity
  8
AXES
100
AcDbLine
 62
7
  6
CENTER
 10
373.9026193183
 20
193.9367010694
 11
802.7546193183
 21
193.9367010694
  0
LINE
  5
2AB
100
AcDbEntity
  8
0
100
AcDbLine
 62
7
  6
CONTINUOUS
 10
374.3776657536
 20
194.3054778517
 11
333.9996879051
 21
194.3054778517
  0
LINE
  5
2AC
100
AcDbEntity
  8
0
100
AcDbLine
 62
7
  6
CONTINUOUS
 10
802.279572883
 20
194.3054778517
 11
842.6575507316
 21
194.3054778517
  0
LINE
  5
2AD
100
AcDbEntity
  8
0
100
AcDbLine
 62
7
  6
CONTINUOUS
 10
324.8407039867
 20
201.1574778517
 11
324.7383025011
 21
201.1574778517
  0
LINE
  5
2AE
100
AcDbEntity
  8
0
100
AcDbLine
 62
7
  6
CONTINUOUS
 10
851.81653465
 20
201.1574778517
 11
851.9189361356
 21
201.1574778517
  0
LINE
  5
2AF
100
AcDbEntity
  8
0
100
AcDbLine
 62
7
  6
CONTINUOUS
 10
382.7546193183
 20
143.2435625201
 11
382.7546193183
 21
143.1411610344
  0
LINE
  5
2B0
100
AcDbEntity
  8
0
100
AcDbLine
 62
7
  6
CONTINUOUS
 10
382.7546193183
 20
692.2193931834
 11
382.7546193183
 21
692.321794669
  0
LINE
  5
2B1
100
AcDbEntity
  8
0
100
AcDbLine
 62
7
  6
CONTINUOUS
 10
384.4326193183
 20
645.1230314164
 11
384.4326193183
 21
650.2030314164
  0
LINE
  5
2B2
100
AcDbEntity
  8
0
100
AcDbLine
 62
7
  6
CONTINUOUS
 10
384.4326193183
 20
652.5640314164
 11
384.4326193183
 21
657.6440314164
  0
LINE
  5
2B3
100
AcDbEntity
  8
0
100
AcDbLine
 62
7
  6
CONTINUOUS
 10
384.4326193183
 20
660.0050314164
 11
384.4326193183
 21
665.0850314164
  0
LINE
  5
2B4
100
AcDbEntity
  8
0
100
AcDbLine
 62
7
  6
CONTINUOUS
 10
384.4326193183
 20
667.4460314164
 11
384.4326193183
 21
672.5260314164
  0
LINE
  5
2B5
100
AcDbEntity
  8
0
100
AcDbLine
 62
7
  6
CONTINUOUS
 10
384.4326193183
 20
674.8870314164
 11
384.4326193183
 21
679.9670314164
  0
LINE
  5
2B6
100
AcDbEntity
  8
0
100
AcDbLine
 62
7
  6
CONTINUOUS
 10
386.7936193183
 20
679.9670314164
 11
386.7936193183
 21
674.8870314164
  0
LINE
  5
2B7
100
AcDbEntity
  8
0
100
AcDbLine
 62
7
  6
CONTINUOUS
 10
386.7936193183
 20
672.5260314164
 11
386.7936193183
 21
667.4460314164
  0
LINE
  5
2B8
100
AcDbEntity
  8
0
100
AcDbLine
 62
7
  6
CONTINUOUS
 10
386.7936193183
 20
665.0850314164
 11
386.7936193183
 21
660.0050314164
  0
LINE
  5
2B9
100
AcDbEntity
  8
0
100
AcDbLine
 62
7
  6
CONTINUOUS
 10
386.7936193183
 20
657.6440314164
 11
386.7936193183
 21
652.5640314164
  0
LINE
  5
2BA
100
AcDbEntity
  8
0
100
AcDbLine
 62
7
  6
CONTINUOUS
 10
386.7936193183
 20
650.2030314164
 11
386.7936193183
 21
645.1230314164
  0
LINE
  5
2BB
100
AcDbEntity
  8
0
100
AcDbLine
 62
7
  6
CONTINUOUS
 10
391.8736193183
 20
645.1230314164
 11
391.8736193183
 21
650.2030314164
  0
LINE
  5
2BC
100
AcDbEntity
  8
0
100
AcDbLine
 62
7
  6
CONTINUOUS
 10
391.8736193183
 20
652.5640314164
 11
391.8736193183
 21
657.6440314164
  0
LINE
  5
2BD
100
AcDbEntity
  8
0
100
AcDbLine
 62
7
  6
CONTINUOUS
 10
391.8736193183
 20
660.0050314164
 11
391.8736193183
 21
665.0850314164
  0
LINE
  5
2BE
100
AcDbEntity
  8
0
100
AcDbLine
 62
7
  6
CONTINUOUS
 10
391.8736193183
 20
667.4460314164
 11
391.8736193183
 21
672.5260314164
  0
LINE
  5
2BF
100
AcDbEntity
  8
0
100
AcDbLine
 62
7
  6
CONTINUOUS
 10
391.8736193183
 20
674.8870314164
 11
391.8736193183
 21
679.9670314164
  0
LINE
  5
2C0
100
AcDbEntity
  8
0
100
AcDbLine
 62
7
  6
CONTINUOUS
 10
393.4076193183
 20
183.915924287
 11
393.4076193183
 21
178.835924287
  0
LINE
  5
2C1
100
AcDbEntity
  8
0
100
AcDbLine
 62
7
  6
CONTINUOUS
 10
393.4076193183
 20
176.475924287
 11
393.4076193183
 21
171.395924287
  0
LINE
  5
2C2
100
AcDbEntity
  8
0
100
AcDbLine
 62
7
  6
CONTINUOUS
 10
393.4076193183
 20
169.035924287
 11
393.4076193183
 21
163.955924287
  0
LINE
  5
2C3
100
AcDbEntity
  8
0
100
AcDbLine
 62
7
  6
CONTINUOUS
 10
394.2346193183
 20
679.9670314164
 11
394.2346193183
 21
674.8870314164
  0
LINE
  5
2C4
100
AcDbEntity
  8
0
100
AcDbLine
 62
7
  6
CONTINUOUS
 10
394.2346193183
 20
672.5260314164
 11
394.2346193183
 21
667.4460314164
  0
LINE
  5
2C5
100
AcDbEntity
  8
0
100
AcDbLine
 62
7
  6
CONTINUOUS
 10
394.2346193183
 20
665.0850314164
 11
394.2346193183
 21
660.0050314164
  0
LINE
  5
2C6
100
AcDbEntity
  8
0
100
AcDbLine
 62
7
  6
CONTINUOUS
 10
394.2346193183
 20
657.6440314164
 11
394.2346193183
 21
652.5640314164
  0
LINE
  5
2C7
100
AcDbEntity
  8
0
100
AcDbLine
 62
7
  6
CONTINUOUS
 10
394.2346193183
 20
650.2030314164
 11
394.2346193183
 21
645.1230314164
  0
LINE
  5
2C8
100
AcDbEntity
  8
0
100
AcDbLine
 62
7
  6
CONTINUOUS
 10
398.4876193183
 20
163.955924287
 11
398.4876193183
 21
169.035924287
  0
LINE
  5
2C9
100
AcDbEntity
  8
0
100
AcDbLine
 62
7
  6
CONTINUOUS
 10
398.4876193183
 20
171.395924287
 11
398.4876193183
 21
176.475924287
  0
LINE
  5
2CA
100
AcDbEntity
  8
0
100
AcDbLine
 62
7
  6
CONTINUOUS
 10
398.4876193183
 20
178.835924287
 11
398.4876193183
 21
183.915924287
  0
LINE
  5
2CB
100
AcDbEntity
  8
0
100
AcDbLine
 62
7
  6
CONTINUOUS
 10
399.3146193183
 20
645.1230314164
 11
399.3146193183
 21
650.2030314164
  0
LINE
  5
2CC
100
AcDbEntity
  8
0
100
AcDbLine
 62
7
  6
CONTINUOUS
 10
399.3146193183
 20
652.5640314164
 11
399.3146193183
 21
657.6440314164
  0
LINE
  5
2CD
100
AcDbEntity
  8
0
100
AcDbLine
 62
7
  6
CONTINUOUS
 10
399.3146193183
 20
660.0050314164
 11
399.3146193183
 21
665.0850314164
  0
LINE
  5
2CE
100
AcDbEntity
  8
0
100
AcDbLine
 62
7
  6
CONTINUOUS
 10
399.3146193183
 20
667.4460314164
 11
399.3146193183
 21
672.5260314164
  0
LINE
  5
2CF
100
AcDbEntity
  8
0
100
AcDbLine
 62
7
  6
CONTINUOUS
 10
399.3146193183
 20
674.8870314164
 11
399.3146193183
 21
679.9670314164
  0
LINE
  5
2D0
100
AcDbEntity
  8
0
100
AcDbLine
 62
7
  6
CONTINUOUS
 10
400.8476193183
 20
191.355924287
 11
400.8476193183
 21
186.275924287
  0
LINE
  5
2D1
100
AcDbEntity
  8
0
100
AcDbLine
 62
7
  6
CONTINUOUS
 10
400.8476193183
 20
183.915924287
 11
400.8476193183
 21
178.835924287
  0
LINE
  5
2D2
100
AcDbEntity
  8
0
100
AcDbLine
 62
7
  6
CONTINUOUS
 10
400.8476193183
 20
176.475924287
 11
400.8476193183
 21
171.395924287
  0
LINE
  5
2D3
100
AcDbEntity
  8
0
100
AcDbLine
 62
7
  6
CONTINUOUS
 10
400.8476193183
 20
169.035924287
 11
400.8476193183
 21
163.955924287
  0
LINE
  5
2D4
100
AcDbEntity
  8
0
100
AcDbLine
 62
7
  6
CONTINUOUS
 10
400.8476193183
 20
161.595924287
 11
400.8476193183
 21
156.515924287
  0
LINE
  5
2D5
100
AcDbEntity
  8
0
100
AcDbLine
 62
7
  6
CONTINUOUS
 10
401.6756193183
 20
679.9670314164
 11
401.6756193183
 21
674.8870314164
  0
LINE
  5
2D6
100
AcDbEntity
  8
0
100
AcDbLine
 62
7
  6
CONTINUOUS
 10
401.6756193183
 20
672.5260314164
 11
401.6756193183
 21
667.4460314164
  0
LINE
  5
2D7
100
AcDbEntity
  8
0
100
AcDbLine
 62
7
  6
CONTINUOUS
 10
401.6756193183
 20
665.0850314164
 11
401.6756193183
 21
660.0050314164
  0
LINE
  5
2D8
100
AcDbEntity
  8
0
100
AcDbLine
 62
7
  6
CONTINUOUS
 10
401.6756193183
 20
657.6440314164
 11
401.6756193183
 21
652.5640314164
  0
LINE
  5
2D9
100
AcDbEntity
  8
0
100
AcDbLine
 62
7
  6
CONTINUOUS
 10
401.6756193183
 20
650.2030314164
 11
401.6756193183
 21
645.1230314164
  0
LINE
  5
2DA
100
AcDbEntity
  8
0
100
AcDbLine
 62
7
  6
CONTINUOUS
 10
405.9276193183
 20
156.515924287
 11
405.9276193183
 21
161.595924287
  0
LINE
  5
2DB
100
AcDbEntity
  8
0
100
AcDbLine
 62
7
  6
CONTINUOUS
 10
405.9276193183
 20
163.955924287
 11
405.9276193183
 21
169.035924287
  0
LINE
  5
2DC
100
AcDbEntity
  8
0
100
AcDbLine
 62
7
  6
CONTINUOUS
 10
405.9276193183
 20
171.395924287
 11
405.9276193183
 21
176.475924287
  0
LINE
  5
2DD
100
AcDbEntity
  8
0
100
AcDbLine
 62
7
  6
CONTINUOUS
 10
405.9276193183
 20
178.835924287
 11
405.9276193183
 21
183.915924287
  0
LINE
  5
2DE
100
AcDbEntity
  8
0
100
AcDbLine
 62
7
  6
CONTINUOUS
 10
405.9276193183
 20
186.275924287
 11
405.9276193183
 21
191.355924287
  0
LINE
  5
2DF
100
AcDbEntity
  8
0
100
AcDbLine
 62
7
  6
CONTINUOUS
 10
406.7556193183
 20
645.1230314164
 11
406.7556193183
 21
650.2030314164
  0
LINE
  5
2E0
100
AcDbEntity
  8
0
100
AcDbLine
 62
7
  6
CONTINUOUS
 10
406.7556193183
 20
652.5640314164
 11
406.7556193183
 21
657.6440314164
  0
LINE
  5
2E1
100
AcDbEntity
  8
0
100
AcDbLine
 62
7
  6
CONTINUOUS
 10
406.7556193183
 20
660.0050314164
 11
406.7556193183
 21
665.0850314164
  0
LINE
  5
2E2
100
AcDbEntity
  8
0
100
AcDbLine
 62
7
  6
CONTINUOUS
 10
406.7556193183
 20
667.4460314164
 11
406.7556193183
 21
672.5260314164
  0
LINE
  5
2E3
100
AcDbEntity
  8
0
100
AcDbLine
 62
7
  6
CONTINUOUS
 10
406.7556193183
 20
674.8870314164
 11
406.7556193183
 21
679.9670314164
  0
LINE
  5
2E4
100
AcDbEntity
  8
0
100
AcDbLine
 62
7
  6
CONTINUOUS
 10
408.2876193183
 20
191.355924287
 11
408.2876193183
 21
186.275924287
  0
LINE
  5
2E5
100
AcDbEntity
  8
0
100
AcDbLine
 62
7
  6
CONTINUOUS
 10
408.2876193183
 20
183.915924287
 11
408.2876193183
 21
178.835924287
  0
LINE
  5
2E6
100
AcDbEntity
  8
0
100
AcDbLine
 62
7
  6
CONTINUOUS
 10
408.2876193183
 20
176.475924287
 11
408.2876193183
 21
171.395924287
  0
LINE
  5
2E7
100
AcDbEntity
  8
0
100
AcDbLine
 62
7
  6
CONTINUOUS
 10
408.2876193183
 20
169.035924287
 11
408.2876193183
 21
163.955924287
  0
LINE
  5
2E8
100
AcDbEntity
  8
0
100
AcDbLine
 62
7
  6
CONTINUOUS
 10
408.2876193183
 20
161.595924287
 11
408.2876193183
 21
156.515924287
  0
LINE
  5
2E9
100
AcDbEntity
  8
0
100
AcDbLine
 62
7
  6
CONTINUOUS
 10
409.1166193183
 20
645.1230314164
 11
409.1166193183
 21
650.2030314164
  0
LINE
  5
2EA
100
AcDbEntity
  8
0
100
AcDbLine
 62
7
  6
CONTINUOUS
 10
409.1166193183
 20
652.5640314164
 11
409.1166193183
 21
657.6440314164
  0
LINE
  5
2EB
100
AcDbEntity
  8
0
100
AcDbLine
 62
7
  6
CONTINUOUS
 10
409.1166193183
 20
660.0050314164
 11
409.1166193183
 21
665.0850314164
  0
LINE
  5
2EC
100
AcDbEntity
  8
0
100
AcDbLine
 62
7
  6
CONTINUOUS
 10
409.1166193183
 20
667.4460314164
 11
409.1166193183
 21
672.5260314164
  0
LINE
  5
2ED
100
AcDbEntity
  8
0
100
AcDbLine
 62
7
  6
CONTINUOUS
 10
409.1166193183
 20
674.8870314164
 11
409.1166193183
 21
679.9670314164
  0
LINE
  5
2EE
100
AcDbEntity
  8
0
100
AcDbLine
 62
7
  6
CONTINUOUS
 10
413.3676193183
 20
156.515924287
 11
413.3676193183
 21
161.595924287
  0
LINE
  5
2EF
100
AcDbEntity
  8
0
100
AcDbLine
 62
7
  6
CONTINUOUS
 10
413.3676193183
 20
163.955924287
 11
413.3676193183
 21
169.035924287
  0
LINE
  5
2F0
100
AcDbEntity
  8
0
100
AcDbLine
 62
7
  6
CONTINUOUS
 10
413.3676193183
 20
171.395924287
 11
413.3676193183
 21
176.475924287
  0
LINE
  5
2F1
100
AcDbEntity
  8
0
100
AcDbLine
 62
7
  6
CONTINUOUS
 10
413.3676193183
 20
178.835924287
 11
413.3676193183
 21
183.915924287
  0
LINE
  5
2F2
100
AcDbEntity
  8
0
100
AcDbLine
 62
7
  6
CONTINUOUS
 10
413.3676193183
 20
186.275924287
 11
413.3676193183
 21
191.355924287
  0
LINE
  5
2F3
100
AcDbEntity
  8
0
100
AcDbLine
 62
7
  6
CONTINUOUS
 10
414.1966193183
 20
645.1230314164
 11
414.1966193183
 21
650.2030314164
  0
LINE
  5
2F4
100
AcDbEntity
  8
0
100
AcDbLine
 62
7
  6
CONTINUOUS
 10
414.1966193183
 20
652.5640314164
 11
414.1966193183
 21
657.6440314164
  0
LINE
  5
2F5
100
AcDbEntity
  8
0
100
AcDbLine
 62
7
  6
CONTINUOUS
 10
414.1966193183
 20
660.0050314164
 11
414.1966193183
 21
665.0850314164
  0
LINE
  5
2F6
100
AcDbEntity
  8
0
100
AcDbLine
 62
7
  6
CONTINUOUS
 10
414.1966193183
 20
667.4460314164
 11
414.1966193183
 21
672.5260314164
  0
LINE
  5
2F7
100
AcDbEntity
  8
0
100
AcDbLine
 62
7
  6
CONTINUOUS
 10
414.1966193183
 20
674.8870314164
 11
414.1966193183
 21
679.9670314164
  0
LINE
  5
2F8
100
AcDbEntity
  8
0
100
AcDbLine
 62
7
  6
CONTINUOUS
 10
415.7276193183
 20
191.355924287
 11
415.7276193183
 21
186.275924287
  0
LINE
  5
2F9
100
AcDbEntity
  8
0
100
AcDbLine
 62
7
  6
CONTINUOUS
 10
415.7276193183
 20
183.915924287
 11
415.7276193183
 21
178.835924287
  0
LINE
  5
2FA
100
AcDbEntity
  8
0
100
AcDbLine
 62
7
  6
CONTINUOUS
 10
415.7276193183
 20
176.475924287
 11
415.7276193183
 21
171.395924287
  0
LINE
  5
2FB
100
AcDbEntity
  8
0
100
AcDbLine
 62
7
  6
CONTINUOUS
 10
415.7276193183
 20
169.035924287
 11
415.7276193183
 21
163.955924287
  0
LINE
  5
2FC
100
AcDbEntity
  8
0
100
AcDbLine
 62
7
  6
CONTINUOUS
 10
415.7276193183
 20
161.595924287
 11
415.7276193183
 21
156.515924287
  0
LINE
  5
2FD
100
AcDbEntity
  8
0
100
AcDbLine
 62
7
  6
CONTINUOUS
 10
420.7336193183
 20
671.9910314164
 11
420.7336193183
 21
657.9910314164
  0
LINE
  5
2FE
100
AcDbEntity
  8
0
100
AcDbLine
 62
7
  6
CONTINUOUS
 10
420.8076193183
 20
156.515924287
 11
420.8076193183
 21
161.595924287
  0
LINE
  5
2FF
100
AcDbEntity
  8
0
100
AcDbLine
 62
7
  6
CONTINUOUS
 10
420.8076193183
 20
163.955924287
 11
420.8076193183
 21
169.035924287
  0
LINE
  5
300
100
AcDbEntity
  8
0
100
AcDbLine
 62
7
  6
CONTINUOUS
 10
420.8076193183
 20
171.395924287
 11
420.8076193183
 21
176.475924287
  0
LINE
  5
301
100
AcDbEntity
  8
0
100
AcDbLine
 62
7
  6
CONTINUOUS
 10
420.8076193183
 20
178.835924287
 11
420.8076193183
 21
183.915924287
  0
LINE
  5
302
100
AcDbEntity
  8
0
100
AcDbLine
 62
7
  6
CONTINUOUS
 10
420.8076193183
 20
186.275924287
 11
420.8076193183
 21
191.355924287
  0
LINE
  5
303
100
AcDbEntity
  8
0
100
AcDbLine
 62
7
  6
CONTINUOUS
 10
423.1676193183
 20
183.915924287
 11
423.1676193183
 21
178.835924287
  0
LINE
  5
304
100
AcDbEntity
  8
0
100
AcDbLine
 62
7
  6
CONTINUOUS
 10
423.1676193183
 20
176.475924287
 11
423.1676193183
 21
171.395924287
  0
LINE
  5
305
100
AcDbEntity
  8
0
100
AcDbLine
 62
7
  6
CONTINUOUS
 10
423.1676193183
 20
169.035924287
 11
423.1676193183
 21
163.955924287
  0
LINE
  5
306
100
AcDbEntity
  8
0
100
AcDbLine
 62
7
  6
CONTINUOUS
 10
428.2476193183
 20
163.955924287
 11
428.2476193183
 21
169.035924287
  0
LINE
  5
307
100
AcDbEntity
  8
0
100
AcDbLine
 62
7
  6
CONTINUOUS
 10
428.2476193183
 20
171.395924287
 11
428.2476193183
 21
176.475924287
  0
LINE
  5
308
100
AcDbEntity
  8
0
100
AcDbLine
 62
7
  6
CONTINUOUS
 10
428.2476193183
 20
178.835924287
 11
428.2476193183
 21
183.915924287
  0
LINE
  5
309
100
AcDbEntity
  8
0
100
AcDbLine
 62
7
  6
CONTINUOUS
 10
442.2286193183
 20
190.891924287
 11
442.2286193183
 21
189.6718841262
  0
LINE
  5
30A
100
AcDbEntity
  8
0
100
AcDbLine
 62
7
  6
CONTINUOUS
 10
444.4286193183
 20
189.6718841262
 11
444.4286193183
 21
190.891924287
  0
LINE
  5
30B
100
AcDbEntity
  8
AXES
100
AcDbLine
 62
7
  6
CONTINUOUS
 10
375.9026193183
 20
192.780524287
 11
376.6900193183
 21
195.0928778517
  0
LINE
  5
30C
100
AcDbEntity
  8
AXES
100
AcDbLine
 62
7
  6
CONTINUOUS
 10
802.279572883
 20
641.1574778517
 11
799.9672193183
 21
640.3700778517
  0
LINE
  5
30D
100
AcDbEntity
  8
AXES
100
AcDbLine
 62
7
  6
CONTINUOUS
 10
802.279572883
 20
194.3054778517
 11
799.9672193183
 21
195.0928778517
  0
LINE
  5
30E
100
AcDbEntity
  8
AXES
100
AcDbLine
 62
7
  6
CONTINUOUS
 10
375.9026193183
 20
642.6824314164
 11
376.6900193183
 21
640.3700778517
  0
LINE
  5
30F
100
AcDbEntity
  8
0
100
AcDbLine
 62
7
  6
CONTINUOUS
 10
467.2286193183
 20
190.891924287
 11
467.2286193183
 21
189.6718841262
  0
LINE
  5
310
100
AcDbEntity
  8
0
100
AcDbLine
 62
7
  6
CONTINUOUS
 10
469.4286193183
 20
189.6718841262
 11
469.4286193183
 21
190.891924287
  0
LINE
  5
311
100
AcDbEntity
  8
0
100
AcDbLine
 62
7
  6
CONTINUOUS
 10
505.2587486583
 20
657.9910314164
 11
505.2587486583
 21
671.9910314164
  0
LINE
  5
312
100
AcDbEntity
  8
0
100
AcDbLine
 62
7
  6
CONTINUOUS
 10
514.2036193183
 20
671.9910314164
 11
514.2036193183
 21
657.9910314164
  0
LINE
  5
313
100
AcDbEntity
  8
0
100
AcDbLine
 62
7
  6
CONTINUOUS
 10
598.7336193183
 20
657.9910314164
 11
598.7336193183
 21
671.9910314164
  0
LINE
  5
314
100
AcDbEntity
  8
0
100
AcDbLine
 62
7
  6
CONTINUOUS
 10
606.9374186583
 20
662.9203658164
 11
606.9374186583
 21
648.4203658164
  0
LINE
  5
315
100
AcDbEntity
  8
0
100
AcDbLine
 62
7
  6
CONTINUOUS
 10
609.4076193183
 20
183.915924287
 11
609.4076193183
 21
178.835924287
  0
LINE
  5
316
100
AcDbEntity
  8
0
100
AcDbLine
 62
7
  6
CONTINUOUS
 10
609.4076193183
 20
176.475924287
 11
609.4076193183
 21
171.395924287
  0
LINE
  5
317
100
AcDbEntity
  8
0
100
AcDbLine
 62
7
  6
CONTINUOUS
 10
609.4076193183
 20
169.035924287
 11
609.4076193183
 21
163.955924287
  0
LINE
  5
318
100
AcDbEntity
  8
0
100
AcDbLine
 62
7
  6
CONTINUOUS
 10
614.4876193183
 20
163.955924287
 11
614.4876193183
 21
169.035924287
  0
LINE
  5
319
100
AcDbEntity
  8
0
100
AcDbLine
 62
7
  6
CONTINUOUS
 10
614.4876193183
 20
171.395924287
 11
614.4876193183
 21
176.475924287
  0
LINE
  5
31A
100
AcDbEntity
  8
0
100
AcDbLine
 62
7
  6
CONTINUOUS
 10
614.4876193183
 20
178.835924287
 11
614.4876193183
 21
183.915924287
  0
LINE
  5
31B
100
AcDbEntity
  8
0
100
AcDbLine
 62
7
  6
CONTINUOUS
 10
616.8476193183
 20
191.355924287
 11
616.8476193183
 21
186.275924287
  0
LINE
  5
31C
100
AcDbEntity
  8
0
100
AcDbLine
 62
7
  6
CONTINUOUS
 10
616.8476193183
 20
183.915924287
 11
616.8476193183
 21
178.835924287
  0
LINE
  5
31D
100
AcDbEntity
  8
0
100
AcDbLine
 62
7
  6
CONTINUOUS
 10
616.8476193183
 20
176.475924287
 11
616.8476193183
 21
171.395924287
  0
LINE
  5
31E
100
AcDbEntity
  8
0
100
AcDbLine
 62
7
  6
CONTINUOUS
 10
616.8476193183
 20
169.035924287
 11
616.8476193183
 21
163.955924287
  0
LINE
  5
31F
100
AcDbEntity
  8
0
100
AcDbLine
 62
7
  6
CONTINUOUS
 10
616.8476193183
 20
161.595924287
 11
616.8476193183
 21
156.515924287
  0
LINE
  5
320
100
AcDbEntity
  8
0
100
AcDbLine
 62
7
  6
CONTINUOUS
 10
621.9276193183
 20
156.515924287
 11
621.9276193183
 21
161.595924287
  0
LINE
  5
321
100
AcDbEntity
  8
0
100
AcDbLine
 62
7
  6
CONTINUOUS
 10
621.9276193183
 20
163.955924287
 11
621.9276193183
 21
169.035924287
  0
LINE
  5
322
100
AcDbEntity
  8
0
100
AcDbLine
 62
7
  6
CONTINUOUS
 10
621.9276193183
 20
171.395924287
 11
621.9276193183
 21
176.475924287
  0
LINE
  5
323
100
AcDbEntity
  8
0
100
AcDbLine
 62
7
  6
CONTINUOUS
 10
621.9276193183
 20
178.835924287
 11
621.9276193183
 21
183.915924287
  0
LINE
  5
324
100
AcDbEntity
  8
0
100
AcDbLine
 62
7
  6
CONTINUOUS
 10
621.9276193183
 20
186.275924287
 11
621.9276193183
 21
191.355924287
  0
LINE
  5
325
100
AcDbEntity
  8
0
100
AcDbLine
 62
7
  6
CONTINUOUS
 10
623.8124186583
 20
648.4203658164
 11
623.8124186583
 21
662.9203658164
  0
LINE
  5
326
100
AcDbEntity
  8
0
100
AcDbLine
 62
7
  6
CONTINUOUS
 10
624.2876193183
 20
191.355924287
 11
624.2876193183
 21
186.275924287
  0
LINE
  5
327
100
AcDbEntity
  8
0
100
AcDbLine
 62
7
  6
CONTINUOUS
 10
624.2876193183
 20
183.915924287
 11
624.2876193183
 21
178.835924287
  0
LINE
  5
328
100
AcDbEntity
  8
0
100
AcDbLine
 62
7
  6
CONTINUOUS
 10
624.2876193183
 20
176.475924287
 11
624.2876193183
 21
171.395924287
  0
LINE
  5
329
100
AcDbEntity
  8
0
100
AcDbLine
 62
7
  6
CONTINUOUS
 10
624.2876193183
 20
169.035924287
 11
624.2876193183
 21
163.955924287
  0
LINE
  5
32A
100
AcDbEntity
  8
0
100
AcDbLine
 62
7
  6
CONTINUOUS
 10
624.2876193183
 20
161.595924287
 11
624.2876193183
 21
156.515924287
  0
LINE
  5
32B
100
AcDbEntity
  8
0
100
AcDbLine
 62
7
  6
CONTINUOUS
 10
629.3676193183
 20
156.515924287
 11
629.3676193183
 21
161.595924287
  0
LINE
  5
32C
100
AcDbEntity
  8
0
100
AcDbLine
 62
7
  6
CONTINUOUS
 10
629.3676193183
 20
163.955924287
 11
629.3676193183
 21
169.035924287
  0
LINE
  5
32D
100
AcDbEntity
  8
0
100
AcDbLine
 62
7
  6
CONTINUOUS
 10
629.3676193183
 20
171.395924287
 11
629.3676193183
 21
176.475924287
  0
LINE
  5
32E
100
AcDbEntity
  8
0
100
AcDbLine
 62
7
  6
CONTINUOUS
 10
629.3676193183
 20
178.835924287
 11
629.3676193183
 21
183.915924287
  0
LINE
  5
32F
100
AcDbEntity
  8
0
100
AcDbLine
 62
7
  6
CONTINUOUS
 10
629.3676193183
 20
186.275924287
 11
629.3676193183
 21
191.355924287
  0
LINE
  5
330
100
AcDbEntity
  8
0
100
AcDbLine
 62
7
  6
CONTINUOUS
 10
630.0006186583
 20
662.9203658164
 11
630.0006186583
 21
648.4203658164
  0
LINE
  5
331
100
AcDbEntity
  8
0
100
AcDbLine
 62
7
  6
CONTINUOUS
 10
631.7276193183
 20
191.355924287
 11
631.7276193183
 21
186.275924287
  0
LINE
  5
332
100
AcDbEntity
  8
0
100
AcDbLine
 62
7
  6
CONTINUOUS
 10
631.7276193183
 20
183.915924287
 11
631.7276193183
 21
178.835924287
  0
LINE
  5
333
100
AcDbEntity
  8
0
100
AcDbLine
 62
7
  6
CONTINUOUS
 10
631.7276193183
 20
176.475924287
 11
631.7276193183
 21
171.395924287
  0
LINE
  5
334
100
AcDbEntity
  8
0
100
AcDbLine
 62
7
  6
CONTINUOUS
 10
631.7276193183
 20
169.035924287
 11
631.7276193183
 21
163.955924287
  0
LINE
  5
335
100
AcDbEntity
  8
0
100
AcDbLine
 62
7
  6
CONTINUOUS
 10
631.7276193183
 20
161.595924287
 11
631.7276193183
 21
156.515924287
  0
LINE
  5
336
100
AcDbEntity
  8
0
100
AcDbLine
 62
7
  6
CONTINUOUS
 10
636.8076193183
 20
156.515924287
 11
636.8076193183
 21
161.595924287
  0
LINE
  5
337
100
AcDbEntity
  8
0
100
AcDbLine
 62
7
  6
CONTINUOUS
 10
636.8076193183
 20
163.955924287
 11
636.8076193183
 21
169.035924287
  0
LINE
  5
338
100
AcDbEntity
  8
0
100
AcDbLine
 62
7
  6
CONTINUOUS
 10
636.8076193183
 20
171.395924287
 11
636.8076193183
 21
176.475924287
  0
LINE
  5
339
100
AcDbEntity
  8
0
100
AcDbLine
 62
7
  6
CONTINUOUS
 10
636.8076193183
 20
178.835924287
 11
636.8076193183
 21
183.915924287
  0
LINE
  5
33A
100
AcDbEntity
  8
0
100
AcDbLine
 62
7
  6
CONTINUOUS
 10
636.8076193183
 20
186.275924287
 11
636.8076193183
 21
191.355924287
  0
LINE
  5
33B
100
AcDbEntity
  8
0
100
AcDbLine
 62
7
  6
CONTINUOUS
 10
639.1676193183
 20
183.915924287
 11
639.1676193183
 21
178.835924287
  0
LINE
  5
33C
100
AcDbEntity
  8
0
100
AcDbLine
 62
7
  6
CONTINUOUS
 10
639.1676193183
 20
176.475924287
 11
639.1676193183
 21
171.395924287
  0
LINE
  5
33D
100
AcDbEntity
  8
0
100
AcDbLine
 62
7
  6
CONTINUOUS
 10
639.1676193183
 20
169.035924287
 11
639.1676193183
 21
163.955924287
  0
LINE
  5
33E
100
AcDbEntity
  8
0
100
AcDbLine
 62
7
  6
CONTINUOUS
 10
644.2476193183
 20
163.955924287
 11
644.2476193183
 21
169.035924287
  0
LINE
  5
33F
100
AcDbEntity
  8
0
100
AcDbLine
 62
7
  6
CONTINUOUS
 10
644.2476193183
 20
171.395924287
 11
644.2476193183
 21
176.475924287
  0
LINE
  5
340
100
AcDbEntity
  8
0
100
AcDbLine
 62
7
  6
CONTINUOUS
 10
644.2476193183
 20
178.835924287
 11
644.2476193183
 21
183.915924287
  0
LINE
  5
341
100
AcDbEntity
  8
0
100
AcDbLine
 62
7
  6
CONTINUOUS
 10
646.8756186583
 20
648.4203658164
 11
646.8756186583
 21
662.9203658164
  0
LINE
  5
342
100
AcDbEntity
  8
0
100
AcDbLine
 62
7
  6
CONTINUOUS
 10
651.4160185383
 20
663.6203668164
 11
651.4160185383
 21
649.4203668164
  0
LINE
  5
343
100
AcDbEntity
  8
0
100
AcDbLine
 62
7
  6
CONTINUOUS
 10
654.4076193183
 20
183.915924287
 11
654.4076193183
 21
178.835924287
  0
LINE
  5
344
100
AcDbEntity
  8
0
100
AcDbLine
 62
7
  6
CONTINUOUS
 10
654.4076193183
 20
176.475924287
 11
654.4076193183
 21
171.395924287
  0
LINE
  5
345
100
AcDbEntity
  8
0
100
AcDbLine
 62
7
  6
CONTINUOUS
 10
654.4076193183
 20
169.035924287
 11
654.4076193183
 21
163.955924287
  0
LINE
  5
346
100
AcDbEntity
  8
0
100
AcDbLine
 62
7
  6
CONTINUOUS
 10
658.0160185383
 20
649.4203668164
 11
658.0160185383
 21
663.6203668164
  0
LINE
  5
347
100
AcDbEntity
  8
0
100
AcDbLine
 62
7
  6
CONTINUOUS
 10
659.4876193183
 20
163.955924287
 11
659.4876193183
 21
169.035924287
  0
LINE
  5
348
100
AcDbEntity
  8
0
100
AcDbLine
 62
7
  6
CONTINUOUS
 10
659.4876193183
 20
171.395924287
 11
659.4876193183
 21
176.475924287
  0
LINE
  5
349
100
AcDbEntity
  8
0
100
AcDbLine
 62
7
  6
CONTINUOUS
 10
659.4876193183
 20
178.835924287
 11
659.4876193183
 21
183.915924287
  0
LINE
  5
34A
100
AcDbEntity
  8
0
100
AcDbLine
 62
7
  6
CONTINUOUS
 10
661.8476193183
 20
191.355924287
 11
661.8476193183
 21
186.275924287
  0
LINE
  5
34B
100
AcDbEntity
  8
0
100
AcDbLine
 62
7
  6
CONTINUOUS
 10
661.8476193183
 20
183.915924287
 11
661.8476193183
 21
178.835924287
  0
LINE
  5
34C
100
AcDbEntity
  8
0
100
AcDbLine
 62
7
  6
CONTINUOUS
 10
661.8476193183
 20
176.475924287
 11
661.8476193183
 21
171.395924287
  0
LINE
  5
34D
100
AcDbEntity
  8
0
100
AcDbLine
 62
7
  6
CONTINUOUS
 10
661.8476193183
 20
169.035924287
 11
661.8476193183
 21
163.955924287
  0
LINE
  5
34E
100
AcDbEntity
  8
0
100
AcDbLine
 62
7
  6
CONTINUOUS
 10
661.8476193183
 20
161.595924287
 11
661.8476193183
 21
156.515924287
  0
LINE
  5
34F
100
AcDbEntity
  8
0
100
AcDbLine
 62
7
  6
CONTINUOUS
 10
662.3641812383
 20
659.9828668164
 11
662.3641812383
 21
648.8828668164
  0
LINE
  5
350
100
AcDbEntity
  8
0
100
AcDbLine
 62
7
  6
CONTINUOUS
 10
666.9276193183
 20
156.515924287
 11
666.9276193183
 21
161.595924287
  0
LINE
  5
351
100
AcDbEntity
  8
0
100
AcDbLine
 62
7
  6
CONTINUOUS
 10
666.9276193183
 20
163.955924287
 11
666.9276193183
 21
169.035924287
  0
LINE
  5
352
100
AcDbEntity
  8
0
100
AcDbLine
 62
7
  6
CONTINUOUS
 10
666.9276193183
 20
171.395924287
 11
666.9276193183
 21
176.475924287
  0
LINE
  5
353
100
AcDbEntity
  8
0
100
AcDbLine
 62
7
  6
CONTINUOUS
 10
666.9276193183
 20
178.835924287
 11
666.9276193183
 21
183.915924287
  0
LINE
  5
354
100
AcDbEntity
  8
0
100
AcDbLine
 62
7
  6
CONTINUOUS
 10
666.9276193183
 20
186.275924287
 11
666.9276193183
 21
191.355924287
  0
LINE
  5
355
100
AcDbEntity
  8
0
100
AcDbLine
 62
7
  6
CONTINUOUS
 10
669.2876193183
 20
191.355924287
 11
669.2876193183
 21
186.275924287
  0
LINE
  5
356
100
AcDbEntity
  8
0
100
AcDbLine
 62
7
  6
CONTINUOUS
 10
669.2876193183
 20
183.915924287
 11
669.2876193183
 21
178.835924287
  0
LINE
  5
357
100
AcDbEntity
  8
0
100
AcDbLine
 62
7
  6
CONTINUOUS
 10
669.2876193183
 20
176.475924287
 11
669.2876193183
 21
171.395924287
  0
LINE
  5
358
100
AcDbEntity
  8
0
100
AcDbLine
 62
7
  6
CONTINUOUS
 10
669.2876193183
 20
169.035924287
 11
669.2876193183
 21
163.955924287
  0
LINE
  5
359
100
AcDbEntity
  8
0
100
AcDbLine
 62
7
  6
CONTINUOUS
 10
669.2876193183
 20
161.595924287
 11
669.2876193183
 21
156.515924287
  0
LINE
  5
35A
100
AcDbEntity
  8
0
100
AcDbLine
 62
7
  6
CONTINUOUS
 10
674.3676193183
 20
156.515924287
 11
674.3676193183
 21
161.595924287
  0
LINE
  5
35B
100
AcDbEntity
  8
0
100
AcDbLine
 62
7
  6
CONTINUOUS
 10
674.3676193183
 20
163.955924287
 11
674.3676193183
 21
169.035924287
  0
LINE
  5
35C
100
AcDbEntity
  8
0
100
AcDbLine
 62
7
  6
CONTINUOUS
 10
674.3676193183
 20
171.395924287
 11
674.3676193183
 21
176.475924287
  0
LINE
  5
35D
100
AcDbEntity
  8
0
100
AcDbLine
 62
7
  6
CONTINUOUS
 10
674.3676193183
 20
178.835924287
 11
674.3676193183
 21
183.915924287
  0
LINE
  5
35E
100
AcDbEntity
  8
0
100
AcDbLine
 62
7
  6
CONTINUOUS
 10
674.3676193183
 20
186.275924287
 11
674.3676193183
 21
191.355924287
  0
LINE
  5
35F
100
AcDbEntity
  8
0
100
AcDbLine
 62
7
  6
CONTINUOUS
 10
674.6141812383
 20
648.8828668164
 11
674.6141812383
 21
659.9828668164
  0
LINE
  5
360
100
AcDbEntity
  8
0
100
AcDbLine
 62
7
  6
CONTINUOUS
 10
676.7276193183
 20
191.355924287
 11
676.7276193183
 21
186.275924287
  0
LINE
  5
361
100
AcDbEntity
  8
0
100
AcDbLine
 62
7
  6
CONTINUOUS
 10
676.7276193183
 20
183.915924287
 11
676.7276193183
 21
178.835924287
  0
LINE
  5
362
100
AcDbEntity
  8
0
100
AcDbLine
 62
7
  6
CONTINUOUS
 10
676.7276193183
 20
176.475924287
 11
676.7276193183
 21
171.395924287
  0
LINE
  5
363
100
AcDbEntity
  8
0
100
AcDbLine
 62
7
  6
CONTINUOUS
 10
676.7276193183
 20
169.035924287
 11
676.7276193183
 21
163.955924287
  0
LINE
  5
364
100
AcDbEntity
  8
0
100
AcDbLine
 62
7
  6
CONTINUOUS
 10
676.7276193183
 20
161.595924287
 11
676.7276193183
 21
156.515924287
  0
LINE
  5
365
100
AcDbEntity
  8
0
100
AcDbLine
 62
7
  6
CONTINUOUS
 10
681.8076193183
 20
156.515924287
 11
681.8076193183
 21
161.595924287
  0
LINE
  5
366
100
AcDbEntity
  8
0
100
AcDbLine
 62
7
  6
CONTINUOUS
 10
681.8076193183
 20
163.955924287
 11
681.8076193183
 21
169.035924287
  0
LINE
  5
367
100
AcDbEntity
  8
0
100
AcDbLine
 62
7
  6
CONTINUOUS
 10
681.8076193183
 20
171.395924287
 11
681.8076193183
 21
176.475924287
  0
LINE
  5
368
100
AcDbEntity
  8
0
100
AcDbLine
 62
7
  6
CONTINUOUS
 10
681.8076193183
 20
178.835924287
 11
681.8076193183
 21
183.915924287
  0
LINE
  5
369
100
AcDbEntity
  8
0
100
AcDbLine
 62
7
  6
CONTINUOUS
 10
681.8076193183
 20
186.275924287
 11
681.8076193183
 21
191.355924287
  0
LINE
  5
36A
100
AcDbEntity
  8
0
100
AcDbLine
 62
7
  6
CONTINUOUS
 10
684.1676193183
 20
183.915924287
 11
684.1676193183
 21
178.835924287
  0
LINE
  5
36B
100
AcDbEntity
  8
0
100
AcDbLine
 62
7
  6
CONTINUOUS
 10
684.1676193183
 20
176.475924287
 11
684.1676193183
 21
171.395924287
  0
LINE
  5
36C
100
AcDbEntity
  8
0
100
AcDbLine
 62
7
  6
CONTINUOUS
 10
684.1676193183
 20
169.035924287
 11
684.1676193183
 21
163.955924287
  0
LINE
  5
36D
100
AcDbEntity
  8
0
100
AcDbLine
 62
7
  6
CONTINUOUS
 10
689.2476193183
 20
163.955924287
 11
689.2476193183
 21
169.035924287
  0
LINE
  5
36E
100
AcDbEntity
  8
0
100
AcDbLine
 62
7
  6
CONTINUOUS
 10
689.2476193183
 20
171.395924287
 11
689.2476193183
 21
176.475924287
  0
LINE
  5
36F
100
AcDbEntity
  8
0
100
AcDbLine
 62
7
  6
CONTINUOUS
 10
689.2476193183
 20
178.835924287
 11
689.2476193183
 21
183.915924287
  0
LINE
  5
370
100
AcDbEntity
  8
AXES
100
AcDbLine
 62
7
  6
CONTINUOUS
 10
800.7546193183
 20
642.6824314164
 11
799.9672193183
 21
640.3700778517
  0
LINE
  5
371
100
AcDbEntity
  8
AXES
100
AcDbLine
 62
7
  6
CONTINUOUS
 10
800.7546193183
 20
192.780524287
 11
799.9672193183
 21
195.0928778517
  0
LINE
  5
372
100
AcDbEntity
  8
AXES
100
AcDbLine
 62
7
  6
CONTINUOUS
 10
374.3776657536
 20
194.3054778517
 11
376.6900193183
 21
195.0928778517
  0
LINE
  5
373
100
AcDbEntity
  8
AXES
100
AcDbLine
 62
7
  6
CONTINUOUS
 10
374.3776657536
 20
641.1574778517
 11
376.6900193183
 21
640.3700778517
  0
LINE
  5
374
100
AcDbEntity
  8
AXES
100
AcDbLine
 62
7
  6
CONTINUOUS
 10
762.2786193183
 20
670.4460314164
 11
762.2786193183
 21
654.6460314164
  0
LINE
  5
375
100
AcDbEntity
  8
AXES
100
AcDbLine
 62
7
  6
CONTINUOUS
 10
790.5786193183
 20
654.6460314164
 11
790.5786193183
 21
670.4460314164
  0
LINE
  5
376
100
AcDbEntity
  8
0
100
AcDbLine
 62
7
  6
CONTINUOUS
 10
793.9026193183
 20
143.2435625201
 11
793.9026193183
 21
143.1411610344
  0
LINE
  5
377
100
AcDbEntity
  8
0
100
AcDbLine
 62
7
  6
CONTINUOUS
 10
793.9026193183
 20
692.2193931834
 11
793.9026193183
 21
692.321794669
  0
LINE
  5
378
100
AcDbEntity
  8
0
100
AcDbLine
 62
7
  6
CONTINUOUS
 10
800.7546193183
 20
192.780524287
 11
800.7546193183
 21
152.4025464384
  0
LINE
  5
379
100
AcDbEntity
  8
0
100
AcDbLine
 62
7
  6
CONTINUOUS
 10
800.7546193183
 20
642.6824314164
 11
800.7546193183
 21
683.060409265
  0
LINE
  5
37A
100
AcDbEntity
  8
AXES
100
AcDbLine
 62
7
  6
CENTER
 10
801.1233961007
 20
192.3054778517
 11
801.1233961007
 21
643.1574778517
  0
LINE
  5
37B
100
AcDbEntity
  8
0
100
AcDbLine
 62
7
  6
CONTINUOUS
 10
324.8407039867
 20
634.3054778517
 11
324.7383025011
 21
634.3054778517
  0
LINE
  5
37C
100
AcDbEntity
  8
0
100
AcDbLine
 62
7
  6
CONTINUOUS
 10
851.81653465
 20
634.3054778517
 11
851.9189361356
 21
634.3054778517
  0
LINE
  5
37D
100
AcDbEntity
  8
0
100
AcDbLine
 62
7
  6
CONTINUOUS
 10
374.3776657536
 20
641.1574778517
 11
333.9996879051
 21
641.1574778517
  0
LINE
  5
37E
100
AcDbEntity
  8
0
100
AcDbLine
 62
7
  6
CONTINUOUS
 10
802.279572883
 20
641.1574778517
 11
842.6575507316
 21
641.1574778517
  0
LINE
  5
37F
100
AcDbEntity
  8
AXES
100
AcDbLine
 62
7
  6
CENTER
 10
802.7546193183
 20
641.5262546341
 11
373.9026193183
 21
641.5262546341
  0
LINE
  5
380
100
AcDbEntity
  8
0
100
AcDbLine
 62
7
  6
CONTINUOUS
 10
379.3526193183
 20
645.1230314164
 11
384.4326193183
 21
645.1230314164
  0
LINE
  5
381
100
AcDbEntity
  8
0
100
AcDbLine
 62
7
  6
CONTINUOUS
 10
386.7936193183
 20
645.1230314164
 11
391.8736193183
 21
645.1230314164
  0
LINE
  5
382
100
AcDbEntity
  8
0
100
AcDbLine
 62
7
  6
CONTINUOUS
 10
394.2346193183
 20
645.1230314164
 11
399.3146193183
 21
645.1230314164
  0
LINE
  5
383
100
AcDbEntity
  8
0
100
AcDbLine
 62
7
  6
CONTINUOUS
 10
401.6756193183
 20
645.1230314164
 11
406.7556193183
 21
645.1230314164
  0
LINE
  5
384
100
AcDbEntity
  8
0
100
AcDbLine
 62
7
  6
CONTINUOUS
 10
409.1166193183
 20
645.1230314164
 11
414.1966193183
 21
645.1230314164
  0
LINE
  5
385
100
AcDbEntity
  8
0
100
AcDbLine
 62
7
  6
CONTINUOUS
 10
606.9374186583
 20
648.4203658164
 11
623.8124186583
 21
648.4203658164
  0
LINE
  5
386
100
AcDbEntity
  8
0
100
AcDbLine
 62
7
  6
CONTINUOUS
 10
630.0006186583
 20
648.4203658164
 11
646.8756186583
 21
648.4203658164
  0
LINE
  5
387
100
AcDbEntity
  8
0
100
AcDbLine
 62
7
  6
CONTINUOUS
 10
662.3641812383
 20
648.8828668164
 11
674.6141812383
 21
648.8828668164
  0
LINE
  5
388
100
AcDbEntity
  8
0
100
AcDbLine
 62
7
  6
CONTINUOUS
 10
651.4160185383
 20
649.4203668164
 11
658.0160185383
 21
649.4203668164
  0
LINE
  5
389
100
AcDbEntity
  8
0
100
AcDbLine
 62
7
  6
CONTINUOUS
 10
414.1966193183
 20
650.2030314164
 11
409.1166193183
 21
650.2030314164
  0
LINE
  5
38A
100
AcDbEntity
  8
0
100
AcDbLine
 62
7
  6
CONTINUOUS
 10
406.7556193183
 20
650.2030314164
 11
401.6756193183
 21
650.2030314164
  0
LINE
  5
38B
100
AcDbEntity
  8
0
100
AcDbLine
 62
7
  6
CONTINUOUS
 10
399.3146193183
 20
650.2030314164
 11
394.2346193183
 21
650.2030314164
  0
LINE
  5
38C
100
AcDbEntity
  8
0
100
AcDbLine
 62
7
  6
CONTINUOUS
 10
391.8736193183
 20
650.2030314164
 11
386.7936193183
 21
650.2030314164
  0
LINE
  5
38D
100
AcDbEntity
  8
0
100
AcDbLine
 62
7
  6
CONTINUOUS
 10
384.4326193183
 20
650.2030314164
 11
379.3526193183
 21
650.2030314164
  0
LINE
  5
38E
100
AcDbEntity
  8
AXES
100
AcDbLine
 62
7
  6
CONTINUOUS
 10
764.7786193183
 20
652.1460314164
 11
788.0786193183
 21
652.1460314164
  0
LINE
  5
38F
100
AcDbEntity
  8
0
100
AcDbLine
 62
7
  6
CONTINUOUS
 10
379.3526193183
 20
652.5640314164
 11
384.4326193183
 21
652.5640314164
  0
LINE
  5
390
100
AcDbEntity
  8
0
100
AcDbLine
 62
7
  6
CONTINUOUS
 10
386.7936193183
 20
652.5640314164
 11
391.8736193183
 21
652.5640314164
  0
LINE
  5
391
100
AcDbEntity
  8
0
100
AcDbLine
 62
7
  6
CONTINUOUS
 10
394.2346193183
 20
652.5640314164
 11
399.3146193183
 21
652.5640314164
  0
LINE
  5
392
100
AcDbEntity
  8
0
100
AcDbLine
 62
7
  6
CONTINUOUS
 10
401.6756193183
 20
652.5640314164
 11
406.7556193183
 21
652.5640314164
  0
LINE
  5
393
100
AcDbEntity
  8
0
100
AcDbLine
 62
7
  6
CONTINUOUS
 10
409.1166193183
 20
652.5640314164
 11
414.1966193183
 21
652.5640314164
  0
LINE
  5
394
100
AcDbEntity
  8
0
100
AcDbLine
 62
7
  6
CONTINUOUS
 10
414.1966193183
 20
657.6440314164
 11
409.1166193183
 21
657.6440314164
  0
LINE
  5
395
100
AcDbEntity
  8
0
100
AcDbLine
 62
7
  6
CONTINUOUS
 10
406.7556193183
 20
657.6440314164
 11
401.6756193183
 21
657.6440314164
  0
LINE
  5
396
100
AcDbEntity
  8
0
100
AcDbLine
 62
7
  6
CONTINUOUS
 10
399.3146193183
 20
657.6440314164
 11
394.2346193183
 21
657.6440314164
  0
LINE
  5
397
100
AcDbEntity
  8
0
100
AcDbLine
 62
7
  6
CONTINUOUS
 10
391.8736193183
 20
657.6440314164
 11
386.7936193183
 21
657.6440314164
  0
LINE
  5
398
100
AcDbEntity
  8
0
100
AcDbLine
 62
7
  6
CONTINUOUS
 10
384.4326193183
 20
657.6440314164
 11
379.3526193183
 21
657.6440314164
  0
LINE
  5
399
100
AcDbEntity
  8
0
100
AcDbLine
 62
7
  6
CONTINUOUS
 10
420.7336193183
 20
657.9910314164
 11
505.2587486583
 21
657.9910314164
  0
LINE
  5
39A
100
AcDbEntity
  8
0
100
AcDbLine
 62
7
  6
CONTINUOUS
 10
514.2036193183
 20
657.9910314164
 11
598.7336193183
 21
657.9910314164
  0
LINE
  5
39B
100
AcDbEntity
  8
AXES
100
AcDbLine
 62
7
  6
CENTER
 10
843.3026077869
 20
192.3054778517
 11
843.3026077869
 21
643.1574778517
  0
LINE
  5
39C
100
AcDbEntity
  8
AXES
100
AcDbLine
 62
7
  6
CENTER
 10
851.1714775947
 20
199.0208557003
 11
851.1714775947
 21
636.4421000031
  0
LINE
  5
39D
100
AcDbEntity
  8
AXES
100
AcDbLine
 62
7
  6
CENTER
 10
852.5250014798
 20
636.3054778517
 11
852.5250014798
 21
199.1574778517
  0
LINE
  5
39E
100
AcDbEntity
  8
0
100
AcDbLine
 62
7
  6
CONTINUOUS
 10
674.6141812383
 20
659.9828668164
 11
662.3641812383
 21
659.9828668164
  0
LINE
  5
39F
100
AcDbEntity
  8
0
100
AcDbLine
 62
7
  6
CONTINUOUS
 10
379.3526193183
 20
660.0050314164
 11
384.4326193183
 21
660.0050314164
  0
LINE
  5
3A0
100
AcDbEntity
  8
0
100
AcDbLine
 62
7
  6
CONTINUOUS
 10
386.7936193183
 20
660.0050314164
 11
391.8736193183
 21
660.0050314164
  0
LINE
  5
3A1
100
AcDbEntity
  8
0
100
AcDbLine
 62
7
  6
CONTINUOUS
 10
394.2346193183
 20
660.0050314164
 11
399.3146193183
 21
660.0050314164
  0
LINE
  5
3A2
100
AcDbEntity
  8
0
100
AcDbLine
 62
7
  6
CONTINUOUS
 10
401.6756193183
 20
660.0050314164
 11
406.7556193183
 21
660.0050314164
  0
LINE
  5
3A3
100
AcDbEntity
  8
0
100
AcDbLine
 62
7
  6
CONTINUOUS
 10
409.1166193183
 20
660.0050314164
 11
414.1966193183
 21
660.0050314164
  0
LINE
  5
3A4
100
AcDbEntity
  8
0
100
AcDbLine
 62
7
  6
CONTINUOUS
 10
646.8756186583
 20
662.9203658164
 11
630.0006186583
 21
662.9203658164
  0
LINE
  5
3A5
100
AcDbEntity
  8
0
100
AcDbLine
 62
7
  6
CONTINUOUS
 10
623.8124186583
 20
662.9203658164
 11
606.9374186583
 21
662.9203658164
  0
LINE
  5
3A6
100
AcDbEntity
  8
0
100
AcDbLine
 62
7
  6
CONTINUOUS
 10
658.0160185383
 20
663.6203668164
 11
651.4160185383
 21
663.6203668164
  0
LINE
  5
3A7
100
AcDbEntity
  8
0
100
AcDbLine
 62
7
  6
CONTINUOUS
 10
414.1966193183
 20
665.0850314164
 11
409.1166193183
 21
665.0850314164
  0
LINE
  5
3A8
100
AcDbEntity
  8
0
100
AcDbLine
 62
7
  6
CONTINUOUS
 10
406.7556193183
 20
665.0850314164
 11
401.6756193183
 21
665.0850314164
  0
LINE
  5
3A9
100
AcDbEntity
  8
0
100
AcDbLine
 62
7
  6
CONTINUOUS
 10
399.3146193183
 20
665.0850314164
 11
394.2346193183
 21
665.0850314164
  0
LINE
  5
3AA
100
AcDbEntity
  8
0
100
AcDbLine
 62
7
  6
CONTINUOUS
 10
391.8736193183
 20
665.0850314164
 11
386.7936193183
 21
665.0850314164
  0
LINE
  5
3AB
100
AcDbEntity
  8
0
100
AcDbLine
 62
7
  6
CONTINUOUS
 10
384.4326193183
 20
665.0850314164
 11
379.3526193183
 21
665.0850314164
  0
LINE
  5
3AC
100
AcDbEntity
  8
0
100
AcDbLine
 62
7
  6
CONTINUOUS
 10
379.3526193183
 20
667.4460314164
 11
384.4326193183
 21
667.4460314164
  0
LINE
  5
3AD
100
AcDbEntity
  8
0
100
AcDbLine
 62
7
  6
CONTINUOUS
 10
386.7936193183
 20
667.4460314164
 11
391.8736193183
 21
667.4460314164
  0
LINE
  5
3AE
100
AcDbEntity
  8
0
100
AcDbLine
 62
7
  6
CONTINUOUS
 10
394.2346193183
 20
667.4460314164
 11
399.3146193183
 21
667.4460314164
  0
LINE
  5
3AF
100
AcDbEntity
  8
0
100
AcDbLine
 62
7
  6
CONTINUOUS
 10
401.6756193183
 20
667.4460314164
 11
406.7556193183
 21
667.4460314164
  0
LINE
  5
3B0
100
AcDbEntity
  8
0
100
AcDbLine
 62
7
  6
CONTINUOUS
 10
409.1166193183
 20
667.4460314164
 11
414.1966193183
 21
667.4460314164
  0
LINE
  5
3B1
100
AcDbEntity
  8
0
100
AcDbLine
 62
7
  6
CONTINUOUS
 10
598.7336193183
 20
671.9910314164
 11
514.2036193183
 21
671.9910314164
  0
LINE
  5
3B2
100
AcDbEntity
  8
0
100
AcDbLine
 62
7
  6
CONTINUOUS
 10
505.2587486583
 20
671.9910314164
 11
420.7336193183
 21
671.9910314164
  0
LINE
  5
3B3
100
AcDbEntity
  8
0
100
AcDbLine
 62
7
  6
CONTINUOUS
 10
414.1966193183
 20
672.5260314164
 11
409.1166193183
 21
672.5260314164
  0
LINE
  5
3B4
100
AcDbEntity
  8
0
100
AcDbLine
 62
7
  6
CONTINUOUS
 10
406.7556193183
 20
672.5260314164
 11
401.6756193183
 21
672.5260314164
  0
LINE
  5
3B5
100
AcDbEntity
  8
0
100
AcDbLine
 62
7
  6
CONTINUOUS
 10
399.3146193183
 20
672.5260314164
 11
394.2346193183
 21
672.5260314164
  0
LINE
  5
3B6
100
AcDbEntity
  8
0
100
AcDbLine
 62
7
  6
CONTINUOUS
 10
391.8736193183
 20
672.5260314164
 11
386.7936193183
 21
672.5260314164
  0
LINE
  5
3B7
100
AcDbEntity
  8
0
100
AcDbLine
 62
7
  6
CONTINUOUS
 10
384.4326193183
 20
672.5260314164
 11
379.3526193183
 21
672.5260314164
  0
LINE
  5
3B8
100
AcDbEntity
  8
AXES
100
AcDbLine
 62
7
  6
CONTINUOUS
 10
788.0786193183
 20
672.9460314164
 11
764.7786193183
 21
672.9460314164
  0
LINE
  5
3B9
100
AcDbEntity
  8
0
100
AcDbLine
 62
7
  6
CONTINUOUS
 10
379.3526193183
 20
674.8870314164
 11
384.4326193183
 21
674.8870314164
  0
LINE
  5
3BA
100
AcDbEntity
  8
0
100
AcDbLine
 62
7
  6
CONTINUOUS
 10
386.7936193183
 20
674.8870314164
 11
391.8736193183
 21
674.8870314164
  0
LINE
  5
3BB
100
AcDbEntity
  8
0
100
AcDbLine
 62
7
  6
CONTINUOUS
 10
394.2346193183
 20
674.8870314164
 11
399.3146193183
 21
674.8870314164
  0
LINE
  5
3BC
100
AcDbEntity
  8
0
100
AcDbLine
 62
7
  6
CONTINUOUS
 10
401.6756193183
 20
674.8870314164
 11
406.7556193183
 21
674.8870314164
  0
LINE
  5
3BD
100
AcDbEntity
  8
0
100
AcDbLine
 62
7
  6
CONTINUOUS
 10
409.1166193183
 20
674.8870314164
 11
414.1966193183
 21
674.8870314164
  0
LINE
  5
3BE
100
AcDbEntity
  8
0
100
AcDbLine
 62
7
  6
CONTINUOUS
 10
414.1966193183
 20
679.9670314164
 11
409.1166193183
 21
679.9670314164
  0
LINE
  5
3BF
100
AcDbEntity
  8
0
100
AcDbLine
 62
7
  6
CONTINUOUS
 10
406.7556193183
 20
679.9670314164
 11
401.6756193183
 21
679.9670314164
  0
LINE
  5
3C0
100
AcDbEntity
  8
0
100
AcDbLine
 62
7
  6
CONTINUOUS
 10
399.3146193183
 20
679.9670314164
 11
394.2346193183
 21
679.9670314164
  0
LINE
  5
3C1
100
AcDbEntity
  8
0
100
AcDbLine
 62
7
  6
CONTINUOUS
 10
391.8736193183
 20
679.9670314164
 11
386.7936193183
 21
679.9670314164
  0
LINE
  5
3C2
100
AcDbEntity
  8
0
100
AcDbLine
 62
7
  6
CONTINUOUS
 10
384.4326193183
 20
679.9670314164
 11
379.3526193183
 21
679.9670314164
  0
LINE
  5
3C3
100
AcDbEntity
  8
AXES
100
AcDbLine
 62
7
  6
CENTER
 10
802.7546193183
 20
683.7054663203
 11
373.9026193183
 21
683.7054663203
  0
LINE
  5
3C4
100
AcDbEntity
  8
0
100
AcDbLine
 62
7
  6
CONTINUOUS
 10
863.0440904611
 20
212.7314778517
 11
863.0440904611
 21
622.7314778517
  0
LINE
  5
3C5
100
AcDbEntity
  8
AXES
100
AcDbLine
 62
7
  6
CENTER
 10
796.0392414698
 20
691.5743361281
 11
380.6179971669
 21
691.5743361281
  0
LINE
  5
3C6
100
AcDbEntity
  8
AXES
100
AcDbLine
 62
7
  6
CENTER
 10
380.7546193183
 20
692.9278600132
 11
795.9026193183
 21
692.9278600132
  0
LINE
  5
3C7
100
AcDbEntity
  8
0
100
AcDbLine
 62
7
  6
CONTINUOUS
 10
782.3286193183
 20
703.4469489945
 11
394.3286193183
 21
703.4469489945
  0
LINE
  5
3C8
100
AcDbEntity
  8
0
100
AcDbLine
 62
7
  6
CONTINUOUS
 10
794.0392414698
 20
144.5336766307
 11
800.6179971669
 21
151.1124323278
  0
LINE
  5
3C9
100
AcDbEntity
  8
0
100
AcDbLine
 62
7
  6
CONTINUOUS
 10
843.9476648422
 20
194.4421000031
 11
850.5264205394
 21
201.0208557003
  0
LINE
  5
3CA
100
AcDbEntity
  8
0
100
AcDbLine
 62
7
  6
CONTINUOUS
 10
792.2416429554
 20
141.929030346
 11
782.3286193183
 21
132.016006709
  0
LINE
  5
3CB
100
AcDbEntity
  8
0
100
AcDbLine
 62
7
  6
CONTINUOUS
 10
853.131066824
 20
202.8184542147
 11
863.0440904611
 21
212.7314778517
  0
LINE
  5
3CC
100
AcDbEntity
  8
0
100
AcDbLine
 62
7
  6
CONTINUOUS
 10
794.0392414698
 20
690.9292790728
 11
800.6179971669
 21
684.3505233756
  0
LINE
  5
3CD
100
AcDbEntity
  8
0
100
AcDbLine
 62
7
  6
CONTINUOUS
 10
843.9476648422
 20
641.0208557003
 11
850.5264205394
 21
634.4421000031
  0
LINE
  5
3CE
100
AcDbEntity
  8
0
100
AcDbLine
 62
7
  6
CONTINUOUS
 10
792.2416429554
 20
693.5339253574
 11
782.3286193183
 21
703.4469489945
  0
LINE
  5
3CF
100
AcDbEntity
  8
0
100
AcDbLine
 62
7
  6
CONTINUOUS
 10
853.131066824
 20
632.6445014888
 11
863.0440904611
 21
622.7314778517
  0
ARC
  5
3D0
100
AcDbEntity
  8
AXES
100
AcDbCircle
 62
7
  6
CONTINUOUS
 10
334.0058898478
 20
199.6077796123
 40
5.3023053877
100
AcDbArc
 50
264.5822364403
 51
269.9329828825
  0
ARC
  5
3D1
100
AcDbEntity
  8
AXES
100
AcDbCircle
 62
7
  6
CONTINUOUS
 10
381.2049210728
 20
152.4087483809
 40
5.3023053815
100
AcDbArc
 50
180.0670171151
 51
185.4177635064
  0
ARC
  5
3D2
100
AcDbEntity
  8
AXES
100
AcDbCircle
 62
7
  6
CONTINUOUS
 10
377.5320644179
 20
143.240121533
 40
5.222556034
100
AcDbArc
 50
0.0377504898
 51
4.6235602318
  0
ARC
  5
3D3
100
AcDbEntity
  8
AXES
100
AcDbCircle
 62
7
  6
CONTINUOUS
 10
324.8372629996
 20
195.9349229512
 40
5.2225560341
100
AcDbArc
 50
85.3764397682
 51
89.9622495101
  0
ARC
  5
3D4
100
AcDbEntity
  8
0
100
AcDbCircle
 62
7
  6
CONTINUOUS
 10
443.3286193183
 20
184.691924287
 40
5.1
100
AcDbArc
 50
102.4557926259
 51
77.5442073741
  0
CIRCLE
  5
3D5
100
AcDbEntity
  8
AXES
100
AcDbCircle
 62
7
  6
CONTINUOUS
 10
354.5140657536
 20
252.7314778517
 40
2.7
  0
CIRCLE
  5
3D6
100
AcDbEntity
  8
AXES
100
AcDbCircle
 62
7
  6
CONTINUOUS
 10
382.8286193183
 20
160.691924287
 40
2.4
  0
CIRCLE
  5
3D7
100
AcDbEntity
  8
AXES
100
AcDbCircle
 62
7
  6
CONTINUOUS
 10
382.8286193183
 20
185.141924287
 40
2.4
  0
CIRCLE
  5
3D8
100
AcDbEntity
  8
AXES
100
AcDbCircle
 62
7
  6
CONTINUOUS
 10
318.4131481756
 20
222.7314778517
 40
2.1
  0
CIRCLE
  5
3D9
100
AcDbEntity
  8
AXES
100
AcDbCircle
 62
7
  6
CONTINUOUS
 10
435.3286193183
 20
136.816006709
 40
2.1
  0
CIRCLE
  5
3DA
100
AcDbEntity
  8
AXES
100
AcDbCircle
 62
7
  6
CONTINUOUS
 10
443.3286193183
 20
168.691924287
 40
1.5
  0
CIRCLE
  5
3DB
100
AcDbEntity
  8
AXES
100
AcDbCircle
 62
7
  6
CONTINUOUS
 10
427.3286193183
 20
158.941924287
 40
1.5
  0
CIRCLE
  5
3DC
100
AcDbEntity
  8
AXES
100
AcDbCircle
 62
7
  6
CONTINUOUS
 10
397.3286193183
 20
188.941924287
 40
1.5
  0
CIRCLE
  5
3DD
100
AcDbEntity
  8
AXES
100
AcDbCircle
 62
7
  6
CONTINUOUS
 10
427.3286193183
 20
188.941924287
 40
1.5
  0
CIRCLE
  5
3DE
100
AcDbEntity
  8
AXES
100
AcDbCircle
 62
7
  6
CONTINUOUS
 10
397.3286193183
 20
158.941924287
 40
1.5
  0
CIRCLE
  5
3DF
100
AcDbEntity
  8
AXES
100
AcDbCircle
 62
7
  6
CONTINUOUS
 10
354.5140657536
 20
303.7314778517
 40
2.7
  0
CIRCLE
  5
3E0
100
AcDbEntity
  8
AXES
100
AcDbCircle
 62
7
  6
CONTINUOUS
 10
318.4131481756
 20
352.7314778517
 40
2.1
  0
CIRCLE
  5
3E1
100
AcDbEntity
  8
AXES
100
AcDbCircle
 62
7
  6
CONTINUOUS
 10
318.4131481756
 20
282.7314778517
 40
2.1
  0
CIRCLE
  5
3E2
100
AcDbEntity
  8
AXES
100
AcDbCircle
 62
7
  6
CONTINUOUS
 10
394.4286193183
 20
402.8014778517
 40
2.0
  0
CIRCLE
  5
3E3
100
AcDbEntity
  8
AXES
100
AcDbCircle
 62
7
  6
CONTINUOUS
 10
436.1786193183
 20
367.3014778517
 40
2.0
  0
CIRCLE
  5
3E4
100
AcDbEntity
  8
AXES
100
AcDbCircle
 62
7
  6
CONTINUOUS
 10
436.1786193183
 20
275.8614778517
 40
2.0
  0
ARC
  5
3E5
100
AcDbEntity
  8
0
100
AcDbCircle
 62
7
  6
CONTINUOUS
 10
468.3286193183
 20
184.691924287
 40
5.1
100
AcDbArc
 50
102.4557926259
 51
77.5442073741
  0
CIRCLE
  5
3E6
100
AcDbEntity
  8
AXES
100
AcDbCircle
 62
7
  6
CONTINUOUS
 10
455.9786193183
 20
168.691924287
 40
2.4
  0
CIRCLE
  5
3E7
100
AcDbEntity
  8
AXES
100
AcDbCircle
 62
7
  6
CONTINUOUS
 10
475.8286193183
 20
136.816006709
 40
2.1
  0
CIRCLE
  5
3E8
100
AcDbEntity
  8
AXES
100
AcDbCircle
 62
7
  6
CONTINUOUS
 10
525.3286193183
 20
136.816006709
 40
2.1
  0
CIRCLE
  5
3E9
100
AcDbEntity
  8
AXES
100
AcDbCircle
 62
7
  6
CONTINUOUS
 10
468.3286193183
 20
168.691924287
 40
1.5
  0
CIRCLE
  5
3EA
100
AcDbEntity
  8
AXES
100
AcDbCircle
 62
7
  6
CONTINUOUS
 10
503.3286193183
 20
168.691924287
 40
1.5
  0
CIRCLE
  5
3EB
100
AcDbEntity
  8
AXES
100
AcDbCircle
 62
7
  6
CONTINUOUS
 10
517.3286193183
 20
168.691924287
 40
1.5
  0
CIRCLE
  5
3EC
100
AcDbEntity
  8
AXES
100
AcDbCircle
 62
7
  6
CONTINUOUS
 10
538.3286193183
 20
168.691924287
 40
1.5
  0
CIRCLE
  5
3ED
100
AcDbEntity
  8
AXES
100
AcDbCircle
 62
7
  6
CONTINUOUS
 10
545.3286193183
 20
168.691924287
 40
1.5
  0
CIRCLE
  5
3EE
100
AcDbEntity
  8
AXES
100
AcDbCircle
 62
7
  6
CONTINUOUS
 10
552.3286193183
 20
168.691924287
 40
1.5
  0
CIRCLE
  5
3EF
100
AcDbEntity
  8
AXES
100
AcDbCircle
 62
7
  6
CONTINUOUS
 10
559.3286193183
 20
168.691924287
 40
1.5
  0
CIRCLE
  5
3F0
100
AcDbEntity
  8
AXES
100
AcDbCircle
 62
7
  6
CONTINUOUS
 10
566.3286193183
 20
168.691924287
 40
1.5
  0
CIRCLE
  5
3F1
100
AcDbEntity
  8
AXES
100
AcDbCircle
 62
7
  6
CONTINUOUS
 10
573.3286193183
 20
168.691924287
 40
1.5
  0
CIRCLE
  5
3F2
100
AcDbEntity
  8
AXES
100
AcDbCircle
 62
7
  6
CONTINUOUS
 10
580.3286193183
 20
168.691924287
 40
1.5
  0
CIRCLE
  5
3F3
100
AcDbEntity
  8
AXES
100
AcDbCircle
 62
7
  6
CONTINUOUS
 10
587.3286193183
 20
168.691924287
 40
1.5
  0
CIRCLE
  5
3F4
100
AcDbEntity
  8
AXES
100
AcDbCircle
 62
7
  6
CONTINUOUS
 10
519.0286193183
 20
402.8014778517
 40
2.0
  0
CIRCLE
  5
3F5
100
AcDbEntity
  8
AXES
100
AcDbCircle
 62
7
  6
CONTINUOUS
 10
512.3786193183
 20
367.3014778517
 40
2.0
  0
CIRCLE
  5
3F6
100
AcDbEntity
  8
AXES
100
AcDbCircle
 62
7
  6
CONTINUOUS
 10
525.6786193183
 20
367.3014778517
 40
2.0
  0
CIRCLE
  5
3F7
100
AcDbEntity
  8
AXES
100
AcDbCircle
 62
7
  6
CONTINUOUS
 10
512.3786193183
 20
275.8614778517
 40
2.0
  0
CIRCLE
  5
3F8
100
AcDbEntity
  8
AXES
100
AcDbCircle
 62
7
  6
CONTINUOUS
 10
525.6786193183
 20
275.8614778517
 40
2.0
  0
CIRCLE
  5
3F9
100
AcDbEntity
  8
AXES
100
AcDbCircle
 62
7
  6
CONTINUOUS
 10
354.5140657536
 20
453.7314778517
 40
2.7
  0
CIRCLE
  5
3FA
100
AcDbEntity
  8
AXES
100
AcDbCircle
 62
7
  6
CONTINUOUS
 10
318.4131481756
 20
482.7314778517
 40
2.1
  0
CIRCLE
  5
3FB
100
AcDbEntity
  8
AXES
100
AcDbCircle
 62
7
  6
CONTINUOUS
 10
318.4131481756
 20
552.7314778517
 40
2.1
  0
CIRCLE
  5
3FC
100
AcDbEntity
  8
AXES
100
AcDbCircle
 62
7
  6
CONTINUOUS
 10
318.4131481756
 20
417.7314778517
 40
2.1
  0
CIRCLE
  5
3FD
100
AcDbEntity
  8
AXES
100
AcDbCircle
 62
7
  6
CONTINUOUS
 10
394.4286193183
 20
475.1914778517
 40
2.0
  0
ARC
  5
3FE
100
AcDbEntity
  8
AXES
100
AcDbCircle
 62
7
  6
CONTINUOUS
 10
334.0058898478
 20
635.8551760897
 40
5.3023053892
100
AcDbArc
 50
90.0670171181
 51
95.4177635728
  0
ARC
  5
3FF
100
AcDbEntity
  8
AXES
100
AcDbCircle
 62
7
  6
CONTINUOUS
 10
381.2049210809
 20
683.0542073222
 40
5.3023053897
100
AcDbArc
 50
174.5822364231
 51
179.9329828817
  0
ARC
  5
400
100
AcDbEntity
  8
AXES
100
AcDbCircle
 62
7
  6
CONTINUOUS
 10
324.8372629996
 20
639.5280327523
 40
5.2225560342
100
AcDbArc
 50
270.0377504899
 51
274.6235602318
  0
ARC
  5
401
100
AcDbEntity
  8
AXES
100
AcDbCircle
 62
7
  6
CONTINUOUS
 10
377.5320644178
 20
692.2228341704
 40
5.2225560341
100
AcDbArc
 50
355.3764397682
 51
359.9622495101
  0
CIRCLE
  5
402
100
AcDbEntity
  8
AXES
100
AcDbCircle
 62
7
  6
CONTINUOUS
 10
354.5140657536
 20
602.7314778517
 40
2.7
  0
CIRCLE
  5
403
100
AcDbEntity
  8
AXES
100
AcDbCircle
 62
7
  6
CONTINUOUS
 10
354.5140657536
 20
588.7314778517
 40
2.7
  0
CIRCLE
  5
404
100
AcDbEntity
  8
0
100
AcDbCircle
 62
7
  6
CONTINUOUS
 10
423.2336193183
 20
676.7910314164
 40
2.1
  0
CIRCLE
  5
405
100
AcDbEntity
  8
0
100
AcDbCircle
 62
7
  6
CONTINUOUS
 10
423.2336193183
 20
653.1910314164
 40
2.1
  0
CIRCLE
  5
406
100
AcDbEntity
  8
AXES
100
AcDbCircle
 62
7
  6
CONTINUOUS
 10
318.4131481756
 20
612.7314778517
 40
2.1
  0
CIRCLE
  5
407
100
AcDbEntity
  8
AXES
100
AcDbCircle
 62
7
  6
CONTINUOUS
 10
435.3286193183
 20
698.6469489945
 40
2.1
  0
CIRCLE
  5
408
100
AcDbEntity
  8
AXES
100
AcDbCircle
 62
7
  6
CONTINUOUS
 10
394.4286193183
 20
630.1314778517
 40
2.0
  0
CIRCLE
  5
409
100
AcDbEntity
  8
AXES
100
AcDbCircle
 62
7
  6
CONTINUOUS
 10
519.0286193183
 20
475.1914778517
 40
2.0
  0
CIRCLE
  5
40A
100
AcDbEntity
  8
0
100
AcDbCircle
 62
7
  6
CONTINUOUS
 10
462.9986193183
 20
676.7910314164
 40
2.1
  0
CIRCLE
  5
40B
100
AcDbEntity
  8
0
100
AcDbCircle
 62
7
  6
CONTINUOUS
 10
556.4686193183
 20
676.7910314164
 40
2.1
  0
CIRCLE
  5
40C
100
AcDbEntity
  8
0
100
AcDbCircle
 62
7
  6
CONTINUOUS
 10
556.4686193183
 20
653.1910314164
 40
2.1
  0
CIRCLE
  5
40D
100
AcDbEntity
  8
0
100
AcDbCircle
 62
7
  6
CONTINUOUS
 10
462.9986193183
 20
653.1910314164
 40
2.1
  0
CIRCLE
  5
40E
100
AcDbEntity
  8
0
100
AcDbCircle
 62
7
  6
CONTINUOUS
 10
502.7587486583
 20
676.7910314164
 40
2.1
  0
CIRCLE
  5
40F
100
AcDbEntity
  8
0
100
AcDbCircle
 62
7
  6
CONTINUOUS
 10
502.7587486583
 20
653.1910314164
 40
2.1
  0
CIRCLE
  5
410
100
AcDbEntity
  8
0
100
AcDbCircle
 62
7
  6
CONTINUOUS
 10
516.7084899783
 20
653.1910314164
 40
2.1
  0
CIRCLE
  5
411
100
AcDbEntity
  8
0
100
AcDbCircle
 62
7
  6
CONTINUOUS
 10
516.7084899783
 20
676.7910314164
 40
2.1
  0
CIRCLE
  5
412
100
AcDbEntity
  8
AXES
100
AcDbCircle
 62
7
  6
CONTINUOUS
 10
525.3286193183
 20
698.6469489945
 40
2.1
  0
CIRCLE
  5
413
100
AcDbEntity
  8
AXES
100
AcDbCircle
 62
7
  6
CONTINUOUS
 10
475.8286193183
 20
698.6469489945
 40
2.1
  0
CIRCLE
  5
414
100
AcDbEntity
  8
AXES
100
AcDbCircle
 62
7
  6
CONTINUOUS
 10
519.0286193183
 20
630.1314778517
 40
2.0
  0
CIRCLE
  5
415
100
AcDbEntity
  8
AXES
100
AcDbCircle
 62
7
  6
CONTINUOUS
 10
598.3286193183
 20
168.691924287
 40
2.4
  0
CIRCLE
  5
416
100
AcDbEntity
  8
AXES
100
AcDbCircle
 62
7
  6
CONTINUOUS
 10
628.8286193183
 20
254.7314778517
 40
2.1
  0
CIRCLE
  5
417
100
AcDbEntity
  8
AXES
100
AcDbCircle
 62
7
  6
CONTINUOUS
 10
645.0886193183
 20
254.7314778517
 40
2.1
  0
CIRCLE
  5
418
100
AcDbEntity
  8
AXES
100
AcDbCircle
 62
7
  6
CONTINUOUS
 10
700.8286193183
 20
136.816006709
 40
2.1
  0
CIRCLE
  5
419
100
AcDbEntity
  8
AXES
100
AcDbCircle
 62
7
  6
CONTINUOUS
 10
588.3286193183
 20
136.816006709
 40
2.1
  0
CIRCLE
  5
41A
100
AcDbEntity
  8
AXES
100
AcDbCircle
 62
7
  6
CONTINUOUS
 10
651.3286193183
 20
136.816006709
 40
2.1
  0
CIRCLE
  5
41B
100
AcDbEntity
  8
AXES
100
AcDbCircle
 62
7
  6
CONTINUOUS
 10
688.3286193183
 20
158.941924287
 40
1.5
  0
CIRCLE
  5
41C
100
AcDbEntity
  8
AXES
100
AcDbCircle
 62
7
  6
CONTINUOUS
 10
688.3286193183
 20
188.941924287
 40
1.5
  0
CIRCLE
  5
41D
100
AcDbEntity
  8
AXES
100
AcDbCircle
 62
7
  6
CONTINUOUS
 10
658.3286193183
 20
158.941924287
 40
1.5
  0
CIRCLE
  5
41E
100
AcDbEntity
  8
AXES
100
AcDbCircle
 62
7
  6
CONTINUOUS
 10
658.3286193183
 20
188.941924287
 40
1.5
  0
CIRCLE
  5
41F
100
AcDbEntity
  8
AXES
100
AcDbCircle
 62
7
  6
CONTINUOUS
 10
643.3286193183
 20
158.941924287
 40
1.5
  0
CIRCLE
  5
420
100
AcDbEntity
  8
AXES
100
AcDbCircle
 62
7
  6
CONTINUOUS
 10
643.3286193183
 20
188.941924287
 40
1.5
  0
CIRCLE
  5
421
100
AcDbEntity
  8
AXES
100
AcDbCircle
 62
7
  6
CONTINUOUS
 10
613.3286193183
 20
158.941924287
 40
1.5
  0
CIRCLE
  5
422
100
AcDbEntity
  8
AXES
100
AcDbCircle
 62
7
  6
CONTINUOUS
 10
613.3286193183
 20
188.941924287
 40
1.5
  0
CIRCLE
  5
423
100
AcDbEntity
  8
AXES
100
AcDbCircle
 62
7
  6
CONTINUOUS
 10
688.8286193183
 20
292.7314778517
 40
2.7
  0
CIRCLE
  5
424
100
AcDbEntity
  8
AXES
100
AcDbCircle
 62
7
  6
CONTINUOUS
 10
628.8286193183
 20
281.4014778517
 40
2.1
  0
CIRCLE
  5
425
100
AcDbEntity
  8
AXES
100
AcDbCircle
 62
7
  6
CONTINUOUS
 10
645.0886193183
 20
281.4014778517
 40
2.1
  0
CIRCLE
  5
426
100
AcDbEntity
  8
AXES
100
AcDbCircle
 62
7
  6
CONTINUOUS
 10
676.3686193183
 20
402.8014778517
 40
2.0
  0
CIRCLE
  5
427
100
AcDbEntity
  8
AXES
100
AcDbCircle
 62
7
  6
CONTINUOUS
 10
601.8786193183
 20
367.3014778517
 40
2.0
  0
CIRCLE
  5
428
100
AcDbEntity
  8
AXES
100
AcDbCircle
 62
7
  6
CONTINUOUS
 10
601.8786193183
 20
275.8614778517
 40
2.0
  0
ARC
  5
429
100
AcDbEntity
  8
AXES
100
AcDbCircle
 62
7
  6
CONTINUOUS
 10
842.651348789
 20
199.6077796103
 40
5.3023053857
100
AcDbArc
 50
270.0670171167
 51
275.4177635425
  0
ARC
  5
42A
100
AcDbEntity
  8
AXES
100
AcDbCircle
 62
7
  6
CONTINUOUS
 10
795.452317562
 20
152.408748381
 40
5.3023053834
100
AcDbArc
 50
354.5822364781
 51
359.9329828842
  0
ARC
  5
42B
100
AcDbEntity
  8
AXES
100
AcDbCircle
 62
7
  6
CONTINUOUS
 10
799.1251742188
 20
143.240121533
 40
5.2225560341
100
AcDbArc
 50
175.3764397682
 51
179.9622495101
  0
ARC
  5
42C
100
AcDbEntity
  8
AXES
100
AcDbCircle
 62
7
  6
CONTINUOUS
 10
851.819975637
 20
195.9349229512
 40
5.2225560341
100
AcDbArc
 50
90.0377504899
 51
94.6235602318
  0
CIRCLE
  5
42D
100
AcDbEntity
  8
AXES
100
AcDbCircle
 62
7
  6
CONTINUOUS
 10
822.143172883
 20
252.7314778517
 40
2.7
  0
CIRCLE
  5
42E
100
AcDbEntity
  8
AXES
100
AcDbCircle
 62
7
  6
CONTINUOUS
 10
793.8286193183
 20
160.691924287
 40
2.4
  0
CIRCLE
  5
42F
100
AcDbEntity
  8
AXES
100
AcDbCircle
 62
7
  6
CONTINUOUS
 10
793.8286193183
 20
185.141924287
 40
2.4
  0
CIRCLE
  5
430
100
AcDbEntity
  8
AXES
100
AcDbCircle
 62
7
  6
CONTINUOUS
 10
858.2440904611
 20
222.7314778517
 40
2.1
  0
CIRCLE
  5
431
100
AcDbEntity
  8
AXES
100
AcDbCircle
 62
7
  6
CONTINUOUS
 10
741.3286193183
 20
136.816006709
 40
2.1
  0
CIRCLE
  5
432
100
AcDbEntity
  8
AXES
100
AcDbCircle
 62
7
  6
CONTINUOUS
 10
822.143172883
 20
303.7314778517
 40
2.7
  0
CIRCLE
  5
433
100
AcDbEntity
  8
AXES
100
AcDbCircle
 62
7
  6
CONTINUOUS
 10
778.8286193183
 20
292.7314778517
 40
2.7
  0
CIRCLE
  5
434
100
AcDbEntity
  8
AXES
100
AcDbCircle
 62
7
  6
CONTINUOUS
 10
858.2440904611
 20
282.7314778517
 40
2.1
  0
CIRCLE
  5
435
100
AcDbEntity
  8
AXES
100
AcDbCircle
 62
7
  6
CONTINUOUS
 10
858.2440904611
 20
352.7314778517
 40
2.1
  0
CIRCLE
  5
436
100
AcDbEntity
  8
AXES
100
AcDbCircle
 62
7
  6
CONTINUOUS
 10
676.3686193183
 20
475.1914778517
 40
2.0
  0
CIRCLE
  5
437
100
AcDbEntity
  8
AXES
100
AcDbCircle
 62
7
  6
CONTINUOUS
 10
695.8286193183
 20
670.7710314164
 40
3.2
  0
CIRCLE
  5
438
100
AcDbEntity
  8
AXES
100
AcDbCircle
 62
7
  6
CONTINUOUS
 10
711.8286193183
 20
670.7710314164
 40
3.2
  0
CIRCLE
  5
439
100
AcDbEntity
  8
AXES
100
AcDbCircle
 62
7
  6
CONTINUOUS
 10
695.8286193183
 20
650.7710314164
 40
3.2
  0
CIRCLE
  5
43A
100
AcDbEntity
  8
AXES
100
AcDbCircle
 62
7
  6
CONTINUOUS
 10
711.8286193183
 20
650.7710314164
 40
3.2
  0
CIRCLE
  5
43B
100
AcDbEntity
  8
0
100
AcDbCircle
 62
7
  6
CONTINUOUS
 10
596.2336193183
 20
653.1910314164
 40
2.1
  0
CIRCLE
  5
43C
100
AcDbEntity
  8
0
100
AcDbCircle
 62
7
  6
CONTINUOUS
 10
596.2336193183
 20
676.7910314164
 40
2.1
  0
CIRCLE
  5
43D
100
AcDbEntity
  8
AXES
100
AcDbCircle
 62
7
  6
CONTINUOUS
 10
588.3286193183
 20
698.6469489945
 40
2.1
  0
CIRCLE
  5
43E
100
AcDbEntity
  8
AXES
100
AcDbCircle
 62
7
  6
CONTINUOUS
 10
651.3286193183
 20
698.6469489945
 40
2.1
  0
CIRCLE
  5
43F
100
AcDbEntity
  8
AXES
100
AcDbCircle
 62
7
  6
CONTINUOUS
 10
700.8286193183
 20
698.6469489945
 40
2.1
  0
CIRCLE
  5
440
100
AcDbEntity
  8
AXES
100
AcDbCircle
 62
7
  6
CONTINUOUS
 10
676.3686193183
 20
607.2714778517
 40
2.0
  0
CIRCLE
  5
441
100
AcDbEntity
  8
AXES
100
AcDbCircle
 62
7
  6
CONTINUOUS
 10
822.143172883
 20
453.7314778517
 40
2.7
  0
CIRCLE
  5
442
100
AcDbEntity
  8
AXES
100
AcDbCircle
 62
7
  6
CONTINUOUS
 10
763.8286193183
 20
557.7314778517
 40
2.7
  0
CIRCLE
  5
443
100
AcDbEntity
  8
AXES
100
AcDbCircle
 62
7
  6
CONTINUOUS
 10
858.2440904611
 20
417.7314778517
 40
2.1
  0
CIRCLE
  5
444
100
AcDbEntity
  8
AXES
100
AcDbCircle
 62
7
  6
CONTINUOUS
 10
858.2440904611
 20
552.7314778517
 40
2.1
  0
CIRCLE
  5
445
100
AcDbEntity
  8
AXES
100
AcDbCircle
 62
7
  6
CONTINUOUS
 10
858.2440904611
 20
482.7314778517
 40
2.1
  0
ARC
  5
446
100
AcDbEntity
  8
AXES
100
AcDbCircle
 62
7
  6
CONTINUOUS
 10
842.6513487889
 20
635.85517609
 40
5.3023053888
100
AcDbArc
 50
84.5822364302
 51
89.9329828821
  0
ARC
  5
447
100
AcDbEntity
  8
AXES
100
AcDbCircle
 62
7
  6
CONTINUOUS
 10
795.4523175569
 20
683.0542073223
 40
5.3023053886
100
AcDbArc
 50
0.0670171178
 51
5.4177635682
  0
ARC
  5
448
100
AcDbEntity
  8
AXES
100
AcDbCircle
 62
7
  6
CONTINUOUS
 10
851.819975637
 20
639.5280327523
 40
5.2225560342
100
AcDbArc
 50
265.3764397682
 51
269.9622495101
  0
ARC
  5
449
100
AcDbEntity
  8
AXES
100
AcDbCircle
 62
7
  6
CONTINUOUS
 10
799.1251742189
 20
692.2228341704
 40
5.2225560342
100
AcDbArc
 50
180.0377504899
 51
184.6235602318
  0
CIRCLE
  5
44A
100
AcDbEntity
  8
AXES
100
AcDbCircle
 62
7
  6
CONTINUOUS
 10
727.8286193183
 20
670.7710314164
 40
3.2
  0
CIRCLE
  5
44B
100
AcDbEntity
  8
AXES
100
AcDbCircle
 62
7
  6
CONTINUOUS
 10
743.8286193183
 20
670.7710314164
 40
3.2
  0
CIRCLE
  5
44C
100
AcDbEntity
  8
AXES
100
AcDbCircle
 62
7
  6
CONTINUOUS
 10
727.8286193183
 20
650.7710314164
 40
3.2
  0
CIRCLE
  5
44D
100
AcDbEntity
  8
AXES
100
AcDbCircle
 62
7
  6
CONTINUOUS
 10
743.8286193183
 20
650.7710314164
 40
3.2
  0
CIRCLE
  5
44E
100
AcDbEntity
  8
AXES
100
AcDbCircle
 62
7
  6
CONTINUOUS
 10
822.143172883
 20
602.7314778517
 40
2.7
  0
CIRCLE
  5
44F
100
AcDbEntity
  8
AXES
100
AcDbCircle
 62
7
  6
CONTINUOUS
 10
822.143172883
 20
588.7314778517
 40
2.7
  0
ARC
  5
450
100
AcDbEntity
  8
AXES
100
AcDbCircle
 62
7
  6
CONTINUOUS
 10
788.0786193183
 20
670.4460314164
 40
2.5
100
AcDbArc
 50
0.0
 51
90.0
  0
ARC
  5
451
100
AcDbEntity
  8
AXES
100
AcDbCircle
 62
7
  6
CONTINUOUS
 10
788.0786193183
 20
654.6460314164
 40
2.5
100
AcDbArc
 50
270.0
 51
360.0
  0
ARC
  5
452
100
AcDbEntity
  8
AXES
100
AcDbCircle
 62
7
  6
CONTINUOUS
 10
764.7786193183
 20
654.6460314164
 40
2.5
100
AcDbArc
 50
180.0
 51
270.0
  0
ARC
  5
453
100
AcDbEntity
  8
AXES
100
AcDbCircle
 62
7
  6
CONTINUOUS
 10
764.7786193183
 20
670.4460314164
 40
2.5
100
AcDbArc
 50
90.0
 51
180.0
  0
CIRCLE
  5
454
100
AcDbEntity
  8
AXES
100
AcDbCircle
 62
7
  6
CONTINUOUS
 10
796.4286193183
 20
662.5460314164
 40
2.4
  0
CIRCLE
  5
455
100
AcDbEntity
  8
AXES
100
AcDbCircle
 62
7
  6
CONTINUOUS
 10
756.4286193183
 20
662.5460314164
 40
2.4
  0
CIRCLE
  5
456
100
AcDbEntity
  8
AXES
100
AcDbCircle
 62
7
  6
CONTINUOUS
 10
858.2440904611
 20
612.7314778517
 40
2.1
  0
CIRCLE
  5
457
100
AcDbEntity
  8
AXES
100
AcDbCircle
 62
7
  6
CONTINUOUS
 10
741.3286193183
 20
698.6469489945
 40
2.1
  0
SPLINE
  5
458
100
AcDbEntity
  8
AXES
100
AcDbSpline
 62
7
  6
CONTINUOUS
 70
0
 71
3
 72
9
 73
5
 74
0
 42
0.0000001
 43
0.0000001
 44
0.0000000001
 40
0.0
 40
0.0
 40
0.0
 40
0.0
 40
0.194048154
 40
1.0
 40
1.0
 40
1.0
 40
1.0
 10
793.9026193183
 20
143.1411610344
 30
0.0
 10
793.9026193183
 20
143.0923462134
 30
0.0
 10
793.839701257
 20
142.8408373353
 30
0.0
 10
793.6186629393
 20
142.6733606843
 30
0.0
 10
793.4514271687
 20
142.5587398066
 30
0.0
  0
SPLINE
  5
459
100
AcDbEntity
  8
AXES
100
AcDbSpline
 62
7
  6
CONTINUOUS
 70
0
 71
3
 72
8
 73
4
 74
0
 42
0.0000001
 43
0.0000001
 44
0.0000000001
 40
0.0
 40
0.0
 40
0.0
 40
0.0
 40
1.0
 40
1.0
 40
1.0
 40
1.0
 10
793.4514271687
 20
142.5587398066
 30
0.0
 10
793.3686204027
 20
142.5019852967
 30
0.0
 10
793.2825704081
 20
142.4499145812
 30
0.0
 10
793.1952352977
 20
142.4004109109
 30
0.0
  0
SPLINE
  5
45A
100
AcDbEntity
  8
AXES
100
AcDbSpline
 62
7
  6
CONTINUOUS
 70
0
 71
3
 72
9
 73
5
 74
0
 42
0.0000001
 43
0.0000001
 44
0.0000000001
 40
0.0
 40
0.0
 40
0.0
 40
0.0
 40
0.2252114411
 40
1.0
 40
1.0
 40
1.0
 40
1.0
 10
793.1952352977
 20
142.4004109109
 30
0.0
 10
793.1257509373
 20
142.361025481
 30
0.0
 10
792.8130172609
 20
142.1935546653
 30
0.0
 10
792.4908387039
 20
142.0448032018
 30
0.0
 10
792.2416429554
 20
141.929030346
 30
0.0
  0
SPLINE
  5
45B
100
AcDbEntity
  8
AXES
100
AcDbSpline
 62
7
  6
CONTINUOUS
 70
0
 71
3
 72
9
 73
5
 74
0
 42
0.0000001
 43
0.0000001
 44
0.0000000001
 40
0.0
 40
0.0
 40
0.0
 40
0.0
 40
0.194048154
 40
1.0
 40
1.0
 40
1.0
 40
1.0
 10
382.7546193183
 20
143.1411610344
 30
0.0
 10
382.7546193183
 20
143.0923462134
 30
0.0
 10
382.8175373797
 20
142.8408373353
 30
0.0
 10
383.0385756974
 20
142.6733606843
 30
0.0
 10
383.205811468
 20
142.5587398066
 30
0.0
  0
SPLINE
  5
45C
100
AcDbEntity
  8
AXES
100
AcDbSpline
 62
7
  6
CONTINUOUS
 70
0
 71
3
 72
8
 73
4
 74
0
 42
0.0000001
 43
0.0000001
 44
0.0000000001
 40
0.0
 40
0.0
 40
0.0
 40
0.0
 40
1.0
 40
1.0
 40
1.0
 40
1.0
 10
383.205811468
 20
142.5587398066
 30
0.0
 10
383.2886182339
 20
142.5019852967
 30
0.0
 10
383.3746682285
 20
142.4499145812
 30
0.0
 10
383.4620033389
 20
142.4004109109
 30
0.0
  0
SPLINE
  5
45D
100
AcDbEntity
  8
AXES
100
AcDbSpline
 62
7
  6
CONTINUOUS
 70
0
 71
3
 72
9
 73
5
 74
0
 42
0.0000001
 43
0.0000001
 44
0.0000000001
 40
0.0
 40
0.0
 40
0.0
 40
0.0
 40
0.2252114411
 40
1.0
 40
1.0
 40
1.0
 40
1.0
 10
383.4620033389
 20
142.4004109109
 30
0.0
 10
383.5314876994
 20
142.361025481
 30
0.0
 10
383.8442213758
 20
142.1935546653
 30
0.0
 10
384.1663999327
 20
142.0448032018
 30
0.0
 10
384.4155956813
 20
141.929030346
 30
0.0
  0
SPLINE
  5
45E
100
AcDbEntity
  8
AXES
100
AcDbSpline
 62
7
  6
CONTINUOUS
 70
0
 71
3
 72
8
 73
4
 74
0
 42
0.0000001
 43
0.0000001
 44
0.0000000001
 40
0.0
 40
0.0
 40
0.0
 40
0.0
 40
1.0
 40
1.0
 40
1.0
 40
1.0
 10
793.9196133425
 20
143.6611054902
 30
0.0
 10
793.9311559314
 20
143.8049542933
 30
0.0
 10
793.9483845024
 20
143.9483786453
 30
0.0
 10
793.9688922778
 20
144.0912252086
 30
0.0
  0
SPLINE
  5
45F
100
AcDbEntity
  8
AXES
100
AcDbSpline
 62
7
  6
CONTINUOUS
 70
0
 71
3
 72
8
 73
4
 74
0
 42
0.0000001
 43
0.0000001
 44
0.0000000001
 40
0.0
 40
0.0
 40
0.0
 40
0.0
 40
1.0
 40
1.0
 40
1.0
 40
1.0
 10
793.9688922778
 20
144.0912252086
 30
0.0
 10
793.9901141822
 20
144.2390460261
 30
0.0
 10
794.0147366498
 20
144.386364455
 30
0.0
 10
794.0392414698
 20
144.5336766307
 30
0.0
  0
SPLINE
  5
460
100
AcDbEntity
  8
AXES
100
AcDbSpline
 62
7
  6
CONTINUOUS
 70
0
 71
3
 72
8
 73
4
 74
0
 42
0.0000001
 43
0.0000001
 44
0.0000000001
 40
0.0
 40
0.0
 40
0.0
 40
0.0
 40
1.0
 40
1.0
 40
1.0
 40
1.0
 10
382.7376252941
 20
143.6611054902
 30
0.0
 10
382.7260827053
 20
143.8049542933
 30
0.0
 10
382.7088541343
 20
143.9483786453
 30
0.0
 10
382.6883463589
 20
144.0912252086
 30
0.0
  0
SPLINE
  5
461
100
AcDbEntity
  8
AXES
100
AcDbSpline
 62
7
  6
CONTINUOUS
 70
0
 71
3
 72
8
 73
4
 74
0
 42
0.0000001
 43
0.0000001
 44
0.0000000001
 40
0.0
 40
0.0
 40
0.0
 40
0.0
 40
1.0
 40
1.0
 40
1.0
 40
1.0
 10
382.6883463589
 20
144.0912252086
 30
0.0
 10
382.6671244544
 20
144.2390460261
 30
0.0
 10
382.6425019868
 20
144.386364455
 30
0.0
 10
382.6179971669
 20
144.5336766307
 30
0.0
  0
SPLINE
  5
462
100
AcDbEntity
  8
AXES
100
AcDbSpline
 62
7
  6
CONTINUOUS
 70
0
 71
3
 72
8
 73
4
 74
0
 42
0.0000001
 43
0.0000001
 44
0.0000000001
 40
0.0
 40
0.0
 40
0.0
 40
0.0
 40
1.0
 40
1.0
 40
1.0
 40
1.0
 10
800.6179971669
 20
151.1124323278
 30
0.0
 10
800.642497812
 20
151.2597194063
 30
0.0
 10
800.6671174327
 20
151.4070124932
 30
0.0
 10
800.6883376268
 20
151.5548078533
 30
0.0
  0
SPLINE
  5
463
100
AcDbEntity
  8
AXES
100
AcDbSpline
 62
7
  6
CONTINUOUS
 70
0
 71
3
 72
8
 73
4
 74
0
 42
0.0000001
 43
0.0000001
 44
0.0000000001
 40
0.0
 40
0.0
 40
0.0
 40
0.0
 40
1.0
 40
1.0
 40
1.0
 40
1.0
 10
800.6883376268
 20
151.5548078533
 30
0.0
 10
800.7051965508
 20
151.6722276436
 30
0.0
 10
800.7198681733
 20
151.7900143654
 30
0.0
 10
800.7309361696
 20
151.9081208002
 30
0.0
  0
SPLINE
  5
464
100
AcDbEntity
  8
AXES
100
AcDbSpline
 62
7
  6
CONTINUOUS
 70
0
 71
3
 72
8
 73
4
 74
0
 42
0.0000001
 43
0.0000001
 44
0.0000000001
 40
0.0
 40
0.0
 40
0.0
 40
0.0
 40
1.0
 40
1.0
 40
1.0
 40
1.0
 10
376.0392414698
 20
151.1124323278
 30
0.0
 10
376.0147408247
 20
151.2597194063
 30
0.0
 10
375.990121204
 20
151.4070124932
 30
0.0
 10
375.9689010099
 20
151.5548078533
 30
0.0
  0
SPLINE
  5
465
100
AcDbEntity
  8
AXES
100
AcDbSpline
 62
7
  6
CONTINUOUS
 70
0
 71
3
 72
8
 73
4
 74
0
 42
0.0000001
 43
0.0000001
 44
0.0000000001
 40
0.0
 40
0.0
 40
0.0
 40
0.0
 40
1.0
 40
1.0
 40
1.0
 40
1.0
 10
375.9689010099
 20
151.5548078533
 30
0.0
 10
375.9520420858
 20
151.6722276441
 30
0.0
 10
375.9373704632
 20
151.7900143665
 30
0.0
 10
375.9263024669
 20
151.9081208018
 30
0.0
  0
SPLINE
  5
466
100
AcDbEntity
  8
AXES
100
AcDbSpline
 62
7
  6
CONTINUOUS
 70
0
 71
3
 72
9
 73
5
 74
0
 42
0.0000001
 43
0.0000001
 44
0.0000000001
 40
0.0
 40
0.0
 40
0.0
 40
0.0
 40
0.194048154
 40
1.0
 40
1.0
 40
1.0
 40
1.0
 10
851.9189361356
 20
634.3054778517
 30
0.0
 10
851.9677509567
 20
634.3054778517
 30
0.0
 10
852.2192598348
 20
634.2425597903
 30
0.0
 10
852.3867364858
 20
634.0215214727
 30
0.0
 10
852.5013573635
 20
633.8542857021
 30
0.0
  0
SPLINE
  5
467
100
AcDbEntity
  8
AXES
100
AcDbSpline
 62
7
  6
CONTINUOUS
 70
0
 71
3
 72
8
 73
4
 74
0
 42
0.0000001
 43
0.0000001
 44
0.0000000001
 40
0.0
 40
0.0
 40
0.0
 40
0.0
 40
1.0
 40
1.0
 40
1.0
 40
1.0
 10
852.5013573635
 20
633.8542857021
 30
0.0
 10
852.5581118733
 20
633.7714789361
 30
0.0
 10
852.6101825888
 20
633.6854289415
 30
0.0
 10
852.6596862591
 20
633.5980938311
 30
0.0
  0
SPLINE
  5
468
100
AcDbEntity
  8
AXES
100
AcDbSpline
 62
7
  6
CONTINUOUS
 70
0
 71
3
 72
9
 73
5
 74
0
 42
0.0000001
 43
0.0000001
 44
0.0000000001
 40
0.0
 40
0.0
 40
0.0
 40
0.0
 40
0.2252114411
 40
1.0
 40
1.0
 40
1.0
 40
1.0
 10
852.6596862591
 20
633.5980938311
 30
0.0
 10
852.699071689
 20
633.5286094706
 30
0.0
 10
852.8665425047
 20
633.2158757943
 30
0.0
 10
853.0152939683
 20
632.8936972373
 30
0.0
 10
853.131066824
 20
632.6445014888
 30
0.0
  0
SPLINE
  5
469
100
AcDbEntity
  8
AXES
100
AcDbSpline
 62
7
  6
CONTINUOUS
 70
0
 71
3
 72
9
 73
5
 74
0
 42
0.0000001
 43
0.0000001
 44
0.0000000001
 40
0.0
 40
0.0
 40
0.0
 40
0.0
 40
0.194048154
 40
1.0
 40
1.0
 40
1.0
 40
1.0
 10
851.9189361356
 20
201.1574778517
 30
0.0
 10
851.9677509567
 20
201.1574778517
 30
0.0
 10
852.2192598348
 20
201.2203959131
 30
0.0
 10
852.3867364858
 20
201.4414342308
 30
0.0
 10
852.5013573635
 20
201.6086700014
 30
0.0
  0
SPLINE
  5
46A
100
AcDbEntity
  8
AXES
100
AcDbSpline
 62
7
  6
CONTINUOUS
 70
0
 71
3
 72
8
 73
4
 74
0
 42
0.0000001
 43
0.0000001
 44
0.0000000001
 40
0.0
 40
0.0
 40
0.0
 40
0.0
 40
1.0
 40
1.0
 40
1.0
 40
1.0
 10
852.5013573635
 20
201.6086700014
 30
0.0
 10
852.5581118733
 20
201.6914767673
 30
0.0
 10
852.6101825888
 20
201.7775267619
 30
0.0
 10
852.6596862591
 20
201.8648618723
 30
0.0
  0
SPLINE
  5
46B
100
AcDbEntity
  8
AXES
100
AcDbSpline
 62
7
  6
CONTINUOUS
 70
0
 71
3
 72
9
 73
5
 74
0
 42
0.0000001
 43
0.0000001
 44
0.0000000001
 40
0.0
 40
0.0
 40
0.0
 40
0.0
 40
0.2252114411
 40
1.0
 40
1.0
 40
1.0
 40
1.0
 10
852.6596862591
 20
201.8648618723
 30
0.0
 10
852.699071689
 20
201.9343462328
 30
0.0
 10
852.8665425047
 20
202.2470799091
 30
0.0
 10
853.0152939683
 20
202.5692584661
 30
0.0
 10
853.131066824
 20
202.8184542147
 30
0.0
  0
SPLINE
  5
46C
100
AcDbEntity
  8
AXES
100
AcDbSpline
 62
7
  6
CONTINUOUS
 70
0
 71
3
 72
8
 73
4
 74
0
 42
0.0000001
 43
0.0000001
 44
0.0000000001
 40
0.0
 40
0.0
 40
0.0
 40
0.0
 40
1.0
 40
1.0
 40
1.0
 40
1.0
 10
851.3989916798
 20
634.3224718759
 30
0.0
 10
851.2551428767
 20
634.3340144647
 30
0.0
 10
851.1117185248
 20
634.3512430358
 30
0.0
 10
850.9688719614
 20
634.3717508112
 30
0.0
  0
SPLINE
  5
46D
100
AcDbEntity
  8
AXES
100
AcDbSpline
 62
7
  6
CONTINUOUS
 70
0
 71
3
 72
8
 73
4
 74
0
 42
0.0000001
 43
0.0000001
 44
0.0000000001
 40
0.0
 40
0.0
 40
0.0
 40
0.0
 40
1.0
 40
1.0
 40
1.0
 40
1.0
 10
850.9688719614
 20
634.3717508112
 30
0.0
 10
850.821051144
 20
634.3929727156
 30
0.0
 10
850.673732715
 20
634.4175951832
 30
0.0
 10
850.5264205394
 20
634.4421000031
 30
0.0
  0
SPLINE
  5
46E
100
AcDbEntity
  8
AXES
100
AcDbSpline
 62
7
  6
CONTINUOUS
 70
0
 71
3
 72
8
 73
4
 74
0
 42
0.0000001
 43
0.0000001
 44
0.0000000001
 40
0.0
 40
0.0
 40
0.0
 40
0.0
 40
1.0
 40
1.0
 40
1.0
 40
1.0
 10
851.3989916798
 20
201.1404838275
 30
0.0
 10
851.2551428767
 20
201.1289412387
 30
0.0
 10
851.1117185248
 20
201.1117126676
 30
0.0
 10
850.9688719614
 20
201.0912048923
 30
0.0
  0
SPLINE
  5
46F
100
AcDbEntity
  8
AXES
100
AcDbSpline
 62
7
  6
CONTINUOUS
 70
0
 71
3
 72
8
 73
4
 74
0
 42
0.0000001
 43
0.0000001
 44
0.0000000001
 40
0.0
 40
0.0
 40
0.0
 40
0.0
 40
1.0
 40
1.0
 40
1.0
 40
1.0
 10
850.9688719614
 20
201.0912048923
 30
0.0
 10
850.821051144
 20
201.0699829878
 30
0.0
 10
850.673732715
 20
201.0453605202
 30
0.0
 10
850.5264205394
 20
201.0208557003
 30
0.0
  0
SPLINE
  5
470
100
AcDbEntity
  8
AXES
100
AcDbSpline
 62
7
  6
CONTINUOUS
 70
0
 71
3
 72
8
 73
4
 74
0
 42
0.0000001
 43
0.0000001
 44
0.0000000001
 40
0.0
 40
0.0
 40
0.0
 40
0.0
 40
1.0
 40
1.0
 40
1.0
 40
1.0
 10
843.9476648422
 20
641.0208557003
 30
0.0
 10
843.8003777638
 20
641.0453563454
 30
0.0
 10
843.6530846768
 20
641.0699759661
 30
0.0
 10
843.5052893168
 20
641.0911961602
 30
0.0
  0
SPLINE
  5
471
100
AcDbEntity
  8
AXES
100
AcDbSpline
 62
7
  6
CONTINUOUS
 70
0
 71
3
 72
8
 73
4
 74
0
 42
0.0000001
 43
0.0000001
 44
0.0000000001
 40
0.0
 40
0.0
 40
0.0
 40
0.0
 40
1.0
 40
1.0
 40
1.0
 40
1.0
 10
843.5052893168
 20
641.0911961602
 30
0.0
 10
843.387869528
 20
641.1080550839
 30
0.0
 10
843.2700828077
 20
641.1227267063
 30
0.0
 10
843.1519763745
 20
641.1337947026
 30
0.0
  0
SPLINE
  5
472
100
AcDbEntity
  8
AXES
100
AcDbSpline
 62
7
  6
CONTINUOUS
 70
0
 71
3
 72
8
 73
4
 74
0
 42
0.0000001
 43
0.0000001
 44
0.0000000001
 40
0.0
 40
0.0
 40
0.0
 40
0.0
 40
1.0
 40
1.0
 40
1.0
 40
1.0
 10
843.9476648422
 20
194.4421000031
 30
0.0
 10
843.8003777638
 20
194.417599358
 30
0.0
 10
843.6530846768
 20
194.3929797374
 30
0.0
 10
843.5052893168
 20
194.3717595433
 30
0.0
  0
SPLINE
  5
473
100
AcDbEntity
  8
AXES
100
AcDbSpline
 62
7
  6
CONTINUOUS
 70
0
 71
3
 72
8
 73
4
 74
0
 42
0.0000001
 43
0.0000001
 44
0.0000000001
 40
0.0
 40
0.0
 40
0.0
 40
0.0
 40
1.0
 40
1.0
 40
1.0
 40
1.0
 10
843.5052893168
 20
194.3717595433
 30
0.0
 10
843.3878695271
 20
194.3549006194
 30
0.0
 10
843.270082806
 20
194.3402289969
 30
0.0
 10
843.1519763718
 20
194.3291610006
 30
0.0
  0
SPLINE
  5
474
100
AcDbEntity
  8
AXES
100
AcDbSpline
 62
7
  6
CONTINUOUS
 70
0
 71
3
 72
9
 73
5
 74
0
 42
0.0000001
 43
0.0000001
 44
0.0000000001
 40
0.0
 40
0.0
 40
0.0
 40
0.0
 40
0.194048154
 40
1.0
 40
1.0
 40
1.0
 40
1.0
 10
324.7383025011
 20
634.3054778517
 30
0.0
 10
324.68948768
 20
634.3054778517
 30
0.0
 10
324.4379788019
 20
634.2425597903
 30
0.0
 10
324.2705021509
 20
634.0215214727
 30
0.0
 10
324.1558812732
 20
633.8542857021
 30
0.0
  0
SPLINE
  5
475
100
AcDbEntity
  8
AXES
100
AcDbSpline
 62
7
  6
CONTINUOUS
 70
0
 71
3
 72
8
 73
4
 74
0
 42
0.0000001
 43
0.0000001
 44
0.0000000001
 40
0.0
 40
0.0
 40
0.0
 40
0.0
 40
1.0
 40
1.0
 40
1.0
 40
1.0
 10
324.1558812732
 20
633.8542857021
 30
0.0
 10
324.0991267633
 20
633.7714789361
 30
0.0
 10
324.0470560479
 20
633.6854289415
 30
0.0
 10
323.9975523776
 20
633.5980938311
 30
0.0
  0
SPLINE
  5
476
100
AcDbEntity
  8
AXES
100
AcDbSpline
 62
7
  6
CONTINUOUS
 70
0
 71
3
 72
9
 73
5
 74
0
 42
0.0000001
 43
0.0000001
 44
0.0000000001
 40
0.0
 40
0.0
 40
0.0
 40
0.0
 40
0.2252114411
 40
1.0
 40
1.0
 40
1.0
 40
1.0
 10
323.9975523776
 20
633.5980938311
 30
0.0
 10
323.9581669476
 20
633.5286094706
 30
0.0
 10
323.7906961319
 20
633.2158757943
 30
0.0
 10
323.6419446684
 20
632.8936972373
 30
0.0
 10
323.5261718126
 20
632.6445014888
 30
0.0
  0
SPLINE
  5
477
100
AcDbEntity
  8
AXES
100
AcDbSpline
 62
7
  6
CONTINUOUS
 70
0
 71
3
 72
9
 73
5
 74
0
 42
0.0000001
 43
0.0000001
 44
0.0000000001
 40
0.0
 40
0.0
 40
0.0
 40
0.0
 40
0.194048154
 40
1.0
 40
1.0
 40
1.0
 40
1.0
 10
324.7383025011
 20
201.1574778517
 30
0.0
 10
324.68948768
 20
201.1574778517
 30
0.0
 10
324.4379788019
 20
201.2203959131
 30
0.0
 10
324.2705021509
 20
201.4414342308
 30
0.0
 10
324.1558812732
 20
201.6086700014
 30
0.0
  0
SPLINE
  5
478
100
AcDbEntity
  8
AXES
100
AcDbSpline
 62
7
  6
CONTINUOUS
 70
0
 71
3
 72
8
 73
4
 74
0
 42
0.0000001
 43
0.0000001
 44
0.0000000001
 40
0.0
 40
0.0
 40
0.0
 40
0.0
 40
1.0
 40
1.0
 40
1.0
 40
1.0
 10
324.1558812732
 20
201.6086700014
 30
0.0
 10
324.0991267633
 20
201.6914767673
 30
0.0
 10
324.0470560479
 20
201.7775267619
 30
0.0
 10
323.9975523776
 20
201.8648618723
 30
0.0
  0
SPLINE
  5
479
100
AcDbEntity
  8
AXES
100
AcDbSpline
 62
7
  6
CONTINUOUS
 70
0
 71
3
 72
9
 73
5
 74
0
 42
0.0000001
 43
0.0000001
 44
0.0000000001
 40
0.0
 40
0.0
 40
0.0
 40
0.0
 40
0.2252114411
 40
1.0
 40
1.0
 40
1.0
 40
1.0
 10
323.9975523776
 20
201.8648618723
 30
0.0
 10
323.9581669476
 20
201.9343462328
 30
0.0
 10
323.7906961319
 20
202.2470799091
 30
0.0
 10
323.6419446684
 20
202.5692584661
 30
0.0
 10
323.5261718126
 20
202.8184542147
 30
0.0
  0
SPLINE
  5
47A
100
AcDbEntity
  8
AXES
100
AcDbSpline
 62
7
  6
CONTINUOUS
 70
0
 71
3
 72
8
 73
4
 74
0
 42
0.0000001
 43
0.0000001
 44
0.0000000001
 40
0.0
 40
0.0
 40
0.0
 40
0.0
 40
1.0
 40
1.0
 40
1.0
 40
1.0
 10
325.2582469568
 20
634.3224718759
 30
0.0
 10
325.4020957599
 20
634.3340144647
 30
0.0
 10
325.5455201119
 20
634.3512430358
 30
0.0
 10
325.6883666752
 20
634.3717508112
 30
0.0
  0
SPLINE
  5
47B
100
AcDbEntity
  8
AXES
100
AcDbSpline
 62
7
  6
CONTINUOUS
 70
0
 71
3
 72
8
 73
4
 74
0
 42
0.0000001
 43
0.0000001
 44
0.0000000001
 40
0.0
 40
0.0
 40
0.0
 40
0.0
 40
1.0
 40
1.0
 40
1.0
 40
1.0
 10
325.6883666752
 20
634.3717508112
 30
0.0
 10
325.8361874927
 20
634.3929727156
 30
0.0
 10
325.9835059216
 20
634.4175951832
 30
0.0
 10
326.1308180973
 20
634.4421000031
 30
0.0
  0
SPLINE
  5
47C
100
AcDbEntity
  8
AXES
100
AcDbSpline
 62
7
  6
CONTINUOUS
 70
0
 71
3
 72
8
 73
4
 74
0
 42
0.0000001
 43
0.0000001
 44
0.0000000001
 40
0.0
 40
0.0
 40
0.0
 40
0.0
 40
1.0
 40
1.0
 40
1.0
 40
1.0
 10
325.2582469568
 20
201.1404838275
 30
0.0
 10
325.4020957599
 20
201.1289412387
 30
0.0
 10
325.5455201119
 20
201.1117126676
 30
0.0
 10
325.6883666752
 20
201.0912048923
 30
0.0
  0
SPLINE
  5
47D
100
AcDbEntity
  8
AXES
100
AcDbSpline
 62
7
  6
CONTINUOUS
 70
0
 71
3
 72
8
 73
4
 74
0
 42
0.0000001
 43
0.0000001
 44
0.0000000001
 40
0.0
 40
0.0
 40
0.0
 40
0.0
 40
1.0
 40
1.0
 40
1.0
 40
1.0
 10
325.6883666752
 20
201.0912048923
 30
0.0
 10
325.8361874927
 20
201.0699829878
 30
0.0
 10
325.9835059216
 20
201.0453605202
 30
0.0
 10
326.1308180973
 20
201.0208557003
 30
0.0
  0
SPLINE
  5
47E
100
AcDbEntity
  8
AXES
100
AcDbSpline
 62
7
  6
CONTINUOUS
 70
0
 71
3
 72
8
 73
4
 74
0
 42
0.0000001
 43
0.0000001
 44
0.0000000001
 40
0.0
 40
0.0
 40
0.0
 40
0.0
 40
1.0
 40
1.0
 40
1.0
 40
1.0
 10
332.7095737944
 20
194.4421000031
 30
0.0
 10
332.8568608729
 20
194.417599358
 30
0.0
 10
333.0041539598
 20
194.3929797374
 30
0.0
 10
333.1519493199
 20
194.3717595433
 30
0.0
  0
SPLINE
  5
47F
100
AcDbEntity
  8
AXES
100
AcDbSpline
 62
7
  6
CONTINUOUS
 70
0
 71
3
 72
8
 73
4
 74
0
 42
0.0000001
 43
0.0000001
 44
0.0000000001
 40
0.0
 40
0.0
 40
0.0
 40
0.0
 40
1.0
 40
1.0
 40
1.0
 40
1.0
 10
333.1519493199
 20
194.3717595433
 30
0.0
 10
333.269369109
 20
194.3549006195
 30
0.0
 10
333.3871558296
 20
194.3402289971
 30
0.0
 10
333.5052622631
 20
194.3291610008
 30
0.0
  0
SPLINE
  5
480
100
AcDbEntity
  8
AXES
100
AcDbSpline
 62
7
  6
CONTINUOUS
 70
0
 71
3
 72
8
 73
4
 74
0
 42
0.0000001
 43
0.0000001
 44
0.0000000001
 40
0.0
 40
0.0
 40
0.0
 40
0.0
 40
1.0
 40
1.0
 40
1.0
 40
1.0
 10
332.7095737944
 20
641.0208557003
 30
0.0
 10
332.8568608729
 20
641.0453563454
 30
0.0
 10
333.0041539599
 20
641.0699759661
 30
0.0
 10
333.1519493199
 20
641.0911961602
 30
0.0
  0
SPLINE
  5
481
100
AcDbEntity
  8
AXES
100
AcDbSpline
 62
7
  6
CONTINUOUS
 70
0
 71
3
 72
8
 73
4
 74
0
 42
0.0000001
 43
0.0000001
 44
0.0000000001
 40
0.0
 40
0.0
 40
0.0
 40
0.0
 40
1.0
 40
1.0
 40
1.0
 40
1.0
 10
333.1519493199
 20
641.0911961602
 30
0.0
 10
333.2693691086
 20
641.1080550839
 30
0.0
 10
333.3871558287
 20
641.1227267063
 30
0.0
 10
333.5052622618
 20
641.1337947025
 30
0.0
  0
SPLINE
  5
482
100
AcDbEntity
  8
AXES
100
AcDbSpline
 62
7
  6
CONTINUOUS
 70
0
 71
3
 72
9
 73
5
 74
0
 42
0.0000001
 43
0.0000001
 44
0.0000000001
 40
0.0
 40
0.0
 40
0.0
 40
0.0
 40
0.194048154
 40
1.0
 40
1.0
 40
1.0
 40
1.0
 10
382.7546193183
 20
692.321794669
 30
0.0
 10
382.7546193183
 20
692.3706094901
 30
0.0
 10
382.8175373797
 20
692.6221183682
 30
0.0
 10
383.0385756974
 20
692.7895950192
 30
0.0
 10
383.205811468
 20
692.9042158968
 30
0.0
  0
SPLINE
  5
483
100
AcDbEntity
  8
AXES
100
AcDbSpline
 62
7
  6
CONTINUOUS
 70
0
 71
3
 72
8
 73
4
 74
0
 42
0.0000001
 43
0.0000001
 44
0.0000000001
 40
0.0
 40
0.0
 40
0.0
 40
0.0
 40
1.0
 40
1.0
 40
1.0
 40
1.0
 10
383.205811468
 20
692.9042158968
 30
0.0
 10
383.2886182339
 20
692.9609704067
 30
0.0
 10
383.3746682285
 20
693.0130411222
 30
0.0
 10
383.4620033389
 20
693.0625447925
 30
0.0
  0
SPLINE
  5
484
100
AcDbEntity
  8
AXES
100
AcDbSpline
 62
7
  6
CONTINUOUS
 70
0
 71
3
 72
9
 73
5
 74
0
 42
0.0000001
 43
0.0000001
 44
0.0000000001
 40
0.0
 40
0.0
 40
0.0
 40
0.0
 40
0.2252114411
 40
1.0
 40
1.0
 40
1.0
 40
1.0
 10
383.4620033389
 20
693.0625447925
 30
0.0
 10
383.5314876994
 20
693.1019302224
 30
0.0
 10
383.8442213758
 20
693.2694010381
 30
0.0
 10
384.1663999327
 20
693.4181525016
 30
0.0
 10
384.4155956813
 20
693.5339253574
 30
0.0
  0
SPLINE
  5
485
100
AcDbEntity
  8
AXES
100
AcDbSpline
 62
7
  6
CONTINUOUS
 70
0
 71
3
 72
9
 73
5
 74
0
 42
0.0000001
 43
0.0000001
 44
0.0000000001
 40
0.0
 40
0.0
 40
0.0
 40
0.0
 40
0.194048154
 40
1.0
 40
1.0
 40
1.0
 40
1.0
 10
793.9026193183
 20
692.321794669
 30
0.0
 10
793.9026193183
 20
692.3706094901
 30
0.0
 10
793.839701257
 20
692.6221183682
 30
0.0
 10
793.6186629393
 20
692.7895950192
 30
0.0
 10
793.4514271687
 20
692.9042158968
 30
0.0
  0
SPLINE
  5
486
100
AcDbEntity
  8
AXES
100
AcDbSpline
 62
7
  6
CONTINUOUS
 70
0
 71
3
 72
8
 73
4
 74
0
 42
0.0000001
 43
0.0000001
 44
0.0000000001
 40
0.0
 40
0.0
 40
0.0
 40
0.0
 40
1.0
 40
1.0
 40
1.0
 40
1.0
 10
793.4514271687
 20
692.9042158968
 30
0.0
 10
793.3686204027
 20
692.9609704067
 30
0.0
 10
793.2825704081
 20
693.0130411222
 30
0.0
 10
793.1952352977
 20
693.0625447925
 30
0.0
  0
SPLINE
  5
487
100
AcDbEntity
  8
AXES
100
AcDbSpline
 62
7
  6
CONTINUOUS
 70
0
 71
3
 72
9
 73
5
 74
0
 42
0.0000001
 43
0.0000001
 44
0.0000000001
 40
0.0
 40
0.0
 40
0.0
 40
0.0
 40
0.2252114411
 40
1.0
 40
1.0
 40
1.0
 40
1.0
 10
793.1952352977
 20
693.0625447925
 30
0.0
 10
793.1257509373
 20
693.1019302224
 30
0.0
 10
792.8130172609
 20
693.2694010381
 30
0.0
 10
792.4908387039
 20
693.4181525016
 30
0.0
 10
792.2416429554
 20
693.5339253574
 30
0.0
  0
SPLINE
  5
488
100
AcDbEntity
  8
AXES
100
AcDbSpline
 62
7
  6
CONTINUOUS
 70
0
 71
3
 72
8
 73
4
 74
0
 42
0.0000001
 43
0.0000001
 44
0.0000000001
 40
0.0
 40
0.0
 40
0.0
 40
0.0
 40
1.0
 40
1.0
 40
1.0
 40
1.0
 10
382.7376252941
 20
691.8018502132
 30
0.0
 10
382.7260827053
 20
691.6580014101
 30
0.0
 10
382.7088541343
 20
691.5145770582
 30
0.0
 10
382.6883463589
 20
691.3717304948
 30
0.0
  0
SPLINE
  5
489
100
AcDbEntity
  8
AXES
100
AcDbSpline
 62
7
  6
CONTINUOUS
 70
0
 71
3
 72
8
 73
4
 74
0
 42
0.0000001
 43
0.0000001
 44
0.0000000001
 40
0.0
 40
0.0
 40
0.0
 40
0.0
 40
1.0
 40
1.0
 40
1.0
 40
1.0
 10
382.6883463589
 20
691.3717304948
 30
0.0
 10
382.6671244544
 20
691.2239096774
 30
0.0
 10
382.6425019868
 20
691.0765912484
 30
0.0
 10
382.6179971669
 20
690.9292790728
 30
0.0
  0
SPLINE
  5
48A
100
AcDbEntity
  8
AXES
100
AcDbSpline
 62
7
  6
CONTINUOUS
 70
0
 71
3
 72
8
 73
4
 74
0
 42
0.0000001
 43
0.0000001
 44
0.0000000001
 40
0.0
 40
0.0
 40
0.0
 40
0.0
 40
1.0
 40
1.0
 40
1.0
 40
1.0
 10
793.9196133425
 20
691.8018502132
 30
0.0
 10
793.9311559314
 20
691.6580014101
 30
0.0
 10
793.9483845024
 20
691.5145770582
 30
0.0
 10
793.9688922778
 20
691.3717304948
 30
0.0
  0
SPLINE
  5
48B
100
AcDbEntity
  8
AXES
100
AcDbSpline
 62
7
  6
CONTINUOUS
 70
0
 71
3
 72
8
 73
4
 74
0
 42
0.0000001
 43
0.0000001
 44
0.0000000001
 40
0.0
 40
0.0
 40
0.0
 40
0.0
 40
1.0
 40
1.0
 40
1.0
 40
1.0
 10
793.9688922778
 20
691.3717304948
 30
0.0
 10
793.9901141822
 20
691.2239096774
 30
0.0
 10
794.0147366498
 20
691.0765912484
 30
0.0
 10
794.0392414698
 20
690.9292790728
 30
0.0
  0
SPLINE
  5
48C
100
AcDbEntity
  8
AXES
100
AcDbSpline
 62
7
  6
CONTINUOUS
 70
0
 71
3
 72
8
 73
4
 74
0
 42
0.0000001
 43
0.0000001
 44
0.0000000001
 40
0.0
 40
0.0
 40
0.0
 40
0.0
 40
1.0
 40
1.0
 40
1.0
 40
1.0
 10
376.0392414698
 20
684.3505233756
 30
0.0
 10
376.0147408247
 20
684.2032362972
 30
0.0
 10
375.990121204
 20
684.0559432102
 30
0.0
 10
375.9689010099
 20
683.9081478501
 30
0.0
  0
SPLINE
  5
48D
100
AcDbEntity
  8
AXES
100
AcDbSpline
 62
7
  6
CONTINUOUS
 70
0
 71
3
 72
8
 73
4
 74
0
 42
0.0000001
 43
0.0000001
 44
0.0000000001
 40
0.0
 40
0.0
 40
0.0
 40
0.0
 40
1.0
 40
1.0
 40
1.0
 40
1.0
 10
375.9689010099
 20
683.9081478501
 30
0.0
 10
375.9520420862
 20
683.7907280616
 30
0.0
 10
375.9373704638
 20
683.6729413416
 30
0.0
 10
375.9263024676
 20
683.5548349086
 30
0.0
  0
SPLINE
  5
48E
100
AcDbEntity
  8
AXES
100
AcDbSpline
 62
7
  6
CONTINUOUS
 70
0
 71
3
 72
8
 73
4
 74
0
 42
0.0000001
 43
0.0000001
 44
0.0000000001
 40
0.0
 40
0.0
 40
0.0
 40
0.0
 40
1.0
 40
1.0
 40
1.0
 40
1.0
 10
800.6179971669
 20
684.3505233756
 30
0.0
 10
800.642497812
 20
684.2032362972
 30
0.0
 10
800.6671174327
 20
684.0559432102
 30
0.0
 10
800.6883376268
 20
683.9081478501
 30
0.0
  0
SPLINE
  5
48F
100
AcDbEntity
  8
AXES
100
AcDbSpline
 62
7
  6
CONTINUOUS
 70
0
 71
3
 72
8
 73
4
 74
0
 42
0.0000001
 43
0.0000001
 44
0.0000000001
 40
0.0
 40
0.0
 40
0.0
 40
0.0
 40
1.0
 40
1.0
 40
1.0
 40
1.0
 10
800.6883376268
 20
683.9081478501
 30
0.0
 10
800.7051965505
 20
683.7907280613
 30
0.0
 10
800.7198681729
 20
683.672941341
 30
0.0
 10
800.7309361692
 20
683.5548349078
 30
0.0
  0
ENDSEC
  0
SECTION
  2
OBJECTS
  0
DICTIONARY
  5
C
100
AcDbDictionary
280
0
281
1
  3
ACAD_GROUP
350
D
  3
ACAD_MLINESTYLE
350
17
  3
ACAD_LAYOUT
350
1A
  3
ACAD_PLOTSETTINGS
350
19
  3
ACAD_PLOTSTYLENAME
350
E
  0
DICTIONARY
  5
D
102
{ACAD_REACTORS
330
C
102
}
100
AcDbDictionary
280
0
281
1
  0
ACDBDICTIONARYWDFLT
  5
E
102
{ACAD_REACTORS
330
C
102
}
100
AcDbDictionary
281
1
  3
Normal
350
F
100
AcDbDictionaryWithDefault
340
F
  0
DICTIONARY
  5
17
102
{ACAD_REACTORS
330
C
102
}
100
AcDbDictionary
280
0
281
1
  3
Standard
350
18
  0
DICTIONARY
  5
19
102
{ACAD_REACTORS
330
C
102
}
100
AcDbDictionary
281
1
  0
DICTIONARY
  5
1A
102
{ACAD_REACTORS
330
C
102
}
100
AcDbDictionary
281
1
  3
Model
350
490
  3
Layout1
350
491
  0
ACDBPLACEHOLDER
  5
F
102
{ACAD_REACTORS
330
E
102
}
  0
MLINESTYLE
  5
18
102
{ACAD_REACTORS
330
17
102
}
100
AcDbMlineStyle
  2
STANDARD
 70
0
  3

 62
256
 51
90.0
 52
90.0
 71
2
 49
0.5
 62
256
  6
BYLAYER
 49
-0.5
 62
256
  6
BYLAYER
  0
LAYOUT
  5
490
102
{ACAD_REACTORS
330
1A
102
}
100
AcDbPlotSettings
  1

  2
none_device
  4
ISO_A0_(1189.00_x_841.00_MM)
  6

 40
0.0
 41
0.0
 42
0.0
 43
0.0
 44
1189.0
 45
841.0
 46
0.0
 47
0.0
 48
0.0
 49
0.0
140
0.0
141
0.0
142
1.0
143
1.0
 70
1024
 72
1
 73
0
 74
0
  7

 75
0
147
1.0
148
0.0
149
0.0
100
AcDbLayout
  1
Model
 70
0
 71
0
 10
0.0
 20
0.0
 11
1189.0
 21
841.0
 12
0.0
 22
0.0
 32
0.0
 14
0.0
 24
0.0
 34
0.0
 15
0.0
 25
0.0
 35
0.0
146
0.0
 13
0.0
 23
0.0
 33
0.0
 16
1.0
 26
0.0
 36
0.0
 17
0.0
 27
1.0
 37
0.0
 76
0
330
20B
345
0
346
0
  0
LAYOUT
  5
491
102
{ACAD_REACTORS
330
1A
102
}
100
AcDbPlotSettings
  1

  2
none_device
  4
ISO_A0_(1189.00_x_841.00_MM)
  6

 40
0.0
 41
0.0
 42
0.0
 43
0.0
 44
1189.0
 45
841.0
 46
0.0
 47
0.0
 48
0.0
 49
0.0
140
0.0
141
0.0
142
1.0
143
1.0
 70
0
 72
1
 73
0
 74
0
  7

 75
0
147
1.0
148
0.0
149
0.0
100
AcDbLayout
  1
Layout1
 70
0
 71
1
 10
0.0
 20
0.0
 11
1189.0
 21
841.0
 12
0.0
 22
0.0
 32
0.0
 14
0.0
 24
0.0
 34
0.0
 15
0.0
 25
0.0
 35
0.0
146
0.0
 13
0.0
 23
0.0
 33
0.0
 16
1.0
 26
0.0
 36
0.0
 17
0.0
 27
1.0
 37
0.0
 76
0
330
20C
345
0
346
0
  0
ENDSEC
  0
EOF
