999
DXF file: roach-2-front-panel.dxf
999
Pro/ENGINEER 2013230 by Parametric Technology Corporation
  0
SECTION
  2
HEADER
  9
$ACADVER
  1
AC1021
  9
$DWGCODEPAGE
  3
ANSI_1252
  9
$EXTMAX
 10
1189.0
 20
841.0
 30
0.0
  9
$EXTMIN
 10
0.0
 20
0.0
 30
0.0
  9
$LIMMIN
 10
0.0
 20
0.0
  9
$LIMMAX
 10
1189.0
 20
841.0
  9
$VIEWCTR
 10
594.5
 20
420.5
  9
$VIEWSIZE
 40
841.0
  9
$CLAYER
  8
0
  9
$LTSCALE
 40
65.395
  9
$CELTYPE
  6
BYLAYER
  9
$DIMSCALE
 40
1.0
  9
$DIMASZ
 40
3.5
  9
$DIMEXO
 40
1.5
  9
$DIMDLI
 40
45.182
  9
$DIMEXE
 40
1.0
  9
$DIMCEN
 40
10.701
  9
$DIMLFAC
 40
1.0
  9
$DIMBLK
  1
_FILLED
  9
$DIMTXT
 40
3.5
  9
$DIMTOL
 70
1
  9
$DIMLIM
 70
0
  9
$DIMTFAC
 40
1.0
  9
$DIMTP
 40
0.0
  9
$DIMTM
 40
0.0
  9
$DIMGAP
 40
0.625
  9
$DIMDSEP
 70
44
  9
$PDMODE
 70
3
  9
$PDSIZE
 40
0.25
  9
$HANDSEED
  5
327
  9
$TILEMODE
 70
1
  9
$MEASUREMENT
 70
1
  9
$INSUNITS
 70
4
  0
ENDSEC
  0
SECTION
  2
CLASSES
  0
CLASS
  1
ACDBDICTIONARYWDFLT
  2
AcDbDictionaryWithDefault
  3
AutoCAD 2000
 90
0
 91
1
280
0
281
0
  0
CLASS
  1
ACDBPLACEHOLDER
  2
AcDbPlaceHolder
  3
AutoCAD 2000
 90
0
 91
1
280
0
281
0
  0
CLASS
  1
LAYOUT
  2
AcDbLayout
  3
AutoCAD 2000
 90
0
 91
0
280
0
281
0
  0
ENDSEC
  0
SECTION
  2
TABLES
  0
TABLE
  2
VPORT
  5
8
100
AcDbSymbolTable
 70
2
  0
VPORT
  5
1F4
100
AcDbSymbolTableRecord
100
AcDbViewportTableRecord
  2
*ACTIVE
 70
0
 10
0.0
 20
0.0
 11
1.0
 21
1.0
 12
594.5
 22
420.5
 13
0.0
 23
0.0
 14
1.0
 24
1.0
 15
0.0
 25
0.0
 16
0.0
 26
0.0
 36
1.0
 17
0.0
 27
0.0
 37
0.0
 40
841.0
 41
1.4137931034
 42
50.0
 43
0.0
 44
0.0
 50
0.0
 51
0.0
 71
0
 72
100
 73
1
 74
1
 75
0
 76
0
 77
0
 78
0
  0
ENDTAB
  0
TABLE
  2
LTYPE
  5
5
100
AcDbSymbolTable
 70
6
  0
LTYPE
  5
14
100
AcDbSymbolTableRecord
100
AcDbLinetypeTableRecord
  2
BYBLOCK
 70
0
  3

 72
65
 73
0
 40
0.0
  0
LTYPE
  5
15
100
AcDbSymbolTableRecord
100
AcDbLinetypeTableRecord
  2
BYLAYER
 70
0
  3

 72
65
 73
0
 40
0.0
  0
LTYPE
  5
16
100
AcDbSymbolTableRecord
100
AcDbLinetypeTableRecord
  2
CONTINUOUS
 70
64
  3
Solid line
 72
65
 73
0
 40
0.0
  0
LTYPE
  5
1F5
100
AcDbSymbolTableRecord
100
AcDbLinetypeTableRecord
  2
CENTER
 70
64
  3
____ _ ____ _ ____ _ ____ _ ____ _ ____ _ ____
 72
65
 73
4
 40
0.6
 49
0.375
 74
0
 49
-0.075
 74
0
 49
0.075
 74
0
 49
-0.075
 74
0
  0
LTYPE
  5
1F6
100
AcDbSymbolTableRecord
100
AcDbLinetypeTableRecord
  2
HIDDEN
 70
64
  3
- - - - - - - - - - - - - - - - - - - -
 72
65
 73
2
 40
0.2
 49
0.1
 74
0
 49
-0.1
 74
0
  0
LTYPE
  5
1F7
100
AcDbSymbolTableRecord
100
AcDbLinetypeTableRecord
  2
PHANTOM
 70
64
  3
_____ _ _ _____ _ _ _____ _ _ _____
 72
65
 73
6
 40
0.8
 49
0.45
 74
0
 49
-0.05
 74
0
 49
0.1
 74
0
 49
-0.05
 74
0
 49
0.1
 74
0
 49
-0.05
 74
0
  0
LTYPE
  5
1F8
100
AcDbSymbolTableRecord
100
AcDbLinetypeTableRecord
  2
DOT
 70
64
  3
. . . . . . . . . . . . . . . . . . . .
 72
65
 73
2
 40
0.2
 49
0.1
 74
0
 49
-0.1
 74
0
  0
LTYPE
  5
1F9
100
AcDbSymbolTableRecord
100
AcDbLinetypeTableRecord
  2
DASHED
 70
64
  3
- - - - - - - - - - - - - - - - - - - -
 72
65
 73
2
 40
0.2
 49
0.1
 74
0
 49
-0.1
 74
0
  0
ENDTAB
  0
TABLE
  2
LAYER
  5
2
100
AcDbSymbolTable
 70
36
  0
LAYER
  5
10
100
AcDbSymbolTableRecord
100
AcDbLayerTableRecord
  2
0
 70
0
 62
7
  6
CONTINUOUS
370
-3
390
F
  0
LAYER
  5
1FA
100
AcDbSymbolTableRecord
100
AcDbLayerTableRecord
  2
DEFAULT_1
 70
0
 62
7
  6
CENTER
370
-3
390
F
  0
LAYER
  5
1FB
100
AcDbSymbolTableRecord
100
AcDbLayerTableRecord
  2
DEFAULT_2
 70
0
 62
8
  6
HIDDEN
370
-3
390
F
  0
LAYER
  5
1FC
100
AcDbSymbolTableRecord
100
AcDbLayerTableRecord
  2
DEFAULT_3
 70
0
 62
7
  6
PHANTOM
370
-3
390
F
  0
LAYER
  5
1FD
100
AcDbSymbolTableRecord
100
AcDbLayerTableRecord
  2
AXES
 70
0
 62
7
  6
CONTINUOUS
370
-3
390
F
  0
LAYER
  5
1FE
100
AcDbSymbolTableRecord
100
AcDbLayerTableRecord
  2
CSYS
 70
0
 62
7
  6
CONTINUOUS
370
-3
390
F
  0
LAYER
  5
1FF
100
AcDbSymbolTableRecord
100
AcDbLayerTableRecord
  2
PLANES
 70
0
 62
7
  6
CONTINUOUS
370
-3
390
F
  0
ENDTAB
  0
TABLE
  2
STYLE
  5
3
100
AcDbSymbolTable
 70
1
  0
STYLE
  5
11
100
AcDbSymbolTableRecord
100
AcDbTextStyleTableRecord
  2
STANDARD
 70
0
 40
0.0
 41
0.8
 50
0.0
 71
0
 42
0.2
  3
txt
  4

  0
STYLE
  5
200
100
AcDbSymbolTableRecord
100
AcDbTextStyleTableRecord
  2
TEXTSTYLE_1
 70
0
 40
0.0
 41
0.8
 50
0.0
 71
0
 42
0.2
  3
gdt
  4

  0
ENDTAB
  0
TABLE
  2
VIEW
  5
6
100
AcDbSymbolTable
 70
0
  0
ENDTAB
  0
TABLE
  2
UCS
  5
7
100
AcDbSymbolTable
 70
0
  0
ENDTAB
  0
TABLE
  2
APPID
  5
9
100
AcDbSymbolTable
 70
1
  0
APPID
  5
201
100
AcDbSymbolTableRecord
100
AcDbRegAppTableRecord
  2
ACAD
 70
0
  0
ENDTAB
  0
TABLE
  2
BLOCK_RECORD
  5
1
100
AcDbSymbolTable
 70
0
  0
BLOCK_RECORD
  5
202
100
AcDbSymbolTableRecord
100
AcDbBlockTableRecord
  2
*Model_Space
  0
BLOCK_RECORD
  5
203
100
AcDbSymbolTableRecord
100
AcDbBlockTableRecord
  2
*Paper_Space
  0
ENDTAB
  0
TABLE
  2
DIMSTYLE
  5
A
100
AcDbSymbolTable
 70
1
100
AcDbDimStyleTable
 71
0
  0
DIMSTYLE
105
204
100
AcDbSymbolTableRecord
100
AcDbDimStyleTableRecord
  2
STANDARD
 70
0
  3

  4

 40
1.0
 41
3.5
 42
1.5
 43
0.38
 44
1.0
 45
0.0
 46
0.0
 47
0.0
 48
0.0
140
3.5
141
0.09
142
0.0
143
25.4
144
1.0
145
0.0
146
1.0
147
0.625
 71
1.0
 72
0.0
 73
0
 74
0
 75
0
 76
0
 77
1
 78
8
170
0
171
2
172
0
173
0
174
0
175
0
176
0
177
0
178
0
270
2
271
0
272
0
273
2
274
2
275
0
280
0
281
0
282
0
283
1
284
8
285
0
286
0
287
3
288
0
340
11
278
44
  0
ENDTAB
  0
ENDSEC
  0
SECTION
  2
BLOCKS
  0
BLOCK
  5
20
100
AcDbEntity
  8
0
100
AcDbBlockBegin
  2
*Model_Space
 70
0
 10
0.0
 20
0.0
 30
0.0
  3
*Model_Space
  1

  0
ENDBLK
  5
21
100
AcDbEntity
  8
0
100
AcDbBlockEnd
  0
BLOCK
  5
1C
100
AcDbEntity
  8
0
100
AcDbBlockBegin
  2
*Paper_Space
 70
0
 10
0.0
 20
0.0
 30
0.0
  3
*Paper_Space
  1

  0
ENDBLK
  5
1D
100
AcDbEntity
  8
0
100
AcDbBlockEnd
  0
ENDSEC
  0
SECTION
  2
ENTITIES
  0
LINE
  5
205
100
AcDbEntity
  8
0
100
AcDbLine
 62
7
  6
CONTINUOUS
 10
0.0
 20
0.0
 11
0.0
 21
841.0
  0
LINE
  5
206
100
AcDbEntity
  8
0
100
AcDbLine
 62
7
  6
CONTINUOUS
 10
0.0
 20
0.0
 11
1189.0
 21
0.0
  0
LINE
  5
207
100
AcDbEntity
  8
0
100
AcDbLine
 62
7
  6
CONTINUOUS
 10
0.0
 20
841.0
 11
1189.0
 21
841.0
  0
LINE
  5
208
100
AcDbEntity
  8
0
100
AcDbLine
 62
7
  6
CONTINUOUS
 10
1189.0
 20
0.0
 11
1189.0
 21
841.0
  0
LINE
  5
209
100
AcDbEntity
  8
0
100
AcDbLine
 62
7
  6
CONTINUOUS
 10
359.4708333402
 20
452.1073557937
 11
359.4708333402
 21
412.4193557937
  0
LINE
  5
20A
100
AcDbEntity
  8
0
100
AcDbLine
 62
7
  6
CONTINUOUS
 10
407.5508333402
 20
441.2893557937
 11
407.5508333402
 21
436.2093557937
  0
LINE
  5
20B
100
AcDbEntity
  8
0
100
AcDbLine
 62
7
  6
CONTINUOUS
 10
407.5508333402
 20
433.8493557937
 11
407.5508333402
 21
428.7693557937
  0
LINE
  5
20C
100
AcDbEntity
  8
0
100
AcDbLine
 62
7
  6
CONTINUOUS
 10
407.5508333402
 20
421.3293557937
 11
407.5508333402
 21
426.4093557937
  0
LINE
  5
20D
100
AcDbEntity
  8
0
100
AcDbLine
 62
7
  6
CONTINUOUS
 10
412.6308333402
 20
421.3293557937
 11
412.6308333402
 21
426.4093557937
  0
LINE
  5
20E
100
AcDbEntity
  8
0
100
AcDbLine
 62
7
  6
CONTINUOUS
 10
412.6308333402
 20
428.7693557937
 11
412.6308333402
 21
433.8493557937
  0
LINE
  5
20F
100
AcDbEntity
  8
0
100
AcDbLine
 62
7
  6
CONTINUOUS
 10
412.6308333402
 20
436.2093557937
 11
412.6308333402
 21
441.2893557937
  0
LINE
  5
210
100
AcDbEntity
  8
0
100
AcDbLine
 62
7
  6
CONTINUOUS
 10
414.9908333402
 20
448.7293557937
 11
414.9908333402
 21
443.6493557937
  0
LINE
  5
211
100
AcDbEntity
  8
0
100
AcDbLine
 62
7
  6
CONTINUOUS
 10
414.9908333402
 20
441.2893557937
 11
414.9908333402
 21
436.2093557937
  0
LINE
  5
212
100
AcDbEntity
  8
0
100
AcDbLine
 62
7
  6
CONTINUOUS
 10
414.9908333402
 20
433.8493557937
 11
414.9908333402
 21
428.7693557937
  0
LINE
  5
213
100
AcDbEntity
  8
0
100
AcDbLine
 62
7
  6
CONTINUOUS
 10
414.9908333402
 20
418.9693557937
 11
414.9908333402
 21
413.8893557937
  0
LINE
  5
214
100
AcDbEntity
  8
0
100
AcDbLine
 62
7
  6
CONTINUOUS
 10
414.9908333402
 20
421.3293557937
 11
414.9908333402
 21
426.4093557937
  0
LINE
  5
215
100
AcDbEntity
  8
0
100
AcDbLine
 62
7
  6
CONTINUOUS
 10
420.0708333402
 20
413.8893557937
 11
420.0708333402
 21
418.9693557937
  0
LINE
  5
216
100
AcDbEntity
  8
0
100
AcDbLine
 62
7
  6
CONTINUOUS
 10
420.0708333402
 20
421.3293557937
 11
420.0708333402
 21
426.4093557937
  0
LINE
  5
217
100
AcDbEntity
  8
0
100
AcDbLine
 62
7
  6
CONTINUOUS
 10
420.0708333402
 20
428.7693557937
 11
420.0708333402
 21
433.8493557937
  0
LINE
  5
218
100
AcDbEntity
  8
0
100
AcDbLine
 62
7
  6
CONTINUOUS
 10
420.0708333402
 20
436.2093557937
 11
420.0708333402
 21
441.2893557937
  0
LINE
  5
219
100
AcDbEntity
  8
0
100
AcDbLine
 62
7
  6
CONTINUOUS
 10
420.0708333402
 20
443.6493557937
 11
420.0708333402
 21
448.7293557937
  0
LINE
  5
21A
100
AcDbEntity
  8
0
100
AcDbLine
 62
7
  6
CONTINUOUS
 10
422.4308333402
 20
448.7293557937
 11
422.4308333402
 21
443.6493557937
  0
LINE
  5
21B
100
AcDbEntity
  8
0
100
AcDbLine
 62
7
  6
CONTINUOUS
 10
422.4308333402
 20
441.2893557937
 11
422.4308333402
 21
436.2093557937
  0
LINE
  5
21C
100
AcDbEntity
  8
0
100
AcDbLine
 62
7
  6
CONTINUOUS
 10
422.4308333402
 20
433.8493557937
 11
422.4308333402
 21
428.7693557937
  0
LINE
  5
21D
100
AcDbEntity
  8
0
100
AcDbLine
 62
7
  6
CONTINUOUS
 10
422.4308333402
 20
418.9693557937
 11
422.4308333402
 21
413.8893557937
  0
LINE
  5
21E
100
AcDbEntity
  8
0
100
AcDbLine
 62
7
  6
CONTINUOUS
 10
422.4308333402
 20
421.3293557937
 11
422.4308333402
 21
426.4093557937
  0
LINE
  5
21F
100
AcDbEntity
  8
0
100
AcDbLine
 62
7
  6
CONTINUOUS
 10
427.5108333402
 20
413.8893557937
 11
427.5108333402
 21
418.9693557937
  0
LINE
  5
220
100
AcDbEntity
  8
0
100
AcDbLine
 62
7
  6
CONTINUOUS
 10
427.5108333402
 20
421.3293557937
 11
427.5108333402
 21
426.4093557937
  0
LINE
  5
221
100
AcDbEntity
  8
0
100
AcDbLine
 62
7
  6
CONTINUOUS
 10
427.5108333402
 20
428.7693557937
 11
427.5108333402
 21
433.8493557937
  0
LINE
  5
222
100
AcDbEntity
  8
0
100
AcDbLine
 62
7
  6
CONTINUOUS
 10
427.5108333402
 20
436.2093557937
 11
427.5108333402
 21
441.2893557937
  0
LINE
  5
223
100
AcDbEntity
  8
0
100
AcDbLine
 62
7
  6
CONTINUOUS
 10
427.5108333402
 20
443.6493557937
 11
427.5108333402
 21
448.7293557937
  0
LINE
  5
224
100
AcDbEntity
  8
0
100
AcDbLine
 62
7
  6
CONTINUOUS
 10
429.8708333402
 20
448.7293557937
 11
429.8708333402
 21
443.6493557937
  0
LINE
  5
225
100
AcDbEntity
  8
0
100
AcDbLine
 62
7
  6
CONTINUOUS
 10
429.8708333402
 20
441.2893557937
 11
429.8708333402
 21
436.2093557937
  0
LINE
  5
226
100
AcDbEntity
  8
0
100
AcDbLine
 62
7
  6
CONTINUOUS
 10
429.8708333402
 20
433.8493557937
 11
429.8708333402
 21
428.7693557937
  0
LINE
  5
227
100
AcDbEntity
  8
0
100
AcDbLine
 62
7
  6
CONTINUOUS
 10
429.8708333402
 20
418.9693557937
 11
429.8708333402
 21
413.8893557937
  0
LINE
  5
228
100
AcDbEntity
  8
0
100
AcDbLine
 62
7
  6
CONTINUOUS
 10
429.8708333402
 20
421.3293557937
 11
429.8708333402
 21
426.4093557937
  0
LINE
  5
229
100
AcDbEntity
  8
0
100
AcDbLine
 62
7
  6
CONTINUOUS
 10
434.9508333402
 20
413.8893557937
 11
434.9508333402
 21
418.9693557937
  0
LINE
  5
22A
100
AcDbEntity
  8
0
100
AcDbLine
 62
7
  6
CONTINUOUS
 10
434.9508333402
 20
421.3293557937
 11
434.9508333402
 21
426.4093557937
  0
LINE
  5
22B
100
AcDbEntity
  8
0
100
AcDbLine
 62
7
  6
CONTINUOUS
 10
434.9508333402
 20
428.7693557937
 11
434.9508333402
 21
433.8493557937
  0
LINE
  5
22C
100
AcDbEntity
  8
0
100
AcDbLine
 62
7
  6
CONTINUOUS
 10
434.9508333402
 20
436.2093557937
 11
434.9508333402
 21
441.2893557937
  0
LINE
  5
22D
100
AcDbEntity
  8
0
100
AcDbLine
 62
7
  6
CONTINUOUS
 10
434.9508333402
 20
443.6493557937
 11
434.9508333402
 21
448.7293557937
  0
LINE
  5
22E
100
AcDbEntity
  8
0
100
AcDbLine
 62
7
  6
CONTINUOUS
 10
437.3108333402
 20
441.2893557937
 11
437.3108333402
 21
436.2093557937
  0
LINE
  5
22F
100
AcDbEntity
  8
0
100
AcDbLine
 62
7
  6
CONTINUOUS
 10
437.3108333402
 20
433.8493557937
 11
437.3108333402
 21
428.7693557937
  0
LINE
  5
230
100
AcDbEntity
  8
0
100
AcDbLine
 62
7
  6
CONTINUOUS
 10
437.3108333402
 20
421.3293557937
 11
437.3108333402
 21
426.4093557937
  0
LINE
  5
231
100
AcDbEntity
  8
0
100
AcDbLine
 62
7
  6
CONTINUOUS
 10
442.3908333402
 20
421.3293557937
 11
442.3908333402
 21
426.4093557937
  0
LINE
  5
232
100
AcDbEntity
  8
0
100
AcDbLine
 62
7
  6
CONTINUOUS
 10
442.3908333402
 20
428.7693557937
 11
442.3908333402
 21
433.8493557937
  0
LINE
  5
233
100
AcDbEntity
  8
0
100
AcDbLine
 62
7
  6
CONTINUOUS
 10
442.3908333402
 20
436.2093557937
 11
442.3908333402
 21
441.2893557937
  0
LINE
  5
234
100
AcDbEntity
  8
0
100
AcDbLine
 62
7
  6
CONTINUOUS
 10
361.4708333402
 20
410.4193557937
 11
840.4708333402
 21
410.4193557937
  0
LINE
  5
235
100
AcDbEntity
  8
0
100
AcDbLine
 62
7
  6
CONTINUOUS
 10
414.9908333402
 20
413.8893557937
 11
420.0708333402
 21
413.8893557937
  0
LINE
  5
236
100
AcDbEntity
  8
0
100
AcDbLine
 62
7
  6
CONTINUOUS
 10
422.4308333402
 20
413.8893557937
 11
427.5108333402
 21
413.8893557937
  0
LINE
  5
237
100
AcDbEntity
  8
0
100
AcDbLine
 62
7
  6
CONTINUOUS
 10
429.8708333402
 20
413.8893557937
 11
434.9508333402
 21
413.8893557937
  0
LINE
  5
238
100
AcDbEntity
  8
0
100
AcDbLine
 62
7
  6
CONTINUOUS
 10
630.9908333402
 20
413.8893557937
 11
636.0708333402
 21
413.8893557937
  0
LINE
  5
239
100
AcDbEntity
  8
0
100
AcDbLine
 62
7
  6
CONTINUOUS
 10
638.4308333402
 20
413.8893557937
 11
643.5108333402
 21
413.8893557937
  0
LINE
  5
23A
100
AcDbEntity
  8
0
100
AcDbLine
 62
7
  6
CONTINUOUS
 10
645.8708333402
 20
413.8893557937
 11
650.9508333402
 21
413.8893557937
  0
LINE
  5
23B
100
AcDbEntity
  8
0
100
AcDbLine
 62
7
  6
CONTINUOUS
 10
675.9908333402
 20
413.8893557937
 11
681.0708333402
 21
413.8893557937
  0
LINE
  5
23C
100
AcDbEntity
  8
0
100
AcDbLine
 62
7
  6
CONTINUOUS
 10
683.4308333402
 20
413.8893557937
 11
688.5108333402
 21
413.8893557937
  0
LINE
  5
23D
100
AcDbEntity
  8
0
100
AcDbLine
 62
7
  6
CONTINUOUS
 10
690.8708333402
 20
413.8893557937
 11
695.9508333402
 21
413.8893557937
  0
LINE
  5
23E
100
AcDbEntity
  8
0
100
AcDbLine
 62
7
  6
CONTINUOUS
 10
695.9508333402
 20
418.9693557937
 11
690.8708333402
 21
418.9693557937
  0
LINE
  5
23F
100
AcDbEntity
  8
0
100
AcDbLine
 62
7
  6
CONTINUOUS
 10
688.5108333402
 20
418.9693557937
 11
683.4308333402
 21
418.9693557937
  0
LINE
  5
240
100
AcDbEntity
  8
0
100
AcDbLine
 62
7
  6
CONTINUOUS
 10
681.0708333402
 20
418.9693557937
 11
675.9908333402
 21
418.9693557937
  0
LINE
  5
241
100
AcDbEntity
  8
0
100
AcDbLine
 62
7
  6
CONTINUOUS
 10
650.9508333402
 20
418.9693557937
 11
645.8708333402
 21
418.9693557937
  0
LINE
  5
242
100
AcDbEntity
  8
0
100
AcDbLine
 62
7
  6
CONTINUOUS
 10
643.5108333402
 20
418.9693557937
 11
638.4308333402
 21
418.9693557937
  0
LINE
  5
243
100
AcDbEntity
  8
0
100
AcDbLine
 62
7
  6
CONTINUOUS
 10
636.0708333402
 20
418.9693557937
 11
630.9908333402
 21
418.9693557937
  0
LINE
  5
244
100
AcDbEntity
  8
0
100
AcDbLine
 62
7
  6
CONTINUOUS
 10
434.9508333402
 20
418.9693557937
 11
429.8708333402
 21
418.9693557937
  0
LINE
  5
245
100
AcDbEntity
  8
0
100
AcDbLine
 62
7
  6
CONTINUOUS
 10
427.5108333402
 20
418.9693557937
 11
422.4308333402
 21
418.9693557937
  0
LINE
  5
246
100
AcDbEntity
  8
0
100
AcDbLine
 62
7
  6
CONTINUOUS
 10
420.0708333402
 20
418.9693557937
 11
414.9908333402
 21
418.9693557937
  0
LINE
  5
247
100
AcDbEntity
  8
0
100
AcDbLine
 62
7
  6
CONTINUOUS
 10
407.5508333402
 20
421.3293557937
 11
412.6308333402
 21
421.3293557937
  0
LINE
  5
248
100
AcDbEntity
  8
0
100
AcDbLine
 62
7
  6
CONTINUOUS
 10
414.9908333402
 20
421.3293557937
 11
420.0708333402
 21
421.3293557937
  0
LINE
  5
249
100
AcDbEntity
  8
0
100
AcDbLine
 62
7
  6
CONTINUOUS
 10
422.4308333402
 20
421.3293557937
 11
427.5108333402
 21
421.3293557937
  0
LINE
  5
24A
100
AcDbEntity
  8
0
100
AcDbLine
 62
7
  6
CONTINUOUS
 10
429.8708333402
 20
421.3293557937
 11
434.9508333402
 21
421.3293557937
  0
LINE
  5
24B
100
AcDbEntity
  8
0
100
AcDbLine
 62
7
  6
CONTINUOUS
 10
437.3108333402
 20
421.3293557937
 11
442.3908333402
 21
421.3293557937
  0
LINE
  5
24C
100
AcDbEntity
  8
0
100
AcDbLine
 62
7
  6
CONTINUOUS
 10
623.5508333402
 20
421.3293557937
 11
628.6308333402
 21
421.3293557937
  0
LINE
  5
24D
100
AcDbEntity
  8
0
100
AcDbLine
 62
7
  6
CONTINUOUS
 10
630.9908333402
 20
421.3293557937
 11
636.0708333402
 21
421.3293557937
  0
LINE
  5
24E
100
AcDbEntity
  8
0
100
AcDbLine
 62
7
  6
CONTINUOUS
 10
638.4308333402
 20
421.3293557937
 11
643.5108333402
 21
421.3293557937
  0
LINE
  5
24F
100
AcDbEntity
  8
0
100
AcDbLine
 62
7
  6
CONTINUOUS
 10
645.8708333402
 20
421.3293557937
 11
650.9508333402
 21
421.3293557937
  0
LINE
  5
250
100
AcDbEntity
  8
0
100
AcDbLine
 62
7
  6
CONTINUOUS
 10
653.3108333402
 20
421.3293557937
 11
658.3908333402
 21
421.3293557937
  0
LINE
  5
251
100
AcDbEntity
  8
0
100
AcDbLine
 62
7
  6
CONTINUOUS
 10
668.5508333402
 20
421.3293557937
 11
673.6308333402
 21
421.3293557937
  0
LINE
  5
252
100
AcDbEntity
  8
0
100
AcDbLine
 62
7
  6
CONTINUOUS
 10
675.9908333402
 20
421.3293557937
 11
681.0708333402
 21
421.3293557937
  0
LINE
  5
253
100
AcDbEntity
  8
0
100
AcDbLine
 62
7
  6
CONTINUOUS
 10
683.4308333402
 20
421.3293557937
 11
688.5108333402
 21
421.3293557937
  0
LINE
  5
254
100
AcDbEntity
  8
0
100
AcDbLine
 62
7
  6
CONTINUOUS
 10
690.8708333402
 20
421.3293557937
 11
695.9508333402
 21
421.3293557937
  0
LINE
  5
255
100
AcDbEntity
  8
0
100
AcDbLine
 62
7
  6
CONTINUOUS
 10
698.3108333402
 20
421.3293557937
 11
703.3908333402
 21
421.3293557937
  0
LINE
  5
256
100
AcDbEntity
  8
0
100
AcDbLine
 62
7
  6
CONTINUOUS
 10
703.3908333402
 20
426.4093557937
 11
698.3108333402
 21
426.4093557937
  0
LINE
  5
257
100
AcDbEntity
  8
0
100
AcDbLine
 62
7
  6
CONTINUOUS
 10
695.9508333402
 20
426.4093557937
 11
690.8708333402
 21
426.4093557937
  0
LINE
  5
258
100
AcDbEntity
  8
0
100
AcDbLine
 62
7
  6
CONTINUOUS
 10
688.5108333402
 20
426.4093557937
 11
683.4308333402
 21
426.4093557937
  0
LINE
  5
259
100
AcDbEntity
  8
0
100
AcDbLine
 62
7
  6
CONTINUOUS
 10
681.0708333402
 20
426.4093557937
 11
675.9908333402
 21
426.4093557937
  0
LINE
  5
25A
100
AcDbEntity
  8
0
100
AcDbLine
 62
7
  6
CONTINUOUS
 10
673.6308333402
 20
426.4093557937
 11
668.5508333402
 21
426.4093557937
  0
LINE
  5
25B
100
AcDbEntity
  8
0
100
AcDbLine
 62
7
  6
CONTINUOUS
 10
658.3908333402
 20
426.4093557937
 11
653.3108333402
 21
426.4093557937
  0
LINE
  5
25C
100
AcDbEntity
  8
0
100
AcDbLine
 62
7
  6
CONTINUOUS
 10
650.9508333402
 20
426.4093557937
 11
645.8708333402
 21
426.4093557937
  0
LINE
  5
25D
100
AcDbEntity
  8
0
100
AcDbLine
 62
7
  6
CONTINUOUS
 10
643.5108333402
 20
426.4093557937
 11
638.4308333402
 21
426.4093557937
  0
LINE
  5
25E
100
AcDbEntity
  8
0
100
AcDbLine
 62
7
  6
CONTINUOUS
 10
636.0708333402
 20
426.4093557937
 11
630.9908333402
 21
426.4093557937
  0
LINE
  5
25F
100
AcDbEntity
  8
0
100
AcDbLine
 62
7
  6
CONTINUOUS
 10
628.6308333402
 20
426.4093557937
 11
623.5508333402
 21
426.4093557937
  0
LINE
  5
260
100
AcDbEntity
  8
0
100
AcDbLine
 62
7
  6
CONTINUOUS
 10
442.3908333402
 20
426.4093557937
 11
437.3108333402
 21
426.4093557937
  0
LINE
  5
261
100
AcDbEntity
  8
0
100
AcDbLine
 62
7
  6
CONTINUOUS
 10
434.9508333402
 20
426.4093557937
 11
429.8708333402
 21
426.4093557937
  0
LINE
  5
262
100
AcDbEntity
  8
0
100
AcDbLine
 62
7
  6
CONTINUOUS
 10
427.5108333402
 20
426.4093557937
 11
422.4308333402
 21
426.4093557937
  0
LINE
  5
263
100
AcDbEntity
  8
0
100
AcDbLine
 62
7
  6
CONTINUOUS
 10
420.0708333402
 20
426.4093557937
 11
414.9908333402
 21
426.4093557937
  0
LINE
  5
264
100
AcDbEntity
  8
0
100
AcDbLine
 62
7
  6
CONTINUOUS
 10
412.6308333402
 20
426.4093557937
 11
407.5508333402
 21
426.4093557937
  0
LINE
  5
265
100
AcDbEntity
  8
0
100
AcDbLine
 62
7
  6
CONTINUOUS
 10
407.5508333402
 20
428.7693557937
 11
412.6308333402
 21
428.7693557937
  0
LINE
  5
266
100
AcDbEntity
  8
0
100
AcDbLine
 62
7
  6
CONTINUOUS
 10
414.9908333402
 20
428.7693557937
 11
420.0708333402
 21
428.7693557937
  0
LINE
  5
267
100
AcDbEntity
  8
0
100
AcDbLine
 62
7
  6
CONTINUOUS
 10
422.4308333402
 20
428.7693557937
 11
427.5108333402
 21
428.7693557937
  0
LINE
  5
268
100
AcDbEntity
  8
0
100
AcDbLine
 62
7
  6
CONTINUOUS
 10
429.8708333402
 20
428.7693557937
 11
434.9508333402
 21
428.7693557937
  0
LINE
  5
269
100
AcDbEntity
  8
0
100
AcDbLine
 62
7
  6
CONTINUOUS
 10
437.3108333402
 20
428.7693557937
 11
442.3908333402
 21
428.7693557937
  0
LINE
  5
26A
100
AcDbEntity
  8
0
100
AcDbLine
 62
7
  6
CONTINUOUS
 10
623.5508333402
 20
428.7693557937
 11
628.6308333402
 21
428.7693557937
  0
LINE
  5
26B
100
AcDbEntity
  8
0
100
AcDbLine
 62
7
  6
CONTINUOUS
 10
630.9908333402
 20
428.7693557937
 11
636.0708333402
 21
428.7693557937
  0
LINE
  5
26C
100
AcDbEntity
  8
0
100
AcDbLine
 62
7
  6
CONTINUOUS
 10
638.4308333402
 20
428.7693557937
 11
643.5108333402
 21
428.7693557937
  0
LINE
  5
26D
100
AcDbEntity
  8
0
100
AcDbLine
 62
7
  6
CONTINUOUS
 10
645.8708333402
 20
428.7693557937
 11
650.9508333402
 21
428.7693557937
  0
LINE
  5
26E
100
AcDbEntity
  8
0
100
AcDbLine
 62
7
  6
CONTINUOUS
 10
653.3108333402
 20
428.7693557937
 11
658.3908333402
 21
428.7693557937
  0
LINE
  5
26F
100
AcDbEntity
  8
0
100
AcDbLine
 62
7
  6
CONTINUOUS
 10
668.5508333402
 20
428.7693557937
 11
673.6308333402
 21
428.7693557937
  0
LINE
  5
270
100
AcDbEntity
  8
0
100
AcDbLine
 62
7
  6
CONTINUOUS
 10
675.9908333402
 20
428.7693557937
 11
681.0708333402
 21
428.7693557937
  0
LINE
  5
271
100
AcDbEntity
  8
0
100
AcDbLine
 62
7
  6
CONTINUOUS
 10
683.4308333402
 20
428.7693557937
 11
688.5108333402
 21
428.7693557937
  0
LINE
  5
272
100
AcDbEntity
  8
0
100
AcDbLine
 62
7
  6
CONTINUOUS
 10
690.8708333402
 20
428.7693557937
 11
695.9508333402
 21
428.7693557937
  0
LINE
  5
273
100
AcDbEntity
  8
0
100
AcDbLine
 62
7
  6
CONTINUOUS
 10
698.3108333402
 20
428.7693557937
 11
703.3908333402
 21
428.7693557937
  0
LINE
  5
274
100
AcDbEntity
  8
0
100
AcDbLine
 62
7
  6
CONTINUOUS
 10
703.3908333402
 20
433.8493557937
 11
698.3108333402
 21
433.8493557937
  0
LINE
  5
275
100
AcDbEntity
  8
0
100
AcDbLine
 62
7
  6
CONTINUOUS
 10
695.9508333402
 20
433.8493557937
 11
690.8708333402
 21
433.8493557937
  0
LINE
  5
276
100
AcDbEntity
  8
0
100
AcDbLine
 62
7
  6
CONTINUOUS
 10
688.5108333402
 20
433.8493557937
 11
683.4308333402
 21
433.8493557937
  0
LINE
  5
277
100
AcDbEntity
  8
0
100
AcDbLine
 62
7
  6
CONTINUOUS
 10
681.0708333402
 20
433.8493557937
 11
675.9908333402
 21
433.8493557937
  0
LINE
  5
278
100
AcDbEntity
  8
0
100
AcDbLine
 62
7
  6
CONTINUOUS
 10
673.6308333402
 20
433.8493557937
 11
668.5508333402
 21
433.8493557937
  0
LINE
  5
279
100
AcDbEntity
  8
0
100
AcDbLine
 62
7
  6
CONTINUOUS
 10
658.3908333402
 20
433.8493557937
 11
653.3108333402
 21
433.8493557937
  0
LINE
  5
27A
100
AcDbEntity
  8
0
100
AcDbLine
 62
7
  6
CONTINUOUS
 10
650.9508333402
 20
433.8493557937
 11
645.8708333402
 21
433.8493557937
  0
LINE
  5
27B
100
AcDbEntity
  8
0
100
AcDbLine
 62
7
  6
CONTINUOUS
 10
643.5108333402
 20
433.8493557937
 11
638.4308333402
 21
433.8493557937
  0
LINE
  5
27C
100
AcDbEntity
  8
0
100
AcDbLine
 62
7
  6
CONTINUOUS
 10
636.0708333402
 20
433.8493557937
 11
630.9908333402
 21
433.8493557937
  0
LINE
  5
27D
100
AcDbEntity
  8
0
100
AcDbLine
 62
7
  6
CONTINUOUS
 10
628.6308333402
 20
433.8493557937
 11
623.5508333402
 21
433.8493557937
  0
LINE
  5
27E
100
AcDbEntity
  8
0
100
AcDbLine
 62
7
  6
CONTINUOUS
 10
442.3908333402
 20
433.8493557937
 11
437.3108333402
 21
433.8493557937
  0
LINE
  5
27F
100
AcDbEntity
  8
0
100
AcDbLine
 62
7
  6
CONTINUOUS
 10
434.9508333402
 20
433.8493557937
 11
429.8708333402
 21
433.8493557937
  0
LINE
  5
280
100
AcDbEntity
  8
0
100
AcDbLine
 62
7
  6
CONTINUOUS
 10
427.5108333402
 20
433.8493557937
 11
422.4308333402
 21
433.8493557937
  0
LINE
  5
281
100
AcDbEntity
  8
0
100
AcDbLine
 62
7
  6
CONTINUOUS
 10
420.0708333402
 20
433.8493557937
 11
414.9908333402
 21
433.8493557937
  0
LINE
  5
282
100
AcDbEntity
  8
0
100
AcDbLine
 62
7
  6
CONTINUOUS
 10
412.6308333402
 20
433.8493557937
 11
407.5508333402
 21
433.8493557937
  0
LINE
  5
283
100
AcDbEntity
  8
0
100
AcDbLine
 62
7
  6
CONTINUOUS
 10
407.5508333402
 20
436.2093557937
 11
412.6308333402
 21
436.2093557937
  0
LINE
  5
284
100
AcDbEntity
  8
0
100
AcDbLine
 62
7
  6
CONTINUOUS
 10
414.9908333402
 20
436.2093557937
 11
420.0708333402
 21
436.2093557937
  0
LINE
  5
285
100
AcDbEntity
  8
0
100
AcDbLine
 62
7
  6
CONTINUOUS
 10
422.4308333402
 20
436.2093557937
 11
427.5108333402
 21
436.2093557937
  0
LINE
  5
286
100
AcDbEntity
  8
0
100
AcDbLine
 62
7
  6
CONTINUOUS
 10
429.8708333402
 20
436.2093557937
 11
434.9508333402
 21
436.2093557937
  0
LINE
  5
287
100
AcDbEntity
  8
0
100
AcDbLine
 62
7
  6
CONTINUOUS
 10
437.3108333402
 20
436.2093557937
 11
442.3908333402
 21
436.2093557937
  0
LINE
  5
288
100
AcDbEntity
  8
0
100
AcDbLine
 62
7
  6
CONTINUOUS
 10
623.5508333402
 20
436.2093557937
 11
628.6308333402
 21
436.2093557937
  0
LINE
  5
289
100
AcDbEntity
  8
0
100
AcDbLine
 62
7
  6
CONTINUOUS
 10
630.9908333402
 20
436.2093557937
 11
636.0708333402
 21
436.2093557937
  0
LINE
  5
28A
100
AcDbEntity
  8
0
100
AcDbLine
 62
7
  6
CONTINUOUS
 10
638.4308333402
 20
436.2093557937
 11
643.5108333402
 21
436.2093557937
  0
LINE
  5
28B
100
AcDbEntity
  8
0
100
AcDbLine
 62
7
  6
CONTINUOUS
 10
645.8708333402
 20
436.2093557937
 11
650.9508333402
 21
436.2093557937
  0
LINE
  5
28C
100
AcDbEntity
  8
0
100
AcDbLine
 62
7
  6
CONTINUOUS
 10
653.3108333402
 20
436.2093557937
 11
658.3908333402
 21
436.2093557937
  0
LINE
  5
28D
100
AcDbEntity
  8
0
100
AcDbLine
 62
7
  6
CONTINUOUS
 10
668.5508333402
 20
436.2093557937
 11
673.6308333402
 21
436.2093557937
  0
LINE
  5
28E
100
AcDbEntity
  8
0
100
AcDbLine
 62
7
  6
CONTINUOUS
 10
675.9908333402
 20
436.2093557937
 11
681.0708333402
 21
436.2093557937
  0
LINE
  5
28F
100
AcDbEntity
  8
0
100
AcDbLine
 62
7
  6
CONTINUOUS
 10
683.4308333402
 20
436.2093557937
 11
688.5108333402
 21
436.2093557937
  0
LINE
  5
290
100
AcDbEntity
  8
0
100
AcDbLine
 62
7
  6
CONTINUOUS
 10
690.8708333402
 20
436.2093557937
 11
695.9508333402
 21
436.2093557937
  0
LINE
  5
291
100
AcDbEntity
  8
0
100
AcDbLine
 62
7
  6
CONTINUOUS
 10
698.3108333402
 20
436.2093557937
 11
703.3908333402
 21
436.2093557937
  0
LINE
  5
292
100
AcDbEntity
  8
0
100
AcDbLine
 62
7
  6
CONTINUOUS
 10
703.3908333402
 20
441.2893557937
 11
698.3108333402
 21
441.2893557937
  0
LINE
  5
293
100
AcDbEntity
  8
0
100
AcDbLine
 62
7
  6
CONTINUOUS
 10
695.9508333402
 20
441.2893557937
 11
690.8708333402
 21
441.2893557937
  0
LINE
  5
294
100
AcDbEntity
  8
0
100
AcDbLine
 62
7
  6
CONTINUOUS
 10
688.5108333402
 20
441.2893557937
 11
683.4308333402
 21
441.2893557937
  0
LINE
  5
295
100
AcDbEntity
  8
0
100
AcDbLine
 62
7
  6
CONTINUOUS
 10
681.0708333402
 20
441.2893557937
 11
675.9908333402
 21
441.2893557937
  0
LINE
  5
296
100
AcDbEntity
  8
0
100
AcDbLine
 62
7
  6
CONTINUOUS
 10
673.6308333402
 20
441.2893557937
 11
668.5508333402
 21
441.2893557937
  0
LINE
  5
297
100
AcDbEntity
  8
0
100
AcDbLine
 62
7
  6
CONTINUOUS
 10
658.3908333402
 20
441.2893557937
 11
653.3108333402
 21
441.2893557937
  0
LINE
  5
298
100
AcDbEntity
  8
0
100
AcDbLine
 62
7
  6
CONTINUOUS
 10
650.9508333402
 20
441.2893557937
 11
645.8708333402
 21
441.2893557937
  0
LINE
  5
299
100
AcDbEntity
  8
0
100
AcDbLine
 62
7
  6
CONTINUOUS
 10
643.5108333402
 20
441.2893557937
 11
638.4308333402
 21
441.2893557937
  0
LINE
  5
29A
100
AcDbEntity
  8
0
100
AcDbLine
 62
7
  6
CONTINUOUS
 10
636.0708333402
 20
441.2893557937
 11
630.9908333402
 21
441.2893557937
  0
LINE
  5
29B
100
AcDbEntity
  8
0
100
AcDbLine
 62
7
  6
CONTINUOUS
 10
628.6308333402
 20
441.2893557937
 11
623.5508333402
 21
441.2893557937
  0
LINE
  5
29C
100
AcDbEntity
  8
0
100
AcDbLine
 62
7
  6
CONTINUOUS
 10
442.3908333402
 20
441.2893557937
 11
437.3108333402
 21
441.2893557937
  0
LINE
  5
29D
100
AcDbEntity
  8
0
100
AcDbLine
 62
7
  6
CONTINUOUS
 10
434.9508333402
 20
441.2893557937
 11
429.8708333402
 21
441.2893557937
  0
LINE
  5
29E
100
AcDbEntity
  8
0
100
AcDbLine
 62
7
  6
CONTINUOUS
 10
427.5108333402
 20
441.2893557937
 11
422.4308333402
 21
441.2893557937
  0
LINE
  5
29F
100
AcDbEntity
  8
0
100
AcDbLine
 62
7
  6
CONTINUOUS
 10
420.0708333402
 20
441.2893557937
 11
414.9908333402
 21
441.2893557937
  0
LINE
  5
2A0
100
AcDbEntity
  8
0
100
AcDbLine
 62
7
  6
CONTINUOUS
 10
412.6308333402
 20
441.2893557937
 11
407.5508333402
 21
441.2893557937
  0
LINE
  5
2A1
100
AcDbEntity
  8
0
100
AcDbLine
 62
7
  6
CONTINUOUS
 10
414.9908333402
 20
443.6493557937
 11
420.0708333402
 21
443.6493557937
  0
LINE
  5
2A2
100
AcDbEntity
  8
0
100
AcDbLine
 62
7
  6
CONTINUOUS
 10
422.4308333402
 20
443.6493557937
 11
427.5108333402
 21
443.6493557937
  0
LINE
  5
2A3
100
AcDbEntity
  8
0
100
AcDbLine
 62
7
  6
CONTINUOUS
 10
429.8708333402
 20
443.6493557937
 11
434.9508333402
 21
443.6493557937
  0
LINE
  5
2A4
100
AcDbEntity
  8
0
100
AcDbLine
 62
7
  6
CONTINUOUS
 10
630.9908333402
 20
443.6493557937
 11
636.0708333402
 21
443.6493557937
  0
LINE
  5
2A5
100
AcDbEntity
  8
0
100
AcDbLine
 62
7
  6
CONTINUOUS
 10
638.4308333402
 20
443.6493557937
 11
643.5108333402
 21
443.6493557937
  0
LINE
  5
2A6
100
AcDbEntity
  8
0
100
AcDbLine
 62
7
  6
CONTINUOUS
 10
645.8708333402
 20
443.6493557937
 11
650.9508333402
 21
443.6493557937
  0
LINE
  5
2A7
100
AcDbEntity
  8
0
100
AcDbLine
 62
7
  6
CONTINUOUS
 10
675.9908333402
 20
443.6493557937
 11
681.0708333402
 21
443.6493557937
  0
LINE
  5
2A8
100
AcDbEntity
  8
0
100
AcDbLine
 62
7
  6
CONTINUOUS
 10
683.4308333402
 20
443.6493557937
 11
688.5108333402
 21
443.6493557937
  0
LINE
  5
2A9
100
AcDbEntity
  8
0
100
AcDbLine
 62
7
  6
CONTINUOUS
 10
690.8708333402
 20
443.6493557937
 11
695.9508333402
 21
443.6493557937
  0
LINE
  5
2AA
100
AcDbEntity
  8
0
100
AcDbLine
 62
7
  6
CONTINUOUS
 10
695.9508333402
 20
448.7293557937
 11
690.8708333402
 21
448.7293557937
  0
LINE
  5
2AB
100
AcDbEntity
  8
0
100
AcDbLine
 62
7
  6
CONTINUOUS
 10
688.5108333402
 20
448.7293557937
 11
683.4308333402
 21
448.7293557937
  0
LINE
  5
2AC
100
AcDbEntity
  8
0
100
AcDbLine
 62
7
  6
CONTINUOUS
 10
681.0708333402
 20
448.7293557937
 11
675.9908333402
 21
448.7293557937
  0
LINE
  5
2AD
100
AcDbEntity
  8
0
100
AcDbLine
 62
7
  6
CONTINUOUS
 10
650.9508333402
 20
448.7293557937
 11
645.8708333402
 21
448.7293557937
  0
LINE
  5
2AE
100
AcDbEntity
  8
0
100
AcDbLine
 62
7
  6
CONTINUOUS
 10
643.5108333402
 20
448.7293557937
 11
638.4308333402
 21
448.7293557937
  0
LINE
  5
2AF
100
AcDbEntity
  8
0
100
AcDbLine
 62
7
  6
CONTINUOUS
 10
636.0708333402
 20
448.7293557937
 11
630.9908333402
 21
448.7293557937
  0
LINE
  5
2B0
100
AcDbEntity
  8
0
100
AcDbLine
 62
7
  6
CONTINUOUS
 10
434.9508333402
 20
448.7293557937
 11
429.8708333402
 21
448.7293557937
  0
LINE
  5
2B1
100
AcDbEntity
  8
0
100
AcDbLine
 62
7
  6
CONTINUOUS
 10
427.5108333402
 20
448.7293557937
 11
422.4308333402
 21
448.7293557937
  0
LINE
  5
2B2
100
AcDbEntity
  8
0
100
AcDbLine
 62
7
  6
CONTINUOUS
 10
420.0708333402
 20
448.7293557937
 11
414.9908333402
 21
448.7293557937
  0
LINE
  5
2B3
100
AcDbEntity
  8
0
100
AcDbLine
 62
7
  6
CONTINUOUS
 10
623.5508333402
 20
441.2893557937
 11
623.5508333402
 21
436.2093557937
  0
LINE
  5
2B4
100
AcDbEntity
  8
0
100
AcDbLine
 62
7
  6
CONTINUOUS
 10
623.5508333402
 20
433.8493557937
 11
623.5508333402
 21
428.7693557937
  0
LINE
  5
2B5
100
AcDbEntity
  8
0
100
AcDbLine
 62
7
  6
CONTINUOUS
 10
623.5508333402
 20
421.3293557937
 11
623.5508333402
 21
426.4093557937
  0
LINE
  5
2B6
100
AcDbEntity
  8
0
100
AcDbLine
 62
7
  6
CONTINUOUS
 10
628.6308333402
 20
421.3293557937
 11
628.6308333402
 21
426.4093557937
  0
LINE
  5
2B7
100
AcDbEntity
  8
0
100
AcDbLine
 62
7
  6
CONTINUOUS
 10
628.6308333402
 20
428.7693557937
 11
628.6308333402
 21
433.8493557937
  0
LINE
  5
2B8
100
AcDbEntity
  8
0
100
AcDbLine
 62
7
  6
CONTINUOUS
 10
628.6308333402
 20
436.2093557937
 11
628.6308333402
 21
441.2893557937
  0
LINE
  5
2B9
100
AcDbEntity
  8
0
100
AcDbLine
 62
7
  6
CONTINUOUS
 10
630.9908333402
 20
448.7293557937
 11
630.9908333402
 21
443.6493557937
  0
LINE
  5
2BA
100
AcDbEntity
  8
0
100
AcDbLine
 62
7
  6
CONTINUOUS
 10
630.9908333402
 20
441.2893557937
 11
630.9908333402
 21
436.2093557937
  0
LINE
  5
2BB
100
AcDbEntity
  8
0
100
AcDbLine
 62
7
  6
CONTINUOUS
 10
630.9908333402
 20
433.8493557937
 11
630.9908333402
 21
428.7693557937
  0
LINE
  5
2BC
100
AcDbEntity
  8
0
100
AcDbLine
 62
7
  6
CONTINUOUS
 10
630.9908333402
 20
418.9693557937
 11
630.9908333402
 21
413.8893557937
  0
LINE
  5
2BD
100
AcDbEntity
  8
0
100
AcDbLine
 62
7
  6
CONTINUOUS
 10
630.9908333402
 20
421.3293557937
 11
630.9908333402
 21
426.4093557937
  0
LINE
  5
2BE
100
AcDbEntity
  8
0
100
AcDbLine
 62
7
  6
CONTINUOUS
 10
840.4708333402
 20
454.1073557937
 11
361.4708333402
 21
454.1073557937
  0
LINE
  5
2BF
100
AcDbEntity
  8
0
100
AcDbLine
 62
7
  6
CONTINUOUS
 10
636.0708333402
 20
413.8893557937
 11
636.0708333402
 21
418.9693557937
  0
LINE
  5
2C0
100
AcDbEntity
  8
0
100
AcDbLine
 62
7
  6
CONTINUOUS
 10
636.0708333402
 20
421.3293557937
 11
636.0708333402
 21
426.4093557937
  0
LINE
  5
2C1
100
AcDbEntity
  8
0
100
AcDbLine
 62
7
  6
CONTINUOUS
 10
636.0708333402
 20
428.7693557937
 11
636.0708333402
 21
433.8493557937
  0
LINE
  5
2C2
100
AcDbEntity
  8
0
100
AcDbLine
 62
7
  6
CONTINUOUS
 10
636.0708333402
 20
436.2093557937
 11
636.0708333402
 21
441.2893557937
  0
LINE
  5
2C3
100
AcDbEntity
  8
0
100
AcDbLine
 62
7
  6
CONTINUOUS
 10
636.0708333402
 20
443.6493557937
 11
636.0708333402
 21
448.7293557937
  0
LINE
  5
2C4
100
AcDbEntity
  8
0
100
AcDbLine
 62
7
  6
CONTINUOUS
 10
638.4308333402
 20
448.7293557937
 11
638.4308333402
 21
443.6493557937
  0
LINE
  5
2C5
100
AcDbEntity
  8
0
100
AcDbLine
 62
7
  6
CONTINUOUS
 10
638.4308333402
 20
441.2893557937
 11
638.4308333402
 21
436.2093557937
  0
LINE
  5
2C6
100
AcDbEntity
  8
0
100
AcDbLine
 62
7
  6
CONTINUOUS
 10
638.4308333402
 20
433.8493557937
 11
638.4308333402
 21
428.7693557937
  0
LINE
  5
2C7
100
AcDbEntity
  8
0
100
AcDbLine
 62
7
  6
CONTINUOUS
 10
638.4308333402
 20
418.9693557937
 11
638.4308333402
 21
413.8893557937
  0
LINE
  5
2C8
100
AcDbEntity
  8
0
100
AcDbLine
 62
7
  6
CONTINUOUS
 10
638.4308333402
 20
421.3293557937
 11
638.4308333402
 21
426.4093557937
  0
LINE
  5
2C9
100
AcDbEntity
  8
0
100
AcDbLine
 62
7
  6
CONTINUOUS
 10
643.5108333402
 20
413.8893557937
 11
643.5108333402
 21
418.9693557937
  0
LINE
  5
2CA
100
AcDbEntity
  8
0
100
AcDbLine
 62
7
  6
CONTINUOUS
 10
643.5108333402
 20
421.3293557937
 11
643.5108333402
 21
426.4093557937
  0
LINE
  5
2CB
100
AcDbEntity
  8
0
100
AcDbLine
 62
7
  6
CONTINUOUS
 10
643.5108333402
 20
428.7693557937
 11
643.5108333402
 21
433.8493557937
  0
LINE
  5
2CC
100
AcDbEntity
  8
0
100
AcDbLine
 62
7
  6
CONTINUOUS
 10
643.5108333402
 20
436.2093557937
 11
643.5108333402
 21
441.2893557937
  0
LINE
  5
2CD
100
AcDbEntity
  8
0
100
AcDbLine
 62
7
  6
CONTINUOUS
 10
643.5108333402
 20
443.6493557937
 11
643.5108333402
 21
448.7293557937
  0
LINE
  5
2CE
100
AcDbEntity
  8
0
100
AcDbLine
 62
7
  6
CONTINUOUS
 10
645.8708333402
 20
448.7293557937
 11
645.8708333402
 21
443.6493557937
  0
LINE
  5
2CF
100
AcDbEntity
  8
0
100
AcDbLine
 62
7
  6
CONTINUOUS
 10
645.8708333402
 20
441.2893557937
 11
645.8708333402
 21
436.2093557937
  0
LINE
  5
2D0
100
AcDbEntity
  8
0
100
AcDbLine
 62
7
  6
CONTINUOUS
 10
645.8708333402
 20
433.8493557937
 11
645.8708333402
 21
428.7693557937
  0
LINE
  5
2D1
100
AcDbEntity
  8
0
100
AcDbLine
 62
7
  6
CONTINUOUS
 10
645.8708333402
 20
418.9693557937
 11
645.8708333402
 21
413.8893557937
  0
LINE
  5
2D2
100
AcDbEntity
  8
0
100
AcDbLine
 62
7
  6
CONTINUOUS
 10
645.8708333402
 20
421.3293557937
 11
645.8708333402
 21
426.4093557937
  0
LINE
  5
2D3
100
AcDbEntity
  8
0
100
AcDbLine
 62
7
  6
CONTINUOUS
 10
650.9508333402
 20
413.8893557937
 11
650.9508333402
 21
418.9693557937
  0
LINE
  5
2D4
100
AcDbEntity
  8
0
100
AcDbLine
 62
7
  6
CONTINUOUS
 10
650.9508333402
 20
421.3293557937
 11
650.9508333402
 21
426.4093557937
  0
LINE
  5
2D5
100
AcDbEntity
  8
0
100
AcDbLine
 62
7
  6
CONTINUOUS
 10
650.9508333402
 20
428.7693557937
 11
650.9508333402
 21
433.8493557937
  0
LINE
  5
2D6
100
AcDbEntity
  8
0
100
AcDbLine
 62
7
  6
CONTINUOUS
 10
650.9508333402
 20
436.2093557937
 11
650.9508333402
 21
441.2893557937
  0
LINE
  5
2D7
100
AcDbEntity
  8
0
100
AcDbLine
 62
7
  6
CONTINUOUS
 10
650.9508333402
 20
443.6493557937
 11
650.9508333402
 21
448.7293557937
  0
LINE
  5
2D8
100
AcDbEntity
  8
0
100
AcDbLine
 62
7
  6
CONTINUOUS
 10
653.3108333402
 20
441.2893557937
 11
653.3108333402
 21
436.2093557937
  0
LINE
  5
2D9
100
AcDbEntity
  8
0
100
AcDbLine
 62
7
  6
CONTINUOUS
 10
653.3108333402
 20
433.8493557937
 11
653.3108333402
 21
428.7693557937
  0
LINE
  5
2DA
100
AcDbEntity
  8
0
100
AcDbLine
 62
7
  6
CONTINUOUS
 10
653.3108333402
 20
421.3293557937
 11
653.3108333402
 21
426.4093557937
  0
LINE
  5
2DB
100
AcDbEntity
  8
0
100
AcDbLine
 62
7
  6
CONTINUOUS
 10
658.3908333402
 20
421.3293557937
 11
658.3908333402
 21
426.4093557937
  0
LINE
  5
2DC
100
AcDbEntity
  8
0
100
AcDbLine
 62
7
  6
CONTINUOUS
 10
658.3908333402
 20
428.7693557937
 11
658.3908333402
 21
433.8493557937
  0
LINE
  5
2DD
100
AcDbEntity
  8
0
100
AcDbLine
 62
7
  6
CONTINUOUS
 10
658.3908333402
 20
436.2093557937
 11
658.3908333402
 21
441.2893557937
  0
LINE
  5
2DE
100
AcDbEntity
  8
0
100
AcDbLine
 62
7
  6
CONTINUOUS
 10
668.5508333402
 20
441.2893557937
 11
668.5508333402
 21
436.2093557937
  0
LINE
  5
2DF
100
AcDbEntity
  8
0
100
AcDbLine
 62
7
  6
CONTINUOUS
 10
668.5508333402
 20
433.8493557937
 11
668.5508333402
 21
428.7693557937
  0
LINE
  5
2E0
100
AcDbEntity
  8
0
100
AcDbLine
 62
7
  6
CONTINUOUS
 10
668.5508333402
 20
421.3293557937
 11
668.5508333402
 21
426.4093557937
  0
LINE
  5
2E1
100
AcDbEntity
  8
0
100
AcDbLine
 62
7
  6
CONTINUOUS
 10
673.6308333402
 20
421.3293557937
 11
673.6308333402
 21
426.4093557937
  0
LINE
  5
2E2
100
AcDbEntity
  8
0
100
AcDbLine
 62
7
  6
CONTINUOUS
 10
673.6308333402
 20
428.7693557937
 11
673.6308333402
 21
433.8493557937
  0
LINE
  5
2E3
100
AcDbEntity
  8
0
100
AcDbLine
 62
7
  6
CONTINUOUS
 10
673.6308333402
 20
436.2093557937
 11
673.6308333402
 21
441.2893557937
  0
LINE
  5
2E4
100
AcDbEntity
  8
0
100
AcDbLine
 62
7
  6
CONTINUOUS
 10
675.9908333402
 20
448.7293557937
 11
675.9908333402
 21
443.6493557937
  0
LINE
  5
2E5
100
AcDbEntity
  8
0
100
AcDbLine
 62
7
  6
CONTINUOUS
 10
675.9908333402
 20
441.2893557937
 11
675.9908333402
 21
436.2093557937
  0
LINE
  5
2E6
100
AcDbEntity
  8
0
100
AcDbLine
 62
7
  6
CONTINUOUS
 10
675.9908333402
 20
433.8493557937
 11
675.9908333402
 21
428.7693557937
  0
LINE
  5
2E7
100
AcDbEntity
  8
0
100
AcDbLine
 62
7
  6
CONTINUOUS
 10
675.9908333402
 20
418.9693557937
 11
675.9908333402
 21
413.8893557937
  0
LINE
  5
2E8
100
AcDbEntity
  8
0
100
AcDbLine
 62
7
  6
CONTINUOUS
 10
675.9908333402
 20
421.3293557937
 11
675.9908333402
 21
426.4093557937
  0
LINE
  5
2E9
100
AcDbEntity
  8
0
100
AcDbLine
 62
7
  6
CONTINUOUS
 10
681.0708333402
 20
413.8893557937
 11
681.0708333402
 21
418.9693557937
  0
LINE
  5
2EA
100
AcDbEntity
  8
0
100
AcDbLine
 62
7
  6
CONTINUOUS
 10
681.0708333402
 20
421.3293557937
 11
681.0708333402
 21
426.4093557937
  0
LINE
  5
2EB
100
AcDbEntity
  8
0
100
AcDbLine
 62
7
  6
CONTINUOUS
 10
681.0708333402
 20
428.7693557937
 11
681.0708333402
 21
433.8493557937
  0
LINE
  5
2EC
100
AcDbEntity
  8
0
100
AcDbLine
 62
7
  6
CONTINUOUS
 10
681.0708333402
 20
436.2093557937
 11
681.0708333402
 21
441.2893557937
  0
LINE
  5
2ED
100
AcDbEntity
  8
0
100
AcDbLine
 62
7
  6
CONTINUOUS
 10
681.0708333402
 20
443.6493557937
 11
681.0708333402
 21
448.7293557937
  0
LINE
  5
2EE
100
AcDbEntity
  8
0
100
AcDbLine
 62
7
  6
CONTINUOUS
 10
683.4308333402
 20
448.7293557937
 11
683.4308333402
 21
443.6493557937
  0
LINE
  5
2EF
100
AcDbEntity
  8
0
100
AcDbLine
 62
7
  6
CONTINUOUS
 10
683.4308333402
 20
441.2893557937
 11
683.4308333402
 21
436.2093557937
  0
LINE
  5
2F0
100
AcDbEntity
  8
0
100
AcDbLine
 62
7
  6
CONTINUOUS
 10
683.4308333402
 20
433.8493557937
 11
683.4308333402
 21
428.7693557937
  0
LINE
  5
2F1
100
AcDbEntity
  8
0
100
AcDbLine
 62
7
  6
CONTINUOUS
 10
683.4308333402
 20
418.9693557937
 11
683.4308333402
 21
413.8893557937
  0
LINE
  5
2F2
100
AcDbEntity
  8
0
100
AcDbLine
 62
7
  6
CONTINUOUS
 10
683.4308333402
 20
421.3293557937
 11
683.4308333402
 21
426.4093557937
  0
LINE
  5
2F3
100
AcDbEntity
  8
0
100
AcDbLine
 62
7
  6
CONTINUOUS
 10
688.5108333402
 20
413.8893557937
 11
688.5108333402
 21
418.9693557937
  0
LINE
  5
2F4
100
AcDbEntity
  8
0
100
AcDbLine
 62
7
  6
CONTINUOUS
 10
688.5108333402
 20
421.3293557937
 11
688.5108333402
 21
426.4093557937
  0
LINE
  5
2F5
100
AcDbEntity
  8
0
100
AcDbLine
 62
7
  6
CONTINUOUS
 10
688.5108333402
 20
428.7693557937
 11
688.5108333402
 21
433.8493557937
  0
LINE
  5
2F6
100
AcDbEntity
  8
0
100
AcDbLine
 62
7
  6
CONTINUOUS
 10
688.5108333402
 20
436.2093557937
 11
688.5108333402
 21
441.2893557937
  0
LINE
  5
2F7
100
AcDbEntity
  8
0
100
AcDbLine
 62
7
  6
CONTINUOUS
 10
688.5108333402
 20
443.6493557937
 11
688.5108333402
 21
448.7293557937
  0
LINE
  5
2F8
100
AcDbEntity
  8
0
100
AcDbLine
 62
7
  6
CONTINUOUS
 10
690.8708333402
 20
448.7293557937
 11
690.8708333402
 21
443.6493557937
  0
LINE
  5
2F9
100
AcDbEntity
  8
0
100
AcDbLine
 62
7
  6
CONTINUOUS
 10
690.8708333402
 20
441.2893557937
 11
690.8708333402
 21
436.2093557937
  0
LINE
  5
2FA
100
AcDbEntity
  8
0
100
AcDbLine
 62
7
  6
CONTINUOUS
 10
690.8708333402
 20
433.8493557937
 11
690.8708333402
 21
428.7693557937
  0
LINE
  5
2FB
100
AcDbEntity
  8
0
100
AcDbLine
 62
7
  6
CONTINUOUS
 10
690.8708333402
 20
418.9693557937
 11
690.8708333402
 21
413.8893557937
  0
LINE
  5
2FC
100
AcDbEntity
  8
0
100
AcDbLine
 62
7
  6
CONTINUOUS
 10
690.8708333402
 20
421.3293557937
 11
690.8708333402
 21
426.4093557937
  0
LINE
  5
2FD
100
AcDbEntity
  8
0
100
AcDbLine
 62
7
  6
CONTINUOUS
 10
695.9508333402
 20
413.8893557937
 11
695.9508333402
 21
418.9693557937
  0
LINE
  5
2FE
100
AcDbEntity
  8
0
100
AcDbLine
 62
7
  6
CONTINUOUS
 10
695.9508333402
 20
421.3293557937
 11
695.9508333402
 21
426.4093557937
  0
LINE
  5
2FF
100
AcDbEntity
  8
0
100
AcDbLine
 62
7
  6
CONTINUOUS
 10
695.9508333402
 20
428.7693557937
 11
695.9508333402
 21
433.8493557937
  0
LINE
  5
300
100
AcDbEntity
  8
0
100
AcDbLine
 62
7
  6
CONTINUOUS
 10
695.9508333402
 20
436.2093557937
 11
695.9508333402
 21
441.2893557937
  0
LINE
  5
301
100
AcDbEntity
  8
0
100
AcDbLine
 62
7
  6
CONTINUOUS
 10
695.9508333402
 20
443.6493557937
 11
695.9508333402
 21
448.7293557937
  0
LINE
  5
302
100
AcDbEntity
  8
0
100
AcDbLine
 62
7
  6
CONTINUOUS
 10
698.3108333402
 20
441.2893557937
 11
698.3108333402
 21
436.2093557937
  0
LINE
  5
303
100
AcDbEntity
  8
0
100
AcDbLine
 62
7
  6
CONTINUOUS
 10
698.3108333402
 20
433.8493557937
 11
698.3108333402
 21
428.7693557937
  0
LINE
  5
304
100
AcDbEntity
  8
0
100
AcDbLine
 62
7
  6
CONTINUOUS
 10
698.3108333402
 20
421.3293557937
 11
698.3108333402
 21
426.4093557937
  0
LINE
  5
305
100
AcDbEntity
  8
0
100
AcDbLine
 62
7
  6
CONTINUOUS
 10
703.3908333402
 20
421.3293557937
 11
703.3908333402
 21
426.4093557937
  0
LINE
  5
306
100
AcDbEntity
  8
0
100
AcDbLine
 62
7
  6
CONTINUOUS
 10
703.3908333402
 20
428.7693557937
 11
703.3908333402
 21
433.8493557937
  0
LINE
  5
307
100
AcDbEntity
  8
0
100
AcDbLine
 62
7
  6
CONTINUOUS
 10
703.3908333402
 20
436.2093557937
 11
703.3908333402
 21
441.2893557937
  0
LINE
  5
308
100
AcDbEntity
  8
0
100
AcDbLine
 62
7
  6
CONTINUOUS
 10
842.4708333402
 20
412.4193557937
 11
842.4708333402
 21
452.1073557937
  0
CIRCLE
  5
309
100
AcDbEntity
  8
AXES
100
AcDbCircle
 62
7
  6
CONTINUOUS
 10
455.9708333402
 20
420.8733557937
 40
7.5
  0
CIRCLE
  5
30A
100
AcDbEntity
  8
AXES
100
AcDbCircle
 62
7
  6
CONTINUOUS
 10
480.9708333402
 20
420.8733557937
 40
7.5
  0
CIRCLE
  5
30B
100
AcDbEntity
  8
0
100
AcDbCircle
 62
7
  6
CONTINUOUS
 10
395.4708333402
 20
420.0383557937
 40
3.1
  0
ARC
  5
30C
100
AcDbEntity
  8
0
100
AcDbCircle
 62
7
  6
CONTINUOUS
 10
361.4708333402
 20
412.4193557937
 40
2.0
100
AcDbArc
 50
180.0
 51
270.0
  0
CIRCLE
  5
30D
100
AcDbEntity
  8
0
100
AcDbCircle
 62
7
  6
CONTINUOUS
 10
395.4708333402
 20
420.0383557937
 40
1.6
  0
CIRCLE
  5
30E
100
AcDbEntity
  8
0
100
AcDbCircle
 62
7
  6
CONTINUOUS
 10
395.4708333402
 20
444.4883557937
 40
3.1
  0
CIRCLE
  5
30F
100
AcDbEntity
  8
AXES
100
AcDbCircle
 62
7
  6
CONTINUOUS
 10
368.4708333402
 20
432.2633557937
 40
2.5
  0
ARC
  5
310
100
AcDbEntity
  8
0
100
AcDbCircle
 62
7
  6
CONTINUOUS
 10
361.4708333402
 20
452.1073557937
 40
2.0
100
AcDbArc
 50
90.0
 51
180.0
  0
CIRCLE
  5
311
100
AcDbEntity
  8
0
100
AcDbCircle
 62
7
  6
CONTINUOUS
 10
395.4708333402
 20
444.4883557937
 40
1.6
  0
CIRCLE
  5
312
100
AcDbEntity
  8
AXES
100
AcDbCircle
 62
7
  6
CONTINUOUS
 10
571.9708333402
 20
436.4933557937
 40
1.5
  0
CIRCLE
  5
313
100
AcDbEntity
  8
AXES
100
AcDbCircle
 62
7
  6
CONTINUOUS
 10
578.9708333402
 20
436.4933557937
 40
1.5
  0
CIRCLE
  5
314
100
AcDbEntity
  8
AXES
100
AcDbCircle
 62
7
  6
CONTINUOUS
 10
585.9708333402
 20
436.4933557937
 40
1.5
  0
CIRCLE
  5
315
100
AcDbEntity
  8
AXES
100
AcDbCircle
 62
7
  6
CONTINUOUS
 10
592.9708333402
 20
436.4933557937
 40
1.5
  0
CIRCLE
  5
316
100
AcDbEntity
  8
AXES
100
AcDbCircle
 62
7
  6
CONTINUOUS
 10
599.9708333402
 20
436.4933557937
 40
1.5
  0
CIRCLE
  5
317
100
AcDbEntity
  8
AXES
100
AcDbCircle
 62
7
  6
CONTINUOUS
 10
564.9708333402
 20
436.4933557937
 40
1.5
  0
CIRCLE
  5
318
100
AcDbEntity
  8
AXES
100
AcDbCircle
 62
7
  6
CONTINUOUS
 10
557.9708333402
 20
436.4933557937
 40
1.5
  0
CIRCLE
  5
319
100
AcDbEntity
  8
AXES
100
AcDbCircle
 62
7
  6
CONTINUOUS
 10
550.9708333402
 20
436.4933557937
 40
1.5
  0
CIRCLE
  5
31A
100
AcDbEntity
  8
AXES
100
AcDbCircle
 62
7
  6
CONTINUOUS
 10
529.9708333402
 20
436.4933557937
 40
1.5
  0
CIRCLE
  5
31B
100
AcDbEntity
  8
AXES
100
AcDbCircle
 62
7
  6
CONTINUOUS
 10
480.9708333402
 20
436.4933557937
 40
1.5
  0
CIRCLE
  5
31C
100
AcDbEntity
  8
AXES
100
AcDbCircle
 62
7
  6
CONTINUOUS
 10
515.9708333402
 20
436.4933557937
 40
1.5
  0
CIRCLE
  5
31D
100
AcDbEntity
  8
AXES
100
AcDbCircle
 62
7
  6
CONTINUOUS
 10
455.9708333402
 20
436.4933557937
 40
1.5
  0
CIRCLE
  5
31E
100
AcDbEntity
  8
0
100
AcDbCircle
 62
7
  6
CONTINUOUS
 10
806.4708333402
 20
420.0383557937
 40
3.1
  0
ARC
  5
31F
100
AcDbEntity
  8
0
100
AcDbCircle
 62
7
  6
CONTINUOUS
 10
840.4708333402
 20
412.4193557937
 40
2.0
100
AcDbArc
 50
270.0
 51
360.0
  0
CIRCLE
  5
320
100
AcDbEntity
  8
0
100
AcDbCircle
 62
7
  6
CONTINUOUS
 10
806.4708333402
 20
420.0383557937
 40
1.6
  0
CIRCLE
  5
321
100
AcDbEntity
  8
0
100
AcDbCircle
 62
7
  6
CONTINUOUS
 10
806.4708333402
 20
444.4883557937
 40
3.1
  0
CIRCLE
  5
322
100
AcDbEntity
  8
AXES
100
AcDbCircle
 62
7
  6
CONTINUOUS
 10
833.4708333402
 20
432.2633557937
 40
2.5
  0
ARC
  5
323
100
AcDbEntity
  8
0
100
AcDbCircle
 62
7
  6
CONTINUOUS
 10
840.4708333402
 20
452.1073557937
 40
2.0
100
AcDbArc
 50
0.0
 51
90.0
  0
CIRCLE
  5
324
100
AcDbEntity
  8
0
100
AcDbCircle
 62
7
  6
CONTINUOUS
 10
806.4708333402
 20
444.4883557937
 40
1.6
  0
ENDSEC
  0
SECTION
  2
OBJECTS
  0
DICTIONARY
  5
C
100
AcDbDictionary
280
0
281
1
  3
ACAD_GROUP
350
D
  3
ACAD_MLINESTYLE
350
17
  3
ACAD_LAYOUT
350
1A
  3
ACAD_PLOTSETTINGS
350
19
  3
ACAD_PLOTSTYLENAME
350
E
  0
DICTIONARY
  5
D
102
{ACAD_REACTORS
330
C
102
}
100
AcDbDictionary
280
0
281
1
  0
ACDBDICTIONARYWDFLT
  5
E
102
{ACAD_REACTORS
330
C
102
}
100
AcDbDictionary
281
1
  3
Normal
350
F
100
AcDbDictionaryWithDefault
340
F
  0
DICTIONARY
  5
17
102
{ACAD_REACTORS
330
C
102
}
100
AcDbDictionary
280
0
281
1
  3
Standard
350
18
  0
DICTIONARY
  5
19
102
{ACAD_REACTORS
330
C
102
}
100
AcDbDictionary
281
1
  0
DICTIONARY
  5
1A
102
{ACAD_REACTORS
330
C
102
}
100
AcDbDictionary
281
1
  3
Model
350
325
  3
Layout1
350
326
  0
ACDBPLACEHOLDER
  5
F
102
{ACAD_REACTORS
330
E
102
}
  0
MLINESTYLE
  5
18
102
{ACAD_REACTORS
330
17
102
}
100
AcDbMlineStyle
  2
STANDARD
 70
0
  3

 62
256
 51
90.0
 52
90.0
 71
2
 49
0.5
 62
256
  6
BYLAYER
 49
-0.5
 62
256
  6
BYLAYER
  0
LAYOUT
  5
325
102
{ACAD_REACTORS
330
1A
102
}
100
AcDbPlotSettings
  1

  2
none_device
  4
ISO_A0_(1189.00_x_841.00_MM)
  6

 40
0.0
 41
0.0
 42
0.0
 43
0.0
 44
1189.0
 45
841.0
 46
0.0
 47
0.0
 48
0.0
 49
0.0
140
0.0
141
0.0
142
1.0
143
1.0
 70
1024
 72
1
 73
0
 74
0
  7

 75
0
147
1.0
148
0.0
149
0.0
100
AcDbLayout
  1
Model
 70
0
 71
0
 10
0.0
 20
0.0
 11
1189.0
 21
841.0
 12
0.0
 22
0.0
 32
0.0
 14
0.0
 24
0.0
 34
0.0
 15
0.0
 25
0.0
 35
0.0
146
0.0
 13
0.0
 23
0.0
 33
0.0
 16
1.0
 26
0.0
 36
0.0
 17
0.0
 27
1.0
 37
0.0
 76
0
330
202
345
0
346
0
  0
LAYOUT
  5
326
102
{ACAD_REACTORS
330
1A
102
}
100
AcDbPlotSettings
  1

  2
none_device
  4
ISO_A0_(1189.00_x_841.00_MM)
  6

 40
0.0
 41
0.0
 42
0.0
 43
0.0
 44
1189.0
 45
841.0
 46
0.0
 47
0.0
 48
0.0
 49
0.0
140
0.0
141
0.0
142
1.0
143
1.0
 70
0
 72
1
 73
0
 74
0
  7

 75
0
147
1.0
148
0.0
149
0.0
100
AcDbLayout
  1
Layout1
 70
0
 71
1
 10
0.0
 20
0.0
 11
1189.0
 21
841.0
 12
0.0
 22
0.0
 32
0.0
 14
0.0
 24
0.0
 34
0.0
 15
0.0
 25
0.0
 35
0.0
146
0.0
 13
0.0
 23
0.0
 33
0.0
 16
1.0
 26
0.0
 36
0.0
 17
0.0
 27
1.0
 37
0.0
 76
0
330
203
345
0
346
0
  0
ENDSEC
  0
EOF
