999
DXF file: C:\Users\Vaughan\Documents\ROACH 2 Enclosure Manufacturing Packs\2014.03.06.roach_2_manufacture\roach_2_manufacture\dxf\roach-2-chassis-flat.dxf
999
Pro/ENGINEER 2013050 by Parametric Technology Corporation
  0
SECTION
  2
HEADER
  9
$ACADVER
  1
AC1021
  9
$DWGCODEPAGE
  3
ANSI_1252
  9
$EXTMAX
 10
841.0
 20
594.0
 30
0.0
  9
$EXTMIN
 10
0.0
 20
0.0
 30
0.0
  9
$LIMMIN
 10
0.0
 20
0.0
  9
$LIMMAX
 10
841.0
 20
594.0
  9
$VIEWCTR
 10
420.5
 20
297.0
  9
$VIEWSIZE
 40
594.0
  9
$CLAYER
  8
0
  9
$LTSCALE
 40
46.255
  9
$CELTYPE
  6
BYLAYER
  9
$DIMSCALE
 40
1.0
  9
$DIMASZ
 40
3.5
  9
$DIMEXO
 40
1.5
  9
$DIMDLI
 40
31.958
  9
$DIMEXE
 40
1.0
  9
$DIMCEN
 40
7.569
  9
$DIMLFAC
 40
1.0
  9
$DIMBLK
  1
_FILLED
  9
$DIMTXT
 40
3.5
  9
$DIMTOL
 70
1
  9
$DIMLIM
 70
0
  9
$DIMTFAC
 40
1.0
  9
$DIMTP
 40
0.01
  9
$DIMTM
 40
0.01
  9
$DIMGAP
 40
0.625
  9
$DIMDSEP
 70
44
  9
$PDMODE
 70
3
  9
$PDSIZE
 40
0.25
  9
$HANDSEED
  5
4A2
  9
$TILEMODE
 70
1
  9
$MEASUREMENT
 70
1
  9
$INSUNITS
 70
4
  0
ENDSEC
  0
SECTION
  2
CLASSES
  0
CLASS
  1
ACDBDICTIONARYWDFLT
  2
AcDbDictionaryWithDefault
  3
AutoCAD 2000
 90
0
 91
1
280
0
281
0
  0
CLASS
  1
ACDBPLACEHOLDER
  2
AcDbPlaceHolder
  3
AutoCAD 2000
 90
0
 91
1
280
0
281
0
  0
CLASS
  1
LAYOUT
  2
AcDbLayout
  3
AutoCAD 2000
 90
0
 91
0
280
0
281
0
  0
ENDSEC
  0
SECTION
  2
TABLES
  0
TABLE
  2
VPORT
  5
8
100
AcDbSymbolTable
 70
2
  0
VPORT
  5
1F4
100
AcDbSymbolTableRecord
100
AcDbViewportTableRecord
  2
*ACTIVE
 70
0
 10
0.0
 20
0.0
 11
1.0
 21
1.0
 12
420.5
 22
297.0
 13
0.0
 23
0.0
 14
1.0
 24
1.0
 15
0.0
 25
0.0
 16
0.0
 26
0.0
 36
1.0
 17
0.0
 27
0.0
 37
0.0
 40
594.0
 41
1.4158249158
 42
50.0
 43
0.0
 44
0.0
 50
0.0
 51
0.0
 71
0
 72
100
 73
1
 74
1
 75
0
 76
0
 77
0
 78
0
  0
ENDTAB
  0
TABLE
  2
LTYPE
  5
5
100
AcDbSymbolTable
 70
6
  0
LTYPE
  5
14
100
AcDbSymbolTableRecord
100
AcDbLinetypeTableRecord
  2
BYBLOCK
 70
0
  3

 72
65
 73
0
 40
0.0
  0
LTYPE
  5
15
100
AcDbSymbolTableRecord
100
AcDbLinetypeTableRecord
  2
BYLAYER
 70
0
  3

 72
65
 73
0
 40
0.0
  0
LTYPE
  5
16
100
AcDbSymbolTableRecord
100
AcDbLinetypeTableRecord
  2
CONTINUOUS
 70
64
  3
Solid line
 72
65
 73
0
 40
0.0
  0
LTYPE
  5
1F5
100
AcDbSymbolTableRecord
100
AcDbLinetypeTableRecord
  2
CENTER
 70
64
  3
____ _ ____ _ ____ _ ____ _ ____ _ ____ _ ____
 72
65
 73
4
 40
0.6
 49
0.375
 74
0
 49
-0.075
 74
0
 49
0.075
 74
0
 49
-0.075
 74
0
  0
LTYPE
  5
1F6
100
AcDbSymbolTableRecord
100
AcDbLinetypeTableRecord
  2
HIDDEN
 70
64
  3
- - - - - - - - - - - - - - - - - - - -
 72
65
 73
2
 40
0.2
 49
0.1
 74
0
 49
-0.1
 74
0
  0
LTYPE
  5
1F7
100
AcDbSymbolTableRecord
100
AcDbLinetypeTableRecord
  2
PHANTOM
 70
64
  3
_____ _ _ _____ _ _ _____ _ _ _____
 72
65
 73
6
 40
0.8
 49
0.45
 74
0
 49
-0.05
 74
0
 49
0.1
 74
0
 49
-0.05
 74
0
 49
0.1
 74
0
 49
-0.05
 74
0
  0
LTYPE
  5
1F8
100
AcDbSymbolTableRecord
100
AcDbLinetypeTableRecord
  2
DOT
 70
64
  3
. . . . . . . . . . . . . . . . . . . .
 72
65
 73
2
 40
0.2
 49
0.1
 74
0
 49
-0.1
 74
0
  0
LTYPE
  5
1F9
100
AcDbSymbolTableRecord
100
AcDbLinetypeTableRecord
  2
DASHED
 70
64
  3
- - - - - - - - - - - - - - - - - - - -
 72
65
 73
2
 40
0.2
 49
0.1
 74
0
 49
-0.1
 74
0
  0
ENDTAB
  0
TABLE
  2
LAYER
  5
2
100
AcDbSymbolTable
 70
36
  0
LAYER
  5
10
100
AcDbSymbolTableRecord
100
AcDbLayerTableRecord
  2
0
 70
0
 62
7
  6
CONTINUOUS
370
-3
390
F
  0
LAYER
  5
1FA
100
AcDbSymbolTableRecord
100
AcDbLayerTableRecord
  2
DEFAULT_1
 70
0
 62
7
  6
CENTER
370
-3
390
F
  0
LAYER
  5
1FB
100
AcDbSymbolTableRecord
100
AcDbLayerTableRecord
  2
DEFAULT_2
 70
0
 62
8
  6
HIDDEN
370
-3
390
F
  0
LAYER
  5
1FC
100
AcDbSymbolTableRecord
100
AcDbLayerTableRecord
  2
DEFAULT_3
 70
0
 62
7
  6
PHANTOM
370
-3
390
F
  0
LAYER
  5
1FD
100
AcDbSymbolTableRecord
100
AcDbLayerTableRecord
  2
01___PRT_ALL_DTM_PLN
 70
0
 62
7
  6
CONTINUOUS
370
-3
390
F
  0
LAYER
  5
1FE
100
AcDbSymbolTableRecord
100
AcDbLayerTableRecord
  2
01___PRT_DEF_DTM_PLN
 70
0
 62
7
  6
CONTINUOUS
370
-3
390
F
  0
LAYER
  5
1FF
100
AcDbSymbolTableRecord
100
AcDbLayerTableRecord
  2
02___PRT_ALL_AXES
 70
0
 62
7
  6
CONTINUOUS
370
-3
390
F
  0
LAYER
  5
200
100
AcDbSymbolTableRecord
100
AcDbLayerTableRecord
  2
03___PRT_ALL_CURVES
 70
0
 62
7
  6
CONTINUOUS
370
-3
390
F
  0
LAYER
  5
201
100
AcDbSymbolTableRecord
100
AcDbLayerTableRecord
  2
04___PRT_ALL_DTM_PNT
 70
0
 62
7
  6
CONTINUOUS
370
-3
390
F
  0
LAYER
  5
202
100
AcDbSymbolTableRecord
100
AcDbLayerTableRecord
  2
05___PRT_ALL_DTM_CSYS
 70
0
 62
7
  6
CONTINUOUS
370
-3
390
F
  0
LAYER
  5
203
100
AcDbSymbolTableRecord
100
AcDbLayerTableRecord
  2
05___PRT_DEF_DTM_CSYS
 70
0
 62
7
  6
CONTINUOUS
370
-3
390
F
  0
LAYER
  5
204
100
AcDbSymbolTableRecord
100
AcDbLayerTableRecord
  2
06___PRT_ALL_SURFS
 70
0
 62
7
  6
CONTINUOUS
370
-3
390
F
  0
LAYER
  5
205
100
AcDbSymbolTableRecord
100
AcDbLayerTableRecord
  2
AXES
 70
0
 62
7
  6
CONTINUOUS
370
-3
390
F
  0
LAYER
  5
206
100
AcDbSymbolTableRecord
100
AcDbLayerTableRecord
  2
CSYS
 70
0
 62
7
  6
CONTINUOUS
370
-3
390
F
  0
LAYER
  5
207
100
AcDbSymbolTableRecord
100
AcDbLayerTableRecord
  2
PLANES
 70
0
 62
7
  6
CONTINUOUS
370
-3
390
F
  0
LAYER
  5
208
100
AcDbSymbolTableRecord
100
AcDbLayerTableRecord
  2
SURFACES
 70
0
 62
7
  6
CONTINUOUS
370
-3
390
F
  0
LAYER
  5
209
100
AcDbSymbolTableRecord
100
AcDbLayerTableRecord
  2
THREADS
 70
0
 62
7
  6
CONTINUOUS
370
-3
390
F
  0
ENDTAB
  0
TABLE
  2
STYLE
  5
3
100
AcDbSymbolTable
 70
1
  0
STYLE
  5
11
100
AcDbSymbolTableRecord
100
AcDbTextStyleTableRecord
  2
STANDARD
 70
0
 40
0.0
 41
0.8
 50
0.0
 71
0
 42
0.2
  3
txt
  4

  0
STYLE
  5
20A
100
AcDbSymbolTableRecord
100
AcDbTextStyleTableRecord
  2
TEXTSTYLE_1
 70
0
 40
0.0
 41
0.8
 50
0.0
 71
0
 42
0.2
  3
gdt
  4

  0
ENDTAB
  0
TABLE
  2
VIEW
  5
6
100
AcDbSymbolTable
 70
0
  0
ENDTAB
  0
TABLE
  2
UCS
  5
7
100
AcDbSymbolTable
 70
0
  0
ENDTAB
  0
TABLE
  2
APPID
  5
9
100
AcDbSymbolTable
 70
1
  0
APPID
  5
20B
100
AcDbSymbolTableRecord
100
AcDbRegAppTableRecord
  2
ACAD
 70
0
  0
ENDTAB
  0
TABLE
  2
BLOCK_RECORD
  5
1
100
AcDbSymbolTable
 70
0
  0
BLOCK_RECORD
  5
20C
100
AcDbSymbolTableRecord
100
AcDbBlockTableRecord
  2
*Model_Space
  0
BLOCK_RECORD
  5
20D
100
AcDbSymbolTableRecord
100
AcDbBlockTableRecord
  2
*Paper_Space
  0
ENDTAB
  0
TABLE
  2
DIMSTYLE
  5
A
100
AcDbSymbolTable
 70
1
100
AcDbDimStyleTable
 71
0
  0
DIMSTYLE
105
20E
100
AcDbSymbolTableRecord
100
AcDbDimStyleTableRecord
  2
STANDARD
 70
0
  3

  4

 40
1.0
 41
3.5
 42
1.5
 43
0.38
 44
1.0
 45
0.0
 46
0.0
 47
0.01
 48
0.01
140
3.5
141
0.09
142
0.0
143
25.4
144
1.0
145
0.0
146
1.0
147
0.625
 71
1.0
 72
0.0
 73
0
 74
0
 75
0
 76
0
 77
1
 78
8
170
0
171
2
172
0
173
0
174
0
175
0
176
0
177
0
178
0
270
2
271
2
272
2
273
2
274
2
275
0
280
0
281
0
282
0
283
1
284
8
285
0
286
0
287
3
288
0
340
11
278
44
  0
ENDTAB
  0
ENDSEC
  0
SECTION
  2
BLOCKS
  0
BLOCK
  5
20
100
AcDbEntity
  8
0
100
AcDbBlockBegin
  2
*Model_Space
 70
0
 10
0.0
 20
0.0
 30
0.0
  3
*Model_Space
  1

  0
ENDBLK
  5
21
100
AcDbEntity
  8
0
100
AcDbBlockEnd
  0
BLOCK
  5
1C
100
AcDbEntity
  8
0
100
AcDbBlockBegin
  2
*Paper_Space
 70
0
 10
0.0
 20
0.0
 30
0.0
  3
*Paper_Space
  1

  0
ENDBLK
  5
1D
100
AcDbEntity
  8
0
100
AcDbBlockEnd
  0
ENDSEC
  0
SECTION
  2
ENTITIES
  0
LINE
  5
20F
100
AcDbEntity
  8
0
100
AcDbLine
 62
7
  6
CONTINUOUS
 10
0.0
 20
0.0
 11
0.0
 21
594.0
  0
LINE
  5
210
100
AcDbEntity
  8
0
100
AcDbLine
 62
7
  6
CONTINUOUS
 10
0.0
 20
0.0
 11
841.0
 21
0.0
  0
LINE
  5
211
100
AcDbEntity
  8
0
100
AcDbLine
 62
7
  6
CONTINUOUS
 10
0.0
 20
594.0
 11
841.0
 21
594.0
  0
LINE
  5
212
100
AcDbEntity
  8
0
100
AcDbLine
 62
7
  6
CONTINUOUS
 10
841.0
 20
0.0
 11
841.0
 21
594.0
  0
LINE
  5
213
100
AcDbEntity
  8
0
100
AcDbLine
 62
7
  6
CONTINUOUS
 10
168.9125006159
 20
516.8500231479
 11
162.8211695706
 21
510.7586921026
  0
LINE
  5
214
100
AcDbEntity
  8
0
100
AcDbLine
 62
7
  6
CONTINUOUS
 10
210.8017083278
 20
558.7392308598
 11
216.8930393731
 21
564.8305619051
  0
LINE
  5
215
100
AcDbEntity
  8
0
100
AcDbLine
 62
7
  6
CONTINUOUS
 10
160.5978218108
 20
507.850009474
 11
151.9854354846
 21
499.2376231479
  0
LINE
  5
216
100
AcDbEntity
  8
0
100
AcDbLine
 62
7
  6
CONTINUOUS
 10
219.8017220016
 20
567.0539096649
 11
228.4141083278
 21
575.6662959911
  0
LINE
  5
217
100
AcDbEntity
  8
0
100
AcDbLine
 62
7
  6
CONTINUOUS
 10
168.9125006159
 20
71.6252231479
 11
162.8211695706
 21
77.7165541932
  0
LINE
  5
218
100
AcDbEntity
  8
0
100
AcDbLine
 62
7
  6
CONTINUOUS
 10
210.8017083278
 20
29.736015436
 11
216.8930393731
 21
23.6446843907
  0
LINE
  5
219
100
AcDbEntity
  8
0
100
AcDbLine
 62
7
  6
CONTINUOUS
 10
160.5978218108
 20
80.6252368218
 11
151.9854354846
 21
89.2376231479
  0
LINE
  5
21A
100
AcDbEntity
  8
0
100
AcDbLine
 62
7
  6
CONTINUOUS
 10
219.8017220016
 20
21.4213366309
 11
228.4141083278
 21
12.8089503047
  0
LINE
  5
21B
100
AcDbEntity
  8
0
100
AcDbLine
 62
7
  6
CONTINUOUS
 10
217.6066661246
 20
565.905375801
 11
217.6378215293
 21
565.979095769
  0
LINE
  5
21C
100
AcDbEntity
  8
0
100
AcDbLine
 62
7
  6
CONTINUOUS
 10
161.7463556747
 20
510.0450653511
 11
161.6726357067
 21
510.0139099464
  0
LINE
  5
21D
100
AcDbEntity
  8
0
100
AcDbLine
 62
7
  6
CONTINUOUS
 10
161.7463556747
 20
78.4301809447
 11
161.6726357067
 21
78.4613363494
  0
LINE
  5
21E
100
AcDbEntity
  8
0
100
AcDbLine
 62
7
  6
CONTINUOUS
 10
217.6066661246
 20
22.5698704948
 11
217.6378215293
 21
22.4961505268
  0
LINE
  5
21F
100
AcDbEntity
  8
0
100
AcDbLine
 62
7
  6
CONTINUOUS
 10
151.9854354846
 20
499.2376231479
 11
151.9854354846
 21
89.2376231479
  0
LINE
  5
220
100
AcDbEntity
  8
0
100
AcDbLine
 62
7
  6
CONTINUOUS
 10
228.4141083278
 20
12.8089503047
 11
616.4141083278
 21
12.8089503047
  0
LINE
  5
221
100
AcDbEntity
  8
0
100
AcDbLine
 62
7
  6
CONTINUOUS
 10
236.4341083278
 20
34.210619292
 11
241.5141083278
 21
34.210619292
  0
LINE
  5
222
100
AcDbEntity
  8
0
100
AcDbLine
 62
7
  6
CONTINUOUS
 10
243.8741083278
 20
34.210619292
 11
248.9541083278
 21
34.210619292
  0
LINE
  5
223
100
AcDbEntity
  8
0
100
AcDbLine
 62
7
  6
CONTINUOUS
 10
251.3141083278
 20
34.210619292
 11
256.3941083278
 21
34.210619292
  0
LINE
  5
224
100
AcDbEntity
  8
0
100
AcDbLine
 62
7
  6
CONTINUOUS
 10
452.4341083278
 20
34.210619292
 11
457.5141083278
 21
34.210619292
  0
LINE
  5
225
100
AcDbEntity
  8
0
100
AcDbLine
 62
7
  6
CONTINUOUS
 10
459.8741083278
 20
34.210619292
 11
464.9541083278
 21
34.210619292
  0
LINE
  5
226
100
AcDbEntity
  8
0
100
AcDbLine
 62
7
  6
CONTINUOUS
 10
467.3141083278
 20
34.210619292
 11
472.3941083278
 21
34.210619292
  0
LINE
  5
227
100
AcDbEntity
  8
0
100
AcDbLine
 62
7
  6
CONTINUOUS
 10
497.4341083278
 20
34.210619292
 11
502.5141083278
 21
34.210619292
  0
LINE
  5
228
100
AcDbEntity
  8
0
100
AcDbLine
 62
7
  6
CONTINUOUS
 10
504.8741083278
 20
34.210619292
 11
509.9541083278
 21
34.210619292
  0
LINE
  5
229
100
AcDbEntity
  8
0
100
AcDbLine
 62
7
  6
CONTINUOUS
 10
512.3141083278
 20
34.210619292
 11
517.3941083278
 21
34.210619292
  0
LINE
  5
22A
100
AcDbEntity
  8
0
100
AcDbLine
 62
7
  6
CONTINUOUS
 10
517.3941083278
 20
39.290619292
 11
512.3141083278
 21
39.290619292
  0
LINE
  5
22B
100
AcDbEntity
  8
0
100
AcDbLine
 62
7
  6
CONTINUOUS
 10
509.9541083278
 20
39.290619292
 11
504.8741083278
 21
39.290619292
  0
LINE
  5
22C
100
AcDbEntity
  8
0
100
AcDbLine
 62
7
  6
CONTINUOUS
 10
502.5141083278
 20
39.290619292
 11
497.4341083278
 21
39.290619292
  0
LINE
  5
22D
100
AcDbEntity
  8
0
100
AcDbLine
 62
7
  6
CONTINUOUS
 10
472.3941083278
 20
39.290619292
 11
467.3141083278
 21
39.290619292
  0
LINE
  5
22E
100
AcDbEntity
  8
0
100
AcDbLine
 62
7
  6
CONTINUOUS
 10
464.9541083278
 20
39.290619292
 11
459.8741083278
 21
39.290619292
  0
LINE
  5
22F
100
AcDbEntity
  8
0
100
AcDbLine
 62
7
  6
CONTINUOUS
 10
457.5141083278
 20
39.290619292
 11
452.4341083278
 21
39.290619292
  0
LINE
  5
230
100
AcDbEntity
  8
0
100
AcDbLine
 62
7
  6
CONTINUOUS
 10
256.3941083278
 20
39.290619292
 11
251.3141083278
 21
39.290619292
  0
LINE
  5
231
100
AcDbEntity
  8
0
100
AcDbLine
 62
7
  6
CONTINUOUS
 10
248.9541083278
 20
39.290619292
 11
243.8741083278
 21
39.290619292
  0
LINE
  5
232
100
AcDbEntity
  8
0
100
AcDbLine
 62
7
  6
CONTINUOUS
 10
241.5141083278
 20
39.290619292
 11
236.4341083278
 21
39.290619292
  0
LINE
  5
233
100
AcDbEntity
  8
0
100
AcDbLine
 62
7
  6
CONTINUOUS
 10
228.9941083278
 20
41.650619292
 11
234.0741083278
 21
41.650619292
  0
LINE
  5
234
100
AcDbEntity
  8
0
100
AcDbLine
 62
7
  6
CONTINUOUS
 10
236.4341083278
 20
41.650619292
 11
241.5141083278
 21
41.650619292
  0
LINE
  5
235
100
AcDbEntity
  8
0
100
AcDbLine
 62
7
  6
CONTINUOUS
 10
243.8741083278
 20
41.650619292
 11
248.9541083278
 21
41.650619292
  0
LINE
  5
236
100
AcDbEntity
  8
0
100
AcDbLine
 62
7
  6
CONTINUOUS
 10
251.3141083278
 20
41.650619292
 11
256.3941083278
 21
41.650619292
  0
LINE
  5
237
100
AcDbEntity
  8
0
100
AcDbLine
 62
7
  6
CONTINUOUS
 10
258.7541083278
 20
41.650619292
 11
263.8341083278
 21
41.650619292
  0
LINE
  5
238
100
AcDbEntity
  8
0
100
AcDbLine
 62
7
  6
CONTINUOUS
 10
444.9941083278
 20
41.650619292
 11
450.0741083278
 21
41.650619292
  0
LINE
  5
239
100
AcDbEntity
  8
0
100
AcDbLine
 62
7
  6
CONTINUOUS
 10
452.4341083278
 20
41.650619292
 11
457.5141083278
 21
41.650619292
  0
LINE
  5
23A
100
AcDbEntity
  8
0
100
AcDbLine
 62
7
  6
CONTINUOUS
 10
459.8741083278
 20
41.650619292
 11
464.9541083278
 21
41.650619292
  0
LINE
  5
23B
100
AcDbEntity
  8
0
100
AcDbLine
 62
7
  6
CONTINUOUS
 10
467.3141083278
 20
41.650619292
 11
472.3941083278
 21
41.650619292
  0
LINE
  5
23C
100
AcDbEntity
  8
0
100
AcDbLine
 62
7
  6
CONTINUOUS
 10
474.7541083278
 20
41.650619292
 11
479.8341083278
 21
41.650619292
  0
LINE
  5
23D
100
AcDbEntity
  8
0
100
AcDbLine
 62
7
  6
CONTINUOUS
 10
489.9941083278
 20
41.650619292
 11
495.0741083278
 21
41.650619292
  0
LINE
  5
23E
100
AcDbEntity
  8
0
100
AcDbLine
 62
7
  6
CONTINUOUS
 10
497.4341083278
 20
41.650619292
 11
502.5141083278
 21
41.650619292
  0
LINE
  5
23F
100
AcDbEntity
  8
0
100
AcDbLine
 62
7
  6
CONTINUOUS
 10
504.8741083278
 20
41.650619292
 11
509.9541083278
 21
41.650619292
  0
LINE
  5
240
100
AcDbEntity
  8
0
100
AcDbLine
 62
7
  6
CONTINUOUS
 10
512.3141083278
 20
41.650619292
 11
517.3941083278
 21
41.650619292
  0
LINE
  5
241
100
AcDbEntity
  8
0
100
AcDbLine
 62
7
  6
CONTINUOUS
 10
519.7541083278
 20
41.650619292
 11
524.8341083278
 21
41.650619292
  0
LINE
  5
242
100
AcDbEntity
  8
0
100
AcDbLine
 62
7
  6
CONTINUOUS
 10
524.8341083278
 20
46.730619292
 11
519.7541083278
 21
46.730619292
  0
LINE
  5
243
100
AcDbEntity
  8
0
100
AcDbLine
 62
7
  6
CONTINUOUS
 10
517.3941083278
 20
46.730619292
 11
512.3141083278
 21
46.730619292
  0
LINE
  5
244
100
AcDbEntity
  8
0
100
AcDbLine
 62
7
  6
CONTINUOUS
 10
509.9541083278
 20
46.730619292
 11
504.8741083278
 21
46.730619292
  0
LINE
  5
245
100
AcDbEntity
  8
0
100
AcDbLine
 62
7
  6
CONTINUOUS
 10
502.5141083278
 20
46.730619292
 11
497.4341083278
 21
46.730619292
  0
LINE
  5
246
100
AcDbEntity
  8
0
100
AcDbLine
 62
7
  6
CONTINUOUS
 10
495.0741083278
 20
46.730619292
 11
489.9941083278
 21
46.730619292
  0
LINE
  5
247
100
AcDbEntity
  8
0
100
AcDbLine
 62
7
  6
CONTINUOUS
 10
479.8341083278
 20
46.730619292
 11
474.7541083278
 21
46.730619292
  0
LINE
  5
248
100
AcDbEntity
  8
0
100
AcDbLine
 62
7
  6
CONTINUOUS
 10
472.3941083278
 20
46.730619292
 11
467.3141083278
 21
46.730619292
  0
LINE
  5
249
100
AcDbEntity
  8
0
100
AcDbLine
 62
7
  6
CONTINUOUS
 10
464.9541083278
 20
46.730619292
 11
459.8741083278
 21
46.730619292
  0
LINE
  5
24A
100
AcDbEntity
  8
0
100
AcDbLine
 62
7
  6
CONTINUOUS
 10
457.5141083278
 20
46.730619292
 11
452.4341083278
 21
46.730619292
  0
LINE
  5
24B
100
AcDbEntity
  8
0
100
AcDbLine
 62
7
  6
CONTINUOUS
 10
450.0741083278
 20
46.730619292
 11
444.9941083278
 21
46.730619292
  0
LINE
  5
24C
100
AcDbEntity
  8
0
100
AcDbLine
 62
7
  6
CONTINUOUS
 10
263.8341083278
 20
46.730619292
 11
258.7541083278
 21
46.730619292
  0
LINE
  5
24D
100
AcDbEntity
  8
0
100
AcDbLine
 62
7
  6
CONTINUOUS
 10
256.3941083278
 20
46.730619292
 11
251.3141083278
 21
46.730619292
  0
LINE
  5
24E
100
AcDbEntity
  8
0
100
AcDbLine
 62
7
  6
CONTINUOUS
 10
248.9541083278
 20
46.730619292
 11
243.8741083278
 21
46.730619292
  0
LINE
  5
24F
100
AcDbEntity
  8
0
100
AcDbLine
 62
7
  6
CONTINUOUS
 10
241.5141083278
 20
46.730619292
 11
236.4341083278
 21
46.730619292
  0
LINE
  5
250
100
AcDbEntity
  8
0
100
AcDbLine
 62
7
  6
CONTINUOUS
 10
234.0741083278
 20
46.730619292
 11
228.9941083278
 21
46.730619292
  0
LINE
  5
251
100
AcDbEntity
  8
0
100
AcDbLine
 62
7
  6
CONTINUOUS
 10
228.9941083278
 20
49.090619292
 11
234.0741083278
 21
49.090619292
  0
LINE
  5
252
100
AcDbEntity
  8
0
100
AcDbLine
 62
7
  6
CONTINUOUS
 10
236.4341083278
 20
49.090619292
 11
241.5141083278
 21
49.090619292
  0
LINE
  5
253
100
AcDbEntity
  8
0
100
AcDbLine
 62
7
  6
CONTINUOUS
 10
243.8741083278
 20
49.090619292
 11
248.9541083278
 21
49.090619292
  0
LINE
  5
254
100
AcDbEntity
  8
0
100
AcDbLine
 62
7
  6
CONTINUOUS
 10
251.3141083278
 20
49.090619292
 11
256.3941083278
 21
49.090619292
  0
LINE
  5
255
100
AcDbEntity
  8
0
100
AcDbLine
 62
7
  6
CONTINUOUS
 10
258.7541083278
 20
49.090619292
 11
263.8341083278
 21
49.090619292
  0
LINE
  5
256
100
AcDbEntity
  8
0
100
AcDbLine
 62
7
  6
CONTINUOUS
 10
444.9941083278
 20
49.090619292
 11
450.0741083278
 21
49.090619292
  0
LINE
  5
257
100
AcDbEntity
  8
0
100
AcDbLine
 62
7
  6
CONTINUOUS
 10
452.4341083278
 20
49.090619292
 11
457.5141083278
 21
49.090619292
  0
LINE
  5
258
100
AcDbEntity
  8
0
100
AcDbLine
 62
7
  6
CONTINUOUS
 10
459.8741083278
 20
49.090619292
 11
464.9541083278
 21
49.090619292
  0
LINE
  5
259
100
AcDbEntity
  8
0
100
AcDbLine
 62
7
  6
CONTINUOUS
 10
467.3141083278
 20
49.090619292
 11
472.3941083278
 21
49.090619292
  0
LINE
  5
25A
100
AcDbEntity
  8
0
100
AcDbLine
 62
7
  6
CONTINUOUS
 10
474.7541083278
 20
49.090619292
 11
479.8341083278
 21
49.090619292
  0
LINE
  5
25B
100
AcDbEntity
  8
0
100
AcDbLine
 62
7
  6
CONTINUOUS
 10
489.9941083278
 20
49.090619292
 11
495.0741083278
 21
49.090619292
  0
LINE
  5
25C
100
AcDbEntity
  8
0
100
AcDbLine
 62
7
  6
CONTINUOUS
 10
497.4341083278
 20
49.090619292
 11
502.5141083278
 21
49.090619292
  0
LINE
  5
25D
100
AcDbEntity
  8
0
100
AcDbLine
 62
7
  6
CONTINUOUS
 10
504.8741083278
 20
49.090619292
 11
509.9541083278
 21
49.090619292
  0
LINE
  5
25E
100
AcDbEntity
  8
0
100
AcDbLine
 62
7
  6
CONTINUOUS
 10
512.3141083278
 20
49.090619292
 11
517.3941083278
 21
49.090619292
  0
LINE
  5
25F
100
AcDbEntity
  8
0
100
AcDbLine
 62
7
  6
CONTINUOUS
 10
519.7541083278
 20
49.090619292
 11
524.8341083278
 21
49.090619292
  0
LINE
  5
260
100
AcDbEntity
  8
0
100
AcDbLine
 62
7
  6
CONTINUOUS
 10
524.8341083278
 20
54.170619292
 11
519.7541083278
 21
54.170619292
  0
LINE
  5
261
100
AcDbEntity
  8
0
100
AcDbLine
 62
7
  6
CONTINUOUS
 10
517.3941083278
 20
54.170619292
 11
512.3141083278
 21
54.170619292
  0
LINE
  5
262
100
AcDbEntity
  8
0
100
AcDbLine
 62
7
  6
CONTINUOUS
 10
509.9541083278
 20
54.170619292
 11
504.8741083278
 21
54.170619292
  0
LINE
  5
263
100
AcDbEntity
  8
0
100
AcDbLine
 62
7
  6
CONTINUOUS
 10
502.5141083278
 20
54.170619292
 11
497.4341083278
 21
54.170619292
  0
LINE
  5
264
100
AcDbEntity
  8
0
100
AcDbLine
 62
7
  6
CONTINUOUS
 10
495.0741083278
 20
54.170619292
 11
489.9941083278
 21
54.170619292
  0
LINE
  5
265
100
AcDbEntity
  8
0
100
AcDbLine
 62
7
  6
CONTINUOUS
 10
479.8341083278
 20
54.170619292
 11
474.7541083278
 21
54.170619292
  0
LINE
  5
266
100
AcDbEntity
  8
0
100
AcDbLine
 62
7
  6
CONTINUOUS
 10
472.3941083278
 20
54.170619292
 11
467.3141083278
 21
54.170619292
  0
LINE
  5
267
100
AcDbEntity
  8
0
100
AcDbLine
 62
7
  6
CONTINUOUS
 10
464.9541083278
 20
54.170619292
 11
459.8741083278
 21
54.170619292
  0
LINE
  5
268
100
AcDbEntity
  8
0
100
AcDbLine
 62
7
  6
CONTINUOUS
 10
457.5141083278
 20
54.170619292
 11
452.4341083278
 21
54.170619292
  0
LINE
  5
269
100
AcDbEntity
  8
0
100
AcDbLine
 62
7
  6
CONTINUOUS
 10
450.0741083278
 20
54.170619292
 11
444.9941083278
 21
54.170619292
  0
LINE
  5
26A
100
AcDbEntity
  8
0
100
AcDbLine
 62
7
  6
CONTINUOUS
 10
263.8341083278
 20
54.170619292
 11
258.7541083278
 21
54.170619292
  0
LINE
  5
26B
100
AcDbEntity
  8
0
100
AcDbLine
 62
7
  6
CONTINUOUS
 10
256.3941083278
 20
54.170619292
 11
251.3141083278
 21
54.170619292
  0
LINE
  5
26C
100
AcDbEntity
  8
0
100
AcDbLine
 62
7
  6
CONTINUOUS
 10
248.9541083278
 20
54.170619292
 11
243.8741083278
 21
54.170619292
  0
LINE
  5
26D
100
AcDbEntity
  8
0
100
AcDbLine
 62
7
  6
CONTINUOUS
 10
241.5141083278
 20
54.170619292
 11
236.4341083278
 21
54.170619292
  0
LINE
  5
26E
100
AcDbEntity
  8
0
100
AcDbLine
 62
7
  6
CONTINUOUS
 10
234.0741083278
 20
54.170619292
 11
228.9941083278
 21
54.170619292
  0
LINE
  5
26F
100
AcDbEntity
  8
0
100
AcDbLine
 62
7
  6
CONTINUOUS
 10
228.9941083278
 20
56.530619292
 11
234.0741083278
 21
56.530619292
  0
LINE
  5
270
100
AcDbEntity
  8
0
100
AcDbLine
 62
7
  6
CONTINUOUS
 10
236.4341083278
 20
56.530619292
 11
241.5141083278
 21
56.530619292
  0
LINE
  5
271
100
AcDbEntity
  8
0
100
AcDbLine
 62
7
  6
CONTINUOUS
 10
243.8741083278
 20
56.530619292
 11
248.9541083278
 21
56.530619292
  0
LINE
  5
272
100
AcDbEntity
  8
0
100
AcDbLine
 62
7
  6
CONTINUOUS
 10
251.3141083278
 20
56.530619292
 11
256.3941083278
 21
56.530619292
  0
LINE
  5
273
100
AcDbEntity
  8
0
100
AcDbLine
 62
7
  6
CONTINUOUS
 10
258.7541083278
 20
56.530619292
 11
263.8341083278
 21
56.530619292
  0
LINE
  5
274
100
AcDbEntity
  8
0
100
AcDbLine
 62
7
  6
CONTINUOUS
 10
444.9941083278
 20
56.530619292
 11
450.0741083278
 21
56.530619292
  0
LINE
  5
275
100
AcDbEntity
  8
0
100
AcDbLine
 62
7
  6
CONTINUOUS
 10
452.4341083278
 20
56.530619292
 11
457.5141083278
 21
56.530619292
  0
LINE
  5
276
100
AcDbEntity
  8
0
100
AcDbLine
 62
7
  6
CONTINUOUS
 10
459.8741083278
 20
56.530619292
 11
464.9541083278
 21
56.530619292
  0
LINE
  5
277
100
AcDbEntity
  8
0
100
AcDbLine
 62
7
  6
CONTINUOUS
 10
467.3141083278
 20
56.530619292
 11
472.3941083278
 21
56.530619292
  0
LINE
  5
278
100
AcDbEntity
  8
0
100
AcDbLine
 62
7
  6
CONTINUOUS
 10
474.7541083278
 20
56.530619292
 11
479.8341083278
 21
56.530619292
  0
LINE
  5
279
100
AcDbEntity
  8
0
100
AcDbLine
 62
7
  6
CONTINUOUS
 10
489.9941083278
 20
56.530619292
 11
495.0741083278
 21
56.530619292
  0
LINE
  5
27A
100
AcDbEntity
  8
0
100
AcDbLine
 62
7
  6
CONTINUOUS
 10
497.4341083278
 20
56.530619292
 11
502.5141083278
 21
56.530619292
  0
LINE
  5
27B
100
AcDbEntity
  8
0
100
AcDbLine
 62
7
  6
CONTINUOUS
 10
504.8741083278
 20
56.530619292
 11
509.9541083278
 21
56.530619292
  0
LINE
  5
27C
100
AcDbEntity
  8
0
100
AcDbLine
 62
7
  6
CONTINUOUS
 10
512.3141083278
 20
56.530619292
 11
517.3941083278
 21
56.530619292
  0
LINE
  5
27D
100
AcDbEntity
  8
0
100
AcDbLine
 62
7
  6
CONTINUOUS
 10
519.7541083278
 20
56.530619292
 11
524.8341083278
 21
56.530619292
  0
LINE
  5
27E
100
AcDbEntity
  8
0
100
AcDbLine
 62
7
  6
CONTINUOUS
 10
524.8341083278
 20
61.610619292
 11
519.7541083278
 21
61.610619292
  0
LINE
  5
27F
100
AcDbEntity
  8
0
100
AcDbLine
 62
7
  6
CONTINUOUS
 10
517.3941083278
 20
61.610619292
 11
512.3141083278
 21
61.610619292
  0
LINE
  5
280
100
AcDbEntity
  8
0
100
AcDbLine
 62
7
  6
CONTINUOUS
 10
509.9541083278
 20
61.610619292
 11
504.8741083278
 21
61.610619292
  0
LINE
  5
281
100
AcDbEntity
  8
0
100
AcDbLine
 62
7
  6
CONTINUOUS
 10
502.5141083278
 20
61.610619292
 11
497.4341083278
 21
61.610619292
  0
LINE
  5
282
100
AcDbEntity
  8
0
100
AcDbLine
 62
7
  6
CONTINUOUS
 10
495.0741083278
 20
61.610619292
 11
489.9941083278
 21
61.610619292
  0
LINE
  5
283
100
AcDbEntity
  8
0
100
AcDbLine
 62
7
  6
CONTINUOUS
 10
479.8341083278
 20
61.610619292
 11
474.7541083278
 21
61.610619292
  0
LINE
  5
284
100
AcDbEntity
  8
0
100
AcDbLine
 62
7
  6
CONTINUOUS
 10
472.3941083278
 20
61.610619292
 11
467.3141083278
 21
61.610619292
  0
LINE
  5
285
100
AcDbEntity
  8
0
100
AcDbLine
 62
7
  6
CONTINUOUS
 10
464.9541083278
 20
61.610619292
 11
459.8741083278
 21
61.610619292
  0
LINE
  5
286
100
AcDbEntity
  8
0
100
AcDbLine
 62
7
  6
CONTINUOUS
 10
457.5141083278
 20
61.610619292
 11
452.4341083278
 21
61.610619292
  0
LINE
  5
287
100
AcDbEntity
  8
0
100
AcDbLine
 62
7
  6
CONTINUOUS
 10
450.0741083278
 20
61.610619292
 11
444.9941083278
 21
61.610619292
  0
LINE
  5
288
100
AcDbEntity
  8
0
100
AcDbLine
 62
7
  6
CONTINUOUS
 10
263.8341083278
 20
61.610619292
 11
258.7541083278
 21
61.610619292
  0
LINE
  5
289
100
AcDbEntity
  8
0
100
AcDbLine
 62
7
  6
CONTINUOUS
 10
256.3941083278
 20
61.610619292
 11
251.3141083278
 21
61.610619292
  0
LINE
  5
28A
100
AcDbEntity
  8
0
100
AcDbLine
 62
7
  6
CONTINUOUS
 10
248.9541083278
 20
61.610619292
 11
243.8741083278
 21
61.610619292
  0
LINE
  5
28B
100
AcDbEntity
  8
0
100
AcDbLine
 62
7
  6
CONTINUOUS
 10
241.5141083278
 20
61.610619292
 11
236.4341083278
 21
61.610619292
  0
LINE
  5
28C
100
AcDbEntity
  8
0
100
AcDbLine
 62
7
  6
CONTINUOUS
 10
234.0741083278
 20
61.610619292
 11
228.9941083278
 21
61.610619292
  0
LINE
  5
28D
100
AcDbEntity
  8
0
100
AcDbLine
 62
7
  6
CONTINUOUS
 10
210.0143083278
 20
70.137019292
 11
210.0143083278
 21
31.224219292
  0
LINE
  5
28E
100
AcDbEntity
  8
0
100
AcDbLine
 62
7
  6
CONTINUOUS
 10
210.0143083278
 20
518.3382270038
 11
210.0143083278
 21
557.2510270038
  0
LINE
  5
28F
100
AcDbEntity
  8
0
100
AcDbLine
 62
7
  6
CONTINUOUS
 10
213.4643083278
 20
556.0046270038
 11
213.4643083278
 21
550.9246270038
  0
LINE
  5
290
100
AcDbEntity
  8
0
100
AcDbLine
 62
7
  6
CONTINUOUS
 10
213.4643083278
 20
548.5636270038
 11
213.4643083278
 21
543.4836270038
  0
LINE
  5
291
100
AcDbEntity
  8
0
100
AcDbLine
 62
7
  6
CONTINUOUS
 10
213.4643083278
 20
541.1226270038
 11
213.4643083278
 21
536.0426270038
  0
LINE
  5
292
100
AcDbEntity
  8
0
100
AcDbLine
 62
7
  6
CONTINUOUS
 10
213.4643083278
 20
533.6816270038
 11
213.4643083278
 21
528.6016270038
  0
LINE
  5
293
100
AcDbEntity
  8
0
100
AcDbLine
 62
7
  6
CONTINUOUS
 10
213.4643083278
 20
526.2406270038
 11
213.4643083278
 21
521.1606270038
  0
LINE
  5
294
100
AcDbEntity
  8
0
100
AcDbLine
 62
7
  6
CONTINUOUS
 10
236.4341083278
 20
63.970619292
 11
241.5141083278
 21
63.970619292
  0
LINE
  5
295
100
AcDbEntity
  8
0
100
AcDbLine
 62
7
  6
CONTINUOUS
 10
243.8741083278
 20
63.970619292
 11
248.9541083278
 21
63.970619292
  0
LINE
  5
296
100
AcDbEntity
  8
0
100
AcDbLine
 62
7
  6
CONTINUOUS
 10
251.3141083278
 20
63.970619292
 11
256.3941083278
 21
63.970619292
  0
LINE
  5
297
100
AcDbEntity
  8
0
100
AcDbLine
 62
7
  6
CONTINUOUS
 10
452.4341083278
 20
63.970619292
 11
457.5141083278
 21
63.970619292
  0
LINE
  5
298
100
AcDbEntity
  8
0
100
AcDbLine
 62
7
  6
CONTINUOUS
 10
459.8741083278
 20
63.970619292
 11
464.9541083278
 21
63.970619292
  0
LINE
  5
299
100
AcDbEntity
  8
0
100
AcDbLine
 62
7
  6
CONTINUOUS
 10
467.3141083278
 20
63.970619292
 11
472.3941083278
 21
63.970619292
  0
LINE
  5
29A
100
AcDbEntity
  8
0
100
AcDbLine
 62
7
  6
CONTINUOUS
 10
497.4341083278
 20
63.970619292
 11
502.5141083278
 21
63.970619292
  0
LINE
  5
29B
100
AcDbEntity
  8
0
100
AcDbLine
 62
7
  6
CONTINUOUS
 10
504.8741083278
 20
63.970619292
 11
509.9541083278
 21
63.970619292
  0
LINE
  5
29C
100
AcDbEntity
  8
0
100
AcDbLine
 62
7
  6
CONTINUOUS
 10
512.3141083278
 20
63.970619292
 11
517.3941083278
 21
63.970619292
  0
LINE
  5
29D
100
AcDbEntity
  8
0
100
AcDbLine
 62
7
  6
CONTINUOUS
 10
303.5141083278
 20
68.274619292
 11
301.3141083278
 21
68.274619292
  0
LINE
  5
29E
100
AcDbEntity
  8
0
100
AcDbLine
 62
7
  6
CONTINUOUS
 10
278.5141083278
 20
68.274619292
 11
276.3141083278
 21
68.274619292
  0
LINE
  5
29F
100
AcDbEntity
  8
0
100
AcDbLine
 62
7
  6
CONTINUOUS
 10
517.3941083278
 20
69.050619292
 11
512.3141083278
 21
69.050619292
  0
LINE
  5
2A0
100
AcDbEntity
  8
0
100
AcDbLine
 62
7
  6
CONTINUOUS
 10
509.9541083278
 20
69.050619292
 11
504.8741083278
 21
69.050619292
  0
LINE
  5
2A1
100
AcDbEntity
  8
0
100
AcDbLine
 62
7
  6
CONTINUOUS
 10
502.5141083278
 20
69.050619292
 11
497.4341083278
 21
69.050619292
  0
LINE
  5
2A2
100
AcDbEntity
  8
0
100
AcDbLine
 62
7
  6
CONTINUOUS
 10
472.3941083278
 20
69.050619292
 11
467.3141083278
 21
69.050619292
  0
LINE
  5
2A3
100
AcDbEntity
  8
0
100
AcDbLine
 62
7
  6
CONTINUOUS
 10
464.9541083278
 20
69.050619292
 11
459.8741083278
 21
69.050619292
  0
LINE
  5
2A4
100
AcDbEntity
  8
0
100
AcDbLine
 62
7
  6
CONTINUOUS
 10
457.5141083278
 20
69.050619292
 11
452.4341083278
 21
69.050619292
  0
LINE
  5
2A5
100
AcDbEntity
  8
0
100
AcDbLine
 62
7
  6
CONTINUOUS
 10
256.3941083278
 20
69.050619292
 11
251.3141083278
 21
69.050619292
  0
LINE
  5
2A6
100
AcDbEntity
  8
0
100
AcDbLine
 62
7
  6
CONTINUOUS
 10
248.9541083278
 20
69.050619292
 11
243.8741083278
 21
69.050619292
  0
LINE
  5
2A7
100
AcDbEntity
  8
0
100
AcDbLine
 62
7
  6
CONTINUOUS
 10
241.5141083278
 20
69.050619292
 11
236.4341083278
 21
69.050619292
  0
LINE
  5
2A8
100
AcDbEntity
  8
0
100
AcDbLine
 62
7
  6
CONTINUOUS
 10
209.3135044718
 20
70.8378231479
 11
170.4007044718
 21
70.8378231479
  0
LINE
  5
2A9
100
AcDbEntity
  8
0
100
AcDbLine
 62
7
  6
CONTINUOUS
 10
635.5147121837
 20
70.8378231479
 11
674.4275121837
 21
70.8378231479
  0
LINE
  5
2AA
100
AcDbEntity
  8
0
100
AcDbLine
 62
7
  6
CONTINUOUS
 10
218.5443083278
 20
521.1606270038
 11
218.5443083278
 21
526.2406270038
  0
LINE
  5
2AB
100
AcDbEntity
  8
0
100
AcDbLine
 62
7
  6
CONTINUOUS
 10
218.5443083278
 20
528.6016270038
 11
218.5443083278
 21
533.6816270038
  0
LINE
  5
2AC
100
AcDbEntity
  8
0
100
AcDbLine
 62
7
  6
CONTINUOUS
 10
218.5443083278
 20
536.0426270038
 11
218.5443083278
 21
541.1226270038
  0
LINE
  5
2AD
100
AcDbEntity
  8
0
100
AcDbLine
 62
7
  6
CONTINUOUS
 10
218.5443083278
 20
543.4836270038
 11
218.5443083278
 21
548.5636270038
  0
LINE
  5
2AE
100
AcDbEntity
  8
0
100
AcDbLine
 62
7
  6
CONTINUOUS
 10
218.5443083278
 20
550.9246270038
 11
218.5443083278
 21
556.0046270038
  0
LINE
  5
2AF
100
AcDbEntity
  8
0
100
AcDbLine
 62
7
  6
CONTINUOUS
 10
220.9053083278
 20
556.0046270038
 11
220.9053083278
 21
550.9246270038
  0
LINE
  5
2B0
100
AcDbEntity
  8
0
100
AcDbLine
 62
7
  6
CONTINUOUS
 10
220.9053083278
 20
548.5636270038
 11
220.9053083278
 21
543.4836270038
  0
LINE
  5
2B1
100
AcDbEntity
  8
0
100
AcDbLine
 62
7
  6
CONTINUOUS
 10
220.9053083278
 20
541.1226270038
 11
220.9053083278
 21
536.0426270038
  0
LINE
  5
2B2
100
AcDbEntity
  8
0
100
AcDbLine
 62
7
  6
CONTINUOUS
 10
220.9053083278
 20
533.6816270038
 11
220.9053083278
 21
528.6016270038
  0
LINE
  5
2B3
100
AcDbEntity
  8
0
100
AcDbLine
 62
7
  6
CONTINUOUS
 10
220.9053083278
 20
526.2406270038
 11
220.9053083278
 21
521.1606270038
  0
LINE
  5
2B4
100
AcDbEntity
  8
0
100
AcDbLine
 62
7
  6
CONTINUOUS
 10
225.9853083278
 20
521.1606270038
 11
225.9853083278
 21
526.2406270038
  0
LINE
  5
2B5
100
AcDbEntity
  8
0
100
AcDbLine
 62
7
  6
CONTINUOUS
 10
225.9853083278
 20
528.6016270038
 11
225.9853083278
 21
533.6816270038
  0
LINE
  5
2B6
100
AcDbEntity
  8
0
100
AcDbLine
 62
7
  6
CONTINUOUS
 10
225.9853083278
 20
536.0426270038
 11
225.9853083278
 21
541.1226270038
  0
LINE
  5
2B7
100
AcDbEntity
  8
0
100
AcDbLine
 62
7
  6
CONTINUOUS
 10
225.9853083278
 20
543.4836270038
 11
225.9853083278
 21
548.5636270038
  0
LINE
  5
2B8
100
AcDbEntity
  8
0
100
AcDbLine
 62
7
  6
CONTINUOUS
 10
225.9853083278
 20
550.9246270038
 11
225.9853083278
 21
556.0046270038
  0
LINE
  5
2B9
100
AcDbEntity
  8
0
100
AcDbLine
 62
7
  6
CONTINUOUS
 10
228.3463083278
 20
556.0046270038
 11
228.3463083278
 21
550.9246270038
  0
LINE
  5
2BA
100
AcDbEntity
  8
0
100
AcDbLine
 62
7
  6
CONTINUOUS
 10
228.3463083278
 20
548.5636270038
 11
228.3463083278
 21
543.4836270038
  0
LINE
  5
2BB
100
AcDbEntity
  8
0
100
AcDbLine
 62
7
  6
CONTINUOUS
 10
228.3463083278
 20
541.1226270038
 11
228.3463083278
 21
536.0426270038
  0
LINE
  5
2BC
100
AcDbEntity
  8
0
100
AcDbLine
 62
7
  6
CONTINUOUS
 10
228.3463083278
 20
533.6816270038
 11
228.3463083278
 21
528.6016270038
  0
LINE
  5
2BD
100
AcDbEntity
  8
0
100
AcDbLine
 62
7
  6
CONTINUOUS
 10
228.3463083278
 20
526.2406270038
 11
228.3463083278
 21
521.1606270038
  0
LINE
  5
2BE
100
AcDbEntity
  8
0
100
AcDbLine
 62
7
  6
CONTINUOUS
 10
228.9941083278
 20
61.610619292
 11
228.9941083278
 21
56.530619292
  0
LINE
  5
2BF
100
AcDbEntity
  8
0
100
AcDbLine
 62
7
  6
CONTINUOUS
 10
228.9941083278
 20
54.170619292
 11
228.9941083278
 21
49.090619292
  0
LINE
  5
2C0
100
AcDbEntity
  8
0
100
AcDbLine
 62
7
  6
CONTINUOUS
 10
228.9941083278
 20
46.730619292
 11
228.9941083278
 21
41.650619292
  0
LINE
  5
2C1
100
AcDbEntity
  8
0
100
AcDbLine
 62
7
  6
CONTINUOUS
 10
233.4263083278
 20
521.1606270038
 11
233.4263083278
 21
526.2406270038
  0
LINE
  5
2C2
100
AcDbEntity
  8
0
100
AcDbLine
 62
7
  6
CONTINUOUS
 10
233.4263083278
 20
528.6016270038
 11
233.4263083278
 21
533.6816270038
  0
LINE
  5
2C3
100
AcDbEntity
  8
0
100
AcDbLine
 62
7
  6
CONTINUOUS
 10
233.4263083278
 20
536.0426270038
 11
233.4263083278
 21
541.1226270038
  0
LINE
  5
2C4
100
AcDbEntity
  8
0
100
AcDbLine
 62
7
  6
CONTINUOUS
 10
233.4263083278
 20
543.4836270038
 11
233.4263083278
 21
548.5636270038
  0
LINE
  5
2C5
100
AcDbEntity
  8
0
100
AcDbLine
 62
7
  6
CONTINUOUS
 10
233.4263083278
 20
550.9246270038
 11
233.4263083278
 21
556.0046270038
  0
LINE
  5
2C6
100
AcDbEntity
  8
0
100
AcDbLine
 62
7
  6
CONTINUOUS
 10
234.0741083278
 20
41.650619292
 11
234.0741083278
 21
46.730619292
  0
LINE
  5
2C7
100
AcDbEntity
  8
0
100
AcDbLine
 62
7
  6
CONTINUOUS
 10
234.0741083278
 20
49.090619292
 11
234.0741083278
 21
54.170619292
  0
LINE
  5
2C8
100
AcDbEntity
  8
0
100
AcDbLine
 62
7
  6
CONTINUOUS
 10
234.0741083278
 20
56.530619292
 11
234.0741083278
 21
61.610619292
  0
LINE
  5
2C9
100
AcDbEntity
  8
0
100
AcDbLine
 62
7
  6
CONTINUOUS
 10
235.7873083278
 20
556.0046270038
 11
235.7873083278
 21
550.9246270038
  0
LINE
  5
2CA
100
AcDbEntity
  8
0
100
AcDbLine
 62
7
  6
CONTINUOUS
 10
235.7873083278
 20
548.5636270038
 11
235.7873083278
 21
543.4836270038
  0
LINE
  5
2CB
100
AcDbEntity
  8
0
100
AcDbLine
 62
7
  6
CONTINUOUS
 10
235.7873083278
 20
541.1226270038
 11
235.7873083278
 21
536.0426270038
  0
LINE
  5
2CC
100
AcDbEntity
  8
0
100
AcDbLine
 62
7
  6
CONTINUOUS
 10
235.7873083278
 20
533.6816270038
 11
235.7873083278
 21
528.6016270038
  0
LINE
  5
2CD
100
AcDbEntity
  8
0
100
AcDbLine
 62
7
  6
CONTINUOUS
 10
235.7873083278
 20
526.2406270038
 11
235.7873083278
 21
521.1606270038
  0
LINE
  5
2CE
100
AcDbEntity
  8
0
100
AcDbLine
 62
7
  6
CONTINUOUS
 10
236.4341083278
 20
69.050619292
 11
236.4341083278
 21
63.970619292
  0
LINE
  5
2CF
100
AcDbEntity
  8
0
100
AcDbLine
 62
7
  6
CONTINUOUS
 10
236.4341083278
 20
61.610619292
 11
236.4341083278
 21
56.530619292
  0
LINE
  5
2D0
100
AcDbEntity
  8
0
100
AcDbLine
 62
7
  6
CONTINUOUS
 10
236.4341083278
 20
54.170619292
 11
236.4341083278
 21
49.090619292
  0
LINE
  5
2D1
100
AcDbEntity
  8
0
100
AcDbLine
 62
7
  6
CONTINUOUS
 10
236.4341083278
 20
46.730619292
 11
236.4341083278
 21
41.650619292
  0
LINE
  5
2D2
100
AcDbEntity
  8
0
100
AcDbLine
 62
7
  6
CONTINUOUS
 10
236.4341083278
 20
39.290619292
 11
236.4341083278
 21
34.210619292
  0
LINE
  5
2D3
100
AcDbEntity
  8
0
100
AcDbLine
 62
7
  6
CONTINUOUS
 10
240.8673083278
 20
521.1606270038
 11
240.8673083278
 21
526.2406270038
  0
LINE
  5
2D4
100
AcDbEntity
  8
0
100
AcDbLine
 62
7
  6
CONTINUOUS
 10
240.8673083278
 20
528.6016270038
 11
240.8673083278
 21
533.6816270038
  0
LINE
  5
2D5
100
AcDbEntity
  8
0
100
AcDbLine
 62
7
  6
CONTINUOUS
 10
240.8673083278
 20
536.0426270038
 11
240.8673083278
 21
541.1226270038
  0
LINE
  5
2D6
100
AcDbEntity
  8
0
100
AcDbLine
 62
7
  6
CONTINUOUS
 10
240.8673083278
 20
543.4836270038
 11
240.8673083278
 21
548.5636270038
  0
LINE
  5
2D7
100
AcDbEntity
  8
0
100
AcDbLine
 62
7
  6
CONTINUOUS
 10
240.8673083278
 20
550.9246270038
 11
240.8673083278
 21
556.0046270038
  0
LINE
  5
2D8
100
AcDbEntity
  8
0
100
AcDbLine
 62
7
  6
CONTINUOUS
 10
241.5141083278
 20
69.050619292
 11
241.5141083278
 21
63.970619292
  0
LINE
  5
2D9
100
AcDbEntity
  8
0
100
AcDbLine
 62
7
  6
CONTINUOUS
 10
241.5141083278
 20
34.210619292
 11
241.5141083278
 21
39.290619292
  0
LINE
  5
2DA
100
AcDbEntity
  8
0
100
AcDbLine
 62
7
  6
CONTINUOUS
 10
241.5141083278
 20
41.650619292
 11
241.5141083278
 21
46.730619292
  0
LINE
  5
2DB
100
AcDbEntity
  8
0
100
AcDbLine
 62
7
  6
CONTINUOUS
 10
241.5141083278
 20
49.090619292
 11
241.5141083278
 21
54.170619292
  0
LINE
  5
2DC
100
AcDbEntity
  8
0
100
AcDbLine
 62
7
  6
CONTINUOUS
 10
241.5141083278
 20
56.530619292
 11
241.5141083278
 21
61.610619292
  0
LINE
  5
2DD
100
AcDbEntity
  8
0
100
AcDbLine
 62
7
  6
CONTINUOUS
 10
243.2283083278
 20
556.0046270038
 11
243.2283083278
 21
550.9246270038
  0
LINE
  5
2DE
100
AcDbEntity
  8
0
100
AcDbLine
 62
7
  6
CONTINUOUS
 10
243.2283083278
 20
548.5636270038
 11
243.2283083278
 21
543.4836270038
  0
LINE
  5
2DF
100
AcDbEntity
  8
0
100
AcDbLine
 62
7
  6
CONTINUOUS
 10
243.2283083278
 20
541.1226270038
 11
243.2283083278
 21
536.0426270038
  0
LINE
  5
2E0
100
AcDbEntity
  8
0
100
AcDbLine
 62
7
  6
CONTINUOUS
 10
243.2283083278
 20
533.6816270038
 11
243.2283083278
 21
528.6016270038
  0
LINE
  5
2E1
100
AcDbEntity
  8
0
100
AcDbLine
 62
7
  6
CONTINUOUS
 10
243.2283083278
 20
526.2406270038
 11
243.2283083278
 21
521.1606270038
  0
LINE
  5
2E2
100
AcDbEntity
  8
0
100
AcDbLine
 62
7
  6
CONTINUOUS
 10
243.8741083278
 20
69.050619292
 11
243.8741083278
 21
63.970619292
  0
LINE
  5
2E3
100
AcDbEntity
  8
0
100
AcDbLine
 62
7
  6
CONTINUOUS
 10
243.8741083278
 20
61.610619292
 11
243.8741083278
 21
56.530619292
  0
LINE
  5
2E4
100
AcDbEntity
  8
0
100
AcDbLine
 62
7
  6
CONTINUOUS
 10
243.8741083278
 20
54.170619292
 11
243.8741083278
 21
49.090619292
  0
LINE
  5
2E5
100
AcDbEntity
  8
0
100
AcDbLine
 62
7
  6
CONTINUOUS
 10
243.8741083278
 20
46.730619292
 11
243.8741083278
 21
41.650619292
  0
LINE
  5
2E6
100
AcDbEntity
  8
0
100
AcDbLine
 62
7
  6
CONTINUOUS
 10
243.8741083278
 20
39.290619292
 11
243.8741083278
 21
34.210619292
  0
LINE
  5
2E7
100
AcDbEntity
  8
0
100
AcDbLine
 62
7
  6
CONTINUOUS
 10
248.3083083278
 20
521.1606270038
 11
248.3083083278
 21
526.2406270038
  0
LINE
  5
2E8
100
AcDbEntity
  8
0
100
AcDbLine
 62
7
  6
CONTINUOUS
 10
248.3083083278
 20
528.6016270038
 11
248.3083083278
 21
533.6816270038
  0
LINE
  5
2E9
100
AcDbEntity
  8
0
100
AcDbLine
 62
7
  6
CONTINUOUS
 10
248.3083083278
 20
536.0426270038
 11
248.3083083278
 21
541.1226270038
  0
LINE
  5
2EA
100
AcDbEntity
  8
0
100
AcDbLine
 62
7
  6
CONTINUOUS
 10
248.3083083278
 20
543.4836270038
 11
248.3083083278
 21
548.5636270038
  0
LINE
  5
2EB
100
AcDbEntity
  8
0
100
AcDbLine
 62
7
  6
CONTINUOUS
 10
248.3083083278
 20
550.9246270038
 11
248.3083083278
 21
556.0046270038
  0
LINE
  5
2EC
100
AcDbEntity
  8
0
100
AcDbLine
 62
7
  6
CONTINUOUS
 10
248.9541083278
 20
69.050619292
 11
248.9541083278
 21
63.970619292
  0
LINE
  5
2ED
100
AcDbEntity
  8
0
100
AcDbLine
 62
7
  6
CONTINUOUS
 10
248.9541083278
 20
34.210619292
 11
248.9541083278
 21
39.290619292
  0
LINE
  5
2EE
100
AcDbEntity
  8
0
100
AcDbLine
 62
7
  6
CONTINUOUS
 10
248.9541083278
 20
41.650619292
 11
248.9541083278
 21
46.730619292
  0
LINE
  5
2EF
100
AcDbEntity
  8
0
100
AcDbLine
 62
7
  6
CONTINUOUS
 10
248.9541083278
 20
49.090619292
 11
248.9541083278
 21
54.170619292
  0
LINE
  5
2F0
100
AcDbEntity
  8
0
100
AcDbLine
 62
7
  6
CONTINUOUS
 10
248.9541083278
 20
56.530619292
 11
248.9541083278
 21
61.610619292
  0
LINE
  5
2F1
100
AcDbEntity
  8
0
100
AcDbLine
 62
7
  6
CONTINUOUS
 10
251.3141083278
 20
69.050619292
 11
251.3141083278
 21
63.970619292
  0
LINE
  5
2F2
100
AcDbEntity
  8
0
100
AcDbLine
 62
7
  6
CONTINUOUS
 10
251.3141083278
 20
61.610619292
 11
251.3141083278
 21
56.530619292
  0
LINE
  5
2F3
100
AcDbEntity
  8
0
100
AcDbLine
 62
7
  6
CONTINUOUS
 10
251.3141083278
 20
54.170619292
 11
251.3141083278
 21
49.090619292
  0
LINE
  5
2F4
100
AcDbEntity
  8
0
100
AcDbLine
 62
7
  6
CONTINUOUS
 10
251.3141083278
 20
46.730619292
 11
251.3141083278
 21
41.650619292
  0
LINE
  5
2F5
100
AcDbEntity
  8
0
100
AcDbLine
 62
7
  6
CONTINUOUS
 10
251.3141083278
 20
39.290619292
 11
251.3141083278
 21
34.210619292
  0
LINE
  5
2F6
100
AcDbEntity
  8
0
100
AcDbLine
 62
7
  6
CONTINUOUS
 10
254.8151083278
 20
548.8206270038
 11
254.8151083278
 21
534.8206270038
  0
LINE
  5
2F7
100
AcDbEntity
  8
0
100
AcDbLine
 62
7
  6
CONTINUOUS
 10
256.3941083278
 20
69.050619292
 11
256.3941083278
 21
63.970619292
  0
LINE
  5
2F8
100
AcDbEntity
  8
0
100
AcDbLine
 62
7
  6
CONTINUOUS
 10
256.3941083278
 20
34.210619292
 11
256.3941083278
 21
39.290619292
  0
LINE
  5
2F9
100
AcDbEntity
  8
0
100
AcDbLine
 62
7
  6
CONTINUOUS
 10
256.3941083278
 20
41.650619292
 11
256.3941083278
 21
46.730619292
  0
LINE
  5
2FA
100
AcDbEntity
  8
0
100
AcDbLine
 62
7
  6
CONTINUOUS
 10
256.3941083278
 20
49.090619292
 11
256.3941083278
 21
54.170619292
  0
LINE
  5
2FB
100
AcDbEntity
  8
0
100
AcDbLine
 62
7
  6
CONTINUOUS
 10
256.3941083278
 20
56.530619292
 11
256.3941083278
 21
61.610619292
  0
LINE
  5
2FC
100
AcDbEntity
  8
0
100
AcDbLine
 62
7
  6
CONTINUOUS
 10
258.7541083278
 20
61.610619292
 11
258.7541083278
 21
56.530619292
  0
LINE
  5
2FD
100
AcDbEntity
  8
0
100
AcDbLine
 62
7
  6
CONTINUOUS
 10
258.7541083278
 20
54.170619292
 11
258.7541083278
 21
49.090619292
  0
LINE
  5
2FE
100
AcDbEntity
  8
0
100
AcDbLine
 62
7
  6
CONTINUOUS
 10
258.7541083278
 20
46.730619292
 11
258.7541083278
 21
41.650619292
  0
LINE
  5
2FF
100
AcDbEntity
  8
0
100
AcDbLine
 62
7
  6
CONTINUOUS
 10
263.8341083278
 20
41.650619292
 11
263.8341083278
 21
46.730619292
  0
LINE
  5
300
100
AcDbEntity
  8
0
100
AcDbLine
 62
7
  6
CONTINUOUS
 10
263.8341083278
 20
49.090619292
 11
263.8341083278
 21
54.170619292
  0
LINE
  5
301
100
AcDbEntity
  8
0
100
AcDbLine
 62
7
  6
CONTINUOUS
 10
263.8341083278
 20
56.530619292
 11
263.8341083278
 21
61.610619292
  0
LINE
  5
302
100
AcDbEntity
  8
0
100
AcDbLine
 62
7
  6
CONTINUOUS
 10
276.3141083278
 20
68.274619292
 11
276.3141083278
 21
67.0545791312
  0
LINE
  5
303
100
AcDbEntity
  8
0
100
AcDbLine
 62
7
  6
CONTINUOUS
 10
278.5141083278
 20
67.0545791312
 11
278.5141083278
 21
68.274619292
  0
LINE
  5
304
100
AcDbEntity
  8
0
100
AcDbLine
 62
7
  6
CONTINUOUS
 10
301.3141083278
 20
68.274619292
 11
301.3141083278
 21
67.0545791312
  0
LINE
  5
305
100
AcDbEntity
  8
0
100
AcDbLine
 62
7
  6
CONTINUOUS
 10
303.5141083278
 20
67.0545791312
 11
303.5141083278
 21
68.274619292
  0
LINE
  5
306
100
AcDbEntity
  8
0
100
AcDbLine
 62
7
  6
CONTINUOUS
 10
339.3451083278
 20
534.8206270038
 11
339.3451083278
 21
548.8206270038
  0
LINE
  5
307
100
AcDbEntity
  8
AXES
100
AcDbLine
 62
7
  6
CONTINUOUS
 10
210.0143083278
 20
70.137019292
 11
210.8017083278
 21
71.6252231479
  0
LINE
  5
308
100
AcDbEntity
  8
AXES
100
AcDbLine
 62
7
  6
CONTINUOUS
 10
635.5147121837
 20
517.6374231479
 11
634.0265083278
 21
516.8500231479
  0
LINE
  5
309
100
AcDbEntity
  8
AXES
100
AcDbLine
 62
7
  6
CONTINUOUS
 10
635.5147121837
 20
70.8378231479
 11
634.0265083278
 21
71.6252231479
  0
LINE
  5
30A
100
AcDbEntity
  8
AXES
100
AcDbLine
 62
7
  6
CONTINUOUS
 10
210.0143083278
 20
518.3382270038
 11
210.8017083278
 21
516.8500231479
  0
LINE
  5
30B
100
AcDbEntity
  8
0
100
AcDbLine
 62
7
  6
CONTINUOUS
 10
348.2899783278
 20
548.8206270038
 11
348.2899783278
 21
534.8206270038
  0
LINE
  5
30C
100
AcDbEntity
  8
0
100
AcDbLine
 62
7
  6
CONTINUOUS
 10
432.8199783278
 20
534.8206270038
 11
432.8199783278
 21
548.8206270038
  0
LINE
  5
30D
100
AcDbEntity
  8
0
100
AcDbLine
 62
7
  6
CONTINUOUS
 10
441.0229083278
 20
538.5499570038
 11
441.0229083278
 21
524.0499570038
  0
LINE
  5
30E
100
AcDbEntity
  8
0
100
AcDbLine
 62
7
  6
CONTINUOUS
 10
444.9941083278
 20
61.610619292
 11
444.9941083278
 21
56.530619292
  0
LINE
  5
30F
100
AcDbEntity
  8
0
100
AcDbLine
 62
7
  6
CONTINUOUS
 10
444.9941083278
 20
54.170619292
 11
444.9941083278
 21
49.090619292
  0
LINE
  5
310
100
AcDbEntity
  8
0
100
AcDbLine
 62
7
  6
CONTINUOUS
 10
444.9941083278
 20
46.730619292
 11
444.9941083278
 21
41.650619292
  0
LINE
  5
311
100
AcDbEntity
  8
0
100
AcDbLine
 62
7
  6
CONTINUOUS
 10
450.0741083278
 20
41.650619292
 11
450.0741083278
 21
46.730619292
  0
LINE
  5
312
100
AcDbEntity
  8
0
100
AcDbLine
 62
7
  6
CONTINUOUS
 10
450.0741083278
 20
49.090619292
 11
450.0741083278
 21
54.170619292
  0
LINE
  5
313
100
AcDbEntity
  8
0
100
AcDbLine
 62
7
  6
CONTINUOUS
 10
450.0741083278
 20
56.530619292
 11
450.0741083278
 21
61.610619292
  0
LINE
  5
314
100
AcDbEntity
  8
0
100
AcDbLine
 62
7
  6
CONTINUOUS
 10
452.4341083278
 20
69.050619292
 11
452.4341083278
 21
63.970619292
  0
LINE
  5
315
100
AcDbEntity
  8
0
100
AcDbLine
 62
7
  6
CONTINUOUS
 10
452.4341083278
 20
61.610619292
 11
452.4341083278
 21
56.530619292
  0
LINE
  5
316
100
AcDbEntity
  8
0
100
AcDbLine
 62
7
  6
CONTINUOUS
 10
452.4341083278
 20
54.170619292
 11
452.4341083278
 21
49.090619292
  0
LINE
  5
317
100
AcDbEntity
  8
0
100
AcDbLine
 62
7
  6
CONTINUOUS
 10
452.4341083278
 20
46.730619292
 11
452.4341083278
 21
41.650619292
  0
LINE
  5
318
100
AcDbEntity
  8
0
100
AcDbLine
 62
7
  6
CONTINUOUS
 10
452.4341083278
 20
39.290619292
 11
452.4341083278
 21
34.210619292
  0
LINE
  5
319
100
AcDbEntity
  8
0
100
AcDbLine
 62
7
  6
CONTINUOUS
 10
457.5141083278
 20
69.050619292
 11
457.5141083278
 21
63.970619292
  0
LINE
  5
31A
100
AcDbEntity
  8
0
100
AcDbLine
 62
7
  6
CONTINUOUS
 10
457.5141083278
 20
34.210619292
 11
457.5141083278
 21
39.290619292
  0
LINE
  5
31B
100
AcDbEntity
  8
0
100
AcDbLine
 62
7
  6
CONTINUOUS
 10
457.5141083278
 20
41.650619292
 11
457.5141083278
 21
46.730619292
  0
LINE
  5
31C
100
AcDbEntity
  8
0
100
AcDbLine
 62
7
  6
CONTINUOUS
 10
457.5141083278
 20
49.090619292
 11
457.5141083278
 21
54.170619292
  0
LINE
  5
31D
100
AcDbEntity
  8
0
100
AcDbLine
 62
7
  6
CONTINUOUS
 10
457.5141083278
 20
56.530619292
 11
457.5141083278
 21
61.610619292
  0
LINE
  5
31E
100
AcDbEntity
  8
0
100
AcDbLine
 62
7
  6
CONTINUOUS
 10
457.9029083278
 20
524.0499570038
 11
457.9029083278
 21
538.5499570038
  0
LINE
  5
31F
100
AcDbEntity
  8
0
100
AcDbLine
 62
7
  6
CONTINUOUS
 10
459.8741083278
 20
69.050619292
 11
459.8741083278
 21
63.970619292
  0
LINE
  5
320
100
AcDbEntity
  8
0
100
AcDbLine
 62
7
  6
CONTINUOUS
 10
459.8741083278
 20
61.610619292
 11
459.8741083278
 21
56.530619292
  0
LINE
  5
321
100
AcDbEntity
  8
0
100
AcDbLine
 62
7
  6
CONTINUOUS
 10
459.8741083278
 20
54.170619292
 11
459.8741083278
 21
49.090619292
  0
LINE
  5
322
100
AcDbEntity
  8
0
100
AcDbLine
 62
7
  6
CONTINUOUS
 10
459.8741083278
 20
46.730619292
 11
459.8741083278
 21
41.650619292
  0
LINE
  5
323
100
AcDbEntity
  8
0
100
AcDbLine
 62
7
  6
CONTINUOUS
 10
459.8741083278
 20
39.290619292
 11
459.8741083278
 21
34.210619292
  0
LINE
  5
324
100
AcDbEntity
  8
0
100
AcDbLine
 62
7
  6
CONTINUOUS
 10
464.0911083278
 20
538.5499570038
 11
464.0911083278
 21
524.0499570038
  0
LINE
  5
325
100
AcDbEntity
  8
0
100
AcDbLine
 62
7
  6
CONTINUOUS
 10
464.9541083278
 20
69.050619292
 11
464.9541083278
 21
63.970619292
  0
LINE
  5
326
100
AcDbEntity
  8
0
100
AcDbLine
 62
7
  6
CONTINUOUS
 10
464.9541083278
 20
34.210619292
 11
464.9541083278
 21
39.290619292
  0
LINE
  5
327
100
AcDbEntity
  8
0
100
AcDbLine
 62
7
  6
CONTINUOUS
 10
464.9541083278
 20
41.650619292
 11
464.9541083278
 21
46.730619292
  0
LINE
  5
328
100
AcDbEntity
  8
0
100
AcDbLine
 62
7
  6
CONTINUOUS
 10
464.9541083278
 20
49.090619292
 11
464.9541083278
 21
54.170619292
  0
LINE
  5
329
100
AcDbEntity
  8
0
100
AcDbLine
 62
7
  6
CONTINUOUS
 10
464.9541083278
 20
56.530619292
 11
464.9541083278
 21
61.610619292
  0
LINE
  5
32A
100
AcDbEntity
  8
0
100
AcDbLine
 62
7
  6
CONTINUOUS
 10
467.3141083278
 20
69.050619292
 11
467.3141083278
 21
63.970619292
  0
LINE
  5
32B
100
AcDbEntity
  8
0
100
AcDbLine
 62
7
  6
CONTINUOUS
 10
467.3141083278
 20
61.610619292
 11
467.3141083278
 21
56.530619292
  0
LINE
  5
32C
100
AcDbEntity
  8
0
100
AcDbLine
 62
7
  6
CONTINUOUS
 10
467.3141083278
 20
54.170619292
 11
467.3141083278
 21
49.090619292
  0
LINE
  5
32D
100
AcDbEntity
  8
0
100
AcDbLine
 62
7
  6
CONTINUOUS
 10
467.3141083278
 20
46.730619292
 11
467.3141083278
 21
41.650619292
  0
LINE
  5
32E
100
AcDbEntity
  8
0
100
AcDbLine
 62
7
  6
CONTINUOUS
 10
467.3141083278
 20
39.290619292
 11
467.3141083278
 21
34.210619292
  0
LINE
  5
32F
100
AcDbEntity
  8
0
100
AcDbLine
 62
7
  6
CONTINUOUS
 10
472.3941083278
 20
69.050619292
 11
472.3941083278
 21
63.970619292
  0
LINE
  5
330
100
AcDbEntity
  8
0
100
AcDbLine
 62
7
  6
CONTINUOUS
 10
472.3941083278
 20
34.210619292
 11
472.3941083278
 21
39.290619292
  0
LINE
  5
331
100
AcDbEntity
  8
0
100
AcDbLine
 62
7
  6
CONTINUOUS
 10
472.3941083278
 20
41.650619292
 11
472.3941083278
 21
46.730619292
  0
LINE
  5
332
100
AcDbEntity
  8
0
100
AcDbLine
 62
7
  6
CONTINUOUS
 10
472.3941083278
 20
49.090619292
 11
472.3941083278
 21
54.170619292
  0
LINE
  5
333
100
AcDbEntity
  8
0
100
AcDbLine
 62
7
  6
CONTINUOUS
 10
472.3941083278
 20
56.530619292
 11
472.3941083278
 21
61.610619292
  0
LINE
  5
334
100
AcDbEntity
  8
0
100
AcDbLine
 62
7
  6
CONTINUOUS
 10
474.7541083278
 20
61.610619292
 11
474.7541083278
 21
56.530619292
  0
LINE
  5
335
100
AcDbEntity
  8
0
100
AcDbLine
 62
7
  6
CONTINUOUS
 10
474.7541083278
 20
54.170619292
 11
474.7541083278
 21
49.090619292
  0
LINE
  5
336
100
AcDbEntity
  8
0
100
AcDbLine
 62
7
  6
CONTINUOUS
 10
474.7541083278
 20
46.730619292
 11
474.7541083278
 21
41.650619292
  0
LINE
  5
337
100
AcDbEntity
  8
0
100
AcDbLine
 62
7
  6
CONTINUOUS
 10
479.8341083278
 20
41.650619292
 11
479.8341083278
 21
46.730619292
  0
LINE
  5
338
100
AcDbEntity
  8
0
100
AcDbLine
 62
7
  6
CONTINUOUS
 10
479.8341083278
 20
49.090619292
 11
479.8341083278
 21
54.170619292
  0
LINE
  5
339
100
AcDbEntity
  8
0
100
AcDbLine
 62
7
  6
CONTINUOUS
 10
479.8341083278
 20
56.530619292
 11
479.8341083278
 21
61.610619292
  0
LINE
  5
33A
100
AcDbEntity
  8
0
100
AcDbLine
 62
7
  6
CONTINUOUS
 10
480.9711083278
 20
524.0499570038
 11
480.9711083278
 21
538.5499570038
  0
LINE
  5
33B
100
AcDbEntity
  8
0
100
AcDbLine
 62
7
  6
CONTINUOUS
 10
485.5115083278
 20
539.2499670038
 11
485.5115083278
 21
525.0499670038
  0
LINE
  5
33C
100
AcDbEntity
  8
0
100
AcDbLine
 62
7
  6
CONTINUOUS
 10
489.9941083278
 20
61.610619292
 11
489.9941083278
 21
56.530619292
  0
LINE
  5
33D
100
AcDbEntity
  8
0
100
AcDbLine
 62
7
  6
CONTINUOUS
 10
489.9941083278
 20
54.170619292
 11
489.9941083278
 21
49.090619292
  0
LINE
  5
33E
100
AcDbEntity
  8
0
100
AcDbLine
 62
7
  6
CONTINUOUS
 10
489.9941083278
 20
46.730619292
 11
489.9941083278
 21
41.650619292
  0
LINE
  5
33F
100
AcDbEntity
  8
0
100
AcDbLine
 62
7
  6
CONTINUOUS
 10
492.1115083278
 20
525.0499670038
 11
492.1115083278
 21
539.2499670038
  0
LINE
  5
340
100
AcDbEntity
  8
0
100
AcDbLine
 62
7
  6
CONTINUOUS
 10
495.0741083278
 20
41.650619292
 11
495.0741083278
 21
46.730619292
  0
LINE
  5
341
100
AcDbEntity
  8
0
100
AcDbLine
 62
7
  6
CONTINUOUS
 10
495.0741083278
 20
49.090619292
 11
495.0741083278
 21
54.170619292
  0
LINE
  5
342
100
AcDbEntity
  8
0
100
AcDbLine
 62
7
  6
CONTINUOUS
 10
495.0741083278
 20
56.530619292
 11
495.0741083278
 21
61.610619292
  0
LINE
  5
343
100
AcDbEntity
  8
0
100
AcDbLine
 62
7
  6
CONTINUOUS
 10
496.4596683278
 20
535.6124670038
 11
496.4596683278
 21
524.5124670038
  0
LINE
  5
344
100
AcDbEntity
  8
0
100
AcDbLine
 62
7
  6
CONTINUOUS
 10
497.4341083278
 20
69.050619292
 11
497.4341083278
 21
63.970619292
  0
LINE
  5
345
100
AcDbEntity
  8
0
100
AcDbLine
 62
7
  6
CONTINUOUS
 10
497.4341083278
 20
61.610619292
 11
497.4341083278
 21
56.530619292
  0
LINE
  5
346
100
AcDbEntity
  8
0
100
AcDbLine
 62
7
  6
CONTINUOUS
 10
497.4341083278
 20
54.170619292
 11
497.4341083278
 21
49.090619292
  0
LINE
  5
347
100
AcDbEntity
  8
0
100
AcDbLine
 62
7
  6
CONTINUOUS
 10
497.4341083278
 20
46.730619292
 11
497.4341083278
 21
41.650619292
  0
LINE
  5
348
100
AcDbEntity
  8
0
100
AcDbLine
 62
7
  6
CONTINUOUS
 10
497.4341083278
 20
39.290619292
 11
497.4341083278
 21
34.210619292
  0
LINE
  5
349
100
AcDbEntity
  8
0
100
AcDbLine
 62
7
  6
CONTINUOUS
 10
502.5141083278
 20
69.050619292
 11
502.5141083278
 21
63.970619292
  0
LINE
  5
34A
100
AcDbEntity
  8
0
100
AcDbLine
 62
7
  6
CONTINUOUS
 10
502.5141083278
 20
34.210619292
 11
502.5141083278
 21
39.290619292
  0
LINE
  5
34B
100
AcDbEntity
  8
0
100
AcDbLine
 62
7
  6
CONTINUOUS
 10
502.5141083278
 20
41.650619292
 11
502.5141083278
 21
46.730619292
  0
LINE
  5
34C
100
AcDbEntity
  8
0
100
AcDbLine
 62
7
  6
CONTINUOUS
 10
502.5141083278
 20
49.090619292
 11
502.5141083278
 21
54.170619292
  0
LINE
  5
34D
100
AcDbEntity
  8
0
100
AcDbLine
 62
7
  6
CONTINUOUS
 10
502.5141083278
 20
56.530619292
 11
502.5141083278
 21
61.610619292
  0
LINE
  5
34E
100
AcDbEntity
  8
0
100
AcDbLine
 62
7
  6
CONTINUOUS
 10
504.8741083278
 20
69.050619292
 11
504.8741083278
 21
63.970619292
  0
LINE
  5
34F
100
AcDbEntity
  8
0
100
AcDbLine
 62
7
  6
CONTINUOUS
 10
504.8741083278
 20
61.610619292
 11
504.8741083278
 21
56.530619292
  0
LINE
  5
350
100
AcDbEntity
  8
0
100
AcDbLine
 62
7
  6
CONTINUOUS
 10
504.8741083278
 20
54.170619292
 11
504.8741083278
 21
49.090619292
  0
LINE
  5
351
100
AcDbEntity
  8
0
100
AcDbLine
 62
7
  6
CONTINUOUS
 10
504.8741083278
 20
46.730619292
 11
504.8741083278
 21
41.650619292
  0
LINE
  5
352
100
AcDbEntity
  8
0
100
AcDbLine
 62
7
  6
CONTINUOUS
 10
504.8741083278
 20
39.290619292
 11
504.8741083278
 21
34.210619292
  0
LINE
  5
353
100
AcDbEntity
  8
0
100
AcDbLine
 62
7
  6
CONTINUOUS
 10
508.7096683278
 20
524.5124670038
 11
508.7096683278
 21
535.6124670038
  0
LINE
  5
354
100
AcDbEntity
  8
0
100
AcDbLine
 62
7
  6
CONTINUOUS
 10
509.9541083278
 20
69.050619292
 11
509.9541083278
 21
63.970619292
  0
LINE
  5
355
100
AcDbEntity
  8
0
100
AcDbLine
 62
7
  6
CONTINUOUS
 10
509.9541083278
 20
34.210619292
 11
509.9541083278
 21
39.290619292
  0
LINE
  5
356
100
AcDbEntity
  8
0
100
AcDbLine
 62
7
  6
CONTINUOUS
 10
509.9541083278
 20
41.650619292
 11
509.9541083278
 21
46.730619292
  0
LINE
  5
357
100
AcDbEntity
  8
0
100
AcDbLine
 62
7
  6
CONTINUOUS
 10
509.9541083278
 20
49.090619292
 11
509.9541083278
 21
54.170619292
  0
LINE
  5
358
100
AcDbEntity
  8
0
100
AcDbLine
 62
7
  6
CONTINUOUS
 10
509.9541083278
 20
56.530619292
 11
509.9541083278
 21
61.610619292
  0
LINE
  5
359
100
AcDbEntity
  8
0
100
AcDbLine
 62
7
  6
CONTINUOUS
 10
512.3141083278
 20
69.050619292
 11
512.3141083278
 21
63.970619292
  0
LINE
  5
35A
100
AcDbEntity
  8
0
100
AcDbLine
 62
7
  6
CONTINUOUS
 10
512.3141083278
 20
61.610619292
 11
512.3141083278
 21
56.530619292
  0
LINE
  5
35B
100
AcDbEntity
  8
0
100
AcDbLine
 62
7
  6
CONTINUOUS
 10
512.3141083278
 20
54.170619292
 11
512.3141083278
 21
49.090619292
  0
LINE
  5
35C
100
AcDbEntity
  8
0
100
AcDbLine
 62
7
  6
CONTINUOUS
 10
512.3141083278
 20
46.730619292
 11
512.3141083278
 21
41.650619292
  0
LINE
  5
35D
100
AcDbEntity
  8
0
100
AcDbLine
 62
7
  6
CONTINUOUS
 10
512.3141083278
 20
39.290619292
 11
512.3141083278
 21
34.210619292
  0
LINE
  5
35E
100
AcDbEntity
  8
0
100
AcDbLine
 62
7
  6
CONTINUOUS
 10
517.3941083278
 20
69.050619292
 11
517.3941083278
 21
63.970619292
  0
LINE
  5
35F
100
AcDbEntity
  8
0
100
AcDbLine
 62
7
  6
CONTINUOUS
 10
517.3941083278
 20
34.210619292
 11
517.3941083278
 21
39.290619292
  0
LINE
  5
360
100
AcDbEntity
  8
0
100
AcDbLine
 62
7
  6
CONTINUOUS
 10
517.3941083278
 20
41.650619292
 11
517.3941083278
 21
46.730619292
  0
LINE
  5
361
100
AcDbEntity
  8
0
100
AcDbLine
 62
7
  6
CONTINUOUS
 10
517.3941083278
 20
49.090619292
 11
517.3941083278
 21
54.170619292
  0
LINE
  5
362
100
AcDbEntity
  8
0
100
AcDbLine
 62
7
  6
CONTINUOUS
 10
517.3941083278
 20
56.530619292
 11
517.3941083278
 21
61.610619292
  0
LINE
  5
363
100
AcDbEntity
  8
0
100
AcDbLine
 62
7
  6
CONTINUOUS
 10
519.7541083278
 20
61.610619292
 11
519.7541083278
 21
56.530619292
  0
LINE
  5
364
100
AcDbEntity
  8
0
100
AcDbLine
 62
7
  6
CONTINUOUS
 10
519.7541083278
 20
54.170619292
 11
519.7541083278
 21
49.090619292
  0
LINE
  5
365
100
AcDbEntity
  8
0
100
AcDbLine
 62
7
  6
CONTINUOUS
 10
519.7541083278
 20
46.730619292
 11
519.7541083278
 21
41.650619292
  0
LINE
  5
366
100
AcDbEntity
  8
0
100
AcDbLine
 62
7
  6
CONTINUOUS
 10
524.8341083278
 20
41.650619292
 11
524.8341083278
 21
46.730619292
  0
LINE
  5
367
100
AcDbEntity
  8
0
100
AcDbLine
 62
7
  6
CONTINUOUS
 10
524.8341083278
 20
49.090619292
 11
524.8341083278
 21
54.170619292
  0
LINE
  5
368
100
AcDbEntity
  8
0
100
AcDbLine
 62
7
  6
CONTINUOUS
 10
524.8341083278
 20
56.530619292
 11
524.8341083278
 21
61.610619292
  0
LINE
  5
369
100
AcDbEntity
  8
AXES
100
AcDbLine
 62
7
  6
CONTINUOUS
 10
634.8139083278
 20
518.3382270038
 11
634.0265083278
 21
516.8500231479
  0
LINE
  5
36A
100
AcDbEntity
  8
AXES
100
AcDbLine
 62
7
  6
CONTINUOUS
 10
209.3135044718
 20
70.8378231479
 11
210.8017083278
 21
71.6252231479
  0
LINE
  5
36B
100
AcDbEntity
  8
AXES
100
AcDbLine
 62
7
  6
CONTINUOUS
 10
209.3135044718
 20
517.6374231479
 11
210.8017083278
 21
516.8500231479
  0
LINE
  5
36C
100
AcDbEntity
  8
AXES
100
AcDbLine
 62
7
  6
CONTINUOUS
 10
634.8139083278
 20
70.137019292
 11
634.0265083278
 21
71.6252231479
  0
LINE
  5
36D
100
AcDbEntity
  8
AXES
100
AcDbLine
 62
7
  6
CONTINUOUS
 10
596.3641083278
 20
545.6946270038
 11
596.3641083278
 21
529.8946270038
  0
LINE
  5
36E
100
AcDbEntity
  8
AXES
100
AcDbLine
 62
7
  6
CONTINUOUS
 10
624.6641083278
 20
529.8946270038
 11
624.6641083278
 21
545.6946270038
  0
LINE
  5
36F
100
AcDbEntity
  8
0
100
AcDbLine
 62
7
  6
CONTINUOUS
 10
634.8139083278
 20
70.137019292
 11
634.8139083278
 21
31.224219292
  0
LINE
  5
370
100
AcDbEntity
  8
0
100
AcDbLine
 62
7
  6
CONTINUOUS
 10
634.8139083278
 20
518.3382270038
 11
634.8139083278
 21
557.2510270038
  0
LINE
  5
371
100
AcDbEntity
  8
0
100
AcDbLine
 62
7
  6
CONTINUOUS
 10
209.3135044718
 20
517.6374231479
 11
170.4007044718
 21
517.6374231479
  0
LINE
  5
372
100
AcDbEntity
  8
0
100
AcDbLine
 62
7
  6
CONTINUOUS
 10
635.5147121837
 20
517.6374231479
 11
674.4275121837
 21
517.6374231479
  0
LINE
  5
373
100
AcDbEntity
  8
0
100
AcDbLine
 62
7
  6
CONTINUOUS
 10
213.4643083278
 20
521.1606270038
 11
218.5443083278
 21
521.1606270038
  0
LINE
  5
374
100
AcDbEntity
  8
0
100
AcDbLine
 62
7
  6
CONTINUOUS
 10
220.9053083278
 20
521.1606270038
 11
225.9853083278
 21
521.1606270038
  0
LINE
  5
375
100
AcDbEntity
  8
0
100
AcDbLine
 62
7
  6
CONTINUOUS
 10
228.3463083278
 20
521.1606270038
 11
233.4263083278
 21
521.1606270038
  0
LINE
  5
376
100
AcDbEntity
  8
0
100
AcDbLine
 62
7
  6
CONTINUOUS
 10
235.7873083278
 20
521.1606270038
 11
240.8673083278
 21
521.1606270038
  0
LINE
  5
377
100
AcDbEntity
  8
0
100
AcDbLine
 62
7
  6
CONTINUOUS
 10
243.2283083278
 20
521.1606270038
 11
248.3083083278
 21
521.1606270038
  0
LINE
  5
378
100
AcDbEntity
  8
0
100
AcDbLine
 62
7
  6
CONTINUOUS
 10
441.0229083278
 20
524.0499570038
 11
457.9029083278
 21
524.0499570038
  0
LINE
  5
379
100
AcDbEntity
  8
0
100
AcDbLine
 62
7
  6
CONTINUOUS
 10
464.0911083278
 20
524.0499570038
 11
480.9711083278
 21
524.0499570038
  0
LINE
  5
37A
100
AcDbEntity
  8
0
100
AcDbLine
 62
7
  6
CONTINUOUS
 10
496.4596683278
 20
524.5124670038
 11
508.7096683278
 21
524.5124670038
  0
LINE
  5
37B
100
AcDbEntity
  8
0
100
AcDbLine
 62
7
  6
CONTINUOUS
 10
485.5115083278
 20
525.0499670038
 11
492.1115083278
 21
525.0499670038
  0
LINE
  5
37C
100
AcDbEntity
  8
0
100
AcDbLine
 62
7
  6
CONTINUOUS
 10
248.3083083278
 20
526.2406270038
 11
243.2283083278
 21
526.2406270038
  0
LINE
  5
37D
100
AcDbEntity
  8
0
100
AcDbLine
 62
7
  6
CONTINUOUS
 10
240.8673083278
 20
526.2406270038
 11
235.7873083278
 21
526.2406270038
  0
LINE
  5
37E
100
AcDbEntity
  8
0
100
AcDbLine
 62
7
  6
CONTINUOUS
 10
233.4263083278
 20
526.2406270038
 11
228.3463083278
 21
526.2406270038
  0
LINE
  5
37F
100
AcDbEntity
  8
0
100
AcDbLine
 62
7
  6
CONTINUOUS
 10
225.9853083278
 20
526.2406270038
 11
220.9053083278
 21
526.2406270038
  0
LINE
  5
380
100
AcDbEntity
  8
0
100
AcDbLine
 62
7
  6
CONTINUOUS
 10
218.5443083278
 20
526.2406270038
 11
213.4643083278
 21
526.2406270038
  0
LINE
  5
381
100
AcDbEntity
  8
AXES
100
AcDbLine
 62
7
  6
CONTINUOUS
 10
598.8641083278
 20
527.3946270038
 11
622.1641083278
 21
527.3946270038
  0
LINE
  5
382
100
AcDbEntity
  8
0
100
AcDbLine
 62
7
  6
CONTINUOUS
 10
213.4643083278
 20
528.6016270038
 11
218.5443083278
 21
528.6016270038
  0
LINE
  5
383
100
AcDbEntity
  8
0
100
AcDbLine
 62
7
  6
CONTINUOUS
 10
220.9053083278
 20
528.6016270038
 11
225.9853083278
 21
528.6016270038
  0
LINE
  5
384
100
AcDbEntity
  8
0
100
AcDbLine
 62
7
  6
CONTINUOUS
 10
228.3463083278
 20
528.6016270038
 11
233.4263083278
 21
528.6016270038
  0
LINE
  5
385
100
AcDbEntity
  8
0
100
AcDbLine
 62
7
  6
CONTINUOUS
 10
235.7873083278
 20
528.6016270038
 11
240.8673083278
 21
528.6016270038
  0
LINE
  5
386
100
AcDbEntity
  8
0
100
AcDbLine
 62
7
  6
CONTINUOUS
 10
243.2283083278
 20
528.6016270038
 11
248.3083083278
 21
528.6016270038
  0
LINE
  5
387
100
AcDbEntity
  8
0
100
AcDbLine
 62
7
  6
CONTINUOUS
 10
248.3083083278
 20
533.6816270038
 11
243.2283083278
 21
533.6816270038
  0
LINE
  5
388
100
AcDbEntity
  8
0
100
AcDbLine
 62
7
  6
CONTINUOUS
 10
240.8673083278
 20
533.6816270038
 11
235.7873083278
 21
533.6816270038
  0
LINE
  5
389
100
AcDbEntity
  8
0
100
AcDbLine
 62
7
  6
CONTINUOUS
 10
233.4263083278
 20
533.6816270038
 11
228.3463083278
 21
533.6816270038
  0
LINE
  5
38A
100
AcDbEntity
  8
0
100
AcDbLine
 62
7
  6
CONTINUOUS
 10
225.9853083278
 20
533.6816270038
 11
220.9053083278
 21
533.6816270038
  0
LINE
  5
38B
100
AcDbEntity
  8
0
100
AcDbLine
 62
7
  6
CONTINUOUS
 10
218.5443083278
 20
533.6816270038
 11
213.4643083278
 21
533.6816270038
  0
LINE
  5
38C
100
AcDbEntity
  8
0
100
AcDbLine
 62
7
  6
CONTINUOUS
 10
254.8151083278
 20
534.8206270038
 11
339.3451083278
 21
534.8206270038
  0
LINE
  5
38D
100
AcDbEntity
  8
0
100
AcDbLine
 62
7
  6
CONTINUOUS
 10
348.2899783278
 20
534.8206270038
 11
432.8199783278
 21
534.8206270038
  0
LINE
  5
38E
100
AcDbEntity
  8
0
100
AcDbLine
 62
7
  6
CONTINUOUS
 10
508.7096683278
 20
535.6124670038
 11
496.4596683278
 21
535.6124670038
  0
LINE
  5
38F
100
AcDbEntity
  8
0
100
AcDbLine
 62
7
  6
CONTINUOUS
 10
213.4643083278
 20
536.0426270038
 11
218.5443083278
 21
536.0426270038
  0
LINE
  5
390
100
AcDbEntity
  8
0
100
AcDbLine
 62
7
  6
CONTINUOUS
 10
220.9053083278
 20
536.0426270038
 11
225.9853083278
 21
536.0426270038
  0
LINE
  5
391
100
AcDbEntity
  8
0
100
AcDbLine
 62
7
  6
CONTINUOUS
 10
228.3463083278
 20
536.0426270038
 11
233.4263083278
 21
536.0426270038
  0
LINE
  5
392
100
AcDbEntity
  8
0
100
AcDbLine
 62
7
  6
CONTINUOUS
 10
235.7873083278
 20
536.0426270038
 11
240.8673083278
 21
536.0426270038
  0
LINE
  5
393
100
AcDbEntity
  8
0
100
AcDbLine
 62
7
  6
CONTINUOUS
 10
243.2283083278
 20
536.0426270038
 11
248.3083083278
 21
536.0426270038
  0
LINE
  5
394
100
AcDbEntity
  8
0
100
AcDbLine
 62
7
  6
CONTINUOUS
 10
480.9711083278
 20
538.5499570038
 11
464.0911083278
 21
538.5499570038
  0
LINE
  5
395
100
AcDbEntity
  8
0
100
AcDbLine
 62
7
  6
CONTINUOUS
 10
457.9029083278
 20
538.5499570038
 11
441.0229083278
 21
538.5499570038
  0
LINE
  5
396
100
AcDbEntity
  8
0
100
AcDbLine
 62
7
  6
CONTINUOUS
 10
492.1115083278
 20
539.2499670038
 11
485.5115083278
 21
539.2499670038
  0
LINE
  5
397
100
AcDbEntity
  8
0
100
AcDbLine
 62
7
  6
CONTINUOUS
 10
248.3083083278
 20
541.1226270038
 11
243.2283083278
 21
541.1226270038
  0
LINE
  5
398
100
AcDbEntity
  8
0
100
AcDbLine
 62
7
  6
CONTINUOUS
 10
240.8673083278
 20
541.1226270038
 11
235.7873083278
 21
541.1226270038
  0
LINE
  5
399
100
AcDbEntity
  8
0
100
AcDbLine
 62
7
  6
CONTINUOUS
 10
233.4263083278
 20
541.1226270038
 11
228.3463083278
 21
541.1226270038
  0
LINE
  5
39A
100
AcDbEntity
  8
0
100
AcDbLine
 62
7
  6
CONTINUOUS
 10
225.9853083278
 20
541.1226270038
 11
220.9053083278
 21
541.1226270038
  0
LINE
  5
39B
100
AcDbEntity
  8
0
100
AcDbLine
 62
7
  6
CONTINUOUS
 10
218.5443083278
 20
541.1226270038
 11
213.4643083278
 21
541.1226270038
  0
LINE
  5
39C
100
AcDbEntity
  8
0
100
AcDbLine
 62
7
  6
CONTINUOUS
 10
213.4643083278
 20
543.4836270038
 11
218.5443083278
 21
543.4836270038
  0
LINE
  5
39D
100
AcDbEntity
  8
0
100
AcDbLine
 62
7
  6
CONTINUOUS
 10
220.9053083278
 20
543.4836270038
 11
225.9853083278
 21
543.4836270038
  0
LINE
  5
39E
100
AcDbEntity
  8
0
100
AcDbLine
 62
7
  6
CONTINUOUS
 10
228.3463083278
 20
543.4836270038
 11
233.4263083278
 21
543.4836270038
  0
LINE
  5
39F
100
AcDbEntity
  8
0
100
AcDbLine
 62
7
  6
CONTINUOUS
 10
235.7873083278
 20
543.4836270038
 11
240.8673083278
 21
543.4836270038
  0
LINE
  5
3A0
100
AcDbEntity
  8
0
100
AcDbLine
 62
7
  6
CONTINUOUS
 10
243.2283083278
 20
543.4836270038
 11
248.3083083278
 21
543.4836270038
  0
LINE
  5
3A1
100
AcDbEntity
  8
AXES
100
AcDbLine
 62
7
  6
CONTINUOUS
 10
622.1641083278
 20
548.1946270038
 11
598.8641083278
 21
548.1946270038
  0
LINE
  5
3A2
100
AcDbEntity
  8
0
100
AcDbLine
 62
7
  6
CONTINUOUS
 10
248.3083083278
 20
548.5636270038
 11
243.2283083278
 21
548.5636270038
  0
LINE
  5
3A3
100
AcDbEntity
  8
0
100
AcDbLine
 62
7
  6
CONTINUOUS
 10
240.8673083278
 20
548.5636270038
 11
235.7873083278
 21
548.5636270038
  0
LINE
  5
3A4
100
AcDbEntity
  8
0
100
AcDbLine
 62
7
  6
CONTINUOUS
 10
233.4263083278
 20
548.5636270038
 11
228.3463083278
 21
548.5636270038
  0
LINE
  5
3A5
100
AcDbEntity
  8
0
100
AcDbLine
 62
7
  6
CONTINUOUS
 10
225.9853083278
 20
548.5636270038
 11
220.9053083278
 21
548.5636270038
  0
LINE
  5
3A6
100
AcDbEntity
  8
0
100
AcDbLine
 62
7
  6
CONTINUOUS
 10
218.5443083278
 20
548.5636270038
 11
213.4643083278
 21
548.5636270038
  0
LINE
  5
3A7
100
AcDbEntity
  8
0
100
AcDbLine
 62
7
  6
CONTINUOUS
 10
432.8199783278
 20
548.8206270038
 11
348.2899783278
 21
548.8206270038
  0
LINE
  5
3A8
100
AcDbEntity
  8
0
100
AcDbLine
 62
7
  6
CONTINUOUS
 10
339.3451083278
 20
548.8206270038
 11
254.8151083278
 21
548.8206270038
  0
LINE
  5
3A9
100
AcDbEntity
  8
0
100
AcDbLine
 62
7
  6
CONTINUOUS
 10
213.4643083278
 20
550.9246270038
 11
218.5443083278
 21
550.9246270038
  0
LINE
  5
3AA
100
AcDbEntity
  8
0
100
AcDbLine
 62
7
  6
CONTINUOUS
 10
220.9053083278
 20
550.9246270038
 11
225.9853083278
 21
550.9246270038
  0
LINE
  5
3AB
100
AcDbEntity
  8
0
100
AcDbLine
 62
7
  6
CONTINUOUS
 10
228.3463083278
 20
550.9246270038
 11
233.4263083278
 21
550.9246270038
  0
LINE
  5
3AC
100
AcDbEntity
  8
0
100
AcDbLine
 62
7
  6
CONTINUOUS
 10
235.7873083278
 20
550.9246270038
 11
240.8673083278
 21
550.9246270038
  0
LINE
  5
3AD
100
AcDbEntity
  8
0
100
AcDbLine
 62
7
  6
CONTINUOUS
 10
243.2283083278
 20
550.9246270038
 11
248.3083083278
 21
550.9246270038
  0
LINE
  5
3AE
100
AcDbEntity
  8
0
100
AcDbLine
 62
7
  6
CONTINUOUS
 10
248.3083083278
 20
556.0046270038
 11
243.2283083278
 21
556.0046270038
  0
LINE
  5
3AF
100
AcDbEntity
  8
0
100
AcDbLine
 62
7
  6
CONTINUOUS
 10
240.8673083278
 20
556.0046270038
 11
235.7873083278
 21
556.0046270038
  0
LINE
  5
3B0
100
AcDbEntity
  8
0
100
AcDbLine
 62
7
  6
CONTINUOUS
 10
233.4263083278
 20
556.0046270038
 11
228.3463083278
 21
556.0046270038
  0
LINE
  5
3B1
100
AcDbEntity
  8
0
100
AcDbLine
 62
7
  6
CONTINUOUS
 10
225.9853083278
 20
556.0046270038
 11
220.9053083278
 21
556.0046270038
  0
LINE
  5
3B2
100
AcDbEntity
  8
0
100
AcDbLine
 62
7
  6
CONTINUOUS
 10
218.5443083278
 20
556.0046270038
 11
213.4643083278
 21
556.0046270038
  0
LINE
  5
3B3
100
AcDbEntity
  8
0
100
AcDbLine
 62
7
  6
CONTINUOUS
 10
692.842781171
 20
89.2376231479
 11
692.842781171
 21
499.2376231479
  0
LINE
  5
3B4
100
AcDbEntity
  8
0
100
AcDbLine
 62
7
  6
CONTINUOUS
 10
616.4141083278
 20
575.6662959911
 11
228.4141083278
 21
575.6662959911
  0
LINE
  5
3B5
100
AcDbEntity
  8
0
100
AcDbLine
 62
7
  6
CONTINUOUS
 10
627.221550531
 20
22.5698704948
 11
627.1903951263
 21
22.4961505268
  0
LINE
  5
3B6
100
AcDbEntity
  8
0
100
AcDbLine
 62
7
  6
CONTINUOUS
 10
683.0818609809
 20
78.4301809447
 11
683.1555809489
 21
78.4613363494
  0
LINE
  5
3B7
100
AcDbEntity
  8
0
100
AcDbLine
 62
7
  6
CONTINUOUS
 10
683.0818609809
 20
510.0450653511
 11
683.1555809489
 21
510.0139099464
  0
LINE
  5
3B8
100
AcDbEntity
  8
0
100
AcDbLine
 62
7
  6
CONTINUOUS
 10
627.221550531
 20
565.905375801
 11
627.1903951263
 21
565.979095769
  0
LINE
  5
3B9
100
AcDbEntity
  8
0
100
AcDbLine
 62
7
  6
CONTINUOUS
 10
625.0264946539
 20
21.4213366309
 11
616.4141083278
 21
12.8089503047
  0
LINE
  5
3BA
100
AcDbEntity
  8
0
100
AcDbLine
 62
7
  6
CONTINUOUS
 10
684.2303948448
 20
80.6252368218
 11
692.842781171
 21
89.2376231479
  0
LINE
  5
3BB
100
AcDbEntity
  8
0
100
AcDbLine
 62
7
  6
CONTINUOUS
 10
634.0265083278
 20
29.736015436
 11
627.9351772825
 21
23.6446843907
  0
LINE
  5
3BC
100
AcDbEntity
  8
0
100
AcDbLine
 62
7
  6
CONTINUOUS
 10
675.9157160396
 20
71.6252231479
 11
682.0070470849
 21
77.7165541932
  0
LINE
  5
3BD
100
AcDbEntity
  8
0
100
AcDbLine
 62
7
  6
CONTINUOUS
 10
625.0264946539
 20
567.0539096649
 11
616.4141083278
 21
575.6662959911
  0
LINE
  5
3BE
100
AcDbEntity
  8
0
100
AcDbLine
 62
7
  6
CONTINUOUS
 10
684.2303948448
 20
507.850009474
 11
692.842781171
 21
499.2376231479
  0
LINE
  5
3BF
100
AcDbEntity
  8
0
100
AcDbLine
 62
7
  6
CONTINUOUS
 10
634.0265083278
 20
558.7392308598
 11
627.9351772825
 21
564.8305619051
  0
LINE
  5
3C0
100
AcDbEntity
  8
0
100
AcDbLine
 62
7
  6
CONTINUOUS
 10
675.9157160396
 20
516.8500231479
 11
682.0070470849
 21
510.7586921026
  0
ARC
  5
3C1
100
AcDbEntity
  8
0
100
AcDbCircle
 62
7
  6
CONTINUOUS
 10
277.4141083278
 20
62.074619292
 40
5.1
100
AcDbArc
 50
102.4557926259
 51
77.5442073741
  0
CIRCLE
  5
3C2
100
AcDbEntity
  8
AXES
100
AcDbCircle
 62
7
  6
CONTINUOUS
 10
189.8571044718
 20
109.2376231479
 40
2.7
  0
CIRCLE
  5
3C3
100
AcDbEntity
  8
AXES
100
AcDbCircle
 62
7
  6
CONTINUOUS
 10
189.8571044718
 20
123.2376231479
 40
2.7
  0
CIRCLE
  5
3C4
100
AcDbEntity
  8
AXES
100
AcDbCircle
 62
7
  6
CONTINUOUS
 10
269.4141083278
 20
17.6089503047
 40
2.4
  0
CIRCLE
  5
3C5
100
AcDbEntity
  8
AXES
100
AcDbCircle
 62
7
  6
CONTINUOUS
 10
156.7854354846
 20
99.2376231479
 40
2.4
  0
CIRCLE
  5
3C6
100
AcDbEntity
  8
AXES
100
AcDbCircle
 62
7
  6
CONTINUOUS
 10
216.9141083278
 20
38.455619292
 40
2.4
  0
CIRCLE
  5
3C7
100
AcDbEntity
  8
AXES
100
AcDbCircle
 62
7
  6
CONTINUOUS
 10
216.9141083278
 20
62.905619292
 40
2.4
  0
CIRCLE
  5
3C8
100
AcDbEntity
  8
AXES
100
AcDbCircle
 62
7
  6
CONTINUOUS
 10
261.4141083278
 20
36.630619292
 40
2.1
  0
CIRCLE
  5
3C9
100
AcDbEntity
  8
AXES
100
AcDbCircle
 62
7
  6
CONTINUOUS
 10
231.4141083278
 20
66.630619292
 40
2.1
  0
CIRCLE
  5
3CA
100
AcDbEntity
  8
AXES
100
AcDbCircle
 62
7
  6
CONTINUOUS
 10
261.4141083278
 20
66.630619292
 40
2.1
  0
CIRCLE
  5
3CB
100
AcDbEntity
  8
AXES
100
AcDbCircle
 62
7
  6
CONTINUOUS
 10
231.4141083278
 20
36.630619292
 40
2.1
  0
CIRCLE
  5
3CC
100
AcDbEntity
  8
0
100
AcDbCircle
 62
7
  6
CONTINUOUS
 10
277.4141083278
 20
46.450619292
 40
1.5
  0
CIRCLE
  5
3CD
100
AcDbEntity
  8
AXES
100
AcDbCircle
 62
7
  6
CONTINUOUS
 10
189.8571044718
 20
166.1376231479
 40
2.7
  0
CIRCLE
  5
3CE
100
AcDbEntity
  8
AXES
100
AcDbCircle
 62
7
  6
CONTINUOUS
 10
189.8571044718
 20
258.2376231479
 40
2.7
  0
CIRCLE
  5
3CF
100
AcDbEntity
  8
AXES
100
AcDbCircle
 62
7
  6
CONTINUOUS
 10
156.7854354846
 20
229.2376231479
 40
2.4
  0
CIRCLE
  5
3D0
100
AcDbEntity
  8
AXES
100
AcDbCircle
 62
7
  6
CONTINUOUS
 10
156.7854354846
 20
164.2376231479
 40
2.4
  0
CIRCLE
  5
3D1
100
AcDbEntity
  8
AXES
100
AcDbCircle
 62
7
  6
CONTINUOUS
 10
228.5141083278
 20
279.3076231479
 40
2.0
  0
CIRCLE
  5
3D2
100
AcDbEntity
  8
AXES
100
AcDbCircle
 62
7
  6
CONTINUOUS
 10
269.5001063278
 20
243.8076231479
 40
2.0
  0
CIRCLE
  5
3D3
100
AcDbEntity
  8
AXES
100
AcDbCircle
 62
7
  6
CONTINUOUS
 10
269.5001063278
 20
152.3676231479
 40
2.0
  0
ARC
  5
3D4
100
AcDbEntity
  8
0
100
AcDbCircle
 62
7
  6
CONTINUOUS
 10
302.4141083278
 20
62.074619292
 40
5.1
100
AcDbArc
 50
102.4557926259
 51
77.5442073741
  0
CIRCLE
  5
3D5
100
AcDbEntity
  8
AXES
100
AcDbCircle
 62
7
  6
CONTINUOUS
 10
359.4141083278
 20
17.6089503047
 40
2.4
  0
CIRCLE
  5
3D6
100
AcDbEntity
  8
AXES
100
AcDbCircle
 62
7
  6
CONTINUOUS
 10
309.9141083278
 20
17.6089503047
 40
2.4
  0
CIRCLE
  5
3D7
100
AcDbEntity
  8
0
100
AcDbCircle
 62
7
  6
CONTINUOUS
 10
290.0641083278
 20
46.450619292
 40
2.4
  0
CIRCLE
  5
3D8
100
AcDbEntity
  8
0
100
AcDbCircle
 62
7
  6
CONTINUOUS
 10
302.4141083278
 20
46.450619292
 40
1.5
  0
CIRCLE
  5
3D9
100
AcDbEntity
  8
0
100
AcDbCircle
 62
7
  6
CONTINUOUS
 10
337.4141083278
 20
46.450619292
 40
1.5
  0
CIRCLE
  5
3DA
100
AcDbEntity
  8
0
100
AcDbCircle
 62
7
  6
CONTINUOUS
 10
351.4141083278
 20
46.450619292
 40
1.5
  0
CIRCLE
  5
3DB
100
AcDbEntity
  8
0
100
AcDbCircle
 62
7
  6
CONTINUOUS
 10
372.4141083278
 20
46.450619292
 40
1.5
  0
CIRCLE
  5
3DC
100
AcDbEntity
  8
0
100
AcDbCircle
 62
7
  6
CONTINUOUS
 10
379.4141083278
 20
46.450619292
 40
1.5
  0
CIRCLE
  5
3DD
100
AcDbEntity
  8
0
100
AcDbCircle
 62
7
  6
CONTINUOUS
 10
386.4141083278
 20
46.450619292
 40
1.5
  0
CIRCLE
  5
3DE
100
AcDbEntity
  8
0
100
AcDbCircle
 62
7
  6
CONTINUOUS
 10
393.4141083278
 20
46.450619292
 40
1.5
  0
CIRCLE
  5
3DF
100
AcDbEntity
  8
0
100
AcDbCircle
 62
7
  6
CONTINUOUS
 10
400.4141083278
 20
46.450619292
 40
1.5
  0
CIRCLE
  5
3E0
100
AcDbEntity
  8
0
100
AcDbCircle
 62
7
  6
CONTINUOUS
 10
407.4141083278
 20
46.450619292
 40
1.5
  0
CIRCLE
  5
3E1
100
AcDbEntity
  8
0
100
AcDbCircle
 62
7
  6
CONTINUOUS
 10
414.4141083278
 20
46.450619292
 40
1.5
  0
CIRCLE
  5
3E2
100
AcDbEntity
  8
0
100
AcDbCircle
 62
7
  6
CONTINUOUS
 10
421.4141083278
 20
46.450619292
 40
1.5
  0
CIRCLE
  5
3E3
100
AcDbEntity
  8
AXES
100
AcDbCircle
 62
7
  6
CONTINUOUS
 10
353.1141083278
 20
279.3076231479
 40
2.0
  0
CIRCLE
  5
3E4
100
AcDbEntity
  8
AXES
100
AcDbCircle
 62
7
  6
CONTINUOUS
 10
345.7001063278
 20
243.8076231479
 40
2.0
  0
CIRCLE
  5
3E5
100
AcDbEntity
  8
AXES
100
AcDbCircle
 62
7
  6
CONTINUOUS
 10
359.0001063278
 20
243.8076231479
 40
2.0
  0
CIRCLE
  5
3E6
100
AcDbEntity
  8
AXES
100
AcDbCircle
 62
7
  6
CONTINUOUS
 10
345.7001063278
 20
152.3676231479
 40
2.0
  0
CIRCLE
  5
3E7
100
AcDbEntity
  8
AXES
100
AcDbCircle
 62
7
  6
CONTINUOUS
 10
359.0001063278
 20
152.3676231479
 40
2.0
  0
CIRCLE
  5
3E8
100
AcDbEntity
  8
AXES
100
AcDbCircle
 62
7
  6
CONTINUOUS
 10
189.8571044718
 20
350.3376231479
 40
2.7
  0
CIRCLE
  5
3E9
100
AcDbEntity
  8
AXES
100
AcDbCircle
 62
7
  6
CONTINUOUS
 10
189.8571044718
 20
408.2376231479
 40
2.7
  0
CIRCLE
  5
3EA
100
AcDbEntity
  8
AXES
100
AcDbCircle
 62
7
  6
CONTINUOUS
 10
156.7854354846
 20
294.2376231479
 40
2.4
  0
CIRCLE
  5
3EB
100
AcDbEntity
  8
AXES
100
AcDbCircle
 62
7
  6
CONTINUOUS
 10
156.7854354846
 20
359.2376231479
 40
2.4
  0
CIRCLE
  5
3EC
100
AcDbEntity
  8
AXES
100
AcDbCircle
 62
7
  6
CONTINUOUS
 10
156.7854354846
 20
424.2376231479
 40
2.4
  0
CIRCLE
  5
3ED
100
AcDbEntity
  8
0
100
AcDbCircle
 62
7
  6
CONTINUOUS
 10
258.2261088478
 20
429.3896242279
 40
2.0
  0
CIRCLE
  5
3EE
100
AcDbEntity
  8
AXES
100
AcDbCircle
 62
7
  6
CONTINUOUS
 10
228.5141083278
 20
351.6976231479
 40
2.0
  0
CIRCLE
  5
3EF
100
AcDbEntity
  8
AXES
100
AcDbCircle
 62
7
  6
CONTINUOUS
 10
189.8571044718
 20
442.4376231479
 40
2.7
  0
CIRCLE
  5
3F0
100
AcDbEntity
  8
AXES
100
AcDbCircle
 62
7
  6
CONTINUOUS
 10
189.8571044718
 20
459.2376231479
 40
2.7
  0
CIRCLE
  5
3F1
100
AcDbEntity
  8
AXES
100
AcDbCircle
 62
7
  6
CONTINUOUS
 10
269.4141083278
 20
570.8662959911
 40
2.4
  0
CIRCLE
  5
3F2
100
AcDbEntity
  8
AXES
100
AcDbCircle
 62
7
  6
CONTINUOUS
 10
156.7854354846
 20
489.2376231479
 40
2.4
  0
CIRCLE
  5
3F3
100
AcDbEntity
  8
AXES
100
AcDbCircle
 62
7
  6
CONTINUOUS
 10
257.3151083278
 20
553.6206270038
 40
2.4
  0
CIRCLE
  5
3F4
100
AcDbEntity
  8
AXES
100
AcDbCircle
 62
7
  6
CONTINUOUS
 10
257.3151083278
 20
530.0206270038
 40
2.4
  0
CIRCLE
  5
3F5
100
AcDbEntity
  8
0
100
AcDbCircle
 62
7
  6
CONTINUOUS
 10
258.2261088478
 20
495.3596243679
 40
2.0
  0
CIRCLE
  5
3F6
100
AcDbEntity
  8
AXES
100
AcDbCircle
 62
7
  6
CONTINUOUS
 10
228.5141083278
 20
506.6376231479
 40
2.0
  0
CIRCLE
  5
3F7
100
AcDbEntity
  8
0
100
AcDbCircle
 62
7
  6
CONTINUOUS
 10
335.6061090278
 20
429.3896242279
 40
2.0
  0
CIRCLE
  5
3F8
100
AcDbEntity
  8
0
100
AcDbCircle
 62
7
  6
CONTINUOUS
 10
351.6981088478
 20
429.3896242279
 40
2.0
  0
CIRCLE
  5
3F9
100
AcDbEntity
  8
AXES
100
AcDbCircle
 62
7
  6
CONTINUOUS
 10
353.1141083278
 20
351.6976231479
 40
2.0
  0
CIRCLE
  5
3FA
100
AcDbEntity
  8
AXES
100
AcDbCircle
 62
7
  6
CONTINUOUS
 10
359.4141083278
 20
570.8662959911
 40
2.4
  0
CIRCLE
  5
3FB
100
AcDbEntity
  8
AXES
100
AcDbCircle
 62
7
  6
CONTINUOUS
 10
309.9141083278
 20
570.8662959911
 40
2.4
  0
CIRCLE
  5
3FC
100
AcDbEntity
  8
AXES
100
AcDbCircle
 62
7
  6
CONTINUOUS
 10
297.0801083278
 20
553.6206270038
 40
2.4
  0
CIRCLE
  5
3FD
100
AcDbEntity
  8
AXES
100
AcDbCircle
 62
7
  6
CONTINUOUS
 10
336.8451083278
 20
553.6206270038
 40
2.4
  0
CIRCLE
  5
3FE
100
AcDbEntity
  8
AXES
100
AcDbCircle
 62
7
  6
CONTINUOUS
 10
336.8451083278
 20
530.0206270038
 40
2.4
  0
CIRCLE
  5
3FF
100
AcDbEntity
  8
AXES
100
AcDbCircle
 62
7
  6
CONTINUOUS
 10
297.0801083278
 20
530.0206270038
 40
2.4
  0
CIRCLE
  5
400
100
AcDbEntity
  8
AXES
100
AcDbCircle
 62
7
  6
CONTINUOUS
 10
350.7899783278
 20
530.0206270038
 40
2.4
  0
CIRCLE
  5
401
100
AcDbEntity
  8
AXES
100
AcDbCircle
 62
7
  6
CONTINUOUS
 10
390.5549783278
 20
530.0206270038
 40
2.4
  0
CIRCLE
  5
402
100
AcDbEntity
  8
AXES
100
AcDbCircle
 62
7
  6
CONTINUOUS
 10
390.5549783278
 20
553.6206270038
 40
2.4
  0
CIRCLE
  5
403
100
AcDbEntity
  8
AXES
100
AcDbCircle
 62
7
  6
CONTINUOUS
 10
350.7899783278
 20
553.6206270038
 40
2.4
  0
CIRCLE
  5
404
100
AcDbEntity
  8
0
100
AcDbCircle
 62
7
  6
CONTINUOUS
 10
335.6061090278
 20
495.3596243679
 40
2.0
  0
CIRCLE
  5
405
100
AcDbEntity
  8
0
100
AcDbCircle
 62
7
  6
CONTINUOUS
 10
351.6981088478
 20
495.3596243679
 40
2.0
  0
CIRCLE
  5
406
100
AcDbEntity
  8
AXES
100
AcDbCircle
 62
7
  6
CONTINUOUS
 10
353.1141083278
 20
506.6376231479
 40
2.0
  0
CIRCLE
  5
407
100
AcDbEntity
  8
AXES
100
AcDbCircle
 62
7
  6
CONTINUOUS
 10
422.4141083278
 20
17.6089503047
 40
2.4
  0
CIRCLE
  5
408
100
AcDbEntity
  8
AXES
100
AcDbCircle
 62
7
  6
CONTINUOUS
 10
485.4141083278
 20
17.6089503047
 40
2.4
  0
CIRCLE
  5
409
100
AcDbEntity
  8
AXES
100
AcDbCircle
 62
7
  6
CONTINUOUS
 10
534.9141083278
 20
17.6089503047
 40
2.4
  0
CIRCLE
  5
40A
100
AcDbEntity
  8
0
100
AcDbCircle
 62
7
  6
CONTINUOUS
 10
432.4141083278
 20
46.450619292
 40
2.4
  0
CIRCLE
  5
40B
100
AcDbEntity
  8
AXES
100
AcDbCircle
 62
7
  6
CONTINUOUS
 10
463.9141083278
 20
131.2376231479
 40
2.1
  0
CIRCLE
  5
40C
100
AcDbEntity
  8
AXES
100
AcDbCircle
 62
7
  6
CONTINUOUS
 10
480.1741083278
 20
131.2376231479
 40
2.1
  0
CIRCLE
  5
40D
100
AcDbEntity
  8
AXES
100
AcDbCircle
 62
7
  6
CONTINUOUS
 10
522.4141083278
 20
36.630619292
 40
2.1
  0
CIRCLE
  5
40E
100
AcDbEntity
  8
AXES
100
AcDbCircle
 62
7
  6
CONTINUOUS
 10
522.4141083278
 20
66.630619292
 40
2.1
  0
CIRCLE
  5
40F
100
AcDbEntity
  8
AXES
100
AcDbCircle
 62
7
  6
CONTINUOUS
 10
492.4141083278
 20
36.630619292
 40
2.1
  0
CIRCLE
  5
410
100
AcDbEntity
  8
AXES
100
AcDbCircle
 62
7
  6
CONTINUOUS
 10
492.4141083278
 20
66.630619292
 40
2.1
  0
CIRCLE
  5
411
100
AcDbEntity
  8
AXES
100
AcDbCircle
 62
7
  6
CONTINUOUS
 10
477.4141083278
 20
36.630619292
 40
2.1
  0
CIRCLE
  5
412
100
AcDbEntity
  8
AXES
100
AcDbCircle
 62
7
  6
CONTINUOUS
 10
477.4141083278
 20
66.630619292
 40
2.1
  0
CIRCLE
  5
413
100
AcDbEntity
  8
AXES
100
AcDbCircle
 62
7
  6
CONTINUOUS
 10
447.4141083278
 20
36.630619292
 40
2.1
  0
CIRCLE
  5
414
100
AcDbEntity
  8
AXES
100
AcDbCircle
 62
7
  6
CONTINUOUS
 10
447.4141083278
 20
66.630619292
 40
2.1
  0
CIRCLE
  5
415
100
AcDbEntity
  8
AXES
100
AcDbCircle
 62
7
  6
CONTINUOUS
 10
463.9141083278
 20
157.9076231479
 40
2.1
  0
CIRCLE
  5
416
100
AcDbEntity
  8
AXES
100
AcDbCircle
 62
7
  6
CONTINUOUS
 10
480.1741083278
 20
157.9076231479
 40
2.1
  0
CIRCLE
  5
417
100
AcDbEntity
  8
AXES
100
AcDbCircle
 62
7
  6
CONTINUOUS
 10
545.6941083278
 20
169.2376231479
 40
2.0
  0
CIRCLE
  5
418
100
AcDbEntity
  8
AXES
100
AcDbCircle
 62
7
  6
CONTINUOUS
 10
510.4541083278
 20
279.3076231479
 40
2.0
  0
CIRCLE
  5
419
100
AcDbEntity
  8
AXES
100
AcDbCircle
 62
7
  6
CONTINUOUS
 10
435.2001063278
 20
243.8076231479
 40
2.0
  0
CIRCLE
  5
41A
100
AcDbEntity
  8
AXES
100
AcDbCircle
 62
7
  6
CONTINUOUS
 10
435.2001063278
 20
152.3676231479
 40
2.0
  0
CIRCLE
  5
41B
100
AcDbEntity
  8
AXES
100
AcDbCircle
 62
7
  6
CONTINUOUS
 10
654.9711121837
 20
123.2376231479
 40
2.7
  0
CIRCLE
  5
41C
100
AcDbEntity
  8
AXES
100
AcDbCircle
 62
7
  6
CONTINUOUS
 10
654.9711121837
 20
109.2376231479
 40
2.7
  0
CIRCLE
  5
41D
100
AcDbEntity
  8
AXES
100
AcDbCircle
 62
7
  6
CONTINUOUS
 10
575.4141083278
 20
17.6089503047
 40
2.4
  0
CIRCLE
  5
41E
100
AcDbEntity
  8
AXES
100
AcDbCircle
 62
7
  6
CONTINUOUS
 10
688.042781171
 20
99.2376231479
 40
2.4
  0
CIRCLE
  5
41F
100
AcDbEntity
  8
AXES
100
AcDbCircle
 62
7
  6
CONTINUOUS
 10
627.9141083278
 20
38.455619292
 40
2.4
  0
CIRCLE
  5
420
100
AcDbEntity
  8
AXES
100
AcDbCircle
 62
7
  6
CONTINUOUS
 10
627.9141083278
 20
62.905619292
 40
2.4
  0
CIRCLE
  5
421
100
AcDbEntity
  8
AXES
100
AcDbCircle
 62
7
  6
CONTINUOUS
 10
654.9711121837
 20
258.2376231479
 40
2.7
  0
CIRCLE
  5
422
100
AcDbEntity
  8
AXES
100
AcDbCircle
 62
7
  6
CONTINUOUS
 10
654.9711121837
 20
166.1376231479
 40
2.7
  0
CIRCLE
  5
423
100
AcDbEntity
  8
AXES
100
AcDbCircle
 62
7
  6
CONTINUOUS
 10
688.042781171
 20
229.2376231479
 40
2.4
  0
CIRCLE
  5
424
100
AcDbEntity
  8
AXES
100
AcDbCircle
 62
7
  6
CONTINUOUS
 10
688.042781171
 20
164.2376231479
 40
2.4
  0
CIRCLE
  5
425
100
AcDbEntity
  8
AXES
100
AcDbCircle
 62
7
  6
CONTINUOUS
 10
597.4141083278
 20
169.2376231479
 40
2.0
  0
CIRCLE
  5
426
100
AcDbEntity
  8
0
100
AcDbCircle
 62
7
  6
CONTINUOUS
 10
429.0781090278
 20
429.3896242279
 40
2.0
  0
CIRCLE
  5
427
100
AcDbEntity
  8
AXES
100
AcDbCircle
 62
7
  6
CONTINUOUS
 10
510.4541083278
 20
351.6976231479
 40
2.0
  0
CIRCLE
  5
428
100
AcDbEntity
  8
AXES
100
AcDbCircle
 62
7
  6
CONTINUOUS
 10
529.9141083278
 20
546.4006270038
 40
3.2
  0
CIRCLE
  5
429
100
AcDbEntity
  8
AXES
100
AcDbCircle
 62
7
  6
CONTINUOUS
 10
545.9141083278
 20
546.4006270038
 40
3.2
  0
CIRCLE
  5
42A
100
AcDbEntity
  8
AXES
100
AcDbCircle
 62
7
  6
CONTINUOUS
 10
529.9141083278
 20
526.4006270038
 40
3.2
  0
CIRCLE
  5
42B
100
AcDbEntity
  8
AXES
100
AcDbCircle
 62
7
  6
CONTINUOUS
 10
545.9141083278
 20
526.4006270038
 40
3.2
  0
CIRCLE
  5
42C
100
AcDbEntity
  8
AXES
100
AcDbCircle
 62
7
  6
CONTINUOUS
 10
422.4141083278
 20
570.8662959911
 40
2.4
  0
CIRCLE
  5
42D
100
AcDbEntity
  8
AXES
100
AcDbCircle
 62
7
  6
CONTINUOUS
 10
485.4141083278
 20
570.8662959911
 40
2.4
  0
CIRCLE
  5
42E
100
AcDbEntity
  8
AXES
100
AcDbCircle
 62
7
  6
CONTINUOUS
 10
534.9141083278
 20
570.8662959911
 40
2.4
  0
CIRCLE
  5
42F
100
AcDbEntity
  8
AXES
100
AcDbCircle
 62
7
  6
CONTINUOUS
 10
430.3199783278
 20
530.0206270038
 40
2.4
  0
CIRCLE
  5
430
100
AcDbEntity
  8
AXES
100
AcDbCircle
 62
7
  6
CONTINUOUS
 10
430.3199783278
 20
553.6206270038
 40
2.4
  0
CIRCLE
  5
431
100
AcDbEntity
  8
0
100
AcDbCircle
 62
7
  6
CONTINUOUS
 10
429.0781090278
 20
495.3596243679
 40
2.0
  0
CIRCLE
  5
432
100
AcDbEntity
  8
AXES
100
AcDbCircle
 62
7
  6
CONTINUOUS
 10
510.4541083278
 20
483.7776231479
 40
2.0
  0
CIRCLE
  5
433
100
AcDbEntity
  8
AXES
100
AcDbCircle
 62
7
  6
CONTINUOUS
 10
654.9711121837
 20
408.2376231479
 40
2.7
  0
CIRCLE
  5
434
100
AcDbEntity
  8
AXES
100
AcDbCircle
 62
7
  6
CONTINUOUS
 10
654.9711121837
 20
350.3376231479
 40
2.7
  0
CIRCLE
  5
435
100
AcDbEntity
  8
AXES
100
AcDbCircle
 62
7
  6
CONTINUOUS
 10
688.042781171
 20
294.2376231479
 40
2.4
  0
CIRCLE
  5
436
100
AcDbEntity
  8
AXES
100
AcDbCircle
 62
7
  6
CONTINUOUS
 10
688.042781171
 20
359.2376231479
 40
2.4
  0
CIRCLE
  5
437
100
AcDbEntity
  8
AXES
100
AcDbCircle
 62
7
  6
CONTINUOUS
 10
688.042781171
 20
424.2376231479
 40
2.4
  0
CIRCLE
  5
438
100
AcDbEntity
  8
AXES
100
AcDbCircle
 62
7
  6
CONTINUOUS
 10
561.9141083278
 20
546.4006270038
 40
3.2
  0
CIRCLE
  5
439
100
AcDbEntity
  8
AXES
100
AcDbCircle
 62
7
  6
CONTINUOUS
 10
577.9141083278
 20
546.4006270038
 40
3.2
  0
CIRCLE
  5
43A
100
AcDbEntity
  8
AXES
100
AcDbCircle
 62
7
  6
CONTINUOUS
 10
561.9141083278
 20
526.4006270038
 40
3.2
  0
CIRCLE
  5
43B
100
AcDbEntity
  8
AXES
100
AcDbCircle
 62
7
  6
CONTINUOUS
 10
577.9141083278
 20
526.4006270038
 40
3.2
  0
CIRCLE
  5
43C
100
AcDbEntity
  8
AXES
100
AcDbCircle
 62
7
  6
CONTINUOUS
 10
654.9711121837
 20
459.2376231479
 40
2.7
  0
CIRCLE
  5
43D
100
AcDbEntity
  8
AXES
100
AcDbCircle
 62
7
  6
CONTINUOUS
 10
654.9711121837
 20
442.4376231479
 40
2.7
  0
ARC
  5
43E
100
AcDbEntity
  8
AXES
100
AcDbCircle
 62
7
  6
CONTINUOUS
 10
622.1641083278
 20
545.6946270038
 40
2.5
100
AcDbArc
 50
0.0
 51
90.0
  0
ARC
  5
43F
100
AcDbEntity
  8
AXES
100
AcDbCircle
 62
7
  6
CONTINUOUS
 10
622.1641083278
 20
529.8946270038
 40
2.5
100
AcDbArc
 50
270.0
 51
360.0
  0
ARC
  5
440
100
AcDbEntity
  8
AXES
100
AcDbCircle
 62
7
  6
CONTINUOUS
 10
598.8641083278
 20
529.8946270038
 40
2.5
100
AcDbArc
 50
180.0
 51
270.0
  0
ARC
  5
441
100
AcDbEntity
  8
AXES
100
AcDbCircle
 62
7
  6
CONTINUOUS
 10
598.8641083278
 20
545.6946270038
 40
2.5
100
AcDbArc
 50
90.0
 51
180.0
  0
CIRCLE
  5
442
100
AcDbEntity
  8
AXES
100
AcDbCircle
 62
7
  6
CONTINUOUS
 10
575.4141083278
 20
570.8662959911
 40
2.4
  0
CIRCLE
  5
443
100
AcDbEntity
  8
AXES
100
AcDbCircle
 62
7
  6
CONTINUOUS
 10
688.042781171
 20
489.2376231479
 40
2.4
  0
CIRCLE
  5
444
100
AcDbEntity
  8
AXES
100
AcDbCircle
 62
7
  6
CONTINUOUS
 10
630.4139083278
 20
522.3506270038
 40
2.4
  0
CIRCLE
  5
445
100
AcDbEntity
  8
AXES
100
AcDbCircle
 62
7
  6
CONTINUOUS
 10
630.5141083278
 20
537.7946270038
 40
2.4
  0
CIRCLE
  5
446
100
AcDbEntity
  8
AXES
100
AcDbCircle
 62
7
  6
CONTINUOUS
 10
590.5141083278
 20
537.7946270038
 40
2.4
  0
CIRCLE
  5
447
100
AcDbEntity
  8
AXES
100
AcDbCircle
 62
7
  6
CONTINUOUS
 10
598.4141083278
 20
434.2376231479
 40
2.0
  0
SPLINE
  5
448
100
AcDbEntity
  8
AXES
100
AcDbSpline
 62
8
  6
HIDDEN
 70
0
 71
3
 72
9
 73
5
 74
0
 42
0.0000001
 43
0.0000001
 44
0.0000000001
 40
0.0
 40
0.0
 40
0.0
 40
0.0
 40
0.6798527714
 40
1.0
 40
1.0
 40
1.0
 40
1.0
 10
161.3629385577
 20
509.5738702597
 30
0.0
 10
161.297322212
 20
509.4589825253
 30
0.0
 10
161.2086360128
 20
509.2855545921
 30
0.0
 10
161.1254061114
 20
509.1096204994
 30
0.0
 10
161.0992457166
 20
509.0530742647
 30
0.0
  0
SPLINE
  5
449
100
AcDbEntity
  8
AXES
100
AcDbSpline
 62
8
  6
HIDDEN
 70
0
 71
3
 72
9
 73
5
 74
0
 42
0.0000001
 43
0.0000001
 44
0.0000000001
 40
0.0
 40
0.0
 40
0.0
 40
0.0
 40
0.6798527714
 40
1.0
 40
1.0
 40
1.0
 40
1.0
 10
161.3629385577
 20
78.9013760361
 30
0.0
 10
161.297322212
 20
79.0162637705
 30
0.0
 10
161.2086360128
 20
79.1896917037
 30
0.0
 10
161.1254061114
 20
79.3656257964
 30
0.0
 10
161.0992457166
 20
79.4221720311
 30
0.0
  0
SPLINE
  5
44A
100
AcDbEntity
  8
AXES
100
AcDbSpline
 62
8
  6
HIDDEN
 70
0
 71
3
 72
9
 73
5
 74
0
 42
0.0000001
 43
0.0000001
 44
0.0000000001
 40
0.0
 40
0.0
 40
0.0
 40
0.0
 40
0.6798527714
 40
1.0
 40
1.0
 40
1.0
 40
1.0
 10
626.7503554395
 20
566.288792918
 30
0.0
 10
626.6354677052
 20
566.3544092636
 30
0.0
 10
626.462039772
 20
566.4430954628
 30
0.0
 10
626.2861056793
 20
566.5263253643
 30
0.0
 10
626.2295594446
 20
566.552485759
 30
0.0
  0
SPLINE
  5
44B
100
AcDbEntity
  8
AXES
100
AcDbSpline
 62
8
  6
HIDDEN
 70
0
 71
3
 72
9
 73
5
 74
0
 42
0.0000001
 43
0.0000001
 44
0.0000000001
 40
0.0
 40
0.0
 40
0.0
 40
0.0
 40
0.6798527714
 40
1.0
 40
1.0
 40
1.0
 40
1.0
 10
218.077861216
 20
566.288792918
 30
0.0
 10
218.1927489504
 20
566.3544092636
 30
0.0
 10
218.3661768836
 20
566.4430954628
 30
0.0
 10
218.5421109762
 20
566.5263253643
 30
0.0
 10
218.598657211
 20
566.552485759
 30
0.0
  0
SPLINE
  5
44C
100
AcDbEntity
  8
AXES
100
AcDbSpline
 62
8
  6
HIDDEN
 70
0
 71
3
 72
9
 73
5
 74
0
 42
0.0000001
 43
0.0000001
 44
0.0000000001
 40
0.0
 40
0.0
 40
0.0
 40
0.0
 40
0.6798527714
 40
1.0
 40
1.0
 40
1.0
 40
1.0
 10
683.4652780979
 20
78.9013760361
 30
0.0
 10
683.5308944435
 20
79.0162637705
 30
0.0
 10
683.6195806427
 20
79.1896917037
 30
0.0
 10
683.7028105442
 20
79.3656257964
 30
0.0
 10
683.7289709389
 20
79.4221720311
 30
0.0
  0
SPLINE
  5
44D
100
AcDbEntity
  8
AXES
100
AcDbSpline
 62
8
  6
HIDDEN
 70
0
 71
3
 72
9
 73
5
 74
0
 42
0.0000001
 43
0.0000001
 44
0.0000000001
 40
0.0
 40
0.0
 40
0.0
 40
0.0
 40
0.6798527714
 40
1.0
 40
1.0
 40
1.0
 40
1.0
 10
683.4652780979
 20
509.5738702597
 30
0.0
 10
683.5308944435
 20
509.4589825253
 30
0.0
 10
683.6195806427
 20
509.2855545921
 30
0.0
 10
683.7028105442
 20
509.1096204994
 30
0.0
 10
683.7289709389
 20
509.0530742647
 30
0.0
  0
SPLINE
  5
44E
100
AcDbEntity
  8
AXES
100
AcDbSpline
 62
8
  6
HIDDEN
 70
0
 71
3
 72
9
 73
5
 74
0
 42
0.0000001
 43
0.0000001
 44
0.0000000001
 40
0.0
 40
0.0
 40
0.0
 40
0.0
 40
0.6798527714
 40
1.0
 40
1.0
 40
1.0
 40
1.0
 10
626.7503554395
 20
22.1864533778
 30
0.0
 10
626.6354677052
 20
22.1208370322
 30
0.0
 10
626.462039772
 20
22.032150833
 30
0.0
 10
626.2861056793
 20
21.9489209315
 30
0.0
 10
626.2295594446
 20
21.9227605368
 30
0.0
  0
SPLINE
  5
44F
100
AcDbEntity
  8
AXES
100
AcDbSpline
 62
8
  6
HIDDEN
 70
0
 71
3
 72
9
 73
5
 74
0
 42
0.0000001
 43
0.0000001
 44
0.0000000001
 40
0.0
 40
0.0
 40
0.0
 40
0.0
 40
0.6798527714
 40
1.0
 40
1.0
 40
1.0
 40
1.0
 10
218.077861216
 20
22.1864533778
 30
0.0
 10
218.1927489504
 20
22.1208370322
 30
0.0
 10
218.3661768836
 20
22.032150833
 30
0.0
 10
218.5421109762
 20
21.9489209315
 30
0.0
 10
218.598657211
 20
21.9227605368
 30
0.0
  0
SPLINE
  5
450
100
AcDbEntity
  8
AXES
100
AcDbSpline
 62
8
  6
HIDDEN
 70
0
 71
3
 72
9
 73
5
 74
0
 42
0.0000001
 43
0.0000001
 44
0.0000000001
 40
0.0
 40
0.0
 40
0.0
 40
0.0
 40
0.2737917162
 40
1.0
 40
1.0
 40
1.0
 40
1.0
 10
675.9157160396
 20
71.6252231479
 30
0.0
 10
675.8316066042
 20
71.5553198637
 30
0.0
 10
675.5250821098
 20
71.3010366849
 30
0.0
 10
675.197247468
 20
71.05901384
 30
0.0
 10
674.9295138952
 20
70.9473587675
 30
0.0
  0
SPLINE
  5
451
100
AcDbEntity
  8
AXES
100
AcDbSpline
 62
8
  6
HIDDEN
 70
0
 71
3
 72
8
 73
4
 74
0
 42
0.0000001
 43
0.0000001
 44
0.0000000001
 40
0.0
 40
0.0
 40
0.0
 40
0.0
 40
1.0
 40
1.0
 40
1.0
 40
1.0
 10
674.9295138952
 20
70.9473587675
 30
0.0
 10
674.7714384436
 20
70.881435298
 30
0.0
 10
674.5987831744
 20
70.8378231479
 30
0.0
 10
674.4275121837
 20
70.8378231479
 30
0.0
  0
SPLINE
  5
452
100
AcDbEntity
  8
AXES
100
AcDbSpline
 62
8
  6
HIDDEN
 70
0
 71
3
 72
9
 73
5
 74
0
 42
0.0000001
 43
0.0000001
 44
0.0000000001
 40
0.0
 40
0.0
 40
0.0
 40
0.0
 40
0.2737917162
 40
1.0
 40
1.0
 40
1.0
 40
1.0
 10
675.9157160396
 20
516.8500231479
 30
0.0
 10
675.8316066042
 20
516.9199264321
 30
0.0
 10
675.5250821098
 20
517.1742096109
 30
0.0
 10
675.197247468
 20
517.4162324558
 30
0.0
 10
674.9295138952
 20
517.5278875283
 30
0.0
  0
SPLINE
  5
453
100
AcDbEntity
  8
AXES
100
AcDbSpline
 62
8
  6
HIDDEN
 70
0
 71
3
 72
8
 73
4
 74
0
 42
0.0000001
 43
0.0000001
 44
0.0000000001
 40
0.0
 40
0.0
 40
0.0
 40
0.0
 40
1.0
 40
1.0
 40
1.0
 40
1.0
 10
674.9295138952
 20
517.5278875283
 30
0.0
 10
674.7714384436
 20
517.5938109978
 30
0.0
 10
674.5987831744
 20
517.6374231479
 30
0.0
 10
674.4275121837
 20
517.6374231479
 30
0.0
  0
SPLINE
  5
454
100
AcDbEntity
  8
AXES
100
AcDbSpline
 62
8
  6
HIDDEN
 70
0
 71
3
 72
9
 73
5
 74
0
 42
0.0000001
 43
0.0000001
 44
0.0000000001
 40
0.0
 40
0.0
 40
0.0
 40
0.0
 40
0.2737917162
 40
1.0
 40
1.0
 40
1.0
 40
1.0
 10
210.8017083278
 20
29.736015436
 30
0.0
 10
210.7318050436
 20
29.8201248715
 30
0.0
 10
210.4775218647
 20
30.1266493659
 30
0.0
 10
210.2354990199
 20
30.4544840077
 30
0.0
 10
210.1238439474
 20
30.7222175804
 30
0.0
  0
SPLINE
  5
455
100
AcDbEntity
  8
AXES
100
AcDbSpline
 62
8
  6
HIDDEN
 70
0
 71
3
 72
8
 73
4
 74
0
 42
0.0000001
 43
0.0000001
 44
0.0000000001
 40
0.0
 40
0.0
 40
0.0
 40
0.0
 40
1.0
 40
1.0
 40
1.0
 40
1.0
 10
210.1238439474
 20
30.7222175804
 30
0.0
 10
210.0579204778
 20
30.8802930321
 30
0.0
 10
210.0143083278
 20
31.0529483013
 30
0.0
 10
210.0143083278
 20
31.224219292
 30
0.0
  0
SPLINE
  5
456
100
AcDbEntity
  8
AXES
100
AcDbSpline
 62
8
  6
HIDDEN
 70
0
 71
3
 72
9
 73
5
 74
0
 42
0.0000001
 43
0.0000001
 44
0.0000000001
 40
0.0
 40
0.0
 40
0.0
 40
0.0
 40
0.2737917162
 40
1.0
 40
1.0
 40
1.0
 40
1.0
 10
634.0265083278
 20
29.736015436
 30
0.0
 10
634.0964116119
 20
29.8201248715
 30
0.0
 10
634.3506947908
 20
30.1266493659
 30
0.0
 10
634.5927176356
 20
30.4544840077
 30
0.0
 10
634.7043727082
 20
30.7222175804
 30
0.0
  0
SPLINE
  5
457
100
AcDbEntity
  8
AXES
100
AcDbSpline
 62
8
  6
HIDDEN
 70
0
 71
3
 72
8
 73
4
 74
0
 42
0.0000001
 43
0.0000001
 44
0.0000000001
 40
0.0
 40
0.0
 40
0.0
 40
0.0
 40
1.0
 40
1.0
 40
1.0
 40
1.0
 10
634.7043727082
 20
30.7222175804
 30
0.0
 10
634.7702961777
 20
30.8802930321
 30
0.0
 10
634.8139083278
 20
31.0529483013
 30
0.0
 10
634.8139083278
 20
31.224219292
 30
0.0
  0
SPLINE
  5
458
100
AcDbEntity
  8
AXES
100
AcDbSpline
 62
8
  6
HIDDEN
 70
0
 71
3
 72
9
 73
5
 74
0
 42
0.0000001
 43
0.0000001
 44
0.0000000001
 40
0.0
 40
0.0
 40
0.0
 40
0.0
 40
0.2737917162
 40
1.0
 40
1.0
 40
1.0
 40
1.0
 10
168.9125006159
 20
516.8500231479
 30
0.0
 10
168.9966100514
 20
516.9199264321
 30
0.0
 10
169.3031345458
 20
517.1742096109
 30
0.0
 10
169.6309691876
 20
517.4162324558
 30
0.0
 10
169.8987027603
 20
517.5278875283
 30
0.0
  0
SPLINE
  5
459
100
AcDbEntity
  8
AXES
100
AcDbSpline
 62
8
  6
HIDDEN
 70
0
 71
3
 72
8
 73
4
 74
0
 42
0.0000001
 43
0.0000001
 44
0.0000000001
 40
0.0
 40
0.0
 40
0.0
 40
0.0
 40
1.0
 40
1.0
 40
1.0
 40
1.0
 10
169.8987027603
 20
517.5278875283
 30
0.0
 10
170.056778212
 20
517.5938109978
 30
0.0
 10
170.2294334811
 20
517.6374231479
 30
0.0
 10
170.4007044718
 20
517.6374231479
 30
0.0
  0
SPLINE
  5
45A
100
AcDbEntity
  8
AXES
100
AcDbSpline
 62
8
  6
HIDDEN
 70
0
 71
3
 72
9
 73
5
 74
0
 42
0.0000001
 43
0.0000001
 44
0.0000000001
 40
0.0
 40
0.0
 40
0.0
 40
0.0
 40
0.2737917162
 40
1.0
 40
1.0
 40
1.0
 40
1.0
 10
168.9125006159
 20
71.6252231479
 30
0.0
 10
168.9966100514
 20
71.5553198637
 30
0.0
 10
169.3031345458
 20
71.3010366849
 30
0.0
 10
169.6309691876
 20
71.05901384
 30
0.0
 10
169.8987027603
 20
70.9473587675
 30
0.0
  0
SPLINE
  5
45B
100
AcDbEntity
  8
AXES
100
AcDbSpline
 62
8
  6
HIDDEN
 70
0
 71
3
 72
8
 73
4
 74
0
 42
0.0000001
 43
0.0000001
 44
0.0000000001
 40
0.0
 40
0.0
 40
0.0
 40
0.0
 40
1.0
 40
1.0
 40
1.0
 40
1.0
 10
169.8987027603
 20
70.9473587675
 30
0.0
 10
170.056778212
 20
70.881435298
 30
0.0
 10
170.2294334811
 20
70.8378231479
 30
0.0
 10
170.4007044718
 20
70.8378231479
 30
0.0
  0
SPLINE
  5
45C
100
AcDbEntity
  8
AXES
100
AcDbSpline
 62
8
  6
HIDDEN
 70
0
 71
3
 72
9
 73
5
 74
0
 42
0.0000001
 43
0.0000001
 44
0.0000000001
 40
0.0
 40
0.0
 40
0.0
 40
0.0
 40
0.2737917162
 40
1.0
 40
1.0
 40
1.0
 40
1.0
 10
634.0265083278
 20
558.7392308598
 30
0.0
 10
634.0964116119
 20
558.6551214243
 30
0.0
 10
634.3506947908
 20
558.3485969299
 30
0.0
 10
634.5927176356
 20
558.0207622881
 30
0.0
 10
634.7043727082
 20
557.7530287154
 30
0.0
  0
SPLINE
  5
45D
100
AcDbEntity
  8
AXES
100
AcDbSpline
 62
8
  6
HIDDEN
 70
0
 71
3
 72
8
 73
4
 74
0
 42
0.0000001
 43
0.0000001
 44
0.0000000001
 40
0.0
 40
0.0
 40
0.0
 40
0.0
 40
1.0
 40
1.0
 40
1.0
 40
1.0
 10
634.7043727082
 20
557.7530287154
 30
0.0
 10
634.7702961777
 20
557.5949532637
 30
0.0
 10
634.8139083278
 20
557.4222979945
 30
0.0
 10
634.8139083278
 20
557.2510270038
 30
0.0
  0
SPLINE
  5
45E
100
AcDbEntity
  8
AXES
100
AcDbSpline
 62
8
  6
HIDDEN
 70
0
 71
3
 72
9
 73
5
 74
0
 42
0.0000001
 43
0.0000001
 44
0.0000000001
 40
0.0
 40
0.0
 40
0.0
 40
0.0
 40
0.2737917162
 40
1.0
 40
1.0
 40
1.0
 40
1.0
 10
210.8017083278
 20
558.7392308598
 30
0.0
 10
210.7318050436
 20
558.6551214243
 30
0.0
 10
210.4775218647
 20
558.3485969299
 30
0.0
 10
210.2354990199
 20
558.0207622881
 30
0.0
 10
210.1238439474
 20
557.7530287154
 30
0.0
  0
SPLINE
  5
45F
100
AcDbEntity
  8
AXES
100
AcDbSpline
 62
8
  6
HIDDEN
 70
0
 71
3
 72
8
 73
4
 74
0
 42
0.0000001
 43
0.0000001
 44
0.0000000001
 40
0.0
 40
0.0
 40
0.0
 40
0.0
 40
1.0
 40
1.0
 40
1.0
 40
1.0
 10
210.1238439474
 20
557.7530287154
 30
0.0
 10
210.0579204778
 20
557.5949532637
 30
0.0
 10
210.0143083278
 20
557.4222979945
 30
0.0
 10
210.0143083278
 20
557.2510270038
 30
0.0
  0
SPLINE
  5
460
100
AcDbEntity
  8
AXES
100
AcDbSpline
 62
7
  6
CONTINUOUS
 70
0
 71
3
 72
9
 73
5
 74
0
 42
0.0000001
 43
0.0000001
 44
0.0000000001
 40
0.0
 40
0.0
 40
0.0
 40
0.0
 40
0.221211611
 40
1.0
 40
1.0
 40
1.0
 40
1.0
 10
161.6726357067
 20
510.0139099464
 30
0.0
 10
161.6454388841
 20
509.9849441516
 30
0.0
 10
161.5286076414
 20
509.8482470597
 30
0.0
 10
161.4323121144
 20
509.6953364992
 30
0.0
 10
161.3629385577
 20
509.5738702597
 30
0.0
  0
SPLINE
  5
461
100
AcDbEntity
  8
AXES
100
AcDbSpline
 62
7
  6
CONTINUOUS
 70
0
 71
3
 72
9
 73
5
 74
0
 42
0.0000001
 43
0.0000001
 44
0.0000000001
 40
0.0
 40
0.0
 40
0.0
 40
0.0
 40
0.2318228951
 40
1.0
 40
1.0
 40
1.0
 40
1.0
 10
161.3629385577
 20
509.5738702597
 30
0.0
 10
161.3405631696
 20
509.5346931672
 30
0.0
 10
161.2467513451
 20
509.3641486983
 30
0.0
 10
161.1620090535
 20
509.1887606673
 30
0.0
 10
161.0996219799
 20
509.0529001913
 30
0.0
  0
SPLINE
  5
462
100
AcDbEntity
  8
AXES
100
AcDbSpline
 62
7
  6
CONTINUOUS
 70
0
 71
3
 72
9
 73
5
 74
0
 42
0.0000001
 43
0.0000001
 44
0.0000000001
 40
0.0
 40
0.0
 40
0.0
 40
0.0
 40
0.2285051901
 40
1.0
 40
1.0
 40
1.0
 40
1.0
 10
161.0996219799
 20
509.0529001913
 30
0.0
 10
161.0581907761
 20
508.9626753622
 30
0.0
 10
160.8824079157
 20
508.565283256
 30
0.0
 10
160.721456199
 20
508.1615813907
 30
0.0
 10
160.5978218108
 20
507.850009474
 30
0.0
  0
SPLINE
  5
463
100
AcDbEntity
  8
AXES
100
AcDbSpline
 62
7
  6
CONTINUOUS
 70
0
 71
3
 72
9
 73
5
 74
0
 42
0.0000001
 43
0.0000001
 44
0.0000000001
 40
0.0
 40
0.0
 40
0.0
 40
0.0
 40
0.221211611
 40
1.0
 40
1.0
 40
1.0
 40
1.0
 10
161.6726357067
 20
78.4613363494
 30
0.0
 10
161.6454388841
 20
78.4903021442
 30
0.0
 10
161.5286076414
 20
78.6269992361
 30
0.0
 10
161.4323121144
 20
78.7799097966
 30
0.0
 10
161.3629385577
 20
78.9013760361
 30
0.0
  0
SPLINE
  5
464
100
AcDbEntity
  8
AXES
100
AcDbSpline
 62
7
  6
CONTINUOUS
 70
0
 71
3
 72
9
 73
5
 74
0
 42
0.0000001
 43
0.0000001
 44
0.0000000001
 40
0.0
 40
0.0
 40
0.0
 40
0.0
 40
0.2318228951
 40
1.0
 40
1.0
 40
1.0
 40
1.0
 10
161.3629385577
 20
78.9013760361
 30
0.0
 10
161.3405631696
 20
78.9405531286
 30
0.0
 10
161.2467513451
 20
79.1110975975
 30
0.0
 10
161.1620090535
 20
79.2864856285
 30
0.0
 10
161.0996219799
 20
79.4223461045
 30
0.0
  0
SPLINE
  5
465
100
AcDbEntity
  8
AXES
100
AcDbSpline
 62
7
  6
CONTINUOUS
 70
0
 71
3
 72
9
 73
5
 74
0
 42
0.0000001
 43
0.0000001
 44
0.0000000001
 40
0.0
 40
0.0
 40
0.0
 40
0.0
 40
0.2285051901
 40
1.0
 40
1.0
 40
1.0
 40
1.0
 10
161.0996219799
 20
79.4223461045
 30
0.0
 10
161.0581907761
 20
79.5125709336
 30
0.0
 10
160.8824079157
 20
79.9099630398
 30
0.0
 10
160.721456199
 20
80.3136649051
 30
0.0
 10
160.5978218108
 20
80.6252368218
 30
0.0
  0
SPLINE
  5
466
100
AcDbEntity
  8
AXES
100
AcDbSpline
 62
7
  6
CONTINUOUS
 70
0
 71
3
 72
8
 73
4
 74
0
 42
0.0000001
 43
0.0000001
 44
0.0000000001
 40
0.0
 40
0.0
 40
0.0
 40
0.0
 40
1.0
 40
1.0
 40
1.0
 40
1.0
 10
161.7463556747
 20
510.0450653511
 30
0.0
 10
161.8742400228
 20
510.0899831551
 30
0.0
 10
161.9964641639
 20
510.1520039475
 30
0.0
 10
162.1122271174
 20
510.2225089414
 30
0.0
  0
SPLINE
  5
467
100
AcDbEntity
  8
AXES
100
AcDbSpline
 62
7
  6
CONTINUOUS
 70
0
 71
3
 72
8
 73
4
 74
0
 42
0.0000001
 43
0.0000001
 44
0.0000000001
 40
0.0
 40
0.0
 40
0.0
 40
0.0
 40
1.0
 40
1.0
 40
1.0
 40
1.0
 10
162.1122271174
 20
510.2225089414
 30
0.0
 10
162.2354618582
 20
510.2975645994
 30
0.0
 10
162.3526631107
 20
510.3825555516
 30
0.0
 10
162.4667193916
 20
510.4709372119
 30
0.0
  0
SPLINE
  5
468
100
AcDbEntity
  8
AXES
100
AcDbSpline
 62
7
  6
CONTINUOUS
 70
0
 71
3
 72
8
 73
4
 74
0
 42
0.0000001
 43
0.0000001
 44
0.0000000001
 40
0.0
 40
0.0
 40
0.0
 40
0.0
 40
1.0
 40
1.0
 40
1.0
 40
1.0
 10
162.4667193916
 20
510.4709372119
 30
0.0
 10
162.5870134672
 20
510.5641525092
 30
0.0
 10
162.7041306271
 20
510.6614211307
 30
0.0
 10
162.8211695706
 20
510.7586921026
 30
0.0
  0
SPLINE
  5
469
100
AcDbEntity
  8
AXES
100
AcDbSpline
 62
7
  6
CONTINUOUS
 70
0
 71
3
 72
8
 73
4
 74
0
 42
0.0000001
 43
0.0000001
 44
0.0000000001
 40
0.0
 40
0.0
 40
0.0
 40
0.0
 40
1.0
 40
1.0
 40
1.0
 40
1.0
 10
161.7463556747
 20
78.4301809447
 30
0.0
 10
161.8742400228
 20
78.3852631407
 30
0.0
 10
161.9964641639
 20
78.3232423483
 30
0.0
 10
162.1122271174
 20
78.2527373544
 30
0.0
  0
SPLINE
  5
46A
100
AcDbEntity
  8
AXES
100
AcDbSpline
 62
7
  6
CONTINUOUS
 70
0
 71
3
 72
8
 73
4
 74
0
 42
0.0000001
 43
0.0000001
 44
0.0000000001
 40
0.0
 40
0.0
 40
0.0
 40
0.0
 40
1.0
 40
1.0
 40
1.0
 40
1.0
 10
162.1122271174
 20
78.2527373544
 30
0.0
 10
162.2354618582
 20
78.1776816964
 30
0.0
 10
162.3526631107
 20
78.0926907442
 30
0.0
 10
162.4667193916
 20
78.0043090839
 30
0.0
  0
SPLINE
  5
46B
100
AcDbEntity
  8
AXES
100
AcDbSpline
 62
7
  6
CONTINUOUS
 70
0
 71
3
 72
8
 73
4
 74
0
 42
0.0000001
 43
0.0000001
 44
0.0000000001
 40
0.0
 40
0.0
 40
0.0
 40
0.0
 40
1.0
 40
1.0
 40
1.0
 40
1.0
 10
162.4667193916
 20
78.0043090839
 30
0.0
 10
162.5870134672
 20
77.9110937866
 30
0.0
 10
162.7041306271
 20
77.8138251651
 30
0.0
 10
162.8211695706
 20
77.7165541932
 30
0.0
  0
SPLINE
  5
46C
100
AcDbEntity
  8
AXES
100
AcDbSpline
 62
7
  6
CONTINUOUS
 70
0
 71
3
 72
9
 73
5
 74
0
 42
0.0000001
 43
0.0000001
 44
0.0000000001
 40
0.0
 40
0.0
 40
0.0
 40
0.0
 40
0.221211611
 40
1.0
 40
1.0
 40
1.0
 40
1.0
 10
627.1903951263
 20
565.979095769
 30
0.0
 10
627.1614293315
 20
566.0062925916
 30
0.0
 10
627.0247322396
 20
566.1231238343
 30
0.0
 10
626.8718216791
 20
566.2194193613
 30
0.0
 10
626.7503554395
 20
566.288792918
 30
0.0
  0
SPLINE
  5
46D
100
AcDbEntity
  8
AXES
100
AcDbSpline
 62
7
  6
CONTINUOUS
 70
0
 71
3
 72
9
 73
5
 74
0
 42
0.0000001
 43
0.0000001
 44
0.0000000001
 40
0.0
 40
0.0
 40
0.0
 40
0.0
 40
0.2318228951
 40
1.0
 40
1.0
 40
1.0
 40
1.0
 10
626.7503554395
 20
566.288792918
 30
0.0
 10
626.711178347
 20
566.3111683061
 30
0.0
 10
626.5406338781
 20
566.4049801306
 30
0.0
 10
626.3652458472
 20
566.4897224222
 30
0.0
 10
626.2293853712
 20
566.5521094958
 30
0.0
  0
SPLINE
  5
46E
100
AcDbEntity
  8
AXES
100
AcDbSpline
 62
7
  6
CONTINUOUS
 70
0
 71
3
 72
9
 73
5
 74
0
 42
0.0000001
 43
0.0000001
 44
0.0000000001
 40
0.0
 40
0.0
 40
0.0
 40
0.0
 40
0.2285051901
 40
1.0
 40
1.0
 40
1.0
 40
1.0
 10
626.2293853712
 20
566.5521094958
 30
0.0
 10
626.1391605421
 20
566.5935406995
 30
0.0
 10
625.7417684359
 20
566.76932356
 30
0.0
 10
625.3380665706
 20
566.9302752767
 30
0.0
 10
625.0264946539
 20
567.0539096649
 30
0.0
  0
SPLINE
  5
46F
100
AcDbEntity
  8
AXES
100
AcDbSpline
 62
7
  6
CONTINUOUS
 70
0
 71
3
 72
9
 73
5
 74
0
 42
0.0000001
 43
0.0000001
 44
0.0000000001
 40
0.0
 40
0.0
 40
0.0
 40
0.0
 40
0.221211611
 40
1.0
 40
1.0
 40
1.0
 40
1.0
 10
217.6378215293
 20
565.979095769
 30
0.0
 10
217.6667873241
 20
566.0062925916
 30
0.0
 10
217.803484416
 20
566.1231238343
 30
0.0
 10
217.9563949764
 20
566.2194193613
 30
0.0
 10
218.077861216
 20
566.288792918
 30
0.0
  0
SPLINE
  5
470
100
AcDbEntity
  8
AXES
100
AcDbSpline
 62
7
  6
CONTINUOUS
 70
0
 71
3
 72
9
 73
5
 74
0
 42
0.0000001
 43
0.0000001
 44
0.0000000001
 40
0.0
 40
0.0
 40
0.0
 40
0.0
 40
0.2318228951
 40
1.0
 40
1.0
 40
1.0
 40
1.0
 10
218.077861216
 20
566.288792918
 30
0.0
 10
218.1170383085
 20
566.3111683061
 30
0.0
 10
218.2875827774
 20
566.4049801306
 30
0.0
 10
218.4629708083
 20
566.4897224222
 30
0.0
 10
218.5988312843
 20
566.5521094958
 30
0.0
  0
SPLINE
  5
471
100
AcDbEntity
  8
AXES
100
AcDbSpline
 62
7
  6
CONTINUOUS
 70
0
 71
3
 72
9
 73
5
 74
0
 42
0.0000001
 43
0.0000001
 44
0.0000000001
 40
0.0
 40
0.0
 40
0.0
 40
0.0
 40
0.2285051901
 40
1.0
 40
1.0
 40
1.0
 40
1.0
 10
218.5988312843
 20
566.5521094958
 30
0.0
 10
218.6890561135
 20
566.5935406995
 30
0.0
 10
219.0864482197
 20
566.76932356
 30
0.0
 10
219.490150085
 20
566.9302752767
 30
0.0
 10
219.8017220016
 20
567.0539096649
 30
0.0
  0
SPLINE
  5
472
100
AcDbEntity
  8
AXES
100
AcDbSpline
 62
7
  6
CONTINUOUS
 70
0
 71
3
 72
8
 73
4
 74
0
 42
0.0000001
 43
0.0000001
 44
0.0000000001
 40
0.0
 40
0.0
 40
0.0
 40
0.0
 40
1.0
 40
1.0
 40
1.0
 40
1.0
 10
627.221550531
 20
565.905375801
 30
0.0
 10
627.2664683349
 20
565.7774914529
 30
0.0
 10
627.3284891273
 20
565.6552673118
 30
0.0
 10
627.3989941213
 20
565.5395043582
 30
0.0
  0
SPLINE
  5
473
100
AcDbEntity
  8
AXES
100
AcDbSpline
 62
7
  6
CONTINUOUS
 70
0
 71
3
 72
8
 73
4
 74
0
 42
0.0000001
 43
0.0000001
 44
0.0000000001
 40
0.0
 40
0.0
 40
0.0
 40
0.0
 40
1.0
 40
1.0
 40
1.0
 40
1.0
 10
627.3989941213
 20
565.5395043582
 30
0.0
 10
627.4740497793
 20
565.4162696175
 30
0.0
 10
627.5590407314
 20
565.299068365
 30
0.0
 10
627.6474223918
 20
565.1850120841
 30
0.0
  0
SPLINE
  5
474
100
AcDbEntity
  8
AXES
100
AcDbSpline
 62
7
  6
CONTINUOUS
 70
0
 71
3
 72
8
 73
4
 74
0
 42
0.0000001
 43
0.0000001
 44
0.0000000001
 40
0.0
 40
0.0
 40
0.0
 40
0.0
 40
1.0
 40
1.0
 40
1.0
 40
1.0
 10
627.6474223918
 20
565.1850120841
 30
0.0
 10
627.7406376891
 20
565.0647180084
 30
0.0
 10
627.8379063106
 20
564.9476008486
 30
0.0
 10
627.9351772825
 20
564.8305619051
 30
0.0
  0
SPLINE
  5
475
100
AcDbEntity
  8
AXES
100
AcDbSpline
 62
7
  6
CONTINUOUS
 70
0
 71
3
 72
8
 73
4
 74
0
 42
0.0000001
 43
0.0000001
 44
0.0000000001
 40
0.0
 40
0.0
 40
0.0
 40
0.0
 40
1.0
 40
1.0
 40
1.0
 40
1.0
 10
217.6066661246
 20
565.905375801
 30
0.0
 10
217.5617483206
 20
565.7774914529
 30
0.0
 10
217.4997275282
 20
565.6552673118
 30
0.0
 10
217.4292225343
 20
565.5395043582
 30
0.0
  0
SPLINE
  5
476
100
AcDbEntity
  8
AXES
100
AcDbSpline
 62
7
  6
CONTINUOUS
 70
0
 71
3
 72
8
 73
4
 74
0
 42
0.0000001
 43
0.0000001
 44
0.0000000001
 40
0.0
 40
0.0
 40
0.0
 40
0.0
 40
1.0
 40
1.0
 40
1.0
 40
1.0
 10
217.4292225343
 20
565.5395043582
 30
0.0
 10
217.3541668763
 20
565.4162696175
 30
0.0
 10
217.2691759241
 20
565.299068365
 30
0.0
 10
217.1807942637
 20
565.1850120841
 30
0.0
  0
SPLINE
  5
477
100
AcDbEntity
  8
AXES
100
AcDbSpline
 62
7
  6
CONTINUOUS
 70
0
 71
3
 72
8
 73
4
 74
0
 42
0.0000001
 43
0.0000001
 44
0.0000000001
 40
0.0
 40
0.0
 40
0.0
 40
0.0
 40
1.0
 40
1.0
 40
1.0
 40
1.0
 10
217.1807942637
 20
565.1850120841
 30
0.0
 10
217.0875789664
 20
565.0647180084
 30
0.0
 10
216.9903103449
 20
564.9476008486
 30
0.0
 10
216.8930393731
 20
564.8305619051
 30
0.0
  0
SPLINE
  5
478
100
AcDbEntity
  8
AXES
100
AcDbSpline
 62
7
  6
CONTINUOUS
 70
0
 71
3
 72
9
 73
5
 74
0
 42
0.0000001
 43
0.0000001
 44
0.0000000001
 40
0.0
 40
0.0
 40
0.0
 40
0.0
 40
0.221211611
 40
1.0
 40
1.0
 40
1.0
 40
1.0
 10
683.1555809489
 20
78.4613363494
 30
0.0
 10
683.1827777715
 20
78.4903021442
 30
0.0
 10
683.2996090142
 20
78.6269992361
 30
0.0
 10
683.3959045412
 20
78.7799097966
 30
0.0
 10
683.4652780979
 20
78.9013760361
 30
0.0
  0
SPLINE
  5
479
100
AcDbEntity
  8
AXES
100
AcDbSpline
 62
7
  6
CONTINUOUS
 70
0
 71
3
 72
9
 73
5
 74
0
 42
0.0000001
 43
0.0000001
 44
0.0000000001
 40
0.0
 40
0.0
 40
0.0
 40
0.0
 40
0.2318228951
 40
1.0
 40
1.0
 40
1.0
 40
1.0
 10
683.4652780979
 20
78.9013760361
 30
0.0
 10
683.487653486
 20
78.9405531286
 30
0.0
 10
683.5814653105
 20
79.1110975975
 30
0.0
 10
683.6662076021
 20
79.2864856285
 30
0.0
 10
683.7285946757
 20
79.4223461045
 30
0.0
  0
SPLINE
  5
47A
100
AcDbEntity
  8
AXES
100
AcDbSpline
 62
7
  6
CONTINUOUS
 70
0
 71
3
 72
9
 73
5
 74
0
 42
0.0000001
 43
0.0000001
 44
0.0000000001
 40
0.0
 40
0.0
 40
0.0
 40
0.0
 40
0.2285051901
 40
1.0
 40
1.0
 40
1.0
 40
1.0
 10
683.7285946757
 20
79.4223461045
 30
0.0
 10
683.7700258794
 20
79.5125709336
 30
0.0
 10
683.9458087398
 20
79.9099630398
 30
0.0
 10
684.1067604566
 20
80.3136649051
 30
0.0
 10
684.2303948448
 20
80.6252368218
 30
0.0
  0
SPLINE
  5
47B
100
AcDbEntity
  8
AXES
100
AcDbSpline
 62
7
  6
CONTINUOUS
 70
0
 71
3
 72
9
 73
5
 74
0
 42
0.0000001
 43
0.0000001
 44
0.0000000001
 40
0.0
 40
0.0
 40
0.0
 40
0.0
 40
0.221211611
 40
1.0
 40
1.0
 40
1.0
 40
1.0
 10
683.1555809489
 20
510.0139099464
 30
0.0
 10
683.1827777715
 20
509.9849441516
 30
0.0
 10
683.2996090142
 20
509.8482470597
 30
0.0
 10
683.3959045412
 20
509.6953364992
 30
0.0
 10
683.4652780979
 20
509.5738702597
 30
0.0
  0
SPLINE
  5
47C
100
AcDbEntity
  8
AXES
100
AcDbSpline
 62
7
  6
CONTINUOUS
 70
0
 71
3
 72
9
 73
5
 74
0
 42
0.0000001
 43
0.0000001
 44
0.0000000001
 40
0.0
 40
0.0
 40
0.0
 40
0.0
 40
0.2318228951
 40
1.0
 40
1.0
 40
1.0
 40
1.0
 10
683.4652780979
 20
509.5738702597
 30
0.0
 10
683.487653486
 20
509.5346931672
 30
0.0
 10
683.5814653105
 20
509.3641486983
 30
0.0
 10
683.6662076021
 20
509.1887606673
 30
0.0
 10
683.7285946757
 20
509.0529001913
 30
0.0
  0
SPLINE
  5
47D
100
AcDbEntity
  8
AXES
100
AcDbSpline
 62
7
  6
CONTINUOUS
 70
0
 71
3
 72
9
 73
5
 74
0
 42
0.0000001
 43
0.0000001
 44
0.0000000001
 40
0.0
 40
0.0
 40
0.0
 40
0.0
 40
0.2285051901
 40
1.0
 40
1.0
 40
1.0
 40
1.0
 10
683.7285946757
 20
509.0529001913
 30
0.0
 10
683.7700258794
 20
508.9626753622
 30
0.0
 10
683.9458087398
 20
508.565283256
 30
0.0
 10
684.1067604566
 20
508.1615813907
 30
0.0
 10
684.2303948448
 20
507.850009474
 30
0.0
  0
SPLINE
  5
47E
100
AcDbEntity
  8
AXES
100
AcDbSpline
 62
7
  6
CONTINUOUS
 70
0
 71
3
 72
8
 73
4
 74
0
 42
0.0000001
 43
0.0000001
 44
0.0000000001
 40
0.0
 40
0.0
 40
0.0
 40
0.0
 40
1.0
 40
1.0
 40
1.0
 40
1.0
 10
683.0818609809
 20
78.4301809447
 30
0.0
 10
682.9539766328
 20
78.3852631407
 30
0.0
 10
682.8317524917
 20
78.3232423483
 30
0.0
 10
682.7159895381
 20
78.2527373544
 30
0.0
  0
SPLINE
  5
47F
100
AcDbEntity
  8
AXES
100
AcDbSpline
 62
7
  6
CONTINUOUS
 70
0
 71
3
 72
8
 73
4
 74
0
 42
0.0000001
 43
0.0000001
 44
0.0000000001
 40
0.0
 40
0.0
 40
0.0
 40
0.0
 40
1.0
 40
1.0
 40
1.0
 40
1.0
 10
682.7159895381
 20
78.2527373544
 30
0.0
 10
682.5927547974
 20
78.1776816964
 30
0.0
 10
682.4755535449
 20
78.0926907442
 30
0.0
 10
682.3614972639
 20
78.0043090839
 30
0.0
  0
SPLINE
  5
480
100
AcDbEntity
  8
AXES
100
AcDbSpline
 62
7
  6
CONTINUOUS
 70
0
 71
3
 72
8
 73
4
 74
0
 42
0.0000001
 43
0.0000001
 44
0.0000000001
 40
0.0
 40
0.0
 40
0.0
 40
0.0
 40
1.0
 40
1.0
 40
1.0
 40
1.0
 10
682.3614972639
 20
78.0043090839
 30
0.0
 10
682.2412031883
 20
77.9110937866
 30
0.0
 10
682.1240860285
 20
77.8138251651
 30
0.0
 10
682.0070470849
 20
77.7165541932
 30
0.0
  0
SPLINE
  5
481
100
AcDbEntity
  8
AXES
100
AcDbSpline
 62
7
  6
CONTINUOUS
 70
0
 71
3
 72
8
 73
4
 74
0
 42
0.0000001
 43
0.0000001
 44
0.0000000001
 40
0.0
 40
0.0
 40
0.0
 40
0.0
 40
1.0
 40
1.0
 40
1.0
 40
1.0
 10
683.0818609809
 20
510.0450653511
 30
0.0
 10
682.9539766328
 20
510.0899831551
 30
0.0
 10
682.8317524917
 20
510.1520039475
 30
0.0
 10
682.7159895381
 20
510.2225089414
 30
0.0
  0
SPLINE
  5
482
100
AcDbEntity
  8
AXES
100
AcDbSpline
 62
7
  6
CONTINUOUS
 70
0
 71
3
 72
8
 73
4
 74
0
 42
0.0000001
 43
0.0000001
 44
0.0000000001
 40
0.0
 40
0.0
 40
0.0
 40
0.0
 40
1.0
 40
1.0
 40
1.0
 40
1.0
 10
682.7159895381
 20
510.2225089414
 30
0.0
 10
682.5927547974
 20
510.2975645994
 30
0.0
 10
682.4755535449
 20
510.3825555516
 30
0.0
 10
682.3614972639
 20
510.4709372119
 30
0.0
  0
SPLINE
  5
483
100
AcDbEntity
  8
AXES
100
AcDbSpline
 62
7
  6
CONTINUOUS
 70
0
 71
3
 72
8
 73
4
 74
0
 42
0.0000001
 43
0.0000001
 44
0.0000000001
 40
0.0
 40
0.0
 40
0.0
 40
0.0
 40
1.0
 40
1.0
 40
1.0
 40
1.0
 10
682.3614972639
 20
510.4709372119
 30
0.0
 10
682.2412031883
 20
510.5641525092
 30
0.0
 10
682.1240860285
 20
510.6614211307
 30
0.0
 10
682.0070470849
 20
510.7586921026
 30
0.0
  0
SPLINE
  5
484
100
AcDbEntity
  8
AXES
100
AcDbSpline
 62
7
  6
CONTINUOUS
 70
0
 71
3
 72
9
 73
5
 74
0
 42
0.0000001
 43
0.0000001
 44
0.0000000001
 40
0.0
 40
0.0
 40
0.0
 40
0.0
 40
0.221211611
 40
1.0
 40
1.0
 40
1.0
 40
1.0
 10
627.1903951263
 20
22.4961505268
 30
0.0
 10
627.1614293315
 20
22.4689537042
 30
0.0
 10
627.0247322396
 20
22.3521224615
 30
0.0
 10
626.8718216791
 20
22.2558269345
 30
0.0
 10
626.7503554395
 20
22.1864533778
 30
0.0
  0
SPLINE
  5
485
100
AcDbEntity
  8
AXES
100
AcDbSpline
 62
7
  6
CONTINUOUS
 70
0
 71
3
 72
9
 73
5
 74
0
 42
0.0000001
 43
0.0000001
 44
0.0000000001
 40
0.0
 40
0.0
 40
0.0
 40
0.0
 40
0.2318228951
 40
1.0
 40
1.0
 40
1.0
 40
1.0
 10
626.7503554395
 20
22.1864533778
 30
0.0
 10
626.711178347
 20
22.1640779897
 30
0.0
 10
626.5406338781
 20
22.0702661652
 30
0.0
 10
626.3652458472
 20
21.9855238736
 30
0.0
 10
626.2293853712
 20
21.9231368
 30
0.0
  0
SPLINE
  5
486
100
AcDbEntity
  8
AXES
100
AcDbSpline
 62
7
  6
CONTINUOUS
 70
0
 71
3
 72
9
 73
5
 74
0
 42
0.0000001
 43
0.0000001
 44
0.0000000001
 40
0.0
 40
0.0
 40
0.0
 40
0.0
 40
0.2285051901
 40
1.0
 40
1.0
 40
1.0
 40
1.0
 10
626.2293853712
 20
21.9231368
 30
0.0
 10
626.1391605421
 20
21.8817055963
 30
0.0
 10
625.7417684359
 20
21.7059227358
 30
0.0
 10
625.3380665706
 20
21.5449710191
 30
0.0
 10
625.0264946539
 20
21.4213366309
 30
0.0
  0
SPLINE
  5
487
100
AcDbEntity
  8
AXES
100
AcDbSpline
 62
7
  6
CONTINUOUS
 70
0
 71
3
 72
9
 73
5
 74
0
 42
0.0000001
 43
0.0000001
 44
0.0000000001
 40
0.0
 40
0.0
 40
0.0
 40
0.0
 40
0.221211611
 40
1.0
 40
1.0
 40
1.0
 40
1.0
 10
217.6378215293
 20
22.4961505268
 30
0.0
 10
217.6667873241
 20
22.4689537042
 30
0.0
 10
217.803484416
 20
22.3521224615
 30
0.0
 10
217.9563949764
 20
22.2558269345
 30
0.0
 10
218.077861216
 20
22.1864533778
 30
0.0
  0
SPLINE
  5
488
100
AcDbEntity
  8
AXES
100
AcDbSpline
 62
7
  6
CONTINUOUS
 70
0
 71
3
 72
9
 73
5
 74
0
 42
0.0000001
 43
0.0000001
 44
0.0000000001
 40
0.0
 40
0.0
 40
0.0
 40
0.0
 40
0.2318228951
 40
1.0
 40
1.0
 40
1.0
 40
1.0
 10
218.077861216
 20
22.1864533778
 30
0.0
 10
218.1170383085
 20
22.1640779897
 30
0.0
 10
218.2875827774
 20
22.0702661652
 30
0.0
 10
218.4629708083
 20
21.9855238736
 30
0.0
 10
218.5988312843
 20
21.9231368
 30
0.0
  0
SPLINE
  5
489
100
AcDbEntity
  8
AXES
100
AcDbSpline
 62
7
  6
CONTINUOUS
 70
0
 71
3
 72
9
 73
5
 74
0
 42
0.0000001
 43
0.0000001
 44
0.0000000001
 40
0.0
 40
0.0
 40
0.0
 40
0.0
 40
0.2285051901
 40
1.0
 40
1.0
 40
1.0
 40
1.0
 10
218.5988312843
 20
21.9231368
 30
0.0
 10
218.6890561135
 20
21.8817055963
 30
0.0
 10
219.0864482197
 20
21.7059227358
 30
0.0
 10
219.490150085
 20
21.5449710191
 30
0.0
 10
219.8017220016
 20
21.4213366309
 30
0.0
  0
SPLINE
  5
48A
100
AcDbEntity
  8
AXES
100
AcDbSpline
 62
7
  6
CONTINUOUS
 70
0
 71
3
 72
8
 73
4
 74
0
 42
0.0000001
 43
0.0000001
 44
0.0000000001
 40
0.0
 40
0.0
 40
0.0
 40
0.0
 40
1.0
 40
1.0
 40
1.0
 40
1.0
 10
627.221550531
 20
22.5698704948
 30
0.0
 10
627.2664683349
 20
22.6977548429
 30
0.0
 10
627.3284891273
 20
22.819978984
 30
0.0
 10
627.3989941213
 20
22.9357419376
 30
0.0
  0
SPLINE
  5
48B
100
AcDbEntity
  8
AXES
100
AcDbSpline
 62
7
  6
CONTINUOUS
 70
0
 71
3
 72
8
 73
4
 74
0
 42
0.0000001
 43
0.0000001
 44
0.0000000001
 40
0.0
 40
0.0
 40
0.0
 40
0.0
 40
1.0
 40
1.0
 40
1.0
 40
1.0
 10
627.3989941213
 20
22.9357419376
 30
0.0
 10
627.4740497793
 20
23.0589766783
 30
0.0
 10
627.5590407314
 20
23.1761779308
 30
0.0
 10
627.6474223918
 20
23.2902342117
 30
0.0
  0
SPLINE
  5
48C
100
AcDbEntity
  8
AXES
100
AcDbSpline
 62
7
  6
CONTINUOUS
 70
0
 71
3
 72
8
 73
4
 74
0
 42
0.0000001
 43
0.0000001
 44
0.0000000001
 40
0.0
 40
0.0
 40
0.0
 40
0.0
 40
1.0
 40
1.0
 40
1.0
 40
1.0
 10
627.6474223918
 20
23.2902342117
 30
0.0
 10
627.7406376891
 20
23.4105282874
 30
0.0
 10
627.8379063106
 20
23.5276454472
 30
0.0
 10
627.9351772825
 20
23.6446843907
 30
0.0
  0
SPLINE
  5
48D
100
AcDbEntity
  8
AXES
100
AcDbSpline
 62
7
  6
CONTINUOUS
 70
0
 71
3
 72
8
 73
4
 74
0
 42
0.0000001
 43
0.0000001
 44
0.0000000001
 40
0.0
 40
0.0
 40
0.0
 40
0.0
 40
1.0
 40
1.0
 40
1.0
 40
1.0
 10
217.6066661246
 20
22.5698704948
 30
0.0
 10
217.5617483206
 20
22.6977548429
 30
0.0
 10
217.4997275282
 20
22.819978984
 30
0.0
 10
217.4292225343
 20
22.9357419376
 30
0.0
  0
SPLINE
  5
48E
100
AcDbEntity
  8
AXES
100
AcDbSpline
 62
7
  6
CONTINUOUS
 70
0
 71
3
 72
8
 73
4
 74
0
 42
0.0000001
 43
0.0000001
 44
0.0000000001
 40
0.0
 40
0.0
 40
0.0
 40
0.0
 40
1.0
 40
1.0
 40
1.0
 40
1.0
 10
217.4292225343
 20
22.9357419376
 30
0.0
 10
217.3541668763
 20
23.0589766783
 30
0.0
 10
217.2691759241
 20
23.1761779308
 30
0.0
 10
217.1807942637
 20
23.2902342117
 30
0.0
  0
SPLINE
  5
48F
100
AcDbEntity
  8
AXES
100
AcDbSpline
 62
7
  6
CONTINUOUS
 70
0
 71
3
 72
8
 73
4
 74
0
 42
0.0000001
 43
0.0000001
 44
0.0000000001
 40
0.0
 40
0.0
 40
0.0
 40
0.0
 40
1.0
 40
1.0
 40
1.0
 40
1.0
 10
217.1807942637
 20
23.2902342117
 30
0.0
 10
217.0875789664
 20
23.4105282874
 30
0.0
 10
216.9903103449
 20
23.5276454472
 30
0.0
 10
216.8930393731
 20
23.6446843907
 30
0.0
  0
SPLINE
  5
490
100
AcDbEntity
  8
AXES
100
AcDbSpline
 62
7
  6
CONTINUOUS
 70
0
 71
3
 72
9
 73
5
 74
0
 42
0.0000001
 43
0.0000001
 44
0.0000000001
 40
0.0
 40
0.0
 40
0.0
 40
0.0
 40
0.2737788292
 40
1.0
 40
1.0
 40
1.0
 40
1.0
 10
675.9157160396
 20
71.6252231479
 30
0.0
 10
675.8316084518
 20
71.5553213993
 30
0.0
 10
675.5251949616
 20
71.3009019261
 30
0.0
 10
675.197364418
 20
71.0587653782
 30
0.0
 10
674.9295569376
 20
70.9472553514
 30
0.0
  0
SPLINE
  5
491
100
AcDbEntity
  8
AXES
100
AcDbSpline
 62
7
  6
CONTINUOUS
 70
0
 71
3
 72
8
 73
4
 74
0
 42
0.0000001
 43
0.0000001
 44
0.0000000001
 40
0.0
 40
0.0
 40
0.0
 40
0.0
 40
1.0
 40
1.0
 40
1.0
 40
1.0
 10
674.9295569376
 20
70.9472553514
 30
0.0
 10
674.7714384641
 20
70.8814177759
 30
0.0
 10
674.5987898472
 20
70.8378231479
 30
0.0
 10
674.4275121837
 20
70.8378231479
 30
0.0
  0
SPLINE
  5
492
100
AcDbEntity
  8
AXES
100
AcDbSpline
 62
7
  6
CONTINUOUS
 70
0
 71
3
 72
9
 73
5
 74
0
 42
0.0000001
 43
0.0000001
 44
0.0000000001
 40
0.0
 40
0.0
 40
0.0
 40
0.0
 40
0.2737788292
 40
1.0
 40
1.0
 40
1.0
 40
1.0
 10
675.9157160396
 20
516.8500231479
 30
0.0
 10
675.8316084518
 20
516.9199248965
 30
0.0
 10
675.5251949616
 20
517.1743443697
 30
0.0
 10
675.197364418
 20
517.4164809176
 30
0.0
 10
674.9295569376
 20
517.5279909444
 30
0.0
  0
SPLINE
  5
493
100
AcDbEntity
  8
AXES
100
AcDbSpline
 62
7
  6
CONTINUOUS
 70
0
 71
3
 72
8
 73
4
 74
0
 42
0.0000001
 43
0.0000001
 44
0.0000000001
 40
0.0
 40
0.0
 40
0.0
 40
0.0
 40
1.0
 40
1.0
 40
1.0
 40
1.0
 10
674.9295569376
 20
517.5279909444
 30
0.0
 10
674.7714384641
 20
517.5938285199
 30
0.0
 10
674.5987898472
 20
517.6374231479
 30
0.0
 10
674.4275121837
 20
517.6374231479
 30
0.0
  0
SPLINE
  5
494
100
AcDbEntity
  8
AXES
100
AcDbSpline
 62
7
  6
CONTINUOUS
 70
0
 71
3
 72
9
 73
5
 74
0
 42
0.0000001
 43
0.0000001
 44
0.0000000001
 40
0.0
 40
0.0
 40
0.0
 40
0.0
 40
0.2737788292
 40
1.0
 40
1.0
 40
1.0
 40
1.0
 10
210.8017083278
 20
29.736015436
 30
0.0
 10
210.7318065792
 20
29.8201230239
 30
0.0
 10
210.4773871059
 20
30.1265365141
 30
0.0
 10
210.2352505581
 20
30.4543670576
 30
0.0
 10
210.1237405313
 20
30.7221745381
 30
0.0
  0
SPLINE
  5
495
100
AcDbEntity
  8
AXES
100
AcDbSpline
 62
7
  6
CONTINUOUS
 70
0
 71
3
 72
8
 73
4
 74
0
 42
0.0000001
 43
0.0000001
 44
0.0000000001
 40
0.0
 40
0.0
 40
0.0
 40
0.0
 40
1.0
 40
1.0
 40
1.0
 40
1.0
 10
210.1237405313
 20
30.7221745381
 30
0.0
 10
210.0579029557
 20
30.8802930116
 30
0.0
 10
210.0143083278
 20
31.0529416285
 30
0.0
 10
210.0143083278
 20
31.224219292
 30
0.0
  0
SPLINE
  5
496
100
AcDbEntity
  8
AXES
100
AcDbSpline
 62
7
  6
CONTINUOUS
 70
0
 71
3
 72
9
 73
5
 74
0
 42
0.0000001
 43
0.0000001
 44
0.0000000001
 40
0.0
 40
0.0
 40
0.0
 40
0.0
 40
0.2737788292
 40
1.0
 40
1.0
 40
1.0
 40
1.0
 10
634.0265083278
 20
29.736015436
 30
0.0
 10
634.0964100764
 20
29.8201230239
 30
0.0
 10
634.3508295496
 20
30.1265365141
 30
0.0
 10
634.5929660974
 20
30.4543670576
 30
0.0
 10
634.7044761243
 20
30.7221745381
 30
0.0
  0
SPLINE
  5
497
100
AcDbEntity
  8
AXES
100
AcDbSpline
 62
7
  6
CONTINUOUS
 70
0
 71
3
 72
8
 73
4
 74
0
 42
0.0000001
 43
0.0000001
 44
0.0000000001
 40
0.0
 40
0.0
 40
0.0
 40
0.0
 40
1.0
 40
1.0
 40
1.0
 40
1.0
 10
634.7044761243
 20
30.7221745381
 30
0.0
 10
634.7703136998
 20
30.8802930116
 30
0.0
 10
634.8139083278
 20
31.0529416285
 30
0.0
 10
634.8139083278
 20
31.224219292
 30
0.0
  0
SPLINE
  5
498
100
AcDbEntity
  8
AXES
100
AcDbSpline
 62
7
  6
CONTINUOUS
 70
0
 71
3
 72
9
 73
5
 74
0
 42
0.0000001
 43
0.0000001
 44
0.0000000001
 40
0.0
 40
0.0
 40
0.0
 40
0.0
 40
0.2737788292
 40
1.0
 40
1.0
 40
1.0
 40
1.0
 10
168.9125006159
 20
516.8500231479
 30
0.0
 10
168.9966082038
 20
516.9199248965
 30
0.0
 10
169.3030216939
 20
517.1743443697
 30
0.0
 10
169.6308522375
 20
517.4164809176
 30
0.0
 10
169.898659718
 20
517.5279909444
 30
0.0
  0
SPLINE
  5
499
100
AcDbEntity
  8
AXES
100
AcDbSpline
 62
7
  6
CONTINUOUS
 70
0
 71
3
 72
8
 73
4
 74
0
 42
0.0000001
 43
0.0000001
 44
0.0000000001
 40
0.0
 40
0.0
 40
0.0
 40
0.0
 40
1.0
 40
1.0
 40
1.0
 40
1.0
 10
169.898659718
 20
517.5279909444
 30
0.0
 10
170.0567781915
 20
517.5938285199
 30
0.0
 10
170.2294268084
 20
517.6374231479
 30
0.0
 10
170.4007044718
 20
517.6374231479
 30
0.0
  0
SPLINE
  5
49A
100
AcDbEntity
  8
AXES
100
AcDbSpline
 62
7
  6
CONTINUOUS
 70
0
 71
3
 72
9
 73
5
 74
0
 42
0.0000001
 43
0.0000001
 44
0.0000000001
 40
0.0
 40
0.0
 40
0.0
 40
0.0
 40
0.2737788292
 40
1.0
 40
1.0
 40
1.0
 40
1.0
 10
168.9125006159
 20
71.6252231479
 30
0.0
 10
168.9966082038
 20
71.5553213993
 30
0.0
 10
169.3030216939
 20
71.3009019261
 30
0.0
 10
169.6308522375
 20
71.0587653782
 30
0.0
 10
169.898659718
 20
70.9472553514
 30
0.0
  0
SPLINE
  5
49B
100
AcDbEntity
  8
AXES
100
AcDbSpline
 62
7
  6
CONTINUOUS
 70
0
 71
3
 72
8
 73
4
 74
0
 42
0.0000001
 43
0.0000001
 44
0.0000000001
 40
0.0
 40
0.0
 40
0.0
 40
0.0
 40
1.0
 40
1.0
 40
1.0
 40
1.0
 10
169.898659718
 20
70.9472553514
 30
0.0
 10
170.0567781915
 20
70.8814177759
 30
0.0
 10
170.2294268084
 20
70.8378231479
 30
0.0
 10
170.4007044718
 20
70.8378231479
 30
0.0
  0
SPLINE
  5
49C
100
AcDbEntity
  8
AXES
100
AcDbSpline
 62
7
  6
CONTINUOUS
 70
0
 71
3
 72
9
 73
5
 74
0
 42
0.0000001
 43
0.0000001
 44
0.0000000001
 40
0.0
 40
0.0
 40
0.0
 40
0.0
 40
0.2737788292
 40
1.0
 40
1.0
 40
1.0
 40
1.0
 10
634.0265083278
 20
558.7392308598
 30
0.0
 10
634.0964100764
 20
558.6551232719
 30
0.0
 10
634.3508295496
 20
558.3487097817
 30
0.0
 10
634.5929660974
 20
558.0208792382
 30
0.0
 10
634.7044761243
 20
557.7530717577
 30
0.0
  0
SPLINE
  5
49D
100
AcDbEntity
  8
AXES
100
AcDbSpline
 62
7
  6
CONTINUOUS
 70
0
 71
3
 72
8
 73
4
 74
0
 42
0.0000001
 43
0.0000001
 44
0.0000000001
 40
0.0
 40
0.0
 40
0.0
 40
0.0
 40
1.0
 40
1.0
 40
1.0
 40
1.0
 10
634.7044761243
 20
557.7530717577
 30
0.0
 10
634.7703136998
 20
557.5949532842
 30
0.0
 10
634.8139083278
 20
557.4223046673
 30
0.0
 10
634.8139083278
 20
557.2510270038
 30
0.0
  0
SPLINE
  5
49E
100
AcDbEntity
  8
AXES
100
AcDbSpline
 62
7
  6
CONTINUOUS
 70
0
 71
3
 72
9
 73
5
 74
0
 42
0.0000001
 43
0.0000001
 44
0.0000000001
 40
0.0
 40
0.0
 40
0.0
 40
0.0
 40
0.2737788292
 40
1.0
 40
1.0
 40
1.0
 40
1.0
 10
210.8017083278
 20
558.7392308598
 30
0.0
 10
210.7318065792
 20
558.6551232719
 30
0.0
 10
210.4773871059
 20
558.3487097817
 30
0.0
 10
210.2352505581
 20
558.0208792382
 30
0.0
 10
210.1237405313
 20
557.7530717577
 30
0.0
  0
SPLINE
  5
49F
100
AcDbEntity
  8
AXES
100
AcDbSpline
 62
7
  6
CONTINUOUS
 70
0
 71
3
 72
8
 73
4
 74
0
 42
0.0000001
 43
0.0000001
 44
0.0000000001
 40
0.0
 40
0.0
 40
0.0
 40
0.0
 40
1.0
 40
1.0
 40
1.0
 40
1.0
 10
210.1237405313
 20
557.7530717577
 30
0.0
 10
210.0579029557
 20
557.5949532842
 30
0.0
 10
210.0143083278
 20
557.4223046673
 30
0.0
 10
210.0143083278
 20
557.2510270038
 30
0.0
  0
ENDSEC
  0
SECTION
  2
OBJECTS
  0
DICTIONARY
  5
C
100
AcDbDictionary
280
0
281
1
  3
ACAD_GROUP
350
D
  3
ACAD_MLINESTYLE
350
17
  3
ACAD_LAYOUT
350
1A
  3
ACAD_PLOTSETTINGS
350
19
  3
ACAD_PLOTSTYLENAME
350
E
  0
DICTIONARY
  5
D
102
{ACAD_REACTORS
330
C
102
}
100
AcDbDictionary
280
0
281
1
  0
ACDBDICTIONARYWDFLT
  5
E
102
{ACAD_REACTORS
330
C
102
}
100
AcDbDictionary
281
1
  3
Normal
350
F
100
AcDbDictionaryWithDefault
340
F
  0
DICTIONARY
  5
17
102
{ACAD_REACTORS
330
C
102
}
100
AcDbDictionary
280
0
281
1
  3
Standard
350
18
  0
DICTIONARY
  5
19
102
{ACAD_REACTORS
330
C
102
}
100
AcDbDictionary
281
1
  0
DICTIONARY
  5
1A
102
{ACAD_REACTORS
330
C
102
}
100
AcDbDictionary
281
1
  3
Model
350
4A0
  3
Layout1
350
4A1
  0
ACDBPLACEHOLDER
  5
F
102
{ACAD_REACTORS
330
E
102
}
  0
MLINESTYLE
  5
18
102
{ACAD_REACTORS
330
17
102
}
100
AcDbMlineStyle
  2
STANDARD
 70
0
  3

 62
256
 51
90.0
 52
90.0
 71
2
 49
0.5
 62
256
  6
BYLAYER
 49
-0.5
 62
256
  6
BYLAYER
  0
LAYOUT
  5
4A0
102
{ACAD_REACTORS
330
1A
102
}
100
AcDbPlotSettings
  1

  2
none_device
  4
ISO_A1_(594.00_x_841.00_MM)
  6

 40
0.0
 41
0.0
 42
0.0
 43
0.0
 44
841.0
 45
594.0
 46
0.0
 47
0.0
 48
0.0
 49
0.0
140
0.0
141
0.0
142
1.0
143
1.0
 70
1024
 72
1
 73
0
 74
0
  7

 75
0
147
1.0
148
0.0
149
0.0
100
AcDbLayout
  1
Model
 70
0
 71
0
 10
0.0
 20
0.0
 11
841.0
 21
594.0
 12
0.0
 22
0.0
 32
0.0
 14
0.0
 24
0.0
 34
0.0
 15
0.0
 25
0.0
 35
0.0
146
0.0
 13
0.0
 23
0.0
 33
0.0
 16
1.0
 26
0.0
 36
0.0
 17
0.0
 27
1.0
 37
0.0
 76
0
330
20C
345
0
346
0
  0
LAYOUT
  5
4A1
102
{ACAD_REACTORS
330
1A
102
}
100
AcDbPlotSettings
  1

  2
none_device
  4
ISO_A1_(594.00_x_841.00_MM)
  6

 40
0.0
 41
0.0
 42
0.0
 43
0.0
 44
841.0
 45
594.0
 46
0.0
 47
0.0
 48
0.0
 49
0.0
140
0.0
141
0.0
142
1.0
143
1.0
 70
0
 72
1
 73
0
 74
0
  7

 75
0
147
1.0
148
0.0
149
0.0
100
AcDbLayout
  1
Layout1
 70
0
 71
1
 10
0.0
 20
0.0
 11
841.0
 21
594.0
 12
0.0
 22
0.0
 32
0.0
 14
0.0
 24
0.0
 34
0.0
 15
0.0
 25
0.0
 35
0.0
146
0.0
 13
0.0
 23
0.0
 33
0.0
 16
1.0
 26
0.0
 36
0.0
 17
0.0
 27
1.0
 37
0.0
 76
0
330
20D
345
0
346
0
  0
ENDSEC
  0
EOF
