999
DXF file: E:\Git\roach2_chassis_design\roach_2_manufacture\dxf\roach-2-chassis-lid.dxf
999
Pro/ENGINEER 2010180 by Parametric Technology Corporation
  0
SECTION
  2
HEADER
  9
$ACADVER
  1
AC1021
  9
$DWGCODEPAGE
  3
ANSI_1252
  9
$EXTMAX
 10
1189.0
 20
841.0
 30
0.0
  9
$EXTMIN
 10
0.0
 20
0.0
 30
0.0
  9
$LIMMIN
 10
0.0
 20
0.0
  9
$LIMMAX
 10
1189.0
 20
841.0
  9
$VIEWCTR
 10
594.5
 20
420.5
  9
$VIEWSIZE
 40
841.0
  9
$CLAYER
  8
0
  9
$LTSCALE
 40
65.395
  9
$CELTYPE
  6
BYLAYER
  9
$DIMSCALE
 40
1.0
  9
$DIMASZ
 40
3.5
  9
$DIMEXO
 40
7.43125
  9
$DIMDLI
 40
45.182
  9
$DIMEXE
 40
21.402
  9
$DIMCEN
 40
10.701
  9
$DIMLFAC
 40
1.0
  9
$DIMBLK
  1
_FILLED
  9
$DIMTXT
 40
3.5
  9
$DIMTOL
 70
1
  9
$DIMLIM
 70
0
  9
$DIMTFAC
 40
1.0
  9
$DIMTP
 40
0.01
  9
$DIMTM
 40
0.01
  9
$PDMODE
 70
3
  9
$PDSIZE
 40
0.25
  9
$HANDSEED
  5
26C
  9
$TILEMODE
 70
1
  9
$MEASUREMENT
 70
1
  9
$INSUNITS
 70
4
  0
ENDSEC
  0
SECTION
  2
CLASSES
  0
CLASS
  1
ACDBDICTIONARYWDFLT
  2
AcDbDictionaryWithDefault
  3
AutoCAD 2000
 90
0
 91
1
280
0
281
0
  0
CLASS
  1
ACDBPLACEHOLDER
  2
AcDbPlaceHolder
  3
AutoCAD 2000
 90
0
 91
1
280
0
281
0
  0
CLASS
  1
LAYOUT
  2
AcDbLayout
  3
AutoCAD 2000
 90
0
 91
0
280
0
281
0
  0
ENDSEC
  0
SECTION
  2
TABLES
  0
TABLE
  2
VPORT
  5
8
100
AcDbSymbolTable
 70
2
  0
VPORT
  5
1F4
100
AcDbSymbolTableRecord
100
AcDbViewportTableRecord
  2
*ACTIVE
 70
0
 10
0.0
 20
0.0
 11
1.0
 21
1.0
 12
594.5
 22
420.5
 13
0.0
 23
0.0
 14
1.0
 24
1.0
 15
0.0
 25
0.0
 16
0.0
 26
0.0
 36
1.0
 17
0.0
 27
0.0
 37
0.0
 40
841.0
 41
1.4137931034
 42
50.0
 43
0.0
 44
0.0
 50
0.0
 51
0.0
 71
0
 72
100
 73
1
 74
1
 75
0
 76
0
 77
0
 78
0
  0
ENDTAB
  0
TABLE
  2
LTYPE
  5
5
100
AcDbSymbolTable
 70
6
  0
LTYPE
  5
14
100
AcDbSymbolTableRecord
100
AcDbLinetypeTableRecord
  2
BYBLOCK
 70
0
  3

 72
65
 73
0
 40
0.0
  0
LTYPE
  5
15
100
AcDbSymbolTableRecord
100
AcDbLinetypeTableRecord
  2
BYLAYER
 70
0
  3

 72
65
 73
0
 40
0.0
  0
LTYPE
  5
16
100
AcDbSymbolTableRecord
100
AcDbLinetypeTableRecord
  2
CONTINUOUS
 70
64
  3
Solid line
 72
65
 73
0
 40
0.0
  0
LTYPE
  5
1F5
100
AcDbSymbolTableRecord
100
AcDbLinetypeTableRecord
  2
CENTER
 70
64
  3
____ _ ____ _ ____ _ ____ _ ____ _ ____ _ ____
 72
65
 73
4
 40
0.6
 49
0.375
 74
0
 49
-0.075
 74
0
 49
0.075
 74
0
 49
-0.075
 74
0
  0
LTYPE
  5
1F6
100
AcDbSymbolTableRecord
100
AcDbLinetypeTableRecord
  2
HIDDEN
 70
64
  3
- - - - - - - - - - - - - - - - - - - -
 72
65
 73
2
 40
0.2
 49
0.1
 74
0
 49
-0.1
 74
0
  0
LTYPE
  5
1F7
100
AcDbSymbolTableRecord
100
AcDbLinetypeTableRecord
  2
PHANTOM
 70
64
  3
_____ _ _ _____ _ _ _____ _ _ _____
 72
65
 73
6
 40
0.8
 49
0.45
 74
0
 49
-0.05
 74
0
 49
0.1
 74
0
 49
-0.05
 74
0
 49
0.1
 74
0
 49
-0.05
 74
0
  0
LTYPE
  5
1F8
100
AcDbSymbolTableRecord
100
AcDbLinetypeTableRecord
  2
DOT
 70
64
  3
. . . . . . . . . . . . . . . . . . . .
 72
65
 73
2
 40
0.2
 49
0.1
 74
0
 49
-0.1
 74
0
  0
LTYPE
  5
1F9
100
AcDbSymbolTableRecord
100
AcDbLinetypeTableRecord
  2
DASHED
 70
64
  3
- - - - - - - - - - - - - - - - - - - -
 72
65
 73
2
 40
0.2
 49
0.1
 74
0
 49
-0.1
 74
0
  0
ENDTAB
  0
TABLE
  2
LAYER
  5
2
100
AcDbSymbolTable
 70
36
  0
LAYER
  5
10
100
AcDbSymbolTableRecord
100
AcDbLayerTableRecord
  2
0
 70
0
 62
7
  6
CONTINUOUS
370
-3
390
F
  0
LAYER
  5
1FA
100
AcDbSymbolTableRecord
100
AcDbLayerTableRecord
  2
DEFAULT_1
 70
0
 62
7
  6
CENTER
370
-3
390
F
  0
LAYER
  5
1FB
100
AcDbSymbolTableRecord
100
AcDbLayerTableRecord
  2
DEFAULT_2
 70
0
 62
8
  6
HIDDEN
370
-3
390
F
  0
LAYER
  5
1FC
100
AcDbSymbolTableRecord
100
AcDbLayerTableRecord
  2
DEFAULT_3
 70
0
 62
7
  6
PHANTOM
370
-3
390
F
  0
LAYER
  5
1FD
100
AcDbSymbolTableRecord
100
AcDbLayerTableRecord
  2
01___PRT_ALL_DTM_PLN
 70
0
 62
7
  6
CONTINUOUS
370
-3
390
F
  0
LAYER
  5
1FE
100
AcDbSymbolTableRecord
100
AcDbLayerTableRecord
  2
01___PRT_DEF_DTM_PLN
 70
0
 62
7
  6
CONTINUOUS
370
-3
390
F
  0
LAYER
  5
1FF
100
AcDbSymbolTableRecord
100
AcDbLayerTableRecord
  2
02___PRT_ALL_AXES
 70
0
 62
7
  6
CONTINUOUS
370
-3
390
F
  0
LAYER
  5
200
100
AcDbSymbolTableRecord
100
AcDbLayerTableRecord
  2
03___PRT_ALL_CURVES
 70
0
 62
7
  6
CONTINUOUS
370
-3
390
F
  0
LAYER
  5
201
100
AcDbSymbolTableRecord
100
AcDbLayerTableRecord
  2
04___PRT_ALL_DTM_PNT
 70
0
 62
7
  6
CONTINUOUS
370
-3
390
F
  0
LAYER
  5
202
100
AcDbSymbolTableRecord
100
AcDbLayerTableRecord
  2
05___PRT_ALL_DTM_CSYS
 70
0
 62
7
  6
CONTINUOUS
370
-3
390
F
  0
LAYER
  5
203
100
AcDbSymbolTableRecord
100
AcDbLayerTableRecord
  2
05___PRT_DEF_DTM_CSYS
 70
0
 62
7
  6
CONTINUOUS
370
-3
390
F
  0
LAYER
  5
204
100
AcDbSymbolTableRecord
100
AcDbLayerTableRecord
  2
06___PRT_ALL_SURFS
 70
0
 62
7
  6
CONTINUOUS
370
-3
390
F
  0
LAYER
  5
205
100
AcDbSymbolTableRecord
100
AcDbLayerTableRecord
  2
AXES
 70
0
 62
7
  6
CONTINUOUS
370
-3
390
F
  0
LAYER
  5
206
100
AcDbSymbolTableRecord
100
AcDbLayerTableRecord
  2
CSYS
 70
0
 62
7
  6
CONTINUOUS
370
-3
390
F
  0
LAYER
  5
207
100
AcDbSymbolTableRecord
100
AcDbLayerTableRecord
  2
PLANES
 70
0
 62
7
  6
CONTINUOUS
370
-3
390
F
  0
LAYER
  5
208
100
AcDbSymbolTableRecord
100
AcDbLayerTableRecord
  2
WHITE
 70
0
 62
7
  6
CONTINUOUS
370
-3
390
F
  0
ENDTAB
  0
TABLE
  2
STYLE
  5
3
100
AcDbSymbolTable
 70
1
  0
STYLE
  5
11
100
AcDbSymbolTableRecord
100
AcDbTextStyleTableRecord
  2
STANDARD
 70
0
 40
0.0
 41
0.8
 50
0.0
 71
0
 42
0.2
  3
txt
  4

  0
STYLE
  5
209
100
AcDbSymbolTableRecord
100
AcDbTextStyleTableRecord
  2
TEXTSTYLE_1
 70
0
 40
0.0
 41
0.8
 50
0.0
 71
0
 42
0.2
  3
gdt
  4

  0
ENDTAB
  0
TABLE
  2
VIEW
  5
6
100
AcDbSymbolTable
 70
0
  0
ENDTAB
  0
TABLE
  2
UCS
  5
7
100
AcDbSymbolTable
 70
0
  0
ENDTAB
  0
TABLE
  2
APPID
  5
9
100
AcDbSymbolTable
 70
1
  0
APPID
  5
20A
100
AcDbSymbolTableRecord
100
AcDbRegAppTableRecord
  2
ACAD
 70
0
  0
ENDTAB
  0
TABLE
  2
BLOCK_RECORD
  5
1
100
AcDbSymbolTable
 70
0
  0
BLOCK_RECORD
  5
20B
100
AcDbSymbolTableRecord
100
AcDbBlockTableRecord
  2
*Model_Space
  0
BLOCK_RECORD
  5
20C
100
AcDbSymbolTableRecord
100
AcDbBlockTableRecord
  2
*Paper_Space
  0
ENDTAB
  0
TABLE
  2
DIMSTYLE
  5
A
100
AcDbSymbolTable
 70
1
100
AcDbDimStyleTable
 71
0
  0
DIMSTYLE
105
20D
100
AcDbSymbolTableRecord
100
AcDbDimStyleTableRecord
  2
STANDARD
 70
0
  3

  4

 40
1.0
 41
3.5
 42
0.0625
 43
0.38
 44
0.18
 45
0.0
 46
0.0
 47
0.01
 48
0.01
140
3.5
141
0.09
142
0.0
143
25.4
144
1.0
145
0.0
146
1.0
147
0.09
 71
1.0
 72
0.0
 73
0
 74
0
 75
0
 76
0
 77
1
 78
8
170
0
171
2
172
0
173
0
174
0
175
0
176
0
177
0
178
0
270
2
271
2
272
2
273
2
274
2
275
0
280
0
281
0
282
0
283
1
284
8
285
0
286
0
287
3
288
0
340
11
  0
ENDTAB
  0
ENDSEC
  0
SECTION
  2
BLOCKS
  0
BLOCK
  5
20
100
AcDbEntity
  8
0
100
AcDbBlockBegin
  2
*Model_Space
 70
0
 10
0.0
 20
0.0
 30
0.0
  3
*Model_Space
  1

  0
ENDBLK
  5
21
100
AcDbEntity
  8
0
100
AcDbBlockEnd
  0
BLOCK
  5
1C
100
AcDbEntity
  8
0
100
AcDbBlockBegin
  2
*Paper_Space
 70
0
 10
0.0
 20
0.0
 30
0.0
  3
*Paper_Space
  1

  0
ENDBLK
  5
1D
100
AcDbEntity
  8
0
100
AcDbBlockEnd
  0
ENDSEC
  0
SECTION
  2
ENTITIES
  0
LINE
  5
20E
100
AcDbEntity
  8
0
100
AcDbLine
 62
7
  6
CONTINUOUS
 10
0.0
 20
0.0
 11
0.0
 21
841.0
  0
LINE
  5
20F
100
AcDbEntity
  8
0
100
AcDbLine
 62
7
  6
CONTINUOUS
 10
0.0
 20
0.0
 11
1189.0
 21
0.0
  0
LINE
  5
210
100
AcDbEntity
  8
0
100
AcDbLine
 62
7
  6
CONTINUOUS
 10
0.0
 20
841.0
 11
1189.0
 21
841.0
  0
LINE
  5
211
100
AcDbEntity
  8
0
100
AcDbLine
 62
7
  6
CONTINUOUS
 10
1189.0
 20
0.0
 11
1189.0
 21
841.0
  0
LINE
  5
212
100
AcDbEntity
  8
0
100
AcDbLine
 62
7
  6
CONTINUOUS
 10
381.9285028339
 20
202.9899663092
 11
787.9159628339
 21
202.9899663092
  0
LINE
  5
213
100
AcDbEntity
  8
0
100
AcDbLine
 62
7
  6
CONTINUOUS
 10
381.9285028339
 20
630.7841063092
 11
381.9285028339
 21
202.9899663092
  0
LINE
  5
214
100
AcDbEntity
  8
0
100
AcDbLine
 62
7
  6
CONTINUOUS
 10
787.9159628339
 20
202.9899663092
 11
787.9159628339
 21
630.7841063092
  0
LINE
  5
215
100
AcDbEntity
  8
0
100
AcDbLine
 62
7
  6
CONTINUOUS
 10
787.9159628339
 20
630.7841063092
 11
381.9285028339
 21
630.7841063092
  0
CIRCLE
  5
216
100
AcDbEntity
  8
0
100
AcDbCircle
 62
7
  6
CONTINUOUS
 10
521.9222328339
 20
207.0899663092
 40
3.07
  0
CIRCLE
  5
217
100
AcDbEntity
  8
0
100
AcDbCircle
 62
7
  6
CONTINUOUS
 10
472.4222328339
 20
207.0899663092
 40
3.07
  0
CIRCLE
  5
218
100
AcDbEntity
  8
0
100
AcDbCircle
 62
7
  6
CONTINUOUS
 10
431.9222328339
 20
207.0899663092
 40
3.07
  0
CIRCLE
  5
219
100
AcDbEntity
  8
0
100
AcDbCircle
 62
7
  6
CONTINUOUS
 10
386.1290668339
 20
281.8870363092
 40
3.07
  0
CIRCLE
  5
21A
100
AcDbEntity
  8
0
100
AcDbCircle
 62
7
  6
CONTINUOUS
 10
386.1290668339
 20
351.8870363092
 40
3.07
  0
CIRCLE
  5
21B
100
AcDbEntity
  8
0
100
AcDbCircle
 62
7
  6
CONTINUOUS
 10
386.1290668339
 20
221.8870363092
 40
3.07
  0
CIRCLE
  5
21C
100
AcDbEntity
  8
0
100
AcDbCircle
 62
7
  6
CONTINUOUS
 10
386.1290668339
 20
481.8870363092
 40
3.07
  0
CIRCLE
  5
21D
100
AcDbEntity
  8
0
100
AcDbCircle
 62
7
  6
CONTINUOUS
 10
386.1290668339
 20
551.8870363092
 40
3.07
  0
CIRCLE
  5
21E
100
AcDbEntity
  8
0
100
AcDbCircle
 62
7
  6
CONTINUOUS
 10
431.9222328339
 20
626.6840363092
 40
3.07
  0
CIRCLE
  5
21F
100
AcDbEntity
  8
0
100
AcDbCircle
 62
7
  6
CONTINUOUS
 10
472.4222328339
 20
626.6840363092
 40
3.07
  0
CIRCLE
  5
220
100
AcDbEntity
  8
0
100
AcDbCircle
 62
7
  6
CONTINUOUS
 10
521.9222328339
 20
626.6840363092
 40
3.07
  0
CIRCLE
  5
221
100
AcDbEntity
  8
0
100
AcDbCircle
 62
7
  6
CONTINUOUS
 10
386.1290668339
 20
611.8870363092
 40
3.07
  0
CIRCLE
  5
222
100
AcDbEntity
  8
0
100
AcDbCircle
 62
7
  6
CONTINUOUS
 10
386.1290668339
 20
416.8870363092
 40
3.07
  0
CIRCLE
  5
223
100
AcDbEntity
  8
0
100
AcDbCircle
 62
7
  6
CONTINUOUS
 10
737.9222328339
 20
207.0899663092
 40
3.07
  0
CIRCLE
  5
224
100
AcDbEntity
  8
0
100
AcDbCircle
 62
7
  6
CONTINUOUS
 10
697.4222328339
 20
207.0899663092
 40
3.07
  0
CIRCLE
  5
225
100
AcDbEntity
  8
0
100
AcDbCircle
 62
7
  6
CONTINUOUS
 10
647.9222328339
 20
207.0899663092
 40
3.07
  0
CIRCLE
  5
226
100
AcDbEntity
  8
0
100
AcDbCircle
 62
7
  6
CONTINUOUS
 10
783.7153988339
 20
281.8870363092
 40
3.07
  0
CIRCLE
  5
227
100
AcDbEntity
  8
0
100
AcDbCircle
 62
7
  6
CONTINUOUS
 10
783.7153988339
 20
351.8870363092
 40
3.07
  0
CIRCLE
  5
228
100
AcDbEntity
  8
0
100
AcDbCircle
 62
7
  6
CONTINUOUS
 10
584.9222328339
 20
207.0899663092
 40
3.07
  0
CIRCLE
  5
229
100
AcDbEntity
  8
0
100
AcDbCircle
 62
7
  6
CONTINUOUS
 10
783.7153988339
 20
221.8870363092
 40
3.07
  0
CIRCLE
  5
22A
100
AcDbEntity
  8
0
100
AcDbCircle
 62
7
  6
CONTINUOUS
 10
783.7153988339
 20
481.8870363092
 40
3.07
  0
CIRCLE
  5
22B
100
AcDbEntity
  8
0
100
AcDbCircle
 62
7
  6
CONTINUOUS
 10
783.7153988339
 20
551.8870363092
 40
3.07
  0
CIRCLE
  5
22C
100
AcDbEntity
  8
0
100
AcDbCircle
 62
7
  6
CONTINUOUS
 10
647.9222328339
 20
626.6840363092
 40
3.07
  0
CIRCLE
  5
22D
100
AcDbEntity
  8
0
100
AcDbCircle
 62
7
  6
CONTINUOUS
 10
697.4222328339
 20
626.6840363092
 40
3.07
  0
CIRCLE
  5
22E
100
AcDbEntity
  8
0
100
AcDbCircle
 62
7
  6
CONTINUOUS
 10
737.9222328339
 20
626.6840363092
 40
3.07
  0
CIRCLE
  5
22F
100
AcDbEntity
  8
0
100
AcDbCircle
 62
7
  6
CONTINUOUS
 10
783.7153988339
 20
416.8870363092
 40
3.07
  0
CIRCLE
  5
230
100
AcDbEntity
  8
0
100
AcDbCircle
 62
7
  6
CONTINUOUS
 10
783.7153988339
 20
611.8870363092
 40
3.07
  0
CIRCLE
  5
231
100
AcDbEntity
  8
0
100
AcDbCircle
 62
7
  6
CONTINUOUS
 10
584.9222328339
 20
626.6840363092
 40
3.07
  0
SPLINE
  5
232
100
AcDbEntity
  8
0
100
AcDbSpline
 62
3
  6
CONTINUOUS
 70
0
 71
3
 72
11
 73
7
 74
0
 42
0.0000001
 43
0.0000001
 44
0.0000000001
 40
0.0
 40
0.0
 40
0.0
 40
0.0
 40
0.2501329905
 40
0.4999999922
 40
0.7498670133
 40
1.0
 40
1.0
 40
1.0
 40
1.0
 10
384.6290668339
 20
481.8870363092
 30
0.0
 10
384.6290668461
 20
482.2691193249
 30
0.0
 10
384.9579689939
 20
483.0625235361
 30
0.0
 10
386.1290668183
 20
483.5429833989
 30
0.0
 10
387.3001646719
 20
483.0625235523
 30
0.0
 10
387.629066812
 20
482.269119319
 30
0.0
 10
387.6290668339
 20
481.8870363092
 30
0.0
  0
SPLINE
  5
233
100
AcDbEntity
  8
0
100
AcDbSpline
 62
3
  6
CONTINUOUS
 70
0
 71
3
 72
11
 73
7
 74
0
 42
0.0000001
 43
0.0000001
 44
0.0000000001
 40
0.0
 40
0.0
 40
0.0
 40
0.0
 40
0.2501329905
 40
0.4999999922
 40
0.7498670133
 40
1.0
 40
1.0
 40
1.0
 40
1.0
 10
387.6290668339
 20
481.8870363092
 30
0.0
 10
387.6290668216
 20
481.5049532934
 30
0.0
 10
387.3001646738
 20
480.7115490822
 30
0.0
 10
386.1290668494
 20
480.2310892194
 30
0.0
 10
384.9579689959
 20
480.711549066
 30
0.0
 10
384.6290668558
 20
481.5049532993
 30
0.0
 10
384.6290668339
 20
481.8870363092
 30
0.0
  0
SPLINE
  5
234
100
AcDbEntity
  8
0
100
AcDbSpline
 62
3
  6
CONTINUOUS
 70
0
 71
3
 72
11
 73
7
 74
0
 42
0.0000001
 43
0.0000001
 44
0.0000000001
 40
0.0
 40
0.0
 40
0.0
 40
0.0
 40
0.2501329905
 40
0.4999999922
 40
0.7498670133
 40
1.0
 40
1.0
 40
1.0
 40
1.0
 10
384.6290668339
 20
551.8870363092
 30
0.0
 10
384.6290668461
 20
552.2691193249
 30
0.0
 10
384.9579689939
 20
553.0625235361
 30
0.0
 10
386.1290668183
 20
553.5429833989
 30
0.0
 10
387.3001646719
 20
553.0625235523
 30
0.0
 10
387.629066812
 20
552.269119319
 30
0.0
 10
387.6290668339
 20
551.8870363092
 30
0.0
  0
SPLINE
  5
235
100
AcDbEntity
  8
0
100
AcDbSpline
 62
3
  6
CONTINUOUS
 70
0
 71
3
 72
11
 73
7
 74
0
 42
0.0000001
 43
0.0000001
 44
0.0000000001
 40
0.0
 40
0.0
 40
0.0
 40
0.0
 40
0.2501329905
 40
0.4999999922
 40
0.7498670133
 40
1.0
 40
1.0
 40
1.0
 40
1.0
 10
387.6290668339
 20
551.8870363092
 30
0.0
 10
387.6290668216
 20
551.5049532934
 30
0.0
 10
387.3001646738
 20
550.7115490822
 30
0.0
 10
386.1290668494
 20
550.2310892194
 30
0.0
 10
384.9579689959
 20
550.711549066
 30
0.0
 10
384.6290668558
 20
551.5049532993
 30
0.0
 10
384.6290668339
 20
551.8870363092
 30
0.0
  0
SPLINE
  5
236
100
AcDbEntity
  8
0
100
AcDbSpline
 62
3
  6
CONTINUOUS
 70
0
 71
3
 72
11
 73
7
 74
0
 42
0.0000001
 43
0.0000001
 44
0.0000000001
 40
0.0
 40
0.0
 40
0.0
 40
0.0
 40
0.2501329905
 40
0.4999999922
 40
0.7498670133
 40
1.0
 40
1.0
 40
1.0
 40
1.0
 10
782.2153988339
 20
481.8870363092
 30
0.0
 10
782.2153988461
 20
482.2691193249
 30
0.0
 10
782.5443009939
 20
483.0625235361
 30
0.0
 10
783.7153988183
 20
483.5429833989
 30
0.0
 10
784.8864966719
 20
483.0625235523
 30
0.0
 10
785.215398812
 20
482.269119319
 30
0.0
 10
785.2153988339
 20
481.8870363092
 30
0.0
  0
SPLINE
  5
237
100
AcDbEntity
  8
0
100
AcDbSpline
 62
3
  6
CONTINUOUS
 70
0
 71
3
 72
11
 73
7
 74
0
 42
0.0000001
 43
0.0000001
 44
0.0000000001
 40
0.0
 40
0.0
 40
0.0
 40
0.0
 40
0.2501329905
 40
0.4999999922
 40
0.7498670133
 40
1.0
 40
1.0
 40
1.0
 40
1.0
 10
785.2153988339
 20
481.8870363092
 30
0.0
 10
785.2153988216
 20
481.5049532934
 30
0.0
 10
784.8864966738
 20
480.7115490822
 30
0.0
 10
783.7153988494
 20
480.2310892194
 30
0.0
 10
782.5443009959
 20
480.711549066
 30
0.0
 10
782.2153988558
 20
481.5049532993
 30
0.0
 10
782.2153988339
 20
481.8870363092
 30
0.0
  0
SPLINE
  5
238
100
AcDbEntity
  8
0
100
AcDbSpline
 62
3
  6
CONTINUOUS
 70
0
 71
3
 72
11
 73
7
 74
0
 42
0.0000001
 43
0.0000001
 44
0.0000000001
 40
0.0
 40
0.0
 40
0.0
 40
0.0
 40
0.2501329905
 40
0.4999999922
 40
0.7498670133
 40
1.0
 40
1.0
 40
1.0
 40
1.0
 10
782.2153988339
 20
551.8870363092
 30
0.0
 10
782.2153988461
 20
552.2691193249
 30
0.0
 10
782.5443009939
 20
553.0625235361
 30
0.0
 10
783.7153988183
 20
553.5429833989
 30
0.0
 10
784.8864966719
 20
553.0625235523
 30
0.0
 10
785.215398812
 20
552.269119319
 30
0.0
 10
785.2153988339
 20
551.8870363092
 30
0.0
  0
SPLINE
  5
239
100
AcDbEntity
  8
0
100
AcDbSpline
 62
3
  6
CONTINUOUS
 70
0
 71
3
 72
11
 73
7
 74
0
 42
0.0000001
 43
0.0000001
 44
0.0000000001
 40
0.0
 40
0.0
 40
0.0
 40
0.0
 40
0.2501329905
 40
0.4999999922
 40
0.7498670133
 40
1.0
 40
1.0
 40
1.0
 40
1.0
 10
785.2153988339
 20
551.8870363092
 30
0.0
 10
785.2153988216
 20
551.5049532934
 30
0.0
 10
784.8864966738
 20
550.7115490822
 30
0.0
 10
783.7153988494
 20
550.2310892194
 30
0.0
 10
782.5443009959
 20
550.711549066
 30
0.0
 10
782.2153988558
 20
551.5049532993
 30
0.0
 10
782.2153988339
 20
551.8870363092
 30
0.0
  0
SPLINE
  5
23A
100
AcDbEntity
  8
0
100
AcDbSpline
 62
3
  6
CONTINUOUS
 70
0
 71
3
 72
11
 73
7
 74
0
 42
0.0000001
 43
0.0000001
 44
0.0000000001
 40
0.0
 40
0.0
 40
0.0
 40
0.0
 40
0.2501329905
 40
0.4999999922
 40
0.7498670133
 40
1.0
 40
1.0
 40
1.0
 40
1.0
 10
736.4222328339
 20
207.0899663092
 30
0.0
 10
736.4222328461
 20
207.4720493249
 30
0.0
 10
736.7511349939
 20
208.2654535361
 30
0.0
 10
737.9222328183
 20
208.7459133989
 30
0.0
 10
739.0933306719
 20
208.2654535523
 30
0.0
 10
739.422232812
 20
207.472049319
 30
0.0
 10
739.4222328339
 20
207.0899663092
 30
0.0
  0
SPLINE
  5
23B
100
AcDbEntity
  8
0
100
AcDbSpline
 62
3
  6
CONTINUOUS
 70
0
 71
3
 72
11
 73
7
 74
0
 42
0.0000001
 43
0.0000001
 44
0.0000000001
 40
0.0
 40
0.0
 40
0.0
 40
0.0
 40
0.2501329905
 40
0.4999999922
 40
0.7498670133
 40
1.0
 40
1.0
 40
1.0
 40
1.0
 10
739.4222328339
 20
207.0899663092
 30
0.0
 10
739.4222328216
 20
206.7078832934
 30
0.0
 10
739.0933306738
 20
205.9144790822
 30
0.0
 10
737.9222328494
 20
205.4340192194
 30
0.0
 10
736.7511349959
 20
205.914479066
 30
0.0
 10
736.4222328558
 20
206.7078832993
 30
0.0
 10
736.4222328339
 20
207.0899663092
 30
0.0
  0
SPLINE
  5
23C
100
AcDbEntity
  8
0
100
AcDbSpline
 62
3
  6
CONTINUOUS
 70
0
 71
3
 72
11
 73
7
 74
0
 42
0.0000001
 43
0.0000001
 44
0.0000000001
 40
0.0
 40
0.0
 40
0.0
 40
0.0
 40
0.2501329905
 40
0.4999999922
 40
0.7498670133
 40
1.0
 40
1.0
 40
1.0
 40
1.0
 10
695.9222328339
 20
207.0899663092
 30
0.0
 10
695.9222328461
 20
207.4720493249
 30
0.0
 10
696.2511349939
 20
208.2654535361
 30
0.0
 10
697.4222328183
 20
208.7459133989
 30
0.0
 10
698.5933306719
 20
208.2654535523
 30
0.0
 10
698.922232812
 20
207.472049319
 30
0.0
 10
698.9222328339
 20
207.0899663092
 30
0.0
  0
SPLINE
  5
23D
100
AcDbEntity
  8
0
100
AcDbSpline
 62
3
  6
CONTINUOUS
 70
0
 71
3
 72
11
 73
7
 74
0
 42
0.0000001
 43
0.0000001
 44
0.0000000001
 40
0.0
 40
0.0
 40
0.0
 40
0.0
 40
0.2501329905
 40
0.4999999922
 40
0.7498670133
 40
1.0
 40
1.0
 40
1.0
 40
1.0
 10
698.9222328339
 20
207.0899663092
 30
0.0
 10
698.9222328216
 20
206.7078832934
 30
0.0
 10
698.5933306738
 20
205.9144790822
 30
0.0
 10
697.4222328494
 20
205.4340192194
 30
0.0
 10
696.2511349959
 20
205.914479066
 30
0.0
 10
695.9222328558
 20
206.7078832993
 30
0.0
 10
695.9222328339
 20
207.0899663092
 30
0.0
  0
SPLINE
  5
23E
100
AcDbEntity
  8
0
100
AcDbSpline
 62
3
  6
CONTINUOUS
 70
0
 71
3
 72
11
 73
7
 74
0
 42
0.0000001
 43
0.0000001
 44
0.0000000001
 40
0.0
 40
0.0
 40
0.0
 40
0.0
 40
0.2501329905
 40
0.4999999922
 40
0.7498670133
 40
1.0
 40
1.0
 40
1.0
 40
1.0
 10
646.4222328339
 20
207.0899663092
 30
0.0
 10
646.4222328461
 20
207.4720493249
 30
0.0
 10
646.7511349939
 20
208.2654535361
 30
0.0
 10
647.9222328183
 20
208.7459133989
 30
0.0
 10
649.0933306719
 20
208.2654535523
 30
0.0
 10
649.422232812
 20
207.472049319
 30
0.0
 10
649.4222328339
 20
207.0899663092
 30
0.0
  0
SPLINE
  5
23F
100
AcDbEntity
  8
0
100
AcDbSpline
 62
3
  6
CONTINUOUS
 70
0
 71
3
 72
11
 73
7
 74
0
 42
0.0000001
 43
0.0000001
 44
0.0000000001
 40
0.0
 40
0.0
 40
0.0
 40
0.0
 40
0.2501329905
 40
0.4999999922
 40
0.7498670133
 40
1.0
 40
1.0
 40
1.0
 40
1.0
 10
649.4222328339
 20
207.0899663092
 30
0.0
 10
649.4222328216
 20
206.7078832934
 30
0.0
 10
649.0933306738
 20
205.9144790822
 30
0.0
 10
647.9222328494
 20
205.4340192194
 30
0.0
 10
646.7511349959
 20
205.914479066
 30
0.0
 10
646.4222328558
 20
206.7078832993
 30
0.0
 10
646.4222328339
 20
207.0899663092
 30
0.0
  0
SPLINE
  5
240
100
AcDbEntity
  8
0
100
AcDbSpline
 62
3
  6
CONTINUOUS
 70
0
 71
3
 72
11
 73
7
 74
0
 42
0.0000001
 43
0.0000001
 44
0.0000000001
 40
0.0
 40
0.0
 40
0.0
 40
0.0
 40
0.2501329905
 40
0.4999999922
 40
0.7498670133
 40
1.0
 40
1.0
 40
1.0
 40
1.0
 10
520.4222328339
 20
207.0899663092
 30
0.0
 10
520.4222328461
 20
207.4720493249
 30
0.0
 10
520.7511349939
 20
208.2654535361
 30
0.0
 10
521.9222328183
 20
208.7459133989
 30
0.0
 10
523.0933306719
 20
208.2654535523
 30
0.0
 10
523.422232812
 20
207.472049319
 30
0.0
 10
523.4222328339
 20
207.0899663092
 30
0.0
  0
SPLINE
  5
241
100
AcDbEntity
  8
0
100
AcDbSpline
 62
3
  6
CONTINUOUS
 70
0
 71
3
 72
11
 73
7
 74
0
 42
0.0000001
 43
0.0000001
 44
0.0000000001
 40
0.0
 40
0.0
 40
0.0
 40
0.0
 40
0.2501329905
 40
0.4999999922
 40
0.7498670133
 40
1.0
 40
1.0
 40
1.0
 40
1.0
 10
523.4222328339
 20
207.0899663092
 30
0.0
 10
523.4222328216
 20
206.7078832934
 30
0.0
 10
523.0933306738
 20
205.9144790822
 30
0.0
 10
521.9222328494
 20
205.4340192194
 30
0.0
 10
520.7511349959
 20
205.914479066
 30
0.0
 10
520.4222328558
 20
206.7078832993
 30
0.0
 10
520.4222328339
 20
207.0899663092
 30
0.0
  0
SPLINE
  5
242
100
AcDbEntity
  8
0
100
AcDbSpline
 62
3
  6
CONTINUOUS
 70
0
 71
3
 72
11
 73
7
 74
0
 42
0.0000001
 43
0.0000001
 44
0.0000000001
 40
0.0
 40
0.0
 40
0.0
 40
0.0
 40
0.2501329905
 40
0.4999999922
 40
0.7498670133
 40
1.0
 40
1.0
 40
1.0
 40
1.0
 10
470.9222328339
 20
207.0899663092
 30
0.0
 10
470.9222328461
 20
207.4720493249
 30
0.0
 10
471.2511349939
 20
208.2654535361
 30
0.0
 10
472.4222328183
 20
208.7459133989
 30
0.0
 10
473.5933306719
 20
208.2654535523
 30
0.0
 10
473.922232812
 20
207.472049319
 30
0.0
 10
473.9222328339
 20
207.0899663092
 30
0.0
  0
SPLINE
  5
243
100
AcDbEntity
  8
0
100
AcDbSpline
 62
3
  6
CONTINUOUS
 70
0
 71
3
 72
11
 73
7
 74
0
 42
0.0000001
 43
0.0000001
 44
0.0000000001
 40
0.0
 40
0.0
 40
0.0
 40
0.0
 40
0.2501329905
 40
0.4999999922
 40
0.7498670133
 40
1.0
 40
1.0
 40
1.0
 40
1.0
 10
473.9222328339
 20
207.0899663092
 30
0.0
 10
473.9222328216
 20
206.7078832934
 30
0.0
 10
473.5933306738
 20
205.9144790822
 30
0.0
 10
472.4222328494
 20
205.4340192194
 30
0.0
 10
471.2511349959
 20
205.914479066
 30
0.0
 10
470.9222328558
 20
206.7078832993
 30
0.0
 10
470.9222328339
 20
207.0899663092
 30
0.0
  0
SPLINE
  5
244
100
AcDbEntity
  8
0
100
AcDbSpline
 62
3
  6
CONTINUOUS
 70
0
 71
3
 72
11
 73
7
 74
0
 42
0.0000001
 43
0.0000001
 44
0.0000000001
 40
0.0
 40
0.0
 40
0.0
 40
0.0
 40
0.2501329905
 40
0.4999999922
 40
0.7498670133
 40
1.0
 40
1.0
 40
1.0
 40
1.0
 10
430.4222328339
 20
207.0899663092
 30
0.0
 10
430.4222328461
 20
207.4720493249
 30
0.0
 10
430.7511349939
 20
208.2654535361
 30
0.0
 10
431.9222328183
 20
208.7459133989
 30
0.0
 10
433.0933306719
 20
208.2654535523
 30
0.0
 10
433.422232812
 20
207.472049319
 30
0.0
 10
433.4222328339
 20
207.0899663092
 30
0.0
  0
SPLINE
  5
245
100
AcDbEntity
  8
0
100
AcDbSpline
 62
3
  6
CONTINUOUS
 70
0
 71
3
 72
11
 73
7
 74
0
 42
0.0000001
 43
0.0000001
 44
0.0000000001
 40
0.0
 40
0.0
 40
0.0
 40
0.0
 40
0.2501329905
 40
0.4999999922
 40
0.7498670133
 40
1.0
 40
1.0
 40
1.0
 40
1.0
 10
433.4222328339
 20
207.0899663092
 30
0.0
 10
433.4222328216
 20
206.7078832934
 30
0.0
 10
433.0933306738
 20
205.9144790822
 30
0.0
 10
431.9222328494
 20
205.4340192194
 30
0.0
 10
430.7511349959
 20
205.914479066
 30
0.0
 10
430.4222328558
 20
206.7078832993
 30
0.0
 10
430.4222328339
 20
207.0899663092
 30
0.0
  0
SPLINE
  5
246
100
AcDbEntity
  8
0
100
AcDbSpline
 62
3
  6
CONTINUOUS
 70
0
 71
3
 72
11
 73
7
 74
0
 42
0.0000001
 43
0.0000001
 44
0.0000000001
 40
0.0
 40
0.0
 40
0.0
 40
0.0
 40
0.2501329905
 40
0.4999999922
 40
0.7498670133
 40
1.0
 40
1.0
 40
1.0
 40
1.0
 10
433.4222328339
 20
626.6840363092
 30
0.0
 10
433.4222328216
 20
626.3019532934
 30
0.0
 10
433.0933306738
 20
625.5085490822
 30
0.0
 10
431.9222328494
 20
625.0280892194
 30
0.0
 10
430.7511349959
 20
625.508549066
 30
0.0
 10
430.4222328558
 20
626.3019532993
 30
0.0
 10
430.4222328339
 20
626.6840363092
 30
0.0
  0
SPLINE
  5
247
100
AcDbEntity
  8
0
100
AcDbSpline
 62
3
  6
CONTINUOUS
 70
0
 71
3
 72
11
 73
7
 74
0
 42
0.0000001
 43
0.0000001
 44
0.0000000001
 40
0.0
 40
0.0
 40
0.0
 40
0.0
 40
0.2501329905
 40
0.4999999922
 40
0.7498670133
 40
1.0
 40
1.0
 40
1.0
 40
1.0
 10
430.4222328339
 20
626.6840363092
 30
0.0
 10
430.4222328461
 20
627.0661193249
 30
0.0
 10
430.7511349939
 20
627.8595235361
 30
0.0
 10
431.9222328183
 20
628.3399833989
 30
0.0
 10
433.0933306719
 20
627.8595235523
 30
0.0
 10
433.422232812
 20
627.066119319
 30
0.0
 10
433.4222328339
 20
626.6840363092
 30
0.0
  0
SPLINE
  5
248
100
AcDbEntity
  8
0
100
AcDbSpline
 62
3
  6
CONTINUOUS
 70
0
 71
3
 72
11
 73
7
 74
0
 42
0.0000001
 43
0.0000001
 44
0.0000000001
 40
0.0
 40
0.0
 40
0.0
 40
0.0
 40
0.2501329905
 40
0.4999999922
 40
0.7498670133
 40
1.0
 40
1.0
 40
1.0
 40
1.0
 10
470.9222328339
 20
626.6840363092
 30
0.0
 10
470.9222328461
 20
627.0661193249
 30
0.0
 10
471.2511349939
 20
627.8595235361
 30
0.0
 10
472.4222328183
 20
628.3399833989
 30
0.0
 10
473.5933306719
 20
627.8595235523
 30
0.0
 10
473.922232812
 20
627.066119319
 30
0.0
 10
473.9222328339
 20
626.6840363092
 30
0.0
  0
SPLINE
  5
249
100
AcDbEntity
  8
0
100
AcDbSpline
 62
3
  6
CONTINUOUS
 70
0
 71
3
 72
11
 73
7
 74
0
 42
0.0000001
 43
0.0000001
 44
0.0000000001
 40
0.0
 40
0.0
 40
0.0
 40
0.0
 40
0.2501329905
 40
0.4999999922
 40
0.7498670133
 40
1.0
 40
1.0
 40
1.0
 40
1.0
 10
473.9222328339
 20
626.6840363092
 30
0.0
 10
473.9222328216
 20
626.3019532934
 30
0.0
 10
473.5933306738
 20
625.5085490822
 30
0.0
 10
472.4222328494
 20
625.0280892194
 30
0.0
 10
471.2511349959
 20
625.508549066
 30
0.0
 10
470.9222328558
 20
626.3019532993
 30
0.0
 10
470.9222328339
 20
626.6840363092
 30
0.0
  0
SPLINE
  5
24A
100
AcDbEntity
  8
0
100
AcDbSpline
 62
3
  6
CONTINUOUS
 70
0
 71
3
 72
11
 73
7
 74
0
 42
0.0000001
 43
0.0000001
 44
0.0000000001
 40
0.0
 40
0.0
 40
0.0
 40
0.0
 40
0.2501329905
 40
0.4999999922
 40
0.7498670133
 40
1.0
 40
1.0
 40
1.0
 40
1.0
 10
520.4222328339
 20
626.6840363092
 30
0.0
 10
520.4222328461
 20
627.0661193249
 30
0.0
 10
520.7511349939
 20
627.8595235361
 30
0.0
 10
521.9222328183
 20
628.3399833989
 30
0.0
 10
523.0933306719
 20
627.8595235523
 30
0.0
 10
523.422232812
 20
627.066119319
 30
0.0
 10
523.4222328339
 20
626.6840363092
 30
0.0
  0
SPLINE
  5
24B
100
AcDbEntity
  8
0
100
AcDbSpline
 62
3
  6
CONTINUOUS
 70
0
 71
3
 72
11
 73
7
 74
0
 42
0.0000001
 43
0.0000001
 44
0.0000000001
 40
0.0
 40
0.0
 40
0.0
 40
0.0
 40
0.2501329905
 40
0.4999999922
 40
0.7498670133
 40
1.0
 40
1.0
 40
1.0
 40
1.0
 10
523.4222328339
 20
626.6840363092
 30
0.0
 10
523.4222328216
 20
626.3019532934
 30
0.0
 10
523.0933306738
 20
625.5085490822
 30
0.0
 10
521.9222328494
 20
625.0280892194
 30
0.0
 10
520.7511349959
 20
625.508549066
 30
0.0
 10
520.4222328558
 20
626.3019532993
 30
0.0
 10
520.4222328339
 20
626.6840363092
 30
0.0
  0
SPLINE
  5
24C
100
AcDbEntity
  8
0
100
AcDbSpline
 62
3
  6
CONTINUOUS
 70
0
 71
3
 72
11
 73
7
 74
0
 42
0.0000001
 43
0.0000001
 44
0.0000000001
 40
0.0
 40
0.0
 40
0.0
 40
0.0
 40
0.2501329905
 40
0.4999999922
 40
0.7498670133
 40
1.0
 40
1.0
 40
1.0
 40
1.0
 10
646.4222328339
 20
626.6840363092
 30
0.0
 10
646.4222328461
 20
627.0661193249
 30
0.0
 10
646.7511349939
 20
627.8595235361
 30
0.0
 10
647.9222328183
 20
628.3399833989
 30
0.0
 10
649.0933306719
 20
627.8595235523
 30
0.0
 10
649.422232812
 20
627.066119319
 30
0.0
 10
649.4222328339
 20
626.6840363092
 30
0.0
  0
SPLINE
  5
24D
100
AcDbEntity
  8
0
100
AcDbSpline
 62
3
  6
CONTINUOUS
 70
0
 71
3
 72
11
 73
7
 74
0
 42
0.0000001
 43
0.0000001
 44
0.0000000001
 40
0.0
 40
0.0
 40
0.0
 40
0.0
 40
0.2501329905
 40
0.4999999922
 40
0.7498670133
 40
1.0
 40
1.0
 40
1.0
 40
1.0
 10
649.4222328339
 20
626.6840363092
 30
0.0
 10
649.4222328216
 20
626.3019532934
 30
0.0
 10
649.0933306738
 20
625.5085490822
 30
0.0
 10
647.9222328494
 20
625.0280892194
 30
0.0
 10
646.7511349959
 20
625.508549066
 30
0.0
 10
646.4222328558
 20
626.3019532993
 30
0.0
 10
646.4222328339
 20
626.6840363092
 30
0.0
  0
SPLINE
  5
24E
100
AcDbEntity
  8
0
100
AcDbSpline
 62
3
  6
CONTINUOUS
 70
0
 71
3
 72
11
 73
7
 74
0
 42
0.0000001
 43
0.0000001
 44
0.0000000001
 40
0.0
 40
0.0
 40
0.0
 40
0.0
 40
0.2501329905
 40
0.4999999922
 40
0.7498670133
 40
1.0
 40
1.0
 40
1.0
 40
1.0
 10
695.9222328339
 20
626.6840363092
 30
0.0
 10
695.9222328461
 20
627.0661193249
 30
0.0
 10
696.2511349939
 20
627.8595235361
 30
0.0
 10
697.4222328183
 20
628.3399833989
 30
0.0
 10
698.5933306719
 20
627.8595235523
 30
0.0
 10
698.922232812
 20
627.066119319
 30
0.0
 10
698.9222328339
 20
626.6840363092
 30
0.0
  0
SPLINE
  5
24F
100
AcDbEntity
  8
0
100
AcDbSpline
 62
3
  6
CONTINUOUS
 70
0
 71
3
 72
11
 73
7
 74
0
 42
0.0000001
 43
0.0000001
 44
0.0000000001
 40
0.0
 40
0.0
 40
0.0
 40
0.0
 40
0.2501329905
 40
0.4999999922
 40
0.7498670133
 40
1.0
 40
1.0
 40
1.0
 40
1.0
 10
698.9222328339
 20
626.6840363092
 30
0.0
 10
698.9222328216
 20
626.3019532934
 30
0.0
 10
698.5933306738
 20
625.5085490822
 30
0.0
 10
697.4222328494
 20
625.0280892194
 30
0.0
 10
696.2511349959
 20
625.508549066
 30
0.0
 10
695.9222328558
 20
626.3019532993
 30
0.0
 10
695.9222328339
 20
626.6840363092
 30
0.0
  0
SPLINE
  5
250
100
AcDbEntity
  8
0
100
AcDbSpline
 62
3
  6
CONTINUOUS
 70
0
 71
3
 72
11
 73
7
 74
0
 42
0.0000001
 43
0.0000001
 44
0.0000000001
 40
0.0
 40
0.0
 40
0.0
 40
0.0
 40
0.2501329905
 40
0.4999999922
 40
0.7498670133
 40
1.0
 40
1.0
 40
1.0
 40
1.0
 10
736.4222328339
 20
626.6840363092
 30
0.0
 10
736.4222328461
 20
627.0661193249
 30
0.0
 10
736.7511349939
 20
627.8595235361
 30
0.0
 10
737.9222328183
 20
628.3399833989
 30
0.0
 10
739.0933306719
 20
627.8595235523
 30
0.0
 10
739.422232812
 20
627.066119319
 30
0.0
 10
739.4222328339
 20
626.6840363092
 30
0.0
  0
SPLINE
  5
251
100
AcDbEntity
  8
0
100
AcDbSpline
 62
3
  6
CONTINUOUS
 70
0
 71
3
 72
11
 73
7
 74
0
 42
0.0000001
 43
0.0000001
 44
0.0000000001
 40
0.0
 40
0.0
 40
0.0
 40
0.0
 40
0.2501329905
 40
0.4999999922
 40
0.7498670133
 40
1.0
 40
1.0
 40
1.0
 40
1.0
 10
739.4222328339
 20
626.6840363092
 30
0.0
 10
739.4222328216
 20
626.3019532934
 30
0.0
 10
739.0933306738
 20
625.5085490822
 30
0.0
 10
737.9222328494
 20
625.0280892194
 30
0.0
 10
736.7511349959
 20
625.508549066
 30
0.0
 10
736.4222328558
 20
626.3019532993
 30
0.0
 10
736.4222328339
 20
626.6840363092
 30
0.0
  0
SPLINE
  5
252
100
AcDbEntity
  8
0
100
AcDbSpline
 62
3
  6
CONTINUOUS
 70
0
 71
3
 72
11
 73
7
 74
0
 42
0.0000001
 43
0.0000001
 44
0.0000000001
 40
0.0
 40
0.0
 40
0.0
 40
0.0
 40
0.2501329905
 40
0.4999999922
 40
0.7498670133
 40
1.0
 40
1.0
 40
1.0
 40
1.0
 10
782.2153988339
 20
281.8870363092
 30
0.0
 10
782.2153988461
 20
282.2691193249
 30
0.0
 10
782.5443009939
 20
283.0625235361
 30
0.0
 10
783.7153988183
 20
283.5429833989
 30
0.0
 10
784.8864966719
 20
283.0625235523
 30
0.0
 10
785.215398812
 20
282.269119319
 30
0.0
 10
785.2153988339
 20
281.8870363092
 30
0.0
  0
SPLINE
  5
253
100
AcDbEntity
  8
0
100
AcDbSpline
 62
3
  6
CONTINUOUS
 70
0
 71
3
 72
11
 73
7
 74
0
 42
0.0000001
 43
0.0000001
 44
0.0000000001
 40
0.0
 40
0.0
 40
0.0
 40
0.0
 40
0.2501329905
 40
0.4999999922
 40
0.7498670133
 40
1.0
 40
1.0
 40
1.0
 40
1.0
 10
785.2153988339
 20
281.8870363092
 30
0.0
 10
785.2153988216
 20
281.5049532934
 30
0.0
 10
784.8864966738
 20
280.7115490822
 30
0.0
 10
783.7153988494
 20
280.2310892194
 30
0.0
 10
782.5443009959
 20
280.711549066
 30
0.0
 10
782.2153988558
 20
281.5049532993
 30
0.0
 10
782.2153988339
 20
281.8870363092
 30
0.0
  0
SPLINE
  5
254
100
AcDbEntity
  8
0
100
AcDbSpline
 62
3
  6
CONTINUOUS
 70
0
 71
3
 72
11
 73
7
 74
0
 42
0.0000001
 43
0.0000001
 44
0.0000000001
 40
0.0
 40
0.0
 40
0.0
 40
0.0
 40
0.2501329905
 40
0.4999999922
 40
0.7498670133
 40
1.0
 40
1.0
 40
1.0
 40
1.0
 10
384.6290668339
 20
281.8870363092
 30
0.0
 10
384.6290668461
 20
282.2691193249
 30
0.0
 10
384.9579689939
 20
283.0625235361
 30
0.0
 10
386.1290668183
 20
283.5429833989
 30
0.0
 10
387.3001646719
 20
283.0625235523
 30
0.0
 10
387.629066812
 20
282.269119319
 30
0.0
 10
387.6290668339
 20
281.8870363092
 30
0.0
  0
SPLINE
  5
255
100
AcDbEntity
  8
0
100
AcDbSpline
 62
3
  6
CONTINUOUS
 70
0
 71
3
 72
11
 73
7
 74
0
 42
0.0000001
 43
0.0000001
 44
0.0000000001
 40
0.0
 40
0.0
 40
0.0
 40
0.0
 40
0.2501329905
 40
0.4999999922
 40
0.7498670133
 40
1.0
 40
1.0
 40
1.0
 40
1.0
 10
387.6290668339
 20
281.8870363092
 30
0.0
 10
387.6290668216
 20
281.5049532934
 30
0.0
 10
387.3001646738
 20
280.7115490822
 30
0.0
 10
386.1290668494
 20
280.2310892194
 30
0.0
 10
384.9579689959
 20
280.711549066
 30
0.0
 10
384.6290668558
 20
281.5049532993
 30
0.0
 10
384.6290668339
 20
281.8870363092
 30
0.0
  0
SPLINE
  5
256
100
AcDbEntity
  8
0
100
AcDbSpline
 62
3
  6
CONTINUOUS
 70
0
 71
3
 72
11
 73
7
 74
0
 42
0.0000001
 43
0.0000001
 44
0.0000000001
 40
0.0
 40
0.0
 40
0.0
 40
0.0
 40
0.2501329905
 40
0.4999999922
 40
0.7498670133
 40
1.0
 40
1.0
 40
1.0
 40
1.0
 10
384.6290668339
 20
351.8870363092
 30
0.0
 10
384.6290668461
 20
352.2691193249
 30
0.0
 10
384.9579689939
 20
353.0625235361
 30
0.0
 10
386.1290668183
 20
353.5429833989
 30
0.0
 10
387.3001646719
 20
353.0625235523
 30
0.0
 10
387.629066812
 20
352.269119319
 30
0.0
 10
387.6290668339
 20
351.8870363092
 30
0.0
  0
SPLINE
  5
257
100
AcDbEntity
  8
0
100
AcDbSpline
 62
3
  6
CONTINUOUS
 70
0
 71
3
 72
11
 73
7
 74
0
 42
0.0000001
 43
0.0000001
 44
0.0000000001
 40
0.0
 40
0.0
 40
0.0
 40
0.0
 40
0.2501329905
 40
0.4999999922
 40
0.7498670133
 40
1.0
 40
1.0
 40
1.0
 40
1.0
 10
387.6290668339
 20
351.8870363092
 30
0.0
 10
387.6290668216
 20
351.5049532934
 30
0.0
 10
387.3001646738
 20
350.7115490822
 30
0.0
 10
386.1290668494
 20
350.2310892194
 30
0.0
 10
384.9579689959
 20
350.711549066
 30
0.0
 10
384.6290668558
 20
351.5049532993
 30
0.0
 10
384.6290668339
 20
351.8870363092
 30
0.0
  0
SPLINE
  5
258
100
AcDbEntity
  8
0
100
AcDbSpline
 62
3
  6
CONTINUOUS
 70
0
 71
3
 72
11
 73
7
 74
0
 42
0.0000001
 43
0.0000001
 44
0.0000000001
 40
0.0
 40
0.0
 40
0.0
 40
0.0
 40
0.2501329905
 40
0.4999999922
 40
0.7498670133
 40
1.0
 40
1.0
 40
1.0
 40
1.0
 10
782.2153988339
 20
351.8870363092
 30
0.0
 10
782.2153988461
 20
352.2691193249
 30
0.0
 10
782.5443009939
 20
353.0625235361
 30
0.0
 10
783.7153988183
 20
353.5429833989
 30
0.0
 10
784.8864966719
 20
353.0625235523
 30
0.0
 10
785.215398812
 20
352.269119319
 30
0.0
 10
785.2153988339
 20
351.8870363092
 30
0.0
  0
SPLINE
  5
259
100
AcDbEntity
  8
0
100
AcDbSpline
 62
3
  6
CONTINUOUS
 70
0
 71
3
 72
11
 73
7
 74
0
 42
0.0000001
 43
0.0000001
 44
0.0000000001
 40
0.0
 40
0.0
 40
0.0
 40
0.0
 40
0.2501329905
 40
0.4999999922
 40
0.7498670133
 40
1.0
 40
1.0
 40
1.0
 40
1.0
 10
785.2153988339
 20
351.8870363092
 30
0.0
 10
785.2153988216
 20
351.5049532934
 30
0.0
 10
784.8864966738
 20
350.7115490822
 30
0.0
 10
783.7153988494
 20
350.2310892194
 30
0.0
 10
782.5443009959
 20
350.711549066
 30
0.0
 10
782.2153988558
 20
351.5049532993
 30
0.0
 10
782.2153988339
 20
351.8870363092
 30
0.0
  0
SPLINE
  5
25A
100
AcDbEntity
  8
0
100
AcDbSpline
 62
3
  6
CONTINUOUS
 70
0
 71
3
 72
11
 73
7
 74
0
 42
0.0000001
 43
0.0000001
 44
0.0000000001
 40
0.0
 40
0.0
 40
0.0
 40
0.0
 40
0.2501329905
 40
0.4999999922
 40
0.7498670133
 40
1.0
 40
1.0
 40
1.0
 40
1.0
 10
586.4222328339
 20
207.0899663092
 30
0.0
 10
586.4222328216
 20
206.7078832934
 30
0.0
 10
586.0933306738
 20
205.9144790822
 30
0.0
 10
584.9222328494
 20
205.4340192194
 30
0.0
 10
583.7511349959
 20
205.914479066
 30
0.0
 10
583.4222328558
 20
206.7078832993
 30
0.0
 10
583.4222328339
 20
207.0899663092
 30
0.0
  0
SPLINE
  5
25B
100
AcDbEntity
  8
0
100
AcDbSpline
 62
3
  6
CONTINUOUS
 70
0
 71
3
 72
11
 73
7
 74
0
 42
0.0000001
 43
0.0000001
 44
0.0000000001
 40
0.0
 40
0.0
 40
0.0
 40
0.0
 40
0.2501329905
 40
0.4999999922
 40
0.7498670133
 40
1.0
 40
1.0
 40
1.0
 40
1.0
 10
583.4222328339
 20
207.0899663092
 30
0.0
 10
583.4222328461
 20
207.4720493249
 30
0.0
 10
583.7511349939
 20
208.2654535361
 30
0.0
 10
584.9222328183
 20
208.7459133989
 30
0.0
 10
586.0933306719
 20
208.2654535523
 30
0.0
 10
586.422232812
 20
207.472049319
 30
0.0
 10
586.4222328339
 20
207.0899663092
 30
0.0
  0
SPLINE
  5
25C
100
AcDbEntity
  8
0
100
AcDbSpline
 62
3
  6
CONTINUOUS
 70
0
 71
3
 72
11
 73
7
 74
0
 42
0.0000001
 43
0.0000001
 44
0.0000000001
 40
0.0
 40
0.0
 40
0.0
 40
0.0
 40
0.2501329905
 40
0.4999999922
 40
0.7498670133
 40
1.0
 40
1.0
 40
1.0
 40
1.0
 10
384.6290668339
 20
611.8870363092
 30
0.0
 10
384.6290668461
 20
612.2691193249
 30
0.0
 10
384.9579689939
 20
613.0625235361
 30
0.0
 10
386.1290668183
 20
613.5429833989
 30
0.0
 10
387.3001646719
 20
613.0625235523
 30
0.0
 10
387.629066812
 20
612.269119319
 30
0.0
 10
387.6290668339
 20
611.8870363092
 30
0.0
  0
SPLINE
  5
25D
100
AcDbEntity
  8
0
100
AcDbSpline
 62
3
  6
CONTINUOUS
 70
0
 71
3
 72
11
 73
7
 74
0
 42
0.0000001
 43
0.0000001
 44
0.0000000001
 40
0.0
 40
0.0
 40
0.0
 40
0.0
 40
0.2501329905
 40
0.4999999922
 40
0.7498670133
 40
1.0
 40
1.0
 40
1.0
 40
1.0
 10
387.6290668339
 20
611.8870363092
 30
0.0
 10
387.6290668216
 20
611.5049532934
 30
0.0
 10
387.3001646738
 20
610.7115490822
 30
0.0
 10
386.1290668494
 20
610.2310892194
 30
0.0
 10
384.9579689959
 20
610.711549066
 30
0.0
 10
384.6290668558
 20
611.5049532993
 30
0.0
 10
384.6290668339
 20
611.8870363092
 30
0.0
  0
SPLINE
  5
25E
100
AcDbEntity
  8
0
100
AcDbSpline
 62
3
  6
CONTINUOUS
 70
0
 71
3
 72
11
 73
7
 74
0
 42
0.0000001
 43
0.0000001
 44
0.0000000001
 40
0.0
 40
0.0
 40
0.0
 40
0.0
 40
0.2501329905
 40
0.4999999922
 40
0.7498670133
 40
1.0
 40
1.0
 40
1.0
 40
1.0
 10
387.6290668339
 20
416.8870363092
 30
0.0
 10
387.6290668216
 20
416.5049532934
 30
0.0
 10
387.3001646738
 20
415.7115490822
 30
0.0
 10
386.1290668494
 20
415.2310892194
 30
0.0
 10
384.9579689959
 20
415.711549066
 30
0.0
 10
384.6290668558
 20
416.5049532993
 30
0.0
 10
384.6290668339
 20
416.8870363092
 30
0.0
  0
SPLINE
  5
25F
100
AcDbEntity
  8
0
100
AcDbSpline
 62
3
  6
CONTINUOUS
 70
0
 71
3
 72
11
 73
7
 74
0
 42
0.0000001
 43
0.0000001
 44
0.0000000001
 40
0.0
 40
0.0
 40
0.0
 40
0.0
 40
0.2501329905
 40
0.4999999922
 40
0.7498670133
 40
1.0
 40
1.0
 40
1.0
 40
1.0
 10
384.6290668339
 20
416.8870363092
 30
0.0
 10
384.6290668461
 20
417.2691193249
 30
0.0
 10
384.9579689939
 20
418.0625235361
 30
0.0
 10
386.1290668183
 20
418.5429833989
 30
0.0
 10
387.3001646719
 20
418.0625235523
 30
0.0
 10
387.629066812
 20
417.269119319
 30
0.0
 10
387.6290668339
 20
416.8870363092
 30
0.0
  0
SPLINE
  5
260
100
AcDbEntity
  8
0
100
AcDbSpline
 62
3
  6
CONTINUOUS
 70
0
 71
3
 72
11
 73
7
 74
0
 42
0.0000001
 43
0.0000001
 44
0.0000000001
 40
0.0
 40
0.0
 40
0.0
 40
0.0
 40
0.2501329905
 40
0.4999999922
 40
0.7498670133
 40
1.0
 40
1.0
 40
1.0
 40
1.0
 10
387.6290668339
 20
221.8870363092
 30
0.0
 10
387.6290668216
 20
221.5049532934
 30
0.0
 10
387.3001646738
 20
220.7115490822
 30
0.0
 10
386.1290668494
 20
220.2310892194
 30
0.0
 10
384.9579689959
 20
220.711549066
 30
0.0
 10
384.6290668558
 20
221.5049532993
 30
0.0
 10
384.6290668339
 20
221.8870363092
 30
0.0
  0
SPLINE
  5
261
100
AcDbEntity
  8
0
100
AcDbSpline
 62
3
  6
CONTINUOUS
 70
0
 71
3
 72
11
 73
7
 74
0
 42
0.0000001
 43
0.0000001
 44
0.0000000001
 40
0.0
 40
0.0
 40
0.0
 40
0.0
 40
0.2501329905
 40
0.4999999922
 40
0.7498670133
 40
1.0
 40
1.0
 40
1.0
 40
1.0
 10
384.6290668339
 20
221.8870363092
 30
0.0
 10
384.6290668461
 20
222.2691193249
 30
0.0
 10
384.9579689939
 20
223.0625235361
 30
0.0
 10
386.1290668183
 20
223.5429833989
 30
0.0
 10
387.3001646719
 20
223.0625235523
 30
0.0
 10
387.629066812
 20
222.269119319
 30
0.0
 10
387.6290668339
 20
221.8870363092
 30
0.0
  0
SPLINE
  5
262
100
AcDbEntity
  8
0
100
AcDbSpline
 62
3
  6
CONTINUOUS
 70
0
 71
3
 72
11
 73
7
 74
0
 42
0.0000001
 43
0.0000001
 44
0.0000000001
 40
0.0
 40
0.0
 40
0.0
 40
0.0
 40
0.2501329905
 40
0.4999999922
 40
0.7498670133
 40
1.0
 40
1.0
 40
1.0
 40
1.0
 10
782.2153988339
 20
221.8870363092
 30
0.0
 10
782.2153988461
 20
222.2691193249
 30
0.0
 10
782.5443009939
 20
223.0625235361
 30
0.0
 10
783.7153988183
 20
223.5429833989
 30
0.0
 10
784.8864966719
 20
223.0625235523
 30
0.0
 10
785.215398812
 20
222.269119319
 30
0.0
 10
785.2153988339
 20
221.8870363092
 30
0.0
  0
SPLINE
  5
263
100
AcDbEntity
  8
0
100
AcDbSpline
 62
3
  6
CONTINUOUS
 70
0
 71
3
 72
11
 73
7
 74
0
 42
0.0000001
 43
0.0000001
 44
0.0000000001
 40
0.0
 40
0.0
 40
0.0
 40
0.0
 40
0.2501329905
 40
0.4999999922
 40
0.7498670133
 40
1.0
 40
1.0
 40
1.0
 40
1.0
 10
785.2153988339
 20
221.8870363092
 30
0.0
 10
785.2153988216
 20
221.5049532934
 30
0.0
 10
784.8864966738
 20
220.7115490822
 30
0.0
 10
783.7153988494
 20
220.2310892194
 30
0.0
 10
782.5443009959
 20
220.711549066
 30
0.0
 10
782.2153988558
 20
221.5049532993
 30
0.0
 10
782.2153988339
 20
221.8870363092
 30
0.0
  0
SPLINE
  5
264
100
AcDbEntity
  8
0
100
AcDbSpline
 62
3
  6
CONTINUOUS
 70
0
 71
3
 72
11
 73
7
 74
0
 42
0.0000001
 43
0.0000001
 44
0.0000000001
 40
0.0
 40
0.0
 40
0.0
 40
0.0
 40
0.2501329905
 40
0.4999999922
 40
0.7498670133
 40
1.0
 40
1.0
 40
1.0
 40
1.0
 10
785.2153988339
 20
416.8870363092
 30
0.0
 10
785.2153988216
 20
416.5049532934
 30
0.0
 10
784.8864966738
 20
415.7115490822
 30
0.0
 10
783.7153988494
 20
415.2310892194
 30
0.0
 10
782.5443009959
 20
415.711549066
 30
0.0
 10
782.2153988558
 20
416.5049532993
 30
0.0
 10
782.2153988339
 20
416.8870363092
 30
0.0
  0
SPLINE
  5
265
100
AcDbEntity
  8
0
100
AcDbSpline
 62
3
  6
CONTINUOUS
 70
0
 71
3
 72
11
 73
7
 74
0
 42
0.0000001
 43
0.0000001
 44
0.0000000001
 40
0.0
 40
0.0
 40
0.0
 40
0.0
 40
0.2501329905
 40
0.4999999922
 40
0.7498670133
 40
1.0
 40
1.0
 40
1.0
 40
1.0
 10
782.2153988339
 20
416.8870363092
 30
0.0
 10
782.2153988461
 20
417.2691193249
 30
0.0
 10
782.5443009939
 20
418.0625235361
 30
0.0
 10
783.7153988183
 20
418.5429833989
 30
0.0
 10
784.8864966719
 20
418.0625235523
 30
0.0
 10
785.215398812
 20
417.269119319
 30
0.0
 10
785.2153988339
 20
416.8870363092
 30
0.0
  0
SPLINE
  5
266
100
AcDbEntity
  8
0
100
AcDbSpline
 62
3
  6
CONTINUOUS
 70
0
 71
3
 72
11
 73
7
 74
0
 42
0.0000001
 43
0.0000001
 44
0.0000000001
 40
0.0
 40
0.0
 40
0.0
 40
0.0
 40
0.2501329905
 40
0.4999999922
 40
0.7498670133
 40
1.0
 40
1.0
 40
1.0
 40
1.0
 10
785.2153988339
 20
611.8870363092
 30
0.0
 10
785.2153988216
 20
611.5049532934
 30
0.0
 10
784.8864966738
 20
610.7115490822
 30
0.0
 10
783.7153988494
 20
610.2310892194
 30
0.0
 10
782.5443009959
 20
610.711549066
 30
0.0
 10
782.2153988558
 20
611.5049532993
 30
0.0
 10
782.2153988339
 20
611.8870363092
 30
0.0
  0
SPLINE
  5
267
100
AcDbEntity
  8
0
100
AcDbSpline
 62
3
  6
CONTINUOUS
 70
0
 71
3
 72
11
 73
7
 74
0
 42
0.0000001
 43
0.0000001
 44
0.0000000001
 40
0.0
 40
0.0
 40
0.0
 40
0.0
 40
0.2501329905
 40
0.4999999922
 40
0.7498670133
 40
1.0
 40
1.0
 40
1.0
 40
1.0
 10
782.2153988339
 20
611.8870363092
 30
0.0
 10
782.2153988461
 20
612.2691193249
 30
0.0
 10
782.5443009939
 20
613.0625235361
 30
0.0
 10
783.7153988183
 20
613.5429833989
 30
0.0
 10
784.8864966719
 20
613.0625235523
 30
0.0
 10
785.215398812
 20
612.269119319
 30
0.0
 10
785.2153988339
 20
611.8870363092
 30
0.0
  0
SPLINE
  5
268
100
AcDbEntity
  8
0
100
AcDbSpline
 62
3
  6
CONTINUOUS
 70
0
 71
3
 72
11
 73
7
 74
0
 42
0.0000001
 43
0.0000001
 44
0.0000000001
 40
0.0
 40
0.0
 40
0.0
 40
0.0
 40
0.2501329905
 40
0.4999999922
 40
0.7498670133
 40
1.0
 40
1.0
 40
1.0
 40
1.0
 10
586.4222328339
 20
626.6840363092
 30
0.0
 10
586.4222328216
 20
626.3019532934
 30
0.0
 10
586.0933306738
 20
625.5085490822
 30
0.0
 10
584.9222328494
 20
625.0280892194
 30
0.0
 10
583.7511349959
 20
625.508549066
 30
0.0
 10
583.4222328558
 20
626.3019532993
 30
0.0
 10
583.4222328339
 20
626.6840363092
 30
0.0
  0
SPLINE
  5
269
100
AcDbEntity
  8
0
100
AcDbSpline
 62
3
  6
CONTINUOUS
 70
0
 71
3
 72
11
 73
7
 74
0
 42
0.0000001
 43
0.0000001
 44
0.0000000001
 40
0.0
 40
0.0
 40
0.0
 40
0.0
 40
0.2501329905
 40
0.4999999922
 40
0.7498670133
 40
1.0
 40
1.0
 40
1.0
 40
1.0
 10
583.4222328339
 20
626.6840363092
 30
0.0
 10
583.4222328461
 20
627.0661193249
 30
0.0
 10
583.7511349939
 20
627.8595235361
 30
0.0
 10
584.9222328183
 20
628.3399833989
 30
0.0
 10
586.0933306719
 20
627.8595235523
 30
0.0
 10
586.422232812
 20
627.066119319
 30
0.0
 10
586.4222328339
 20
626.6840363092
 30
0.0
  0
ENDSEC
  0
SECTION
  2
OBJECTS
  0
DICTIONARY
  5
C
100
AcDbDictionary
280
0
281
1
  3
ACAD_GROUP
350
D
  3
ACAD_MLINESTYLE
350
17
  3
ACAD_LAYOUT
350
1A
  3
ACAD_PLOTSETTINGS
350
19
  3
ACAD_PLOTSTYLENAME
350
E
  0
DICTIONARY
  5
D
102
{ACAD_REACTORS
330
C
102
}
100
AcDbDictionary
280
0
281
1
  0
ACDBDICTIONARYWDFLT
  5
E
102
{ACAD_REACTORS
330
C
102
}
100
AcDbDictionary
281
1
  3
Normal
350
F
100
AcDbDictionaryWithDefault
340
F
  0
DICTIONARY
  5
17
102
{ACAD_REACTORS
330
C
102
}
100
AcDbDictionary
280
0
281
1
  3
Standard
350
18
  0
DICTIONARY
  5
19
102
{ACAD_REACTORS
330
C
102
}
100
AcDbDictionary
281
1
  0
DICTIONARY
  5
1A
102
{ACAD_REACTORS
330
C
102
}
100
AcDbDictionary
281
1
  3
Model
350
26A
  3
Layout1
350
26B
  0
ACDBPLACEHOLDER
  5
F
102
{ACAD_REACTORS
330
E
102
}
  0
MLINESTYLE
  5
18
102
{ACAD_REACTORS
330
17
102
}
100
AcDbMlineStyle
  2
STANDARD
 70
0
  3

 62
256
 51
90.0
 52
90.0
 71
2
 49
0.5
 62
256
  6
BYLAYER
 49
-0.5
 62
256
  6
BYLAYER
  0
LAYOUT
  5
26A
102
{ACAD_REACTORS
330
1A
102
}
100
AcDbPlotSettings
  1

  2
none_device
  4
ISO_A0_(1189.00_x_841.00_MM)
  6

 40
0.0
 41
0.0
 42
0.0
 43
0.0
 44
1189.0
 45
841.0
 46
0.0
 47
0.0
 48
0.0
 49
0.0
140
0.0
141
0.0
142
1.0
143
1.0
 70
1024
 72
1
 73
0
 74
0
  7

 75
0
147
1.0
148
0.0
149
0.0
100
AcDbLayout
  1
Model
 70
0
 71
0
 10
0.0
 20
0.0
 11
1189.0
 21
841.0
 12
0.0
 22
0.0
 32
0.0
 14
0.0
 24
0.0
 34
0.0
 15
0.0
 25
0.0
 35
0.0
146
0.0
 13
0.0
 23
0.0
 33
0.0
 16
1.0
 26
0.0
 36
0.0
 17
0.0
 27
1.0
 37
0.0
 76
0
330
20B
345
0
346
0
  0
LAYOUT
  5
26B
102
{ACAD_REACTORS
330
1A
102
}
100
AcDbPlotSettings
  1

  2
none_device
  4
ISO_A0_(1189.00_x_841.00_MM)
  6

 40
0.0
 41
0.0
 42
0.0
 43
0.0
 44
1189.0
 45
841.0
 46
0.0
 47
0.0
 48
0.0
 49
0.0
140
0.0
141
0.0
142
1.0
143
1.0
 70
0
 72
1
 73
0
 74
0
  7

 75
0
147
1.0
148
0.0
149
0.0
100
AcDbLayout
  1
Layout1
 70
0
 71
1
 10
0.0
 20
0.0
 11
1189.0
 21
841.0
 12
0.0
 22
0.0
 32
0.0
 14
0.0
 24
0.0
 34
0.0
 15
0.0
 25
0.0
 35
0.0
146
0.0
 13
0.0
 23
0.0
 33
0.0
 16
1.0
 26
0.0
 36
0.0
 17
0.0
 27
1.0
 37
0.0
 76
0
330
20C
345
0
346
0
  0
ENDSEC
  0
EOF
