999
DXF file: roach-2-chassis-back.dxf
999
Pro/ENGINEER 2013230 by Parametric Technology Corporation
  0
SECTION
  2
HEADER
  9
$ACADVER
  1
AC1021
  9
$DWGCODEPAGE
  3
ANSI_1252
  9
$EXTMAX
 10
594.0
 20
420.0
 30
0.0
  9
$EXTMIN
 10
0.0
 20
0.0
 30
0.0
  9
$LIMMIN
 10
0.0
 20
0.0
  9
$LIMMAX
 10
594.0
 20
420.0
  9
$VIEWCTR
 10
297.0
 20
210.0
  9
$VIEWSIZE
 40
420.0
  9
$CLAYER
  8
0
  9
$LTSCALE
 40
32.67
  9
$CELTYPE
  6
BYLAYER
  9
$DIMSCALE
 40
1.0
  9
$DIMASZ
 40
3.5
  9
$DIMEXO
 40
1.5
  9
$DIMDLI
 40
22.572
  9
$DIMEXE
 40
1.0
  9
$DIMCEN
 40
5.346
  9
$DIMLFAC
 40
1.0
  9
$DIMBLK
  1
_FILLED
  9
$DIMTXT
 40
3.5
  9
$DIMTOL
 70
1
  9
$DIMLIM
 70
0
  9
$DIMTFAC
 40
1.0
  9
$DIMTP
 40
0.0
  9
$DIMTM
 40
0.0
  9
$DIMGAP
 40
0.625
  9
$DIMDSEP
 70
44
  9
$PDMODE
 70
3
  9
$PDSIZE
 40
0.25
  9
$HANDSEED
  5
330
  9
$TILEMODE
 70
1
  9
$MEASUREMENT
 70
1
  9
$INSUNITS
 70
4
  0
ENDSEC
  0
SECTION
  2
CLASSES
  0
CLASS
  1
ACDBDICTIONARYWDFLT
  2
AcDbDictionaryWithDefault
  3
AutoCAD 2000
 90
0
 91
1
280
0
281
0
  0
CLASS
  1
ACDBPLACEHOLDER
  2
AcDbPlaceHolder
  3
AutoCAD 2000
 90
0
 91
1
280
0
281
0
  0
CLASS
  1
LAYOUT
  2
AcDbLayout
  3
AutoCAD 2000
 90
0
 91
0
280
0
281
0
  0
ENDSEC
  0
SECTION
  2
TABLES
  0
TABLE
  2
VPORT
  5
8
100
AcDbSymbolTable
 70
2
  0
VPORT
  5
1F4
100
AcDbSymbolTableRecord
100
AcDbViewportTableRecord
  2
*ACTIVE
 70
0
 10
0.0
 20
0.0
 11
1.0
 21
1.0
 12
297.0
 22
210.0
 13
0.0
 23
0.0
 14
1.0
 24
1.0
 15
0.0
 25
0.0
 16
0.0
 26
0.0
 36
1.0
 17
0.0
 27
0.0
 37
0.0
 40
420.0
 41
1.4142857143
 42
50.0
 43
0.0
 44
0.0
 50
0.0
 51
0.0
 71
0
 72
100
 73
1
 74
1
 75
0
 76
0
 77
0
 78
0
  0
ENDTAB
  0
TABLE
  2
LTYPE
  5
5
100
AcDbSymbolTable
 70
6
  0
LTYPE
  5
14
100
AcDbSymbolTableRecord
100
AcDbLinetypeTableRecord
  2
BYBLOCK
 70
0
  3

 72
65
 73
0
 40
0.0
  0
LTYPE
  5
15
100
AcDbSymbolTableRecord
100
AcDbLinetypeTableRecord
  2
BYLAYER
 70
0
  3

 72
65
 73
0
 40
0.0
  0
LTYPE
  5
16
100
AcDbSymbolTableRecord
100
AcDbLinetypeTableRecord
  2
CONTINUOUS
 70
64
  3
Solid line
 72
65
 73
0
 40
0.0
  0
LTYPE
  5
1F5
100
AcDbSymbolTableRecord
100
AcDbLinetypeTableRecord
  2
CENTER
 70
64
  3
____ _ ____ _ ____ _ ____ _ ____ _ ____ _ ____
 72
65
 73
4
 40
0.6
 49
0.375
 74
0
 49
-0.075
 74
0
 49
0.075
 74
0
 49
-0.075
 74
0
  0
LTYPE
  5
1F6
100
AcDbSymbolTableRecord
100
AcDbLinetypeTableRecord
  2
HIDDEN
 70
64
  3
- - - - - - - - - - - - - - - - - - - -
 72
65
 73
2
 40
0.2
 49
0.1
 74
0
 49
-0.1
 74
0
  0
LTYPE
  5
1F7
100
AcDbSymbolTableRecord
100
AcDbLinetypeTableRecord
  2
PHANTOM
 70
64
  3
_____ _ _ _____ _ _ _____ _ _ _____
 72
65
 73
6
 40
0.8
 49
0.45
 74
0
 49
-0.05
 74
0
 49
0.1
 74
0
 49
-0.05
 74
0
 49
0.1
 74
0
 49
-0.05
 74
0
  0
LTYPE
  5
1F8
100
AcDbSymbolTableRecord
100
AcDbLinetypeTableRecord
  2
DOT
 70
64
  3
. . . . . . . . . . . . . . . . . . . .
 72
65
 73
2
 40
0.2
 49
0.1
 74
0
 49
-0.1
 74
0
  0
LTYPE
  5
1F9
100
AcDbSymbolTableRecord
100
AcDbLinetypeTableRecord
  2
DASHED
 70
64
  3
- - - - - - - - - - - - - - - - - - - -
 72
65
 73
2
 40
0.2
 49
0.1
 74
0
 49
-0.1
 74
0
  0
ENDTAB
  0
TABLE
  2
LAYER
  5
2
100
AcDbSymbolTable
 70
36
  0
LAYER
  5
10
100
AcDbSymbolTableRecord
100
AcDbLayerTableRecord
  2
0
 70
0
 62
7
  6
CONTINUOUS
370
-3
390
F
  0
LAYER
  5
1FA
100
AcDbSymbolTableRecord
100
AcDbLayerTableRecord
  2
DEFAULT_1
 70
0
 62
7
  6
CENTER
370
-3
390
F
  0
LAYER
  5
1FB
100
AcDbSymbolTableRecord
100
AcDbLayerTableRecord
  2
DEFAULT_2
 70
0
 62
8
  6
HIDDEN
370
-3
390
F
  0
LAYER
  5
1FC
100
AcDbSymbolTableRecord
100
AcDbLayerTableRecord
  2
DEFAULT_3
 70
0
 62
7
  6
PHANTOM
370
-3
390
F
  0
LAYER
  5
1FD
100
AcDbSymbolTableRecord
100
AcDbLayerTableRecord
  2
AXES
 70
0
 62
7
  6
CONTINUOUS
370
-3
390
F
  0
LAYER
  5
1FE
100
AcDbSymbolTableRecord
100
AcDbLayerTableRecord
  2
CSYS
 70
0
 62
7
  6
CONTINUOUS
370
-3
390
F
  0
LAYER
  5
1FF
100
AcDbSymbolTableRecord
100
AcDbLayerTableRecord
  2
PLANES
 70
0
 62
7
  6
CONTINUOUS
370
-3
390
F
  0
ENDTAB
  0
TABLE
  2
STYLE
  5
3
100
AcDbSymbolTable
 70
1
  0
STYLE
  5
11
100
AcDbSymbolTableRecord
100
AcDbTextStyleTableRecord
  2
STANDARD
 70
0
 40
0.0
 41
0.8
 50
0.0
 71
0
 42
0.2
  3
txt
  4

  0
STYLE
  5
200
100
AcDbSymbolTableRecord
100
AcDbTextStyleTableRecord
  2
TEXTSTYLE_1
 70
0
 40
0.0
 41
0.8
 50
0.0
 71
0
 42
0.2
  3
gdt
  4

  0
ENDTAB
  0
TABLE
  2
VIEW
  5
6
100
AcDbSymbolTable
 70
0
  0
ENDTAB
  0
TABLE
  2
UCS
  5
7
100
AcDbSymbolTable
 70
0
  0
ENDTAB
  0
TABLE
  2
APPID
  5
9
100
AcDbSymbolTable
 70
1
  0
APPID
  5
201
100
AcDbSymbolTableRecord
100
AcDbRegAppTableRecord
  2
ACAD
 70
0
  0
ENDTAB
  0
TABLE
  2
BLOCK_RECORD
  5
1
100
AcDbSymbolTable
 70
0
  0
BLOCK_RECORD
  5
202
100
AcDbSymbolTableRecord
100
AcDbBlockTableRecord
  2
*Model_Space
  0
BLOCK_RECORD
  5
203
100
AcDbSymbolTableRecord
100
AcDbBlockTableRecord
  2
*Paper_Space
  0
ENDTAB
  0
TABLE
  2
DIMSTYLE
  5
A
100
AcDbSymbolTable
 70
1
100
AcDbDimStyleTable
 71
0
  0
DIMSTYLE
105
204
100
AcDbSymbolTableRecord
100
AcDbDimStyleTableRecord
  2
STANDARD
 70
0
  3

  4

 40
1.0
 41
3.5
 42
1.5
 43
0.38
 44
1.0
 45
0.0
 46
0.0
 47
0.0
 48
0.0
140
3.5
141
0.09
142
0.0
143
25.4
144
1.0
145
0.0
146
1.0
147
0.625
 71
1.0
 72
0.0
 73
0
 74
0
 75
0
 76
0
 77
1
 78
8
170
0
171
2
172
0
173
0
174
0
175
0
176
0
177
0
178
0
270
2
271
0
272
0
273
2
274
2
275
0
280
0
281
0
282
0
283
1
284
8
285
0
286
0
287
3
288
0
340
11
278
44
  0
ENDTAB
  0
ENDSEC
  0
SECTION
  2
BLOCKS
  0
BLOCK
  5
20
100
AcDbEntity
  8
0
100
AcDbBlockBegin
  2
*Model_Space
 70
0
 10
0.0
 20
0.0
 30
0.0
  3
*Model_Space
  1

  0
ENDBLK
  5
21
100
AcDbEntity
  8
0
100
AcDbBlockEnd
  0
BLOCK
  5
1C
100
AcDbEntity
  8
0
100
AcDbBlockBegin
  2
*Paper_Space
 70
0
 10
0.0
 20
0.0
 30
0.0
  3
*Paper_Space
  1

  0
ENDBLK
  5
1D
100
AcDbEntity
  8
0
100
AcDbBlockEnd
  0
ENDSEC
  0
SECTION
  2
ENTITIES
  0
LINE
  5
205
100
AcDbEntity
  8
0
100
AcDbLine
 62
7
  6
CONTINUOUS
 10
0.0
 20
0.0
 11
0.0
 21
420.0
  0
LINE
  5
206
100
AcDbEntity
  8
0
100
AcDbLine
 62
7
  6
CONTINUOUS
 10
0.0
 20
0.0
 11
594.0
 21
0.0
  0
LINE
  5
207
100
AcDbEntity
  8
0
100
AcDbLine
 62
7
  6
CONTINUOUS
 10
0.0
 20
420.0
 11
594.0
 21
420.0
  0
LINE
  5
208
100
AcDbEntity
  8
0
100
AcDbLine
 62
7
  6
CONTINUOUS
 10
594.0
 20
0.0
 11
594.0
 21
420.0
  0
LINE
  5
209
100
AcDbEntity
  8
0
100
AcDbLine
 62
3
  6
CONTINUOUS
 10
84.6902675277
 20
190.9736046125
 11
84.6902675277
 21
229.8864046125
  0
LINE
  5
20A
100
AcDbEntity
  8
0
100
AcDbLine
 62
3
  6
CONTINUOUS
 10
86.2904675277
 20
190.9736046125
 11
86.2904675277
 21
229.8864046125
  0
LINE
  5
20B
100
AcDbEntity
  8
AXES
100
AcDbLine
 62
3
  6
CONTINUOUS
 10
96.4402675277
 20
202.5300046125
 11
96.4402675277
 21
218.3300046125
  0
LINE
  5
20C
100
AcDbEntity
  8
AXES
100
AcDbLine
 62
3
  6
CONTINUOUS
 10
124.7402675277
 20
218.3300046125
 11
124.7402675277
 21
202.5300046125
  0
LINE
  5
20D
100
AcDbEntity
  8
0
100
AcDbLine
 62
3
  6
CONTINUOUS
 10
212.3947075277
 20
197.1478446125
 11
212.3947075277
 21
208.2478446125
  0
LINE
  5
20E
100
AcDbEntity
  8
0
100
AcDbLine
 62
7
  6
CONTINUOUS
 10
216.2302675277
 20
199.5000046125
 11
216.2302675277
 21
204.5800046125
  0
LINE
  5
20F
100
AcDbEntity
  8
0
100
AcDbLine
 62
7
  6
CONTINUOUS
 10
216.2302675277
 20
206.9400046125
 11
216.2302675277
 21
208.2478446125
  0
LINE
  5
210
100
AcDbEntity
  8
0
100
AcDbLine
 62
7
  6
CONTINUOUS
 10
218.5902675277
 20
208.2478446125
 11
218.5902675277
 21
206.9400046125
  0
LINE
  5
211
100
AcDbEntity
  8
0
100
AcDbLine
 62
7
  6
CONTINUOUS
 10
218.5902675277
 20
204.5800046125
 11
218.5902675277
 21
199.5000046125
  0
LINE
  5
212
100
AcDbEntity
  8
0
100
AcDbLine
 62
7
  6
CONTINUOUS
 10
223.6702675277
 20
199.5000046125
 11
223.6702675277
 21
204.5800046125
  0
LINE
  5
213
100
AcDbEntity
  8
0
100
AcDbLine
 62
7
  6
CONTINUOUS
 10
223.6702675277
 20
206.9400046125
 11
223.6702675277
 21
208.2478446125
  0
LINE
  5
214
100
AcDbEntity
  8
0
100
AcDbLine
 62
3
  6
CONTINUOUS
 10
224.6447075277
 20
208.2478446125
 11
224.6447075277
 21
197.1478446125
  0
LINE
  5
215
100
AcDbEntity
  8
0
100
AcDbLine
 62
3
  6
CONTINUOUS
 10
228.9928675277
 20
197.6853446125
 11
228.9928675277
 21
211.8853446125
  0
LINE
  5
216
100
AcDbEntity
  8
0
100
AcDbLine
 62
7
  6
CONTINUOUS
 10
231.1102675277
 20
199.5000046125
 11
231.1102675277
 21
204.5800046125
  0
LINE
  5
217
100
AcDbEntity
  8
0
100
AcDbLine
 62
7
  6
CONTINUOUS
 10
231.1102675277
 20
206.9400046125
 11
231.1102675277
 21
211.8853446125
  0
LINE
  5
218
100
AcDbEntity
  8
0
100
AcDbLine
 62
3
  6
CONTINUOUS
 10
235.5928675277
 20
211.8853446125
 11
235.5928675277
 21
197.6853446125
  0
LINE
  5
219
100
AcDbEntity
  8
0
100
AcDbLine
 62
3
  6
CONTINUOUS
 10
240.1332675277
 20
196.6853346125
 11
240.1332675277
 21
211.1853346125
  0
LINE
  5
21A
100
AcDbEntity
  8
0
100
AcDbLine
 62
7
  6
CONTINUOUS
 10
241.2702675277
 20
211.1853346125
 11
241.2702675277
 21
206.9400046125
  0
LINE
  5
21B
100
AcDbEntity
  8
0
100
AcDbLine
 62
7
  6
CONTINUOUS
 10
241.2702675277
 20
204.5800046125
 11
241.2702675277
 21
199.5000046125
  0
LINE
  5
21C
100
AcDbEntity
  8
0
100
AcDbLine
 62
7
  6
CONTINUOUS
 10
246.3502675277
 20
199.5000046125
 11
246.3502675277
 21
204.5800046125
  0
LINE
  5
21D
100
AcDbEntity
  8
0
100
AcDbLine
 62
7
  6
CONTINUOUS
 10
246.3502675277
 20
206.9400046125
 11
246.3502675277
 21
211.1853346125
  0
LINE
  5
21E
100
AcDbEntity
  8
0
100
AcDbLine
 62
7
  6
CONTINUOUS
 10
248.7102675277
 20
211.1853346125
 11
248.7102675277
 21
206.9400046125
  0
LINE
  5
21F
100
AcDbEntity
  8
0
100
AcDbLine
 62
7
  6
CONTINUOUS
 10
248.7102675277
 20
204.5800046125
 11
248.7102675277
 21
199.5000046125
  0
LINE
  5
220
100
AcDbEntity
  8
0
100
AcDbLine
 62
7
  6
CONTINUOUS
 10
248.7102675277
 20
196.6853346125
 11
248.7102675277
 21
197.1400046125
  0
LINE
  5
221
100
AcDbEntity
  8
0
100
AcDbLine
 62
7
  6
CONTINUOUS
 10
253.7902675277
 20
196.6853346125
 11
253.7902675277
 21
197.1400046125
  0
LINE
  5
222
100
AcDbEntity
  8
0
100
AcDbLine
 62
7
  6
CONTINUOUS
 10
253.7902675277
 20
199.5000046125
 11
253.7902675277
 21
204.5800046125
  0
LINE
  5
223
100
AcDbEntity
  8
0
100
AcDbLine
 62
7
  6
CONTINUOUS
 10
253.7902675277
 20
206.9400046125
 11
253.7902675277
 21
211.1853346125
  0
LINE
  5
224
100
AcDbEntity
  8
0
100
AcDbLine
 62
7
  6
CONTINUOUS
 10
256.1502675277
 20
211.1853346125
 11
256.1502675277
 21
206.9400046125
  0
LINE
  5
225
100
AcDbEntity
  8
0
100
AcDbLine
 62
7
  6
CONTINUOUS
 10
256.1502675277
 20
204.5800046125
 11
256.1502675277
 21
199.5000046125
  0
LINE
  5
226
100
AcDbEntity
  8
0
100
AcDbLine
 62
7
  6
CONTINUOUS
 10
256.1502675277
 20
196.6853346125
 11
256.1502675277
 21
197.1400046125
  0
LINE
  5
227
100
AcDbEntity
  8
0
100
AcDbLine
 62
3
  6
CONTINUOUS
 10
257.0132675277
 20
211.1853346125
 11
257.0132675277
 21
196.6853346125
  0
LINE
  5
228
100
AcDbEntity
  8
0
100
AcDbLine
 62
3
  6
CONTINUOUS
 10
263.2014675277
 20
196.6853346125
 11
263.2014675277
 21
211.1853346125
  0
LINE
  5
229
100
AcDbEntity
  8
0
100
AcDbLine
 62
7
  6
CONTINUOUS
 10
263.5902675277
 20
211.1853346125
 11
263.5902675277
 21
206.9400046125
  0
LINE
  5
22A
100
AcDbEntity
  8
0
100
AcDbLine
 62
7
  6
CONTINUOUS
 10
263.5902675277
 20
204.5800046125
 11
263.5902675277
 21
199.5000046125
  0
LINE
  5
22B
100
AcDbEntity
  8
0
100
AcDbLine
 62
7
  6
CONTINUOUS
 10
263.5902675277
 20
196.6853346125
 11
263.5902675277
 21
197.1400046125
  0
LINE
  5
22C
100
AcDbEntity
  8
0
100
AcDbLine
 62
7
  6
CONTINUOUS
 10
268.6702675277
 20
196.6853346125
 11
268.6702675277
 21
197.1400046125
  0
LINE
  5
22D
100
AcDbEntity
  8
0
100
AcDbLine
 62
7
  6
CONTINUOUS
 10
268.6702675277
 20
199.5000046125
 11
268.6702675277
 21
204.5800046125
  0
LINE
  5
22E
100
AcDbEntity
  8
0
100
AcDbLine
 62
7
  6
CONTINUOUS
 10
268.6702675277
 20
206.9400046125
 11
268.6702675277
 21
211.1853346125
  0
LINE
  5
22F
100
AcDbEntity
  8
0
100
AcDbLine
 62
7
  6
CONTINUOUS
 10
271.0302675277
 20
211.1853346125
 11
271.0302675277
 21
206.9400046125
  0
LINE
  5
230
100
AcDbEntity
  8
0
100
AcDbLine
 62
7
  6
CONTINUOUS
 10
271.0302675277
 20
204.5800046125
 11
271.0302675277
 21
199.5000046125
  0
LINE
  5
231
100
AcDbEntity
  8
0
100
AcDbLine
 62
7
  6
CONTINUOUS
 10
276.1102675277
 20
199.5000046125
 11
276.1102675277
 21
204.5800046125
  0
LINE
  5
232
100
AcDbEntity
  8
0
100
AcDbLine
 62
7
  6
CONTINUOUS
 10
276.1102675277
 20
206.9400046125
 11
276.1102675277
 21
211.1853346125
  0
LINE
  5
233
100
AcDbEntity
  8
0
100
AcDbLine
 62
3
  6
CONTINUOUS
 10
280.0814675277
 20
211.1853346125
 11
280.0814675277
 21
196.6853346125
  0
LINE
  5
234
100
AcDbEntity
  8
0
100
AcDbLine
 62
3
  6
CONTINUOUS
 10
87.0778675277
 20
188.5860046125
 11
510.3026675277
 21
188.5860046125
  0
LINE
  5
235
100
AcDbEntity
  8
0
100
AcDbLine
 62
7
  6
CONTINUOUS
 10
86.2904675277
 20
190.9736046125
 11
84.6902675277
 21
190.9736046125
  0
LINE
  5
236
100
AcDbEntity
  8
0
100
AcDbLine
 62
7
  6
CONTINUOUS
 10
511.0900675277
 20
190.9736046125
 11
512.6902675277
 21
190.9736046125
  0
LINE
  5
237
100
AcDbEntity
  8
0
100
AcDbLine
 62
3
  6
CONTINUOUS
 10
507.6400675277
 20
193.7960046125
 11
502.5600675277
 21
193.7960046125
  0
LINE
  5
238
100
AcDbEntity
  8
0
100
AcDbLine
 62
3
  6
CONTINUOUS
 10
500.1990675277
 20
193.7960046125
 11
495.1190675277
 21
193.7960046125
  0
LINE
  5
239
100
AcDbEntity
  8
0
100
AcDbLine
 62
3
  6
CONTINUOUS
 10
492.7580675277
 20
193.7960046125
 11
487.6780675277
 21
193.7960046125
  0
LINE
  5
23A
100
AcDbEntity
  8
0
100
AcDbLine
 62
3
  6
CONTINUOUS
 10
485.3170675277
 20
193.7960046125
 11
480.2370675277
 21
193.7960046125
  0
LINE
  5
23B
100
AcDbEntity
  8
0
100
AcDbLine
 62
3
  6
CONTINUOUS
 10
477.8760675277
 20
193.7960046125
 11
472.7960675277
 21
193.7960046125
  0
LINE
  5
23C
100
AcDbEntity
  8
0
100
AcDbLine
 62
3
  6
CONTINUOUS
 10
280.0814675277
 20
196.6853346125
 11
263.2014675277
 21
196.6853346125
  0
LINE
  5
23D
100
AcDbEntity
  8
0
100
AcDbLine
 62
3
  6
CONTINUOUS
 10
257.0132675277
 20
196.6853346125
 11
240.1332675277
 21
196.6853346125
  0
LINE
  5
23E
100
AcDbEntity
  8
0
100
AcDbLine
 62
7
  6
CONTINUOUS
 10
484.6702675277
 20
197.1400046125
 11
480.2370675277
 21
197.1400046125
  0
LINE
  5
23F
100
AcDbEntity
  8
0
100
AcDbLine
 62
7
  6
CONTINUOUS
 10
477.2302675277
 20
197.1400046125
 11
472.7960675277
 21
197.1400046125
  0
LINE
  5
240
100
AcDbEntity
  8
0
100
AcDbLine
 62
7
  6
CONTINUOUS
 10
268.6702675277
 20
197.1400046125
 11
263.5902675277
 21
197.1400046125
  0
LINE
  5
241
100
AcDbEntity
  8
0
100
AcDbLine
 62
7
  6
CONTINUOUS
 10
257.0132675277
 20
197.1400046125
 11
256.1502675277
 21
197.1400046125
  0
LINE
  5
242
100
AcDbEntity
  8
0
100
AcDbLine
 62
7
  6
CONTINUOUS
 10
253.7902675277
 20
197.1400046125
 11
248.7102675277
 21
197.1400046125
  0
LINE
  5
243
100
AcDbEntity
  8
0
100
AcDbLine
 62
3
  6
CONTINUOUS
 10
224.6447075277
 20
197.1478446125
 11
212.3947075277
 21
197.1478446125
  0
LINE
  5
244
100
AcDbEntity
  8
0
100
AcDbLine
 62
3
  6
CONTINUOUS
 10
235.5928675277
 20
197.6853446125
 11
228.9928675277
 21
197.6853446125
  0
LINE
  5
245
100
AcDbEntity
  8
0
100
AcDbLine
 62
3
  6
CONTINUOUS
 10
288.2843975277
 20
207.4560046125
 11
288.2843975277
 21
221.4560046125
  0
LINE
  5
246
100
AcDbEntity
  8
0
100
AcDbLine
 62
3
  6
CONTINUOUS
 10
472.7960675277
 20
198.8760046125
 11
477.8760675277
 21
198.8760046125
  0
LINE
  5
247
100
AcDbEntity
  8
0
100
AcDbLine
 62
3
  6
CONTINUOUS
 10
480.2370675277
 20
198.8760046125
 11
485.3170675277
 21
198.8760046125
  0
LINE
  5
248
100
AcDbEntity
  8
0
100
AcDbLine
 62
3
  6
CONTINUOUS
 10
487.6780675277
 20
198.8760046125
 11
492.7580675277
 21
198.8760046125
  0
LINE
  5
249
100
AcDbEntity
  8
0
100
AcDbLine
 62
3
  6
CONTINUOUS
 10
495.1190675277
 20
198.8760046125
 11
500.1990675277
 21
198.8760046125
  0
LINE
  5
24A
100
AcDbEntity
  8
0
100
AcDbLine
 62
3
  6
CONTINUOUS
 10
502.5600675277
 20
198.8760046125
 11
507.6400675277
 21
198.8760046125
  0
LINE
  5
24B
100
AcDbEntity
  8
0
100
AcDbLine
 62
7
  6
CONTINUOUS
 10
212.3947075277
 20
199.5000046125
 11
216.2302675277
 21
199.5000046125
  0
LINE
  5
24C
100
AcDbEntity
  8
0
100
AcDbLine
 62
7
  6
CONTINUOUS
 10
218.5902675277
 20
199.5000046125
 11
223.6702675277
 21
199.5000046125
  0
LINE
  5
24D
100
AcDbEntity
  8
0
100
AcDbLine
 62
7
  6
CONTINUOUS
 10
228.9928675277
 20
199.5000046125
 11
231.1102675277
 21
199.5000046125
  0
LINE
  5
24E
100
AcDbEntity
  8
0
100
AcDbLine
 62
7
  6
CONTINUOUS
 10
241.2702675277
 20
199.5000046125
 11
246.3502675277
 21
199.5000046125
  0
LINE
  5
24F
100
AcDbEntity
  8
0
100
AcDbLine
 62
7
  6
CONTINUOUS
 10
248.7102675277
 20
199.5000046125
 11
253.7902675277
 21
199.5000046125
  0
LINE
  5
250
100
AcDbEntity
  8
0
100
AcDbLine
 62
7
  6
CONTINUOUS
 10
256.1502675277
 20
199.5000046125
 11
257.0132675277
 21
199.5000046125
  0
LINE
  5
251
100
AcDbEntity
  8
0
100
AcDbLine
 62
7
  6
CONTINUOUS
 10
263.5902675277
 20
199.5000046125
 11
268.6702675277
 21
199.5000046125
  0
LINE
  5
252
100
AcDbEntity
  8
0
100
AcDbLine
 62
7
  6
CONTINUOUS
 10
271.0302675277
 20
199.5000046125
 11
276.1102675277
 21
199.5000046125
  0
LINE
  5
253
100
AcDbEntity
  8
AXES
100
AcDbLine
 62
3
  6
CONTINUOUS
 10
122.2402675277
 20
200.0300046125
 11
98.9402675277
 21
200.0300046125
  0
LINE
  5
254
100
AcDbEntity
  8
0
100
AcDbLine
 62
3
  6
CONTINUOUS
 10
507.6400675277
 20
201.2370046125
 11
502.5600675277
 21
201.2370046125
  0
LINE
  5
255
100
AcDbEntity
  8
0
100
AcDbLine
 62
3
  6
CONTINUOUS
 10
500.1990675277
 20
201.2370046125
 11
495.1190675277
 21
201.2370046125
  0
LINE
  5
256
100
AcDbEntity
  8
0
100
AcDbLine
 62
3
  6
CONTINUOUS
 10
492.7580675277
 20
201.2370046125
 11
487.6780675277
 21
201.2370046125
  0
LINE
  5
257
100
AcDbEntity
  8
0
100
AcDbLine
 62
3
  6
CONTINUOUS
 10
485.3170675277
 20
201.2370046125
 11
480.2370675277
 21
201.2370046125
  0
LINE
  5
258
100
AcDbEntity
  8
0
100
AcDbLine
 62
3
  6
CONTINUOUS
 10
477.8760675277
 20
201.2370046125
 11
472.7960675277
 21
201.2370046125
  0
LINE
  5
259
100
AcDbEntity
  8
0
100
AcDbLine
 62
7
  6
CONTINUOUS
 10
492.1102675277
 20
204.5800046125
 11
487.6780675277
 21
204.5800046125
  0
LINE
  5
25A
100
AcDbEntity
  8
0
100
AcDbLine
 62
7
  6
CONTINUOUS
 10
484.6702675277
 20
204.5800046125
 11
480.2370675277
 21
204.5800046125
  0
LINE
  5
25B
100
AcDbEntity
  8
0
100
AcDbLine
 62
7
  6
CONTINUOUS
 10
477.2302675277
 20
204.5800046125
 11
472.7960675277
 21
204.5800046125
  0
LINE
  5
25C
100
AcDbEntity
  8
0
100
AcDbLine
 62
7
  6
CONTINUOUS
 10
465.1466785157
 20
204.5800046125
 11
464.7102675277
 21
204.5800046125
  0
LINE
  5
25D
100
AcDbEntity
  8
0
100
AcDbLine
 62
7
  6
CONTINUOUS
 10
276.1102675277
 20
204.5800046125
 11
271.0302675277
 21
204.5800046125
  0
LINE
  5
25E
100
AcDbEntity
  8
0
100
AcDbLine
 62
7
  6
CONTINUOUS
 10
268.6702675277
 20
204.5800046125
 11
263.5902675277
 21
204.5800046125
  0
LINE
  5
25F
100
AcDbEntity
  8
0
100
AcDbLine
 62
7
  6
CONTINUOUS
 10
257.0132675277
 20
204.5800046125
 11
256.1502675277
 21
204.5800046125
  0
LINE
  5
260
100
AcDbEntity
  8
0
100
AcDbLine
 62
7
  6
CONTINUOUS
 10
253.7902675277
 20
204.5800046125
 11
248.7102675277
 21
204.5800046125
  0
LINE
  5
261
100
AcDbEntity
  8
0
100
AcDbLine
 62
7
  6
CONTINUOUS
 10
246.3502675277
 20
204.5800046125
 11
241.2702675277
 21
204.5800046125
  0
LINE
  5
262
100
AcDbEntity
  8
0
100
AcDbLine
 62
7
  6
CONTINUOUS
 10
231.1102675277
 20
204.5800046125
 11
228.9928675277
 21
204.5800046125
  0
LINE
  5
263
100
AcDbEntity
  8
0
100
AcDbLine
 62
7
  6
CONTINUOUS
 10
223.6702675277
 20
204.5800046125
 11
218.5902675277
 21
204.5800046125
  0
LINE
  5
264
100
AcDbEntity
  8
0
100
AcDbLine
 62
7
  6
CONTINUOUS
 10
216.2302675277
 20
204.5800046125
 11
212.3947075277
 21
204.5800046125
  0
LINE
  5
265
100
AcDbEntity
  8
0
100
AcDbLine
 62
3
  6
CONTINUOUS
 10
472.7960675277
 20
206.3170046125
 11
477.8760675277
 21
206.3170046125
  0
LINE
  5
266
100
AcDbEntity
  8
0
100
AcDbLine
 62
3
  6
CONTINUOUS
 10
480.2370675277
 20
206.3170046125
 11
485.3170675277
 21
206.3170046125
  0
LINE
  5
267
100
AcDbEntity
  8
0
100
AcDbLine
 62
3
  6
CONTINUOUS
 10
487.6780675277
 20
206.3170046125
 11
492.7580675277
 21
206.3170046125
  0
LINE
  5
268
100
AcDbEntity
  8
0
100
AcDbLine
 62
3
  6
CONTINUOUS
 10
495.1190675277
 20
206.3170046125
 11
500.1990675277
 21
206.3170046125
  0
LINE
  5
269
100
AcDbEntity
  8
0
100
AcDbLine
 62
3
  6
CONTINUOUS
 10
502.5600675277
 20
206.3170046125
 11
507.6400675277
 21
206.3170046125
  0
LINE
  5
26A
100
AcDbEntity
  8
0
100
AcDbLine
 62
7
  6
CONTINUOUS
 10
212.3947075277
 20
206.9400046125
 11
216.2302675277
 21
206.9400046125
  0
LINE
  5
26B
100
AcDbEntity
  8
0
100
AcDbLine
 62
7
  6
CONTINUOUS
 10
218.5902675277
 20
206.9400046125
 11
223.6702675277
 21
206.9400046125
  0
LINE
  5
26C
100
AcDbEntity
  8
0
100
AcDbLine
 62
7
  6
CONTINUOUS
 10
228.9928675277
 20
206.9400046125
 11
231.1102675277
 21
206.9400046125
  0
LINE
  5
26D
100
AcDbEntity
  8
0
100
AcDbLine
 62
7
  6
CONTINUOUS
 10
241.2702675277
 20
206.9400046125
 11
246.3502675277
 21
206.9400046125
  0
LINE
  5
26E
100
AcDbEntity
  8
0
100
AcDbLine
 62
7
  6
CONTINUOUS
 10
248.7102675277
 20
206.9400046125
 11
253.7902675277
 21
206.9400046125
  0
LINE
  5
26F
100
AcDbEntity
  8
0
100
AcDbLine
 62
7
  6
CONTINUOUS
 10
256.1502675277
 20
206.9400046125
 11
257.0132675277
 21
206.9400046125
  0
LINE
  5
270
100
AcDbEntity
  8
0
100
AcDbLine
 62
7
  6
CONTINUOUS
 10
263.5902675277
 20
206.9400046125
 11
268.6702675277
 21
206.9400046125
  0
LINE
  5
271
100
AcDbEntity
  8
0
100
AcDbLine
 62
7
  6
CONTINUOUS
 10
271.0302675277
 20
206.9400046125
 11
276.1102675277
 21
206.9400046125
  0
LINE
  5
272
100
AcDbEntity
  8
0
100
AcDbLine
 62
3
  6
CONTINUOUS
 10
466.2892675277
 20
207.4560046125
 11
381.7592675277
 21
207.4560046125
  0
LINE
  5
273
100
AcDbEntity
  8
0
100
AcDbLine
 62
3
  6
CONTINUOUS
 10
372.8143975277
 20
207.4560046125
 11
288.2843975277
 21
207.4560046125
  0
LINE
  5
274
100
AcDbEntity
  8
0
100
AcDbLine
 62
3
  6
CONTINUOUS
 10
212.3947075277
 20
208.2478446125
 11
224.6447075277
 21
208.2478446125
  0
LINE
  5
275
100
AcDbEntity
  8
0
100
AcDbLine
 62
3
  6
CONTINUOUS
 10
507.6400675277
 20
208.6780046125
 11
502.5600675277
 21
208.6780046125
  0
LINE
  5
276
100
AcDbEntity
  8
0
100
AcDbLine
 62
3
  6
CONTINUOUS
 10
500.1990675277
 20
208.6780046125
 11
495.1190675277
 21
208.6780046125
  0
LINE
  5
277
100
AcDbEntity
  8
0
100
AcDbLine
 62
3
  6
CONTINUOUS
 10
492.7580675277
 20
208.6780046125
 11
487.6780675277
 21
208.6780046125
  0
LINE
  5
278
100
AcDbEntity
  8
0
100
AcDbLine
 62
3
  6
CONTINUOUS
 10
485.3170675277
 20
208.6780046125
 11
480.2370675277
 21
208.6780046125
  0
LINE
  5
279
100
AcDbEntity
  8
0
100
AcDbLine
 62
3
  6
CONTINUOUS
 10
477.8760675277
 20
208.6780046125
 11
472.7960675277
 21
208.6780046125
  0
LINE
  5
27A
100
AcDbEntity
  8
0
100
AcDbLine
 62
3
  6
CONTINUOUS
 10
240.1332675277
 20
211.1853346125
 11
257.0132675277
 21
211.1853346125
  0
LINE
  5
27B
100
AcDbEntity
  8
0
100
AcDbLine
 62
3
  6
CONTINUOUS
 10
263.2014675277
 20
211.1853346125
 11
280.0814675277
 21
211.1853346125
  0
LINE
  5
27C
100
AcDbEntity
  8
0
100
AcDbLine
 62
3
  6
CONTINUOUS
 10
228.9928675277
 20
211.8853446125
 11
235.5928675277
 21
211.8853446125
  0
LINE
  5
27D
100
AcDbEntity
  8
0
100
AcDbLine
 62
7
  6
CONTINUOUS
 10
492.1102675277
 20
212.0200046125
 11
487.6780675277
 21
212.0200046125
  0
LINE
  5
27E
100
AcDbEntity
  8
0
100
AcDbLine
 62
7
  6
CONTINUOUS
 10
484.6702675277
 20
212.0200046125
 11
480.2370675277
 21
212.0200046125
  0
LINE
  5
27F
100
AcDbEntity
  8
0
100
AcDbLine
 62
7
  6
CONTINUOUS
 10
477.2302675277
 20
212.0200046125
 11
472.7960675277
 21
212.0200046125
  0
LINE
  5
280
100
AcDbEntity
  8
0
100
AcDbLine
 62
7
  6
CONTINUOUS
 10
466.2892675277
 20
212.0200046125
 11
464.7102675277
 21
212.0200046125
  0
LINE
  5
281
100
AcDbEntity
  8
0
100
AcDbLine
 62
7
  6
CONTINUOUS
 10
462.3502675277
 20
212.0200046125
 11
457.2702675277
 21
212.0200046125
  0
LINE
  5
282
100
AcDbEntity
  8
0
100
AcDbLine
 62
3
  6
CONTINUOUS
 10
472.7960675277
 20
213.7580046125
 11
477.8760675277
 21
213.7580046125
  0
LINE
  5
283
100
AcDbEntity
  8
0
100
AcDbLine
 62
3
  6
CONTINUOUS
 10
480.2370675277
 20
213.7580046125
 11
485.3170675277
 21
213.7580046125
  0
LINE
  5
284
100
AcDbEntity
  8
0
100
AcDbLine
 62
3
  6
CONTINUOUS
 10
487.6780675277
 20
213.7580046125
 11
492.7580675277
 21
213.7580046125
  0
LINE
  5
285
100
AcDbEntity
  8
0
100
AcDbLine
 62
3
  6
CONTINUOUS
 10
495.1190675277
 20
213.7580046125
 11
500.1990675277
 21
213.7580046125
  0
LINE
  5
286
100
AcDbEntity
  8
0
100
AcDbLine
 62
3
  6
CONTINUOUS
 10
502.5600675277
 20
213.7580046125
 11
507.6400675277
 21
213.7580046125
  0
LINE
  5
287
100
AcDbEntity
  8
0
100
AcDbLine
 62
7
  6
CONTINUOUS
 10
457.2702675277
 20
214.3800046125
 11
462.3502675277
 21
214.3800046125
  0
LINE
  5
288
100
AcDbEntity
  8
0
100
AcDbLine
 62
7
  6
CONTINUOUS
 10
464.7102675277
 20
214.3800046125
 11
466.2892675277
 21
214.3800046125
  0
LINE
  5
289
100
AcDbEntity
  8
0
100
AcDbLine
 62
3
  6
CONTINUOUS
 10
507.6400675277
 20
216.1190046125
 11
502.5600675277
 21
216.1190046125
  0
LINE
  5
28A
100
AcDbEntity
  8
0
100
AcDbLine
 62
3
  6
CONTINUOUS
 10
500.1990675277
 20
216.1190046125
 11
495.1190675277
 21
216.1190046125
  0
LINE
  5
28B
100
AcDbEntity
  8
0
100
AcDbLine
 62
3
  6
CONTINUOUS
 10
492.7580675277
 20
216.1190046125
 11
487.6780675277
 21
216.1190046125
  0
LINE
  5
28C
100
AcDbEntity
  8
0
100
AcDbLine
 62
3
  6
CONTINUOUS
 10
485.3170675277
 20
216.1190046125
 11
480.2370675277
 21
216.1190046125
  0
LINE
  5
28D
100
AcDbEntity
  8
0
100
AcDbLine
 62
3
  6
CONTINUOUS
 10
477.8760675277
 20
216.1190046125
 11
472.7960675277
 21
216.1190046125
  0
LINE
  5
28E
100
AcDbEntity
  8
0
100
AcDbLine
 62
7
  6
CONTINUOUS
 10
492.1102675277
 20
219.4600046125
 11
487.6780675277
 21
219.4600046125
  0
LINE
  5
28F
100
AcDbEntity
  8
0
100
AcDbLine
 62
7
  6
CONTINUOUS
 10
484.6702675277
 20
219.4600046125
 11
480.2370675277
 21
219.4600046125
  0
LINE
  5
290
100
AcDbEntity
  8
0
100
AcDbLine
 62
7
  6
CONTINUOUS
 10
477.2302675277
 20
219.4600046125
 11
472.7960675277
 21
219.4600046125
  0
LINE
  5
291
100
AcDbEntity
  8
0
100
AcDbLine
 62
7
  6
CONTINUOUS
 10
466.2892675277
 20
219.4600046125
 11
464.7102675277
 21
219.4600046125
  0
LINE
  5
292
100
AcDbEntity
  8
0
100
AcDbLine
 62
7
  6
CONTINUOUS
 10
462.3502675277
 20
219.4600046125
 11
457.2702675277
 21
219.4600046125
  0
LINE
  5
293
100
AcDbEntity
  8
AXES
100
AcDbLine
 62
3
  6
CONTINUOUS
 10
98.9402675277
 20
220.8300046125
 11
122.2402675277
 21
220.8300046125
  0
LINE
  5
294
100
AcDbEntity
  8
0
100
AcDbLine
 62
3
  6
CONTINUOUS
 10
472.7960675277
 20
221.1990046125
 11
477.8760675277
 21
221.1990046125
  0
LINE
  5
295
100
AcDbEntity
  8
0
100
AcDbLine
 62
3
  6
CONTINUOUS
 10
480.2370675277
 20
221.1990046125
 11
485.3170675277
 21
221.1990046125
  0
LINE
  5
296
100
AcDbEntity
  8
0
100
AcDbLine
 62
3
  6
CONTINUOUS
 10
487.6780675277
 20
221.1990046125
 11
492.7580675277
 21
221.1990046125
  0
LINE
  5
297
100
AcDbEntity
  8
0
100
AcDbLine
 62
3
  6
CONTINUOUS
 10
495.1190675277
 20
221.1990046125
 11
500.1990675277
 21
221.1990046125
  0
LINE
  5
298
100
AcDbEntity
  8
0
100
AcDbLine
 62
3
  6
CONTINUOUS
 10
502.5600675277
 20
221.1990046125
 11
507.6400675277
 21
221.1990046125
  0
LINE
  5
299
100
AcDbEntity
  8
0
100
AcDbLine
 62
3
  6
CONTINUOUS
 10
288.2843975277
 20
221.4560046125
 11
372.8143975277
 21
221.4560046125
  0
LINE
  5
29A
100
AcDbEntity
  8
0
100
AcDbLine
 62
3
  6
CONTINUOUS
 10
381.7592675277
 20
221.4560046125
 11
466.2892675277
 21
221.4560046125
  0
LINE
  5
29B
100
AcDbEntity
  8
0
100
AcDbLine
 62
3
  6
CONTINUOUS
 10
507.6400675277
 20
223.5600046125
 11
502.5600675277
 21
223.5600046125
  0
LINE
  5
29C
100
AcDbEntity
  8
0
100
AcDbLine
 62
3
  6
CONTINUOUS
 10
500.1990675277
 20
223.5600046125
 11
495.1190675277
 21
223.5600046125
  0
LINE
  5
29D
100
AcDbEntity
  8
0
100
AcDbLine
 62
3
  6
CONTINUOUS
 10
492.7580675277
 20
223.5600046125
 11
487.6780675277
 21
223.5600046125
  0
LINE
  5
29E
100
AcDbEntity
  8
0
100
AcDbLine
 62
3
  6
CONTINUOUS
 10
485.3170675277
 20
223.5600046125
 11
480.2370675277
 21
223.5600046125
  0
LINE
  5
29F
100
AcDbEntity
  8
0
100
AcDbLine
 62
3
  6
CONTINUOUS
 10
477.8760675277
 20
223.5600046125
 11
472.7960675277
 21
223.5600046125
  0
LINE
  5
2A0
100
AcDbEntity
  8
0
100
AcDbLine
 62
7
  6
CONTINUOUS
 10
484.6702675277
 20
226.9000046125
 11
480.2370675277
 21
226.9000046125
  0
LINE
  5
2A1
100
AcDbEntity
  8
0
100
AcDbLine
 62
7
  6
CONTINUOUS
 10
477.2302675277
 20
226.9000046125
 11
472.7960675277
 21
226.9000046125
  0
LINE
  5
2A2
100
AcDbEntity
  8
0
100
AcDbLine
 62
7
  6
CONTINUOUS
 10
466.0611679631
 20
226.9000046125
 11
464.7102675277
 21
226.9000046125
  0
LINE
  5
2A3
100
AcDbEntity
  8
0
100
AcDbLine
 62
3
  6
CONTINUOUS
 10
472.7960675277
 20
228.6400046125
 11
477.8760675277
 21
228.6400046125
  0
LINE
  5
2A4
100
AcDbEntity
  8
0
100
AcDbLine
 62
3
  6
CONTINUOUS
 10
480.2370675277
 20
228.6400046125
 11
485.3170675277
 21
228.6400046125
  0
LINE
  5
2A5
100
AcDbEntity
  8
0
100
AcDbLine
 62
3
  6
CONTINUOUS
 10
487.6780675277
 20
228.6400046125
 11
492.7580675277
 21
228.6400046125
  0
LINE
  5
2A6
100
AcDbEntity
  8
0
100
AcDbLine
 62
3
  6
CONTINUOUS
 10
495.1190675277
 20
228.6400046125
 11
500.1990675277
 21
228.6400046125
  0
LINE
  5
2A7
100
AcDbEntity
  8
0
100
AcDbLine
 62
3
  6
CONTINUOUS
 10
502.5600675277
 20
228.6400046125
 11
507.6400675277
 21
228.6400046125
  0
LINE
  5
2A8
100
AcDbEntity
  8
0
100
AcDbLine
 62
3
  6
CONTINUOUS
 10
87.0778675277
 20
232.2740046125
 11
510.3026675277
 21
232.2740046125
  0
LINE
  5
2A9
100
AcDbEntity
  8
0
100
AcDbLine
 62
3
  6
CONTINUOUS
 10
372.8143975277
 20
221.4560046125
 11
372.8143975277
 21
207.4560046125
  0
LINE
  5
2AA
100
AcDbEntity
  8
0
100
AcDbLine
 62
3
  6
CONTINUOUS
 10
381.7592675277
 20
207.4560046125
 11
381.7592675277
 21
221.4560046125
  0
LINE
  5
2AB
100
AcDbEntity
  8
0
100
AcDbLine
 62
7
  6
CONTINUOUS
 10
457.2702675277
 20
219.4600046125
 11
457.2702675277
 21
214.3800046125
  0
LINE
  5
2AC
100
AcDbEntity
  8
0
100
AcDbLine
 62
7
  6
CONTINUOUS
 10
457.2702675277
 20
212.0200046125
 11
457.2702675277
 21
207.4560046125
  0
LINE
  5
2AD
100
AcDbEntity
  8
0
100
AcDbLine
 62
7
  6
CONTINUOUS
 10
462.3502675277
 20
200.7865206475
 11
462.3502675277
 21
204.5800046125
  0
LINE
  5
2AE
100
AcDbEntity
  8
0
100
AcDbLine
 62
7
  6
CONTINUOUS
 10
462.3502675277
 20
207.4560046125
 11
462.3502675277
 21
212.0200046125
  0
LINE
  5
2AF
100
AcDbEntity
  8
0
100
AcDbLine
 62
7
  6
CONTINUOUS
 10
462.3502675277
 20
214.3800046125
 11
462.3502675277
 21
219.4600046125
  0
LINE
  5
2B0
100
AcDbEntity
  8
0
100
AcDbLine
 62
7
  6
CONTINUOUS
 10
464.7102675277
 20
226.9000046125
 11
464.7102675277
 21
224.040404113
  0
LINE
  5
2B1
100
AcDbEntity
  8
0
100
AcDbLine
 62
7
  6
CONTINUOUS
 10
464.7102675277
 20
219.4600046125
 11
464.7102675277
 21
214.3800046125
  0
LINE
  5
2B2
100
AcDbEntity
  8
0
100
AcDbLine
 62
7
  6
CONTINUOUS
 10
464.7102675277
 20
212.0200046125
 11
464.7102675277
 21
207.4560046125
  0
LINE
  5
2B3
100
AcDbEntity
  8
0
100
AcDbLine
 62
7
  6
CONTINUOUS
 10
464.7102675277
 20
204.5800046125
 11
464.7102675277
 21
200.440404113
  0
LINE
  5
2B4
100
AcDbEntity
  8
0
100
AcDbLine
 62
3
  6
CONTINUOUS
 10
466.2892675277
 20
221.4560046125
 11
466.2892675277
 21
207.4560046125
  0
LINE
  5
2B5
100
AcDbEntity
  8
0
100
AcDbLine
 62
3
  6
CONTINUOUS
 10
472.7960675277
 20
193.7960046125
 11
472.7960675277
 21
198.8760046125
  0
LINE
  5
2B6
100
AcDbEntity
  8
0
100
AcDbLine
 62
3
  6
CONTINUOUS
 10
472.7960675277
 20
201.2370046125
 11
472.7960675277
 21
206.3170046125
  0
LINE
  5
2B7
100
AcDbEntity
  8
0
100
AcDbLine
 62
3
  6
CONTINUOUS
 10
472.7960675277
 20
208.6780046125
 11
472.7960675277
 21
213.7580046125
  0
LINE
  5
2B8
100
AcDbEntity
  8
0
100
AcDbLine
 62
3
  6
CONTINUOUS
 10
472.7960675277
 20
216.1190046125
 11
472.7960675277
 21
221.1990046125
  0
LINE
  5
2B9
100
AcDbEntity
  8
0
100
AcDbLine
 62
3
  6
CONTINUOUS
 10
472.7960675277
 20
223.5600046125
 11
472.7960675277
 21
228.6400046125
  0
LINE
  5
2BA
100
AcDbEntity
  8
0
100
AcDbLine
 62
7
  6
CONTINUOUS
 10
477.2302675277
 20
193.7960046125
 11
477.2302675277
 21
197.1400046125
  0
LINE
  5
2BB
100
AcDbEntity
  8
0
100
AcDbLine
 62
7
  6
CONTINUOUS
 10
477.2302675277
 20
201.2370046125
 11
477.2302675277
 21
204.5800046125
  0
LINE
  5
2BC
100
AcDbEntity
  8
0
100
AcDbLine
 62
7
  6
CONTINUOUS
 10
477.2302675277
 20
208.6780046125
 11
477.2302675277
 21
212.0200046125
  0
LINE
  5
2BD
100
AcDbEntity
  8
0
100
AcDbLine
 62
7
  6
CONTINUOUS
 10
477.2302675277
 20
216.1190046125
 11
477.2302675277
 21
219.4600046125
  0
LINE
  5
2BE
100
AcDbEntity
  8
0
100
AcDbLine
 62
7
  6
CONTINUOUS
 10
477.2302675277
 20
223.5600046125
 11
477.2302675277
 21
226.9000046125
  0
LINE
  5
2BF
100
AcDbEntity
  8
0
100
AcDbLine
 62
3
  6
CONTINUOUS
 10
477.8760675277
 20
228.6400046125
 11
477.8760675277
 21
223.5600046125
  0
LINE
  5
2C0
100
AcDbEntity
  8
0
100
AcDbLine
 62
3
  6
CONTINUOUS
 10
477.8760675277
 20
221.1990046125
 11
477.8760675277
 21
216.1190046125
  0
LINE
  5
2C1
100
AcDbEntity
  8
0
100
AcDbLine
 62
3
  6
CONTINUOUS
 10
477.8760675277
 20
213.7580046125
 11
477.8760675277
 21
208.6780046125
  0
LINE
  5
2C2
100
AcDbEntity
  8
0
100
AcDbLine
 62
3
  6
CONTINUOUS
 10
477.8760675277
 20
206.3170046125
 11
477.8760675277
 21
201.2370046125
  0
LINE
  5
2C3
100
AcDbEntity
  8
0
100
AcDbLine
 62
3
  6
CONTINUOUS
 10
477.8760675277
 20
198.8760046125
 11
477.8760675277
 21
193.7960046125
  0
LINE
  5
2C4
100
AcDbEntity
  8
0
100
AcDbLine
 62
3
  6
CONTINUOUS
 10
480.2370675277
 20
193.7960046125
 11
480.2370675277
 21
198.8760046125
  0
LINE
  5
2C5
100
AcDbEntity
  8
0
100
AcDbLine
 62
3
  6
CONTINUOUS
 10
480.2370675277
 20
201.2370046125
 11
480.2370675277
 21
206.3170046125
  0
LINE
  5
2C6
100
AcDbEntity
  8
0
100
AcDbLine
 62
3
  6
CONTINUOUS
 10
480.2370675277
 20
208.6780046125
 11
480.2370675277
 21
213.7580046125
  0
LINE
  5
2C7
100
AcDbEntity
  8
0
100
AcDbLine
 62
3
  6
CONTINUOUS
 10
480.2370675277
 20
216.1190046125
 11
480.2370675277
 21
221.1990046125
  0
LINE
  5
2C8
100
AcDbEntity
  8
0
100
AcDbLine
 62
3
  6
CONTINUOUS
 10
480.2370675277
 20
223.5600046125
 11
480.2370675277
 21
228.6400046125
  0
LINE
  5
2C9
100
AcDbEntity
  8
0
100
AcDbLine
 62
7
  6
CONTINUOUS
 10
484.6702675277
 20
193.7960046125
 11
484.6702675277
 21
197.1400046125
  0
LINE
  5
2CA
100
AcDbEntity
  8
0
100
AcDbLine
 62
7
  6
CONTINUOUS
 10
484.6702675277
 20
201.2370046125
 11
484.6702675277
 21
204.5800046125
  0
LINE
  5
2CB
100
AcDbEntity
  8
0
100
AcDbLine
 62
7
  6
CONTINUOUS
 10
484.6702675277
 20
208.6780046125
 11
484.6702675277
 21
212.0200046125
  0
LINE
  5
2CC
100
AcDbEntity
  8
0
100
AcDbLine
 62
7
  6
CONTINUOUS
 10
484.6702675277
 20
216.1190046125
 11
484.6702675277
 21
219.4600046125
  0
LINE
  5
2CD
100
AcDbEntity
  8
0
100
AcDbLine
 62
7
  6
CONTINUOUS
 10
484.6702675277
 20
223.5600046125
 11
484.6702675277
 21
226.9000046125
  0
LINE
  5
2CE
100
AcDbEntity
  8
0
100
AcDbLine
 62
3
  6
CONTINUOUS
 10
485.3170675277
 20
228.6400046125
 11
485.3170675277
 21
223.5600046125
  0
LINE
  5
2CF
100
AcDbEntity
  8
0
100
AcDbLine
 62
3
  6
CONTINUOUS
 10
485.3170675277
 20
221.1990046125
 11
485.3170675277
 21
216.1190046125
  0
LINE
  5
2D0
100
AcDbEntity
  8
0
100
AcDbLine
 62
3
  6
CONTINUOUS
 10
485.3170675277
 20
213.7580046125
 11
485.3170675277
 21
208.6780046125
  0
LINE
  5
2D1
100
AcDbEntity
  8
0
100
AcDbLine
 62
3
  6
CONTINUOUS
 10
485.3170675277
 20
206.3170046125
 11
485.3170675277
 21
201.2370046125
  0
LINE
  5
2D2
100
AcDbEntity
  8
0
100
AcDbLine
 62
3
  6
CONTINUOUS
 10
485.3170675277
 20
198.8760046125
 11
485.3170675277
 21
193.7960046125
  0
LINE
  5
2D3
100
AcDbEntity
  8
0
100
AcDbLine
 62
3
  6
CONTINUOUS
 10
487.6780675277
 20
193.7960046125
 11
487.6780675277
 21
198.8760046125
  0
LINE
  5
2D4
100
AcDbEntity
  8
0
100
AcDbLine
 62
3
  6
CONTINUOUS
 10
487.6780675277
 20
201.2370046125
 11
487.6780675277
 21
206.3170046125
  0
LINE
  5
2D5
100
AcDbEntity
  8
0
100
AcDbLine
 62
3
  6
CONTINUOUS
 10
487.6780675277
 20
208.6780046125
 11
487.6780675277
 21
213.7580046125
  0
LINE
  5
2D6
100
AcDbEntity
  8
0
100
AcDbLine
 62
3
  6
CONTINUOUS
 10
487.6780675277
 20
216.1190046125
 11
487.6780675277
 21
221.1990046125
  0
LINE
  5
2D7
100
AcDbEntity
  8
0
100
AcDbLine
 62
3
  6
CONTINUOUS
 10
487.6780675277
 20
223.5600046125
 11
487.6780675277
 21
228.6400046125
  0
LINE
  5
2D8
100
AcDbEntity
  8
0
100
AcDbLine
 62
7
  6
CONTINUOUS
 10
492.1102675277
 20
201.2370046125
 11
492.1102675277
 21
204.5800046125
  0
LINE
  5
2D9
100
AcDbEntity
  8
0
100
AcDbLine
 62
7
  6
CONTINUOUS
 10
492.1102675277
 20
208.6780046125
 11
492.1102675277
 21
212.0200046125
  0
LINE
  5
2DA
100
AcDbEntity
  8
0
100
AcDbLine
 62
7
  6
CONTINUOUS
 10
492.1102675277
 20
216.1190046125
 11
492.1102675277
 21
219.4600046125
  0
LINE
  5
2DB
100
AcDbEntity
  8
0
100
AcDbLine
 62
3
  6
CONTINUOUS
 10
492.7580675277
 20
228.6400046125
 11
492.7580675277
 21
223.5600046125
  0
LINE
  5
2DC
100
AcDbEntity
  8
0
100
AcDbLine
 62
3
  6
CONTINUOUS
 10
492.7580675277
 20
221.1990046125
 11
492.7580675277
 21
216.1190046125
  0
LINE
  5
2DD
100
AcDbEntity
  8
0
100
AcDbLine
 62
3
  6
CONTINUOUS
 10
492.7580675277
 20
213.7580046125
 11
492.7580675277
 21
208.6780046125
  0
LINE
  5
2DE
100
AcDbEntity
  8
0
100
AcDbLine
 62
3
  6
CONTINUOUS
 10
492.7580675277
 20
206.3170046125
 11
492.7580675277
 21
201.2370046125
  0
LINE
  5
2DF
100
AcDbEntity
  8
0
100
AcDbLine
 62
3
  6
CONTINUOUS
 10
492.7580675277
 20
198.8760046125
 11
492.7580675277
 21
193.7960046125
  0
LINE
  5
2E0
100
AcDbEntity
  8
0
100
AcDbLine
 62
3
  6
CONTINUOUS
 10
495.1190675277
 20
193.7960046125
 11
495.1190675277
 21
198.8760046125
  0
LINE
  5
2E1
100
AcDbEntity
  8
0
100
AcDbLine
 62
3
  6
CONTINUOUS
 10
495.1190675277
 20
201.2370046125
 11
495.1190675277
 21
206.3170046125
  0
LINE
  5
2E2
100
AcDbEntity
  8
0
100
AcDbLine
 62
3
  6
CONTINUOUS
 10
495.1190675277
 20
208.6780046125
 11
495.1190675277
 21
213.7580046125
  0
LINE
  5
2E3
100
AcDbEntity
  8
0
100
AcDbLine
 62
3
  6
CONTINUOUS
 10
495.1190675277
 20
216.1190046125
 11
495.1190675277
 21
221.1990046125
  0
LINE
  5
2E4
100
AcDbEntity
  8
0
100
AcDbLine
 62
3
  6
CONTINUOUS
 10
495.1190675277
 20
223.5600046125
 11
495.1190675277
 21
228.6400046125
  0
LINE
  5
2E5
100
AcDbEntity
  8
0
100
AcDbLine
 62
3
  6
CONTINUOUS
 10
500.1990675277
 20
228.6400046125
 11
500.1990675277
 21
223.5600046125
  0
LINE
  5
2E6
100
AcDbEntity
  8
0
100
AcDbLine
 62
3
  6
CONTINUOUS
 10
500.1990675277
 20
221.1990046125
 11
500.1990675277
 21
216.1190046125
  0
LINE
  5
2E7
100
AcDbEntity
  8
0
100
AcDbLine
 62
3
  6
CONTINUOUS
 10
500.1990675277
 20
213.7580046125
 11
500.1990675277
 21
208.6780046125
  0
LINE
  5
2E8
100
AcDbEntity
  8
0
100
AcDbLine
 62
3
  6
CONTINUOUS
 10
500.1990675277
 20
206.3170046125
 11
500.1990675277
 21
201.2370046125
  0
LINE
  5
2E9
100
AcDbEntity
  8
0
100
AcDbLine
 62
3
  6
CONTINUOUS
 10
500.1990675277
 20
198.8760046125
 11
500.1990675277
 21
193.7960046125
  0
LINE
  5
2EA
100
AcDbEntity
  8
0
100
AcDbLine
 62
3
  6
CONTINUOUS
 10
502.5600675277
 20
193.7960046125
 11
502.5600675277
 21
198.8760046125
  0
LINE
  5
2EB
100
AcDbEntity
  8
0
100
AcDbLine
 62
3
  6
CONTINUOUS
 10
502.5600675277
 20
201.2370046125
 11
502.5600675277
 21
206.3170046125
  0
LINE
  5
2EC
100
AcDbEntity
  8
0
100
AcDbLine
 62
3
  6
CONTINUOUS
 10
502.5600675277
 20
208.6780046125
 11
502.5600675277
 21
213.7580046125
  0
LINE
  5
2ED
100
AcDbEntity
  8
0
100
AcDbLine
 62
3
  6
CONTINUOUS
 10
502.5600675277
 20
216.1190046125
 11
502.5600675277
 21
221.1990046125
  0
LINE
  5
2EE
100
AcDbEntity
  8
0
100
AcDbLine
 62
3
  6
CONTINUOUS
 10
502.5600675277
 20
223.5600046125
 11
502.5600675277
 21
228.6400046125
  0
LINE
  5
2EF
100
AcDbEntity
  8
0
100
AcDbLine
 62
3
  6
CONTINUOUS
 10
507.6400675277
 20
228.6400046125
 11
507.6400675277
 21
223.5600046125
  0
LINE
  5
2F0
100
AcDbEntity
  8
0
100
AcDbLine
 62
3
  6
CONTINUOUS
 10
507.6400675277
 20
221.1990046125
 11
507.6400675277
 21
216.1190046125
  0
LINE
  5
2F1
100
AcDbEntity
  8
0
100
AcDbLine
 62
3
  6
CONTINUOUS
 10
507.6400675277
 20
213.7580046125
 11
507.6400675277
 21
208.6780046125
  0
LINE
  5
2F2
100
AcDbEntity
  8
0
100
AcDbLine
 62
3
  6
CONTINUOUS
 10
507.6400675277
 20
206.3170046125
 11
507.6400675277
 21
201.2370046125
  0
LINE
  5
2F3
100
AcDbEntity
  8
0
100
AcDbLine
 62
3
  6
CONTINUOUS
 10
507.6400675277
 20
198.8760046125
 11
507.6400675277
 21
193.7960046125
  0
LINE
  5
2F4
100
AcDbEntity
  8
0
100
AcDbLine
 62
3
  6
CONTINUOUS
 10
511.0900675277
 20
190.9736046125
 11
511.0900675277
 21
229.8864046125
  0
LINE
  5
2F5
100
AcDbEntity
  8
0
100
AcDbLine
 62
3
  6
CONTINUOUS
 10
512.6902675277
 20
190.9736046125
 11
512.6902675277
 21
229.8864046125
  0
ARC
  5
2F6
100
AcDbEntity
  8
AXES
100
AcDbCircle
 62
3
  6
CONTINUOUS
 10
98.9402675277
 20
202.5300046125
 40
2.5
100
AcDbArc
 50
180.0
 51
270.0
  0
ARC
  5
2F7
100
AcDbEntity
  8
AXES
100
AcDbCircle
 62
3
  6
CONTINUOUS
 10
122.2402675277
 20
202.5300046125
 40
2.5
100
AcDbArc
 50
270.0
 51
360.0
  0
ARC
  5
2F8
100
AcDbEntity
  8
AXES
100
AcDbCircle
 62
7
  6
CONTINUOUS
 10
93.1902675277
 20
198.2050046125
 40
2.4
100
AcDbArc
 50
201.4248845542
 51
263.3484782919
  0
CIRCLE
  5
2F9
100
AcDbEntity
  8
AXES
100
AcDbCircle
 62
3
  6
CONTINUOUS
 10
90.5902675277
 20
210.4300046125
 40
2.4
  0
CIRCLE
  5
2FA
100
AcDbEntity
  8
AXES
100
AcDbCircle
 62
3
  6
CONTINUOUS
 10
130.5902675277
 20
210.4300046125
 40
2.4
  0
CIRCLE
  5
2FB
100
AcDbEntity
  8
AXES
100
AcDbCircle
 62
3
  6
CONTINUOUS
 10
90.6904675277
 20
194.9860046125
 40
2.4
  0
CIRCLE
  5
2FC
100
AcDbEntity
  8
AXES
100
AcDbCircle
 62
3
  6
CONTINUOUS
 10
290.7843975277
 20
202.6560046125
 40
2.4
  0
ARC
  5
2FD
100
AcDbEntity
  8
0
100
AcDbCircle
 62
3
  6
CONTINUOUS
 10
87.0778675277
 20
190.9736046125
 40
2.3876
100
AcDbArc
 50
180.0
 51
270.0
  0
ARC
  5
2FE
100
AcDbEntity
  8
0
100
AcDbCircle
 62
3
  6
CONTINUOUS
 10
93.1449770381
 20
229.8931511535
 40
6.8545128306
100
AcDbArc
 50
173.8678719611
 51
180.0563932687
  0
ARC
  5
2FF
100
AcDbEntity
  8
0
100
AcDbCircle
 62
3
  6
CONTINUOUS
 10
92.4354976206
 20
229.9636470048
 40
6.1415650711
100
AcDbArc
 50
172.1307522377
 51
173.8147399077
  0
ARC
  5
300
100
AcDbEntity
  8
AXES
100
AcDbCircle
 62
3
  6
CONTINUOUS
 10
98.9402675277
 20
218.3300046125
 40
2.5
100
AcDbArc
 50
90.0
 51
180.0
  0
ARC
  5
301
100
AcDbEntity
  8
AXES
100
AcDbCircle
 62
3
  6
CONTINUOUS
 10
122.2402675277
 20
218.3300046125
 40
2.5
100
AcDbArc
 50
0.0
 51
90.0
  0
ARC
  5
302
100
AcDbEntity
  8
0
100
AcDbCircle
 62
7
  6
CONTINUOUS
 10
288.6902675277
 20
214.6600046125
 40
2.4
100
AcDbArc
 50
260.0737976769
 51
99.9262023231
  0
CIRCLE
  5
303
100
AcDbEntity
  8
AXES
100
AcDbCircle
 62
3
  6
CONTINUOUS
 10
290.7843975277
 20
226.2560046125
 40
2.4
  0
ARC
  5
304
100
AcDbEntity
  8
0
100
AcDbCircle
 62
3
  6
CONTINUOUS
 10
87.0778675277
 20
229.8864046125
 40
2.3876
100
AcDbArc
 50
90.0
 51
180.0
  0
ARC
  5
305
100
AcDbEntity
  8
0
100
AcDbCircle
 62
7
  6
CONTINUOUS
 10
418.6902675277
 20
199.0360046125
 40
5.1
100
AcDbArc
 50
15.1199900771
 51
53.1746505279
  0
ARC
  5
306
100
AcDbEntity
  8
AXES
100
AcDbCircle
 62
7
  6
CONTINUOUS
 10
504.1902675277
 20
198.2050046125
 40
2.4
100
AcDbArc
 50
226.8943959071
 51
16.5811253
  0
CIRCLE
  5
307
100
AcDbEntity
  8
AXES
100
AcDbCircle
 62
3
  6
CONTINUOUS
 10
384.2592675277
 20
202.6560046125
 40
2.4
  0
CIRCLE
  5
308
100
AcDbEntity
  8
AXES
100
AcDbCircle
 62
3
  6
CONTINUOUS
 10
424.0242675277
 20
202.6560046125
 40
2.4
  0
CIRCLE
  5
309
100
AcDbEntity
  8
AXES
100
AcDbCircle
 62
3
  6
CONTINUOUS
 10
463.7892675277
 20
202.6560046125
 40
2.4
  0
CIRCLE
  5
30A
100
AcDbEntity
  8
AXES
100
AcDbCircle
 62
3
  6
CONTINUOUS
 10
370.3143975277
 20
202.6560046125
 40
2.4
  0
CIRCLE
  5
30B
100
AcDbEntity
  8
AXES
100
AcDbCircle
 62
3
  6
CONTINUOUS
 10
330.5493975277
 20
202.6560046125
 40
2.4
  0
ARC
  5
30C
100
AcDbEntity
  8
0
100
AcDbCircle
 62
3
  6
CONTINUOUS
 10
510.3026675277
 20
190.9736046125
 40
2.3876
100
AcDbArc
 50
270.0
 51
360.0
  0
ARC
  5
30D
100
AcDbEntity
  8
AXES
100
AcDbCircle
 62
7
  6
CONTINUOUS
 10
489.6902675277
 20
194.4800046125
 40
2.1
100
AcDbArc
 50
340.7660651231
 51
167.4374946134
  0
CIRCLE
  5
30E
100
AcDbEntity
  8
0
100
AcDbCircle
 62
7
  6
CONTINUOUS
 10
383.6902675277
 20
214.6600046125
 40
1.5
  0
CIRCLE
  5
30F
100
AcDbEntity
  8
0
100
AcDbCircle
 62
7
  6
CONTINUOUS
 10
369.6902675277
 20
214.6600046125
 40
1.5
  0
CIRCLE
  5
310
100
AcDbEntity
  8
0
100
AcDbCircle
 62
7
  6
CONTINUOUS
 10
348.6902675277
 20
214.6600046125
 40
1.5
  0
CIRCLE
  5
311
100
AcDbEntity
  8
0
100
AcDbCircle
 62
7
  6
CONTINUOUS
 10
341.6902675277
 20
214.6600046125
 40
1.5
  0
CIRCLE
  5
312
100
AcDbEntity
  8
0
100
AcDbCircle
 62
7
  6
CONTINUOUS
 10
334.6902675277
 20
214.6600046125
 40
1.5
  0
CIRCLE
  5
313
100
AcDbEntity
  8
0
100
AcDbCircle
 62
7
  6
CONTINUOUS
 10
327.6902675277
 20
214.6600046125
 40
1.5
  0
CIRCLE
  5
314
100
AcDbEntity
  8
0
100
AcDbCircle
 62
7
  6
CONTINUOUS
 10
320.6902675277
 20
214.6600046125
 40
1.5
  0
CIRCLE
  5
315
100
AcDbEntity
  8
0
100
AcDbCircle
 62
7
  6
CONTINUOUS
 10
313.6902675277
 20
214.6600046125
 40
1.5
  0
CIRCLE
  5
316
100
AcDbEntity
  8
0
100
AcDbCircle
 62
7
  6
CONTINUOUS
 10
306.6902675277
 20
214.6600046125
 40
1.5
  0
CIRCLE
  5
317
100
AcDbEntity
  8
0
100
AcDbCircle
 62
7
  6
CONTINUOUS
 10
299.6902675277
 20
214.6600046125
 40
1.5
  0
CIRCLE
  5
318
100
AcDbEntity
  8
AXES
100
AcDbCircle
 62
3
  6
CONTINUOUS
 10
384.2592675277
 20
226.2560046125
 40
2.4
  0
CIRCLE
  5
319
100
AcDbEntity
  8
AXES
100
AcDbCircle
 62
3
  6
CONTINUOUS
 10
330.5493975277
 20
226.2560046125
 40
2.4
  0
CIRCLE
  5
31A
100
AcDbEntity
  8
AXES
100
AcDbCircle
 62
3
  6
CONTINUOUS
 10
370.3143975277
 20
226.2560046125
 40
2.4
  0
CIRCLE
  5
31B
100
AcDbEntity
  8
0
100
AcDbCircle
 62
7
  6
CONTINUOUS
 10
431.0402675277
 20
214.6600046125
 40
2.4
  0
CIRCLE
  5
31C
100
AcDbEntity
  8
0
100
AcDbCircle
 62
7
  6
CONTINUOUS
 10
443.6902675277
 20
214.6600046125
 40
1.5
  0
CIRCLE
  5
31D
100
AcDbEntity
  8
0
100
AcDbCircle
 62
7
  6
CONTINUOUS
 10
418.6902675277
 20
214.6600046125
 40
1.5
  0
ARC
  5
31E
100
AcDbEntity
  8
0
100
AcDbCircle
 62
3
  6
CONTINUOUS
 10
504.2355580172
 20
229.8931511535
 40
6.8545128306
100
AcDbArc
 50
359.9436067313
 51
6.1321280389
  0
ARC
  5
31F
100
AcDbEntity
  8
0
100
AcDbCircle
 62
3
  6
CONTINUOUS
 10
504.9450374343
 20
229.9636470048
 40
6.1415650716
100
AcDbArc
 50
6.1852600924
 51
7.8692477623
  0
ARC
  5
320
100
AcDbEntity
  8
AXES
100
AcDbCircle
 62
7
  6
CONTINUOUS
 10
504.1902675277
 20
222.6550046125
 40
2.4
100
AcDbArc
 50
22.1791360845
 51
133.1056040929
  0
ARC
  5
321
100
AcDbEntity
  8
AXES
100
AcDbCircle
 62
7
  6
CONTINUOUS
 10
504.1902675277
 20
222.6550046125
 40
2.4
100
AcDbArc
 50
226.8943959071
 51
321.9182605807
  0
CIRCLE
  5
322
100
AcDbEntity
  8
AXES
100
AcDbCircle
 62
3
  6
CONTINUOUS
 10
424.0242675277
 20
226.2560046125
 40
2.4
  0
CIRCLE
  5
323
100
AcDbEntity
  8
AXES
100
AcDbCircle
 62
3
  6
CONTINUOUS
 10
463.7892675277
 20
226.2560046125
 40
2.4
  0
ARC
  5
324
100
AcDbEntity
  8
0
100
AcDbCircle
 62
3
  6
CONTINUOUS
 10
510.3026675277
 20
229.8864046125
 40
2.3876
100
AcDbArc
 50
0.0
 51
90.0
  0
ARC
  5
325
100
AcDbEntity
  8
AXES
100
AcDbCircle
 62
7
  6
CONTINUOUS
 10
489.6902675277
 20
224.4800046125
 40
2.1
100
AcDbArc
 50
333.7111945751
 51
167.4374946134
  0
SPLINE
  5
326
100
AcDbEntity
  8
0
100
AcDbSpline
 62
3
  6
CONTINUOUS
 70
0
 71
3
 72
9
 73
5
 74
0
 42
0.0000001
 43
0.0000001
 44
0.0000000001
 40
0.0
 40
0.0
 40
0.0
 40
0.0
 40
0.2605235058
 40
1.0
 40
1.0
 40
1.0
 40
1.0
 10
511.0900675277
 20
190.9736046125
 30
0.0
 10
511.0682572494
 20
190.8697209524
 30
0.0
 10
510.9844450398
 20
190.4710045808
 30
0.0
 10
510.8986248436
 20
190.0726083197
 30
0.0
 10
510.827600861
 20
189.7798046125
 30
0.0
  0
SPLINE
  5
327
100
AcDbEntity
  8
0
100
AcDbSpline
 62
3
  6
CONTINUOUS
 70
0
 71
3
 72
10
 73
6
 74
0
 42
0.0000001
 43
0.0000001
 44
0.0000000001
 40
0.0
 40
0.0
 40
0.0
 40
0.0
 40
0.6814856832
 40
0.8844945369
 40
1.0
 40
1.0
 40
1.0
 40
1.0
 10
510.827600861
 20
189.7798046125
 30
0.0
 10
510.7559010199
 20
189.4842146089
 30
0.0
 10
510.6521930858
 20
189.095166614
 30
0.0
 10
510.4759843681
 20
188.6956418312
 30
0.0
 10
510.3542200909
 20
188.5860046125
 30
0.0
 10
510.3026675277
 20
188.5860046125
 30
0.0
  0
SPLINE
  5
328
100
AcDbEntity
  8
0
100
AcDbSpline
 62
3
  6
CONTINUOUS
 70
0
 71
3
 72
9
 73
5
 74
0
 42
0.0000001
 43
0.0000001
 44
0.0000000001
 40
0.0
 40
0.0
 40
0.0
 40
0.0
 40
0.2605235058
 40
1.0
 40
1.0
 40
1.0
 40
1.0
 10
86.2904675277
 20
190.9736046125
 30
0.0
 10
86.3122778059
 20
190.8697209524
 30
0.0
 10
86.3960900156
 20
190.4710045808
 30
0.0
 10
86.4819102117
 20
190.0726083197
 30
0.0
 10
86.5529341943
 20
189.7798046125
 30
0.0
  0
SPLINE
  5
329
100
AcDbEntity
  8
0
100
AcDbSpline
 62
3
  6
CONTINUOUS
 70
0
 71
3
 72
10
 73
6
 74
0
 42
0.0000001
 43
0.0000001
 44
0.0000000001
 40
0.0
 40
0.0
 40
0.0
 40
0.0
 40
0.6814856832
 40
0.8844945369
 40
1.0
 40
1.0
 40
1.0
 40
1.0
 10
86.5529341943
 20
189.7798046125
 30
0.0
 10
86.6246340355
 20
189.4842146089
 30
0.0
 10
86.7283419695
 20
189.095166614
 30
0.0
 10
86.9045506872
 20
188.6956418312
 30
0.0
 10
87.0263149644
 20
188.5860046125
 30
0.0
 10
87.0778675277
 20
188.5860046125
 30
0.0
  0
SPLINE
  5
32A
100
AcDbEntity
  8
0
100
AcDbSpline
 62
3
  6
CONTINUOUS
 70
0
 71
3
 72
9
 73
5
 74
0
 42
0.0000001
 43
0.0000001
 44
0.0000000001
 40
0.0
 40
0.0
 40
0.0
 40
0.0
 40
0.2312600994
 40
1.0
 40
1.0
 40
1.0
 40
1.0
 10
510.3026675277
 20
232.2740046125
 30
0.0
 10
510.3243359291
 20
232.2740046125
 30
0.0
 10
510.4183714065
 20
232.2623370336
 30
0.0
 10
510.5004993384
 20
232.2040875589
 30
0.0
 10
510.5513540794
 20
232.1530784499
 30
0.0
  0
SPLINE
  5
32B
100
AcDbEntity
  8
0
100
AcDbSpline
 62
3
  6
CONTINUOUS
 70
0
 71
3
 72
9
 73
5
 74
0
 42
0.0000001
 43
0.0000001
 44
0.0000000001
 40
0.0
 40
0.0
 40
0.0
 40
0.0
 40
0.4060111903
 40
1.0
 40
1.0
 40
1.0
 40
1.0
 10
510.5513540794
 20
232.1530784499
 30
0.0
 10
510.689373377
 20
232.0146401989
 30
0.0
 10
510.8921287117
 20
231.5561243198
 30
0.0
 10
510.9895729902
 20
231.0878001116
 30
0.0
 10
511.0287679457
 20
230.804506442
 30
0.0
  0
SPLINE
  5
32C
100
AcDbEntity
  8
0
100
AcDbSpline
 62
3
  6
CONTINUOUS
 70
0
 71
3
 72
9
 73
5
 74
0
 42
0.0000001
 43
0.0000001
 44
0.0000000001
 40
0.0
 40
0.0
 40
0.0
 40
0.0
 40
0.2312600994
 40
1.0
 40
1.0
 40
1.0
 40
1.0
 10
87.0778675277
 20
232.2740046125
 30
0.0
 10
87.0561991263
 20
232.2740046125
 30
0.0
 10
86.9621636488
 20
232.2623370336
 30
0.0
 10
86.8800357169
 20
232.2040875589
 30
0.0
 10
86.829180976
 20
232.1530784499
 30
0.0
  0
SPLINE
  5
32D
100
AcDbEntity
  8
0
100
AcDbSpline
 62
3
  6
CONTINUOUS
 70
0
 71
3
 72
9
 73
5
 74
0
 42
0.0000001
 43
0.0000001
 44
0.0000000001
 40
0.0
 40
0.0
 40
0.0
 40
0.0
 40
0.4060111903
 40
1.0
 40
1.0
 40
1.0
 40
1.0
 10
86.829180976
 20
232.1530784499
 30
0.0
 10
86.6911616784
 20
232.0146401989
 30
0.0
 10
86.4884063437
 20
231.5561243198
 30
0.0
 10
86.3909620651
 20
231.0878001116
 30
0.0
 10
86.3517671096
 20
230.804506442
 30
0.0
  0
ENDSEC
  0
SECTION
  2
OBJECTS
  0
DICTIONARY
  5
C
100
AcDbDictionary
280
0
281
1
  3
ACAD_GROUP
350
D
  3
ACAD_MLINESTYLE
350
17
  3
ACAD_LAYOUT
350
1A
  3
ACAD_PLOTSETTINGS
350
19
  3
ACAD_PLOTSTYLENAME
350
E
  0
DICTIONARY
  5
D
102
{ACAD_REACTORS
330
C
102
}
100
AcDbDictionary
280
0
281
1
  0
ACDBDICTIONARYWDFLT
  5
E
102
{ACAD_REACTORS
330
C
102
}
100
AcDbDictionary
281
1
  3
Normal
350
F
100
AcDbDictionaryWithDefault
340
F
  0
DICTIONARY
  5
17
102
{ACAD_REACTORS
330
C
102
}
100
AcDbDictionary
280
0
281
1
  3
Standard
350
18
  0
DICTIONARY
  5
19
102
{ACAD_REACTORS
330
C
102
}
100
AcDbDictionary
281
1
  0
DICTIONARY
  5
1A
102
{ACAD_REACTORS
330
C
102
}
100
AcDbDictionary
281
1
  3
Model
350
32E
  3
Layout1
350
32F
  0
ACDBPLACEHOLDER
  5
F
102
{ACAD_REACTORS
330
E
102
}
  0
MLINESTYLE
  5
18
102
{ACAD_REACTORS
330
17
102
}
100
AcDbMlineStyle
  2
STANDARD
 70
0
  3

 62
256
 51
90.0
 52
90.0
 71
2
 49
0.5
 62
256
  6
BYLAYER
 49
-0.5
 62
256
  6
BYLAYER
  0
LAYOUT
  5
32E
102
{ACAD_REACTORS
330
1A
102
}
100
AcDbPlotSettings
  1

  2
none_device
  4
ISO_A2_(594.00_x_420.00_MM)
  6

 40
0.0
 41
0.0
 42
0.0
 43
0.0
 44
594.0
 45
420.0
 46
0.0
 47
0.0
 48
0.0
 49
0.0
140
0.0
141
0.0
142
1.0
143
1.0
 70
1024
 72
1
 73
0
 74
0
  7

 75
0
147
1.0
148
0.0
149
0.0
100
AcDbLayout
  1
Model
 70
0
 71
0
 10
0.0
 20
0.0
 11
594.0
 21
420.0
 12
0.0
 22
0.0
 32
0.0
 14
0.0
 24
0.0
 34
0.0
 15
0.0
 25
0.0
 35
0.0
146
0.0
 13
0.0
 23
0.0
 33
0.0
 16
1.0
 26
0.0
 36
0.0
 17
0.0
 27
1.0
 37
0.0
 76
0
330
202
345
0
346
0
  0
LAYOUT
  5
32F
102
{ACAD_REACTORS
330
1A
102
}
100
AcDbPlotSettings
  1

  2
none_device
  4
ISO_A2_(594.00_x_420.00_MM)
  6

 40
0.0
 41
0.0
 42
0.0
 43
0.0
 44
594.0
 45
420.0
 46
0.0
 47
0.0
 48
0.0
 49
0.0
140
0.0
141
0.0
142
1.0
143
1.0
 70
0
 72
1
 73
0
 74
0
  7

 75
0
147
1.0
148
0.0
149
0.0
100
AcDbLayout
  1
Layout1
 70
0
 71
1
 10
0.0
 20
0.0
 11
594.0
 21
420.0
 12
0.0
 22
0.0
 32
0.0
 14
0.0
 24
0.0
 34
0.0
 15
0.0
 25
0.0
 35
0.0
146
0.0
 13
0.0
 23
0.0
 33
0.0
 16
1.0
 26
0.0
 36
0.0
 17
0.0
 27
1.0
 37
0.0
 76
0
330
203
345
0
346
0
  0
ENDSEC
  0
EOF
