<?xml version="1.0" encoding="UTF-8" standalone="no"?>
<!-- Created with Inkscape (http://www.inkscape.org/) -->

<svg
   xmlns:dc="http://purl.org/dc/elements/1.1/"
   xmlns:cc="http://creativecommons.org/ns#"
   xmlns:rdf="http://www.w3.org/1999/02/22-rdf-syntax-ns#"
   xmlns:svg="http://www.w3.org/2000/svg"
   xmlns="http://www.w3.org/2000/svg"
   xmlns:sodipodi="http://sodipodi.sourceforge.net/DTD/sodipodi-0.dtd"
   xmlns:inkscape="http://www.inkscape.org/namespaces/inkscape"
   width="1488.189"
   height="1052.3622"
   id="svg3314"
   version="1.1"
   inkscape:version="0.48.2 r9819"
   sodipodi:docname="back_panels.svg">
  <defs
     id="defs3316">
    <symbol
       id="*Paper_Space" />
    <symbol
       id="*Model_Space" />
    <pattern
       id="Hatch"
       x="0"
       y="0"
       patternUnits="userSpaceOnUse"
       width="8"
       height="8">
      <path
         id="path3332"
         d="M8 4 l-4,4"
         stroke-width="0.25"
         stroke="#000000"
         linecap="square" />
      <path
         id="path3334"
         d="M6 2 l-4,4"
         stroke-width="0.25"
         stroke="#000000"
         linecap="square" />
      <path
         id="path3336"
         d="M4 0 l-4,4"
         stroke-width="0.25"
         stroke="#000000"
         linecap="square" />
    </pattern>
    <marker
       orient="auto"
       id="DistanceX"
       style="overflow:visible"
       refX="0"
       refY="0">
      <path
         id="path3329"
         d="M 3,-3 -3,3 M 0,-5 0,5"
         style="stroke:#000000;stroke-width:0.5"
         inkscape:connector-curvature="0" />
    </marker>
  </defs>
  <sodipodi:namedview
     id="base"
     pagecolor="#ffffff"
     bordercolor="#666666"
     borderopacity="1.0"
     inkscape:pageopacity="0.0"
     inkscape:pageshadow="2"
     inkscape:zoom="1.4825906"
     inkscape:cx="909.96013"
     inkscape:cy="658.16757"
     inkscape:document-units="in"
     inkscape:current-layer="layer1"
     showgrid="false"
     units="in"
     inkscape:window-width="1680"
     inkscape:window-height="1003"
     inkscape:window-x="-4"
     inkscape:window-y="-4"
     inkscape:window-maximized="1" />
  <metadata
     id="metadata3319">
    <rdf:RDF>
      <cc:Work
         rdf:about="">
        <dc:format>image/svg+xml</dc:format>
        <dc:type
           rdf:resource="http://purl.org/dc/dcmitype/StillImage" />
        <dc:title />
      </cc:Work>
    </rdf:RDF>
  </metadata>
  <g
     inkscape:groupmode="layer"
     id="layer2"
     inkscape:label="Base">
    <g
       id="g3528"
       transform="translate(-0.2525924,1.6394169)">
      <g
         id="g3340"
         inkscape:label="0">
        <path
           id="path3342"
           d="M 0,1052.3622 0,0"
           style="fill:none;stroke:#000000;stroke-linecap:round"
           inkscape:connector-curvature="0" />
        <path
           id="path3344"
           d="m 0,1052.3622 1488.189,0"
           style="fill:none;stroke:#000000;stroke-linecap:round"
           inkscape:connector-curvature="0" />
        <path
           id="path3346"
           d="M 0,0 1488.189,0"
           style="fill:none;stroke:#000000;stroke-linecap:round"
           inkscape:connector-curvature="0" />
        <path
           id="path3348"
           d="M 1488.189,1052.3622 1488.189,0"
           style="fill:none;stroke:#000000;stroke-linecap:round"
           inkscape:connector-curvature="0" />
        <path
           id="path3350"
           d="m 564.82668,230.35314 0,106.29922"
           style="fill:none;stroke:#000000;stroke-linecap:round"
           inkscape:connector-curvature="0" />
        <path
           id="path3352"
           d="m 583.69525,301.75078 0,-36.49606"
           style="fill:none;stroke:#000000;stroke-linecap:round"
           inkscape:connector-curvature="0" />
        <path
           id="path3354"
           d="m 664.12832,265.25472 0,36.49606"
           style="fill:none;stroke:#000000;stroke-linecap:round"
           inkscape:connector-curvature="0" />
        <path
           id="path3356"
           d="m 564.82668,336.65236 327.8622,0"
           style="fill:none;stroke:#000000;stroke-linecap:round"
           inkscape:connector-curvature="0" />
        <path
           id="path3358"
           d="m 688.57714,301.75078 0,-36.49606"
           style="fill:none;stroke:#000000;stroke-linecap:round"
           inkscape:connector-curvature="0" />
        <path
           id="path3360"
           d="m 873.8921,301.75078 -80.43307,0"
           style="fill:none;stroke:#000000;stroke-linecap:round"
           inkscape:connector-curvature="0" />
        <path
           id="path3362"
           d="m 769.01021,301.75078 -80.43307,0"
           style="fill:none;stroke:#000000;stroke-linecap:round"
           inkscape:connector-curvature="0" />
        <path
           id="path3364"
           d="m 664.12832,301.75078 -80.43307,0"
           style="fill:none;stroke:#000000;stroke-linecap:round"
           inkscape:connector-curvature="0" />
        <path
           id="path3366"
           d="m 583.69525,265.25472 80.43307,0"
           style="fill:none;stroke:#000000;stroke-linecap:round"
           inkscape:connector-curvature="0" />
        <path
           id="path3368"
           d="m 688.57714,265.25472 80.43307,0"
           style="fill:none;stroke:#000000;stroke-linecap:round"
           inkscape:connector-curvature="0" />
        <path
           id="path3370"
           d="m 793.45903,265.25472 80.43307,0"
           style="fill:none;stroke:#000000;stroke-linecap:round"
           inkscape:connector-curvature="0" />
        <path
           id="path3372"
           d="m 769.01021,265.25472 0,36.49606"
           style="fill:none;stroke:#000000;stroke-linecap:round"
           inkscape:connector-curvature="0" />
        <path
           id="path3374"
           d="m 892.68888,230.35314 -327.8622,0"
           style="fill:none;stroke:#000000;stroke-linecap:round"
           inkscape:connector-curvature="0" />
        <path
           id="path3376"
           d="m 793.45903,301.75078 0,-36.49606"
           style="fill:none;stroke:#000000;stroke-linecap:round"
           inkscape:connector-curvature="0" />
        <path
           id="path3378"
           d="m 873.8921,265.25472 0,36.49606"
           style="fill:none;stroke:#000000;stroke-linecap:round"
           inkscape:connector-curvature="0" />
        <path
           id="path3380"
           d="m 892.68888,336.65236 0,-106.29922"
           style="fill:none;stroke:#000000;stroke-linecap:round"
           inkscape:connector-curvature="0" />
        <path
           id="path3382"
           d="m 564.82668,452.64194 0,106.29921"
           style="fill:none;stroke:#000000;stroke-linecap:round"
           inkscape:connector-curvature="0" />
        <path
           id="path3384"
           d="m 625.94873,524.05729 0,-35.43307"
           style="fill:none;stroke:#000000;stroke-linecap:round"
           inkscape:connector-curvature="0" />
        <path
           id="path3386"
           d="m 564.82668,558.94115 327.8622,0"
           style="fill:none;stroke:#000000;stroke-linecap:round"
           inkscape:connector-curvature="0" />
        <path
           id="path3388"
           d="m 831.46054,524.05729 -205.51181,0"
           style="fill:none;stroke:#000000;stroke-linecap:round"
           inkscape:connector-curvature="0" />
        <path
           id="path3390"
           d="m 625.94873,488.62422 205.51181,0"
           style="fill:none;stroke:#000000;stroke-linecap:round"
           inkscape:connector-curvature="0" />
        <path
           id="path3392"
           d="m 892.68888,452.64194 -327.8622,0"
           style="fill:none;stroke:#000000;stroke-linecap:round"
           inkscape:connector-curvature="0" />
        <path
           id="path3394"
           d="m 831.46054,488.62422 0,35.43307"
           style="fill:none;stroke:#000000;stroke-linecap:round"
           inkscape:connector-curvature="0" />
        <path
           id="path3396"
           d="m 892.68888,558.94115 0,-106.29921"
           style="fill:none;stroke:#000000;stroke-linecap:round"
           inkscape:connector-curvature="0" />
        <path
           id="path3398"
           d="m 564.82668,666.78541 0,106.29921"
           style="fill:none;stroke:#000000;stroke-linecap:round"
           inkscape:connector-curvature="0" />
        <path
           id="path3400"
           d="m 564.82668,773.08462 327.8622,0"
           style="fill:none;stroke:#000000;stroke-linecap:round"
           inkscape:connector-curvature="0" />
        <path
           id="path3402"
           d="m 892.68888,666.78541 -327.8622,0"
           style="fill:none;stroke:#000000;stroke-linecap:round"
           inkscape:connector-curvature="0" />
        <path
           id="path3404"
           d="m 892.68888,773.08462 0,-106.29921"
           style="fill:none;stroke:#000000;stroke-linecap:round"
           inkscape:connector-curvature="0" />
        <path
           id="path3406"
           d="m 596.00778,325.31377 a 8.149606,8.149606 0 1 0 -16.29921,0 8.149606,8.149606 0 1 0 16.29921,0 z"
           style="fill:none;stroke:#000000;stroke-linecap:round"
           inkscape:connector-curvature="0" />
        <path
           id="path3408"
           d="m 596.00778,241.69173 a 8.149606,8.149606 0 1 0 -16.29921,0 8.149606,8.149606 0 1 0 16.29921,0 z"
           style="fill:none;stroke:#000000;stroke-linecap:round"
           inkscape:connector-curvature="0" />
        <path
           id="path3410"
           d="m 877.78974,325.31377 a 8.14961,8.14961 0 1 0 -16.29922,0 8.14961,8.14961 0 1 0 16.29922,0 z"
           style="fill:none;stroke:#000000;stroke-linecap:round"
           inkscape:connector-curvature="0" />
        <path
           id="path3412"
           d="m 877.78974,241.69173 a 8.14961,8.14961 0 1 0 -16.29922,0 8.14961,8.14961 0 1 0 16.29922,0 z"
           style="fill:none;stroke:#000000;stroke-linecap:round"
           inkscape:connector-curvature="0" />
        <path
           id="path3414"
           d="m 736.89876,325.31377 a 8.1496065,8.1496065 0 1 0 -16.29921,0 8.1496065,8.1496065 0 1 0 16.29921,0 z"
           style="fill:none;stroke:#000000;stroke-linecap:round"
           inkscape:connector-curvature="0" />
        <path
           id="path3416"
           d="m 736.89876,241.69173 a 8.1496065,8.1496065 0 1 0 -16.29921,0 8.1496065,8.1496065 0 1 0 16.29921,0 z"
           style="fill:none;stroke:#000000;stroke-linecap:round"
           inkscape:connector-curvature="0" />
        <path
           id="path3418"
           d="m 874.95509,241.69173 a 5.314961,5.314961 0 1 0 -10.62992,0 5.314961,5.314961 0 1 0 10.62992,0 z"
           style="fill:none;stroke:#000000;stroke-linecap:round"
           inkscape:connector-curvature="0" />
        <path
           id="path3420"
           d="m 874.95509,325.31377 a 5.314961,5.314961 0 1 0 -10.62992,0 5.314961,5.314961 0 1 0 10.62992,0 z"
           style="fill:none;stroke:#000000;stroke-linecap:round"
           inkscape:connector-curvature="0" />
        <path
           id="path3422"
           d="m 734.06411,325.31377 a 5.314961,5.314961 0 1 0 -10.62992,0 5.314961,5.314961 0 1 0 10.62992,0 z"
           style="fill:none;stroke:#000000;stroke-linecap:round"
           inkscape:connector-curvature="0" />
        <path
           id="path3424"
           d="m 734.06411,241.69173 a 5.314961,5.314961 0 1 0 -10.62992,0 5.314961,5.314961 0 1 0 10.62992,0 z"
           style="fill:none;stroke:#000000;stroke-linecap:round"
           inkscape:connector-curvature="0" />
        <path
           id="path3426"
           d="m 593.17314,241.69173 a 5.314961,5.314961 0 1 0 -10.62992,0 5.314961,5.314961 0 1 0 10.62992,0 z"
           style="fill:none;stroke:#000000;stroke-linecap:round"
           inkscape:connector-curvature="0" />
        <path
           id="path3428"
           d="m 593.17314,325.31377 a 5.314961,5.314961 0 1 0 -10.62992,0 5.314961,5.314961 0 1 0 10.62992,0 z"
           style="fill:none;stroke:#000000;stroke-linecap:round"
           inkscape:connector-curvature="0" />
        <path
           id="path3430"
           d="m 596.00778,547.60257 a 8.149606,8.149606 0 1 0 -16.29921,0 8.149606,8.149606 0 1 0 16.29921,0 z"
           style="fill:none;stroke:#000000;stroke-linecap:round"
           inkscape:connector-curvature="0" />
        <path
           id="path3432"
           d="m 596.00778,463.98052 a 8.149606,8.149606 0 1 0 -16.29921,0 8.149606,8.149606 0 1 0 16.29921,0 z"
           style="fill:none;stroke:#000000;stroke-linecap:round"
           inkscape:connector-curvature="0" />
        <path
           id="path3434"
           d="m 877.80699,547.60257 a 8.1496065,8.1496065 0 1 0 -16.29921,0 8.1496065,8.1496065 0 1 0 16.29921,0 z"
           style="fill:none;stroke:#000000;stroke-linecap:round"
           inkscape:connector-curvature="0" />
        <path
           id="path3436"
           d="m 877.80699,463.98052 a 8.1496065,8.1496065 0 1 0 -16.29921,0 8.1496065,8.1496065 0 1 0 16.29921,0 z"
           style="fill:none;stroke:#000000;stroke-linecap:round"
           inkscape:connector-curvature="0" />
        <path
           id="path3438"
           d="m 736.90739,547.60257 a 8.14961,8.14961 0 1 0 -16.29922,0 8.14961,8.14961 0 1 0 16.29922,0 z"
           style="fill:none;stroke:#000000;stroke-linecap:round"
           inkscape:connector-curvature="0" />
        <path
           id="path3440"
           d="m 736.90739,463.98052 a 8.14961,8.14961 0 1 0 -16.29922,0 8.14961,8.14961 0 1 0 16.29922,0 z"
           style="fill:none;stroke:#000000;stroke-linecap:round"
           inkscape:connector-curvature="0" />
        <path
           id="path3442"
           d="m 867.744,503.81412 a 5.6692915,5.6692915 0 1 0 -11.33858,0 5.6692915,5.6692915 0 1 0 11.33858,0 z"
           style="fill:none;stroke:#000000;stroke-linecap:round"
           inkscape:connector-curvature="0" />
        <path
           id="path3444"
           d="m 867.98953,521.28168 a 5.669295,5.669295 0 1 0 -11.33859,0 5.669295,5.669295 0 1 0 11.33859,0 z"
           style="fill:none;stroke:#000000;stroke-linecap:round"
           inkscape:connector-curvature="0" />
        <path
           id="path3446"
           d="m 600.93298,503.81412 a 5.669291,5.669291 0 1 0 -11.33858,0 5.669291,5.669291 0 1 0 11.33858,0 z"
           style="fill:none;stroke:#000000;stroke-linecap:round"
           inkscape:connector-curvature="0" />
        <path
           id="path3448"
           d="m 600.93298,521.28168 a 5.669291,5.669291 0 1 0 -11.33858,0 5.669291,5.669291 0 1 0 11.33858,0 z"
           style="fill:none;stroke:#000000;stroke-linecap:round"
           inkscape:connector-curvature="0" />
        <path
           id="path3450"
           d="m 874.97235,463.98052 a 5.314961,5.314961 0 1 0 -10.62992,0 5.314961,5.314961 0 1 0 10.62992,0 z"
           style="fill:none;stroke:#000000;stroke-linecap:round"
           inkscape:connector-curvature="0" />
        <path
           id="path3452"
           d="m 874.97235,547.60257 a 5.314961,5.314961 0 1 0 -10.62992,0 5.314961,5.314961 0 1 0 10.62992,0 z"
           style="fill:none;stroke:#000000;stroke-linecap:round"
           inkscape:connector-curvature="0" />
        <path
           id="path3454"
           d="m 734.07274,547.60257 a 5.314961,5.314961 0 1 0 -10.62992,0 5.314961,5.314961 0 1 0 10.62992,0 z"
           style="fill:none;stroke:#000000;stroke-linecap:round"
           inkscape:connector-curvature="0" />
        <path
           id="path3456"
           d="m 734.07274,463.98052 a 5.314961,5.314961 0 1 0 -10.62992,0 5.314961,5.314961 0 1 0 10.62992,0 z"
           style="fill:none;stroke:#000000;stroke-linecap:round"
           inkscape:connector-curvature="0" />
        <path
           id="path3458"
           d="m 593.17314,463.98052 a 5.314961,5.314961 0 1 0 -10.62992,0 5.314961,5.314961 0 1 0 10.62992,0 z"
           style="fill:none;stroke:#000000;stroke-linecap:round"
           inkscape:connector-curvature="0" />
        <path
           id="path3460"
           d="m 593.17314,547.60257 a 5.314961,5.314961 0 1 0 -10.62992,0 5.314961,5.314961 0 1 0 10.62992,0 z"
           style="fill:none;stroke:#000000;stroke-linecap:round"
           inkscape:connector-curvature="0" />
        <path
           id="path3462"
           d="m 877.78974,761.74604 a 8.14961,8.14961 0 1 0 -16.29922,0 8.14961,8.14961 0 1 0 16.29922,0 z"
           style="fill:none;stroke:#000000;stroke-linecap:round"
           inkscape:connector-curvature="0" />
        <path
           id="path3464"
           d="m 877.78974,678.12399 a 8.14961,8.14961 0 1 0 -16.29922,0 8.14961,8.14961 0 1 0 16.29922,0 z"
           style="fill:none;stroke:#000000;stroke-linecap:round"
           inkscape:connector-curvature="0" />
        <path
           id="path3466"
           d="m 736.89876,761.74604 a 8.1496065,8.1496065 0 1 0 -16.29921,0 8.1496065,8.1496065 0 1 0 16.29921,0 z"
           style="fill:none;stroke:#000000;stroke-linecap:round"
           inkscape:connector-curvature="0" />
        <path
           id="path3468"
           d="m 736.89876,678.12399 a 8.1496065,8.1496065 0 1 0 -16.29921,0 8.1496065,8.1496065 0 1 0 16.29921,0 z"
           style="fill:none;stroke:#000000;stroke-linecap:round"
           inkscape:connector-curvature="0" />
        <path
           id="path3470"
           d="m 596.00778,678.12399 a 8.149606,8.149606 0 1 0 -16.29921,0 8.149606,8.149606 0 1 0 16.29921,0 z"
           style="fill:none;stroke:#000000;stroke-linecap:round"
           inkscape:connector-curvature="0" />
        <path
           id="path3472"
           d="m 596.00778,761.74604 a 8.149606,8.149606 0 1 0 -16.29921,0 8.149606,8.149606 0 1 0 16.29921,0 z"
           style="fill:none;stroke:#000000;stroke-linecap:round"
           inkscape:connector-curvature="0" />
        <path
           id="path3474"
           d="m 874.95509,678.12399 a 5.314961,5.314961 0 1 0 -10.62992,0 5.314961,5.314961 0 1 0 10.62992,0 z"
           style="fill:none;stroke:#000000;stroke-linecap:round"
           inkscape:connector-curvature="0" />
        <path
           id="path3476"
           d="m 874.95509,761.74604 a 5.314961,5.314961 0 1 0 -10.62992,0 5.314961,5.314961 0 1 0 10.62992,0 z"
           style="fill:none;stroke:#000000;stroke-linecap:round"
           inkscape:connector-curvature="0" />
        <path
           id="path3478"
           d="m 734.06411,761.74604 a 5.314961,5.314961 0 1 0 -10.62992,0 5.314961,5.314961 0 1 0 10.62992,0 z"
           style="fill:none;stroke:#000000;stroke-linecap:round"
           inkscape:connector-curvature="0" />
        <path
           id="path3480"
           d="m 734.06411,678.12399 a 5.314961,5.314961 0 1 0 -10.62992,0 5.314961,5.314961 0 1 0 10.62992,0 z"
           style="fill:none;stroke:#000000;stroke-linecap:round"
           inkscape:connector-curvature="0" />
        <path
           id="path3482"
           d="m 593.17314,678.12399 a 5.314961,5.314961 0 1 0 -10.62992,0 5.314961,5.314961 0 1 0 10.62992,0 z"
           style="fill:none;stroke:#000000;stroke-linecap:round"
           inkscape:connector-curvature="0" />
        <path
           id="path3484"
           d="m 593.17314,761.74604 a 5.314961,5.314961 0 1 0 -10.62992,0 5.314961,5.314961 0 1 0 10.62992,0 z"
           style="fill:none;stroke:#000000;stroke-linecap:round"
           inkscape:connector-curvature="0" />
      </g>
      <g
         id="g3486"
         inkscape:label="DEFAULT_1" />
      <g
         id="g3488"
         inkscape:label="DEFAULT_2" />
      <g
         id="g3490"
         inkscape:label="DEFAULT_3" />
      <g
         id="g3492"
         inkscape:label="01___PRT_ALL_DTM_PLN" />
      <g
         id="g3494"
         inkscape:label="01___PRT_DEF_DTM_PLN" />
      <g
         id="g3496"
         inkscape:label="02___PRT_ALL_AXES" />
      <g
         id="g3498"
         inkscape:label="03___PRT_ALL_CURVES" />
      <g
         id="g3500"
         inkscape:label="04___PRT_ALL_DTM_PNT" />
      <g
         id="g3502"
         inkscape:label="05___PRT_ALL_DTM_CSYS" />
      <g
         id="g3504"
         inkscape:label="05___PRT_DEF_DTM_CSYS" />
      <g
         id="g3506"
         inkscape:label="06___PRT_ALL_SURFS" />
      <g
         id="g3508"
         inkscape:label="AXES" />
      <g
         id="g3510"
         inkscape:label="CSYS" />
      <g
         id="g3512"
         inkscape:label="PLANES" />
      <g
         id="g3514"
         inkscape:label="WHITE" />
    </g>
  </g>
  <g
     inkscape:label="Layer 1"
     inkscape:groupmode="layer"
     id="layer1"
     transform="translate(0,0.01106215)">
    <text
       xml:space="preserve"
       style="font-size:14px;font-style:normal;font-variant:normal;font-weight:normal;font-stretch:normal;text-align:start;line-height:125%;letter-spacing:0px;word-spacing:0px;writing-mode:lr-tb;text-anchor:start;fill:#000000;fill-opacity:1;stroke:none;font-family:Calibri;-inkscape-font-specification:Calibri"
       x="610.48846"
       y="316.19736"
       id="text3626"
       sodipodi:linespacing="125%"><tspan
         sodipodi:role="line"
         id="tspan3772"
         x="610.48846"
         y="316.19736">CH 2</tspan></text>
    <text
       xml:space="preserve"
       style="font-size:14px;font-style:normal;font-variant:normal;font-weight:normal;font-stretch:normal;text-align:start;line-height:125%;letter-spacing:0px;word-spacing:0px;writing-mode:lr-tb;text-anchor:start;fill:#000000;fill-opacity:1;stroke:none;font-family:Calibri;-inkscape-font-specification:Calibri"
       x="715.51953"
       y="316.19736"
       id="text3630"
       sodipodi:linespacing="125%"><tspan
         sodipodi:role="line"
         id="tspan3774"
         x="715.51953"
         y="316.19736">CH 1</tspan></text>
    <text
       xml:space="preserve"
       style="font-size:14px;font-style:normal;font-variant:normal;font-weight:normal;font-stretch:normal;text-align:start;line-height:125%;letter-spacing:0px;word-spacing:0px;writing-mode:lr-tb;text-anchor:start;fill:#000000;fill-opacity:1;stroke:none;font-family:Calibri;-inkscape-font-specification:Calibri"
       x="818.97784"
       y="316.06747"
       id="text3634"
       sodipodi:linespacing="125%"><tspan
         sodipodi:role="line"
         id="tspan3776"
         x="818.97784"
         y="316.06747">CH 0</tspan></text>
    <text
       xml:space="preserve"
       style="font-size:14px;font-style:normal;font-variant:normal;font-weight:normal;font-stretch:normal;line-height:125%;letter-spacing:0px;word-spacing:0px;fill:#000000;fill-opacity:1;stroke:none;font-family:Calibri;-inkscape-font-specification:Calibri"
       x="632.72333"
       y="537.88452"
       id="text3638"
       sodipodi:linespacing="125%"><tspan
         sodipodi:role="line"
         id="tspan3640"
         x="632.72333"
         y="537.88452">CH 3</tspan></text>
    <text
       xml:space="preserve"
       style="font-size:14px;font-style:normal;font-variant:normal;font-weight:normal;font-stretch:normal;line-height:125%;letter-spacing:0px;word-spacing:0px;fill:#000000;fill-opacity:1;stroke:none;font-family:Calibri;-inkscape-font-specification:Calibri"
       x="686.8924"
       y="538.0144"
       id="text3642"
       sodipodi:linespacing="125%"><tspan
         sodipodi:role="line"
         id="tspan3644"
         x="686.8924"
         y="538.0144">CH 2</tspan></text>
    <text
       xml:space="preserve"
       style="font-size:14px;font-style:normal;font-variant:normal;font-weight:normal;font-stretch:normal;line-height:125%;letter-spacing:0px;word-spacing:0px;fill:#000000;fill-opacity:1;stroke:none;font-family:Calibri;-inkscape-font-specification:Calibri"
       x="740.91785"
       y="538.0144"
       id="text3646"
       sodipodi:linespacing="125%"><tspan
         sodipodi:role="line"
         id="tspan3648"
         x="740.91785"
         y="538.0144">CH 1 </tspan></text>
    <text
       xml:space="preserve"
       style="font-size:14px;font-style:normal;font-variant:normal;font-weight:normal;font-stretch:normal;line-height:125%;letter-spacing:0px;word-spacing:0px;fill:#000000;fill-opacity:1;stroke:none;font-family:Calibri;-inkscape-font-specification:Calibri"
       x="795.37061"
       y="537.88452"
       id="text3650"
       sodipodi:linespacing="125%"><tspan
         sodipodi:role="line"
         id="tspan3652"
         x="795.37061"
         y="537.88452">CH 0</tspan></text>
    <text
       xml:space="preserve"
       style="font-size:14px;font-style:normal;font-variant:normal;font-weight:normal;font-stretch:normal;text-align:start;line-height:125%;letter-spacing:0px;word-spacing:0px;writing-mode:lr-tb;text-anchor:start;fill:#000000;fill-opacity:1;stroke:none;font-family:Sans;-inkscape-font-specification:Sans"
       x="872.79657"
       y="528.26849"
       id="text4950"
       sodipodi:linespacing="125%"><tspan
         sodipodi:role="line"
         id="tspan4952"
         x="872.79657"
         y="528.26849">0</tspan></text>
    <text
       xml:space="preserve"
       style="font-size:14px;font-style:normal;font-variant:normal;font-weight:normal;font-stretch:normal;text-align:start;line-height:125%;letter-spacing:0px;word-spacing:0px;writing-mode:lr-tb;text-anchor:start;fill:#000000;fill-opacity:1;stroke:none;font-family:Sans;-inkscape-font-specification:Sans"
       x="871.44757"
       y="510.49683"
       id="text4954"
       sodipodi:linespacing="125%"><tspan
         sodipodi:role="line"
         id="tspan4956"
         x="871.44757"
         y="510.49683">1</tspan></text>
    <text
       xml:space="preserve"
       style="font-size:14px;font-style:normal;font-variant:normal;font-weight:normal;font-stretch:normal;text-align:start;line-height:125%;letter-spacing:0px;word-spacing:0px;writing-mode:lr-tb;text-anchor:start;fill:#000000;fill-opacity:1;stroke:none;font-family:Sans;-inkscape-font-specification:Sans"
       x="577.5556"
       y="510.42633"
       id="text4958"
       sodipodi:linespacing="125%"><tspan
         sodipodi:role="line"
         id="tspan4960"
         x="577.5556"
         y="510.42633">2</tspan></text>
    <text
       xml:space="preserve"
       style="font-size:14px;font-style:normal;font-variant:normal;font-weight:normal;font-stretch:normal;text-align:start;line-height:125%;letter-spacing:0px;word-spacing:0px;writing-mode:lr-tb;text-anchor:start;fill:#000000;fill-opacity:1;stroke:none;font-family:Sans;-inkscape-font-specification:Sans"
       x="577.32074"
       y="526.87256"
       id="text4962"
       sodipodi:linespacing="125%"><tspan
         sodipodi:role="line"
         id="tspan4964"
         x="577.32074"
         y="526.87256">3</tspan></text>
    <flowRoot
       xml:space="preserve"
       id="flowRoot3778"
       style="fill:black;stroke:none;stroke-opacity:1;stroke-width:1px;stroke-linejoin:miter;stroke-linecap:butt;fill-opacity:1;font-family:Sans;font-style:normal;font-weight:normal;font-size:14px;line-height:125%;letter-spacing:0px;word-spacing:0px;-inkscape-font-specification:Sans;font-stretch:normal;font-variant:normal;text-anchor:start;text-align:start;writing-mode:lr"><flowRegion
         id="flowRegion3780"><rect
           id="rect3782"
           width="195.60356"
           height="114.66415"
           x="638.74677"
           y="503.99774" /></flowRegion><flowPara
         id="flowPara3784" /></flowRoot>  </g>
</svg>
