999
DXF file: E:\Git\roach2_chassis_design\roach_2_manufacture\silkscreens\roach-2-chassis-back.dxf
999
Pro/ENGINEER 2010180 by Parametric Technology Corporation
  0
SECTION
  2
HEADER
  9
$ACADVER
  1
AC1021
  9
$DWGCODEPAGE
  3
ANSI_1252
  9
$EXTMAX
 10
594.0
 20
420.0
 30
0.0
  9
$EXTMIN
 10
0.0
 20
0.0
 30
0.0
  9
$LIMMIN
 10
0.0
 20
0.0
  9
$LIMMAX
 10
594.0
 20
420.0
  9
$VIEWCTR
 10
297.0
 20
210.0
  9
$VIEWSIZE
 40
420.0
  9
$CLAYER
  8
0
  9
$LTSCALE
 40
32.67
  9
$CELTYPE
  6
BYLAYER
  9
$DIMSCALE
 40
1.0
  9
$DIMASZ
 40
3.5
  9
$DIMEXO
 40
3.7125
  9
$DIMDLI
 40
22.572
  9
$DIMEXE
 40
10.692
  9
$DIMCEN
 40
5.346
  9
$DIMLFAC
 40
1.0
  9
$DIMBLK
  1
_FILLED
  9
$DIMTXT
 40
3.5
  9
$DIMTOL
 70
1
  9
$DIMLIM
 70
0
  9
$DIMTFAC
 40
1.0
  9
$DIMTP
 40
0.01
  9
$DIMTM
 40
0.01
  9
$PDMODE
 70
3
  9
$PDSIZE
 40
0.25
  9
$HANDSEED
  5
339
  9
$TILEMODE
 70
1
  9
$MEASUREMENT
 70
1
  9
$INSUNITS
 70
4
  0
ENDSEC
  0
SECTION
  2
CLASSES
  0
CLASS
  1
ACDBDICTIONARYWDFLT
  2
AcDbDictionaryWithDefault
  3
AutoCAD 2000
 90
0
 91
1
280
0
281
0
  0
CLASS
  1
ACDBPLACEHOLDER
  2
AcDbPlaceHolder
  3
AutoCAD 2000
 90
0
 91
1
280
0
281
0
  0
CLASS
  1
LAYOUT
  2
AcDbLayout
  3
AutoCAD 2000
 90
0
 91
0
280
0
281
0
  0
ENDSEC
  0
SECTION
  2
TABLES
  0
TABLE
  2
VPORT
  5
8
100
AcDbSymbolTable
 70
2
  0
VPORT
  5
1F4
100
AcDbSymbolTableRecord
100
AcDbViewportTableRecord
  2
*ACTIVE
 70
0
 10
0.0
 20
0.0
 11
1.0
 21
1.0
 12
297.0
 22
210.0
 13
0.0
 23
0.0
 14
1.0
 24
1.0
 15
0.0
 25
0.0
 16
0.0
 26
0.0
 36
1.0
 17
0.0
 27
0.0
 37
0.0
 40
420.0
 41
1.4142857143
 42
50.0
 43
0.0
 44
0.0
 50
0.0
 51
0.0
 71
0
 72
100
 73
1
 74
1
 75
0
 76
0
 77
0
 78
0
  0
ENDTAB
  0
TABLE
  2
LTYPE
  5
5
100
AcDbSymbolTable
 70
6
  0
LTYPE
  5
14
100
AcDbSymbolTableRecord
100
AcDbLinetypeTableRecord
  2
BYBLOCK
 70
0
  3

 72
65
 73
0
 40
0.0
  0
LTYPE
  5
15
100
AcDbSymbolTableRecord
100
AcDbLinetypeTableRecord
  2
BYLAYER
 70
0
  3

 72
65
 73
0
 40
0.0
  0
LTYPE
  5
16
100
AcDbSymbolTableRecord
100
AcDbLinetypeTableRecord
  2
CONTINUOUS
 70
64
  3
Solid line
 72
65
 73
0
 40
0.0
  0
LTYPE
  5
1F5
100
AcDbSymbolTableRecord
100
AcDbLinetypeTableRecord
  2
CENTER
 70
64
  3
____ _ ____ _ ____ _ ____ _ ____ _ ____ _ ____
 72
65
 73
4
 40
0.6
 49
0.375
 74
0
 49
-0.075
 74
0
 49
0.075
 74
0
 49
-0.075
 74
0
  0
LTYPE
  5
1F6
100
AcDbSymbolTableRecord
100
AcDbLinetypeTableRecord
  2
HIDDEN
 70
64
  3
- - - - - - - - - - - - - - - - - - - -
 72
65
 73
2
 40
0.2
 49
0.1
 74
0
 49
-0.1
 74
0
  0
LTYPE
  5
1F7
100
AcDbSymbolTableRecord
100
AcDbLinetypeTableRecord
  2
PHANTOM
 70
64
  3
_____ _ _ _____ _ _ _____ _ _ _____
 72
65
 73
6
 40
0.8
 49
0.45
 74
0
 49
-0.05
 74
0
 49
0.1
 74
0
 49
-0.05
 74
0
 49
0.1
 74
0
 49
-0.05
 74
0
  0
LTYPE
  5
1F8
100
AcDbSymbolTableRecord
100
AcDbLinetypeTableRecord
  2
DOT
 70
64
  3
. . . . . . . . . . . . . . . . . . . .
 72
65
 73
2
 40
0.2
 49
0.1
 74
0
 49
-0.1
 74
0
  0
LTYPE
  5
1F9
100
AcDbSymbolTableRecord
100
AcDbLinetypeTableRecord
  2
DASHED
 70
64
  3
- - - - - - - - - - - - - - - - - - - -
 72
65
 73
2
 40
0.2
 49
0.1
 74
0
 49
-0.1
 74
0
  0
ENDTAB
  0
TABLE
  2
LAYER
  5
2
100
AcDbSymbolTable
 70
36
  0
LAYER
  5
10
100
AcDbSymbolTableRecord
100
AcDbLayerTableRecord
  2
0
 70
0
 62
7
  6
CONTINUOUS
370
-3
390
F
  0
LAYER
  5
1FA
100
AcDbSymbolTableRecord
100
AcDbLayerTableRecord
  2
DEFAULT_1
 70
0
 62
7
  6
CENTER
370
-3
390
F
  0
LAYER
  5
1FB
100
AcDbSymbolTableRecord
100
AcDbLayerTableRecord
  2
DEFAULT_2
 70
0
 62
8
  6
HIDDEN
370
-3
390
F
  0
LAYER
  5
1FC
100
AcDbSymbolTableRecord
100
AcDbLayerTableRecord
  2
DEFAULT_3
 70
0
 62
7
  6
PHANTOM
370
-3
390
F
  0
LAYER
  5
1FD
100
AcDbSymbolTableRecord
100
AcDbLayerTableRecord
  2
01___PRT_ALL_DTM_PLN
 70
0
 62
7
  6
CONTINUOUS
370
-3
390
F
  0
LAYER
  5
1FE
100
AcDbSymbolTableRecord
100
AcDbLayerTableRecord
  2
01___PRT_DEF_DTM_PLN
 70
0
 62
7
  6
CONTINUOUS
370
-3
390
F
  0
LAYER
  5
1FF
100
AcDbSymbolTableRecord
100
AcDbLayerTableRecord
  2
02___PRT_ALL_AXES
 70
0
 62
7
  6
CONTINUOUS
370
-3
390
F
  0
LAYER
  5
200
100
AcDbSymbolTableRecord
100
AcDbLayerTableRecord
  2
03___PRT_ALL_CURVES
 70
0
 62
7
  6
CONTINUOUS
370
-3
390
F
  0
LAYER
  5
201
100
AcDbSymbolTableRecord
100
AcDbLayerTableRecord
  2
04___PRT_ALL_DTM_PNT
 70
0
 62
7
  6
CONTINUOUS
370
-3
390
F
  0
LAYER
  5
202
100
AcDbSymbolTableRecord
100
AcDbLayerTableRecord
  2
05___PRT_ALL_DTM_CSYS
 70
0
 62
7
  6
CONTINUOUS
370
-3
390
F
  0
LAYER
  5
203
100
AcDbSymbolTableRecord
100
AcDbLayerTableRecord
  2
05___PRT_DEF_DTM_CSYS
 70
0
 62
7
  6
CONTINUOUS
370
-3
390
F
  0
LAYER
  5
204
100
AcDbSymbolTableRecord
100
AcDbLayerTableRecord
  2
06___PRT_ALL_SURFS
 70
0
 62
7
  6
CONTINUOUS
370
-3
390
F
  0
LAYER
  5
205
100
AcDbSymbolTableRecord
100
AcDbLayerTableRecord
  2
AXES
 70
0
 62
7
  6
CONTINUOUS
370
-3
390
F
  0
LAYER
  5
206
100
AcDbSymbolTableRecord
100
AcDbLayerTableRecord
  2
CSYS
 70
0
 62
7
  6
CONTINUOUS
370
-3
390
F
  0
LAYER
  5
207
100
AcDbSymbolTableRecord
100
AcDbLayerTableRecord
  2
PLANES
 70
0
 62
7
  6
CONTINUOUS
370
-3
390
F
  0
LAYER
  5
208
100
AcDbSymbolTableRecord
100
AcDbLayerTableRecord
  2
WHITE
 70
0
 62
7
  6
CONTINUOUS
370
-3
390
F
  0
ENDTAB
  0
TABLE
  2
STYLE
  5
3
100
AcDbSymbolTable
 70
1
  0
STYLE
  5
11
100
AcDbSymbolTableRecord
100
AcDbTextStyleTableRecord
  2
STANDARD
 70
0
 40
0.0
 41
0.8
 50
0.0
 71
0
 42
0.2
  3
txt
  4

  0
STYLE
  5
209
100
AcDbSymbolTableRecord
100
AcDbTextStyleTableRecord
  2
TEXTSTYLE_1
 70
0
 40
0.0
 41
0.8
 50
0.0
 71
0
 42
0.2
  3
gdt
  4

  0
ENDTAB
  0
TABLE
  2
VIEW
  5
6
100
AcDbSymbolTable
 70
0
  0
ENDTAB
  0
TABLE
  2
UCS
  5
7
100
AcDbSymbolTable
 70
0
  0
ENDTAB
  0
TABLE
  2
APPID
  5
9
100
AcDbSymbolTable
 70
1
  0
APPID
  5
20A
100
AcDbSymbolTableRecord
100
AcDbRegAppTableRecord
  2
ACAD
 70
0
  0
ENDTAB
  0
TABLE
  2
BLOCK_RECORD
  5
1
100
AcDbSymbolTable
 70
0
  0
BLOCK_RECORD
  5
20B
100
AcDbSymbolTableRecord
100
AcDbBlockTableRecord
  2
*Model_Space
  0
BLOCK_RECORD
  5
20C
100
AcDbSymbolTableRecord
100
AcDbBlockTableRecord
  2
*Paper_Space
  0
ENDTAB
  0
TABLE
  2
DIMSTYLE
  5
A
100
AcDbSymbolTable
 70
1
100
AcDbDimStyleTable
 71
0
  0
DIMSTYLE
105
20D
100
AcDbSymbolTableRecord
100
AcDbDimStyleTableRecord
  2
STANDARD
 70
0
  3

  4

 40
1.0
 41
3.5
 42
0.0625
 43
0.38
 44
0.18
 45
0.0
 46
0.0
 47
0.01
 48
0.01
140
3.5
141
0.09
142
0.0
143
25.4
144
1.0
145
0.0
146
1.0
147
0.09
 71
1.0
 72
0.0
 73
0
 74
0
 75
0
 76
0
 77
1
 78
8
170
0
171
2
172
0
173
0
174
0
175
0
176
0
177
0
178
0
270
2
271
2
272
2
273
2
274
2
275
0
280
0
281
0
282
0
283
1
284
8
285
0
286
0
287
3
288
0
340
11
  0
ENDTAB
  0
ENDSEC
  0
SECTION
  2
BLOCKS
  0
BLOCK
  5
20
100
AcDbEntity
  8
0
100
AcDbBlockBegin
  2
*Model_Space
 70
0
 10
0.0
 20
0.0
 30
0.0
  3
*Model_Space
  1

  0
ENDBLK
  5
21
100
AcDbEntity
  8
0
100
AcDbBlockEnd
  0
BLOCK
  5
1C
100
AcDbEntity
  8
0
100
AcDbBlockBegin
  2
*Paper_Space
 70
0
 10
0.0
 20
0.0
 30
0.0
  3
*Paper_Space
  1

  0
ENDBLK
  5
1D
100
AcDbEntity
  8
0
100
AcDbBlockEnd
  0
ENDSEC
  0
SECTION
  2
ENTITIES
  0
LINE
  5
20E
100
AcDbEntity
  8
0
100
AcDbLine
 62
7
  6
CONTINUOUS
 10
0.0
 20
0.0
 11
0.0
 21
420.0
  0
LINE
  5
20F
100
AcDbEntity
  8
0
100
AcDbLine
 62
7
  6
CONTINUOUS
 10
0.0
 20
0.0
 11
594.0
 21
0.0
  0
LINE
  5
210
100
AcDbEntity
  8
0
100
AcDbLine
 62
7
  6
CONTINUOUS
 10
0.0
 20
420.0
 11
594.0
 21
420.0
  0
LINE
  5
211
100
AcDbEntity
  8
0
100
AcDbLine
 62
7
  6
CONTINUOUS
 10
594.0
 20
0.0
 11
594.0
 21
420.0
  0
LINE
  5
212
100
AcDbEntity
  8
0
100
AcDbLine
 62
3
  6
CONTINUOUS
 10
66.4022321429
 20
197.9471142857
 11
66.4022321429
 21
238.3250921343
  0
LINE
  5
213
100
AcDbEntity
  8
0
100
AcDbLine
 62
3
  6
CONTINUOUS
 10
67.9762321429
 20
197.9471142857
 11
67.9762321429
 21
238.3250921343
  0
LINE
  5
214
100
AcDbEntity
  8
AXES
100
AcDbLine
 62
3
  6
CONTINUOUS
 10
78.1522321429
 20
209.9107142857
 11
78.1522321429
 21
225.7107142857
  0
LINE
  5
215
100
AcDbEntity
  8
AXES
100
AcDbLine
 62
3
  6
CONTINUOUS
 10
106.4522321429
 20
225.7107142857
 11
106.4522321429
 21
209.9107142857
  0
LINE
  5
216
100
AcDbEntity
  8
0
100
AcDbLine
 62
3
  6
CONTINUOUS
 10
194.1166702229
 20
204.1475496857
 11
194.1166702229
 21
215.2475496857
  0
LINE
  5
217
100
AcDbEntity
  8
0
100
AcDbLine
 62
7
  6
CONTINUOUS
 10
194.3632321429
 20
215.2475496857
 11
194.3632321429
 21
214.2517142857
  0
LINE
  5
218
100
AcDbEntity
  8
0
100
AcDbLine
 62
7
  6
CONTINUOUS
 10
194.3632321429
 20
211.8917142857
 11
194.3632321429
 21
206.8117142857
  0
LINE
  5
219
100
AcDbEntity
  8
0
100
AcDbLine
 62
7
  6
CONTINUOUS
 10
194.3632321429
 20
204.4517142857
 11
194.3632321429
 21
204.1475496857
  0
LINE
  5
21A
100
AcDbEntity
  8
0
100
AcDbLine
 62
7
  6
CONTINUOUS
 10
199.4432321429
 20
204.1475496857
 11
199.4432321429
 21
204.4517142857
  0
LINE
  5
21B
100
AcDbEntity
  8
0
100
AcDbLine
 62
7
  6
CONTINUOUS
 10
199.4432321429
 20
206.8117142857
 11
199.4432321429
 21
211.8917142857
  0
LINE
  5
21C
100
AcDbEntity
  8
0
100
AcDbLine
 62
7
  6
CONTINUOUS
 10
199.4432321429
 20
214.2517142857
 11
199.4432321429
 21
215.2475496857
  0
LINE
  5
21D
100
AcDbEntity
  8
0
100
AcDbLine
 62
7
  6
CONTINUOUS
 10
201.8032321429
 20
215.2475496857
 11
201.8032321429
 21
214.2517142857
  0
LINE
  5
21E
100
AcDbEntity
  8
0
100
AcDbLine
 62
7
  6
CONTINUOUS
 10
201.8032321429
 20
211.8917142857
 11
201.8032321429
 21
206.8117142857
  0
LINE
  5
21F
100
AcDbEntity
  8
0
100
AcDbLine
 62
7
  6
CONTINUOUS
 10
201.8032321429
 20
204.4517142857
 11
201.8032321429
 21
204.1475496857
  0
LINE
  5
220
100
AcDbEntity
  8
0
100
AcDbLine
 62
3
  6
CONTINUOUS
 10
206.3666702229
 20
215.2475496857
 11
206.3666702229
 21
204.1475496857
  0
LINE
  5
221
100
AcDbEntity
  8
0
100
AcDbLine
 62
3
  6
CONTINUOUS
 10
210.7148329229
 20
204.6850496857
 11
210.7148329229
 21
218.8850496857
  0
LINE
  5
222
100
AcDbEntity
  8
0
100
AcDbLine
 62
7
  6
CONTINUOUS
 10
214.3232321429
 20
206.8117142857
 11
214.3232321429
 21
211.8917142857
  0
LINE
  5
223
100
AcDbEntity
  8
0
100
AcDbLine
 62
7
  6
CONTINUOUS
 10
214.3232321429
 20
214.2517142857
 11
214.3232321429
 21
218.8850496857
  0
LINE
  5
224
100
AcDbEntity
  8
0
100
AcDbLine
 62
3
  6
CONTINUOUS
 10
217.3148329229
 20
218.8850496857
 11
217.3148329229
 21
204.6850496857
  0
LINE
  5
225
100
AcDbEntity
  8
0
100
AcDbLine
 62
3
  6
CONTINUOUS
 10
221.8552328029
 20
203.6850486857
 11
221.8552328029
 21
218.1850486857
  0
LINE
  5
226
100
AcDbEntity
  8
0
100
AcDbLine
 62
7
  6
CONTINUOUS
 10
224.4832321429
 20
218.1850486857
 11
224.4832321429
 21
214.2517142857
  0
LINE
  5
227
100
AcDbEntity
  8
0
100
AcDbLine
 62
7
  6
CONTINUOUS
 10
224.4832321429
 20
211.8917142857
 11
224.4832321429
 21
206.8117142857
  0
LINE
  5
228
100
AcDbEntity
  8
0
100
AcDbLine
 62
7
  6
CONTINUOUS
 10
229.5632321429
 20
206.8117142857
 11
229.5632321429
 21
211.8917142857
  0
LINE
  5
229
100
AcDbEntity
  8
0
100
AcDbLine
 62
7
  6
CONTINUOUS
 10
229.5632321429
 20
214.2517142857
 11
229.5632321429
 21
218.1850486857
  0
LINE
  5
22A
100
AcDbEntity
  8
0
100
AcDbLine
 62
7
  6
CONTINUOUS
 10
231.9232321429
 20
218.1850486857
 11
231.9232321429
 21
214.2517142857
  0
LINE
  5
22B
100
AcDbEntity
  8
0
100
AcDbLine
 62
7
  6
CONTINUOUS
 10
231.9232321429
 20
211.8917142857
 11
231.9232321429
 21
206.8117142857
  0
LINE
  5
22C
100
AcDbEntity
  8
0
100
AcDbLine
 62
7
  6
CONTINUOUS
 10
231.9232321429
 20
204.4517142857
 11
231.9232321429
 21
203.6850486857
  0
LINE
  5
22D
100
AcDbEntity
  8
0
100
AcDbLine
 62
7
  6
CONTINUOUS
 10
237.0032321429
 20
203.6850486857
 11
237.0032321429
 21
204.4517142857
  0
LINE
  5
22E
100
AcDbEntity
  8
0
100
AcDbLine
 62
7
  6
CONTINUOUS
 10
237.0032321429
 20
206.8117142857
 11
237.0032321429
 21
211.8917142857
  0
LINE
  5
22F
100
AcDbEntity
  8
0
100
AcDbLine
 62
7
  6
CONTINUOUS
 10
237.0032321429
 20
214.2517142857
 11
237.0032321429
 21
218.1850486857
  0
LINE
  5
230
100
AcDbEntity
  8
0
100
AcDbLine
 62
3
  6
CONTINUOUS
 10
238.7302328029
 20
218.1850486857
 11
238.7302328029
 21
203.6850486857
  0
LINE
  5
231
100
AcDbEntity
  8
0
100
AcDbLine
 62
3
  6
CONTINUOUS
 10
244.9184328029
 20
203.6850486857
 11
244.9184328029
 21
218.1850486857
  0
LINE
  5
232
100
AcDbEntity
  8
0
100
AcDbLine
 62
7
  6
CONTINUOUS
 10
246.8032321429
 20
218.1850486857
 11
246.8032321429
 21
214.2517142857
  0
LINE
  5
233
100
AcDbEntity
  8
0
100
AcDbLine
 62
7
  6
CONTINUOUS
 10
246.8032321429
 20
211.8917142857
 11
246.8032321429
 21
206.8117142857
  0
LINE
  5
234
100
AcDbEntity
  8
0
100
AcDbLine
 62
7
  6
CONTINUOUS
 10
246.8032321429
 20
204.4517142857
 11
246.8032321429
 21
203.6850486857
  0
LINE
  5
235
100
AcDbEntity
  8
0
100
AcDbLine
 62
7
  6
CONTINUOUS
 10
251.8832321429
 20
203.6850486857
 11
251.8832321429
 21
204.4517142857
  0
LINE
  5
236
100
AcDbEntity
  8
0
100
AcDbLine
 62
7
  6
CONTINUOUS
 10
251.8832321429
 20
206.8117142857
 11
251.8832321429
 21
211.8917142857
  0
LINE
  5
237
100
AcDbEntity
  8
0
100
AcDbLine
 62
7
  6
CONTINUOUS
 10
251.8832321429
 20
214.2517142857
 11
251.8832321429
 21
218.1850486857
  0
LINE
  5
238
100
AcDbEntity
  8
0
100
AcDbLine
 62
7
  6
CONTINUOUS
 10
254.2432321429
 20
218.1850486857
 11
254.2432321429
 21
214.2517142857
  0
LINE
  5
239
100
AcDbEntity
  8
0
100
AcDbLine
 62
7
  6
CONTINUOUS
 10
254.2432321429
 20
211.8917142857
 11
254.2432321429
 21
206.8117142857
  0
LINE
  5
23A
100
AcDbEntity
  8
0
100
AcDbLine
 62
7
  6
CONTINUOUS
 10
259.3232321429
 20
206.8117142857
 11
259.3232321429
 21
211.8917142857
  0
LINE
  5
23B
100
AcDbEntity
  8
0
100
AcDbLine
 62
7
  6
CONTINUOUS
 10
259.3232321429
 20
214.2517142857
 11
259.3232321429
 21
218.1850486857
  0
LINE
  5
23C
100
AcDbEntity
  8
0
100
AcDbLine
 62
3
  6
CONTINUOUS
 10
261.7934328029
 20
218.1850486857
 11
261.7934328029
 21
203.6850486857
  0
LINE
  5
23D
100
AcDbEntity
  8
0
100
AcDbLine
 62
3
  6
CONTINUOUS
 10
68.7636321429
 20
195.5857142857
 11
492.0408321429
 21
195.5857142857
  0
LINE
  5
23E
100
AcDbEntity
  8
0
100
AcDbLine
 62
7
  6
CONTINUOUS
 10
67.9762321429
 20
197.9471142857
 11
66.4022321429
 21
197.9471142857
  0
LINE
  5
23F
100
AcDbEntity
  8
0
100
AcDbLine
 62
7
  6
CONTINUOUS
 10
492.8282321429
 20
197.9471142857
 11
494.4022321429
 21
197.9471142857
  0
LINE
  5
240
100
AcDbEntity
  8
0
100
AcDbLine
 62
3
  6
CONTINUOUS
 10
489.3782321429
 20
200.3877142857
 11
484.2982321429
 21
200.3877142857
  0
LINE
  5
241
100
AcDbEntity
  8
0
100
AcDbLine
 62
3
  6
CONTINUOUS
 10
481.9372321429
 20
200.3877142857
 11
476.8572321429
 21
200.3877142857
  0
LINE
  5
242
100
AcDbEntity
  8
0
100
AcDbLine
 62
3
  6
CONTINUOUS
 10
474.4962321429
 20
200.3877142857
 11
469.4162321429
 21
200.3877142857
  0
LINE
  5
243
100
AcDbEntity
  8
0
100
AcDbLine
 62
3
  6
CONTINUOUS
 10
467.0552321429
 20
200.3877142857
 11
461.9752321429
 21
200.3877142857
  0
LINE
  5
244
100
AcDbEntity
  8
0
100
AcDbLine
 62
3
  6
CONTINUOUS
 10
459.6142321429
 20
200.3877142857
 11
454.5342321429
 21
200.3877142857
  0
LINE
  5
245
100
AcDbEntity
  8
0
100
AcDbLine
 62
3
  6
CONTINUOUS
 10
261.7934328029
 20
203.6850486857
 11
244.9184328029
 21
203.6850486857
  0
LINE
  5
246
100
AcDbEntity
  8
0
100
AcDbLine
 62
3
  6
CONTINUOUS
 10
238.7302328029
 20
203.6850486857
 11
221.8552328029
 21
203.6850486857
  0
LINE
  5
247
100
AcDbEntity
  8
0
100
AcDbLine
 62
3
  6
CONTINUOUS
 10
206.3666702229
 20
204.1475496857
 11
194.1166702229
 21
204.1475496857
  0
LINE
  5
248
100
AcDbEntity
  8
0
100
AcDbLine
 62
7
  6
CONTINUOUS
 10
467.0552321429
 20
204.4517142857
 11
462.8032321429
 21
204.4517142857
  0
LINE
  5
249
100
AcDbEntity
  8
0
100
AcDbLine
 62
7
  6
CONTINUOUS
 10
459.6142321429
 20
204.4517142857
 11
455.3632321429
 21
204.4517142857
  0
LINE
  5
24A
100
AcDbEntity
  8
0
100
AcDbLine
 62
7
  6
CONTINUOUS
 10
251.8832321429
 20
204.4517142857
 11
246.8032321429
 21
204.4517142857
  0
LINE
  5
24B
100
AcDbEntity
  8
0
100
AcDbLine
 62
7
  6
CONTINUOUS
 10
237.0032321429
 20
204.4517142857
 11
231.9232321429
 21
204.4517142857
  0
LINE
  5
24C
100
AcDbEntity
  8
0
100
AcDbLine
 62
7
  6
CONTINUOUS
 10
206.3666702229
 20
204.4517142857
 11
201.8032321429
 21
204.4517142857
  0
LINE
  5
24D
100
AcDbEntity
  8
0
100
AcDbLine
 62
7
  6
CONTINUOUS
 10
199.4432321429
 20
204.4517142857
 11
194.3632321429
 21
204.4517142857
  0
LINE
  5
24E
100
AcDbEntity
  8
0
100
AcDbLine
 62
3
  6
CONTINUOUS
 10
217.3148329229
 20
204.6850496857
 11
210.7148329229
 21
204.6850496857
  0
LINE
  5
24F
100
AcDbEntity
  8
0
100
AcDbLine
 62
3
  6
CONTINUOUS
 10
269.9972321429
 20
213.2557142857
 11
269.9972321429
 21
227.2557142857
  0
LINE
  5
250
100
AcDbEntity
  8
0
100
AcDbLine
 62
3
  6
CONTINUOUS
 10
454.5342321429
 20
205.4677142857
 11
459.6142321429
 21
205.4677142857
  0
LINE
  5
251
100
AcDbEntity
  8
0
100
AcDbLine
 62
3
  6
CONTINUOUS
 10
461.9752321429
 20
205.4677142857
 11
467.0552321429
 21
205.4677142857
  0
LINE
  5
252
100
AcDbEntity
  8
0
100
AcDbLine
 62
3
  6
CONTINUOUS
 10
469.4162321429
 20
205.4677142857
 11
474.4962321429
 21
205.4677142857
  0
LINE
  5
253
100
AcDbEntity
  8
0
100
AcDbLine
 62
3
  6
CONTINUOUS
 10
476.8572321429
 20
205.4677142857
 11
481.9372321429
 21
205.4677142857
  0
LINE
  5
254
100
AcDbEntity
  8
0
100
AcDbLine
 62
3
  6
CONTINUOUS
 10
484.2982321429
 20
205.4677142857
 11
489.3782321429
 21
205.4677142857
  0
LINE
  5
255
100
AcDbEntity
  8
0
100
AcDbLine
 62
7
  6
CONTINUOUS
 10
194.3632321429
 20
206.8117142857
 11
199.4432321429
 21
206.8117142857
  0
LINE
  5
256
100
AcDbEntity
  8
0
100
AcDbLine
 62
7
  6
CONTINUOUS
 10
201.8032321429
 20
206.8117142857
 11
206.3666702229
 21
206.8117142857
  0
LINE
  5
257
100
AcDbEntity
  8
0
100
AcDbLine
 62
7
  6
CONTINUOUS
 10
210.7148329229
 20
206.8117142857
 11
214.3232321429
 21
206.8117142857
  0
LINE
  5
258
100
AcDbEntity
  8
0
100
AcDbLine
 62
7
  6
CONTINUOUS
 10
224.4832321429
 20
206.8117142857
 11
229.5632321429
 21
206.8117142857
  0
LINE
  5
259
100
AcDbEntity
  8
0
100
AcDbLine
 62
7
  6
CONTINUOUS
 10
231.9232321429
 20
206.8117142857
 11
237.0032321429
 21
206.8117142857
  0
LINE
  5
25A
100
AcDbEntity
  8
0
100
AcDbLine
 62
7
  6
CONTINUOUS
 10
246.8032321429
 20
206.8117142857
 11
251.8832321429
 21
206.8117142857
  0
LINE
  5
25B
100
AcDbEntity
  8
0
100
AcDbLine
 62
7
  6
CONTINUOUS
 10
254.2432321429
 20
206.8117142857
 11
259.3232321429
 21
206.8117142857
  0
LINE
  5
25C
100
AcDbEntity
  8
0
100
AcDbLine
 62
7
  6
CONTINUOUS
 10
444.2503816007
 20
206.8117142857
 11
445.5632321429
 21
206.8117142857
  0
LINE
  5
25D
100
AcDbEntity
  8
AXES
100
AcDbLine
 62
3
  6
CONTINUOUS
 10
103.9522321429
 20
207.4107142857
 11
80.6522321429
 21
207.4107142857
  0
LINE
  5
25E
100
AcDbEntity
  8
0
100
AcDbLine
 62
3
  6
CONTINUOUS
 10
489.3782321429
 20
207.8287142857
 11
484.2982321429
 21
207.8287142857
  0
LINE
  5
25F
100
AcDbEntity
  8
0
100
AcDbLine
 62
3
  6
CONTINUOUS
 10
481.9372321429
 20
207.8287142857
 11
476.8572321429
 21
207.8287142857
  0
LINE
  5
260
100
AcDbEntity
  8
0
100
AcDbLine
 62
3
  6
CONTINUOUS
 10
474.4962321429
 20
207.8287142857
 11
469.4162321429
 21
207.8287142857
  0
LINE
  5
261
100
AcDbEntity
  8
0
100
AcDbLine
 62
3
  6
CONTINUOUS
 10
467.0552321429
 20
207.8287142857
 11
461.9752321429
 21
207.8287142857
  0
LINE
  5
262
100
AcDbEntity
  8
0
100
AcDbLine
 62
3
  6
CONTINUOUS
 10
459.6142321429
 20
207.8287142857
 11
454.5342321429
 21
207.8287142857
  0
LINE
  5
263
100
AcDbEntity
  8
0
100
AcDbLine
 62
7
  6
CONTINUOUS
 10
474.4962321429
 20
211.8917142857
 11
470.2432321429
 21
211.8917142857
  0
LINE
  5
264
100
AcDbEntity
  8
0
100
AcDbLine
 62
7
  6
CONTINUOUS
 10
467.0552321429
 20
211.8917142857
 11
462.8032321429
 21
211.8917142857
  0
LINE
  5
265
100
AcDbEntity
  8
0
100
AcDbLine
 62
7
  6
CONTINUOUS
 10
459.6142321429
 20
211.8917142857
 11
455.3632321429
 21
211.8917142857
  0
LINE
  5
266
100
AcDbEntity
  8
0
100
AcDbLine
 62
7
  6
CONTINUOUS
 10
259.3232321429
 20
211.8917142857
 11
254.2432321429
 21
211.8917142857
  0
LINE
  5
267
100
AcDbEntity
  8
0
100
AcDbLine
 62
7
  6
CONTINUOUS
 10
251.8832321429
 20
211.8917142857
 11
246.8032321429
 21
211.8917142857
  0
LINE
  5
268
100
AcDbEntity
  8
0
100
AcDbLine
 62
7
  6
CONTINUOUS
 10
237.0032321429
 20
211.8917142857
 11
231.9232321429
 21
211.8917142857
  0
LINE
  5
269
100
AcDbEntity
  8
0
100
AcDbLine
 62
7
  6
CONTINUOUS
 10
229.5632321429
 20
211.8917142857
 11
224.4832321429
 21
211.8917142857
  0
LINE
  5
26A
100
AcDbEntity
  8
0
100
AcDbLine
 62
7
  6
CONTINUOUS
 10
214.3232321429
 20
211.8917142857
 11
210.7148329229
 21
211.8917142857
  0
LINE
  5
26B
100
AcDbEntity
  8
0
100
AcDbLine
 62
7
  6
CONTINUOUS
 10
206.3666702229
 20
211.8917142857
 11
201.8032321429
 21
211.8917142857
  0
LINE
  5
26C
100
AcDbEntity
  8
0
100
AcDbLine
 62
7
  6
CONTINUOUS
 10
199.4432321429
 20
211.8917142857
 11
194.3632321429
 21
211.8917142857
  0
LINE
  5
26D
100
AcDbEntity
  8
0
100
AcDbLine
 62
3
  6
CONTINUOUS
 10
454.5342321429
 20
212.9087142857
 11
459.6142321429
 21
212.9087142857
  0
LINE
  5
26E
100
AcDbEntity
  8
0
100
AcDbLine
 62
3
  6
CONTINUOUS
 10
461.9752321429
 20
212.9087142857
 11
467.0552321429
 21
212.9087142857
  0
LINE
  5
26F
100
AcDbEntity
  8
0
100
AcDbLine
 62
3
  6
CONTINUOUS
 10
469.4162321429
 20
212.9087142857
 11
474.4962321429
 21
212.9087142857
  0
LINE
  5
270
100
AcDbEntity
  8
0
100
AcDbLine
 62
3
  6
CONTINUOUS
 10
476.8572321429
 20
212.9087142857
 11
481.9372321429
 21
212.9087142857
  0
LINE
  5
271
100
AcDbEntity
  8
0
100
AcDbLine
 62
3
  6
CONTINUOUS
 10
484.2982321429
 20
212.9087142857
 11
489.3782321429
 21
212.9087142857
  0
LINE
  5
272
100
AcDbEntity
  8
0
100
AcDbLine
 62
3
  6
CONTINUOUS
 10
447.9972321429
 20
213.2557142857
 11
363.4721028029
 21
213.2557142857
  0
LINE
  5
273
100
AcDbEntity
  8
0
100
AcDbLine
 62
3
  6
CONTINUOUS
 10
354.5272321429
 20
213.2557142857
 11
269.9972321429
 21
213.2557142857
  0
LINE
  5
274
100
AcDbEntity
  8
0
100
AcDbLine
 62
7
  6
CONTINUOUS
 10
194.3632321429
 20
214.2517142857
 11
199.4432321429
 21
214.2517142857
  0
LINE
  5
275
100
AcDbEntity
  8
0
100
AcDbLine
 62
7
  6
CONTINUOUS
 10
201.8032321429
 20
214.2517142857
 11
206.3666702229
 21
214.2517142857
  0
LINE
  5
276
100
AcDbEntity
  8
0
100
AcDbLine
 62
7
  6
CONTINUOUS
 10
210.7148329229
 20
214.2517142857
 11
214.3232321429
 21
214.2517142857
  0
LINE
  5
277
100
AcDbEntity
  8
0
100
AcDbLine
 62
7
  6
CONTINUOUS
 10
224.4832321429
 20
214.2517142857
 11
229.5632321429
 21
214.2517142857
  0
LINE
  5
278
100
AcDbEntity
  8
0
100
AcDbLine
 62
7
  6
CONTINUOUS
 10
231.9232321429
 20
214.2517142857
 11
237.0032321429
 21
214.2517142857
  0
LINE
  5
279
100
AcDbEntity
  8
0
100
AcDbLine
 62
7
  6
CONTINUOUS
 10
246.8032321429
 20
214.2517142857
 11
251.8832321429
 21
214.2517142857
  0
LINE
  5
27A
100
AcDbEntity
  8
0
100
AcDbLine
 62
7
  6
CONTINUOUS
 10
254.2432321429
 20
214.2517142857
 11
259.3232321429
 21
214.2517142857
  0
LINE
  5
27B
100
AcDbEntity
  8
0
100
AcDbLine
 62
7
  6
CONTINUOUS
 10
440.4832321429
 20
214.2517142857
 11
445.5632321429
 21
214.2517142857
  0
LINE
  5
27C
100
AcDbEntity
  8
0
100
AcDbLine
 62
3
  6
CONTINUOUS
 10
194.1166702229
 20
215.2475496857
 11
206.3666702229
 21
215.2475496857
  0
LINE
  5
27D
100
AcDbEntity
  8
0
100
AcDbLine
 62
3
  6
CONTINUOUS
 10
489.3782321429
 20
215.2697142857
 11
484.2982321429
 21
215.2697142857
  0
LINE
  5
27E
100
AcDbEntity
  8
0
100
AcDbLine
 62
3
  6
CONTINUOUS
 10
481.9372321429
 20
215.2697142857
 11
476.8572321429
 21
215.2697142857
  0
LINE
  5
27F
100
AcDbEntity
  8
0
100
AcDbLine
 62
3
  6
CONTINUOUS
 10
474.4962321429
 20
215.2697142857
 11
469.4162321429
 21
215.2697142857
  0
LINE
  5
280
100
AcDbEntity
  8
0
100
AcDbLine
 62
3
  6
CONTINUOUS
 10
467.0552321429
 20
215.2697142857
 11
461.9752321429
 21
215.2697142857
  0
LINE
  5
281
100
AcDbEntity
  8
0
100
AcDbLine
 62
3
  6
CONTINUOUS
 10
459.6142321429
 20
215.2697142857
 11
454.5342321429
 21
215.2697142857
  0
LINE
  5
282
100
AcDbEntity
  8
0
100
AcDbLine
 62
3
  6
CONTINUOUS
 10
221.8552328029
 20
218.1850486857
 11
238.7302328029
 21
218.1850486857
  0
LINE
  5
283
100
AcDbEntity
  8
0
100
AcDbLine
 62
3
  6
CONTINUOUS
 10
244.9184328029
 20
218.1850486857
 11
261.7934328029
 21
218.1850486857
  0
LINE
  5
284
100
AcDbEntity
  8
0
100
AcDbLine
 62
3
  6
CONTINUOUS
 10
210.7148329229
 20
218.8850496857
 11
217.3148329229
 21
218.8850496857
  0
LINE
  5
285
100
AcDbEntity
  8
0
100
AcDbLine
 62
7
  6
CONTINUOUS
 10
474.4962321429
 20
219.3317142857
 11
470.2432321429
 21
219.3317142857
  0
LINE
  5
286
100
AcDbEntity
  8
0
100
AcDbLine
 62
7
  6
CONTINUOUS
 10
467.0552321429
 20
219.3317142857
 11
462.8032321429
 21
219.3317142857
  0
LINE
  5
287
100
AcDbEntity
  8
0
100
AcDbLine
 62
7
  6
CONTINUOUS
 10
459.6142321429
 20
219.3317142857
 11
455.3632321429
 21
219.3317142857
  0
LINE
  5
288
100
AcDbEntity
  8
0
100
AcDbLine
 62
7
  6
CONTINUOUS
 10
445.5632321429
 20
219.3317142857
 11
440.4832321429
 21
219.3317142857
  0
LINE
  5
289
100
AcDbEntity
  8
0
100
AcDbLine
 62
3
  6
CONTINUOUS
 10
454.5342321429
 20
220.3497142857
 11
459.6142321429
 21
220.3497142857
  0
LINE
  5
28A
100
AcDbEntity
  8
0
100
AcDbLine
 62
3
  6
CONTINUOUS
 10
461.9752321429
 20
220.3497142857
 11
467.0552321429
 21
220.3497142857
  0
LINE
  5
28B
100
AcDbEntity
  8
0
100
AcDbLine
 62
3
  6
CONTINUOUS
 10
469.4162321429
 20
220.3497142857
 11
474.4962321429
 21
220.3497142857
  0
LINE
  5
28C
100
AcDbEntity
  8
0
100
AcDbLine
 62
3
  6
CONTINUOUS
 10
476.8572321429
 20
220.3497142857
 11
481.9372321429
 21
220.3497142857
  0
LINE
  5
28D
100
AcDbEntity
  8
0
100
AcDbLine
 62
3
  6
CONTINUOUS
 10
484.2982321429
 20
220.3497142857
 11
489.3782321429
 21
220.3497142857
  0
LINE
  5
28E
100
AcDbEntity
  8
0
100
AcDbLine
 62
7
  6
CONTINUOUS
 10
440.4832321429
 20
221.6917142857
 11
445.5632321429
 21
221.6917142857
  0
LINE
  5
28F
100
AcDbEntity
  8
0
100
AcDbLine
 62
3
  6
CONTINUOUS
 10
489.3782321429
 20
222.7107142857
 11
484.2982321429
 21
222.7107142857
  0
LINE
  5
290
100
AcDbEntity
  8
0
100
AcDbLine
 62
3
  6
CONTINUOUS
 10
481.9372321429
 20
222.7107142857
 11
476.8572321429
 21
222.7107142857
  0
LINE
  5
291
100
AcDbEntity
  8
0
100
AcDbLine
 62
3
  6
CONTINUOUS
 10
474.4962321429
 20
222.7107142857
 11
469.4162321429
 21
222.7107142857
  0
LINE
  5
292
100
AcDbEntity
  8
0
100
AcDbLine
 62
3
  6
CONTINUOUS
 10
467.0552321429
 20
222.7107142857
 11
461.9752321429
 21
222.7107142857
  0
LINE
  5
293
100
AcDbEntity
  8
0
100
AcDbLine
 62
3
  6
CONTINUOUS
 10
459.6142321429
 20
222.7107142857
 11
454.5342321429
 21
222.7107142857
  0
LINE
  5
294
100
AcDbEntity
  8
0
100
AcDbLine
 62
7
  6
CONTINUOUS
 10
474.4962321429
 20
226.7717142857
 11
470.2432321429
 21
226.7717142857
  0
LINE
  5
295
100
AcDbEntity
  8
0
100
AcDbLine
 62
7
  6
CONTINUOUS
 10
467.0552321429
 20
226.7717142857
 11
462.8032321429
 21
226.7717142857
  0
LINE
  5
296
100
AcDbEntity
  8
0
100
AcDbLine
 62
7
  6
CONTINUOUS
 10
459.6142321429
 20
226.7717142857
 11
455.3632321429
 21
226.7717142857
  0
LINE
  5
297
100
AcDbEntity
  8
0
100
AcDbLine
 62
7
  6
CONTINUOUS
 10
445.5632321429
 20
226.7717142857
 11
440.4832321429
 21
226.7717142857
  0
LINE
  5
298
100
AcDbEntity
  8
0
100
AcDbLine
 62
3
  6
CONTINUOUS
 10
269.9972321429
 20
227.2557142857
 11
354.5272321429
 21
227.2557142857
  0
LINE
  5
299
100
AcDbEntity
  8
0
100
AcDbLine
 62
3
  6
CONTINUOUS
 10
363.4721028029
 20
227.2557142857
 11
447.9972321429
 21
227.2557142857
  0
LINE
  5
29A
100
AcDbEntity
  8
0
100
AcDbLine
 62
3
  6
CONTINUOUS
 10
454.5342321429
 20
227.7907142857
 11
459.6142321429
 21
227.7907142857
  0
LINE
  5
29B
100
AcDbEntity
  8
0
100
AcDbLine
 62
3
  6
CONTINUOUS
 10
461.9752321429
 20
227.7907142857
 11
467.0552321429
 21
227.7907142857
  0
LINE
  5
29C
100
AcDbEntity
  8
0
100
AcDbLine
 62
3
  6
CONTINUOUS
 10
469.4162321429
 20
227.7907142857
 11
474.4962321429
 21
227.7907142857
  0
LINE
  5
29D
100
AcDbEntity
  8
0
100
AcDbLine
 62
3
  6
CONTINUOUS
 10
476.8572321429
 20
227.7907142857
 11
481.9372321429
 21
227.7907142857
  0
LINE
  5
29E
100
AcDbEntity
  8
0
100
AcDbLine
 62
3
  6
CONTINUOUS
 10
484.2982321429
 20
227.7907142857
 11
489.3782321429
 21
227.7907142857
  0
LINE
  5
29F
100
AcDbEntity
  8
AXES
100
AcDbLine
 62
3
  6
CONTINUOUS
 10
80.6522321429
 20
228.2107142857
 11
103.9522321429
 21
228.2107142857
  0
LINE
  5
2A0
100
AcDbEntity
  8
0
100
AcDbLine
 62
3
  6
CONTINUOUS
 10
489.3782321429
 20
230.1517142857
 11
484.2982321429
 21
230.1517142857
  0
LINE
  5
2A1
100
AcDbEntity
  8
0
100
AcDbLine
 62
3
  6
CONTINUOUS
 10
481.9372321429
 20
230.1517142857
 11
476.8572321429
 21
230.1517142857
  0
LINE
  5
2A2
100
AcDbEntity
  8
0
100
AcDbLine
 62
3
  6
CONTINUOUS
 10
474.4962321429
 20
230.1517142857
 11
469.4162321429
 21
230.1517142857
  0
LINE
  5
2A3
100
AcDbEntity
  8
0
100
AcDbLine
 62
3
  6
CONTINUOUS
 10
467.0552321429
 20
230.1517142857
 11
461.9752321429
 21
230.1517142857
  0
LINE
  5
2A4
100
AcDbEntity
  8
0
100
AcDbLine
 62
3
  6
CONTINUOUS
 10
459.6142321429
 20
230.1517142857
 11
454.5342321429
 21
230.1517142857
  0
LINE
  5
2A5
100
AcDbEntity
  8
0
100
AcDbLine
 62
7
  6
CONTINUOUS
 10
467.0552321429
 20
234.2117142857
 11
462.8032321429
 21
234.2117142857
  0
LINE
  5
2A6
100
AcDbEntity
  8
0
100
AcDbLine
 62
7
  6
CONTINUOUS
 10
459.6142321429
 20
234.2117142857
 11
455.3632321429
 21
234.2117142857
  0
LINE
  5
2A7
100
AcDbEntity
  8
0
100
AcDbLine
 62
3
  6
CONTINUOUS
 10
454.5342321429
 20
235.2317142857
 11
459.6142321429
 21
235.2317142857
  0
LINE
  5
2A8
100
AcDbEntity
  8
0
100
AcDbLine
 62
3
  6
CONTINUOUS
 10
461.9752321429
 20
235.2317142857
 11
467.0552321429
 21
235.2317142857
  0
LINE
  5
2A9
100
AcDbEntity
  8
0
100
AcDbLine
 62
3
  6
CONTINUOUS
 10
469.4162321429
 20
235.2317142857
 11
474.4962321429
 21
235.2317142857
  0
LINE
  5
2AA
100
AcDbEntity
  8
0
100
AcDbLine
 62
3
  6
CONTINUOUS
 10
476.8572321429
 20
235.2317142857
 11
481.9372321429
 21
235.2317142857
  0
LINE
  5
2AB
100
AcDbEntity
  8
0
100
AcDbLine
 62
3
  6
CONTINUOUS
 10
484.2982321429
 20
235.2317142857
 11
489.3782321429
 21
235.2317142857
  0
LINE
  5
2AC
100
AcDbEntity
  8
0
100
AcDbLine
 62
3
  6
CONTINUOUS
 10
492.6916099914
 20
240.0357142857
 11
68.1128542943
 21
240.0357142857
  0
LINE
  5
2AD
100
AcDbEntity
  8
0
100
AcDbLine
 62
3
  6
CONTINUOUS
 10
354.5272321429
 20
227.2557142857
 11
354.5272321429
 21
213.2557142857
  0
LINE
  5
2AE
100
AcDbEntity
  8
0
100
AcDbLine
 62
3
  6
CONTINUOUS
 10
363.4721028029
 20
213.2557142857
 11
363.4721028029
 21
227.2557142857
  0
LINE
  5
2AF
100
AcDbEntity
  8
0
100
AcDbLine
 62
7
  6
CONTINUOUS
 10
440.4832321429
 20
226.7717142857
 11
440.4832321429
 21
221.6917142857
  0
LINE
  5
2B0
100
AcDbEntity
  8
0
100
AcDbLine
 62
7
  6
CONTINUOUS
 10
440.4832321429
 20
219.3317142857
 11
440.4832321429
 21
214.2517142857
  0
LINE
  5
2B1
100
AcDbEntity
  8
0
100
AcDbLine
 62
7
  6
CONTINUOUS
 10
445.5632321429
 20
206.8117142857
 11
445.5632321429
 21
210.5425860695
  0
LINE
  5
2B2
100
AcDbEntity
  8
0
100
AcDbLine
 62
7
  6
CONTINUOUS
 10
445.5632321429
 20
214.2517142857
 11
445.5632321429
 21
219.3317142857
  0
LINE
  5
2B3
100
AcDbEntity
  8
0
100
AcDbLine
 62
7
  6
CONTINUOUS
 10
445.5632321429
 20
221.6917142857
 11
445.5632321429
 21
226.7717142857
  0
LINE
  5
2B4
100
AcDbEntity
  8
0
100
AcDbLine
 62
7
  6
CONTINUOUS
 10
447.9232321429
 20
226.7717142857
 11
447.9232321429
 21
221.6917142857
  0
LINE
  5
2B5
100
AcDbEntity
  8
0
100
AcDbLine
 62
7
  6
CONTINUOUS
 10
447.9232321429
 20
219.3317142857
 11
447.9232321429
 21
214.2517142857
  0
LINE
  5
2B6
100
AcDbEntity
  8
0
100
AcDbLine
 62
3
  6
CONTINUOUS
 10
447.9972321429
 20
227.2557142857
 11
447.9972321429
 21
213.2557142857
  0
LINE
  5
2B7
100
AcDbEntity
  8
0
100
AcDbLine
 62
3
  6
CONTINUOUS
 10
454.5342321429
 20
200.3877142857
 11
454.5342321429
 21
205.4677142857
  0
LINE
  5
2B8
100
AcDbEntity
  8
0
100
AcDbLine
 62
3
  6
CONTINUOUS
 10
454.5342321429
 20
207.8287142857
 11
454.5342321429
 21
212.9087142857
  0
LINE
  5
2B9
100
AcDbEntity
  8
0
100
AcDbLine
 62
3
  6
CONTINUOUS
 10
454.5342321429
 20
215.2697142857
 11
454.5342321429
 21
220.3497142857
  0
LINE
  5
2BA
100
AcDbEntity
  8
0
100
AcDbLine
 62
3
  6
CONTINUOUS
 10
454.5342321429
 20
222.7107142857
 11
454.5342321429
 21
227.7907142857
  0
LINE
  5
2BB
100
AcDbEntity
  8
0
100
AcDbLine
 62
3
  6
CONTINUOUS
 10
454.5342321429
 20
230.1517142857
 11
454.5342321429
 21
235.2317142857
  0
LINE
  5
2BC
100
AcDbEntity
  8
0
100
AcDbLine
 62
7
  6
CONTINUOUS
 10
455.3632321429
 20
234.2117142857
 11
455.3632321429
 21
230.1517142857
  0
LINE
  5
2BD
100
AcDbEntity
  8
0
100
AcDbLine
 62
7
  6
CONTINUOUS
 10
455.3632321429
 20
226.7717142857
 11
455.3632321429
 21
222.7107142857
  0
LINE
  5
2BE
100
AcDbEntity
  8
0
100
AcDbLine
 62
7
  6
CONTINUOUS
 10
455.3632321429
 20
219.3317142857
 11
455.3632321429
 21
215.2697142857
  0
LINE
  5
2BF
100
AcDbEntity
  8
0
100
AcDbLine
 62
7
  6
CONTINUOUS
 10
455.3632321429
 20
211.8917142857
 11
455.3632321429
 21
207.8287142857
  0
LINE
  5
2C0
100
AcDbEntity
  8
0
100
AcDbLine
 62
7
  6
CONTINUOUS
 10
455.3632321429
 20
204.4517142857
 11
455.3632321429
 21
200.3877142857
  0
LINE
  5
2C1
100
AcDbEntity
  8
0
100
AcDbLine
 62
3
  6
CONTINUOUS
 10
459.6142321429
 20
200.3877142857
 11
459.6142321429
 21
205.4677142857
  0
LINE
  5
2C2
100
AcDbEntity
  8
0
100
AcDbLine
 62
3
  6
CONTINUOUS
 10
459.6142321429
 20
207.8287142857
 11
459.6142321429
 21
212.9087142857
  0
LINE
  5
2C3
100
AcDbEntity
  8
0
100
AcDbLine
 62
3
  6
CONTINUOUS
 10
459.6142321429
 20
215.2697142857
 11
459.6142321429
 21
220.3497142857
  0
LINE
  5
2C4
100
AcDbEntity
  8
0
100
AcDbLine
 62
3
  6
CONTINUOUS
 10
459.6142321429
 20
222.7107142857
 11
459.6142321429
 21
227.7907142857
  0
LINE
  5
2C5
100
AcDbEntity
  8
0
100
AcDbLine
 62
3
  6
CONTINUOUS
 10
459.6142321429
 20
230.1517142857
 11
459.6142321429
 21
235.2317142857
  0
LINE
  5
2C6
100
AcDbEntity
  8
0
100
AcDbLine
 62
3
  6
CONTINUOUS
 10
461.9752321429
 20
200.3877142857
 11
461.9752321429
 21
205.4677142857
  0
LINE
  5
2C7
100
AcDbEntity
  8
0
100
AcDbLine
 62
3
  6
CONTINUOUS
 10
461.9752321429
 20
207.8287142857
 11
461.9752321429
 21
212.9087142857
  0
LINE
  5
2C8
100
AcDbEntity
  8
0
100
AcDbLine
 62
3
  6
CONTINUOUS
 10
461.9752321429
 20
215.2697142857
 11
461.9752321429
 21
220.3497142857
  0
LINE
  5
2C9
100
AcDbEntity
  8
0
100
AcDbLine
 62
3
  6
CONTINUOUS
 10
461.9752321429
 20
222.7107142857
 11
461.9752321429
 21
227.7907142857
  0
LINE
  5
2CA
100
AcDbEntity
  8
0
100
AcDbLine
 62
3
  6
CONTINUOUS
 10
461.9752321429
 20
230.1517142857
 11
461.9752321429
 21
235.2317142857
  0
LINE
  5
2CB
100
AcDbEntity
  8
0
100
AcDbLine
 62
7
  6
CONTINUOUS
 10
462.8032321429
 20
234.2117142857
 11
462.8032321429
 21
230.1517142857
  0
LINE
  5
2CC
100
AcDbEntity
  8
0
100
AcDbLine
 62
7
  6
CONTINUOUS
 10
462.8032321429
 20
226.7717142857
 11
462.8032321429
 21
222.7107142857
  0
LINE
  5
2CD
100
AcDbEntity
  8
0
100
AcDbLine
 62
7
  6
CONTINUOUS
 10
462.8032321429
 20
219.3317142857
 11
462.8032321429
 21
215.2697142857
  0
LINE
  5
2CE
100
AcDbEntity
  8
0
100
AcDbLine
 62
7
  6
CONTINUOUS
 10
462.8032321429
 20
211.8917142857
 11
462.8032321429
 21
207.8287142857
  0
LINE
  5
2CF
100
AcDbEntity
  8
0
100
AcDbLine
 62
7
  6
CONTINUOUS
 10
462.8032321429
 20
204.4517142857
 11
462.8032321429
 21
200.3877142857
  0
LINE
  5
2D0
100
AcDbEntity
  8
0
100
AcDbLine
 62
3
  6
CONTINUOUS
 10
467.0552321429
 20
235.2317142857
 11
467.0552321429
 21
230.1517142857
  0
LINE
  5
2D1
100
AcDbEntity
  8
0
100
AcDbLine
 62
3
  6
CONTINUOUS
 10
467.0552321429
 20
227.7907142857
 11
467.0552321429
 21
222.7107142857
  0
LINE
  5
2D2
100
AcDbEntity
  8
0
100
AcDbLine
 62
3
  6
CONTINUOUS
 10
467.0552321429
 20
220.3497142857
 11
467.0552321429
 21
215.2697142857
  0
LINE
  5
2D3
100
AcDbEntity
  8
0
100
AcDbLine
 62
3
  6
CONTINUOUS
 10
467.0552321429
 20
212.9087142857
 11
467.0552321429
 21
207.8287142857
  0
LINE
  5
2D4
100
AcDbEntity
  8
0
100
AcDbLine
 62
3
  6
CONTINUOUS
 10
467.0552321429
 20
205.4677142857
 11
467.0552321429
 21
200.3877142857
  0
LINE
  5
2D5
100
AcDbEntity
  8
0
100
AcDbLine
 62
3
  6
CONTINUOUS
 10
469.4162321429
 20
200.3877142857
 11
469.4162321429
 21
205.4677142857
  0
LINE
  5
2D6
100
AcDbEntity
  8
0
100
AcDbLine
 62
3
  6
CONTINUOUS
 10
469.4162321429
 20
207.8287142857
 11
469.4162321429
 21
212.9087142857
  0
LINE
  5
2D7
100
AcDbEntity
  8
0
100
AcDbLine
 62
3
  6
CONTINUOUS
 10
469.4162321429
 20
215.2697142857
 11
469.4162321429
 21
220.3497142857
  0
LINE
  5
2D8
100
AcDbEntity
  8
0
100
AcDbLine
 62
3
  6
CONTINUOUS
 10
469.4162321429
 20
222.7107142857
 11
469.4162321429
 21
227.7907142857
  0
LINE
  5
2D9
100
AcDbEntity
  8
0
100
AcDbLine
 62
3
  6
CONTINUOUS
 10
469.4162321429
 20
230.1517142857
 11
469.4162321429
 21
235.2317142857
  0
LINE
  5
2DA
100
AcDbEntity
  8
0
100
AcDbLine
 62
7
  6
CONTINUOUS
 10
470.2432321429
 20
226.7717142857
 11
470.2432321429
 21
222.7107142857
  0
LINE
  5
2DB
100
AcDbEntity
  8
0
100
AcDbLine
 62
7
  6
CONTINUOUS
 10
470.2432321429
 20
219.3317142857
 11
470.2432321429
 21
215.2697142857
  0
LINE
  5
2DC
100
AcDbEntity
  8
0
100
AcDbLine
 62
7
  6
CONTINUOUS
 10
470.2432321429
 20
211.8917142857
 11
470.2432321429
 21
207.8287142857
  0
LINE
  5
2DD
100
AcDbEntity
  8
0
100
AcDbLine
 62
3
  6
CONTINUOUS
 10
474.4962321429
 20
235.2317142857
 11
474.4962321429
 21
230.1517142857
  0
LINE
  5
2DE
100
AcDbEntity
  8
0
100
AcDbLine
 62
3
  6
CONTINUOUS
 10
474.4962321429
 20
227.7907142857
 11
474.4962321429
 21
222.7107142857
  0
LINE
  5
2DF
100
AcDbEntity
  8
0
100
AcDbLine
 62
3
  6
CONTINUOUS
 10
474.4962321429
 20
220.3497142857
 11
474.4962321429
 21
215.2697142857
  0
LINE
  5
2E0
100
AcDbEntity
  8
0
100
AcDbLine
 62
3
  6
CONTINUOUS
 10
474.4962321429
 20
212.9087142857
 11
474.4962321429
 21
207.8287142857
  0
LINE
  5
2E1
100
AcDbEntity
  8
0
100
AcDbLine
 62
3
  6
CONTINUOUS
 10
474.4962321429
 20
205.4677142857
 11
474.4962321429
 21
200.3877142857
  0
LINE
  5
2E2
100
AcDbEntity
  8
0
100
AcDbLine
 62
3
  6
CONTINUOUS
 10
476.8572321429
 20
200.3877142857
 11
476.8572321429
 21
205.4677142857
  0
LINE
  5
2E3
100
AcDbEntity
  8
0
100
AcDbLine
 62
3
  6
CONTINUOUS
 10
476.8572321429
 20
207.8287142857
 11
476.8572321429
 21
212.9087142857
  0
LINE
  5
2E4
100
AcDbEntity
  8
0
100
AcDbLine
 62
3
  6
CONTINUOUS
 10
476.8572321429
 20
215.2697142857
 11
476.8572321429
 21
220.3497142857
  0
LINE
  5
2E5
100
AcDbEntity
  8
0
100
AcDbLine
 62
3
  6
CONTINUOUS
 10
476.8572321429
 20
222.7107142857
 11
476.8572321429
 21
227.7907142857
  0
LINE
  5
2E6
100
AcDbEntity
  8
0
100
AcDbLine
 62
3
  6
CONTINUOUS
 10
476.8572321429
 20
230.1517142857
 11
476.8572321429
 21
235.2317142857
  0
LINE
  5
2E7
100
AcDbEntity
  8
0
100
AcDbLine
 62
3
  6
CONTINUOUS
 10
481.9372321429
 20
235.2317142857
 11
481.9372321429
 21
230.1517142857
  0
LINE
  5
2E8
100
AcDbEntity
  8
0
100
AcDbLine
 62
3
  6
CONTINUOUS
 10
481.9372321429
 20
227.7907142857
 11
481.9372321429
 21
222.7107142857
  0
LINE
  5
2E9
100
AcDbEntity
  8
0
100
AcDbLine
 62
3
  6
CONTINUOUS
 10
481.9372321429
 20
220.3497142857
 11
481.9372321429
 21
215.2697142857
  0
LINE
  5
2EA
100
AcDbEntity
  8
0
100
AcDbLine
 62
3
  6
CONTINUOUS
 10
481.9372321429
 20
212.9087142857
 11
481.9372321429
 21
207.8287142857
  0
LINE
  5
2EB
100
AcDbEntity
  8
0
100
AcDbLine
 62
3
  6
CONTINUOUS
 10
481.9372321429
 20
205.4677142857
 11
481.9372321429
 21
200.3877142857
  0
LINE
  5
2EC
100
AcDbEntity
  8
0
100
AcDbLine
 62
3
  6
CONTINUOUS
 10
484.2982321429
 20
200.3877142857
 11
484.2982321429
 21
205.4677142857
  0
LINE
  5
2ED
100
AcDbEntity
  8
0
100
AcDbLine
 62
3
  6
CONTINUOUS
 10
484.2982321429
 20
207.8287142857
 11
484.2982321429
 21
212.9087142857
  0
LINE
  5
2EE
100
AcDbEntity
  8
0
100
AcDbLine
 62
3
  6
CONTINUOUS
 10
484.2982321429
 20
215.2697142857
 11
484.2982321429
 21
220.3497142857
  0
LINE
  5
2EF
100
AcDbEntity
  8
0
100
AcDbLine
 62
3
  6
CONTINUOUS
 10
484.2982321429
 20
222.7107142857
 11
484.2982321429
 21
227.7907142857
  0
LINE
  5
2F0
100
AcDbEntity
  8
0
100
AcDbLine
 62
3
  6
CONTINUOUS
 10
484.2982321429
 20
230.1517142857
 11
484.2982321429
 21
235.2317142857
  0
LINE
  5
2F1
100
AcDbEntity
  8
0
100
AcDbLine
 62
3
  6
CONTINUOUS
 10
489.3782321429
 20
235.2317142857
 11
489.3782321429
 21
230.1517142857
  0
LINE
  5
2F2
100
AcDbEntity
  8
0
100
AcDbLine
 62
3
  6
CONTINUOUS
 10
489.3782321429
 20
227.7907142857
 11
489.3782321429
 21
222.7107142857
  0
LINE
  5
2F3
100
AcDbEntity
  8
0
100
AcDbLine
 62
3
  6
CONTINUOUS
 10
489.3782321429
 20
220.3497142857
 11
489.3782321429
 21
215.2697142857
  0
LINE
  5
2F4
100
AcDbEntity
  8
0
100
AcDbLine
 62
3
  6
CONTINUOUS
 10
489.3782321429
 20
212.9087142857
 11
489.3782321429
 21
207.8287142857
  0
LINE
  5
2F5
100
AcDbEntity
  8
0
100
AcDbLine
 62
3
  6
CONTINUOUS
 10
489.3782321429
 20
205.4677142857
 11
489.3782321429
 21
200.3877142857
  0
LINE
  5
2F6
100
AcDbEntity
  8
0
100
AcDbLine
 62
3
  6
CONTINUOUS
 10
492.8282321429
 20
197.9471142857
 11
492.8282321429
 21
238.3250921343
  0
LINE
  5
2F7
100
AcDbEntity
  8
0
100
AcDbLine
 62
3
  6
CONTINUOUS
 10
494.4022321429
 20
197.9471142857
 11
494.4022321429
 21
238.3250921343
  0
CIRCLE
  5
2F8
100
AcDbEntity
  8
AXES
100
AcDbCircle
 62
3
  6
CONTINUOUS
 10
124.9022321429
 20
206.0357142857
 40
3.2
  0
CIRCLE
  5
2F9
100
AcDbEntity
  8
AXES
100
AcDbCircle
 62
3
  6
CONTINUOUS
 10
140.9022321429
 20
206.0357142857
 40
3.2
  0
CIRCLE
  5
2FA
100
AcDbEntity
  8
AXES
100
AcDbCircle
 62
3
  6
CONTINUOUS
 10
156.9022321429
 20
206.0357142857
 40
3.2
  0
CIRCLE
  5
2FB
100
AcDbEntity
  8
AXES
100
AcDbCircle
 62
3
  6
CONTINUOUS
 10
172.9022321429
 20
206.0357142857
 40
3.2
  0
ARC
  5
2FC
100
AcDbEntity
  8
AXES
100
AcDbCircle
 62
3
  6
CONTINUOUS
 10
80.6522321429
 20
209.9107142857
 40
2.5
100
AcDbArc
 50
180.0
 51
270.0
  0
ARC
  5
2FD
100
AcDbEntity
  8
AXES
100
AcDbCircle
 62
3
  6
CONTINUOUS
 10
103.9522321429
 20
209.9107142857
 40
2.5
100
AcDbArc
 50
270.0
 51
360.0
  0
CIRCLE
  5
2FE
100
AcDbEntity
  8
AXES
100
AcDbCircle
 62
3
  6
CONTINUOUS
 10
72.3022321429
 20
217.8107142857
 40
2.4
  0
CIRCLE
  5
2FF
100
AcDbEntity
  8
AXES
100
AcDbCircle
 62
3
  6
CONTINUOUS
 10
112.3022321429
 20
217.8107142857
 40
2.4
  0
ARC
  5
300
100
AcDbEntity
  8
0
100
AcDbCircle
 62
3
  6
CONTINUOUS
 10
68.7636321429
 20
197.9471142857
 40
2.3614
100
AcDbArc
 50
180.0
 51
270.0
  0
CIRCLE
  5
301
100
AcDbEntity
  8
0
100
AcDbCircle
 62
3
  6
CONTINUOUS
 10
272.4972321429
 20
208.4557142857
 40
2.1
  0
ARC
  5
302
100
AcDbEntity
  8
0
100
AcDbCircle
 62
3
  6
CONTINUOUS
 10
84.5383339677
 20
238.3236280852
 40
16.5621018895
100
AcDbArc
 50
179.5100191482
 51
179.9949351941
  0
CIRCLE
  5
303
100
AcDbEntity
  8
AXES
100
AcDbCircle
 62
3
  6
CONTINUOUS
 10
124.9022321429
 20
226.0357142857
 40
3.2
  0
CIRCLE
  5
304
100
AcDbEntity
  8
AXES
100
AcDbCircle
 62
3
  6
CONTINUOUS
 10
140.9022321429
 20
226.0357142857
 40
3.2
  0
CIRCLE
  5
305
100
AcDbEntity
  8
AXES
100
AcDbCircle
 62
3
  6
CONTINUOUS
 10
156.9022321429
 20
226.0357142857
 40
3.2
  0
CIRCLE
  5
306
100
AcDbEntity
  8
AXES
100
AcDbCircle
 62
3
  6
CONTINUOUS
 10
172.9022321429
 20
226.0357142857
 40
3.2
  0
ARC
  5
307
100
AcDbEntity
  8
AXES
100
AcDbCircle
 62
3
  6
CONTINUOUS
 10
80.6522321429
 20
225.7107142857
 40
2.5
100
AcDbArc
 50
90.0
 51
180.0
  0
ARC
  5
308
100
AcDbEntity
  8
AXES
100
AcDbCircle
 62
3
  6
CONTINUOUS
 10
103.9522321429
 20
225.7107142857
 40
2.5
100
AcDbArc
 50
0.0
 51
90.0
  0
ARC
  5
309
100
AcDbEntity
  8
AXES
100
AcDbCircle
 62
7
  6
CONTINUOUS
 10
270.4022321429
 20
222.0357142857
 40
2.4
100
AcDbArc
 50
260.0953774616
 51
99.9046225384
  0
CIRCLE
  5
30A
100
AcDbEntity
  8
0
100
AcDbCircle
 62
3
  6
CONTINUOUS
 10
272.4972321429
 20
232.0557142857
 40
2.1
  0
ARC
  5
30B
100
AcDbEntity
  8
0
100
AcDbCircle
 62
3
  6
CONTINUOUS
 10
68.1128542943
 20
238.3250921343
 40
1.7106221514
100
AcDbArc
 50
90.0
 51
180.0
  0
ARC
  5
30C
100
AcDbEntity
  8
0
100
AcDbCircle
 62
7
  6
CONTINUOUS
 10
400.4022321429
 20
206.0357142857
 40
5.1
100
AcDbArc
 50
4.2629787685
 51
44.5161615174
  0
ARC
  5
30D
100
AcDbEntity
  8
AXES
100
AcDbCircle
 62
7
  6
CONTINUOUS
 10
485.9022321429
 20
205.5857142857
 40
2.4
100
AcDbArc
 50
70.6134705226
 51
109.3865294774
  0
ARC
  5
30E
100
AcDbEntity
  8
AXES
100
AcDbCircle
 62
7
  6
CONTINUOUS
 10
485.9022321429
 20
205.5857142857
 40
2.4
100
AcDbArc
 50
227.6426860958
 51
356.9931024237
  0
ARC
  5
30F
100
AcDbEntity
  8
0
100
AcDbCircle
 62
3
  6
CONTINUOUS
 10
492.0408321429
 20
197.9471142857
 40
2.3614
100
AcDbArc
 50
270.0
 51
360.0
  0
CIRCLE
  5
310
100
AcDbEntity
  8
0
100
AcDbCircle
 62
3
  6
CONTINUOUS
 10
445.4972321429
 20
208.4557142857
 40
2.1
  0
CIRCLE
  5
311
100
AcDbEntity
  8
0
100
AcDbCircle
 62
3
  6
CONTINUOUS
 10
312.2622321429
 20
208.4557142857
 40
2.1
  0
CIRCLE
  5
312
100
AcDbEntity
  8
0
100
AcDbCircle
 62
3
  6
CONTINUOUS
 10
405.7322321429
 20
208.4557142857
 40
2.1
  0
CIRCLE
  5
313
100
AcDbEntity
  8
0
100
AcDbCircle
 62
3
  6
CONTINUOUS
 10
365.9721028029
 20
208.4557142857
 40
2.1
  0
CIRCLE
  5
314
100
AcDbEntity
  8
0
100
AcDbCircle
 62
3
  6
CONTINUOUS
 10
352.0223614829
 20
208.4557142857
 40
2.1
  0
ARC
  5
315
100
AcDbEntity
  8
AXES
100
AcDbCircle
 62
7
  6
CONTINUOUS
 10
471.4022321429
 20
201.7857142857
 40
1.5
100
AcDbArc
 50
288.4899828276
 51
251.5100171724
  0
CIRCLE
  5
316
100
AcDbEntity
  8
AXES
100
AcDbCircle
 62
7
  6
CONTINUOUS
 10
365.4022321429
 20
222.0357142857
 40
1.5
  0
CIRCLE
  5
317
100
AcDbEntity
  8
AXES
100
AcDbCircle
 62
7
  6
CONTINUOUS
 10
351.4022321429
 20
222.0357142857
 40
1.5
  0
CIRCLE
  5
318
100
AcDbEntity
  8
AXES
100
AcDbCircle
 62
7
  6
CONTINUOUS
 10
330.4022321429
 20
222.0357142857
 40
1.5
  0
CIRCLE
  5
319
100
AcDbEntity
  8
AXES
100
AcDbCircle
 62
7
  6
CONTINUOUS
 10
323.4022321429
 20
222.0357142857
 40
1.5
  0
CIRCLE
  5
31A
100
AcDbEntity
  8
AXES
100
AcDbCircle
 62
7
  6
CONTINUOUS
 10
316.4022321429
 20
222.0357142857
 40
1.5
  0
CIRCLE
  5
31B
100
AcDbEntity
  8
AXES
100
AcDbCircle
 62
7
  6
CONTINUOUS
 10
309.4022321429
 20
222.0357142857
 40
1.5
  0
CIRCLE
  5
31C
100
AcDbEntity
  8
AXES
100
AcDbCircle
 62
7
  6
CONTINUOUS
 10
302.4022321429
 20
222.0357142857
 40
1.5
  0
CIRCLE
  5
31D
100
AcDbEntity
  8
AXES
100
AcDbCircle
 62
7
  6
CONTINUOUS
 10
295.4022321429
 20
222.0357142857
 40
1.5
  0
CIRCLE
  5
31E
100
AcDbEntity
  8
AXES
100
AcDbCircle
 62
7
  6
CONTINUOUS
 10
288.4022321429
 20
222.0357142857
 40
1.5
  0
CIRCLE
  5
31F
100
AcDbEntity
  8
AXES
100
AcDbCircle
 62
7
  6
CONTINUOUS
 10
281.4022321429
 20
222.0357142857
 40
1.5
  0
CIRCLE
  5
320
100
AcDbEntity
  8
0
100
AcDbCircle
 62
3
  6
CONTINUOUS
 10
312.2622321429
 20
232.0557142857
 40
2.1
  0
CIRCLE
  5
321
100
AcDbEntity
  8
0
100
AcDbCircle
 62
3
  6
CONTINUOUS
 10
365.9721028029
 20
232.0557142857
 40
2.1
  0
CIRCLE
  5
322
100
AcDbEntity
  8
0
100
AcDbCircle
 62
3
  6
CONTINUOUS
 10
352.0223614829
 20
232.0557142857
 40
2.1
  0
CIRCLE
  5
323
100
AcDbEntity
  8
AXES
100
AcDbCircle
 62
7
  6
CONTINUOUS
 10
412.7522321429
 20
222.0357142857
 40
2.4
  0
ARC
  5
324
100
AcDbEntity
  8
AXES
100
AcDbCircle
 62
7
  6
CONTINUOUS
 10
485.9022321429
 20
230.0357142857
 40
2.4
100
AcDbArc
 50
2.9563303974
 51
132.3573139042
  0
ARC
  5
325
100
AcDbEntity
  8
AXES
100
AcDbCircle
 62
7
  6
CONTINUOUS
 10
485.9022321429
 20
230.0357142857
 40
2.4
100
AcDbArc
 50
250.8581549436
 51
289.1418450564
  0
CIRCLE
  5
326
100
AcDbEntity
  8
AXES
100
AcDbCircle
 62
7
  6
CONTINUOUS
 10
425.4022321429
 20
222.0357142857
 40
1.5
  0
CIRCLE
  5
327
100
AcDbEntity
  8
AXES
100
AcDbCircle
 62
7
  6
CONTINUOUS
 10
400.4022321429
 20
222.0357142857
 40
1.5
  0
ARC
  5
328
100
AcDbEntity
  8
0
100
AcDbCircle
 62
3
  6
CONTINUOUS
 10
476.2661303194
 20
238.3236280852
 40
16.5621018881
100
AcDbArc
 50
0.0050648059
 51
0.4899808518
  0
CIRCLE
  5
329
100
AcDbEntity
  8
0
100
AcDbCircle
 62
3
  6
CONTINUOUS
 10
445.4972321429
 20
232.0557142857
 40
2.1
  0
CIRCLE
  5
32A
100
AcDbEntity
  8
0
100
AcDbCircle
 62
3
  6
CONTINUOUS
 10
405.7322321429
 20
232.0557142857
 40
2.1
  0
ARC
  5
32B
100
AcDbEntity
  8
0
100
AcDbCircle
 62
3
  6
CONTINUOUS
 10
492.6916099914
 20
238.3250921343
 40
1.7106221514
100
AcDbArc
 50
0.0
 51
90.0
  0
CIRCLE
  5
32C
100
AcDbEntity
  8
AXES
100
AcDbCircle
 62
7
  6
CONTINUOUS
 10
471.4022321429
 20
231.7857142857
 40
1.5
  0
SPLINE
  5
32D
100
AcDbEntity
  8
0
100
AcDbSpline
 62
3
  6
CONTINUOUS
 70
0
 71
3
 72
9
 73
5
 74
0
 42
0.0000001
 43
0.0000001
 44
0.0000000001
 40
0.0
 40
0.0
 40
0.0
 40
0.0
 40
0.1298245927
 40
1.0
 40
1.0
 40
1.0
 40
1.0
 10
492.6916099914
 20
240.0357142857
 30
0.0
 10
492.6954713552
 20
240.0357142857
 30
0.0
 10
492.7228653803
 20
240.0185701231
 30
0.0
 10
492.7264632982
 20
239.9847297565
 30
0.0
 10
492.7328447414
 20
239.9596472398
 30
0.0
  0
SPLINE
  5
32E
100
AcDbEntity
  8
0
100
AcDbSpline
 62
3
  6
CONTINUOUS
 70
0
 71
3
 72
9
 73
5
 74
0
 42
0.0000001
 43
0.0000001
 44
0.0000000001
 40
0.0
 40
0.0
 40
0.0
 40
0.0
 40
0.3876068163
 40
1.0
 40
1.0
 40
1.0
 40
1.0
 10
492.7328447414
 20
239.9596472398
 30
0.0
 10
492.7516148306
 20
239.8858706566
 30
0.0
 10
492.7749367462
 20
239.6900169167
 30
0.0
 10
492.7925186645
 20
239.4946798934
 30
0.0
 10
492.7998070748
 20
239.374625496
 30
0.0
  0
SPLINE
  5
32F
100
AcDbEntity
  8
0
100
AcDbSpline
 62
3
  6
CONTINUOUS
 70
0
 71
3
 72
9
 73
5
 74
0
 42
0.0000001
 43
0.0000001
 44
0.0000000001
 40
0.0
 40
0.0
 40
0.0
 40
0.0
 40
0.219098847
 40
1.0
 40
1.0
 40
1.0
 40
1.0
 10
492.7998070748
 20
239.374625496
 30
0.0
 10
492.8038336838
 20
239.3082993578
 30
0.0
 10
492.8183709773
 20
239.005354677
 30
0.0
 10
492.825622213
 20
238.7020848507
 30
0.0
 10
492.8276265938
 20
238.4652617962
 30
0.0
  0
SPLINE
  5
330
100
AcDbEntity
  8
0
100
AcDbSpline
 62
3
  6
CONTINUOUS
 70
0
 71
3
 72
9
 73
5
 74
0
 42
0.0000001
 43
0.0000001
 44
0.0000000001
 40
0.0
 40
0.0
 40
0.0
 40
0.0
 40
0.1298245927
 40
1.0
 40
1.0
 40
1.0
 40
1.0
 10
68.1128542943
 20
240.0357142857
 30
0.0
 10
68.1089929305
 20
240.0357142857
 30
0.0
 10
68.0815989054
 20
240.0185701231
 30
0.0
 10
68.0780009875
 20
239.9847297565
 30
0.0
 10
68.0716195443
 20
239.9596472398
 30
0.0
  0
SPLINE
  5
331
100
AcDbEntity
  8
0
100
AcDbSpline
 62
3
  6
CONTINUOUS
 70
0
 71
3
 72
9
 73
5
 74
0
 42
0.0000001
 43
0.0000001
 44
0.0000000001
 40
0.0
 40
0.0
 40
0.0
 40
0.0
 40
0.3876068163
 40
1.0
 40
1.0
 40
1.0
 40
1.0
 10
68.0716195443
 20
239.9596472398
 30
0.0
 10
68.0528494551
 20
239.8858706566
 30
0.0
 10
68.0295275395
 20
239.6900169167
 30
0.0
 10
68.0119456212
 20
239.4946798934
 30
0.0
 10
68.0046572109
 20
239.374625496
 30
0.0
  0
SPLINE
  5
332
100
AcDbEntity
  8
0
100
AcDbSpline
 62
3
  6
CONTINUOUS
 70
0
 71
3
 72
9
 73
5
 74
0
 42
0.0000001
 43
0.0000001
 44
0.0000000001
 40
0.0
 40
0.0
 40
0.0
 40
0.0
 40
0.219098847
 40
1.0
 40
1.0
 40
1.0
 40
1.0
 10
68.0046572109
 20
239.374625496
 30
0.0
 10
68.0006306019
 20
239.3082993578
 30
0.0
 10
67.9860933084
 20
239.005354677
 30
0.0
 10
67.9788420727
 20
238.7020848507
 30
0.0
 10
67.9768376919
 20
238.4652617962
 30
0.0
  0
SPLINE
  5
333
100
AcDbEntity
  8
0
100
AcDbSpline
 62
3
  6
CONTINUOUS
 70
0
 71
3
 72
9
 73
5
 74
0
 42
0.0000001
 43
0.0000001
 44
0.0000000001
 40
0.0
 40
0.0
 40
0.0
 40
0.0
 40
0.2605128315
 40
1.0
 40
1.0
 40
1.0
 40
1.0
 10
492.8282321429
 20
197.9471142857
 30
0.0
 10
492.8064218062
 20
197.8443703036
 30
0.0
 10
492.7226061996
 20
197.4500126377
 30
0.0
 10
492.6367830171
 20
197.0559786866
 30
0.0
 10
492.5657654762
 20
196.7664142857
 30
0.0
  0
SPLINE
  5
334
100
AcDbEntity
  8
0
100
AcDbSpline
 62
3
  6
CONTINUOUS
 70
0
 71
3
 72
10
 73
6
 74
0
 42
0.0000001
 43
0.0000001
 44
0.0000000001
 40
0.0
 40
0.0
 40
0.0
 40
0.0
 40
0.6806984831
 40
0.8838120646
 40
1.0
 40
1.0
 40
1.0
 40
1.0
 10
492.5657654762
 20
196.7664142857
 30
0.0
 10
492.4940439327
 20
196.4739794097
 30
0.0
 10
492.3904423978
 20
196.0891395524
 30
0.0
 10
492.2137844584
 20
195.6935693838
 30
0.0
 10
492.0922269483
 20
195.5857142857
 30
0.0
 10
492.0408321429
 20
195.5857142857
 30
0.0
  0
SPLINE
  5
335
100
AcDbEntity
  8
0
100
AcDbSpline
 62
3
  6
CONTINUOUS
 70
0
 71
3
 72
9
 73
5
 74
0
 42
0.0000001
 43
0.0000001
 44
0.0000000001
 40
0.0
 40
0.0
 40
0.0
 40
0.0
 40
0.2605128315
 40
1.0
 40
1.0
 40
1.0
 40
1.0
 10
67.9762321429
 20
197.9471142857
 30
0.0
 10
67.9980424795
 20
197.8443703036
 30
0.0
 10
68.0818580861
 20
197.4500126377
 30
0.0
 10
68.1676812686
 20
197.0559786866
 30
0.0
 10
68.2386988095
 20
196.7664142857
 30
0.0
  0
SPLINE
  5
336
100
AcDbEntity
  8
0
100
AcDbSpline
 62
3
  6
CONTINUOUS
 70
0
 71
3
 72
10
 73
6
 74
0
 42
0.0000001
 43
0.0000001
 44
0.0000000001
 40
0.0
 40
0.0
 40
0.0
 40
0.0
 40
0.6806984831
 40
0.8838120646
 40
1.0
 40
1.0
 40
1.0
 40
1.0
 10
68.2386988095
 20
196.7664142857
 30
0.0
 10
68.3104203531
 20
196.4739794097
 30
0.0
 10
68.4140218879
 20
196.0891395524
 30
0.0
 10
68.5906798273
 20
195.6935693838
 30
0.0
 10
68.7122373374
 20
195.5857142857
 30
0.0
 10
68.7636321429
 20
195.5857142857
 30
0.0
  0
ENDSEC
  0
SECTION
  2
OBJECTS
  0
DICTIONARY
  5
C
100
AcDbDictionary
280
0
281
1
  3
ACAD_GROUP
350
D
  3
ACAD_MLINESTYLE
350
17
  3
ACAD_LAYOUT
350
1A
  3
ACAD_PLOTSETTINGS
350
19
  3
ACAD_PLOTSTYLENAME
350
E
  0
DICTIONARY
  5
D
102
{ACAD_REACTORS
330
C
102
}
100
AcDbDictionary
280
0
281
1
  0
ACDBDICTIONARYWDFLT
  5
E
102
{ACAD_REACTORS
330
C
102
}
100
AcDbDictionary
281
1
  3
Normal
350
F
100
AcDbDictionaryWithDefault
340
F
  0
DICTIONARY
  5
17
102
{ACAD_REACTORS
330
C
102
}
100
AcDbDictionary
280
0
281
1
  3
Standard
350
18
  0
DICTIONARY
  5
19
102
{ACAD_REACTORS
330
C
102
}
100
AcDbDictionary
281
1
  0
DICTIONARY
  5
1A
102
{ACAD_REACTORS
330
C
102
}
100
AcDbDictionary
281
1
  3
Model
350
337
  3
Layout1
350
338
  0
ACDBPLACEHOLDER
  5
F
102
{ACAD_REACTORS
330
E
102
}
  0
MLINESTYLE
  5
18
102
{ACAD_REACTORS
330
17
102
}
100
AcDbMlineStyle
  2
STANDARD
 70
0
  3

 62
256
 51
90.0
 52
90.0
 71
2
 49
0.5
 62
256
  6
BYLAYER
 49
-0.5
 62
256
  6
BYLAYER
  0
LAYOUT
  5
337
102
{ACAD_REACTORS
330
1A
102
}
100
AcDbPlotSettings
  1

  2
none_device
  4
ISO_A2_(594.00_x_420.00_MM)
  6

 40
0.0
 41
0.0
 42
0.0
 43
0.0
 44
594.0
 45
420.0
 46
0.0
 47
0.0
 48
0.0
 49
0.0
140
0.0
141
0.0
142
1.0
143
1.0
 70
1024
 72
1
 73
0
 74
0
  7

 75
0
147
1.0
148
0.0
149
0.0
100
AcDbLayout
  1
Model
 70
0
 71
0
 10
0.0
 20
0.0
 11
594.0
 21
420.0
 12
0.0
 22
0.0
 32
0.0
 14
0.0
 24
0.0
 34
0.0
 15
0.0
 25
0.0
 35
0.0
146
0.0
 13
0.0
 23
0.0
 33
0.0
 16
1.0
 26
0.0
 36
0.0
 17
0.0
 27
1.0
 37
0.0
 76
0
330
20B
345
0
346
0
  0
LAYOUT
  5
338
102
{ACAD_REACTORS
330
1A
102
}
100
AcDbPlotSettings
  1

  2
none_device
  4
ISO_A2_(594.00_x_420.00_MM)
  6

 40
0.0
 41
0.0
 42
0.0
 43
0.0
 44
594.0
 45
420.0
 46
0.0
 47
0.0
 48
0.0
 49
0.0
140
0.0
141
0.0
142
1.0
143
1.0
 70
0
 72
1
 73
0
 74
0
  7

 75
0
147
1.0
148
0.0
149
0.0
100
AcDbLayout
  1
Layout1
 70
0
 71
1
 10
0.0
 20
0.0
 11
594.0
 21
420.0
 12
0.0
 22
0.0
 32
0.0
 14
0.0
 24
0.0
 34
0.0
 15
0.0
 25
0.0
 35
0.0
146
0.0
 13
0.0
 23
0.0
 33
0.0
 16
1.0
 26
0.0
 36
0.0
 17
0.0
 27
1.0
 37
0.0
 76
0
330
20C
345
0
346
0
  0
ENDSEC
  0
EOF
