<?xml version="1.0" encoding="UTF-8" ?>
<!DOCTYPE svg PUBLIC "-//W3C//DTD SVG 1.1//EN" "http://www.w3.org/Graphics/SVG/1.1/DTD/svg11.dtd">
<svg width="921pt" height="1086pt" viewBox="0 0 921 1086" version="1.1" xmlns="http://www.w3.org/2000/svg">
<path fill="#fdfdfd" d=" M 0.00 0.00 L 921.00 0.00 L 921.00 1086.00 L 890.92 1086.00 C 891.89 1083.34 892.69 1080.64 893.46 1077.92 C 883.28 1077.66 873.11 1077.96 862.94 1077.71 C 868.66 1070.14 876.76 1065.02 883.63 1058.61 C 887.41 1055.09 892.25 1052.53 894.91 1047.94 C 897.34 1043.92 899.42 1039.24 898.49 1034.44 C 897.23 1028.46 894.18 1022.07 888.03 1019.89 C 880.73 1017.34 871.97 1018.05 865.54 1022.54 C 860.65 1025.93 859.21 1032.03 857.23 1037.27 C 860.09 1037.75 862.96 1038.23 865.83 1038.76 C 867.67 1033.90 869.15 1027.53 874.87 1025.93 C 878.61 1025.05 883.44 1024.53 886.34 1027.65 C 888.90 1030.26 890.55 1034.09 890.18 1037.79 C 888.34 1045.40 881.78 1050.33 876.11 1055.15 C 869.91 1059.88 863.63 1064.61 858.50 1070.54 C 854.37 1074.86 852.93 1080.82 850.26 1086.00 L 0.00 1086.00 L 0.00 0.00 Z" />
<path fill="#212121" d=" M 464.11 41.99 C 471.37 40.98 478.64 39.58 486.00 39.78 C 492.34 39.86 498.67 39.81 505.01 39.78 C 513.21 39.67 521.18 41.91 529.10 43.78 C 538.94 46.02 548.08 50.81 555.99 57.01 C 560.15 60.50 564.81 63.52 568.01 68.01 C 574.47 75.84 580.45 84.18 584.57 93.50 C 588.56 103.68 592.61 113.97 594.46 124.80 C 595.39 130.38 596.82 135.86 597.68 141.46 C 598.44 145.54 598.18 149.75 599.13 153.82 C 600.37 159.37 598.96 165.12 600.19 170.68 C 600.84 173.73 601.21 176.85 601.09 179.99 C 600.63 191.35 601.96 202.83 599.99 214.10 C 598.84 221.77 600.71 229.64 598.63 237.22 C 598.27 246.88 596.78 256.43 595.77 266.04 C 593.60 280.43 592.47 295.02 589.25 309.24 C 588.79 312.57 584.76 313.22 582.00 313.34 C 575.58 313.16 568.96 311.18 564.05 306.92 C 560.88 303.72 563.01 298.85 564.00 295.15 C 569.73 275.40 574.10 255.27 577.23 234.95 C 579.09 226.83 579.09 218.47 580.02 210.24 C 581.65 202.76 580.03 195.03 581.54 187.54 C 582.58 181.94 582.55 176.14 581.48 170.55 C 580.46 165.43 581.07 160.21 580.64 155.05 C 579.21 145.39 578.71 135.54 575.75 126.17 C 570.87 107.23 562.04 88.89 547.87 75.15 C 529.93 58.79 505.11 50.68 481.00 51.68 C 474.89 51.70 468.72 51.30 462.69 52.55 C 447.47 54.31 432.56 58.02 417.85 62.17 C 408.82 64.84 399.86 68.95 390.28 68.69 C 390.24 65.93 389.82 62.11 393.32 61.32 C 416.41 53.25 439.83 45.56 464.11 41.99 Z" />
<path fill="#fdfdfd" d=" M 536.84 56.10 C 550.44 61.63 561.13 72.66 569.22 84.65 C 573.93 93.27 578.92 101.89 581.49 111.45 C 586.59 124.99 589.12 139.32 590.75 153.65 C 591.96 158.94 591.39 164.39 592.13 169.73 C 593.50 177.41 592.72 185.25 592.89 193.00 C 592.74 199.85 593.42 206.75 592.35 213.55 C 590.98 220.74 592.44 228.17 590.67 235.32 C 589.06 258.82 585.05 282.08 581.67 305.38 C 578.31 304.98 574.46 304.60 572.34 301.58 C 572.05 299.10 572.95 296.70 573.48 294.32 C 580.51 270.04 584.21 244.97 587.54 219.98 C 587.57 212.60 589.53 205.38 589.20 198.00 C 589.03 183.99 589.32 169.97 589.08 155.97 C 588.13 147.52 587.42 139.02 585.40 130.73 C 583.43 118.17 579.33 106.02 573.45 94.75 C 568.07 82.30 558.28 72.58 548.35 63.66 C 544.77 60.75 540.46 58.94 536.84 56.10 Z" />
<path fill="#212121" d=" M 419.27 70.25 C 432.04 67.89 444.94 65.32 458.00 65.83 C 466.07 66.06 474.26 65.13 482.23 66.83 C 492.70 68.80 503.24 71.30 512.74 76.26 C 519.97 80.44 526.45 85.79 532.77 91.20 C 536.38 95.96 540.27 100.52 543.71 105.41 C 547.06 111.45 551.12 117.16 553.28 123.78 C 556.02 131.90 559.52 139.80 561.11 148.26 C 563.33 157.94 564.85 167.77 565.73 177.65 C 567.31 184.20 566.06 190.99 567.34 197.57 C 568.65 204.30 567.98 211.19 568.10 218.00 C 567.99 224.80 568.64 231.68 567.30 238.40 C 565.82 245.67 567.46 253.13 566.19 260.41 C 564.93 266.25 565.52 272.29 564.37 278.15 C 562.90 296.47 560.24 314.67 557.03 332.75 C 556.65 334.35 556.27 335.97 555.55 337.46 C 550.99 340.62 545.04 339.36 540.10 337.91 C 536.40 336.63 532.40 335.02 530.13 331.66 C 528.58 326.66 531.53 321.81 532.59 317.02 C 535.92 303.47 539.84 290.00 541.56 276.13 C 544.77 256.88 548.27 237.52 548.24 217.96 C 549.33 211.31 550.33 204.49 548.97 197.79 C 547.46 191.43 548.67 184.84 547.49 178.44 C 544.77 158.27 540.56 137.70 529.83 120.11 C 525.02 113.38 520.70 106.08 514.22 100.78 C 506.72 94.27 498.40 88.50 489.03 85.04 C 480.03 81.66 470.57 79.37 461.02 78.26 C 452.03 78.11 443.03 78.05 434.05 78.31 C 414.68 80.93 395.33 84.51 376.83 90.94 C 370.63 93.01 364.36 95.44 357.70 95.21 C 357.69 93.51 357.58 91.81 357.73 90.11 C 359.16 87.08 362.95 86.74 365.74 85.60 C 383.25 79.42 401.18 74.46 419.27 70.25 Z" />
<path fill="#fdfdfd" d=" M 505.00 82.94 C 513.23 85.89 520.09 91.71 526.02 98.00 C 532.26 104.30 537.41 111.72 541.13 119.78 C 553.14 143.18 558.10 169.65 559.25 195.74 C 560.22 203.46 559.66 211.25 559.78 219.00 C 559.66 226.14 560.19 233.31 559.34 240.42 C 558.36 247.62 559.45 254.97 557.92 262.12 C 557.43 271.80 555.99 281.38 554.83 290.99 C 552.91 304.71 551.19 318.47 548.49 332.06 C 545.10 331.22 541.88 329.83 538.94 327.94 C 541.21 318.33 544.16 308.87 545.90 299.14 C 549.31 281.50 552.96 263.87 554.69 245.98 C 554.61 238.93 556.56 232.05 556.30 225.00 C 556.16 210.98 556.35 196.96 556.16 182.94 C 554.17 157.22 548.41 130.89 533.85 109.16 C 528.89 102.54 522.94 96.72 516.80 91.19 C 513.24 87.93 508.86 85.79 505.00 82.94 Z" />
<path fill="#212121" d=" M 344.41 200.33 C 346.62 199.96 348.87 200.15 351.11 200.19 C 351.69 206.03 349.58 211.59 348.15 217.15 C 344.74 230.84 339.04 243.80 335.28 257.38 C 330.87 270.31 326.66 283.45 325.18 297.09 C 324.70 303.63 322.50 310.12 323.80 316.71 C 325.05 322.42 324.86 328.31 326.11 334.01 C 328.41 345.00 331.94 355.71 336.03 366.15 C 339.52 375.21 344.23 383.72 348.50 392.42 C 352.13 390.52 355.67 388.44 358.99 386.03 C 368.31 379.93 377.75 374.00 387.47 368.56 C 397.22 363.98 406.70 358.86 416.47 354.31 C 426.57 349.66 437.29 346.61 447.76 342.92 C 457.03 340.25 466.48 338.17 476.02 336.74 C 482.74 336.73 489.28 334.80 496.01 335.06 C 501.44 334.96 506.88 335.16 512.21 336.21 C 530.94 337.89 549.44 345.75 562.31 359.68 C 568.79 367.14 573.42 376.00 577.05 385.14 C 579.84 391.11 580.60 397.72 582.03 404.09 C 582.98 408.34 582.61 412.72 582.70 417.04 C 582.66 422.23 584.30 427.36 583.38 432.56 C 582.24 438.86 583.23 445.34 581.90 451.62 C 577.74 481.41 567.74 510.06 555.46 537.41 C 551.19 546.50 546.04 555.16 542.18 564.45 C 549.62 567.61 557.09 570.76 564.79 573.21 C 578.86 577.23 593.20 581.64 608.00 581.10 C 613.29 580.99 618.59 581.35 623.87 580.82 C 639.42 578.31 654.60 573.63 668.88 566.98 C 676.71 564.11 683.88 559.80 691.52 556.51 C 697.92 554.14 703.64 550.27 710.12 548.09 C 717.60 545.49 725.42 540.76 733.57 543.56 C 733.98 545.84 733.94 548.40 731.97 549.98 C 722.03 560.22 710.55 568.91 698.48 576.49 C 690.99 580.41 684.07 585.47 675.97 588.12 C 666.78 592.51 656.92 595.09 647.36 598.50 C 630.03 603.71 611.97 605.59 594.04 607.24 C 577.34 607.22 560.65 607.29 543.96 607.20 C 536.93 606.45 529.89 605.81 522.91 604.70 C 518.63 604.21 514.31 604.80 510.03 604.34 C 506.05 597.21 503.10 589.58 499.85 582.11 C 493.65 570.75 487.20 559.53 480.47 548.48 C 474.91 539.84 468.50 531.81 462.40 523.56 C 457.44 518.17 453.37 512.02 447.92 507.08 C 440.22 499.79 433.31 491.64 425.01 485.01 C 406.23 469.04 385.17 455.86 363.13 444.88 C 346.22 437.56 328.82 430.30 310.35 428.21 C 311.11 423.08 310.87 417.82 309.16 412.90 C 305.50 400.91 304.22 388.41 302.04 376.11 C 300.64 368.81 300.98 361.34 299.72 354.02 C 299.50 342.01 299.62 329.98 299.67 317.96 C 300.84 309.01 300.98 299.94 303.04 291.12 C 305.80 272.77 311.42 254.91 319.11 238.05 C 324.93 226.63 331.18 215.29 339.34 205.34 C 340.89 203.54 342.39 201.62 344.41 200.33 Z" />
<path fill="#fdfdfd" d=" M 327.00 242.80 C 329.02 237.86 332.08 233.46 335.03 229.05 C 329.02 249.22 320.65 268.79 317.57 289.72 C 316.29 295.55 317.14 301.60 315.69 307.41 C 314.50 312.60 315.92 317.80 316.54 322.95 C 316.56 338.36 321.55 353.15 326.68 367.50 C 331.70 379.65 337.39 391.59 344.35 402.76 C 347.27 402.58 350.54 402.99 352.95 400.94 C 367.26 391.06 381.84 381.53 397.11 373.20 C 410.26 366.85 423.26 360.17 436.94 355.01 C 450.25 350.88 463.46 346.22 477.29 344.12 C 486.93 342.80 496.75 341.08 506.47 342.64 C 515.04 344.03 523.86 345.28 531.68 349.29 C 537.28 352.21 543.34 354.57 547.99 358.99 C 552.87 363.82 558.18 368.40 561.53 374.52 C 568.81 385.05 572.16 397.62 574.43 410.05 C 575.15 417.24 576.72 424.48 575.50 431.71 C 574.28 437.52 575.00 443.53 573.67 449.32 C 572.30 460.89 568.96 472.08 566.12 483.34 C 561.88 496.10 558.08 509.06 552.37 521.27 C 548.29 531.59 543.19 541.44 538.40 551.43 C 536.29 555.87 532.95 559.67 531.36 564.35 C 530.59 566.37 531.18 569.00 533.43 569.74 C 553.46 578.97 574.89 586.04 597.01 587.46 C 613.08 587.13 629.58 589.02 645.19 584.19 C 660.13 580.89 673.88 574.00 687.76 567.79 C 695.51 564.98 702.50 560.50 710.02 557.16 C 705.38 562.01 699.23 564.92 693.86 568.83 C 688.85 572.50 683.02 574.75 677.56 577.63 C 666.30 583.98 653.83 587.73 641.61 591.74 C 630.47 595.18 618.95 597.04 607.51 599.12 C 599.37 600.02 591.20 600.39 583.03 600.50 C 575.73 601.76 568.20 602.50 560.86 601.08 C 554.65 599.73 548.26 600.78 541.99 600.04 C 533.50 599.18 524.89 598.47 516.63 596.24 C 514.76 593.89 513.79 591.00 512.65 588.27 C 505.24 571.40 495.82 555.52 486.02 539.95 C 477.83 529.19 470.46 517.71 461.00 507.99 C 446.86 490.44 429.25 476.07 411.12 462.84 C 393.55 450.66 374.71 440.29 354.96 432.08 C 343.38 428.00 331.74 423.92 319.69 421.43 C 318.09 410.25 314.60 399.47 312.72 388.35 C 311.14 378.97 309.27 369.61 308.87 360.08 C 307.24 351.47 307.96 342.70 307.84 334.00 C 307.93 326.89 307.33 319.72 308.64 312.68 C 309.84 297.86 313.03 283.26 317.10 268.98 C 319.03 259.78 323.63 251.50 327.00 242.80 Z" />
<path fill="#212121" d=" M 714.84 291.69 C 722.47 290.20 730.27 290.83 738.00 290.74 C 744.01 290.78 750.01 290.66 756.03 290.72 C 760.72 290.71 765.30 292.01 770.00 292.04 C 775.00 292.10 779.89 293.21 784.77 294.20 C 802.76 296.97 820.12 304.26 834.47 315.49 C 839.44 320.21 844.78 324.74 848.42 330.64 C 850.46 333.87 852.77 336.93 854.70 340.24 C 861.78 355.14 865.27 371.54 866.36 387.94 C 866.17 399.30 867.18 410.77 865.40 422.05 C 864.29 440.47 859.74 458.43 856.75 476.59 C 856.06 479.38 855.78 482.60 853.66 484.76 C 851.93 485.18 850.16 485.30 848.42 485.52 C 845.62 496.22 844.82 507.44 840.84 517.81 C 838.42 517.86 836.00 517.87 833.60 517.86 C 833.31 512.39 834.86 507.10 835.89 501.79 C 838.73 487.36 841.30 472.79 841.84 458.07 C 842.90 452.27 843.37 446.28 842.27 440.45 C 841.16 435.18 841.97 429.72 840.71 424.48 C 837.70 405.99 831.23 387.49 818.88 373.11 C 814.45 366.90 808.13 362.46 802.15 357.88 C 784.30 347.25 763.77 341.25 743.00 340.52 C 737.54 339.73 731.97 338.50 726.47 339.76 C 721.14 341.13 715.59 340.34 710.19 341.09 C 703.06 342.24 695.83 342.66 688.73 343.93 C 676.70 346.60 664.50 348.51 652.63 351.85 C 645.70 353.91 638.49 354.96 631.72 357.59 C 616.17 362.87 600.52 367.91 585.35 374.22 C 582.60 375.07 578.86 375.65 576.80 373.15 C 570.73 367.24 568.53 358.46 569.21 350.21 C 579.18 348.52 588.69 344.98 598.45 342.46 C 595.74 341.89 592.43 342.69 590.20 340.76 C 584.33 334.68 581.38 326.02 582.33 317.61 C 596.79 313.63 611.33 309.89 625.87 306.15 C 646.13 301.78 666.32 296.70 687.00 294.65 C 696.24 293.30 705.51 292.14 714.84 291.69 Z" />
<path fill="#fdfdfd" d=" M 718.72 298.51 C 726.05 297.00 733.57 297.75 741.00 297.62 C 747.27 297.74 753.59 297.18 759.84 297.99 C 767.78 299.42 775.96 299.25 783.78 301.40 C 793.11 303.88 802.35 306.89 811.12 310.96 C 817.06 314.55 823.56 317.51 828.42 322.60 C 832.54 326.44 836.50 330.46 840.11 334.80 C 834.66 330.26 830.44 324.29 824.22 320.71 C 809.35 310.55 791.91 304.46 774.12 302.10 C 765.52 300.30 756.71 301.08 748.00 300.93 C 739.01 301.08 730.00 300.62 721.02 301.15 C 702.07 303.56 683.07 306.22 664.66 311.48 C 640.89 316.15 618.41 325.47 595.44 332.93 C 593.61 329.80 591.85 326.48 592.00 322.74 C 600.40 321.56 608.24 318.12 616.61 316.80 C 643.78 309.86 671.18 303.48 699.05 300.03 C 705.58 299.13 712.18 299.27 718.72 298.51 Z" />
<path fill="#fdfdfd" d=" M 735.88 307.70 C 741.93 306.38 748.16 306.15 754.22 307.60 C 770.62 308.03 786.90 311.74 802.01 318.11 C 809.02 321.38 816.01 324.94 821.79 330.18 C 828.26 334.71 832.83 341.23 837.46 347.51 C 840.82 352.13 843.78 357.08 845.54 362.55 C 850.11 373.53 853.13 385.14 854.45 396.96 C 854.32 405.20 857.08 413.36 855.37 421.60 C 853.98 427.44 855.21 433.54 853.73 439.36 C 852.61 430.55 854.19 421.60 852.45 412.84 C 851.85 404.18 849.53 395.81 847.47 387.43 C 844.01 377.38 839.01 367.85 832.45 359.47 C 826.21 352.68 819.66 345.90 811.51 341.40 C 796.26 331.94 778.44 327.68 760.85 325.14 C 753.53 324.97 746.34 323.14 739.00 323.47 C 728.34 323.72 717.67 323.15 707.03 323.72 C 700.39 325.02 693.58 324.64 686.93 325.79 C 675.96 326.62 665.20 328.98 654.32 330.43 C 642.35 332.06 630.63 335.02 618.87 337.69 C 612.07 338.75 605.61 341.52 598.70 341.91 C 602.48 339.12 606.99 337.69 611.39 336.20 C 630.68 329.67 649.82 322.56 669.64 317.79 C 691.54 313.44 713.44 307.98 735.88 307.70 Z" />
<path fill="#fdfdfd" d=" M 680.71 333.89 C 691.07 332.24 701.55 331.76 711.93 330.36 C 722.94 330.35 733.97 330.18 744.98 330.45 C 753.29 331.68 761.67 332.55 769.90 334.27 C 779.55 335.94 788.62 339.85 797.61 343.59 C 803.10 346.54 808.52 349.75 813.40 353.65 C 818.21 358.14 823.03 362.68 827.14 367.84 C 823.01 364.66 819.82 360.48 815.87 357.12 C 797.76 342.78 774.84 335.71 752.04 333.83 C 740.03 333.68 728.02 333.89 716.01 333.76 C 706.91 333.43 697.97 335.34 689.00 336.50 C 667.84 339.30 647.30 345.28 626.70 350.65 C 616.48 354.07 606.28 357.56 596.05 360.96 C 591.48 362.38 587.32 365.11 582.53 365.74 C 580.75 363.08 579.32 360.14 578.56 357.03 C 579.30 355.36 581.22 355.25 582.77 354.80 C 599.68 350.96 616.28 345.84 633.27 342.36 C 648.94 338.81 664.70 335.45 680.71 333.89 Z" />
<path fill="#fdfdfd" d=" M 843.23 339.26 C 843.74 339.78 843.74 339.78 843.23 339.26 Z" />
<path fill="#212121" d=" M 173.03 419.55 C 178.08 419.76 182.93 418.01 187.97 418.12 C 201.98 418.15 215.99 418.21 230.00 418.10 C 236.42 417.85 242.62 420.00 249.05 419.61 C 256.64 420.38 264.22 421.34 271.82 422.06 C 289.01 425.22 306.22 428.61 322.85 434.08 C 332.93 437.70 343.45 440.06 353.05 444.93 C 363.12 448.74 372.41 454.21 382.15 458.74 C 394.41 464.69 405.52 472.64 416.83 480.16 C 423.25 485.40 429.95 490.33 436.02 495.98 C 441.62 502.06 448.14 507.30 453.07 513.98 C 474.55 539.48 492.19 568.20 504.99 598.99 C 509.64 610.62 514.56 622.20 517.62 634.38 C 521.55 646.17 524.56 658.27 526.48 670.55 C 529.25 683.90 531.23 697.40 532.49 710.96 C 532.15 717.38 534.31 723.58 533.98 730.00 C 533.73 747.33 534.21 764.67 533.76 781.99 C 532.18 788.96 532.95 796.17 531.57 803.16 C 529.85 817.28 528.34 831.48 525.13 845.35 C 523.03 844.96 520.45 845.70 518.70 844.35 C 515.17 837.63 517.77 829.82 516.17 822.69 C 514.49 815.70 516.21 808.43 514.71 801.43 C 513.37 795.22 514.45 788.81 513.30 782.58 C 512.49 778.15 512.90 773.62 512.42 769.17 C 511.30 761.85 510.52 754.48 509.69 747.12 C 505.17 714.50 498.44 682.02 486.75 651.14 C 484.01 644.74 482.38 637.91 479.20 631.69 C 476.43 626.36 474.58 620.60 471.67 615.33 C 464.78 602.42 458.24 589.24 449.64 577.34 C 443.37 567.18 435.97 557.77 428.44 548.52 C 423.72 543.56 419.80 537.89 414.79 533.21 C 409.09 527.90 404.13 521.78 397.82 517.15 C 383.79 506.54 368.97 497.00 353.76 488.19 C 337.52 480.02 321.19 471.92 304.00 465.91 C 295.46 462.04 286.21 460.31 277.29 457.58 C 256.58 451.80 235.41 447.93 214.07 445.46 C 208.22 444.12 202.20 444.56 196.28 443.85 C 190.25 442.71 184.10 443.12 178.00 443.09 C 163.67 443.09 149.33 443.10 135.00 443.09 C 129.53 443.10 124.01 442.76 118.61 443.79 C 110.60 445.15 102.44 443.54 94.43 444.73 C 86.31 446.49 77.96 445.46 69.73 445.64 C 69.75 443.79 69.70 441.95 69.76 440.12 C 72.76 438.03 76.52 437.75 79.90 436.60 C 91.55 432.93 103.56 430.61 115.37 427.51 C 129.84 424.82 144.28 421.70 159.01 420.84 C 163.70 420.59 168.31 419.39 173.03 419.55 Z" />
<path fill="#fdfdfd" d=" M 174.99 426.01 C 189.62 424.61 204.32 425.26 219.00 425.13 C 245.37 424.49 271.53 429.11 297.10 435.14 C 312.09 439.36 327.29 443.16 341.58 449.44 C 345.61 451.11 349.72 452.57 353.73 454.30 C 368.20 461.13 382.62 468.19 395.98 477.05 C 403.43 480.99 409.73 486.63 416.59 491.45 C 421.83 495.14 425.98 500.11 431.17 503.86 C 435.08 506.63 437.45 510.88 440.65 514.34 C 448.86 522.24 455.34 531.68 462.17 540.74 C 468.02 549.90 474.38 558.75 479.67 568.26 C 484.17 576.84 489.29 585.14 492.77 594.23 C 506.13 622.40 514.73 652.59 520.61 683.14 C 522.42 697.39 524.04 711.67 525.68 725.93 C 525.81 742.62 525.62 759.32 525.76 776.02 C 526.00 781.40 524.03 786.59 524.36 791.98 C 524.56 795.25 524.30 798.56 522.57 801.43 C 521.73 794.21 522.81 786.87 521.26 779.72 C 519.59 756.57 516.77 733.45 512.30 710.65 C 510.15 699.72 507.45 688.93 504.89 678.10 C 502.14 667.80 498.52 657.77 495.31 647.62 C 492.19 639.30 488.62 631.16 485.34 622.91 C 470.37 589.83 450.87 558.59 426.08 531.94 C 421.63 526.12 416.29 521.07 411.02 516.00 C 394.39 502.85 376.81 490.84 358.11 480.82 C 352.84 477.45 347.12 474.97 341.33 472.66 C 329.70 466.36 317.18 462.01 304.85 457.32 C 298.74 455.37 292.48 453.90 286.44 451.73 C 260.51 444.59 233.92 439.36 207.04 437.90 C 200.29 438.28 193.73 436.27 187.00 436.55 C 166.32 436.71 145.64 436.45 124.96 436.66 C 118.91 437.50 112.81 438.37 106.68 437.70 C 129.13 432.18 151.94 427.79 174.99 426.01 Z" />
<path fill="#212121" d=" M 253.02 475.58 C 265.63 474.41 278.38 474.24 290.99 475.50 C 299.85 475.74 308.62 477.27 317.20 479.46 C 330.97 482.20 343.88 487.79 356.74 493.24 C 362.13 495.61 367.01 498.95 372.18 501.75 C 379.46 505.52 385.99 510.54 392.53 515.44 C 397.36 518.91 401.17 523.55 406.01 527.01 C 416.48 535.92 425.26 546.58 433.42 557.59 C 438.65 564.24 442.41 571.87 447.13 578.87 C 460.53 604.12 468.77 632.33 469.33 661.00 C 469.09 671.02 469.87 681.09 468.54 691.06 C 468.00 701.59 465.59 711.91 463.01 722.10 C 459.47 736.62 453.99 750.57 448.42 764.41 C 444.88 771.53 441.16 778.55 437.70 785.71 C 430.62 798.09 423.39 810.42 414.99 821.96 C 404.23 837.62 391.93 852.15 379.53 866.52 C 376.61 869.59 373.37 872.38 370.76 875.75 C 365.68 882.59 359.09 888.09 353.24 894.24 C 347.72 899.42 342.86 905.36 336.71 909.84 C 331.49 913.86 327.49 919.23 322.30 923.28 C 317.17 927.11 313.12 932.21 307.68 935.64 C 305.41 937.41 302.14 937.74 299.54 936.57 C 297.86 935.63 297.84 933.19 298.70 931.72 C 301.32 928.01 304.89 925.10 308.55 922.48 C 311.46 920.37 313.45 917.35 315.65 914.59 C 320.87 908.54 327.31 903.63 332.09 897.20 C 349.00 877.45 365.07 856.85 378.50 834.55 C 384.95 824.12 390.65 813.25 396.25 802.35 C 400.07 793.49 404.00 784.67 407.49 775.68 C 410.40 766.07 413.33 756.44 415.81 746.71 C 418.65 735.66 418.71 724.15 420.96 713.01 C 413.00 718.20 406.24 724.98 398.44 730.41 C 392.00 734.98 385.68 739.72 379.21 744.25 C 368.20 751.31 357.26 758.52 345.72 764.69 C 342.15 766.41 338.58 768.14 335.24 770.28 C 331.44 772.69 327.09 773.98 323.13 776.08 C 311.74 782.10 299.41 786.03 287.25 790.16 C 271.83 794.27 256.12 798.67 240.00 798.10 C 230.38 797.93 220.62 798.80 211.18 796.45 C 201.82 794.07 192.23 791.43 184.27 785.74 C 178.08 782.12 173.47 776.56 168.44 771.59 C 161.66 764.64 157.89 755.53 154.35 746.66 C 150.91 737.65 150.28 727.94 149.24 718.46 C 147.14 707.02 149.67 695.56 150.13 684.12 C 154.14 655.10 162.86 626.77 175.21 600.23 C 185.99 574.99 200.28 551.49 214.90 528.34 C 209.13 530.03 203.14 530.80 197.32 532.28 C 177.51 536.87 158.83 545.34 141.05 555.03 C 130.43 560.42 120.76 567.42 110.81 573.92 C 99.38 582.33 88.13 591.02 77.53 600.46 C 72.11 604.35 67.89 609.55 63.06 614.09 C 54.81 622.51 46.27 630.65 38.13 639.18 C 30.99 647.68 23.63 656.01 16.74 664.73 C 14.66 667.37 12.95 670.33 10.58 672.76 C 8.06 673.59 5.30 673.02 2.69 673.06 C 2.04 669.01 3.97 665.59 6.47 662.61 C 17.41 645.48 30.08 629.55 42.51 613.51 C 48.47 607.10 53.35 599.76 59.53 593.53 C 62.96 589.94 65.77 585.80 69.41 582.40 C 80.54 571.54 91.37 560.37 102.47 549.47 C 111.29 542.27 119.51 534.32 128.90 527.82 C 137.86 521.38 146.63 514.57 156.35 509.27 C 165.66 503.26 175.78 498.69 185.64 493.69 C 192.25 490.98 198.86 488.26 205.51 485.66 C 221.03 481.03 236.72 476.29 253.02 475.58 Z" />
<path fill="#fdfdfd" d=" M 238.87 485.01 C 254.22 482.03 269.92 479.88 285.55 481.69 C 297.28 483.33 309.14 484.79 320.46 488.46 C 330.81 491.18 340.57 495.64 350.46 499.65 C 364.41 506.77 377.91 514.97 389.96 525.02 C 395.54 529.05 399.89 534.46 405.12 538.91 C 416.83 550.43 427.21 563.37 435.38 577.66 C 438.39 583.51 442.51 588.78 444.84 594.98 C 448.27 603.95 452.26 612.75 454.77 622.05 C 456.50 629.44 458.77 636.72 459.62 644.30 C 460.27 650.20 461.91 656.01 461.61 662.00 C 461.26 671.04 462.41 680.21 460.49 689.14 C 458.87 705.58 454.84 721.70 449.18 737.20 C 440.24 763.80 426.68 788.70 410.75 811.73 C 406.66 818.50 401.35 824.42 397.00 831.02 C 389.48 840.46 382.14 850.11 373.93 858.96 C 384.14 843.17 394.32 827.29 402.42 810.28 C 408.15 799.50 412.13 787.94 416.54 776.59 C 422.49 758.69 426.94 740.09 427.72 721.19 C 429.47 713.15 429.64 704.78 428.20 696.67 C 427.44 692.61 427.78 688.46 427.26 684.38 C 425.11 671.22 422.19 658.10 417.28 645.67 C 413.78 638.23 411.27 630.30 406.70 623.40 C 399.22 610.30 389.81 598.43 379.87 587.13 C 373.07 580.59 366.82 573.43 359.24 567.75 C 345.48 555.98 330.53 545.48 314.09 537.78 C 307.26 534.41 300.49 530.78 293.11 528.73 C 280.11 524.49 266.69 521.36 253.03 520.50 C 242.67 520.53 232.32 520.46 221.96 520.52 C 193.94 523.08 166.61 531.68 141.68 544.64 C 117.87 556.89 96.18 572.77 75.61 589.80 C 79.39 583.36 85.59 578.95 90.55 573.50 C 96.82 567.45 102.53 560.79 109.54 555.56 C 130.17 536.60 153.19 520.25 177.91 507.05 C 186.15 503.14 194.06 498.46 202.84 495.75 C 214.39 490.77 226.60 487.66 238.87 485.01 Z" />
<path fill="#fdfdfd" d=" M 236.59 527.11 C 242.28 527.17 247.99 527.17 253.67 527.62 C 265.69 529.64 277.69 532.05 289.26 535.91 C 313.67 545.05 335.92 559.37 355.49 576.49 C 360.10 581.23 366.02 584.63 369.86 590.12 C 373.05 594.57 377.58 597.84 380.70 602.36 C 390.71 614.22 398.78 627.57 405.56 641.48 C 409.48 650.82 413.44 660.27 415.47 670.25 C 414.66 667.87 413.36 665.69 412.83 663.23 C 410.88 655.00 406.72 647.54 403.31 639.86 C 396.76 627.20 388.53 615.46 379.72 604.28 C 373.06 597.59 367.75 589.62 360.27 583.73 C 355.66 580.36 351.93 575.95 347.18 572.75 C 334.72 562.45 321.28 553.30 306.85 546.01 C 296.28 541.64 285.98 536.32 274.67 534.02 C 263.43 530.65 251.73 529.11 240.02 528.59 C 232.58 528.40 225.12 528.96 217.69 528.25 C 223.87 526.66 230.29 527.57 236.59 527.11 Z" />
<path fill="#fdfdfd" d=" M 222.21 535.15 C 238.87 534.25 255.54 536.71 271.53 541.32 C 284.23 544.55 295.96 550.60 307.62 556.43 C 313.09 559.05 318.02 562.59 323.03 565.97 C 333.13 572.29 341.85 580.48 351.13 587.89 C 358.21 595.15 365.96 601.83 372.08 609.96 C 381.22 620.49 388.94 632.27 395.02 644.82 C 403.84 660.93 409.40 678.77 411.42 697.02 C 411.69 700.20 412.74 703.30 412.61 706.53 C 410.18 710.41 405.98 712.63 402.64 715.63 C 388.21 726.69 373.69 737.69 358.09 747.08 C 348.26 753.48 338.06 759.33 327.42 764.28 C 302.98 777.52 276.23 786.52 248.76 790.72 C 240.86 791.44 232.90 791.07 224.98 791.00 C 207.05 789.22 189.29 781.46 177.02 768.04 C 173.71 763.65 170.09 759.43 167.49 754.56 C 162.39 743.75 158.70 732.21 157.65 720.25 C 155.17 708.07 157.41 695.73 158.74 683.58 C 160.23 672.26 163.76 661.37 166.05 650.22 C 168.98 639.80 173.00 629.73 176.73 619.58 C 179.70 612.30 183.30 605.30 186.08 597.95 C 189.84 589.64 194.09 581.54 198.81 573.73 C 203.33 564.48 208.90 555.81 214.10 546.95 C 216.53 542.83 219.41 539.01 222.21 535.15 Z" />
<path fill="#fdfdfd" d=" M 417.08 678.51 C 418.50 678.65 418.75 679.30 417.83 680.47 C 416.40 680.32 416.15 679.66 417.08 678.51 Z" />
<path fill="#212121" d=" M 0.94 961.78 C 30.97 961.47 61.01 961.75 91.05 961.63 C 97.94 961.33 103.90 966.39 106.52 972.46 C 109.26 978.96 107.92 986.15 108.21 993.00 C 108.14 1001.22 109.31 1010.75 103.42 1017.42 C 98.44 1022.81 90.51 1022.65 83.86 1024.23 C 94.45 1032.97 105.31 1041.40 116.03 1049.99 C 117.84 1051.49 116.92 1054.15 117.26 1056.20 C 107.85 1056.70 98.42 1056.30 89.00 1056.46 C 85.72 1056.42 82.41 1056.69 79.16 1056.18 C 75.90 1054.06 73.50 1050.90 70.37 1048.62 C 64.12 1043.91 59.42 1037.47 53.03 1032.94 C 49.36 1030.28 47.10 1025.82 42.86 1023.98 C 38.35 1023.26 33.76 1023.79 29.21 1023.82 C 29.12 1034.60 29.49 1045.40 28.99 1056.18 C 19.65 1056.63 10.29 1056.49 0.95 1056.29 C 0.79 1024.78 0.81 993.28 0.94 961.78 Z" />
<path fill="#212121" d=" M 187.45 962.34 C 190.85 961.23 194.49 961.69 198.01 961.61 C 225.35 961.69 252.70 961.64 280.04 961.63 C 285.60 961.78 292.11 963.85 294.46 969.39 C 298.08 976.73 297.57 985.06 297.48 993.00 C 297.48 1007.01 297.46 1021.02 297.52 1035.03 C 297.39 1041.03 295.94 1047.35 292.24 1052.20 C 288.14 1055.82 282.31 1056.66 277.01 1056.49 C 249.32 1056.37 221.64 1056.45 193.95 1056.45 C 189.18 1056.23 183.93 1055.07 180.49 1051.53 C 177.51 1047.76 176.11 1042.84 176.18 1038.07 C 176.25 1021.38 176.23 1004.69 176.21 988.00 C 176.28 982.10 175.47 975.87 178.19 970.39 C 179.66 966.29 183.45 963.65 187.45 962.34 Z" />
<path fill="#212121" d=" M 401.82 965.77 C 402.84 964.13 403.67 961.61 406.02 961.77 C 414.96 961.42 423.94 961.69 432.89 961.74 C 437.84 970.53 442.77 979.32 448.19 987.83 C 454.88 1000.03 462.55 1011.66 469.14 1023.92 C 473.92 1031.51 478.14 1039.43 482.96 1047.00 C 484.78 1049.69 485.44 1052.92 485.37 1056.15 C 475.91 1056.63 466.43 1056.47 456.97 1056.39 C 453.85 1056.55 451.98 1053.65 450.60 1051.31 C 448.08 1046.43 445.25 1041.72 442.79 1036.82 C 427.50 1036.56 412.22 1036.82 396.93 1036.66 C 395.27 1036.85 393.08 1036.28 392.00 1037.95 C 387.79 1043.57 384.88 1050.03 381.91 1056.36 C 371.93 1056.32 361.92 1056.88 351.97 1055.99 C 352.07 1052.97 352.63 1049.94 354.36 1047.41 C 362.25 1035.10 368.97 1022.11 376.59 1009.65 C 380.89 1001.71 385.89 994.19 390.13 986.23 C 393.76 979.25 398.43 972.87 401.82 965.77 Z" />
<path fill="#212121" d=" M 542.78 971.92 C 544.72 965.57 551.47 961.42 557.95 961.61 C 582.98 961.67 608.01 961.67 633.04 961.61 C 637.84 961.41 642.60 963.64 645.84 967.13 C 648.57 970.75 649.53 975.47 649.44 979.94 C 649.39 985.61 649.56 991.27 649.32 996.94 C 639.96 999.39 630.17 1000.50 620.51 999.59 C 620.34 994.03 620.31 988.47 620.29 982.92 C 603.79 982.84 587.28 982.84 570.77 982.91 C 570.68 999.89 570.64 1016.86 570.79 1033.83 C 587.28 1033.83 603.78 1033.82 620.27 1033.84 C 620.37 1027.34 620.29 1020.84 620.51 1014.35 C 630.25 1013.48 639.42 1017.88 649.06 1018.53 C 649.57 1027.93 650.27 1037.59 647.96 1046.81 C 646.31 1053.78 638.37 1056.25 632.05 1056.45 C 608.02 1056.44 583.99 1056.39 559.96 1056.48 C 554.85 1056.48 549.36 1055.05 545.61 1051.41 C 542.45 1047.40 541.22 1042.09 541.35 1037.06 C 541.43 1020.37 541.40 1003.69 541.38 987.01 C 541.44 981.96 540.82 976.71 542.78 971.92 Z" />
<path fill="#212121" d=" M 720.47 962.14 C 730.00 961.19 739.60 961.68 749.16 961.82 C 749.85 973.10 749.25 984.40 749.48 995.70 C 769.06 995.80 788.63 995.69 808.21 995.75 C 808.66 984.42 807.82 973.06 808.70 961.75 C 818.58 961.57 828.45 961.62 838.33 961.71 C 838.97 993.16 838.42 1024.65 838.60 1056.12 C 828.65 1056.71 818.67 1056.43 808.71 1056.31 C 807.79 1043.65 808.69 1030.94 808.19 1018.27 C 788.57 1018.32 768.95 1018.27 749.33 1018.30 C 749.47 1030.94 749.75 1043.60 749.17 1056.24 C 739.70 1056.58 730.21 1056.49 720.73 1056.30 C 720.01 1045.88 720.56 1035.43 720.39 1025.00 C 720.44 1004.05 720.29 983.09 720.47 962.14 Z" />
<path fill="#fdfdfd" d=" M 8.19 967.19 C 32.14 967.18 56.10 967.19 80.05 967.17 C 85.76 967.52 91.90 968.90 96.28 972.79 C 101.74 980.04 99.39 989.61 99.94 998.01 C 100.54 1004.02 98.40 1010.78 93.04 1014.04 C 85.01 1018.27 75.72 1016.14 67.08 1017.17 C 67.15 1018.94 67.14 1020.75 67.42 1022.53 C 69.53 1025.14 72.56 1026.76 75.06 1028.95 C 83.99 1036.34 93.31 1043.25 102.20 1050.70 C 95.63 1050.36 87.57 1052.91 82.32 1047.72 C 78.34 1043.70 74.62 1039.38 70.11 1035.93 C 62.16 1030.27 56.84 1021.34 47.88 1017.04 C 39.02 1016.50 30.08 1016.69 21.21 1017.13 C 20.59 1028.37 21.07 1039.62 20.89 1050.87 C 16.65 1050.85 12.42 1050.84 8.18 1050.85 C 8.20 1022.96 8.17 995.08 8.19 967.19 Z" />
<path fill="#fdfdfd" d=" M 200.36 967.52 C 205.54 966.85 210.79 967.26 216.00 967.18 C 230.67 967.18 245.33 967.20 260.00 967.17 C 267.20 967.05 274.65 966.90 281.48 969.55 C 289.01 973.02 289.49 982.79 289.32 990.00 C 289.19 1004.68 289.37 1019.37 289.26 1034.05 C 288.82 1039.28 287.29 1045.46 282.43 1048.29 C 277.45 1049.81 272.18 1050.21 267.02 1050.80 C 248.35 1050.97 229.67 1050.76 211.00 1050.89 C 205.42 1051.06 199.92 1050.01 194.43 1049.22 C 188.62 1048.47 184.24 1042.74 184.45 1036.98 C 184.36 1019.31 184.51 1001.63 184.39 983.96 C 184.45 980.25 184.58 976.10 187.17 973.17 C 190.27 969.11 195.65 968.32 200.36 967.52 Z" />
<path fill="#fdfdfd" d=" M 412.24 967.23 C 416.36 967.24 420.51 966.84 424.61 967.42 C 426.70 969.05 427.77 971.57 429.14 973.78 C 443.81 999.65 459.49 1024.91 474.08 1050.82 C 469.79 1050.87 465.50 1050.86 461.21 1050.83 C 457.02 1044.50 454.18 1037.40 449.83 1031.17 C 429.87 1031.13 409.90 1031.23 389.94 1031.11 C 388.15 1031.15 386.32 1031.09 384.60 1031.62 C 382.33 1033.92 381.22 1037.04 379.83 1039.90 C 378.14 1043.73 375.91 1047.27 373.71 1050.82 C 370.35 1050.83 366.98 1050.82 363.62 1050.76 C 369.82 1038.81 377.19 1027.50 383.67 1015.71 C 393.31 999.63 402.16 983.05 412.24 967.23 Z" />
<path fill="#fdfdfd" d=" M 557.40 969.47 C 562.69 967.56 568.40 967.04 573.99 967.15 C 590.32 967.29 606.64 967.04 622.96 967.25 C 628.45 967.98 635.09 968.39 638.61 973.32 C 642.26 978.41 641.44 984.93 641.55 990.83 C 637.32 992.01 632.94 992.27 628.61 992.76 C 628.58 987.79 628.57 982.82 628.61 977.86 C 619.44 976.75 610.20 977.56 601.00 977.32 C 588.22 977.53 575.41 976.87 562.65 977.70 C 562.40 998.57 562.45 1019.46 562.62 1040.34 C 573.72 1041.24 584.87 1040.54 596.00 1040.75 C 606.75 1040.71 617.50 1040.84 628.25 1040.68 C 628.69 1034.50 628.58 1028.30 628.54 1022.12 C 632.84 1023.29 637.21 1024.18 641.52 1025.35 C 641.15 1031.13 642.60 1037.36 639.81 1042.74 C 638.55 1045.00 636.73 1047.07 634.46 1048.35 C 621.96 1051.95 608.83 1050.63 596.00 1050.86 C 583.84 1050.67 571.56 1051.71 559.57 1049.15 C 552.13 1048.16 549.08 1039.64 549.58 1033.03 C 549.69 1016.34 549.58 999.65 549.62 982.96 C 549.64 977.55 552.03 971.56 557.40 969.47 Z" />
<path fill="#fdfdfd" d=" M 728.32 967.22 C 733.15 967.17 737.97 967.17 742.80 967.19 C 742.83 978.89 742.76 990.59 742.84 1002.29 C 753.21 1002.97 763.61 1002.45 774.00 1002.61 C 788.07 1002.59 802.13 1002.65 816.20 1002.58 C 816.86 990.82 816.44 979.02 816.44 967.24 C 821.21 967.16 825.99 967.17 830.78 967.20 C 830.75 995.08 830.76 1022.96 830.78 1050.84 C 825.99 1050.87 821.21 1050.87 816.43 1050.79 C 816.48 1037.86 816.77 1024.92 816.28 1012.00 C 791.82 1011.66 767.35 1011.83 742.89 1011.92 C 742.70 1024.89 742.85 1037.86 742.81 1050.83 C 738.01 1050.87 733.21 1050.87 728.41 1050.79 C 728.32 1022.93 728.52 995.07 728.32 967.22 Z" />
<path fill="#212121" d=" M 21.15 976.71 C 39.76 976.10 58.39 976.67 77.00 976.41 C 80.78 976.21 85.99 976.67 86.68 981.33 C 87.59 988.09 87.33 995.05 86.88 1001.85 C 86.31 1006.55 81.23 1008.43 77.06 1008.11 C 58.45 1007.90 39.82 1008.47 21.22 1007.78 C 20.69 997.44 20.81 987.06 21.15 976.71 Z" />
<path fill="#212121" d=" M 197.31 977.83 C 204.84 976.88 212.44 977.45 220.00 977.32 C 238.62 977.40 257.23 977.17 275.84 977.44 C 276.82 984.59 276.28 991.81 276.39 999.00 C 276.35 1011.68 276.46 1024.36 276.38 1037.03 C 276.19 1038.22 276.51 1040.60 274.66 1040.54 C 268.46 1041.11 262.22 1040.60 256.00 1040.75 C 236.49 1040.63 216.97 1041.01 197.47 1040.55 C 197.11 1019.65 197.41 998.74 197.31 977.83 Z" />
<path fill="#212121" d=" M 413.94 978.60 C 416.22 978.67 418.51 978.64 420.78 978.97 C 422.77 980.48 423.84 982.83 424.98 985.00 C 428.43 992.16 432.73 998.87 436.09 1006.08 C 438.24 1010.85 442.77 1014.92 441.84 1020.61 C 429.26 1021.67 416.61 1020.81 404.00 1021.13 C 400.53 1020.97 396.83 1021.65 393.55 1020.33 C 391.36 1016.93 394.81 1013.37 396.37 1010.43 C 402.04 999.71 408.60 989.49 413.94 978.60 Z" />
<path fill="#fdfdfd" d=" M 29.23 982.97 C 43.17 982.74 57.11 982.97 71.05 982.82 C 73.68 982.88 77.17 982.60 78.47 985.48 C 79.18 989.77 79.14 994.24 78.52 998.56 C 77.22 1001.44 73.66 1001.03 71.06 1001.15 C 57.11 1001.00 43.17 1001.24 29.23 1000.99 C 29.22 994.98 29.21 988.97 29.23 982.97 Z" />
<path fill="#fdfdfd" d=" M 205.16 982.93 C 226.15 982.81 247.14 982.87 268.13 982.90 C 268.20 999.88 268.24 1016.85 268.11 1033.83 C 247.13 1033.82 226.15 1033.84 205.17 1033.82 C 205.14 1016.86 205.15 999.90 205.16 982.93 Z" />
<path fill="#fdfdfd" d=" M 404.92 1013.97 C 409.52 1006.66 413.08 998.77 417.84 991.56 C 421.70 999.14 426.29 1006.32 429.90 1014.03 C 421.57 1014.13 413.24 1014.22 404.92 1013.97 Z" />
<path fill="#212121" d=" M 865.54 1022.54 C 871.97 1018.05 880.73 1017.34 888.03 1019.89 C 894.18 1022.07 897.23 1028.46 898.49 1034.44 C 899.42 1039.24 897.34 1043.92 894.91 1047.94 C 892.25 1052.53 887.41 1055.09 883.63 1058.61 C 876.76 1065.02 868.66 1070.14 862.94 1077.71 C 873.11 1077.96 883.28 1077.66 893.46 1077.92 C 892.69 1080.64 891.89 1083.34 890.92 1086.00 L 850.26 1086.00 C 852.93 1080.82 854.37 1074.86 858.50 1070.54 C 863.63 1064.61 869.91 1059.88 876.11 1055.15 C 881.78 1050.33 888.34 1045.40 890.18 1037.79 C 890.55 1034.09 888.90 1030.26 886.34 1027.65 C 883.44 1024.53 878.61 1025.05 874.87 1025.93 C 869.15 1027.53 867.67 1033.90 865.83 1038.76 C 862.96 1038.23 860.09 1037.75 857.23 1037.27 C 859.21 1032.03 860.65 1025.93 865.54 1022.54 Z" />
</svg>
