<?xml version="1.0" encoding="utf-8"?>
<!-- Generator: Adobe Illustrator 16.0.0, SVG Export Plug-In . SVG Version: 6.00 Build 0)  -->
<!DOCTYPE svg PUBLIC "-//W3C//DTD SVG 1.1//EN" "http://www.w3.org/Graphics/SVG/1.1/DTD/svg11.dtd">
<svg version="1.1" id="Layer_1" xmlns="http://www.w3.org/2000/svg" xmlns:xlink="http://www.w3.org/1999/xlink" x="0px" y="0px"
	 width="841.89px" height="1190.55px" viewBox="0 0 841.89 1190.55" enable-background="new 0 0 841.89 1190.55"
	 xml:space="preserve">
<g>
	<rect x="242.545" y="533.558" width="170.455" height="170.08"/>
	<rect x="429.997" y="346.469" width="170.454" height="170.079"/>
	<rect x="242.545" y="346.469" width="170.455" height="170.079"/>
	<polygon fill="#FFFFFF" points="248.057,378.287 274.291,352.129 380.53,352.129 406.854,378.376 406.854,396.136 367.209,396.136 
		367.209,381.746 287.877,381.746 287.877,415.781 380.597,415.781 406.858,441.965 406.858,484.198 380.603,510.375 
		274.033,510.375 248.082,484.5 248.082,465.687 287.877,465.687 287.877,481.359 367.122,481.359 367.122,445.408 273.992,445.408 
		248.056,419.548 	"/>
	<g>
		<rect x="436.14" y="351.947" fill="#FFFFFF" width="39.63" height="158.039"/>
		<polygon fill="#FFFFFF" points="462.163,430.894 540.838,351.948 594.264,351.948 514.635,430.894 594.264,510.072 
			540.738,510.072 		"/>
	</g>
	<g>
		<rect x="280.485" y="632.589" fill="#FFFFFF" width="110.449" height="35.879"/>
		<polygon fill="#FFFFFF" points="367.507,539.652 248.827,658.202 248.827,697.542 261.068,697.542 367.147,591.505 
			367.147,697.542 406.719,697.542 406.719,539.652 		"/>
	</g>
	<g>
		
			<rect x="438.89" y="541.969" transform="matrix(0.9563 -0.2924 0.2924 0.9563 -160.4128 180.6257)" width="170.454" height="170.079"/>
		<path fill="#E39717" d="M498.903,554.632l-1.248,0.447l-0.759,0.726l-1.349,0.07l-1.217-0.471l-0.925,0.582l-1.534-0.455
			l-1.465,0.916l-1.506,0.078l-0.591-0.657l-2.757,0.524l-1.946,0.789l-1.507,0.078l-1.723,0.547l-2.158,1.335l-2.396,1.346
			l-1.472,0.763l-2.063,0.106l-0.816-0.417l-1.087,0.516l-1.665,0.086l-1.815-1.282l-1.184,0.214l-1.112,3.114l-0.74,1.032
			l-1.472,0.764l-1.773,1.085l-1.34,1.75l0.023,0.457l-1.164,2.123l0.091,1.753l0.027,0.534l0.052,0.991l-1.108,1.662l-1.669,1.538
			l-0.6,0.719l-2.183,0.877l-0.792,0.041l-0.969,1.272l0.056,1.067l-0.746,0.956l-1.392,0.759l-0.271,0.931l-0.479,1.477
			l0.035,0.686l-1.206,1.286l-0.944,1.729l-0.255,1.236l-0.684,0.647l0.048,0.914l-1.011,0.435l-0.314,1.621l0.032,0.609l0.82,0.492
			l0.753,0.726l0.365,0.898l-0.347,1.011l0.358,0.746l0.205,0.906l0.297,1.131l-0.151,1.689l-0.346,1.012l-0.099,1.15l-0.266,1.007
			l-0.358,0.783l-0.583,1.023l0.027,0.533l0.047,0.915l0.754,0.725l0.047,0.915l0.051,0.99l0.143,1.216c0,0,0.991,0.713,1.312,0.773
			c0.323,0.06,1.219,0.472,1.219,0.472l0.517,0.737l0.91,0.718l0.931,1.098l0.905,0.564l0.987,0.637l0.702,1.263l0.55,1.423
			l0.45,1.048l0.9,0.487l1.136,0.399l1.319,0.926l1.142,0.553l1.407,1.074l1.396,0.845l1.479,0.916l1.462,0.613l1.369,0.312
			l1.011-0.435l1.635-0.695l1.261-0.218l1.733-0.319l1.487-0.458l1.609,0.374l0.878,0.031l1.196,0.091l0.96,0.103l1.547-0.844
			l0.861-0.273l1.642-0.543l1.738-0.243l0.84-0.654l2.428-0.737l2.058-0.181l1.513-0.003l1.435,0.079l0.845,0.95l0.941,1.326
			l0.362,0.822l0.892,0.336l1.349-0.069l1.27-0.065l1.348-0.07l1.396-0.683l1.063,0.556l0.919,0.869l0.765,0.954l0.056,1.066
			l-0.439,0.712l0.521,0.889l-0.578,1.1l0.692,1.11l0.043,0.839l-0.601,0.643l-0.177,1.232l-0.422,1.091l-0.451,0.482l0.679,0.809
			l0.526,0.964l0.761,0.877l0.742,0.496l1.073,0.785l1.092,1.09l1.018,1.246l0.69,1.034l0.673,0.73l0.06,1.143l0.757,0.801
			l0.035,0.687l1.091,1.09l0.539,1.194l0.614,1.115l0.031,0.61l-0.821,1.035l0.361,0.823l0.598,0.809l0.508,0.585l0.779,1.26
			l0.044,0.837l-0.567,1.328l-0.417,1.169l-1.074,0.743l-0.505,1.021l-0.401,1.472l-0.174,1.231l-0.175,1.231l-0.584,1.023
			l-0.274,0.854l0.043,0.839l-0.023,1.071l0.63,1.42l-0.376,0.401l0.507,0.585l0.679,0.805l0.998,0.866l0.526,0.966l0.638,1.572
			l0.536,1.118l0.694,1.11l0.776,1.183l0.69,1.035l0.043,0.839l0.06,1.144l0.063,1.219l0.748,0.649l0.044,0.837l0.047,0.916
			l0.056,1.067l0.606,0.962l0.052,0.99l0.678,0.806l0.043,0.838l0.906,0.642l0.052,0.99l1.061,0.48l0.604,0.962l0.75,0.649
			l0.464,1.275l0.686,0.958l0.06,1.142l0.748,0.65l0.365,0.897l0.385,0.898l0.807,0.645l0.043,0.839l0.04,0.763l0.027,0.533
			l-0.756,0.344l0.039,0.763l0.795,0.417l0.521,0.813l0.027,0.535l0.953-0.05l0.678,0.806l0.741,0.496l0.741,0.497l0.923-0.583
			l0.774-0.421l1.194,0.014l1.013-0.053l0.291-0.855l0.926-0.582l1.272,0.011l1.206,0.242l1.664-0.086l1.282,0.164l1.083-0.591
			l0.766-0.574l0.973,0.332l0.53-0.486l1.468-0.84l1.364-1.292l1.381-0.99l1.127-1.28l1.364-1.293l1.033-1.582l1.015-1.886
			l0.488-1.324l1.088-0.516l1.114-1.509l0.492-1.249l0.325-1.392l-0.059-1.144l0.505-1.02l-0.734-0.344l-0.047-0.915l0.663-1.028
			l1.166-0.519l1.399-0.606l1.392-0.76l0.838-0.73l0.317-1.545l-0.087-1.678l-0.043-0.838l-0.679-0.805l-0.142-1.216l-0.761-0.878
			l-0.701-1.263l0.516-0.791l0.904-0.963l0.496-1.172l1.345-0.146l0.893-1.192l1.647-1.996l1.551-0.768l1.099-0.285l1.775-1.009
			l0.886-1.345l0.822-1.037l-0.047-0.914l0.57-1.252l-0.45-1.047l0.313-1.621l-0.438-0.818l0.32-1.469l-0.797-1.563l0.029-0.994
			l-1.169-1.085l-1.103-1.319l0.257-1.16l-0.617-1.19l-0.123-0.834l0.097-1.227l0.369-0.556l-0.917-0.793l-0.975-0.407l0.179-1.156
			l0.313-1.62l0.43-0.939l0.693-0.417l0.412-1.245l0.505-1.02l0.108-0.999l1.011-0.435l0.258-1.159l1.412-0.379l0.803-1.417
			l0.883-1.344l1.132-1.205l1.365-1.293l1.579-1.763l2.015-1.021l1.234-0.751l0.979-1.045l0.984-0.968l1.136-1.125l0.65-1.26
			l0.957-1.502l1.114-1.509l0.567-1.328l0.719-1.489l1.171-1.971l0.806-1.34l0.619-1.867l-0.06-1.143l0.604-0.643l-0.448-0.97
			l0.346-1.012l-0.658-0.425l-1.53,1.15l-0.842,0.654l-1.995-0.127l-1.254,0.371l-1.816,0.246l-1.261,0.218l-1.649,0.391
			l-1.223,0.981l-1.665,0.086l-1.95-0.817l-0.683-0.882l-0.226-1.287l0.191-0.927l-0.842-0.874l-1.232-0.777l-0.685-0.958
			l-1.654-1.213l-0.833-0.721l-1.436-0.079l-1.055-0.403l-0.686-0.959l-0.805-1.716l-0.406-1.736l-0.857-1.178l-1.169-1.087
			l-1.482-0.993l-0.491-1.809l-0.44-0.817l-0.182-1.978l-0.459-1.199l-0.39-1.354l-1.55-0.761l-0.931-1.099l-0.377-1.127
			l0.028-0.995l-1.019-1.247l-0.861-1.253l-0.525-0.966l-1.011-1.094l-0.223-1.211l-0.61-1.039l-0.138-1.139l-1.158-0.857
			l-0.454-1.123l-0.941-1.251l-0.593-0.733l-0.052-0.991l-0.77-1.03l0.024-1.071l-0.75-0.648l-0.899-0.489l-0.842,0.654
			l-1.476,0.688l-1.229,0.828l-1.122-0.172l-0.737-0.42l-2.002-0.278l-1.139-0.476l-2.562-0.327l-1.726,0.471l-0.189-0.602
			l-0.357-0.745l-1.877,0.632l-1.065-0.633l-1.302-0.544l-0.117-0.759l-1.211-0.319l-0.604,0.643l-0.796-0.035l-1.104,0.21
			l-0.994,0.738l-1.5,0.231l-1.341,0.222l-0.761,0.651l-1.246,0.523l-1.399,0.606l-1.892,0.327l-1.738,0.243l-0.715,0.037
			l-0.768-1.03l-0.218-1.135l-0.82-0.493l-1.297-0.469l-1.92-0.206l-1.266,0.142l-1.07-0.708l-1.645,0.466l-0.991-0.712
			l-1.377-0.464l-1.324-1.001l-0.301-1.207l0.78-0.271l1.164-0.595l0.499-1.096l0.191-0.926l-0.773-1.107l-0.364-0.897l0.373-0.478
			l-0.048-0.916l-0.88-0.107L498.903,554.632z"/>
		<polygon fill="#E39717" points="578.014,664.717 578.363,663.693 579.015,662.653 578.963,661.65 580.568,661.567 581.42,660.517 
			582.825,660.444 583.877,659.384 585.251,658.708 586.001,657.663 586.632,656.222 587.483,655.173 588.123,653.931 
			588.076,653.027 589.034,652.073 590.405,653.311 590.468,654.515 591.138,655.789 591.301,656.987 591.357,658.092 
			591.877,658.416 591.947,659.771 590.896,658.92 590.221,659.458 590.198,660.969 590.345,661.867 589.568,662.41 
			589.821,663.403 589.782,664.612 589.423,665.436 589.088,666.762 588.849,667.982 588.727,669.498 587.917,671.351 
			587.794,672.866 587.084,674.714 586.95,676.029 586.638,677.756 585.846,679.005 585.929,680.61 584.517,681.487 
			583.453,682.349 582.074,682.922 580.944,682.478 579.598,681.741 578.854,680.976 577.904,680.12 577.853,679.115 
			578.514,678.276 577.765,677.409 577.733,676.807 576.974,675.739 577.303,674.313 577.753,673.284 578.423,672.646 
			578.678,671.728 579.219,670.491 579.257,669.281 579.092,668.032 578.726,666.794 578.383,666.006 		"/>
		<polygon fill="#E39717" points="598.438,672.745 597.92,673.678 598.515,674.214 599.645,674.155 600.397,673.379 599.118,672.71 
					"/>
		<polygon fill="#E39717" points="602.446,668.516 601.764,669.581 601.81,670.462 603.131,670.394 604.551,669.364 
			603.106,668.481 		"/>
	</g>
	<g>
		<path d="M282.876,744.809c-8.387-3.715-13.385-5.15-18.299-5.15c-5.168,0-8.472,1.857-8.472,4.729
			c0,8.697,29.396,6.249,29.396,26.346c0,11.063-9.318,17.479-22.195,17.479c-10.082,0-15.08-2.617-20.841-5.573v-12.413
			c8.303,5.489,13.386,7.432,19.739,7.432c5.507,0,8.472-1.942,8.472-5.32c0-9.457-29.396-5.995-29.396-26.684
			c0-9.964,8.641-16.551,22.026-16.551c6.438,0,12.284,1.352,19.569,4.476V744.809z"/>
		<path d="M320.745,756.884l25.5,30.568H328.2l-22.873-27.021v27.021h-14.402v-57.59h14.402v26.093h0.169l18.214-26.093h15.842
			L320.745,756.884z"/>
		<path d="M407.158,787.452h-15.503l-4.744-11.399h-25.838l-4.321,11.399h-15.249l23.297-57.59h16.689L407.158,787.452z
			 M373.355,743.627l-8.472,22.377h17.791L373.355,743.627z"/>
		<path d="M471.953,787.452h-7.343l-6.682-14.709h-21.293l-6.314,14.709h-7.343l21.514-50.202h5.066L471.953,787.452z
			 M439.426,766.303h15.566l-8.077-18.076L439.426,766.303z"/>
		<path d="M497.675,750.672h-16.527v11.702h16.527v5.449h-16.527v19.629h-6.089v-42.229h22.616V750.672z"/>
		<path d="M513.578,745.223c8.574,0,13.918,4.521,13.918,11.827c0,4.892-2.548,8.545-7.084,10.34
			c3.853,2.539,6.214,6.44,9.444,11.703c1.802,2.91,2.858,4.335,5.778,8.359h-7.27l-5.592-8.669
			c-5.592-8.669-8.14-9.659-11.246-9.659h-2.548v18.328h-6.089v-42.229H513.578z M508.979,763.675h3.915
			c6.523,0,8.388-3.344,8.326-6.873c-0.063-3.963-2.424-6.378-8.326-6.378h-3.915V763.675z"/>
		<path d="M545.076,787.452h-6.09v-42.229h6.09V787.452z"/>
		<path d="M587.015,754.635c-5.22-3.034-9.692-4.396-14.602-4.396c-9.692,0-16.9,6.873-16.9,16.161
			c0,9.474,6.959,16.037,17.149,16.037c4.784,0,10.003-1.672,14.787-4.768v6.625c-4.162,2.167-8.698,3.716-15.347,3.716
			c-15.906,0-22.865-12.198-22.865-21.053c0-12.88,9.755-22.292,23.238-22.292c4.349,0,8.761,1.053,14.539,3.468V754.635z"/>
		<path d="M629.697,787.452h-6.214l-5.653-12.446h-18.02l-5.344,12.446h-6.213l18.205-42.478h4.287L629.697,787.452z
			 M602.172,769.558h13.172l-6.834-15.295L602.172,769.558z"/>
	</g>
	<g>
		<path d="M254.182,810.123c-1.798-1.705-3.534-2.201-4.961-2.201c-1.953,0-3.349,1.022-3.349,2.511c0,4.063,9.147,4,9.147,10.729
			c0,3.317-2.511,5.736-5.922,5.736c-2.294,0-4.154-0.62-5.922-1.953v-3.846c1.55,1.984,3.504,3.07,5.581,3.07
			c2.356,0,3.441-1.488,3.441-2.667c0-4.372-9.146-4.868-9.146-10.666c0-3.441,2.542-5.643,6.418-5.643
			c1.612,0,3.225,0.496,4.713,1.488V810.123z"/>
		<path d="M271.388,826.587v0.063c3.721,1.581,5.829,2.077,7.907,1.488l0.093,0.093l-2.729,2.697
			c-4.093-0.31-7.441-2.14-10.387-4.31c-5.24-0.992-8.868-5.302-8.868-10.573c0-6.387,4.806-10.852,11.658-10.852
			c6.325,0,11.131,4.713,11.131,10.914c0,5.116-3.69,9.519-8.806,10.511V826.587z M260.536,816.076c0,4.278,2.821,8.03,8.465,8.03
			c4.713,0,8.062-3.658,8.062-7.969c0-4.619-3.442-8.154-8.124-8.154C262.613,807.983,260.536,812.883,260.536,816.076z"/>
		<path d="M301.614,818.309c0,5.178-3.101,8.589-9.395,8.589c-4.465,0-8.806-2.512-8.806-8.279v-13.146h3.038v12.496
			c0,2.387,0.311,3.379,1.271,4.341c1.209,1.209,2.729,1.798,4.558,1.798c2.326,0,4-0.744,4.961-1.705
			c1.085-1.085,1.333-2.636,1.333-4.62v-12.31h3.039V818.309z"/>
		<path d="M324.151,826.618h-3.101l-2.822-6.232h-8.992l-2.667,6.232h-3.101l9.084-21.27h2.14L324.151,826.618z M310.415,817.657
			h6.573l-3.411-7.658L310.415,817.657z"/>
		<path d="M331.867,805.472c4.279,0,6.945,2.264,6.945,5.923c0,2.449-1.271,4.278-3.534,5.178c1.922,1.271,3.101,3.225,4.713,5.86
			c0.899,1.457,1.426,2.17,2.883,4.186h-3.627l-2.791-4.341c-2.79-4.341-4.062-4.837-5.612-4.837h-1.271v9.178h-3.039v-21.146
			H331.867z M329.573,814.712h1.953c3.256,0,4.186-1.674,4.155-3.441c-0.031-1.984-1.209-3.193-4.155-3.193h-1.953V814.712z"/>
		<path d="M357.195,808.2h-8.961v6.388h8.651v2.729h-8.651v6.573h9.24v2.729h-12.278v-21.146h11.999V808.2z"/>
		<path d="M387.297,826.618h-4.186l-10.759-10.449v10.449h-3.038v-21.146h3.038v9.674l8.899-9.674h3.783l-9.209,10.016
			L387.297,826.618z"/>
		<path d="M392.719,826.618h-3.039v-21.146h3.039V826.618z"/>
		<path d="M400.407,823.89h9.55v2.729h-12.588v-21.146h3.039V823.89z"/>
		<path d="M423.008,805.193c6.977,0,11.379,4.961,11.379,10.852c0,5.705-4.279,10.853-11.441,10.853
			c-6.914,0-11.286-5.116-11.286-10.853C411.66,810.185,416.155,805.193,423.008,805.193z M423.008,824.106
			c4.744,0,8.248-3.441,8.248-8.062c0-4.65-3.504-8.062-8.248-8.062c-4.713,0-8.217,3.411-8.217,8.062
			C414.791,820.665,418.294,824.106,423.008,824.106z"/>
		<path d="M457.76,826.618h-3.039v-16.464h-0.061l-6.512,8.186h-0.496l-6.512-8.186h-0.063v16.464h-3.037v-21.146h2.852l7.008,8.682
			l7.039-8.682h2.82V826.618z"/>
		<path d="M474.313,808.2h-8.961v6.388h8.65v2.729h-8.65v6.573h9.24v2.729h-12.279v-21.146h12V808.2z"/>
		<path d="M493.688,808.2h-7.316v18.418h-3.039V808.2h-7.316v-2.729h17.672V808.2z"/>
		<path d="M501.932,805.472c4.279,0,6.945,2.264,6.945,5.923c0,2.449-1.271,4.278-3.535,5.178c1.924,1.271,3.102,3.225,4.713,5.86
			c0.9,1.457,1.428,2.17,2.885,4.186h-3.629l-2.789-4.341c-2.791-4.341-4.063-4.837-5.613-4.837h-1.271v9.178H496.6v-21.146H501.932
			z M499.637,814.712h1.955c3.254,0,4.186-1.674,4.154-3.441c-0.031-1.984-1.209-3.193-4.154-3.193h-1.955V814.712z"/>
		<path d="M527.26,808.2h-8.961v6.388h8.65v2.729h-8.65v6.573h9.24v2.729H515.26v-21.146h12V808.2z"/>
		<path d="M557.734,826.618h-3.102l-2.82-6.232h-8.992l-2.666,6.232h-3.102l9.086-21.27h2.139L557.734,826.618z M543.998,817.657
			h6.574l-3.41-7.658L543.998,817.657z"/>
		<path d="M565.451,805.472c4.277,0,6.945,2.264,6.945,5.923c0,2.449-1.271,4.278-3.535,5.178c1.922,1.271,3.1,3.225,4.713,5.86
			c0.898,1.457,1.426,2.17,2.883,4.186h-3.627l-2.791-4.341c-2.791-4.341-4.061-4.837-5.611-4.837h-1.271v9.178h-3.039v-21.146
			H565.451z M563.156,814.712h1.953c3.256,0,4.186-1.674,4.154-3.441c-0.031-1.984-1.209-3.193-4.154-3.193h-1.953V814.712z"/>
		<path d="M584.174,805.472c4.279,0,6.945,2.264,6.945,5.923c0,2.449-1.271,4.278-3.535,5.178c1.924,1.271,3.102,3.225,4.713,5.86
			c0.9,1.457,1.428,2.17,2.885,4.186h-3.629l-2.789-4.341c-2.791-4.341-4.063-4.837-5.613-4.837h-1.271v9.178h-3.037v-21.146
			H584.174z M581.879,814.712h1.955c3.254,0,4.186-1.674,4.154-3.441c-0.031-1.984-1.209-3.193-4.154-3.193h-1.955V814.712z"/>
		<path d="M615.857,826.618h-3.1l-2.822-6.232h-8.99l-2.668,6.232h-3.1l9.084-21.27h2.141L615.857,826.618z M602.123,817.657h6.572
			l-3.41-7.658L602.123,817.657z"/>
		<path d="M627.824,805.472h3.658l-7.846,9.984v11.162H620.6v-11.193l-7.846-9.953h3.66l5.674,7.287L627.824,805.472z"/>
	</g>
</g>
</svg>
