<?xml version="1.0" encoding="UTF-8" standalone="no"?>
<!-- Created with Inkscape (http://www.inkscape.org/) -->

<svg
   xmlns:dc="http://purl.org/dc/elements/1.1/"
   xmlns:cc="http://creativecommons.org/ns#"
   xmlns:rdf="http://www.w3.org/1999/02/22-rdf-syntax-ns#"
   xmlns:svg="http://www.w3.org/2000/svg"
   xmlns="http://www.w3.org/2000/svg"
   xmlns:sodipodi="http://sodipodi.sourceforge.net/DTD/sodipodi-0.dtd"
   xmlns:inkscape="http://www.inkscape.org/namespaces/inkscape"
   version="1.1"
   width="85.848"
   height="106.20231"
   id="svg2"
   inkscape:version="0.48.2 r9819"
   sodipodi:docname="ska_africa_logo.svg">
  <sodipodi:namedview
     pagecolor="#ffffff"
     bordercolor="#666666"
     borderopacity="1"
     objecttolerance="10"
     gridtolerance="10"
     guidetolerance="10"
     inkscape:pageopacity="0"
     inkscape:pageshadow="2"
     inkscape:window-width="1680"
     inkscape:window-height="1003"
     id="namedview2992"
     showgrid="false"
     fit-margin-top="1"
     fit-margin-left="1"
     fit-margin-right="1"
     fit-margin-bottom="1"
     inkscape:zoom="5.9571775"
     inkscape:cx="41.691335"
     inkscape:cy="52.953958"
     inkscape:window-x="-4"
     inkscape:window-y="-4"
     inkscape:window-maximized="1"
     inkscape:current-layer="svg2" />
  <defs
     id="defs4" />
  <metadata
     id="metadata7">
    <rdf:RDF>
      <cc:Work
         rdf:about="">
        <dc:format>image/svg+xml</dc:format>
        <dc:type
           rdf:resource="http://purl.org/dc/dcmitype/StillImage" />
        <dc:title />
      </cc:Work>
    </rdf:RDF>
  </metadata>
  <g
     transform="matrix(0.05165128,0,0,0.05165128,-33.632193,91.020543)"
     id="layer1">
    <g
       transform="translate(54.285714,-1231.4286)"
       id="g3774">
      <rect
         width="690.48602"
         height="672.74615"
         x="1187.9467"
         y="822.91113"
         transform="matrix(0.95422128,-0.29910157,0.28576549,0.95829958,0,0)"
         id="rect3772"
         style="fill:#e09e16;fill-opacity:1" />
      <path
         d="m 752.07147,1504.5928 c -9.4526,-2.5562 -16.4297,-5.6379 -24.0976,-10.6436 -4.2256,-2.7585 -10.319,-5.8359 -13.5409,-6.8387 -31.5049,-9.8054 -41.9649,-50.6449 -18.8833,-73.7266 9.6517,-9.6516 22.2459,-13.9011 38.8318,-13.1024 8.8168,0.4246 10.8722,0.897 17.409,4.0013 27.2905,12.9601 34.3314,48.2547 13.9691,70.0236 -5.8564,6.2611 -9.0767,8.5417 -16.0806,11.3882 -3.0841,1.2535 -5.6075,2.846 -5.6075,3.5388 0,1.9675 13.2154,6.0689 21.3279,6.6191 l 7.328,0.497 -4.7904,4.8635 c -5.3188,5.4001 -7.0393,5.7666 -15.8655,3.3798 z m -5.7157,-29.8619 c 11.3284,-5.8373 17.264,-15.135 17.9735,-28.1544 0.5725,-10.5043 -2.026,-17.7886 -8.962,-25.1223 -7.2407,-7.6561 -12.8925,-9.8614 -25.2958,-9.8704 -8.0704,-0.01 -10.8782,0.399 -14.5508,2.0984 -17.8397,8.2544 -24.9326,29.4357 -15.8034,47.1932 3.8396,7.4686 8.042,11.2456 16.4472,14.7823 5.1818,2.1804 7.0733,2.4433 15.407,2.1409 7.9648,-0.289 10.3539,-0.7847 14.7843,-3.0677 z m -105.176,14.3273 c -6.2482,-1.0939 -10.2812,-2.6928 -14.3583,-5.6924 -3.0282,-2.2279 -3.25,-2.7931 -3.25,-8.2812 0,-6.6721 0.8975,-7.8838 3.6151,-4.8809 5.207,5.7537 16.415,9.5502 23.4968,7.959 4.7658,-1.0708 9.4768,-5.1545 10.178,-8.8226 1.3089,-6.8468 -3.3479,-12.7216 -16.2899,-20.5508 -16.5899,-10.0359 -21.4624,-16.5244 -20.8288,-27.7366 0.4675,-8.275 3.6362,-13.607 10.4643,-17.6085 8.7544,-5.1304 27.5875,-4.1447 33.4848,1.7526 1.3323,1.3324 1.8797,3.3185 1.8797,6.8207 0,5.4883 -1.2603,7.0384 -3.831,4.7119 -3.5627,-3.2241 -10.6268,-5.6088 -16.669,-5.6272 -9.8764,-0.03 -15.4992,4.8346 -14.1153,12.2117 0.8347,4.4494 5.0905,8.3838 15.9806,14.7741 15.117,8.8706 20.268,14.9962 21.3302,25.3661 0.7196,7.0259 -1.1124,12.9689 -5.4993,17.8393 -6.1066,6.7795 -15.293,9.5672 -25.5879,7.7648 z m 179.8042,0.033 c -12.0741,-1.7945 -22.1602,-8.911 -26.7752,-18.8918 -2.0423,-4.4173 -2.1373,-6.046 -2.1373,-36.6229 l 0,-32 5.5,0 5.5,0 0.5,31 c 0.5533,34.3051 0.652,34.8446 7.3027,39.9174 5.3232,4.0602 10.1064,5.5826 17.5394,5.5826 11.4542,0 20.0625,-4.2354 23.7671,-11.6936 1.6915,-3.4052 1.9435,-7.0207 2.3908,-34.3064 l 0.5,-30.5 5.5,0 5.5,0 0.2654,29.4411 c 0.2944,32.6632 -0.2144,36.4907 -5.9611,44.8432 -6.8756,9.9935 -23.5309,15.5872 -39.3918,13.2299 z m 543.12293,-0.1171 c -14.0142,-2.0648 -27.3765,-11.7055 -33.4749,-24.1518 -12.3871,-25.2805 0.029,-54.5153 26.6448,-62.736 8.1556,-2.5191 22.5233,-2.7158 30.3631,-0.4158 12.5458,3.6806 22.6197,12.3053 28.2465,24.1832 3.0295,6.3951 3.185,7.3091 3.185,18.7233 0,11.4271 -0.1529,12.3227 -3.2015,18.7585 -3.7714,7.9618 -11.3661,16.3778 -18.0377,19.9883 -9.3832,5.0781 -22.5909,7.2909 -33.7253,5.6503 z m 23.6401,-13.6194 c 6.957,-3.1238 13.1227,-9.3378 16.4018,-16.5302 2.3574,-5.1707 2.8547,-7.63 2.8854,-14.2685 0.033,-7.0909 -0.3446,-8.7965 -3.2548,-14.7081 -3.5826,-7.2772 -8.5929,-12.2504 -16.0719,-15.9528 -3.8945,-1.9279 -6.2358,-2.2969 -14.6361,-2.3066 -8.7208,-0.01 -10.7036,0.3223 -15.5,2.5979 -6.806,3.2289 -12.1887,8.4201 -15.7641,15.2032 -2.4508,4.6495 -2.7345,6.2244 -2.7352,15.1874 -6e-4,8.6183 0.3284,10.6175 2.3815,14.4693 4.9573,9.3005 9.3598,13.3151 18.7422,17.0906 6.6363,2.6705 20.7544,2.2697 27.5512,-0.7822 z m -512.17553,12.3289 c 0,-1.0388 35.2522,-83.2314 36.6095,-85.3571 1.6165,-2.5318 7.3983,-3.1623 9.1693,-1 1.2248,1.4954 38.2212,84.6206 38.2212,85.877 0,0.4802 -2.6338,0.873 -5.8527,0.873 l -5.8528,0 -5.2651,-11.75 c -2.8958,-6.4625 -5.9731,-12.3125 -6.8384,-13 -1.1161,-0.8867 -6.4026,-1.25 -18.191,-1.25 -11.7479,0 -17.1011,0.3663 -18.2671,1.25 -0.9071,0.6875 -3.8488,6.425 -6.5372,12.75 l -4.8879,11.5 -6.1539,0.2977 c -3.3847,0.1638 -6.1539,0.078 -6.1539,-0.1906 z m 53.8132,-36.8821 c 0.7768,-0.9359 -0.5349,-4.8583 -4.9325,-14.75 -3.2949,-7.4112 -6.345,-13.8316 -6.7781,-14.2674 -0.4331,-0.4358 -1.2359,-0.2108 -1.7842,0.5 -1.3999,1.8152 -11.3184,25.7712 -11.3184,27.3373 0,1.987 1.6804,2.2911 13.1275,2.3762 7.4758,0.055 10.9414,-0.2992 11.6857,-1.1961 z m 41.8971,36.652 c -0.8623,-0.8623 -0.9618,-82.5581 -0.1033,-84.7952 0.514,-1.3396 2.7725,-1.5809 14.75,-1.5762 15.81273,0.01 19.11793,0.6413 25.97823,4.992 12.5405,7.953 12.851,29.5566 0.5419,37.7024 -2.1324,1.4112 -3.8771,2.8677 -3.8771,3.2367 0,0.369 1.6165,2.2217 3.5924,4.1171 1.9758,1.8954 6.5311,7.9462 10.1228,13.4462 3.5918,5.5 8.2012,12.475 10.2432,15.5 2.0419,3.025 4.0382,6.0625 4.4361,6.75 0.5498,0.9499 -0.9589,1.25 -6.2847,1.25 l -7.0081,0 -9.3788,-14.25 c -12.8795,-19.569 -19.08403,-24.8252 -27.84193,-23.5867 l -2.381,0.3367 -0.5,18.5 -0.5,18.5 -5.5397,0.2936 c -3.0469,0.1615 -5.8594,-0.026 -6.25,-0.4166 z m 30.21863,-50.1286 c 5.1741,-2.6383 7.3018,-6.1761 7.3018,-12.1409 0,-9.494 -5.0197,-13.4396 -17.23073,-13.5436 l -7.5,-0.064 -0.2783,13.75 -0.2782,13.75 7.2782,0 c 4.9526,0 8.374,-0.5602 10.70723,-1.75 z m 47.5352,49.5188 c -0.2675,-0.6973 -0.369,-20.1677 -0.2253,-43.2675 l 0.2612,-41.9997 24.5,0 24.5,0 0.3145,3.8198 c 0.5356,6.5046 0.027,6.6802 -19.33,6.6802 -14.826,0 -17.3565,0.2239 -17.8775,1.5818 -0.3339,0.87 -0.607,6.2378 -0.607,11.9286 0,8.0728 0.3453,10.6921 1.5714,11.9182 1.3014,1.3014 4.403,1.5714 18.0523,1.5714 l 16.4808,0 -0.3023,5.25 -0.3022,5.25 -16.9565,0.2751 c -12.0308,0.1952 -17.1826,0.6309 -17.7347,1.5 -1.11,1.7471 -0.9661,22.927 0.1679,24.7249 0.7647,1.2124 4.4532,1.5959 19.2347,2 l 18.2886,0.5 0,4.5 0,4.5 -24.7747,0.2675 c -19.2807,0.2082 -24.8825,-0.014 -25.2612,-1.0003 z m 100.5359,-42.2672 0,-43.5998 5.75,0.2999 5.75,0.2999 0.272,18.75 c 0.1508,10.3907 0.6776,18.75 1.1816,18.75 0.5003,0 8.8579,-8.55 18.5724,-19 l 17.6629,-19 6.9889,0 c 3.9091,0 6.8419,0.4123 6.6555,0.9355 -0.1833,0.5146 -8.2083,9.533 -17.8333,20.041 -9.625,10.508 -17.632,19.483 -17.7934,19.9445 -0.1613,0.4614 9.8512,10.6678 22.25,22.6808 12.3989,12.013 22.5434,22.192 22.5434,22.62 0,0.428 -3.4875,0.7637 -7.75,0.7459 l -7.75,-0.032 -21,-20.4234 c -11.55,-11.2328 -21.5532,-20.4433 -22.2293,-20.4677 -0.9248,-0.033 -1.2964,4.9712 -1.5,20.2056 l -0.2707,20.25 -5.75,0.2999 -5.75,0.2999 0,-43.5998 z m 84.9999,0 0,-43.5998 5.75,0.2999 5.75,0.2999 0,43 0,43 -5.75,0.2999 -5.75,0.2999 0,-43.5998 z m 32,-0.033 0,-43.5668 5.75,0.2999 5.75,0.2999 0.262,37.75 c 0.1441,20.7625 0.3691,37.8379 0.5,37.9453 0.1309,0.1073 9.013,0.4448 19.738,0.75 l 19.5,0.5547 0,4.5 0,4.5 -25.75,0.2669 -25.75,0.2669 0,-43.5668 z m 169.4574,42.2827 c -0.2639,-0.6877 -0.3623,-20.1502 -0.2186,-43.25 l 0.2612,-41.9997 5.6662,-0.2974 5.6663,-0.2974 14.1574,17.5474 c 7.7866,9.6511 14.5123,17.5474 14.946,17.5474 0.4337,0 7.1791,-7.8966 14.9898,-17.548 l 14.2013,-17.548 5.6865,0.298 5.6865,0.298 0,43 0,43 -5.75,0.2999 -5.75,0.2999 0,-31.4681 c 0,-30.1011 -0.259,-34.6317 -1.9798,-34.6317 -0.4212,0 -6.4774,7.2 -13.4584,16 -6.981,8.8 -13.1225,16 -13.6478,16 -0.5254,0 -6.659,-7.2 -13.6303,-16 -6.9714,-8.8 -13.2621,-16 -13.9795,-16 -1.046,0 -1.3042,6.5343 -1.3042,33 l 0,33 -5.5314,0 c -3.5034,0 -5.7073,-0.4584 -6.0112,-1.2503 z m 101.0067,0.017 c -0.2675,-0.6973 -0.369,-20.1677 -0.2253,-43.2675 l 0.2612,-41.9992 24.5,0 24.5,0 0.3145,3.8198 c 0.5356,6.5046 0.027,6.6802 -19.33,6.6802 -14.826,0 -17.3564,0.2239 -17.8775,1.5818 -0.3339,0.87 -0.607,6.2378 -0.607,11.9286 0,8.0728 0.3454,10.6921 1.5714,11.9182 1.3015,1.3014 4.403,1.5714 18.0523,1.5714 l 16.4808,0 -0.3022,5.25 -0.3023,5.25 -16.9565,0.2751 c -12.0308,0.1952 -17.1826,0.6309 -17.7347,1.5 -1.1099,1.7471 -0.9661,22.927 0.1679,24.7249 0.7647,1.2124 4.4532,1.5959 19.2347,2 l 18.2886,0.5 0,4.5 0,4.5 -24.7747,0.2675 c -19.2807,0.2082 -24.8825,-0.014 -25.2612,-1.0003 z m 87.298,-36.4677 -0.2621,-37.7995 -13.933,-0.2794 c -8.5096,-0.1707 -14.4649,-0.7209 -15.2995,-1.4135 -0.8551,-0.7097 -1.2544,-2.6636 -1.067,-5.2206 l 0.2995,-4.0865 36.3027,-0.2625 36.3027,-0.2626 -0.3027,5.2626 -0.3027,5.2625 -14.5,0.5 -14.5,0.5 -0.5,37.5 -0.5,37.5 -5.7379,0.2995 -5.738,0.2996 -0.262,-37.7996 z m 55.6953,36.4502 c -0.2638,-0.6877 -0.3622,-20.1502 -0.2186,-43.25 l 0.2612,-41.9997 13.8938,-0.2792 c 18.0379,-0.3624 23.1941,0.9834 29.7618,7.7676 6.0084,6.2065 7.8428,12.9723 5.887,21.712 -1.0763,4.8093 -2.1174,6.5221 -6.6592,10.9564 -2.9609,2.8907 -5.3834,5.4135 -5.3834,5.6061 0,0.1927 2.0341,2.5346 4.5202,5.2042 2.4861,2.6697 7.4909,9.5863 11.1218,15.3702 3.6308,5.7839 7.8967,12.3042 9.4798,14.4895 1.583,2.1853 2.8782,4.3763 2.8782,4.8689 0,0.4926 -3.0375,0.7626 -6.75,0.6 l -6.75,-0.2957 -9.2488,-13.9441 c -5.0869,-7.6692 -10.4869,-15.2634 -12,-16.8761 -5.0918,-5.4265 -15.0741,-8.4569 -18.0512,-5.4798 -0.8434,0.8434 -1.2,6.4889 -1.2,19 l 0,17.8 -5.5314,0 c -3.5033,0 -5.7073,-0.4584 -6.0112,-1.2503 z m 30.3302,-49.7396 c 9.2825,-4.213 9.8369,-18.2564 0.9286,-23.5187 -3.8457,-2.2717 -16.0612,-3.2799 -18.203,-1.5024 -1.1998,0.9958 -1.5132,3.7852 -1.5132,13.4668 0,6.716 0.3,12.5109 0.6667,12.8775 1.498,1.4981 13.9002,0.5924 18.1209,-1.3232 z m 47.4518,7.7399 0.2606,-43.25 24.3029,-0.2679 24.3029,-0.2679 -0.3029,5.2679 -0.3029,5.2679 -18,0.5 -18,0.5 -0.2822,12.4211 c -0.2104,9.2652 0.044,12.6278 1,13.2347 0.7052,0.4475 8.8432,0.8205 18.0845,0.8289 l 16.8022,0.015 -0.3022,5.25 -0.3023,5.25 -17.5,0.5 -17.5,0.5 -0.2812,12.9217 c -0.2103,9.666 0.042,13.1266 1,13.7347 0.7047,0.4471 9.2687,0.8199 19.0312,0.8283 l 17.75,0.015 0,5 0,5 -25.0106,0 -25.0106,0 0.2606,-43.25 z m 91.7606,41.8808 c 0,-2.4789 35.1952,-84.047 36.8401,-85.3803 2.5136,-2.0374 6.9365,-1.522 8.5807,1 2.1272,3.2627 37.5792,82.9525 37.5792,84.4712 0,1.7235 -10.4019,1.7491 -11.6939,0.029 -0.5163,-0.6875 -3.1342,-6.1187 -5.8176,-12.0692 -2.6833,-5.9506 -5.6614,-11.2381 -6.6179,-11.75 -2.1809,-1.1672 -33.8881,-1.206 -35.7222,-0.044 -0.7434,0.4711 -3.674,6.2017 -6.5123,12.7347 l -5.1607,11.8782 -5.7377,0.2999 c -4.5166,0.2361 -5.7377,-0.013 -5.7377,-1.1696 z m 52.9428,-35.5738 c 1.1936,-0.7552 0.432,-3.2135 -4.4098,-14.2347 -3.2188,-7.327 -6.4387,-13.9639 -7.1552,-14.7486 -1.4116,-1.5459 -3.1644,1.8043 -10.3453,19.7741 -2.7534,6.89 -3.091,8.5022 -1.9341,9.2347 1.8474,1.1696 21.9895,1.1481 23.8444,-0.026 z m 42.0572,-6.5066 0,-43.5499 14.3185,0 c 17.8201,0 23.0688,1.3346 29.1453,7.4112 5.3134,5.3133 6.8618,9.8209 6.3691,18.5406 -0.4338,7.6768 -3.7406,13.9516 -8.8991,16.8863 -1.6066,0.9141 -2.924,2.2738 -2.9275,3.0217 0,0.7479 2.1683,3.7392 4.8262,6.6473 2.6578,2.9081 7.0136,8.8212 9.6794,13.1402 2.6658,4.319 6.7912,10.6098 9.1675,13.9797 2.3763,3.3698 4.3206,6.4073 4.3206,6.75 0,0.3426 -3.0861,0.623 -6.858,0.623 l -6.8579,0 -8.5857,-13.2781 c -12.784,-19.7708 -19.4332,-25.5586 -28.2165,-24.5607 l -2.9819,0.3388 -0.5,18.5 -0.5,18.5 -5.75,0.2999 -5.75,0.2999 0,-43.5499 z m 29.9289,-7.3015 c 5.1565,-2.6293 7.5711,-6.5357 7.5711,-12.2484 0,-9.1781 -5.4369,-13.3551 -17.5,-13.4444 l -7.5,-0.056 -0.2782,13.75 -0.2782,13.75 7.2782,0 c 4.9525,0 8.3739,-0.5602 10.7071,-1.75 z m 48.3103,7.5518 0.2607,-43.3002 13.8938,-0.2792 c 16.0756,-0.3229 21.9441,0.9193 27.9853,5.9241 5.2362,4.3378 7.5717,9.8053 7.5989,17.7894 0.026,7.6178 -2.5145,13.7232 -7.3059,17.5574 -1.7447,1.3962 -3.7518,3.0155 -4.4603,3.5985 -1.0038,0.826 -0.1117,2.3307 4.042,6.8172 2.9316,3.1665 7.5295,9.3202 10.2176,13.6749 2.6881,4.3547 6.8317,10.6748 9.208,14.0447 2.3763,3.3698 4.3206,6.4073 4.3206,6.75 0,0.3426 -3.0861,0.623 -6.858,0.623 l -6.8579,0 -8.5857,-13.2781 c -12.784,-19.7708 -19.4332,-25.5586 -28.2165,-24.5607 l -2.9819,0.3388 -0.5,18.5 -0.5,18.5 -5.7607,0.3002 -5.7606,0.3002 0.2606,-43.3002 z m 29.6896,-7.5518 c 5.1565,-2.6293 7.5711,-6.5357 7.5711,-12.2484 0,-9.1781 -5.4369,-13.3551 -17.5,-13.4444 l -7.5,-0.056 -0.2782,13.75 -0.2782,13.75 7.2782,0 c 4.9525,0 8.3739,-0.5602 10.7071,-1.75 z m 39.0711,49.6847 c 0,-0.5868 8.1397,-20.1632 18.0883,-43.5031 15.7339,-36.9126 18.4022,-42.515 20.5,-43.0415 6.1392,-1.5409 5.7444,-2.1998 25.9353,43.2836 10.437,23.5112 18.8639,42.9907 18.7264,43.2878 -0.1375,0.297 -2.8133,0.5401 -5.9463,0.5401 l -5.6962,0 -5.276,-11.4931 c -2.9018,-6.3212 -6.0495,-12.0587 -6.9949,-12.75 -2.5726,-1.8812 -34.6829,-1.7677 -36.5799,0.1292 -0.7624,0.7624 -3.5854,6.6124 -6.2734,13 l -4.8872,11.6139 -5.7981,0 c -3.4411,0 -5.798,-0.4337 -5.798,-1.0669 z m 52.4182,-35.5401 c 0.87,-0.3338 1.5818,-1.0547 1.5818,-1.6019 0,-1.721 -11.0805,-26.2213 -12.5348,-27.716 -1.5263,-1.5687 -1.4665,-1.6819 -9.6613,18.2905 -3.2751,7.9821 -3.786,10.0315 -2.6759,10.7347 1.5511,0.9825 20.8601,1.2252 23.2902,0.2927 z m 52.3835,13.4054 -0.3017,-23.2984 -15.25,-19.2129 c -8.3875,-10.5671 -15.25,-19.7002 -15.25,-20.2957 0,-0.699 2.3835,-0.978 6.7246,-0.7871 l 6.7246,0.2957 6.0254,7.6112 c 3.314,4.1862 8.2754,10.4558 11.0254,13.9324 2.75,3.4766 5.4895,6.4772 6.0877,6.668 0.5983,0.1908 6.1889,-6.1913 12.4237,-14.1824 l 11.336,-14.5292 6.8263,0 c 3.7545,0 6.8223,0.3375 6.8174,0.75 -0.01,0.7586 -1.1309,2.2334 -19.9911,26.2821 l -10.5,13.3886 -0.5,23.0397 -0.5,23.0396 -5.6983,0.2984 -5.6983,0.2983 -0.3017,-23.2983 z M 685.07147,1327.3876 c -18.5076,-2.4015 -34.8934,-7.4852 -52.3797,-16.2508 l -12.1203,-6.0757 0,-24.4333 c 0,-13.4383 0.3405,-24.6437 0.7566,-24.9009 0.4162,-0.2572 4.8037,2.0046 9.75,5.0262 13.5302,8.2653 27.5486,15.0633 38.8548,18.8418 25.7589,8.6087 55.5379,6.3571 64.0704,-4.8444 3.5083,-4.6057 4.9958,-11.372 3.6218,-16.4747 -2.8741,-10.6735 -12.3382,-16.4255 -48.0536,-29.2053 -37.2963,-13.3454 -56.575,-26.7065 -66.4899,-46.0806 -5.2326,-10.2248 -6.856,-17.6514 -6.8669,-31.4134 -0.01,-10.4386 0.34,-13.0121 2.6761,-19.7784 6.8101,-19.7244 20.6026,-33.0875 42.729,-41.3985 14.2326,-5.346 20.6564,-6.4319 41.5116,-7.0173 15.0669,-0.4229 21.3263,-0.1797 29.8777,1.1613 13.727,2.1525 32.2133,7.2107 45.0624,12.3299 l 10,3.9841 0.2701,21.8358 c 0.1486,12.0097 0.069,22.3604 -0.1772,23.0015 -0.296,0.7714 -5.8,-0.9758 -16.2701,-5.1648 -27.8139,-11.128 -45.7418,-15.119 -63.3228,-14.0966 -19.7256,1.1471 -31,8.2911 -31,19.643 0,11.467 8.7835,17.6926 43,30.4777 34.6788,12.9578 48.0133,20.2179 60.6324,33.0121 13.075,13.2562 19.0146,29.535 18.0648,49.5102 -1.7267,36.3137 -26.5916,60.5775 -69.1972,67.5245 -8.2811,1.3502 -36.8124,1.849 -45,0.7866 z m 1297.99993,-0.4731 c -16.0039,-1.1372 -32.3505,-6.6036 -44.675,-14.9398 -27.334,-18.4883 -42.3122,-50.2069 -38.7965,-82.1569 6.5657,-59.6678 63.0631,-94.691 126.2615,-78.2706 9.7371,2.5299 22.3574,6.8253 26.9599,9.1761 l 2.75,1.4046 0,12.4743 c 0,7.2939 -0.3983,12.4743 -0.959,12.4743 -0.5274,0 -4.9149,-1.9718 -9.75,-4.3818 -21.5909,-10.7619 -43.8858,-14.7039 -63.2909,-11.1905 -29.467,5.3352 -50.1772,25.2332 -55.5903,53.4103 -4.757,24.762 4.4728,50.807 22.9741,64.8291 25.1231,19.0407 60.4711,19.9853 95.6161,2.5553 6.325,-3.1369 11.8375,-5.8577 12.25,-6.0462 0.4125,-0.1886 0.75,5.5738 0.75,12.8053 l 0,13.1482 -8.2555,3.8687 c -19.3334,9.0599 -41.1195,12.6248 -66.2444,10.8396 z m -1160.03293,-3.0729 c -0.265,-0.6958 -0.3659,-54.3651 -0.2244,-119.2651 l 0.2574,-118 29.5,0 29.5,0 0.2587,53.25 c 0.1423,29.2875 0.6268,53.25 1.0765,53.25 0.4498,0 17.6071,-24.075 38.1275,-53.5 l 37.3096,-53.5 32.3639,0 c 17.80013,0 32.36383,0.2798 32.36383,0.6219 0,0.342 -16.9536,24.9795 -37.67453,54.75 -20.721,29.7704 -37.8353,55.0281 -38.0319,56.1281 -0.2572,1.4398 12.2718,17.1245 44.7334,56 24.79993,29.7 45.68123,54.1343 46.40293,54.2985 1.4581,0.3317 0.4105,2.807 34.6201,-81.7985 12.7874,-31.625 30.7225,-75.95 39.8559,-98.5 l 16.6061,-41 34.9395,0 34.9395,0 9.1733,20.5 c 38.1033,85.151 95.771,214.8167 96.1753,216.25 0.4625,1.6401 -1.4879,1.75 -31.0641,1.75 -24.167,0 -31.7387,-0.2927 -32.3309,-1.25 -0.4253,-0.6875 -4.9093,-11.15 -9.9643,-23.25 l -9.1909,-22 -54.244,0 -54.2439,0 -8.7231,23 -8.723,23 -59.8248,0 -59.82483,0 -46.092,-54.4297 c -25.3506,-29.9363 -46.6331,-54.6101 -47.2944,-54.8305 -0.9246,-0.3082 -1.262,12.2644 -1.4609,54.4297 l -0.2585,54.8305 -29.2756,0.2651 c -22.8823,0.2073 -29.3808,-0.011 -29.7574,-1 z m 380.53303,-89.3495 c 0,-1.4717 -32.5291,-80.5552 -35.6478,-86.6656 -0.772,-1.5125 -1.7803,-2.75 -2.2408,-2.75 -0.9294,0 -34.1114,87.0287 -34.1114,89.4662 0,1.35 4.3136,1.5338 36,1.5338 32.1859,0 36,-0.1679 36,-1.5844 z m 170.6383,89.8084 c -0.2637,-0.4267 19.3972,-47.1142 43.691,-103.75 l 44.1706,-102.974 10.8304,0 10.8304,0 45.9196,102.941 c 25.2558,56.6175 45.9196,103.305 45.9196,103.75 0,1.4073 -28.6242,0.9823 -29.6994,-0.441 -0.5193,-0.6875 -6.7038,-13.9525 -13.7432,-29.4778 -7.0394,-15.5252 -13.3589,-28.6925 -14.0434,-29.2606 -0.8251,-0.6847 -16.0208,-0.945 -45.0885,-0.7722 l -43.8439,0.2606 -12.2144,28.5 c -6.7179,15.675 -12.7026,29.2875 -13.2993,30.25 -0.9491,1.531 -2.8283,1.75 -15.0174,1.75 -7.6629,0 -14.1483,-0.3492 -14.4121,-0.776 z m 130.1719,-87.4955 c 1.3132,-1.5823 -29.9472,-72.2285 -31.9605,-72.2285 -1.9696,0 -30.9625,70.6594 -29.6445,72.2474 1.5166,1.8274 60.0877,1.8094 61.605,-0.019 z m 85.6624,87.0534 c -0.269,-0.705 -0.3728,-39.9819 -0.2309,-87.2819 l 0.2582,-86 46.7839,-0.2599 46.784,-0.2599 -0.284,10.7599 -0.2839,10.7599 -34,0.5 -34,0.5 0,24 0,24 34,0.5 34,0.5 0.2838,10.75 0.2839,10.75 -32.8427,0 c -24.7078,0 -33.2606,0.3096 -34.5298,1.25 -1.5255,1.1303 -1.7115,5.0338 -1.9412,40.75 l -0.254,39.5 -11.7691,0.2819 c -8.8596,0.2122 -11.8901,-0.035 -12.2582,-1 z m 116,0 c -0.269,-0.705 -0.3728,-39.9819 -0.2309,-87.2819 l 0.2582,-86 27.237,-0.266 c 31.0861,-0.3037 37.172,0.4784 48.9915,6.2961 9.8019,4.8245 16.4241,11.4885 21.0558,21.1884 3.698,7.7444 3.7157,7.8435 3.7157,20.7815 0,12.5208 -0.1167,13.2462 -3.1645,19.6796 -3.8634,8.1548 -9.7583,14.7244 -17.4999,19.5028 -3.2096,1.981 -5.8356,3.9832 -5.8356,4.4493 0,0.466 3.6569,4.3396 8.1265,8.6078 8.0032,7.6428 10.3726,10.9309 33.335,46.2605 3.7534,5.775 9.4601,14.17 12.6815,18.6556 3.2213,4.4856 5.857,8.4231 5.857,8.75 0,0.3269 -6.4859,0.5944 -14.4132,0.5944 l -14.4132,0 -14.6882,-22.7092 c -17.3483,-26.8221 -23.2594,-34.8631 -31.1878,-42.4255 -9.1681,-8.7449 -12.8551,-10.2803 -24.7976,-10.3266 l -10,-0.039 -0.5,37.5 -0.5,37.5 -11.7691,0.2819 c -8.8596,0.2122 -11.8901,-0.035 -12.2582,-1 z m 57.0273,-99.3815 c 12.9378,-4.4278 18.8684,-12.6979 18.8684,-26.3114 0,-19.2938 -12.7182,-27.7735 -40.3684,-26.915 l -10.5,0.326 -0.2669,26.3772 c -0.2025,20.023 0.036,26.7418 0.989,27.8904 1.725,2.0785 24.063,1.1021 31.2779,-1.3672 z m 93.5,13.0996 0,-87.5616 12.25,0.2808 12.25,0.2808 0,87 0,87 -12.25,0.2808 -12.25,0.2808 0,-87.5616 z m 205.9999,86.4393 c 0,-1.3424 72.9888,-171.9999 74.2855,-173.6893 0.6306,-0.8216 3.7888,-1.25 9.2145,-1.25 5.4149,0 8.5922,0.4301 9.2349,1.25 0.5388,0.6875 8.8787,19.025 18.5331,40.75 9.6543,21.725 26.8186,60.2557 38.1427,85.6239 11.3241,25.3681 20.5893,46.6306 20.5893,47.25 0,1.6635 -23.4235,1.5462 -24.7419,-0.1239 -0.5428,-0.6875 -5.613,-11.6 -11.2672,-24.25 -5.6541,-12.65 -11.165,-23.7875 -12.2464,-24.75 -1.7946,-1.5973 -5.0834,-1.75 -37.7003,-1.75 -32.7968,0 -35.857,0.1439 -37.2282,1.75 -0.8216,0.9625 -5.8949,12.1 -11.2738,24.75 -5.3789,12.65 -10.2315,23.5625 -10.7835,24.25 -1.2949,1.6129 -24.7587,1.7922 -24.7587,0.1893 z m 110.4632,-73.8798 c 0.5751,-0.9305 -24.7395,-58.6931 -26.5111,-60.4928 -0.5053,-0.5134 -1.2048,-0.6473 -1.5544,-0.2977 -1.3197,1.3197 -25.2467,60.1664 -24.7743,60.9307 0.7085,1.1464 52.129,1.01 52.8398,-0.1402 z m -615.4623,-153.3095 c -0.5259,-1.2375 -20.1174,-65.025 -43.5365,-141.75 -23.4191,-76.72502 -47.4756,-155.47505 -53.4588,-175.00005 -5.9832,-19.525 -25.0443,-81.84998 -42.3582,-138.49998 -17.3138,-56.65 -39.4388,-129.0311 -49.1665,-160.8469 -9.7278,-31.8159 -17.3031,-58.18091 -16.8339,-58.58905 0.4692,-0.40814 28.5281,-9.17759 62.3531,-19.48766 57.0152,-17.37861 357.2801,-109.14374 536.8686,-164.07452 43.9073,-13.42994 77.7449,-23.28825 78.2389,-22.79422 0.4788,0.47879 19.5761,62.05293 42.4385,136.83144 22.8623,74.7785 67.9177,222.13591 100.1229,327.46091 69.4943,227.27623 64.5957,211.06861 63.9792,211.68511 -0.2729,0.2729 -32.8179,10.38032 -72.3222,22.46102 -72.8609,22.2812 -211.2538,64.5878 -431.3259,131.8559 -66.825,20.426 -133.1185,40.7067 -147.3188,45.0681 -14.2004,4.3614 -26.0225,7.9299 -26.2714,7.9299 -0.249,0 -0.883,-1.0125 -1.409,-2.25 z m 258.9992,-110.25 c 1.375,-0.786 4.3123,-1.4451 6.5273,-1.4646 3.2105,-0.028 4.5684,-0.652 6.695,-3.0756 l 2.6677,-3.0401 12.305,0.5325 c 11.1259,0.4815 12.5925,0.3423 15.305,-1.4532 1.65,-1.0922 4.2929,-1.9888 5.873,-1.9924 3.9564,-0.01 13.8612,-7.2745 25.1046,-18.4147 7.2962,-7.2293 10.0653,-10.8333 13.5166,-17.5919 2.7431,-5.3718 5.9078,-9.8875 8.5994,-12.2701 4.5829,-4.0569 6.737,-8.9727 8.3946,-19.1572 0.7353,-4.518 0.6307,-6.2246 -0.4857,-7.9285 -2.4684,-3.76739 -0.028,-6.63492 9.6004,-11.28032 11.2902,-5.4472 12.8971,-7.5413 12.8971,-16.8076 0,-4.7598 -0.4941,-7.8273 -1.4682,-9.1152 -0.8075,-1.0676 -1.4825,-2.6405 -1.5,-3.4953 -0.017,-0.8548 -1.3818,-3.683 -3.0318,-6.2847 -1.65,-2.6018 -2.9956,-5.2774 -2.9903,-5.9458 0.01,-1.0203 3.8635,-6.5343 8.0164,-11.4653 0.579,-0.6875 1.8843,-1.25 2.9007,-1.25 1.0772,0 4.1366,-2.8326 7.3353,-6.7917 3.9331,-4.8678 6.7268,-7.2965 9.8627,-8.5741 2.4063,-0.9803 6.3814,-2.7616 8.8335,-3.9583 7.0487,-3.4402 13.2212,-13.49703 13.3039,-21.67593 0.1077,-10.6518 -0.7854,-21.9333 -1.9158,-24.2003 -0.7405,-1.4852 -1.3464,-3.642 -1.3464,-4.7929 0,-1.1509 -1.972,-4.2107 -4.3823,-6.7996 -4.7481,-5.1002 -5.4845,-7.587 -6.118,-20.6611 -0.3358,-6.92798 -0.5633,-7.38308 -5.0372,-10.07568 -1.4262,-0.8583 -1.5916,-1.8964 -0.9943,-6.2392 0.3985,-2.8973 1.7585,-6.6568 3.0643,-8.4703 2.8409,-3.9456 6.4675,-11.4797 6.4675,-13.4358 0,-0.7813 1.046,-2.4116 2.3245,-3.6228 1.2785,-1.2113 2.6226,-3.0111 2.9868,-3.9997 0.3643,-0.9886 2.0036,-2.265 3.6429,-2.8365 1.9543,-0.6813 3.9386,-2.6915 5.7632,-5.8384 4.5492,-7.8464 20.877,-24.1612 27.957,-27.9348 11.2093,-5.9746 24.4862,-22.2475 34.3429,-42.0929 1.7757,-3.575 4.9815,-9.4653 7.1242,-13.0896 5.6671,-9.5858 9.0675,-27.8487 5.4441,-29.2392 -0.7779,-0.2985 -3.589,1.0034 -6.2469,2.8931 -3.4819,2.4755 -5.9031,3.4357 -8.6636,3.4357 -7.6964,0 -27.075,4.0515 -31.3532,6.5551 -4.7892,2.8025 -8.5756,3.0725 -13.6074,0.9701 -5.006,-2.0917 -7.7145,-5.9296 -7.7145,-10.9316 0,-3.8685 -0.4698,-4.5593 -7.25,-10.6604 -9.8764,-8.8872 -14.0741,-11.9332 -16.4452,-11.9332 -6.9458,0 -12.0306,-5.4834 -14.7921,-15.9517 -1.5613,-5.9188 -3.9401,-9.1671 -10.6589,-14.5552 -5.1989,-4.1691 -7.9055,-9.658 -9.3658,-18.9931 -1.4177,-9.0632 -3.5166,-13.4929 -7.6207,-16.0837 -4.4753,-2.8252 -7.8554,-7.7288 -7.8692,-11.4163 -0.01,-1.4662 -3.0223,-6.842 -7.2953,-13 -4.2774,-6.1644 -8.0945,-12.9676 -9.2443,-16.4762 -1.0772,-3.2869 -3.1028,-7.3369 -4.5015,-9 -3.9014,-4.63914 -10.957,-15.98595 -10.957,-17.62101 0,-0.80178 -0.6306,-2.35812 -1.4014,-3.45854 -0.7708,-1.10043 -1.5583,-3.06791 -1.75,-4.37218 -0.1917,-1.30428 -1.5969,-3.30002 -3.1227,-4.43497 l -2.7741,-2.06355 -8.3698,4.38349 -8.3698,4.38349 -5.3561,-1.54669 c -13.2298,-3.8204 -20.0349,-5.02583 -25.6091,-4.53632 -5.1826,0.45512 -5.9434,0.2668 -7.747,-1.91769 -1.8067,-2.1882 -2.3132,-2.3126 -5.2396,-1.28688 -2.7546,0.96547 -3.9029,0.81443 -7.6691,-1.00877 -2.4362,-1.17933 -4.9914,-2.8213 -5.6781,-3.64881 -2.4057,-2.89869 -4.5918,-3.44388 -7.5736,-1.88874 -1.5618,0.81458 -3.977,1.48382 -5.3671,1.48721 -1.3901,0.003 -3.4849,0.67675 -4.655,1.49635 -1.1702,0.81961 -4.5328,1.98178 -7.4725,2.58262 -2.9398,0.60084 -8.9821,2.86529 -13.4274,5.03212 -6.0056,2.9274 -10.2936,4.23554 -16.6881,5.09113 -9.7406,1.30327 -11.1816,0.77701 -12.5182,-4.57182 -1.1382,-4.55471 -7.5961,-7.61319 -16.1732,-7.65968 -3.596,-0.0195 -7.6486,-0.65028 -9.006,-1.40177 -1.4153,-0.78362 -3.8583,-1.14069 -5.7283,-0.83724 -2.2993,0.37312 -4.962,-0.27131 -9.0321,-2.18597 -10.8743,-5.1154 -12.9606,-9.12718 -6.4688,-12.43905 5.7899,-2.95378 7.7176,-8.48473 4.5388,-13.02304 -0.912,-1.30213 -1.6995,-4.17833 -1.75,-6.39155 -0.077,-3.36677 -0.5817,-4.31116 -3.0917,-5.7819 -3.9517,-2.31552 -6.1108,-2.30772 -9.9027,0.0358 -2.6455,1.63506 -4.7066,1.90107 -13.118,1.6931 -8.1202,-0.20077 -10.7043,0.10715 -13.8711,1.65285 -2.7492,1.34187 -4.8044,1.68868 -7,1.18125 -5.4425,-1.2578 -13.6239,-0.70031 -19.4549,1.32568 -3.1093,1.08033 -8.2607,2.44932 -11.4474,3.04221 -3.7465,0.69702 -8.3407,2.64847 -13,5.52185 -15.4703,9.54051 -18.5324,10.77635 -26.205,10.57577 -3.8505,-0.10066 -8.847,0.14868 -11.1033,0.55409 -3.4978,0.62847 -4.7019,0.34037 -8.1701,-1.95479 -6.2599,-4.14263 -8.1841,-3.3187 -11.493,4.92129 -3.4063,8.48243 -4.2286,9.42262 -12.5967,14.40215 -7.3612,4.38045 -9.5343,6.88449 -13.4645,15.51555 -2.1098,4.63337 -2.6733,7.39462 -2.6733,13.09996 0,6.3666 -0.3398,7.6944 -2.8476,11.1292 -5.304,7.2644 -12.2823,12.8691 -18.4133,14.789 -6.0586,1.8972 -8.7391,4.4769 -8.7391,8.4104 0,2.3254 -3.7664,6.8705 -7.34,8.8576 -1.1001,0.6118 -2.5664,3.6431 -3.6468,7.5392 -1.0678,3.8511 -3.2806,8.4468 -5.4103,11.2369 -1.9819,2.5964 -3.8951,5.9236 -4.2516,7.3938 -0.8628,3.5587 -5.1412,11.7538 -6.8969,13.2109 -0.7708,0.6398 -1.6951,2.7284 -2.054,4.6414 -0.5807,3.0954 -0.2287,3.9124 3.1978,7.4214 3.3009,3.3804 3.8682,4.6178 3.9755,8.6713 0.069,2.6004 0.726,7.2688 1.4604,10.3742 1.4832,6.2723 0.6916,12.1205 -3.1611,23.3539 -3.0041,8.7592 -3.3458,12.1295 -1.5133,14.9263 0.8692,1.3265 1.9313,5.2608 2.3603,8.7428 0.7692,6.2436 0.8417,6.362 5.2596,8.5896 2.4638,1.2424 7.502,5.0674 11.196,8.5 3.694,3.4327 8.1568,7.3428 9.9174,8.6891 1.9903,1.522 4.4651,5.2216 6.5428,9.7808 2.9635,6.5029 3.8239,7.5423 7.6029,9.1834 2.3437,1.0178 7.0155,3.5915 10.3817,5.7193 3.3662,2.1278 9.8912,6.2476 14.5,9.1551 4.6088,2.9075 10.7272,5.9726 13.5966,6.8113 4.9508,1.4472 5.4612,1.4165 10,-0.6012 8.872,-3.9441 22.4928,-6.1107 33.8142,-5.3788 9.4227,0.6092 10.5877,0.472 16.6786,-1.9647 3.6015,-1.4409 9.3282,-3.2683 12.7258,-4.0609 3.3977,-0.7926 6.7146,-1.8613 7.371,-2.3749 2.822,-2.208 11.8755,-4.3419 20.6934,-4.8773 11.0177,-0.6691 12.5158,0.047 18.0865,8.644 2.1146,3.2633 4.0652,5.0926 5.7998,5.439 2.5403,0.5074 15.3755,-0.6561 21.792,-1.9754 2.7639,-0.5683 3.7418,-0.1277 7.5,3.3788 l 4.3217,4.0322 0.2391,9.8208 c 0.1315,5.4014 0.3122,11.1707 0.4016,12.8207 0.1542,2.845 -0.5465,5.3108 -3.86,13.585 -1.3832,3.454 -1.3214,3.7544 1.6893,8.2155 1.7188,2.5467 5.6829,6.5745 8.8093,8.9508 6.2639,4.7611 15.503,15.5627 17.3195,20.2487 2.5433,6.5609 5.039,11.31468 6.7557,12.86838 0.9923,0.8979 2.8654,3.8986 4.1626,6.6682 2.0578,4.3933 2.2071,5.4546 1.1707,8.3205 -1.7047,4.7142 -1.5219,5.779 1.6587,9.6651 3.9148,4.783 5.1573,7.3645 5.1315,10.6621 -0.029,3.7798 -3.5439,11.3233 -6.1141,13.1236 -2.7167,1.9028 -4.5448,6.4346 -5.8228,14.43473 -0.5707,3.5724 -1.9395,8.5342 -3.0419,11.0263 -1.1023,2.492 -1.8363,5.8135 -1.631,7.381 1.7204,13.1348 1.8083,13.3819 6.6375,18.6707 2.6011,2.8487 5.7744,7.6544 7.0517,10.6794 1.2774,3.025 4.712,9.3005 7.6326,13.9455 4.7572,7.5663 5.3107,9.0238 5.3166,14 0,3.8604 0.6126,6.4695 1.9934,8.5545 1.2737,1.9232 1.9892,4.69283 1.9934,7.71613 0,2.59379 0.6362,6.19379 1.4057,7.99999 0.7694,1.8061 2.2027,5.3089 3.185,7.7839 0.9823,2.475 2.6027,5.429 3.6009,6.5645 0.9983,1.1354 1.815,2.3464 1.815,2.6911 0,0.3448 2.152,2.8712 4.7821,5.6144 2.6302,2.7433 6.0598,7.8322 7.6215,11.3089 1.5616,3.4766 3.3254,7.2211 3.9195,8.3211 0.5941,1.1 1.8118,3.4052 2.7059,5.1228 0.8941,1.7175 2.6034,4.3656 3.7983,5.8848 2.5136,3.1954 2.8647,8.6732 0.6727,10.4924 -0.825,0.6847 -1.5,1.6666 -1.5,2.182 0,1.3719 7.2433,9.8109 8.4618,9.8586 0.571,0.022 2.5962,1.3724 4.5004,3 3.8145,3.2605 6.2641,3.6166 10.0378,1.4594 z m 221.4537,-97.48252 c 1.4213,-0.5403 5.0506,-2.8045 8.0651,-5.0315 4.5364,-3.3512 5.4811,-4.5693 5.4811,-7.0672 0,-1.66 0.7041,-4.3797 1.5647,-6.0438 0.8605,-1.6642 2.1834,-6.2544 2.9397,-10.2004 1.5409,-8.0399 2.788,-13.167 5.5156,-22.6746 2.6258,-9.1527 5.1961,-21.614 5.6721,-27.5 0.2224,-2.75 0.8231,-5.90003 1.335,-7.00003 0.5118,-1.1 1.0526,-4.25 1.2018,-7 0.2686,-4.9532 0.3015,-4.9986 3.5211,-4.8526 3.7046,0.1681 3.9596,-0.7049 1.75,-5.9932 -0.825,-1.9745 -1.5,-4.7141 -1.5,-6.0882 0,-1.374 -0.6475,-3.9759 -1.4389,-5.7821 -0.7914,-1.8061 -1.6986,-4.5157 -2.0159,-6.0213 -0.3173,-1.5055 -1.7063,-3.4773 -3.0867,-4.3817 -2.3451,-1.5366 -2.6393,-1.5273 -4.4841,0.1423 -1.0859,0.9827 -1.9744,2.6797 -1.9744,3.7711 0,2.7825 -7.871,16.4321 -11.6079,20.1302 -4.9505,4.899 -10.5246,8.5755 -13.0016,8.5755 -1.2581,0 -3.5014,1.125 -4.985,2.5 -1.4837,1.375 -3.771,2.5 -5.0829,2.5 -1.3967,0 -2.6121,0.7253 -2.9324,1.75 -0.3009,0.9625 -1.4654,3.83763 -2.5877,6.38923 l -2.0405,4.6392 2.619,7.8642 c 1.4404,4.3253 2.619,9.6476 2.619,11.8274 0,4.5556 -2.4211,11.5244 -5.6909,16.3806 -3.6462,5.4149 -3.8626,9.1234 -0.8765,15.0163 1.9145,3.778 2.412,5.8664 1.8785,7.886 -0.3992,1.5109 -0.5956,3.4221 -0.4365,4.2471 0.5233,2.714 6.5351,8.2022 11.6254,10.6127 5.8993,2.7936 4.8081,2.6009 7.9538,1.4048 z m 69.9811,-35.9927 c 1.4108,-0.5364 2.5651,-1.6529 2.5651,-2.481 0,-1.6766 -4.1682,-3.077 -6.4978,-2.183 -1.817,0.6972 -1.9982,4.2724 -0.2522,4.9769 0.6875,0.2774 1.3332,0.5399 1.4349,0.5834 0.1017,0.043 1.3392,-0.36 2.75,-0.8963 z m 17.6211,-16.869 c 2.7794,-2.2507 2.0813,-4.8322 -1.5535,-5.7445 -4.044,-1.015 -8.4943,4.2636 -5.8358,6.922 1.2713,1.2713 5.1231,0.6575 7.3893,-1.1775 z M 622.23947,975.4112 c -0.3674,-0.3674 -0.668,-159.66802 -0.668,-354.00143 l 0,-353.3333 354.5014,0 354.50133,0 -0.2514,353.75 -0.2514,353.75003 -353.58193,0.2514 c -194.47,0.1383 -353.8825,-0.049 -354.25,-0.4167 z m 137.3268,-84.83782 60.5333,-60.5031 159.4859,0.2531 159.48603,0.2531 0.5,60 0.5,60.00002 82.5,0 82.4999,0 0.2515,-327.89573 c 0.1853,-241.56511 -0.044,-328.2523 -0.8725,-329.25002 -0.9283,-1.11854 -15.1551,-1.35428 -81.7319,-1.35428 l -80.608,0 -60.0195,59.74484 c -33.0108,32.85967 -144.50703,144.12176 -247.76953,247.24896 l -187.75,187.50418 0,82.25103 0,82.25102 26.2308,0 26.2308,0 60.5332,-60.50312 z m 212.6313,-211.20411 c -0.7089,-0.7089 165.20683,-167.2928 166.62163,-167.2928 0.4138,0 0.7523,37.5269 0.7523,83.393 0,75.121 -0.1569,83.4532 -1.5818,84 -2.2356,0.8579 -164.93243,0.7595 -165.79213,-0.1002 z m -350.3775,-837.04279 0.2514,-353.75001 354,0 353.99993,0 0.2514,353.75001 0.2514,353.74999 -354.50273,0 -354.5028,0 0.2514,-353.74999 z m 629.47983,274.51241 54.2715,-54.23757 0,-88.515865 0,-88.515855 -54.5034,-54.49656 -54.5033,-54.49657 -193.0034,-0.25756 -193.00333,-0.25755 0.2567,-70.24245 0.2568,-70.24244 164,0 164.00003,0 0.5,29.5 0.5,29.5 82.75,0.25578 82.7499,0.25578 0,-37.26809 0,-37.26809 -54.7713,-54.73769 -54.7712,-54.73769 -221.47533,0 -221.4754,0 -54.7534,54.74659 -54.7533,54.74659 0.015,86.00341 c 0.01,47.30188 0.3523,86.45341 0.7642,87.00341 0.4119,0.55 24.7225,24.85001 54.0235,54.00001 l 53.2747,52.999997 193.7111,0.5 193.71123,0.5 0.2564,73.729328 0.2564,73.729325 -2.2564,0.54437 c -1.241,0.2994 -75.1564,0.4212 -164.25643,0.27067 l -162,-0.2737 -0.2639,-31.63909 c -0.2089,-25.041285 -0.5445,-31.871965 -1.6096,-32.755865 -0.9723,-0.80699 -24.0622,-1.04581 -83.2361,-0.86092 l -81.8904,0.25588 -0.2613,39.501285 -0.2612,39.50129 53.7829,53.74871 53.7829,53.74871 222.9569,0 222.95693,0 54.2713,-54.23758 z m 151.5201,-274.51241 0.2514,-353.75001 354,0 353.9999,0 0.2514,353.75001 0.2514,353.74999 -354.5027,0 -354.5028,0 0.2514,-353.74999 z m 189.5514,326.54999 c 0.9214,-0.92138 1.2,-32.26667 1.2,-135 0,-73.589995 0.3375,-133.796373 0.75,-133.791943 0.4125,0.004 60.9909,60.754418 134.6186,134.999993 l 133.8686,134.99195 110.8224,0 c 62.3622,0 111.0591,-0.38313 111.3638,-0.87618 0.2978,-0.4819 -73.363,-74.3944 -163.6909,-164.25 -90.3279,-89.855595 -164.3553,-164.04881 -164.5055,-164.87381 -0.1579,-0.86754 36.525,-37.96656 87,-87.9871 240.0455,-237.88401 242.2549,-240.09627 240.7396,-241.05468 -0.8771,-0.55467 -45.4897,-0.94998 -110.9666,-0.98327 l -109.5,-0.0557 -134.6965,135.04035 c -74.0831,74.27219 -134.9456,135.04035 -135.25,135.04035 -0.3044,0 -0.5535,-60.04286 -0.5535,-133.42857 0,-119.96537 -0.1586,-133.58713 -1.5714,-135 -1.4025,-1.4025 -10.21,-1.57143 -81.9286,-1.57143 -71.7186,0 -80.5261,0.16893 -81.9286,1.57143 -1.4222,1.42217 -1.5714,32.65281 -1.5714,328.80001 0,253.17777 0.2715,327.50012 1.2,328.42856 0.9136,0.9136 20.5555,1.2 82.3,1.2 61.7444,0 81.3864,-0.2864 82.3,-1.2 z"
         id="path2996"
         style="fill:#000000"
         inkscape:connector-curvature="0" />
    </g>
  </g>
</svg>
